%TF.GenerationSoftware,KiCad,Pcbnew,(6.0.4)*%
%TF.CreationDate,2022-10-14T21:27:48-05:00*%
%TF.ProjectId,Joystick-DPAD,4a6f7973-7469-4636-9b2d-445041442e6b,rev?*%
%TF.SameCoordinates,Original*%
%TF.FileFunction,Legend,Bot*%
%TF.FilePolarity,Positive*%
%FSLAX46Y46*%
G04 Gerber Fmt 4.6, Leading zero omitted, Abs format (unit mm)*
G04 Created by KiCad (PCBNEW (6.0.4)) date 2022-10-14 21:27:48*
%MOMM*%
%LPD*%
G01*
G04 APERTURE LIST*
%ADD10C,0.200000*%
%ADD11C,0.150000*%
%ADD12C,0.120000*%
%ADD13C,0.127000*%
G04 APERTURE END LIST*
D10*
X155570000Y-124840000D02*
G75*
G03*
X155570000Y-124840000I-12500000J0D01*
G01*
D11*
%TO.C,D3*%
X149532380Y-131881904D02*
X148532380Y-131881904D01*
X148532380Y-132120000D01*
X148580000Y-132262857D01*
X148675238Y-132358095D01*
X148770476Y-132405714D01*
X148960952Y-132453333D01*
X149103809Y-132453333D01*
X149294285Y-132405714D01*
X149389523Y-132358095D01*
X149484761Y-132262857D01*
X149532380Y-132120000D01*
X149532380Y-131881904D01*
X148532380Y-132786666D02*
X148532380Y-133405714D01*
X148913333Y-133072380D01*
X148913333Y-133215238D01*
X148960952Y-133310476D01*
X149008571Y-133358095D01*
X149103809Y-133405714D01*
X149341904Y-133405714D01*
X149437142Y-133358095D01*
X149484761Y-133310476D01*
X149532380Y-133215238D01*
X149532380Y-132929523D01*
X149484761Y-132834285D01*
X149437142Y-132786666D01*
%TO.C,D2*%
X149532380Y-116311904D02*
X148532380Y-116311904D01*
X148532380Y-116550000D01*
X148580000Y-116692857D01*
X148675238Y-116788095D01*
X148770476Y-116835714D01*
X148960952Y-116883333D01*
X149103809Y-116883333D01*
X149294285Y-116835714D01*
X149389523Y-116788095D01*
X149484761Y-116692857D01*
X149532380Y-116550000D01*
X149532380Y-116311904D01*
X148627619Y-117264285D02*
X148580000Y-117311904D01*
X148532380Y-117407142D01*
X148532380Y-117645238D01*
X148580000Y-117740476D01*
X148627619Y-117788095D01*
X148722857Y-117835714D01*
X148818095Y-117835714D01*
X148960952Y-117788095D01*
X149532380Y-117216666D01*
X149532380Y-117835714D01*
%TO.C,D4*%
X151598095Y-131292380D02*
X151598095Y-130292380D01*
X151360000Y-130292380D01*
X151217142Y-130340000D01*
X151121904Y-130435238D01*
X151074285Y-130530476D01*
X151026666Y-130720952D01*
X151026666Y-130863809D01*
X151074285Y-131054285D01*
X151121904Y-131149523D01*
X151217142Y-131244761D01*
X151360000Y-131292380D01*
X151598095Y-131292380D01*
X150169523Y-130625714D02*
X150169523Y-131292380D01*
X150407619Y-130244761D02*
X150645714Y-130959047D01*
X150026666Y-130959047D01*
%TO.C,D1*%
X136028095Y-131282380D02*
X136028095Y-130282380D01*
X135790000Y-130282380D01*
X135647142Y-130330000D01*
X135551904Y-130425238D01*
X135504285Y-130520476D01*
X135456666Y-130710952D01*
X135456666Y-130853809D01*
X135504285Y-131044285D01*
X135551904Y-131139523D01*
X135647142Y-131234761D01*
X135790000Y-131282380D01*
X136028095Y-131282380D01*
X134504285Y-131282380D02*
X135075714Y-131282380D01*
X134790000Y-131282380D02*
X134790000Y-130282380D01*
X134885238Y-130425238D01*
X134980476Y-130520476D01*
X135075714Y-130568095D01*
D12*
%TO.C,REF\u002A\u002A*%
X129020000Y-82530000D02*
X126900000Y-82530000D01*
X126900000Y-82470000D02*
X126900000Y-82530000D01*
X129020000Y-82470000D02*
X126900000Y-82470000D01*
X129020000Y-80410000D02*
X127960000Y-80410000D01*
X129020000Y-81470000D02*
X129020000Y-80410000D01*
X129020000Y-82470000D02*
X129020000Y-82530000D01*
D13*
%TO.C,J1*%
X161470000Y-119590000D02*
X161470000Y-120240000D01*
X161470000Y-114190000D02*
X161470000Y-113540000D01*
X161470000Y-120240000D02*
X163670000Y-120240000D01*
X161470000Y-113540000D02*
X163670000Y-113540000D01*
X165070000Y-114290000D02*
X165070000Y-119490000D01*
D10*
X161135000Y-114635000D02*
G75*
G03*
X161135000Y-114635000I-100000J0D01*
G01*
D12*
%TO.C,D3*%
X148080000Y-134870000D02*
X148080000Y-130970000D01*
X146080000Y-134870000D02*
X146080000Y-130970000D01*
X148080000Y-134870000D02*
X146080000Y-134870000D01*
%TO.C,D2*%
X148080000Y-119300000D02*
X146080000Y-119300000D01*
X148080000Y-119300000D02*
X148080000Y-115400000D01*
X146080000Y-119300000D02*
X146080000Y-115400000D01*
%TO.C,D4*%
X148610000Y-127840000D02*
X152510000Y-127840000D01*
X148610000Y-129840000D02*
X152510000Y-129840000D01*
X148610000Y-129840000D02*
X148610000Y-127840000D01*
%TO.C,D1*%
X133040000Y-129830000D02*
X136940000Y-129830000D01*
X133040000Y-127830000D02*
X136940000Y-127830000D01*
X133040000Y-129830000D02*
X133040000Y-127830000D01*
%TD*%
M02*
