%TF.GenerationSoftware,KiCad,Pcbnew,(6.0.4)*%
%TF.CreationDate,2022-10-14T21:27:48-05:00*%
%TF.ProjectId,Joystick-DPAD,4a6f7973-7469-4636-9b2d-445041442e6b,rev?*%
%TF.SameCoordinates,Original*%
%TF.FileFunction,Copper,L1,Top*%
%TF.FilePolarity,Positive*%
%FSLAX46Y46*%
G04 Gerber Fmt 4.6, Leading zero omitted, Abs format (unit mm)*
G04 Created by KiCad (PCBNEW (6.0.4)) date 2022-10-14 21:27:48*
%MOMM*%
%LPD*%
G01*
G04 APERTURE LIST*
%TA.AperFunction,ComponentPad*%
%ADD10O,1.500000X3.000000*%
%TD*%
%TA.AperFunction,ComponentPad*%
%ADD11O,3.000000X1.500000*%
%TD*%
%TA.AperFunction,ComponentPad*%
%ADD12R,1.350000X1.350000*%
%TD*%
%TA.AperFunction,ComponentPad*%
%ADD13C,1.930400*%
%TD*%
%TA.AperFunction,ComponentPad*%
%ADD14C,1.524000*%
%TD*%
%TA.AperFunction,ViaPad*%
%ADD15C,0.800000*%
%TD*%
%TA.AperFunction,Conductor*%
%ADD16C,0.250000*%
%TD*%
%TA.AperFunction,Conductor*%
%ADD17C,0.150000*%
%TD*%
G04 APERTURE END LIST*
D10*
%TO.P,JOY1,X,S*%
%TO.N,/x_out*%
X143070000Y-97350000D03*
%TO.P,JOY1,X+,E*%
%TO.N,3.3V*%
X141070000Y-97350000D03*
%TO.P,JOY1,X-,A*%
%TO.N,GND*%
X145070000Y-97350000D03*
D11*
%TO.P,JOY1,Y,S*%
%TO.N,/y_out*%
X134070000Y-88350000D03*
%TO.P,JOY1,Y+,E*%
%TO.N,3.3V*%
X134070000Y-90350000D03*
%TO.P,JOY1,Y-,A*%
%TO.N,GND*%
X134070000Y-86350000D03*
%TD*%
D12*
%TO.P,REF\u002A\u002A,1*%
%TO.N,/Col1*%
X127960000Y-81470000D03*
%TD*%
D13*
%TO.P,JP1,1*%
%TO.N,/x_out*%
X156170000Y-93430000D03*
%TO.P,JP1,2*%
%TO.N,/y_out*%
X156170000Y-90890000D03*
%TO.P,JP1,3*%
%TO.N,GND*%
X156170000Y-88350000D03*
%TO.P,JP1,4*%
%TO.N,3.3V*%
X156170000Y-85810000D03*
%TD*%
D14*
%TO.P,SW1,2,B*%
%TO.N,/Col0*%
X131480000Y-122290000D03*
X139100000Y-122290000D03*
%TO.P,SW1,1,A*%
%TO.N,Net-(D1-Pad2)*%
X139100000Y-127370000D03*
X131480000Y-127370000D03*
%TD*%
%TO.P,SW3,1,A*%
%TO.N,Net-(D3-Pad2)*%
X145620000Y-136430000D03*
X145620000Y-128810000D03*
%TO.P,SW3,2,B*%
%TO.N,/Col1*%
X140540000Y-128810000D03*
X140540000Y-136430000D03*
%TD*%
%TO.P,SW4,1,A*%
%TO.N,Net-(D4-Pad2)*%
X147050000Y-127380000D03*
X154670000Y-127380000D03*
%TO.P,SW4,2,B*%
%TO.N,/Col2*%
X147050000Y-122300000D03*
X154670000Y-122300000D03*
%TD*%
%TO.P,SW2,2,B*%
%TO.N,/Col1*%
X140540000Y-113240000D03*
X140540000Y-120860000D03*
%TO.P,SW2,1,A*%
%TO.N,Net-(D2-Pad2)*%
X145620000Y-120860000D03*
X145620000Y-113240000D03*
%TD*%
D15*
%TO.N,/Row3*%
X150190000Y-118770000D03*
X152750000Y-118690000D03*
%TO.N,GND*%
X164420000Y-120840000D03*
X164420000Y-112940000D03*
%TD*%
D16*
%TO.N,GND*%
X154280000Y-88350000D02*
X156170000Y-88350000D01*
X138730000Y-86350000D02*
X134070000Y-86350000D01*
X152280000Y-86350000D02*
X154280000Y-88350000D01*
X138790000Y-86350000D02*
X138730000Y-86350000D01*
X138730000Y-86350000D02*
X152280000Y-86350000D01*
D17*
%TO.N,/Row3*%
X152750000Y-118690000D02*
X152670000Y-118770000D01*
X152670000Y-118770000D02*
X150190000Y-118770000D01*
%TO.N,/Col1*%
X142134000Y-128536000D02*
X142134000Y-113508000D01*
X142134000Y-128536000D02*
X141860000Y-128810000D01*
X141860000Y-128810000D02*
X140540000Y-128810000D01*
X140540000Y-113240000D02*
X141866000Y-113240000D01*
X141866000Y-113240000D02*
X142134000Y-113508000D01*
D16*
%TO.N,3.3V*%
X131210000Y-85630000D02*
X132430000Y-84410000D01*
X131210000Y-89140000D02*
X131210000Y-85630000D01*
X154770000Y-84410000D02*
X132770000Y-84410000D01*
X132430000Y-84410000D02*
X132770000Y-84410000D01*
X134070000Y-90350000D02*
X132420000Y-90350000D01*
X132420000Y-90350000D02*
X131210000Y-89140000D01*
X156170000Y-85810000D02*
X154770000Y-84410000D01*
%TO.N,GND*%
X140515000Y-88075000D02*
X145070000Y-92630000D01*
X140790000Y-88350000D02*
X140515000Y-88075000D01*
X138790000Y-86350000D02*
X140515000Y-88075000D01*
X145070000Y-92630000D02*
X145070000Y-92870000D01*
X145070000Y-97350000D02*
X145070000Y-92870000D01*
%TO.N,3.3V*%
X134070000Y-90350000D02*
X141070000Y-97350000D01*
%TD*%
%TA.AperFunction,Conductor*%
%TO.N,GND*%
G36*
X163558169Y-79543018D02*
G01*
X163569641Y-79545656D01*
X163580516Y-79543195D01*
X163591662Y-79543215D01*
X163591662Y-79543369D01*
X163601712Y-79542579D01*
X163683994Y-79547972D01*
X163798410Y-79555471D01*
X163811237Y-79557159D01*
X164029387Y-79600551D01*
X164041887Y-79603901D01*
X164252500Y-79675395D01*
X164264449Y-79680344D01*
X164463944Y-79778724D01*
X164475137Y-79785187D01*
X164612444Y-79876933D01*
X164660072Y-79908757D01*
X164670345Y-79916640D01*
X164837560Y-80063283D01*
X164846717Y-80072440D01*
X164993360Y-80239655D01*
X165001243Y-80249928D01*
X165033067Y-80297556D01*
X165124813Y-80434863D01*
X165131276Y-80446056D01*
X165229656Y-80645551D01*
X165234605Y-80657499D01*
X165287196Y-80812425D01*
X165306098Y-80868109D01*
X165309449Y-80880613D01*
X165309454Y-80880637D01*
X165352840Y-81098756D01*
X165354529Y-81111588D01*
X165366861Y-81299735D01*
X165367388Y-81307772D01*
X165366595Y-81317628D01*
X165366862Y-81317628D01*
X165366842Y-81328776D01*
X165364344Y-81339641D01*
X165366804Y-81350513D01*
X165367059Y-81351638D01*
X165369500Y-81373488D01*
X165369500Y-137305990D01*
X165366983Y-137328171D01*
X165364344Y-137339651D01*
X165366805Y-137350525D01*
X165366786Y-137361673D01*
X165366631Y-137361673D01*
X165367423Y-137371723D01*
X165365795Y-137396574D01*
X165354540Y-137568418D01*
X165352850Y-137581259D01*
X165309468Y-137799394D01*
X165306117Y-137811903D01*
X165234631Y-138022516D01*
X165229675Y-138034481D01*
X165131312Y-138233952D01*
X165124837Y-138245168D01*
X165001275Y-138430096D01*
X164993392Y-138440370D01*
X164846747Y-138607589D01*
X164837591Y-138616745D01*
X164690263Y-138745947D01*
X164670370Y-138763392D01*
X164660096Y-138771275D01*
X164475168Y-138894837D01*
X164463952Y-138901312D01*
X164264481Y-138999675D01*
X164252516Y-139004631D01*
X164041903Y-139076117D01*
X164029394Y-139079468D01*
X163811259Y-139122850D01*
X163798418Y-139124540D01*
X163602239Y-139137389D01*
X163592382Y-139136596D01*
X163592382Y-139136863D01*
X163581234Y-139136843D01*
X163570369Y-139134344D01*
X163559235Y-139136863D01*
X163558364Y-139137060D01*
X163536518Y-139139500D01*
X122604017Y-139139500D01*
X122581831Y-139136982D01*
X122581813Y-139136978D01*
X122570359Y-139134344D01*
X122559484Y-139136805D01*
X122548338Y-139136785D01*
X122548338Y-139136631D01*
X122538288Y-139137421D01*
X122456006Y-139132028D01*
X122341590Y-139124529D01*
X122328763Y-139122841D01*
X122110613Y-139079449D01*
X122098113Y-139076099D01*
X121887499Y-139004605D01*
X121875551Y-138999656D01*
X121676056Y-138901276D01*
X121664863Y-138894813D01*
X121479928Y-138771243D01*
X121469655Y-138763360D01*
X121302440Y-138616717D01*
X121293283Y-138607560D01*
X121146640Y-138440345D01*
X121138757Y-138430072D01*
X121015207Y-138245168D01*
X121015187Y-138245137D01*
X121008724Y-138233944D01*
X120910344Y-138034449D01*
X120905395Y-138022500D01*
X120833902Y-137811891D01*
X120830550Y-137799382D01*
X120787160Y-137581244D01*
X120785470Y-137568405D01*
X120773308Y-137382835D01*
X120772629Y-137372484D01*
X120774311Y-137351819D01*
X120773747Y-137351754D01*
X120774388Y-137346182D01*
X120775655Y-137340718D01*
X120775656Y-137340000D01*
X121214341Y-137340000D01*
X121234937Y-137575408D01*
X121296097Y-137803663D01*
X121395965Y-138017829D01*
X121398446Y-138021372D01*
X121398447Y-138021374D01*
X121399247Y-138022516D01*
X121531505Y-138211401D01*
X121698599Y-138378495D01*
X121892171Y-138514035D01*
X122106337Y-138613903D01*
X122334592Y-138675063D01*
X122419431Y-138682486D01*
X122508870Y-138690311D01*
X122508878Y-138690311D01*
X122511034Y-138690500D01*
X122628966Y-138690500D01*
X122631122Y-138690311D01*
X122631130Y-138690311D01*
X122720569Y-138682486D01*
X122805408Y-138675063D01*
X123033663Y-138613903D01*
X123247829Y-138514035D01*
X123441401Y-138378495D01*
X123608495Y-138211401D01*
X123732376Y-138034481D01*
X123741553Y-138021375D01*
X123741554Y-138021373D01*
X123744035Y-138017830D01*
X123843903Y-137803663D01*
X123905063Y-137575408D01*
X123925659Y-137340000D01*
X123905063Y-137104592D01*
X123843903Y-136876337D01*
X123744035Y-136662171D01*
X123608495Y-136468599D01*
X123556392Y-136416496D01*
X139572937Y-136416496D01*
X139588732Y-136604590D01*
X139590065Y-136609238D01*
X139590065Y-136609239D01*
X139604227Y-136658626D01*
X139640760Y-136786034D01*
X139642975Y-136790344D01*
X139724827Y-136949612D01*
X139724830Y-136949616D01*
X139727040Y-136953917D01*
X139844285Y-137101844D01*
X139847972Y-137104982D01*
X139847974Y-137104984D01*
X139984342Y-137221042D01*
X139984347Y-137221045D01*
X139988030Y-137224180D01*
X139992253Y-137226540D01*
X139992257Y-137226543D01*
X140032046Y-137248780D01*
X140152800Y-137316267D01*
X140228053Y-137340718D01*
X140327718Y-137373101D01*
X140327721Y-137373102D01*
X140332317Y-137374595D01*
X140337113Y-137375167D01*
X140337118Y-137375168D01*
X140426031Y-137385770D01*
X140519745Y-137396945D01*
X140524567Y-137396574D01*
X140524570Y-137396574D01*
X140586278Y-137391826D01*
X140707945Y-137382464D01*
X140889748Y-137331703D01*
X141058229Y-137246598D01*
X141206970Y-137130388D01*
X141210132Y-137126725D01*
X141210137Y-137126720D01*
X141327143Y-136991166D01*
X141330307Y-136987501D01*
X141349386Y-136953917D01*
X141421153Y-136827584D01*
X141421154Y-136827581D01*
X141423542Y-136823378D01*
X141437515Y-136781376D01*
X141481596Y-136648863D01*
X141481596Y-136648861D01*
X141483123Y-136644272D01*
X141506780Y-136457005D01*
X141507157Y-136430000D01*
X141505833Y-136416496D01*
X144652937Y-136416496D01*
X144668732Y-136604590D01*
X144670065Y-136609238D01*
X144670065Y-136609239D01*
X144684227Y-136658626D01*
X144720760Y-136786034D01*
X144722975Y-136790344D01*
X144804827Y-136949612D01*
X144804830Y-136949616D01*
X144807040Y-136953917D01*
X144924285Y-137101844D01*
X144927972Y-137104982D01*
X144927974Y-137104984D01*
X145064342Y-137221042D01*
X145064347Y-137221045D01*
X145068030Y-137224180D01*
X145072253Y-137226540D01*
X145072257Y-137226543D01*
X145112046Y-137248780D01*
X145232800Y-137316267D01*
X145308053Y-137340718D01*
X145407718Y-137373101D01*
X145407721Y-137373102D01*
X145412317Y-137374595D01*
X145417113Y-137375167D01*
X145417118Y-137375168D01*
X145506031Y-137385770D01*
X145599745Y-137396945D01*
X145604567Y-137396574D01*
X145604570Y-137396574D01*
X145666278Y-137391826D01*
X145787945Y-137382464D01*
X145940032Y-137340000D01*
X162214341Y-137340000D01*
X162234937Y-137575408D01*
X162296097Y-137803663D01*
X162395965Y-138017829D01*
X162398446Y-138021372D01*
X162398447Y-138021374D01*
X162399247Y-138022516D01*
X162531505Y-138211401D01*
X162698599Y-138378495D01*
X162892171Y-138514035D01*
X163106337Y-138613903D01*
X163334592Y-138675063D01*
X163419431Y-138682486D01*
X163508870Y-138690311D01*
X163508878Y-138690311D01*
X163511034Y-138690500D01*
X163628966Y-138690500D01*
X163631122Y-138690311D01*
X163631130Y-138690311D01*
X163720569Y-138682486D01*
X163805408Y-138675063D01*
X164033663Y-138613903D01*
X164247829Y-138514035D01*
X164441401Y-138378495D01*
X164608495Y-138211401D01*
X164732376Y-138034481D01*
X164741553Y-138021375D01*
X164741554Y-138021373D01*
X164744035Y-138017830D01*
X164843903Y-137803663D01*
X164905063Y-137575408D01*
X164925659Y-137340000D01*
X164905063Y-137104592D01*
X164843903Y-136876337D01*
X164744035Y-136662171D01*
X164608495Y-136468599D01*
X164441401Y-136301505D01*
X164247829Y-136165965D01*
X164033663Y-136066097D01*
X163805408Y-136004937D01*
X163720569Y-135997514D01*
X163631130Y-135989689D01*
X163631122Y-135989689D01*
X163628966Y-135989500D01*
X163511034Y-135989500D01*
X163508878Y-135989689D01*
X163508870Y-135989689D01*
X163419431Y-135997514D01*
X163334592Y-136004937D01*
X163106337Y-136066097D01*
X162892171Y-136165965D01*
X162698599Y-136301505D01*
X162531505Y-136468599D01*
X162529026Y-136472140D01*
X162398447Y-136658625D01*
X162398446Y-136658627D01*
X162395965Y-136662170D01*
X162296097Y-136876337D01*
X162234937Y-137104592D01*
X162214341Y-137340000D01*
X145940032Y-137340000D01*
X145969748Y-137331703D01*
X146138229Y-137246598D01*
X146286970Y-137130388D01*
X146290132Y-137126725D01*
X146290137Y-137126720D01*
X146407143Y-136991166D01*
X146410307Y-136987501D01*
X146429386Y-136953917D01*
X146501153Y-136827584D01*
X146501154Y-136827581D01*
X146503542Y-136823378D01*
X146517515Y-136781376D01*
X146561596Y-136648863D01*
X146561596Y-136648861D01*
X146563123Y-136644272D01*
X146586780Y-136457005D01*
X146587157Y-136430000D01*
X146568738Y-136242145D01*
X146514181Y-136061445D01*
X146425566Y-135894783D01*
X146306266Y-135748508D01*
X146160827Y-135628191D01*
X145994788Y-135538414D01*
X145814474Y-135482597D01*
X145802524Y-135481341D01*
X145631568Y-135463373D01*
X145631566Y-135463373D01*
X145626752Y-135462867D01*
X145571883Y-135467860D01*
X145443592Y-135479535D01*
X145443588Y-135479536D01*
X145438773Y-135479974D01*
X145368851Y-135500553D01*
X145262344Y-135531900D01*
X145262341Y-135531901D01*
X145257697Y-135533268D01*
X145219769Y-135553096D01*
X145094717Y-135618471D01*
X145094713Y-135618474D01*
X145090420Y-135620718D01*
X145086644Y-135623754D01*
X145086641Y-135623756D01*
X145083987Y-135625890D01*
X144943316Y-135738993D01*
X144940207Y-135742698D01*
X144940204Y-135742701D01*
X144825103Y-135879873D01*
X144821986Y-135883588D01*
X144731052Y-136048996D01*
X144673978Y-136228917D01*
X144652937Y-136416496D01*
X141505833Y-136416496D01*
X141488738Y-136242145D01*
X141434181Y-136061445D01*
X141345566Y-135894783D01*
X141226266Y-135748508D01*
X141080827Y-135628191D01*
X140914788Y-135538414D01*
X140734474Y-135482597D01*
X140722524Y-135481341D01*
X140551568Y-135463373D01*
X140551566Y-135463373D01*
X140546752Y-135462867D01*
X140491883Y-135467860D01*
X140363592Y-135479535D01*
X140363588Y-135479536D01*
X140358773Y-135479974D01*
X140288851Y-135500553D01*
X140182344Y-135531900D01*
X140182341Y-135531901D01*
X140177697Y-135533268D01*
X140139769Y-135553096D01*
X140014717Y-135618471D01*
X140014713Y-135618474D01*
X140010420Y-135620718D01*
X140006644Y-135623754D01*
X140006641Y-135623756D01*
X140003987Y-135625890D01*
X139863316Y-135738993D01*
X139860207Y-135742698D01*
X139860204Y-135742701D01*
X139745103Y-135879873D01*
X139741986Y-135883588D01*
X139651052Y-136048996D01*
X139593978Y-136228917D01*
X139572937Y-136416496D01*
X123556392Y-136416496D01*
X123441401Y-136301505D01*
X123247829Y-136165965D01*
X123033663Y-136066097D01*
X122805408Y-136004937D01*
X122720569Y-135997514D01*
X122631130Y-135989689D01*
X122631122Y-135989689D01*
X122628966Y-135989500D01*
X122511034Y-135989500D01*
X122508878Y-135989689D01*
X122508870Y-135989689D01*
X122419431Y-135997514D01*
X122334592Y-136004937D01*
X122106337Y-136066097D01*
X121892171Y-136165965D01*
X121698599Y-136301505D01*
X121531505Y-136468599D01*
X121529026Y-136472140D01*
X121398447Y-136658625D01*
X121398446Y-136658627D01*
X121395965Y-136662170D01*
X121296097Y-136876337D01*
X121234937Y-137104592D01*
X121214341Y-137340000D01*
X120775656Y-137340000D01*
X120774412Y-137334545D01*
X120772980Y-137328266D01*
X120770500Y-137306248D01*
X120770500Y-127356496D01*
X130512937Y-127356496D01*
X130528732Y-127544590D01*
X130530065Y-127549238D01*
X130530065Y-127549239D01*
X130540111Y-127584272D01*
X130580760Y-127726034D01*
X130582975Y-127730344D01*
X130664827Y-127889612D01*
X130664830Y-127889616D01*
X130667040Y-127893917D01*
X130784285Y-128041844D01*
X130787972Y-128044982D01*
X130787974Y-128044984D01*
X130924342Y-128161042D01*
X130924347Y-128161045D01*
X130928030Y-128164180D01*
X130932253Y-128166540D01*
X130932257Y-128166543D01*
X130989939Y-128198780D01*
X131092800Y-128256267D01*
X131164369Y-128279521D01*
X131267718Y-128313101D01*
X131267721Y-128313102D01*
X131272317Y-128314595D01*
X131277113Y-128315167D01*
X131277118Y-128315168D01*
X131366031Y-128325770D01*
X131459745Y-128336945D01*
X131464567Y-128336574D01*
X131464570Y-128336574D01*
X131526278Y-128331826D01*
X131647945Y-128322464D01*
X131829748Y-128271703D01*
X131998229Y-128186598D01*
X132146970Y-128070388D01*
X132150132Y-128066725D01*
X132150137Y-128066720D01*
X132252502Y-127948128D01*
X132270307Y-127927501D01*
X132275470Y-127918414D01*
X132361153Y-127767584D01*
X132361154Y-127767581D01*
X132363542Y-127763378D01*
X132371205Y-127740344D01*
X132421596Y-127588863D01*
X132421596Y-127588861D01*
X132423123Y-127584272D01*
X132426286Y-127559239D01*
X132446432Y-127399758D01*
X132446780Y-127397005D01*
X132447157Y-127370000D01*
X132445833Y-127356496D01*
X138132937Y-127356496D01*
X138148732Y-127544590D01*
X138150065Y-127549238D01*
X138150065Y-127549239D01*
X138160111Y-127584272D01*
X138200760Y-127726034D01*
X138202975Y-127730344D01*
X138284827Y-127889612D01*
X138284830Y-127889616D01*
X138287040Y-127893917D01*
X138404285Y-128041844D01*
X138407972Y-128044982D01*
X138407974Y-128044984D01*
X138544342Y-128161042D01*
X138544347Y-128161045D01*
X138548030Y-128164180D01*
X138552253Y-128166540D01*
X138552257Y-128166543D01*
X138609939Y-128198780D01*
X138712800Y-128256267D01*
X138784369Y-128279521D01*
X138887718Y-128313101D01*
X138887721Y-128313102D01*
X138892317Y-128314595D01*
X138897113Y-128315167D01*
X138897118Y-128315168D01*
X138986031Y-128325770D01*
X139079745Y-128336945D01*
X139084567Y-128336574D01*
X139084570Y-128336574D01*
X139146278Y-128331826D01*
X139267945Y-128322464D01*
X139449748Y-128271703D01*
X139454068Y-128269521D01*
X139454071Y-128269520D01*
X139562702Y-128214647D01*
X139623167Y-128205287D01*
X139677586Y-128233255D01*
X139705173Y-128287868D01*
X139694092Y-128350707D01*
X139651052Y-128428996D01*
X139593978Y-128608917D01*
X139572937Y-128796496D01*
X139588732Y-128984590D01*
X139590065Y-128989238D01*
X139590065Y-128989239D01*
X139637095Y-129153251D01*
X139640760Y-129166034D01*
X139642975Y-129170344D01*
X139724827Y-129329612D01*
X139724830Y-129329616D01*
X139727040Y-129333917D01*
X139844285Y-129481844D01*
X139847972Y-129484982D01*
X139847974Y-129484984D01*
X139984342Y-129601042D01*
X139984347Y-129601045D01*
X139988030Y-129604180D01*
X139992253Y-129606540D01*
X139992257Y-129606543D01*
X140032046Y-129628780D01*
X140152800Y-129696267D01*
X140193592Y-129709521D01*
X140327718Y-129753101D01*
X140327721Y-129753102D01*
X140332317Y-129754595D01*
X140337113Y-129755167D01*
X140337118Y-129755168D01*
X140426031Y-129765770D01*
X140519745Y-129776945D01*
X140524567Y-129776574D01*
X140524570Y-129776574D01*
X140586278Y-129771826D01*
X140707945Y-129762464D01*
X140889748Y-129711703D01*
X141058229Y-129626598D01*
X141206970Y-129510388D01*
X141210132Y-129506725D01*
X141210137Y-129506720D01*
X141327143Y-129371166D01*
X141330307Y-129367501D01*
X141349386Y-129333917D01*
X141421153Y-129207584D01*
X141421154Y-129207581D01*
X141423542Y-129203378D01*
X141440217Y-129153251D01*
X141476526Y-129104003D01*
X141534156Y-129085500D01*
X141823116Y-129085500D01*
X141842429Y-129087402D01*
X141860000Y-129090897D01*
X141887132Y-129085500D01*
X141887133Y-129085500D01*
X141922558Y-129078453D01*
X141957930Y-129071418D01*
X141957932Y-129071417D01*
X141967495Y-129069515D01*
X142009465Y-129041471D01*
X142035622Y-129023994D01*
X142035623Y-129023993D01*
X142058624Y-129008624D01*
X142068574Y-128993733D01*
X142080885Y-128978731D01*
X142263120Y-128796496D01*
X144652937Y-128796496D01*
X144668732Y-128984590D01*
X144670065Y-128989238D01*
X144670065Y-128989239D01*
X144717095Y-129153251D01*
X144720760Y-129166034D01*
X144722975Y-129170344D01*
X144804827Y-129329612D01*
X144804830Y-129329616D01*
X144807040Y-129333917D01*
X144924285Y-129481844D01*
X144927972Y-129484982D01*
X144927974Y-129484984D01*
X145064342Y-129601042D01*
X145064347Y-129601045D01*
X145068030Y-129604180D01*
X145072253Y-129606540D01*
X145072257Y-129606543D01*
X145112046Y-129628780D01*
X145232800Y-129696267D01*
X145273592Y-129709521D01*
X145407718Y-129753101D01*
X145407721Y-129753102D01*
X145412317Y-129754595D01*
X145417113Y-129755167D01*
X145417118Y-129755168D01*
X145506031Y-129765770D01*
X145599745Y-129776945D01*
X145604567Y-129776574D01*
X145604570Y-129776574D01*
X145666278Y-129771826D01*
X145787945Y-129762464D01*
X145969748Y-129711703D01*
X146138229Y-129626598D01*
X146286970Y-129510388D01*
X146290132Y-129506725D01*
X146290137Y-129506720D01*
X146407143Y-129371166D01*
X146410307Y-129367501D01*
X146429386Y-129333917D01*
X146501153Y-129207584D01*
X146501154Y-129207581D01*
X146503542Y-129203378D01*
X146517515Y-129161376D01*
X146561596Y-129028863D01*
X146561596Y-129028861D01*
X146563123Y-129024272D01*
X146568006Y-128985623D01*
X146586432Y-128839758D01*
X146586780Y-128837005D01*
X146587157Y-128810000D01*
X146571626Y-128651602D01*
X146569210Y-128626955D01*
X146569209Y-128626951D01*
X146568738Y-128622145D01*
X146514181Y-128441445D01*
X146476736Y-128371020D01*
X146466111Y-128310766D01*
X146492933Y-128255773D01*
X146546957Y-128227048D01*
X146612446Y-128238125D01*
X146662800Y-128266267D01*
X146703592Y-128279521D01*
X146837718Y-128323101D01*
X146837721Y-128323102D01*
X146842317Y-128324595D01*
X146847113Y-128325167D01*
X146847118Y-128325168D01*
X146936031Y-128335770D01*
X147029745Y-128346945D01*
X147034567Y-128346574D01*
X147034570Y-128346574D01*
X147096278Y-128341826D01*
X147217945Y-128332464D01*
X147399748Y-128281703D01*
X147568229Y-128196598D01*
X147716970Y-128080388D01*
X147720132Y-128076725D01*
X147720137Y-128076720D01*
X147816459Y-127965129D01*
X147840307Y-127937501D01*
X147848380Y-127923291D01*
X147931153Y-127777584D01*
X147931154Y-127777581D01*
X147933542Y-127773378D01*
X147935470Y-127767584D01*
X147991596Y-127598863D01*
X147991596Y-127598861D01*
X147993123Y-127594272D01*
X147993807Y-127588863D01*
X148016432Y-127409758D01*
X148016780Y-127407005D01*
X148017157Y-127380000D01*
X148015833Y-127366496D01*
X153702937Y-127366496D01*
X153703342Y-127371316D01*
X153718283Y-127549239D01*
X153718732Y-127554590D01*
X153720065Y-127559238D01*
X153720065Y-127559239D01*
X153767893Y-127726034D01*
X153770760Y-127736034D01*
X153772975Y-127740344D01*
X153854827Y-127899612D01*
X153854830Y-127899616D01*
X153857040Y-127903917D01*
X153974285Y-128051844D01*
X153977972Y-128054982D01*
X153977974Y-128054984D01*
X154114342Y-128171042D01*
X154114347Y-128171045D01*
X154118030Y-128174180D01*
X154122253Y-128176540D01*
X154122257Y-128176543D01*
X154162046Y-128198780D01*
X154282800Y-128266267D01*
X154323592Y-128279521D01*
X154457718Y-128323101D01*
X154457721Y-128323102D01*
X154462317Y-128324595D01*
X154467113Y-128325167D01*
X154467118Y-128325168D01*
X154556031Y-128335770D01*
X154649745Y-128346945D01*
X154654567Y-128346574D01*
X154654570Y-128346574D01*
X154716278Y-128341826D01*
X154837945Y-128332464D01*
X155019748Y-128281703D01*
X155188229Y-128196598D01*
X155336970Y-128080388D01*
X155340132Y-128076725D01*
X155340137Y-128076720D01*
X155436459Y-127965129D01*
X155460307Y-127937501D01*
X155468380Y-127923291D01*
X155551153Y-127777584D01*
X155551154Y-127777581D01*
X155553542Y-127773378D01*
X155555470Y-127767584D01*
X155611596Y-127598863D01*
X155611596Y-127598861D01*
X155613123Y-127594272D01*
X155613807Y-127588863D01*
X155636432Y-127409758D01*
X155636780Y-127407005D01*
X155637157Y-127380000D01*
X155618738Y-127192145D01*
X155564181Y-127011445D01*
X155475566Y-126844783D01*
X155356266Y-126698508D01*
X155349247Y-126692701D01*
X155214554Y-126581274D01*
X155214553Y-126581273D01*
X155210827Y-126578191D01*
X155044788Y-126488414D01*
X154864474Y-126432597D01*
X154852524Y-126431341D01*
X154681568Y-126413373D01*
X154681566Y-126413373D01*
X154676752Y-126412867D01*
X154621883Y-126417860D01*
X154493592Y-126429535D01*
X154493588Y-126429536D01*
X154488773Y-126429974D01*
X154418851Y-126450553D01*
X154312344Y-126481900D01*
X154312341Y-126481901D01*
X154307697Y-126483268D01*
X154269769Y-126503096D01*
X154144717Y-126568471D01*
X154144713Y-126568474D01*
X154140420Y-126570718D01*
X154136644Y-126573754D01*
X154136641Y-126573756D01*
X153997756Y-126685423D01*
X153993316Y-126688993D01*
X153990207Y-126692698D01*
X153990204Y-126692701D01*
X153875103Y-126829873D01*
X153871986Y-126833588D01*
X153781052Y-126998996D01*
X153723978Y-127178917D01*
X153722494Y-127192145D01*
X153704059Y-127356496D01*
X153702937Y-127366496D01*
X148015833Y-127366496D01*
X147998738Y-127192145D01*
X147944181Y-127011445D01*
X147855566Y-126844783D01*
X147736266Y-126698508D01*
X147729247Y-126692701D01*
X147594554Y-126581274D01*
X147594553Y-126581273D01*
X147590827Y-126578191D01*
X147424788Y-126488414D01*
X147244474Y-126432597D01*
X147232524Y-126431341D01*
X147061568Y-126413373D01*
X147061566Y-126413373D01*
X147056752Y-126412867D01*
X147001883Y-126417860D01*
X146873592Y-126429535D01*
X146873588Y-126429536D01*
X146868773Y-126429974D01*
X146798851Y-126450553D01*
X146692344Y-126481900D01*
X146692341Y-126481901D01*
X146687697Y-126483268D01*
X146649769Y-126503096D01*
X146524717Y-126568471D01*
X146524713Y-126568474D01*
X146520420Y-126570718D01*
X146516644Y-126573754D01*
X146516641Y-126573756D01*
X146377756Y-126685423D01*
X146373316Y-126688993D01*
X146370207Y-126692698D01*
X146370204Y-126692701D01*
X146255103Y-126829873D01*
X146251986Y-126833588D01*
X146161052Y-126998996D01*
X146103978Y-127178917D01*
X146102494Y-127192145D01*
X146084059Y-127356496D01*
X146082937Y-127366496D01*
X146083342Y-127371316D01*
X146098283Y-127549239D01*
X146098732Y-127554590D01*
X146100065Y-127559238D01*
X146100065Y-127559239D01*
X146147893Y-127726034D01*
X146150760Y-127736034D01*
X146152975Y-127740344D01*
X146152977Y-127740349D01*
X146194391Y-127820933D01*
X146204174Y-127881331D01*
X146176586Y-127935944D01*
X146122167Y-127963912D01*
X146059253Y-127953270D01*
X145994788Y-127918414D01*
X145814474Y-127862597D01*
X145802524Y-127861341D01*
X145631568Y-127843373D01*
X145631566Y-127843373D01*
X145626752Y-127842867D01*
X145571883Y-127847860D01*
X145443592Y-127859535D01*
X145443588Y-127859536D01*
X145438773Y-127859974D01*
X145368851Y-127880553D01*
X145262344Y-127911900D01*
X145262341Y-127911901D01*
X145257697Y-127913268D01*
X145238525Y-127923291D01*
X145094717Y-127998471D01*
X145094713Y-127998474D01*
X145090420Y-128000718D01*
X145086644Y-128003754D01*
X145086641Y-128003756D01*
X144987622Y-128083370D01*
X144943316Y-128118993D01*
X144940207Y-128122698D01*
X144940204Y-128122701D01*
X144825103Y-128259873D01*
X144821986Y-128263588D01*
X144819650Y-128267836D01*
X144819650Y-128267837D01*
X144781658Y-128336945D01*
X144731052Y-128428996D01*
X144673978Y-128608917D01*
X144652937Y-128796496D01*
X142263120Y-128796496D01*
X142302731Y-128756885D01*
X142317733Y-128744574D01*
X142324518Y-128740041D01*
X142324520Y-128740039D01*
X142332624Y-128734624D01*
X142354086Y-128702505D01*
X142393516Y-128643494D01*
X142414897Y-128536000D01*
X142411402Y-128518428D01*
X142409500Y-128499116D01*
X142409500Y-120846496D01*
X144652937Y-120846496D01*
X144668732Y-121034590D01*
X144670065Y-121039238D01*
X144670065Y-121039239D01*
X144680111Y-121074272D01*
X144720760Y-121216034D01*
X144722975Y-121220344D01*
X144804827Y-121379612D01*
X144804830Y-121379616D01*
X144807040Y-121383917D01*
X144924285Y-121531844D01*
X144927972Y-121534982D01*
X144927974Y-121534984D01*
X145064342Y-121651042D01*
X145064347Y-121651045D01*
X145068030Y-121654180D01*
X145072253Y-121656540D01*
X145072257Y-121656543D01*
X145170842Y-121711640D01*
X145232800Y-121746267D01*
X145318685Y-121774172D01*
X145407718Y-121803101D01*
X145407721Y-121803102D01*
X145412317Y-121804595D01*
X145417113Y-121805167D01*
X145417118Y-121805168D01*
X145506031Y-121815770D01*
X145599745Y-121826945D01*
X145604567Y-121826574D01*
X145604570Y-121826574D01*
X145666278Y-121821826D01*
X145787945Y-121812464D01*
X145969748Y-121761703D01*
X145974061Y-121759524D01*
X145974067Y-121759522D01*
X146032021Y-121730247D01*
X146068857Y-121711640D01*
X146129321Y-121702280D01*
X146183741Y-121730247D01*
X146211328Y-121784860D01*
X146200248Y-121847699D01*
X146161052Y-121918996D01*
X146103978Y-122098917D01*
X146102494Y-122112145D01*
X146084059Y-122276496D01*
X146082937Y-122286496D01*
X146083342Y-122291316D01*
X146098283Y-122469239D01*
X146098732Y-122474590D01*
X146100065Y-122479238D01*
X146100065Y-122479239D01*
X146147893Y-122646034D01*
X146150760Y-122656034D01*
X146152975Y-122660344D01*
X146234827Y-122819612D01*
X146234830Y-122819616D01*
X146237040Y-122823917D01*
X146354285Y-122971844D01*
X146357972Y-122974982D01*
X146357974Y-122974984D01*
X146494342Y-123091042D01*
X146494347Y-123091045D01*
X146498030Y-123094180D01*
X146502253Y-123096540D01*
X146502257Y-123096543D01*
X146542046Y-123118780D01*
X146662800Y-123186267D01*
X146683535Y-123193004D01*
X146837718Y-123243101D01*
X146837721Y-123243102D01*
X146842317Y-123244595D01*
X146847113Y-123245167D01*
X146847118Y-123245168D01*
X146936031Y-123255770D01*
X147029745Y-123266945D01*
X147034567Y-123266574D01*
X147034570Y-123266574D01*
X147096278Y-123261826D01*
X147217945Y-123252464D01*
X147399748Y-123201703D01*
X147568229Y-123116598D01*
X147716970Y-123000388D01*
X147720132Y-122996725D01*
X147720137Y-122996720D01*
X147837143Y-122861166D01*
X147840307Y-122857501D01*
X147848380Y-122843291D01*
X147931153Y-122697584D01*
X147931154Y-122697581D01*
X147933542Y-122693378D01*
X147935470Y-122687584D01*
X147991596Y-122518863D01*
X147991596Y-122518861D01*
X147993123Y-122514272D01*
X147993807Y-122508863D01*
X148016432Y-122329758D01*
X148016780Y-122327005D01*
X148017157Y-122300000D01*
X148015833Y-122286496D01*
X153702937Y-122286496D01*
X153703342Y-122291316D01*
X153718283Y-122469239D01*
X153718732Y-122474590D01*
X153720065Y-122479238D01*
X153720065Y-122479239D01*
X153767893Y-122646034D01*
X153770760Y-122656034D01*
X153772975Y-122660344D01*
X153854827Y-122819612D01*
X153854830Y-122819616D01*
X153857040Y-122823917D01*
X153974285Y-122971844D01*
X153977972Y-122974982D01*
X153977974Y-122974984D01*
X154114342Y-123091042D01*
X154114347Y-123091045D01*
X154118030Y-123094180D01*
X154122253Y-123096540D01*
X154122257Y-123096543D01*
X154162046Y-123118780D01*
X154282800Y-123186267D01*
X154303535Y-123193004D01*
X154457718Y-123243101D01*
X154457721Y-123243102D01*
X154462317Y-123244595D01*
X154467113Y-123245167D01*
X154467118Y-123245168D01*
X154556031Y-123255770D01*
X154649745Y-123266945D01*
X154654567Y-123266574D01*
X154654570Y-123266574D01*
X154716278Y-123261826D01*
X154837945Y-123252464D01*
X155019748Y-123201703D01*
X155188229Y-123116598D01*
X155336970Y-123000388D01*
X155340132Y-122996725D01*
X155340137Y-122996720D01*
X155457143Y-122861166D01*
X155460307Y-122857501D01*
X155468380Y-122843291D01*
X155551153Y-122697584D01*
X155551154Y-122697581D01*
X155553542Y-122693378D01*
X155555470Y-122687584D01*
X155611596Y-122518863D01*
X155611596Y-122518861D01*
X155613123Y-122514272D01*
X155613807Y-122508863D01*
X155636432Y-122329758D01*
X155636780Y-122327005D01*
X155637157Y-122300000D01*
X155618738Y-122112145D01*
X155564181Y-121931445D01*
X155475566Y-121764783D01*
X155356266Y-121618508D01*
X155349247Y-121612701D01*
X155214554Y-121501274D01*
X155214553Y-121501273D01*
X155210827Y-121498191D01*
X155044788Y-121408414D01*
X154864474Y-121352597D01*
X154852524Y-121351341D01*
X154681568Y-121333373D01*
X154681566Y-121333373D01*
X154676752Y-121332867D01*
X154621883Y-121337860D01*
X154493592Y-121349535D01*
X154493588Y-121349536D01*
X154488773Y-121349974D01*
X154424751Y-121368817D01*
X154312344Y-121401900D01*
X154312341Y-121401901D01*
X154307697Y-121403268D01*
X154288525Y-121413291D01*
X154144717Y-121488471D01*
X154144713Y-121488474D01*
X154140420Y-121490718D01*
X154136644Y-121493754D01*
X154136641Y-121493756D01*
X153997756Y-121605423D01*
X153993316Y-121608993D01*
X153990207Y-121612698D01*
X153990204Y-121612701D01*
X153875103Y-121749873D01*
X153871986Y-121753588D01*
X153869650Y-121757836D01*
X153869650Y-121757837D01*
X153831658Y-121826945D01*
X153781052Y-121918996D01*
X153723978Y-122098917D01*
X153722494Y-122112145D01*
X153704059Y-122276496D01*
X153702937Y-122286496D01*
X148015833Y-122286496D01*
X147998738Y-122112145D01*
X147944181Y-121931445D01*
X147855566Y-121764783D01*
X147736266Y-121618508D01*
X147729247Y-121612701D01*
X147594554Y-121501274D01*
X147594553Y-121501273D01*
X147590827Y-121498191D01*
X147424788Y-121408414D01*
X147244474Y-121352597D01*
X147232524Y-121351341D01*
X147061568Y-121333373D01*
X147061566Y-121333373D01*
X147056752Y-121332867D01*
X147001883Y-121337860D01*
X146873592Y-121349535D01*
X146873588Y-121349536D01*
X146868773Y-121349974D01*
X146804751Y-121368817D01*
X146692344Y-121401900D01*
X146692341Y-121401901D01*
X146687697Y-121403268D01*
X146668525Y-121413291D01*
X146602721Y-121447692D01*
X146542392Y-121457896D01*
X146487588Y-121430691D01*
X146459241Y-121376468D01*
X146470775Y-121311058D01*
X146501153Y-121257584D01*
X146501154Y-121257581D01*
X146503542Y-121253378D01*
X146517515Y-121211376D01*
X146561596Y-121078863D01*
X146561596Y-121078861D01*
X146563123Y-121074272D01*
X146586780Y-120887005D01*
X146587157Y-120860000D01*
X146568738Y-120672145D01*
X146514181Y-120491445D01*
X146425566Y-120324783D01*
X146306266Y-120178508D01*
X146160827Y-120058191D01*
X145994788Y-119968414D01*
X145814474Y-119912597D01*
X145802524Y-119911341D01*
X145631568Y-119893373D01*
X145631566Y-119893373D01*
X145626752Y-119892867D01*
X145571883Y-119897860D01*
X145443592Y-119909535D01*
X145443588Y-119909536D01*
X145438773Y-119909974D01*
X145368851Y-119930553D01*
X145262344Y-119961900D01*
X145262341Y-119961901D01*
X145257697Y-119963268D01*
X145219769Y-119983096D01*
X145094717Y-120048471D01*
X145094713Y-120048474D01*
X145090420Y-120050718D01*
X145086644Y-120053754D01*
X145086641Y-120053756D01*
X145083987Y-120055890D01*
X144943316Y-120168993D01*
X144940207Y-120172698D01*
X144940204Y-120172701D01*
X144825103Y-120309873D01*
X144821986Y-120313588D01*
X144731052Y-120478996D01*
X144673978Y-120658917D01*
X144652937Y-120846496D01*
X142409500Y-120846496D01*
X142409500Y-118770000D01*
X149584318Y-118770000D01*
X149604956Y-118926762D01*
X149665464Y-119072841D01*
X149761718Y-119198282D01*
X149887159Y-119294536D01*
X150033238Y-119355044D01*
X150190000Y-119375682D01*
X150346762Y-119355044D01*
X150492841Y-119294536D01*
X150618282Y-119198282D01*
X150679668Y-119118282D01*
X150705795Y-119084233D01*
X150756220Y-119049577D01*
X150784337Y-119045500D01*
X152217050Y-119045500D01*
X152275241Y-119064407D01*
X152295590Y-119084231D01*
X152321718Y-119118282D01*
X152447159Y-119214536D01*
X152593238Y-119275044D01*
X152750000Y-119295682D01*
X152906762Y-119275044D01*
X153052841Y-119214536D01*
X153178282Y-119118282D01*
X153274536Y-118992841D01*
X153335044Y-118846762D01*
X153355682Y-118690000D01*
X153335044Y-118533238D01*
X153274536Y-118387159D01*
X153178282Y-118261718D01*
X153052841Y-118165464D01*
X152906762Y-118104956D01*
X152750000Y-118084318D01*
X152593238Y-118104956D01*
X152447159Y-118165464D01*
X152321718Y-118261718D01*
X152225464Y-118387159D01*
X152222981Y-118393154D01*
X152206316Y-118433386D01*
X152166579Y-118479912D01*
X152114852Y-118494500D01*
X150784337Y-118494500D01*
X150726146Y-118475593D01*
X150705795Y-118455767D01*
X150622236Y-118346871D01*
X150618282Y-118341718D01*
X150492841Y-118245464D01*
X150346762Y-118184956D01*
X150190000Y-118164318D01*
X150033238Y-118184956D01*
X149887159Y-118245464D01*
X149761718Y-118341718D01*
X149665464Y-118467159D01*
X149604956Y-118613238D01*
X149584318Y-118770000D01*
X142409500Y-118770000D01*
X142409500Y-113544884D01*
X142411402Y-113525569D01*
X142412995Y-113517561D01*
X142414897Y-113508000D01*
X142393515Y-113400505D01*
X142347994Y-113332378D01*
X142347993Y-113332377D01*
X142332624Y-113309376D01*
X142317733Y-113299426D01*
X142302731Y-113287115D01*
X142242112Y-113226496D01*
X144652937Y-113226496D01*
X144668732Y-113414590D01*
X144670065Y-113419238D01*
X144670065Y-113419239D01*
X144717095Y-113583251D01*
X144720760Y-113596034D01*
X144722975Y-113600344D01*
X144804827Y-113759612D01*
X144804830Y-113759616D01*
X144807040Y-113763917D01*
X144924285Y-113911844D01*
X144927972Y-113914982D01*
X144927974Y-113914984D01*
X145064342Y-114031042D01*
X145064347Y-114031045D01*
X145068030Y-114034180D01*
X145072253Y-114036540D01*
X145072257Y-114036543D01*
X145112046Y-114058780D01*
X145232800Y-114126267D01*
X145273592Y-114139521D01*
X145407718Y-114183101D01*
X145407721Y-114183102D01*
X145412317Y-114184595D01*
X145417113Y-114185167D01*
X145417118Y-114185168D01*
X145506031Y-114195770D01*
X145599745Y-114206945D01*
X145604567Y-114206574D01*
X145604570Y-114206574D01*
X145666278Y-114201826D01*
X145787945Y-114192464D01*
X145969748Y-114141703D01*
X146138229Y-114056598D01*
X146286970Y-113940388D01*
X146290132Y-113936725D01*
X146290137Y-113936720D01*
X146407143Y-113801166D01*
X146410307Y-113797501D01*
X146429386Y-113763917D01*
X146501153Y-113637584D01*
X146501154Y-113637581D01*
X146503542Y-113633378D01*
X146507289Y-113622116D01*
X146561596Y-113458863D01*
X146561596Y-113458861D01*
X146563123Y-113454272D01*
X146586780Y-113267005D01*
X146587157Y-113240000D01*
X146570613Y-113071269D01*
X146569210Y-113056955D01*
X146569209Y-113056951D01*
X146568738Y-113052145D01*
X146514181Y-112871445D01*
X146425566Y-112704783D01*
X146306266Y-112558508D01*
X146160827Y-112438191D01*
X145994788Y-112348414D01*
X145814474Y-112292597D01*
X145802524Y-112291341D01*
X145631568Y-112273373D01*
X145631566Y-112273373D01*
X145626752Y-112272867D01*
X145571883Y-112277860D01*
X145443592Y-112289535D01*
X145443588Y-112289536D01*
X145438773Y-112289974D01*
X145368851Y-112310553D01*
X145262344Y-112341900D01*
X145262341Y-112341901D01*
X145257697Y-112343268D01*
X145219769Y-112363096D01*
X145094717Y-112428471D01*
X145094713Y-112428474D01*
X145090420Y-112430718D01*
X145086644Y-112433754D01*
X145086641Y-112433756D01*
X145083987Y-112435890D01*
X144943316Y-112548993D01*
X144940207Y-112552698D01*
X144940204Y-112552701D01*
X144825103Y-112689873D01*
X144821986Y-112693588D01*
X144731052Y-112858996D01*
X144673978Y-113038917D01*
X144652937Y-113226496D01*
X142242112Y-113226496D01*
X142086885Y-113071269D01*
X142074574Y-113056267D01*
X142070043Y-113049486D01*
X142064624Y-113041376D01*
X142041623Y-113026007D01*
X142041622Y-113026006D01*
X142015465Y-113008529D01*
X141973495Y-112980485D01*
X141963932Y-112978583D01*
X141963930Y-112978582D01*
X141928558Y-112971547D01*
X141893133Y-112964500D01*
X141893132Y-112964500D01*
X141866000Y-112959103D01*
X141848429Y-112962598D01*
X141829116Y-112964500D01*
X141535800Y-112964500D01*
X141477609Y-112945593D01*
X141441025Y-112894113D01*
X141435580Y-112876079D01*
X141435579Y-112876076D01*
X141434181Y-112871445D01*
X141345566Y-112704783D01*
X141226266Y-112558508D01*
X141080827Y-112438191D01*
X140914788Y-112348414D01*
X140734474Y-112292597D01*
X140722524Y-112291341D01*
X140551568Y-112273373D01*
X140551566Y-112273373D01*
X140546752Y-112272867D01*
X140491883Y-112277860D01*
X140363592Y-112289535D01*
X140363588Y-112289536D01*
X140358773Y-112289974D01*
X140288851Y-112310553D01*
X140182344Y-112341900D01*
X140182341Y-112341901D01*
X140177697Y-112343268D01*
X140139769Y-112363096D01*
X140014717Y-112428471D01*
X140014713Y-112428474D01*
X140010420Y-112430718D01*
X140006644Y-112433754D01*
X140006641Y-112433756D01*
X140003987Y-112435890D01*
X139863316Y-112548993D01*
X139860207Y-112552698D01*
X139860204Y-112552701D01*
X139745103Y-112689873D01*
X139741986Y-112693588D01*
X139651052Y-112858996D01*
X139593978Y-113038917D01*
X139572937Y-113226496D01*
X139588732Y-113414590D01*
X139590065Y-113419238D01*
X139590065Y-113419239D01*
X139637095Y-113583251D01*
X139640760Y-113596034D01*
X139642975Y-113600344D01*
X139724827Y-113759612D01*
X139724830Y-113759616D01*
X139727040Y-113763917D01*
X139844285Y-113911844D01*
X139847972Y-113914982D01*
X139847974Y-113914984D01*
X139984342Y-114031042D01*
X139984347Y-114031045D01*
X139988030Y-114034180D01*
X139992253Y-114036540D01*
X139992257Y-114036543D01*
X140032046Y-114058780D01*
X140152800Y-114126267D01*
X140193592Y-114139521D01*
X140327718Y-114183101D01*
X140327721Y-114183102D01*
X140332317Y-114184595D01*
X140337113Y-114185167D01*
X140337118Y-114185168D01*
X140426031Y-114195770D01*
X140519745Y-114206945D01*
X140524567Y-114206574D01*
X140524570Y-114206574D01*
X140586278Y-114201826D01*
X140707945Y-114192464D01*
X140889748Y-114141703D01*
X141058229Y-114056598D01*
X141206970Y-113940388D01*
X141210132Y-113936725D01*
X141210137Y-113936720D01*
X141327143Y-113801166D01*
X141330307Y-113797501D01*
X141349386Y-113763917D01*
X141421153Y-113637584D01*
X141421154Y-113637581D01*
X141423542Y-113633378D01*
X141427289Y-113622116D01*
X141440217Y-113583251D01*
X141476526Y-113534003D01*
X141534156Y-113515500D01*
X141710876Y-113515500D01*
X141769067Y-113534407D01*
X141780880Y-113544496D01*
X141829504Y-113593120D01*
X141857281Y-113647637D01*
X141858500Y-113663124D01*
X141858500Y-128380876D01*
X141839593Y-128439067D01*
X141829504Y-128450880D01*
X141774880Y-128505504D01*
X141720363Y-128533281D01*
X141704876Y-128534500D01*
X141535800Y-128534500D01*
X141477609Y-128515593D01*
X141441025Y-128464113D01*
X141435580Y-128446079D01*
X141435579Y-128446076D01*
X141434181Y-128441445D01*
X141345566Y-128274783D01*
X141226266Y-128128508D01*
X141151577Y-128066720D01*
X141084554Y-128011274D01*
X141084553Y-128011273D01*
X141080827Y-128008191D01*
X140914788Y-127918414D01*
X140734474Y-127862597D01*
X140722524Y-127861341D01*
X140551568Y-127843373D01*
X140551566Y-127843373D01*
X140546752Y-127842867D01*
X140491883Y-127847860D01*
X140363592Y-127859535D01*
X140363588Y-127859536D01*
X140358773Y-127859974D01*
X140288851Y-127880553D01*
X140182344Y-127911900D01*
X140182341Y-127911901D01*
X140177697Y-127913268D01*
X140078495Y-127965130D01*
X140018169Y-127975333D01*
X139963365Y-127948128D01*
X139935017Y-127893905D01*
X139946551Y-127828495D01*
X139964014Y-127797753D01*
X139983542Y-127763378D01*
X139991205Y-127740344D01*
X140041596Y-127588863D01*
X140041596Y-127588861D01*
X140043123Y-127584272D01*
X140046286Y-127559239D01*
X140066432Y-127399758D01*
X140066780Y-127397005D01*
X140067157Y-127370000D01*
X140050190Y-127196955D01*
X140049210Y-127186955D01*
X140049209Y-127186951D01*
X140048738Y-127182145D01*
X139994181Y-127001445D01*
X139905566Y-126834783D01*
X139786266Y-126688508D01*
X139640827Y-126568191D01*
X139474788Y-126478414D01*
X139294474Y-126422597D01*
X139282524Y-126421341D01*
X139111568Y-126403373D01*
X139111566Y-126403373D01*
X139106752Y-126402867D01*
X139051883Y-126407860D01*
X138923592Y-126419535D01*
X138923588Y-126419536D01*
X138918773Y-126419974D01*
X138875884Y-126432597D01*
X138742344Y-126471900D01*
X138742341Y-126471901D01*
X138737697Y-126473268D01*
X138708725Y-126488414D01*
X138574717Y-126558471D01*
X138574713Y-126558474D01*
X138570420Y-126560718D01*
X138566644Y-126563754D01*
X138566641Y-126563756D01*
X138427088Y-126675960D01*
X138423316Y-126678993D01*
X138420207Y-126682698D01*
X138420204Y-126682701D01*
X138305103Y-126819873D01*
X138301986Y-126823588D01*
X138299650Y-126827836D01*
X138299650Y-126827837D01*
X138293480Y-126839060D01*
X138211052Y-126988996D01*
X138153978Y-127168917D01*
X138132937Y-127356496D01*
X132445833Y-127356496D01*
X132430190Y-127196955D01*
X132429210Y-127186955D01*
X132429209Y-127186951D01*
X132428738Y-127182145D01*
X132374181Y-127001445D01*
X132285566Y-126834783D01*
X132166266Y-126688508D01*
X132020827Y-126568191D01*
X131854788Y-126478414D01*
X131674474Y-126422597D01*
X131662524Y-126421341D01*
X131491568Y-126403373D01*
X131491566Y-126403373D01*
X131486752Y-126402867D01*
X131431883Y-126407860D01*
X131303592Y-126419535D01*
X131303588Y-126419536D01*
X131298773Y-126419974D01*
X131255884Y-126432597D01*
X131122344Y-126471900D01*
X131122341Y-126471901D01*
X131117697Y-126473268D01*
X131088725Y-126488414D01*
X130954717Y-126558471D01*
X130954713Y-126558474D01*
X130950420Y-126560718D01*
X130946644Y-126563754D01*
X130946641Y-126563756D01*
X130807088Y-126675960D01*
X130803316Y-126678993D01*
X130800207Y-126682698D01*
X130800204Y-126682701D01*
X130685103Y-126819873D01*
X130681986Y-126823588D01*
X130679650Y-126827836D01*
X130679650Y-126827837D01*
X130673480Y-126839060D01*
X130591052Y-126988996D01*
X130533978Y-127168917D01*
X130512937Y-127356496D01*
X120770500Y-127356496D01*
X120770500Y-122276496D01*
X130512937Y-122276496D01*
X130528732Y-122464590D01*
X130530065Y-122469238D01*
X130530065Y-122469239D01*
X130540111Y-122504272D01*
X130580760Y-122646034D01*
X130582975Y-122650344D01*
X130664827Y-122809612D01*
X130664830Y-122809616D01*
X130667040Y-122813917D01*
X130784285Y-122961844D01*
X130787972Y-122964982D01*
X130787974Y-122964984D01*
X130924342Y-123081042D01*
X130924347Y-123081045D01*
X130928030Y-123084180D01*
X130932253Y-123086540D01*
X130932257Y-123086543D01*
X130989939Y-123118780D01*
X131092800Y-123176267D01*
X131133592Y-123189521D01*
X131267718Y-123233101D01*
X131267721Y-123233102D01*
X131272317Y-123234595D01*
X131277113Y-123235167D01*
X131277118Y-123235168D01*
X131366031Y-123245770D01*
X131459745Y-123256945D01*
X131464567Y-123256574D01*
X131464570Y-123256574D01*
X131526278Y-123251826D01*
X131647945Y-123242464D01*
X131829748Y-123191703D01*
X131998229Y-123106598D01*
X132146970Y-122990388D01*
X132150132Y-122986725D01*
X132150137Y-122986720D01*
X132226952Y-122897728D01*
X132270307Y-122847501D01*
X132281550Y-122827711D01*
X132361153Y-122687584D01*
X132361154Y-122687581D01*
X132363542Y-122683378D01*
X132371205Y-122660344D01*
X132421596Y-122508863D01*
X132421596Y-122508861D01*
X132423123Y-122504272D01*
X132426286Y-122479239D01*
X132446432Y-122319758D01*
X132446780Y-122317005D01*
X132447157Y-122290000D01*
X132445833Y-122276496D01*
X138132937Y-122276496D01*
X138148732Y-122464590D01*
X138150065Y-122469238D01*
X138150065Y-122469239D01*
X138160111Y-122504272D01*
X138200760Y-122646034D01*
X138202975Y-122650344D01*
X138284827Y-122809612D01*
X138284830Y-122809616D01*
X138287040Y-122813917D01*
X138404285Y-122961844D01*
X138407972Y-122964982D01*
X138407974Y-122964984D01*
X138544342Y-123081042D01*
X138544347Y-123081045D01*
X138548030Y-123084180D01*
X138552253Y-123086540D01*
X138552257Y-123086543D01*
X138609939Y-123118780D01*
X138712800Y-123176267D01*
X138753592Y-123189521D01*
X138887718Y-123233101D01*
X138887721Y-123233102D01*
X138892317Y-123234595D01*
X138897113Y-123235167D01*
X138897118Y-123235168D01*
X138986031Y-123245770D01*
X139079745Y-123256945D01*
X139084567Y-123256574D01*
X139084570Y-123256574D01*
X139146278Y-123251826D01*
X139267945Y-123242464D01*
X139449748Y-123191703D01*
X139618229Y-123106598D01*
X139766970Y-122990388D01*
X139770132Y-122986725D01*
X139770137Y-122986720D01*
X139846952Y-122897728D01*
X139890307Y-122847501D01*
X139901550Y-122827711D01*
X139981153Y-122687584D01*
X139981154Y-122687581D01*
X139983542Y-122683378D01*
X139991205Y-122660344D01*
X140041596Y-122508863D01*
X140041596Y-122508861D01*
X140043123Y-122504272D01*
X140046286Y-122479239D01*
X140066432Y-122319758D01*
X140066780Y-122317005D01*
X140067157Y-122290000D01*
X140050190Y-122116955D01*
X140049210Y-122106955D01*
X140049209Y-122106951D01*
X140048738Y-122102145D01*
X139994181Y-121921445D01*
X139952508Y-121843069D01*
X139941883Y-121782814D01*
X139968706Y-121727821D01*
X140022729Y-121699096D01*
X140088217Y-121710173D01*
X140152800Y-121746267D01*
X140238685Y-121774172D01*
X140327718Y-121803101D01*
X140327721Y-121803102D01*
X140332317Y-121804595D01*
X140337113Y-121805167D01*
X140337118Y-121805168D01*
X140426031Y-121815770D01*
X140519745Y-121826945D01*
X140524567Y-121826574D01*
X140524570Y-121826574D01*
X140586278Y-121821826D01*
X140707945Y-121812464D01*
X140889748Y-121761703D01*
X141058229Y-121676598D01*
X141206970Y-121560388D01*
X141210132Y-121556725D01*
X141210137Y-121556720D01*
X141310232Y-121440758D01*
X141330307Y-121417501D01*
X141335470Y-121408414D01*
X141421153Y-121257584D01*
X141421154Y-121257581D01*
X141423542Y-121253378D01*
X141437515Y-121211376D01*
X141481596Y-121078863D01*
X141481596Y-121078861D01*
X141483123Y-121074272D01*
X141506780Y-120887005D01*
X141507157Y-120860000D01*
X141488738Y-120672145D01*
X141434181Y-120491445D01*
X141345566Y-120324783D01*
X141226266Y-120178508D01*
X141080827Y-120058191D01*
X140914788Y-119968414D01*
X140734474Y-119912597D01*
X140722524Y-119911341D01*
X140551568Y-119893373D01*
X140551566Y-119893373D01*
X140546752Y-119892867D01*
X140491883Y-119897860D01*
X140363592Y-119909535D01*
X140363588Y-119909536D01*
X140358773Y-119909974D01*
X140288851Y-119930553D01*
X140182344Y-119961900D01*
X140182341Y-119961901D01*
X140177697Y-119963268D01*
X140139769Y-119983096D01*
X140014717Y-120048471D01*
X140014713Y-120048474D01*
X140010420Y-120050718D01*
X140006644Y-120053754D01*
X140006641Y-120053756D01*
X140003987Y-120055890D01*
X139863316Y-120168993D01*
X139860207Y-120172698D01*
X139860204Y-120172701D01*
X139745103Y-120309873D01*
X139741986Y-120313588D01*
X139651052Y-120478996D01*
X139593978Y-120658917D01*
X139572937Y-120846496D01*
X139588732Y-121034590D01*
X139590065Y-121039238D01*
X139590065Y-121039239D01*
X139600111Y-121074272D01*
X139640760Y-121216034D01*
X139688240Y-121308421D01*
X139698023Y-121368817D01*
X139670436Y-121423430D01*
X139616017Y-121451398D01*
X139553102Y-121440758D01*
X139516867Y-121421166D01*
X139474788Y-121398414D01*
X139294474Y-121342597D01*
X139282524Y-121341341D01*
X139111568Y-121323373D01*
X139111566Y-121323373D01*
X139106752Y-121322867D01*
X139051883Y-121327860D01*
X138923592Y-121339535D01*
X138923588Y-121339536D01*
X138918773Y-121339974D01*
X138875884Y-121352597D01*
X138742344Y-121391900D01*
X138742341Y-121391901D01*
X138737697Y-121393268D01*
X138708725Y-121408414D01*
X138574717Y-121478471D01*
X138574713Y-121478474D01*
X138570420Y-121480718D01*
X138566644Y-121483754D01*
X138566641Y-121483756D01*
X138467622Y-121563370D01*
X138423316Y-121598993D01*
X138420207Y-121602698D01*
X138420204Y-121602701D01*
X138315216Y-121727821D01*
X138301986Y-121743588D01*
X138299650Y-121747836D01*
X138299650Y-121747837D01*
X138293480Y-121759060D01*
X138211052Y-121908996D01*
X138153978Y-122088917D01*
X138132937Y-122276496D01*
X132445833Y-122276496D01*
X132430190Y-122116955D01*
X132429210Y-122106955D01*
X132429209Y-122106951D01*
X132428738Y-122102145D01*
X132374181Y-121921445D01*
X132285566Y-121754783D01*
X132166266Y-121608508D01*
X132103665Y-121556720D01*
X132024554Y-121491274D01*
X132024553Y-121491273D01*
X132020827Y-121488191D01*
X131854788Y-121398414D01*
X131674474Y-121342597D01*
X131662524Y-121341341D01*
X131491568Y-121323373D01*
X131491566Y-121323373D01*
X131486752Y-121322867D01*
X131431883Y-121327860D01*
X131303592Y-121339535D01*
X131303588Y-121339536D01*
X131298773Y-121339974D01*
X131255884Y-121352597D01*
X131122344Y-121391900D01*
X131122341Y-121391901D01*
X131117697Y-121393268D01*
X131088725Y-121408414D01*
X130954717Y-121478471D01*
X130954713Y-121478474D01*
X130950420Y-121480718D01*
X130946644Y-121483754D01*
X130946641Y-121483756D01*
X130847622Y-121563370D01*
X130803316Y-121598993D01*
X130800207Y-121602698D01*
X130800204Y-121602701D01*
X130695216Y-121727821D01*
X130681986Y-121743588D01*
X130679650Y-121747836D01*
X130679650Y-121747837D01*
X130673480Y-121759060D01*
X130591052Y-121908996D01*
X130533978Y-122088917D01*
X130512937Y-122276496D01*
X120770500Y-122276496D01*
X120770500Y-89168807D01*
X130880736Y-89168807D01*
X130882978Y-89177174D01*
X130890796Y-89206349D01*
X130892666Y-89214784D01*
X130895022Y-89228144D01*
X130899412Y-89253045D01*
X130903742Y-89260544D01*
X130905738Y-89266029D01*
X130908204Y-89271316D01*
X130910446Y-89279684D01*
X130925022Y-89300500D01*
X130932732Y-89311511D01*
X130937371Y-89318792D01*
X130956806Y-89352455D01*
X130986581Y-89377440D01*
X130992937Y-89383264D01*
X132176742Y-90567069D01*
X132182565Y-90573424D01*
X132207545Y-90603194D01*
X132215042Y-90607523D01*
X132215044Y-90607524D01*
X132241206Y-90622628D01*
X132248484Y-90627264D01*
X132280316Y-90649553D01*
X132288682Y-90651795D01*
X132293973Y-90654262D01*
X132299450Y-90656255D01*
X132306955Y-90660588D01*
X132336038Y-90665716D01*
X132345231Y-90667337D01*
X132353657Y-90669205D01*
X132382835Y-90677023D01*
X132434147Y-90710346D01*
X132450121Y-90738463D01*
X132461290Y-90768821D01*
X132463930Y-90773079D01*
X132463931Y-90773081D01*
X132538231Y-90892914D01*
X132563045Y-90932934D01*
X132695721Y-91073235D01*
X132699826Y-91076109D01*
X132699829Y-91076112D01*
X132817920Y-91158799D01*
X132853898Y-91183991D01*
X132858494Y-91185980D01*
X132858496Y-91185981D01*
X132972057Y-91235123D01*
X133031115Y-91260680D01*
X133147107Y-91284912D01*
X133216408Y-91299390D01*
X133216410Y-91299390D01*
X133220133Y-91300168D01*
X133226468Y-91300500D01*
X134519166Y-91300500D01*
X134577357Y-91319407D01*
X134589170Y-91329496D01*
X140090504Y-96830830D01*
X140118281Y-96885347D01*
X140119500Y-96900834D01*
X140119500Y-98148259D01*
X140119753Y-98150747D01*
X140119753Y-98150752D01*
X140124099Y-98193532D01*
X140134112Y-98292110D01*
X140191856Y-98476373D01*
X140285472Y-98645261D01*
X140411136Y-98791875D01*
X140415103Y-98794952D01*
X140559754Y-98907156D01*
X140559759Y-98907159D01*
X140563714Y-98910227D01*
X140736974Y-98995481D01*
X140825630Y-99018574D01*
X140918979Y-99042890D01*
X140918983Y-99042891D01*
X140923837Y-99044155D01*
X140928849Y-99044418D01*
X140928851Y-99044418D01*
X140996778Y-99047978D01*
X141116671Y-99054261D01*
X141121630Y-99053511D01*
X141121631Y-99053511D01*
X141183494Y-99044155D01*
X141307599Y-99025386D01*
X141488821Y-98958710D01*
X141493079Y-98956070D01*
X141493081Y-98956069D01*
X141648670Y-98859599D01*
X141648671Y-98859598D01*
X141652934Y-98856955D01*
X141793235Y-98724279D01*
X141796109Y-98720174D01*
X141796112Y-98720171D01*
X141901116Y-98570208D01*
X141903991Y-98566102D01*
X141927826Y-98511024D01*
X141980680Y-98388885D01*
X141982418Y-98389637D01*
X142013532Y-98346179D01*
X142071590Y-98326866D01*
X142129911Y-98345368D01*
X142166750Y-98396259D01*
X142191856Y-98476373D01*
X142285472Y-98645261D01*
X142411136Y-98791875D01*
X142415103Y-98794952D01*
X142559754Y-98907156D01*
X142559759Y-98907159D01*
X142563714Y-98910227D01*
X142736974Y-98995481D01*
X142825630Y-99018574D01*
X142918979Y-99042890D01*
X142918983Y-99042891D01*
X142923837Y-99044155D01*
X142928849Y-99044418D01*
X142928851Y-99044418D01*
X142996778Y-99047978D01*
X143116671Y-99054261D01*
X143121630Y-99053511D01*
X143121631Y-99053511D01*
X143183494Y-99044155D01*
X143307599Y-99025386D01*
X143488821Y-98958710D01*
X143493079Y-98956070D01*
X143493081Y-98956069D01*
X143648670Y-98859599D01*
X143648671Y-98859598D01*
X143652934Y-98856955D01*
X143793235Y-98724279D01*
X143796109Y-98720174D01*
X143796112Y-98720171D01*
X143901116Y-98570208D01*
X143903991Y-98566102D01*
X143905981Y-98561504D01*
X143905983Y-98561501D01*
X143923066Y-98522023D01*
X143963529Y-98476127D01*
X144023240Y-98462779D01*
X144079394Y-98487079D01*
X144101336Y-98514862D01*
X144188928Y-98679599D01*
X144194260Y-98687624D01*
X144318284Y-98839693D01*
X144325078Y-98846534D01*
X144476279Y-98971619D01*
X144484262Y-98977003D01*
X144656886Y-99070340D01*
X144665757Y-99074069D01*
X144853225Y-99132100D01*
X144862659Y-99134037D01*
X144904406Y-99138425D01*
X144917453Y-99135652D01*
X144919119Y-99133802D01*
X144920000Y-99129657D01*
X144920000Y-99125054D01*
X145220000Y-99125054D01*
X145224122Y-99137739D01*
X145226437Y-99139422D01*
X145230013Y-99139823D01*
X145262883Y-99136832D01*
X145272346Y-99135026D01*
X145460593Y-99079622D01*
X145469534Y-99076009D01*
X145643427Y-98985101D01*
X145651503Y-98979816D01*
X145804429Y-98856860D01*
X145811313Y-98850119D01*
X145937449Y-98699795D01*
X145942896Y-98691841D01*
X146037427Y-98519889D01*
X146041227Y-98511024D01*
X146100561Y-98323979D01*
X146102565Y-98314551D01*
X146119691Y-98161867D01*
X146120000Y-98156338D01*
X146120000Y-97515680D01*
X146115878Y-97502995D01*
X146111757Y-97500000D01*
X145235680Y-97500000D01*
X145222995Y-97504122D01*
X145220000Y-97508243D01*
X145220000Y-99125054D01*
X144920000Y-99125054D01*
X144920000Y-97184320D01*
X145220000Y-97184320D01*
X145224122Y-97197005D01*
X145228243Y-97200000D01*
X146104320Y-97200000D01*
X146117005Y-97195878D01*
X146120000Y-97191757D01*
X146120000Y-96550596D01*
X146119765Y-96545781D01*
X146105459Y-96399877D01*
X146103590Y-96390439D01*
X146046869Y-96202572D01*
X146043199Y-96193668D01*
X145951072Y-96020401D01*
X145945740Y-96012376D01*
X145821716Y-95860307D01*
X145814922Y-95853466D01*
X145663721Y-95728381D01*
X145655738Y-95722997D01*
X145483114Y-95629660D01*
X145474243Y-95625931D01*
X145286775Y-95567900D01*
X145277341Y-95565963D01*
X145235594Y-95561575D01*
X145222547Y-95564348D01*
X145220881Y-95566198D01*
X145220000Y-95570343D01*
X145220000Y-97184320D01*
X144920000Y-97184320D01*
X144920000Y-95574946D01*
X144915878Y-95562261D01*
X144913563Y-95560578D01*
X144909987Y-95560177D01*
X144877117Y-95563168D01*
X144867654Y-95564974D01*
X144679407Y-95620378D01*
X144670466Y-95623991D01*
X144496573Y-95714899D01*
X144488497Y-95720184D01*
X144335571Y-95843140D01*
X144328687Y-95849881D01*
X144202551Y-96000205D01*
X144197104Y-96008159D01*
X144100238Y-96184359D01*
X144098052Y-96183157D01*
X144064111Y-96222008D01*
X144004461Y-96235626D01*
X143948198Y-96211581D01*
X143926744Y-96185020D01*
X143856962Y-96059130D01*
X143854528Y-96054739D01*
X143728864Y-95908125D01*
X143667218Y-95860307D01*
X143580246Y-95792844D01*
X143580241Y-95792841D01*
X143576286Y-95789773D01*
X143403026Y-95704519D01*
X143288219Y-95674614D01*
X143221021Y-95657110D01*
X143221017Y-95657109D01*
X143216163Y-95655845D01*
X143211151Y-95655582D01*
X143211149Y-95655582D01*
X143143222Y-95652022D01*
X143023329Y-95645739D01*
X143018370Y-95646489D01*
X143018369Y-95646489D01*
X142977290Y-95652702D01*
X142832401Y-95674614D01*
X142651179Y-95741290D01*
X142646921Y-95743930D01*
X142646919Y-95743931D01*
X142576550Y-95787562D01*
X142487066Y-95843045D01*
X142346765Y-95975721D01*
X142343891Y-95979826D01*
X142343888Y-95979829D01*
X142268220Y-96087895D01*
X142236009Y-96133898D01*
X142234020Y-96138494D01*
X142234019Y-96138496D01*
X142195110Y-96228410D01*
X142159320Y-96311115D01*
X142157582Y-96310363D01*
X142126468Y-96353821D01*
X142068410Y-96373134D01*
X142010089Y-96354632D01*
X141973250Y-96303741D01*
X141949643Y-96228410D01*
X141949643Y-96228409D01*
X141948144Y-96223627D01*
X141854528Y-96054739D01*
X141728864Y-95908125D01*
X141667218Y-95860307D01*
X141580246Y-95792844D01*
X141580241Y-95792841D01*
X141576286Y-95789773D01*
X141403026Y-95704519D01*
X141288219Y-95674614D01*
X141221021Y-95657110D01*
X141221017Y-95657109D01*
X141216163Y-95655845D01*
X141211151Y-95655582D01*
X141211149Y-95655582D01*
X141143222Y-95652022D01*
X141023329Y-95645739D01*
X141018370Y-95646489D01*
X141018369Y-95646489D01*
X140977290Y-95652702D01*
X140832401Y-95674614D01*
X140651179Y-95741290D01*
X140646921Y-95743930D01*
X140646919Y-95743931D01*
X140576550Y-95787562D01*
X140487066Y-95843045D01*
X140346765Y-95975721D01*
X140343889Y-95979829D01*
X140335892Y-95991249D01*
X140287026Y-96028070D01*
X140225850Y-96029136D01*
X140184793Y-96004467D01*
X138522957Y-94342631D01*
X148014443Y-94342631D01*
X148018926Y-94391894D01*
X148025181Y-94460621D01*
X148033114Y-94547797D01*
X148091280Y-94745428D01*
X148186726Y-94927998D01*
X148315815Y-95088553D01*
X148473630Y-95220976D01*
X148477878Y-95223311D01*
X148477879Y-95223312D01*
X148535263Y-95254859D01*
X148654162Y-95320224D01*
X148658775Y-95321687D01*
X148658779Y-95321689D01*
X148828689Y-95375587D01*
X148850532Y-95382516D01*
X148855344Y-95383056D01*
X148855345Y-95383056D01*
X149008108Y-95400191D01*
X149008110Y-95400191D01*
X149010864Y-95400500D01*
X149121841Y-95400500D01*
X149124236Y-95400265D01*
X149124240Y-95400265D01*
X149270220Y-95385952D01*
X149270224Y-95385951D01*
X149275030Y-95385480D01*
X149279655Y-95384084D01*
X149279658Y-95384083D01*
X149392131Y-95350125D01*
X149472251Y-95325935D01*
X149654151Y-95229218D01*
X149813800Y-95099011D01*
X149945118Y-94940275D01*
X150043103Y-94759055D01*
X150062667Y-94695855D01*
X150102593Y-94566875D01*
X150102594Y-94566871D01*
X150104023Y-94562254D01*
X150105055Y-94552441D01*
X150125051Y-94362185D01*
X150125051Y-94362183D01*
X150125557Y-94357369D01*
X150116178Y-94254307D01*
X150107325Y-94157022D01*
X150107324Y-94157017D01*
X150106886Y-94152203D01*
X150048720Y-93954572D01*
X150025484Y-93910125D01*
X149978778Y-93820786D01*
X149953274Y-93772002D01*
X149894418Y-93698799D01*
X149827219Y-93615220D01*
X149827217Y-93615217D01*
X149824185Y-93611447D01*
X149666370Y-93479024D01*
X149647242Y-93468508D01*
X149571922Y-93427101D01*
X149521452Y-93399355D01*
X154999707Y-93399355D01*
X155000004Y-93403883D01*
X155012923Y-93600989D01*
X155013719Y-93613137D01*
X155014835Y-93617530D01*
X155014835Y-93617532D01*
X155052028Y-93763981D01*
X155066455Y-93820786D01*
X155156149Y-94015347D01*
X155279797Y-94190305D01*
X155433258Y-94339800D01*
X155437030Y-94342320D01*
X155437032Y-94342322D01*
X155511222Y-94391894D01*
X155611393Y-94458826D01*
X155700860Y-94497264D01*
X155804057Y-94541601D01*
X155804061Y-94541602D01*
X155808236Y-94543396D01*
X155844907Y-94551694D01*
X156012768Y-94589678D01*
X156012773Y-94589679D01*
X156017194Y-94590679D01*
X156124231Y-94594884D01*
X156226736Y-94598912D01*
X156226737Y-94598912D01*
X156231269Y-94599090D01*
X156337281Y-94583719D01*
X156438799Y-94569000D01*
X156438803Y-94568999D01*
X156443293Y-94568348D01*
X156544728Y-94533915D01*
X156641867Y-94500941D01*
X156641870Y-94500940D01*
X156646164Y-94499482D01*
X156833088Y-94394800D01*
X156997806Y-94257806D01*
X157134800Y-94093088D01*
X157180645Y-94011225D01*
X157237264Y-93910125D01*
X157237265Y-93910123D01*
X157239482Y-93906164D01*
X157269959Y-93816384D01*
X157306889Y-93707590D01*
X157308348Y-93703293D01*
X157322077Y-93608611D01*
X157338670Y-93494168D01*
X157338670Y-93494162D01*
X157339090Y-93491269D01*
X157339547Y-93473844D01*
X157340618Y-93432914D01*
X157340618Y-93432909D01*
X157340694Y-93430000D01*
X157338295Y-93403883D01*
X157321506Y-93221175D01*
X157321091Y-93216658D01*
X157262937Y-93010461D01*
X157168181Y-92818314D01*
X157039995Y-92646653D01*
X156882673Y-92501226D01*
X156849928Y-92480565D01*
X156705321Y-92389325D01*
X156701484Y-92386904D01*
X156502495Y-92307515D01*
X156292371Y-92265719D01*
X156186865Y-92264338D01*
X156082688Y-92262974D01*
X156082683Y-92262974D01*
X156078148Y-92262915D01*
X156073675Y-92263684D01*
X156073670Y-92263684D01*
X155968970Y-92281675D01*
X155867002Y-92299196D01*
X155666003Y-92373349D01*
X155481883Y-92482889D01*
X155478468Y-92485884D01*
X155478465Y-92485886D01*
X155374226Y-92577302D01*
X155320809Y-92624147D01*
X155188173Y-92792394D01*
X155186063Y-92796404D01*
X155186060Y-92796409D01*
X155114020Y-92933338D01*
X155088420Y-92981995D01*
X155024888Y-93186599D01*
X155024354Y-93191109D01*
X155024354Y-93191110D01*
X155009804Y-93314048D01*
X154999707Y-93399355D01*
X149521452Y-93399355D01*
X149485838Y-93379776D01*
X149481225Y-93378313D01*
X149481221Y-93378311D01*
X149294083Y-93318948D01*
X149289468Y-93317484D01*
X149284656Y-93316944D01*
X149284655Y-93316944D01*
X149131892Y-93299809D01*
X149131890Y-93299809D01*
X149129136Y-93299500D01*
X149018159Y-93299500D01*
X149015764Y-93299735D01*
X149015760Y-93299735D01*
X148869780Y-93314048D01*
X148869776Y-93314049D01*
X148864970Y-93314520D01*
X148860345Y-93315916D01*
X148860342Y-93315917D01*
X148747869Y-93349875D01*
X148667749Y-93374065D01*
X148485849Y-93470782D01*
X148326200Y-93600989D01*
X148323116Y-93604717D01*
X148323115Y-93604718D01*
X148241567Y-93703293D01*
X148194882Y-93759725D01*
X148096897Y-93940945D01*
X148035977Y-94137746D01*
X148035472Y-94142554D01*
X148035471Y-94142557D01*
X148015073Y-94336635D01*
X148014443Y-94342631D01*
X138522957Y-94342631D01*
X135413715Y-91233389D01*
X135385938Y-91178872D01*
X135395509Y-91118440D01*
X135419291Y-91088219D01*
X135511875Y-91008864D01*
X135554302Y-90954168D01*
X135627156Y-90860246D01*
X135627159Y-90860241D01*
X135627846Y-90859355D01*
X154999707Y-90859355D01*
X155013719Y-91073137D01*
X155014835Y-91077530D01*
X155014835Y-91077532D01*
X155035474Y-91158799D01*
X155066455Y-91280786D01*
X155068357Y-91284911D01*
X155068357Y-91284912D01*
X155075390Y-91300168D01*
X155156149Y-91475347D01*
X155279797Y-91650305D01*
X155433258Y-91799800D01*
X155611393Y-91918826D01*
X155700860Y-91957264D01*
X155804057Y-92001601D01*
X155804061Y-92001602D01*
X155808236Y-92003396D01*
X155812670Y-92004399D01*
X155812669Y-92004399D01*
X156012768Y-92049678D01*
X156012773Y-92049679D01*
X156017194Y-92050679D01*
X156124231Y-92054884D01*
X156226736Y-92058912D01*
X156226737Y-92058912D01*
X156231269Y-92059090D01*
X156337281Y-92043719D01*
X156438799Y-92029000D01*
X156438803Y-92028999D01*
X156443293Y-92028348D01*
X156544728Y-91993915D01*
X156641867Y-91960941D01*
X156641870Y-91960940D01*
X156646164Y-91959482D01*
X156833088Y-91854800D01*
X156997806Y-91717806D01*
X157134800Y-91553088D01*
X157239482Y-91366164D01*
X157269959Y-91276384D01*
X157302298Y-91181116D01*
X157308348Y-91163293D01*
X157309913Y-91152504D01*
X157338670Y-90954168D01*
X157338670Y-90954162D01*
X157339090Y-90951269D01*
X157340694Y-90890000D01*
X157338295Y-90863883D01*
X157323572Y-90703660D01*
X157321091Y-90676658D01*
X157262937Y-90470461D01*
X157246921Y-90437983D01*
X157170192Y-90282391D01*
X157170190Y-90282387D01*
X157168181Y-90278314D01*
X157039995Y-90106653D01*
X156882673Y-89961226D01*
X156849928Y-89940565D01*
X156705321Y-89849325D01*
X156701484Y-89846904D01*
X156502495Y-89767515D01*
X156497447Y-89766511D01*
X156497224Y-89766386D01*
X156493689Y-89765339D01*
X156493926Y-89764539D01*
X156444061Y-89736617D01*
X156418442Y-89681054D01*
X156430375Y-89621043D01*
X156475302Y-89579508D01*
X156491132Y-89573785D01*
X156600204Y-89544559D01*
X156608297Y-89541613D01*
X156801100Y-89451707D01*
X156808552Y-89447405D01*
X156940822Y-89354788D01*
X156948847Y-89344139D01*
X156948858Y-89343506D01*
X156945070Y-89337202D01*
X156181086Y-88573218D01*
X156169203Y-88567164D01*
X156164172Y-88567960D01*
X155397422Y-89334710D01*
X155391368Y-89346593D01*
X155391466Y-89347216D01*
X155396292Y-89352767D01*
X155531448Y-89447405D01*
X155538900Y-89451707D01*
X155731703Y-89541613D01*
X155739796Y-89544559D01*
X155849504Y-89573955D01*
X155900818Y-89607279D01*
X155922745Y-89664400D01*
X155906910Y-89723501D01*
X155858147Y-89762463D01*
X155666003Y-89833349D01*
X155481883Y-89942889D01*
X155478468Y-89945884D01*
X155478465Y-89945886D01*
X155374226Y-90037302D01*
X155320809Y-90084147D01*
X155188173Y-90252394D01*
X155186063Y-90256404D01*
X155186060Y-90256409D01*
X155114020Y-90393338D01*
X155088420Y-90441995D01*
X155087076Y-90446324D01*
X155031661Y-90624788D01*
X155024888Y-90646599D01*
X155024354Y-90651109D01*
X155024354Y-90651110D01*
X155021395Y-90676115D01*
X154999707Y-90859355D01*
X135627846Y-90859355D01*
X135630227Y-90856286D01*
X135715481Y-90683026D01*
X135744891Y-90570118D01*
X135762890Y-90501021D01*
X135762891Y-90501017D01*
X135764155Y-90496163D01*
X135765716Y-90466387D01*
X135773998Y-90308340D01*
X135774261Y-90303329D01*
X135771095Y-90282391D01*
X135746136Y-90117363D01*
X135745386Y-90112401D01*
X135678710Y-89931179D01*
X135638183Y-89865815D01*
X135579599Y-89771330D01*
X135579598Y-89771329D01*
X135576955Y-89767066D01*
X135444279Y-89626765D01*
X135440174Y-89623891D01*
X135440171Y-89623888D01*
X135290208Y-89518884D01*
X135286102Y-89516009D01*
X135281506Y-89514020D01*
X135281504Y-89514019D01*
X135108885Y-89439320D01*
X135109637Y-89437582D01*
X135066179Y-89406468D01*
X135046866Y-89348410D01*
X135065368Y-89290089D01*
X135116259Y-89253250D01*
X135191590Y-89229643D01*
X135191591Y-89229643D01*
X135196373Y-89228144D01*
X135365261Y-89134528D01*
X135511875Y-89008864D01*
X135534533Y-88979653D01*
X135627156Y-88860246D01*
X135627159Y-88860241D01*
X135630227Y-88856286D01*
X135715481Y-88683026D01*
X135764155Y-88496163D01*
X135771589Y-88354309D01*
X154900344Y-88354309D01*
X154918886Y-88566238D01*
X154920379Y-88574706D01*
X154975441Y-88780204D01*
X154978387Y-88788297D01*
X155068289Y-88981091D01*
X155072601Y-88988561D01*
X155165211Y-89120820D01*
X155175862Y-89128846D01*
X155176494Y-89128858D01*
X155182798Y-89125070D01*
X155946782Y-88361086D01*
X155952024Y-88350797D01*
X156387164Y-88350797D01*
X156387960Y-88355828D01*
X157154710Y-89122578D01*
X157166593Y-89128632D01*
X157167215Y-89128534D01*
X157172768Y-89123707D01*
X157267399Y-88988561D01*
X157271711Y-88981091D01*
X157361613Y-88788297D01*
X157364559Y-88780204D01*
X157419621Y-88574706D01*
X157421114Y-88566238D01*
X157439656Y-88354309D01*
X157439656Y-88345691D01*
X157421114Y-88133762D01*
X157419621Y-88125294D01*
X157364559Y-87919796D01*
X157361613Y-87911703D01*
X157271711Y-87718909D01*
X157267399Y-87711439D01*
X157174789Y-87579180D01*
X157164138Y-87571154D01*
X157163506Y-87571142D01*
X157157202Y-87574930D01*
X156393218Y-88338914D01*
X156387164Y-88350797D01*
X155952024Y-88350797D01*
X155952836Y-88349203D01*
X155952040Y-88344172D01*
X155185290Y-87577422D01*
X155173407Y-87571368D01*
X155172785Y-87571466D01*
X155167232Y-87576293D01*
X155072601Y-87711439D01*
X155068289Y-87718909D01*
X154978387Y-87911703D01*
X154975441Y-87919796D01*
X154920379Y-88125294D01*
X154918886Y-88133762D01*
X154900344Y-88345691D01*
X154900344Y-88354309D01*
X135771589Y-88354309D01*
X135774261Y-88303329D01*
X135745386Y-88112401D01*
X135678710Y-87931179D01*
X135671653Y-87919796D01*
X135579599Y-87771330D01*
X135579598Y-87771329D01*
X135576955Y-87767066D01*
X135444279Y-87626765D01*
X135440174Y-87623891D01*
X135440171Y-87623888D01*
X135290208Y-87518884D01*
X135286102Y-87516009D01*
X135281509Y-87514021D01*
X135281501Y-87514017D01*
X135242023Y-87496934D01*
X135196127Y-87456471D01*
X135182779Y-87396760D01*
X135207079Y-87340606D01*
X135234862Y-87318664D01*
X135399599Y-87231072D01*
X135407624Y-87225740D01*
X135559693Y-87101716D01*
X135566534Y-87094922D01*
X135691619Y-86943721D01*
X135697003Y-86935738D01*
X135790340Y-86763114D01*
X135794069Y-86754243D01*
X135852100Y-86566775D01*
X135854037Y-86557341D01*
X135858425Y-86515594D01*
X135855652Y-86502547D01*
X135853802Y-86500881D01*
X135849657Y-86500000D01*
X132294946Y-86500000D01*
X132282261Y-86504122D01*
X132280578Y-86506437D01*
X132280177Y-86510013D01*
X132283168Y-86542883D01*
X132284974Y-86552346D01*
X132340378Y-86740593D01*
X132343991Y-86749534D01*
X132434899Y-86923427D01*
X132440184Y-86931503D01*
X132563140Y-87084429D01*
X132569881Y-87091313D01*
X132720205Y-87217449D01*
X132728159Y-87222896D01*
X132904359Y-87319762D01*
X132903157Y-87321948D01*
X132942008Y-87355889D01*
X132955626Y-87415539D01*
X132931581Y-87471802D01*
X132905020Y-87493256D01*
X132774739Y-87565472D01*
X132628125Y-87691136D01*
X132625048Y-87695103D01*
X132512844Y-87839754D01*
X132512841Y-87839759D01*
X132509773Y-87843714D01*
X132424519Y-88016974D01*
X132375845Y-88203837D01*
X132365739Y-88396671D01*
X132394614Y-88587599D01*
X132461290Y-88768821D01*
X132463930Y-88773079D01*
X132463931Y-88773081D01*
X132515521Y-88856286D01*
X132563045Y-88932934D01*
X132695721Y-89073235D01*
X132699826Y-89076109D01*
X132699829Y-89076112D01*
X132775142Y-89128846D01*
X132853898Y-89183991D01*
X132858494Y-89185980D01*
X132858496Y-89185981D01*
X133031115Y-89260680D01*
X133030363Y-89262418D01*
X133073821Y-89293532D01*
X133093134Y-89351590D01*
X133074632Y-89409911D01*
X133023741Y-89446750D01*
X132943627Y-89471856D01*
X132774739Y-89565472D01*
X132770930Y-89568737D01*
X132639888Y-89681054D01*
X132628125Y-89691136D01*
X132625048Y-89695103D01*
X132519306Y-89831424D01*
X132468701Y-89865815D01*
X132407546Y-89863893D01*
X132371077Y-89840750D01*
X131564496Y-89034170D01*
X131536719Y-88979653D01*
X131535500Y-88964166D01*
X131535500Y-86184406D01*
X132281575Y-86184406D01*
X132284348Y-86197453D01*
X132286198Y-86199119D01*
X132290343Y-86200000D01*
X133904320Y-86200000D01*
X133917005Y-86195878D01*
X133920000Y-86191757D01*
X133920000Y-86184320D01*
X134220000Y-86184320D01*
X134224122Y-86197005D01*
X134228243Y-86200000D01*
X135845054Y-86200000D01*
X135857739Y-86195878D01*
X135859422Y-86193563D01*
X135859823Y-86189987D01*
X135856832Y-86157117D01*
X135855026Y-86147654D01*
X135799622Y-85959407D01*
X135796009Y-85950466D01*
X135705101Y-85776573D01*
X135699816Y-85768497D01*
X135576860Y-85615571D01*
X135570119Y-85608687D01*
X135419795Y-85482551D01*
X135411841Y-85477104D01*
X135239889Y-85382573D01*
X135231024Y-85378773D01*
X135043979Y-85319439D01*
X135034551Y-85317435D01*
X134881867Y-85300309D01*
X134876338Y-85300000D01*
X134235680Y-85300000D01*
X134222995Y-85304122D01*
X134220000Y-85308243D01*
X134220000Y-86184320D01*
X133920000Y-86184320D01*
X133920000Y-85315680D01*
X133915878Y-85302995D01*
X133911757Y-85300000D01*
X133270596Y-85300000D01*
X133265781Y-85300235D01*
X133119877Y-85314541D01*
X133110439Y-85316410D01*
X132922572Y-85373131D01*
X132913668Y-85376801D01*
X132740401Y-85468928D01*
X132732376Y-85474260D01*
X132580307Y-85598284D01*
X132573466Y-85605078D01*
X132448381Y-85756279D01*
X132442997Y-85764262D01*
X132349660Y-85936886D01*
X132345931Y-85945757D01*
X132287900Y-86133225D01*
X132285963Y-86142659D01*
X132281575Y-86184406D01*
X131535500Y-86184406D01*
X131535500Y-85805834D01*
X131554407Y-85747643D01*
X131564496Y-85735830D01*
X132535830Y-84764496D01*
X132590347Y-84736719D01*
X132605834Y-84735500D01*
X154594166Y-84735500D01*
X154652357Y-84754407D01*
X154664170Y-84764496D01*
X155096583Y-85196909D01*
X155124360Y-85251426D01*
X155114193Y-85313009D01*
X155088420Y-85361995D01*
X155087076Y-85366324D01*
X155028423Y-85555216D01*
X155024888Y-85566599D01*
X155024354Y-85571109D01*
X155024354Y-85571110D01*
X155001427Y-85764826D01*
X154999707Y-85779355D01*
X155000004Y-85783883D01*
X155010614Y-85945757D01*
X155013719Y-85993137D01*
X155014835Y-85997530D01*
X155014835Y-85997532D01*
X155065337Y-86196384D01*
X155066455Y-86200786D01*
X155156149Y-86395347D01*
X155279797Y-86570305D01*
X155433258Y-86719800D01*
X155437030Y-86722320D01*
X155437032Y-86722322D01*
X155498082Y-86763114D01*
X155611393Y-86838826D01*
X155700860Y-86877264D01*
X155804057Y-86921601D01*
X155804061Y-86921602D01*
X155808236Y-86923396D01*
X155812667Y-86924399D01*
X155812668Y-86924399D01*
X155828860Y-86928063D01*
X155849734Y-86932786D01*
X155902317Y-86964070D01*
X155926470Y-87020286D01*
X155912966Y-87079963D01*
X155866965Y-87120305D01*
X155853508Y-87124972D01*
X155739796Y-87155441D01*
X155731703Y-87158387D01*
X155538909Y-87248289D01*
X155531439Y-87252601D01*
X155399180Y-87345211D01*
X155391154Y-87355862D01*
X155391142Y-87356494D01*
X155394930Y-87362798D01*
X156158914Y-88126782D01*
X156170797Y-88132836D01*
X156175828Y-88132040D01*
X156942578Y-87365290D01*
X156948632Y-87353407D01*
X156948534Y-87352784D01*
X156943708Y-87347233D01*
X156808552Y-87252595D01*
X156801100Y-87248293D01*
X156608297Y-87158387D01*
X156600204Y-87155441D01*
X156486804Y-87125056D01*
X156435490Y-87091732D01*
X156413563Y-87034611D01*
X156429398Y-86975510D01*
X156480604Y-86935683D01*
X156641867Y-86880941D01*
X156641870Y-86880940D01*
X156646164Y-86879482D01*
X156833088Y-86774800D01*
X156997806Y-86637806D01*
X157134800Y-86473088D01*
X157239482Y-86286164D01*
X157269959Y-86196384D01*
X157306889Y-86087590D01*
X157308348Y-86083293D01*
X157322077Y-85988611D01*
X157338670Y-85874168D01*
X157338670Y-85874162D01*
X157339090Y-85871269D01*
X157340694Y-85810000D01*
X157340312Y-85805834D01*
X157321506Y-85601175D01*
X157321091Y-85596658D01*
X157262937Y-85390461D01*
X157168181Y-85198314D01*
X157039995Y-85026653D01*
X156882673Y-84881226D01*
X156701484Y-84766904D01*
X156502495Y-84687515D01*
X156292371Y-84645719D01*
X156186865Y-84644338D01*
X156082688Y-84642974D01*
X156082683Y-84642974D01*
X156078148Y-84642915D01*
X156073675Y-84643684D01*
X156073670Y-84643684D01*
X155968970Y-84661675D01*
X155867002Y-84679196D01*
X155666003Y-84753349D01*
X155665725Y-84753514D01*
X155606303Y-84761344D01*
X155554330Y-84734004D01*
X155013269Y-84192943D01*
X155007434Y-84186575D01*
X154988022Y-84163441D01*
X154982455Y-84156806D01*
X154948792Y-84137371D01*
X154941511Y-84132732D01*
X154939056Y-84131013D01*
X154909684Y-84110446D01*
X154901316Y-84108204D01*
X154896029Y-84105738D01*
X154890544Y-84103742D01*
X154883045Y-84099412D01*
X154874519Y-84097909D01*
X154874517Y-84097908D01*
X154844784Y-84092666D01*
X154836349Y-84090796D01*
X154807174Y-84082978D01*
X154798807Y-84080736D01*
X154790178Y-84081491D01*
X154760095Y-84084123D01*
X154751466Y-84084500D01*
X132448534Y-84084500D01*
X132439905Y-84084123D01*
X132409822Y-84081491D01*
X132401193Y-84080736D01*
X132392826Y-84082978D01*
X132363651Y-84090796D01*
X132355216Y-84092666D01*
X132325483Y-84097908D01*
X132325481Y-84097909D01*
X132316955Y-84099412D01*
X132309456Y-84103742D01*
X132303971Y-84105738D01*
X132298684Y-84108204D01*
X132290316Y-84110446D01*
X132260944Y-84131013D01*
X132258489Y-84132732D01*
X132251208Y-84137371D01*
X132217545Y-84156806D01*
X132211978Y-84163441D01*
X132192569Y-84186571D01*
X132186735Y-84192939D01*
X130992943Y-85386731D01*
X130986576Y-85392565D01*
X130956806Y-85417545D01*
X130952477Y-85425044D01*
X130937373Y-85451205D01*
X130932732Y-85458489D01*
X130910446Y-85490316D01*
X130908204Y-85498684D01*
X130905738Y-85503971D01*
X130903742Y-85509456D01*
X130899412Y-85516955D01*
X130897909Y-85525481D01*
X130897908Y-85525483D01*
X130892666Y-85555216D01*
X130890796Y-85563650D01*
X130880736Y-85601193D01*
X130881491Y-85609822D01*
X130884123Y-85639905D01*
X130884500Y-85648534D01*
X130884500Y-89121466D01*
X130884123Y-89130095D01*
X130880736Y-89168807D01*
X120770500Y-89168807D01*
X120770500Y-81374025D01*
X120773019Y-81351834D01*
X120773157Y-81351234D01*
X120775656Y-81340369D01*
X120775573Y-81340000D01*
X121214341Y-81340000D01*
X121234937Y-81575408D01*
X121296097Y-81803663D01*
X121395965Y-82017829D01*
X121531505Y-82211401D01*
X121698599Y-82378495D01*
X121892171Y-82514035D01*
X122106337Y-82613903D01*
X122334592Y-82675063D01*
X122419431Y-82682486D01*
X122508870Y-82690311D01*
X122508878Y-82690311D01*
X122511034Y-82690500D01*
X122628966Y-82690500D01*
X122631122Y-82690311D01*
X122631130Y-82690311D01*
X122720569Y-82682486D01*
X122805408Y-82675063D01*
X123033663Y-82613903D01*
X123247829Y-82514035D01*
X123441401Y-82378495D01*
X123608495Y-82211401D01*
X123641162Y-82164748D01*
X127084500Y-82164748D01*
X127085448Y-82169512D01*
X127093076Y-82207860D01*
X127096133Y-82223231D01*
X127140448Y-82289552D01*
X127206769Y-82333867D01*
X127216332Y-82335769D01*
X127216334Y-82335770D01*
X127239005Y-82340279D01*
X127265252Y-82345500D01*
X128654748Y-82345500D01*
X128669171Y-82342631D01*
X136014443Y-82342631D01*
X136017429Y-82375441D01*
X136030042Y-82514035D01*
X136033114Y-82547797D01*
X136091280Y-82745428D01*
X136186726Y-82927998D01*
X136315815Y-83088553D01*
X136473630Y-83220976D01*
X136477878Y-83223311D01*
X136477879Y-83223312D01*
X136535263Y-83254859D01*
X136654162Y-83320224D01*
X136658775Y-83321687D01*
X136658779Y-83321689D01*
X136828689Y-83375587D01*
X136850532Y-83382516D01*
X136855344Y-83383056D01*
X136855345Y-83383056D01*
X137008108Y-83400191D01*
X137008110Y-83400191D01*
X137010864Y-83400500D01*
X137121841Y-83400500D01*
X137124236Y-83400265D01*
X137124240Y-83400265D01*
X137270220Y-83385952D01*
X137270224Y-83385951D01*
X137275030Y-83385480D01*
X137279655Y-83384084D01*
X137279658Y-83384083D01*
X137392131Y-83350125D01*
X137472251Y-83325935D01*
X137654151Y-83229218D01*
X137813800Y-83099011D01*
X137945118Y-82940275D01*
X138043103Y-82759055D01*
X138064383Y-82690311D01*
X138102593Y-82566875D01*
X138102594Y-82566871D01*
X138104023Y-82562254D01*
X138105055Y-82552441D01*
X138125051Y-82362185D01*
X138125051Y-82362183D01*
X138125557Y-82357369D01*
X138112551Y-82214455D01*
X138107325Y-82157022D01*
X138107324Y-82157017D01*
X138106886Y-82152203D01*
X138048720Y-81954572D01*
X137953274Y-81772002D01*
X137824185Y-81611447D01*
X137666370Y-81479024D01*
X137647242Y-81468508D01*
X137490085Y-81382111D01*
X137485838Y-81379776D01*
X137481225Y-81378313D01*
X137481221Y-81378311D01*
X137360448Y-81340000D01*
X162214341Y-81340000D01*
X162234937Y-81575408D01*
X162296097Y-81803663D01*
X162395965Y-82017829D01*
X162531505Y-82211401D01*
X162698599Y-82378495D01*
X162892171Y-82514035D01*
X163106337Y-82613903D01*
X163334592Y-82675063D01*
X163419431Y-82682486D01*
X163508870Y-82690311D01*
X163508878Y-82690311D01*
X163511034Y-82690500D01*
X163628966Y-82690500D01*
X163631122Y-82690311D01*
X163631130Y-82690311D01*
X163720569Y-82682486D01*
X163805408Y-82675063D01*
X164033663Y-82613903D01*
X164247829Y-82514035D01*
X164441401Y-82378495D01*
X164608495Y-82211401D01*
X164741554Y-82021374D01*
X164741554Y-82021373D01*
X164744035Y-82017830D01*
X164843903Y-81803663D01*
X164905063Y-81575408D01*
X164925659Y-81340000D01*
X164905063Y-81104592D01*
X164843903Y-80876337D01*
X164744035Y-80662171D01*
X164740779Y-80657520D01*
X164696282Y-80593973D01*
X164608495Y-80468599D01*
X164441401Y-80301505D01*
X164247829Y-80165965D01*
X164033663Y-80066097D01*
X163805408Y-80004937D01*
X163720569Y-79997514D01*
X163631130Y-79989689D01*
X163631122Y-79989689D01*
X163628966Y-79989500D01*
X163511034Y-79989500D01*
X163508878Y-79989689D01*
X163508870Y-79989689D01*
X163419431Y-79997514D01*
X163334592Y-80004937D01*
X163106337Y-80066097D01*
X162892171Y-80165965D01*
X162698599Y-80301505D01*
X162531505Y-80468599D01*
X162468713Y-80558275D01*
X162398447Y-80658625D01*
X162398446Y-80658627D01*
X162395965Y-80662170D01*
X162296097Y-80876337D01*
X162234937Y-81104592D01*
X162214341Y-81340000D01*
X137360448Y-81340000D01*
X137294083Y-81318948D01*
X137289468Y-81317484D01*
X137284656Y-81316944D01*
X137284655Y-81316944D01*
X137131892Y-81299809D01*
X137131890Y-81299809D01*
X137129136Y-81299500D01*
X137018159Y-81299500D01*
X137015764Y-81299735D01*
X137015760Y-81299735D01*
X136869780Y-81314048D01*
X136869776Y-81314049D01*
X136864970Y-81314520D01*
X136860345Y-81315916D01*
X136860342Y-81315917D01*
X136766305Y-81344309D01*
X136667749Y-81374065D01*
X136485849Y-81470782D01*
X136326200Y-81600989D01*
X136194882Y-81759725D01*
X136096897Y-81940945D01*
X136035977Y-82137746D01*
X136035472Y-82142554D01*
X136035471Y-82142557D01*
X136015364Y-82333867D01*
X136014443Y-82342631D01*
X128669171Y-82342631D01*
X128680995Y-82340279D01*
X128703666Y-82335770D01*
X128703668Y-82335769D01*
X128713231Y-82333867D01*
X128779552Y-82289552D01*
X128823867Y-82223231D01*
X128826925Y-82207860D01*
X128834552Y-82169512D01*
X128835500Y-82164748D01*
X128835500Y-80775252D01*
X128823867Y-80716769D01*
X128779552Y-80650448D01*
X128713231Y-80606133D01*
X128703668Y-80604231D01*
X128703666Y-80604230D01*
X128680995Y-80599721D01*
X128654748Y-80594500D01*
X127265252Y-80594500D01*
X127239005Y-80599721D01*
X127216334Y-80604230D01*
X127216332Y-80604231D01*
X127206769Y-80606133D01*
X127140448Y-80650448D01*
X127096133Y-80716769D01*
X127084500Y-80775252D01*
X127084500Y-82164748D01*
X123641162Y-82164748D01*
X123741554Y-82021374D01*
X123741554Y-82021373D01*
X123744035Y-82017830D01*
X123843903Y-81803663D01*
X123905063Y-81575408D01*
X123925659Y-81340000D01*
X123905063Y-81104592D01*
X123843903Y-80876337D01*
X123744035Y-80662171D01*
X123740779Y-80657520D01*
X123696282Y-80593973D01*
X123608495Y-80468599D01*
X123441401Y-80301505D01*
X123247829Y-80165965D01*
X123033663Y-80066097D01*
X122805408Y-80004937D01*
X122720569Y-79997514D01*
X122631130Y-79989689D01*
X122631122Y-79989689D01*
X122628966Y-79989500D01*
X122511034Y-79989500D01*
X122508878Y-79989689D01*
X122508870Y-79989689D01*
X122419431Y-79997514D01*
X122334592Y-80004937D01*
X122106337Y-80066097D01*
X121892171Y-80165965D01*
X121698599Y-80301505D01*
X121531505Y-80468599D01*
X121468713Y-80558275D01*
X121398447Y-80658625D01*
X121398446Y-80658627D01*
X121395965Y-80662170D01*
X121296097Y-80876337D01*
X121234937Y-81104592D01*
X121214341Y-81340000D01*
X120775573Y-81340000D01*
X120773196Y-81329494D01*
X120773216Y-81318348D01*
X120773371Y-81318348D01*
X120772580Y-81308298D01*
X120785482Y-81111602D01*
X120787173Y-81098765D01*
X120830569Y-80880637D01*
X120833921Y-80868129D01*
X120905420Y-80657520D01*
X120910376Y-80645557D01*
X120910386Y-80645537D01*
X121008746Y-80446094D01*
X121015218Y-80434883D01*
X121015236Y-80434857D01*
X121102300Y-80304559D01*
X121138783Y-80249960D01*
X121146666Y-80239686D01*
X121293313Y-80072469D01*
X121302469Y-80063313D01*
X121469686Y-79916666D01*
X121479960Y-79908783D01*
X121664883Y-79785218D01*
X121676094Y-79778746D01*
X121875560Y-79680375D01*
X121887520Y-79675420D01*
X122098129Y-79603921D01*
X122110637Y-79600569D01*
X122328765Y-79557173D01*
X122341602Y-79555482D01*
X122537784Y-79542614D01*
X122547639Y-79543407D01*
X122547639Y-79543139D01*
X122558785Y-79543158D01*
X122569651Y-79545656D01*
X122581644Y-79542942D01*
X122603496Y-79540500D01*
X163535983Y-79540500D01*
X163558169Y-79543018D01*
G37*
%TD.AperFunction*%
%TD*%
M02*
