M48
; DRILL file {KiCad (6.0.4)} date Fri Oct 14 21:27:49 2022
; FORMAT={-:-/ absolute / inch / decimal}
; #@! TF.CreationDate,2022-10-14T21:27:49-05:00
; #@! TF.GenerationSoftware,Kicad,Pcbnew,(6.0.4)
; #@! TF.FileFunction,Plated,1,2,PTH
FMAT,2
INCH
; #@! TA.AperFunction,Plated,PTH,ViaDrill
T1C0.0157
; #@! TA.AperFunction,Plated,PTH,ComponentDrill
T2C0.0315
; #@! TA.AperFunction,Plated,PTH,ComponentDrill
T3C0.0354
; #@! TA.AperFunction,Plated,PTH,ComponentDrill
T4C0.0394
%
G90
G05
T1
X5.913Y-4.676
X6.0138Y-4.6728
X6.4732Y-4.4465
X6.4732Y-4.7575
T2
X5.0378Y-3.2075
T3
X5.1764Y-4.8146
X5.1764Y-5.0146
X5.2783Y-3.3996
X5.2783Y-3.4783
X5.2783Y-3.5571
X5.4764Y-4.8146
X5.4764Y-5.0146
X5.5331Y-4.4583
X5.5331Y-4.7583
X5.5331Y-5.0713
X5.5331Y-5.3713
X5.5539Y-3.8327
X5.6327Y-3.8327
X5.7114Y-3.8327
X5.7331Y-4.4583
X5.7331Y-4.7583
X5.7331Y-5.0713
X5.7331Y-5.3713
X5.7894Y-4.815
X5.7894Y-5.015
X6.0894Y-4.815
X6.0894Y-5.015
T4
X6.1484Y-3.3783
X6.1484Y-3.4783
X6.1484Y-3.5783
X6.1484Y-3.6783
T0
M30
