M48
; DRILL file {KiCad (6.0.4)} date Sun Sep 18 16:29:32 2022
; FORMAT={-:-/ absolute / inch / decimal}
; #@! TF.CreationDate,2022-09-18T16:29:32-05:00
; #@! TF.GenerationSoftware,Kicad,Pcbnew,(6.0.4)
; #@! TF.FileFunction,Plated,1,2,PTH
FMAT,2
INCH
; #@! TA.AperFunction,Plated,PTH,ViaDrill
T1C0.0138
; #@! TA.AperFunction,Plated,PTH,ComponentDrill
T2C0.0138
; #@! TA.AperFunction,Plated,PTH,ComponentDrill
T3C0.0256
; #@! TA.AperFunction,Plated,PTH,ComponentDrill
T4C0.0276
; #@! TA.AperFunction,Plated,PTH,ComponentDrill
T5C0.0354
%
G90
G05
T1
X3.1118Y-4.0071
X3.1362Y-3.974
X3.1607Y-3.9438
X3.1827Y-4.9894
X3.1839Y-4.8091
X3.1841Y-4.4768
X3.2806Y-3.7157
X3.2806Y-3.7551
X3.2823Y-3.6425
X3.339Y-5.4811
X3.3902Y-4.1874
X3.3917Y-3.2807
X3.415Y-4.2126
X3.4457Y-4.2366
X3.4734Y-5.3075
X3.4738Y-4.9931
X3.4778Y-3.4122
X3.4789Y-3.5751
X3.4909Y-5.3355
X3.4914Y-5.0211
X3.4937Y-2.9219
X3.5117Y-5.3611
X3.5122Y-5.0468
X3.5274Y-3.0169
X3.529Y-3.7741
X3.531Y-5.388
X3.5315Y-5.0736
X3.549Y-5.4158
X3.5494Y-5.1014
X3.5516Y-3.7983
X3.6041Y-3.9059
X3.622Y-2.6858
X3.6984Y-3.8197
X3.7579Y-2.793
X3.7681Y-3.1492
X3.7933Y-3.813
X3.8049Y-3.3357
X3.8075Y-3.1492
X3.8264Y-3.8537
X3.8311Y-3.6098
X3.8417Y-3.728
X3.8445Y-3.4417
X3.8598Y-3.9059
X3.872Y-3.8541
X3.9276Y-3.1951
X3.9669Y-3.1951
X3.9969Y-2.6854
X4.136Y-3.3689
X4.1364Y-3.3035
X4.1364Y-3.5752
X4.1921Y-4.148
X4.2132Y-2.7616
X4.2146Y-4.1756
X4.2783Y-3.2217
X4.2982Y-4.0303
X4.3299Y-4.0457
X8.0007Y-4.4488
X8.0007Y-4.8244
X8.0007Y-5.1394
X8.0027Y-4.7637
X8.0035Y-5.394
X8.0039Y-5.0787
T2
X3.7577Y-3.4751
X3.7577Y-3.5253
X3.7577Y-3.5755
X3.8079Y-3.4751
X3.8079Y-3.5253
X3.8079Y-3.5755
X3.8581Y-3.4751
X3.8581Y-3.5253
X3.8581Y-3.5755
T5
X3.3972Y-4.3094
X3.3972Y-4.5094
X3.3972Y-4.6244
X3.3972Y-4.8244
X3.3972Y-4.9394
X3.3972Y-5.1394
X3.3972Y-5.2543
X3.3972Y-5.4543
X3.6972Y-4.3094
X3.6972Y-4.5094
X3.6972Y-4.6244
X3.6972Y-4.8244
X3.6972Y-4.9394
X3.6972Y-5.1394
X3.6972Y-5.2543
X3.6972Y-5.4543
X3.8657Y-4.3094
X3.8657Y-4.5094
X3.8657Y-4.6244
X3.8657Y-4.8244
X3.8657Y-4.9394
X3.8657Y-5.1394
X3.8657Y-5.2543
X3.8657Y-5.4543
X4.1657Y-4.3094
X4.1657Y-4.5094
X4.1657Y-4.6244
X4.1657Y-4.8244
X4.1657Y-4.9394
X4.1657Y-5.1394
X4.1657Y-5.2543
X4.1657Y-5.4543
X4.3343Y-4.3094
X4.3343Y-4.5094
X4.3343Y-4.6244
X4.3343Y-4.8244
X4.3343Y-4.9394
X4.3343Y-5.1394
X4.3343Y-5.2543
X4.3343Y-5.4543
X4.6343Y-4.3094
X4.6343Y-4.5094
X4.6343Y-4.6244
X4.6343Y-4.8244
X4.6343Y-4.9394
X4.6343Y-5.1394
X4.6343Y-5.2543
X4.6343Y-5.4543
X4.8028Y-4.3094
X4.8028Y-4.5094
X4.8028Y-4.6244
X4.8028Y-4.8244
X4.8028Y-4.9394
X4.8028Y-5.1394
X4.8028Y-5.2543
X4.8028Y-5.4543
X5.1028Y-4.3094
X5.1028Y-4.5094
X5.1028Y-4.6244
X5.1028Y-4.8244
X5.1028Y-4.9394
X5.1028Y-5.1394
X5.1028Y-5.2543
X5.1028Y-5.4543
X5.2713Y-4.3094
X5.2713Y-4.5094
X5.2713Y-4.6244
X5.2713Y-4.8244
X5.2713Y-4.9394
X5.2713Y-5.1394
X5.2713Y-5.2543
X5.2713Y-5.4543
X5.5713Y-4.3094
X5.5713Y-4.5094
X5.5713Y-4.6244
X5.5713Y-4.8244
X5.5713Y-4.9394
X5.5713Y-5.1394
X5.5713Y-5.2543
X5.5713Y-5.4543
X5.7398Y-4.3094
X5.7398Y-4.5094
X5.7398Y-4.6244
X5.7398Y-4.8244
X5.7398Y-4.9394
X5.7398Y-5.1394
X5.7398Y-5.2543
X5.7398Y-5.4543
X6.0398Y-4.3094
X6.0398Y-4.5094
X6.0398Y-4.6244
X6.0398Y-4.8244
X6.0398Y-4.9394
X6.0398Y-5.1394
X6.0398Y-5.2543
X6.0398Y-5.4543
X6.2083Y-4.3094
X6.2083Y-4.5094
X6.2083Y-4.6244
X6.2083Y-4.8244
X6.2083Y-4.9394
X6.2083Y-5.1394
X6.2083Y-5.2543
X6.2083Y-5.4543
X6.5083Y-4.3094
X6.5083Y-4.5094
X6.5083Y-4.6244
X6.5083Y-4.8244
X6.5083Y-4.9394
X6.5083Y-5.1394
X6.5083Y-5.2543
X6.5083Y-5.4543
X6.6768Y-4.3094
X6.6768Y-4.5094
X6.6768Y-4.6244
X6.6768Y-4.8244
X6.6768Y-4.9394
X6.6768Y-5.1394
X6.6768Y-5.2543
X6.6768Y-5.4543
X6.9768Y-4.3094
X6.9768Y-4.5094
X6.9768Y-4.6244
X6.9768Y-4.8244
X6.9768Y-4.9394
X6.9768Y-5.1394
X6.9768Y-5.2543
X6.9768Y-5.4543
X7.1453Y-4.3094
X7.1453Y-4.5094
X7.1453Y-4.6244
X7.1453Y-4.8244
X7.1453Y-4.9394
X7.1453Y-5.1394
X7.1453Y-5.2543
X7.1453Y-5.4543
X7.4453Y-4.3094
X7.4453Y-4.5094
X7.4453Y-4.6244
X7.4453Y-4.8244
X7.4453Y-4.9394
X7.4453Y-5.1394
X7.4453Y-5.2543
X7.4453Y-5.4543
X7.6138Y-4.3094
X7.6138Y-4.5094
X7.6138Y-4.6244
X7.6138Y-4.8244
X7.6138Y-4.9394
X7.6138Y-5.1394
X7.6138Y-5.2543
X7.6138Y-5.4543
X7.9138Y-4.3094
X7.9138Y-4.5094
X7.9138Y-4.6244
X7.9138Y-4.8244
X7.9138Y-4.9394
X7.9138Y-5.1394
X7.9138Y-5.2543
X7.9138Y-5.4543
T3
G00X3.7136Y-2.7293
M15
G01X3.7136Y-2.7451
M16
G05
G00X3.9041Y-2.7293
M15
G01X3.9041Y-2.7451
M16
G05
T4
G00X3.7014Y-2.6093
M15
G01X3.7014Y-2.6289
M16
G05
G00X3.9163Y-2.6093
M15
G01X3.9163Y-2.6289
M16
G05
T0
M30
