%TF.GenerationSoftware,KiCad,Pcbnew,(6.0.4)*%
%TF.CreationDate,2022-09-18T16:29:30-05:00*%
%TF.ProjectId,Calculator_PCB,43616c63-756c-4617-946f-725f5043422e,rev?*%
%TF.SameCoordinates,Original*%
%TF.FileFunction,Profile,NP*%
%FSLAX46Y46*%
G04 Gerber Fmt 4.6, Leading zero omitted, Abs format (unit mm)*
G04 Created by KiCad (PCBNEW (6.0.4)) date 2022-09-18 16:29:30*
%MOMM*%
%LPD*%
G01*
G04 APERTURE LIST*
%TA.AperFunction,Profile*%
%ADD10C,0.200000*%
%TD*%
G04 APERTURE END LIST*
D10*
X79650000Y-142210000D02*
X207650000Y-142210000D01*
X208650000Y-140210000D02*
G75*
G03*
X208650000Y-140210000I-1000000J0D01*
G01*
X207650000Y-142210000D02*
G75*
G03*
X209650000Y-140210000I0J2000000D01*
G01*
X109650000Y-100710000D02*
G75*
G03*
X111650000Y-102710000I2000100J100D01*
G01*
X109650000Y-100710000D02*
X109650000Y-98210000D01*
X109650000Y-66210000D02*
G75*
G03*
X107650000Y-64210000I-1999900J100D01*
G01*
X79650000Y-64210000D02*
G75*
G03*
X77650000Y-66210000I0J-2000000D01*
G01*
X111650000Y-102710000D02*
X207650000Y-102710000D01*
X80629776Y-66210000D02*
G75*
G03*
X80629776Y-66210000I-1000000J0D01*
G01*
X77650000Y-140210000D02*
X77650000Y-66210000D01*
X209650000Y-104710000D02*
G75*
G03*
X207650000Y-102710000I-1999900J100D01*
G01*
X208650000Y-104710000D02*
G75*
G03*
X208650000Y-104710000I-1000000J0D01*
G01*
X77650000Y-140210000D02*
G75*
G03*
X79650000Y-142210000I2000100J100D01*
G01*
X209650000Y-108210000D02*
X209650000Y-140210000D01*
X209650000Y-106210000D02*
X209650000Y-104710000D01*
X109650000Y-66210000D02*
X109650000Y-98210000D01*
X80650000Y-140210000D02*
G75*
G03*
X80650000Y-140210000I-1000000J0D01*
G01*
X79650000Y-64210000D02*
X107650000Y-64210000D01*
X209650000Y-106210000D02*
X209650000Y-108210000D01*
X108650000Y-66210000D02*
G75*
G03*
X108650000Y-66210000I-1000000J0D01*
G01*
M02*
