  0
SECTION
  2
HEADER
  9
$ANGBASE
  50
0.0
  9
$ANGDIR
  70
1
  9
$MEASUREMENT
  70
1
  0
ENDSEC
  0
SECTION
  2
TABLES
  0
TABLE
  2
LTYPE
  70
4
  0
LTYPE
  5
40F
  2
CONTINUOUS
  70
0
  3
Solid line
  72
65
  73
0
  40
0.0
  0
LTYPE
  5
410
  2
DASHDOT
 70
0
  3
Dash Dot ____ _ ____ _
 72
65
 73
4
 40
2.0
 49
1.25
 49
-0.25
 49
0.25
 49
-0.25
  0
LTYPE
  5
411
  2
DASHED
 70
0
  3
Dashed __ __ __ __ __
 72
65
 73
2
 40
0.75
 49
0.5
 49
-0.25
  0
LTYPE
  5
43B
  2
DOTTED
 70
0
  3
Dotted .  .  .  .
 72
65
 73
2
 40
0.2
 49
0.0
 49
-0.2
  0
ENDTAB
  0
TABLE
  2
STYLE
  70
4
  0
STYLE
  2
KICAD
  70
0
  40
0
  41
1
  42
1
  50
0
  71
0
  3
isocp.shx
  0
STYLE
  2
KICADB
  70
0
  40
0
  41
1
  42
1
  50
0
  71
0
  3
isocp.shx
  0
STYLE
  2
KICADI
  70
0
  40
0
  41
1
  42
1
  50
15
  71
0
  3
isocp.shx
  0
STYLE
  2
KICADBI
  70
0
  40
0
  41
1
  42
1
  50
15
  71
0
  3
isocp.shx
  0
ENDTAB
  0
TABLE
  2
LAYER
  70
1
  0
LAYER
  2
BLACK
  70
0
  62
7
  6
CONTINUOUS
  0
ENDTAB
  0
ENDSEC
  0
SECTION
  2
ENTITIES
0
LINE
8
BLACK
6
CONTINUOUS
10
109.747
20
-100.72
11
109.762
21
-100.959
0
LINE
8
BLACK
6
CONTINUOUS
10
109.762
20
-100.959
11
109.811
21
-101.203
0
LINE
8
BLACK
6
CONTINUOUS
10
109.811
20
-101.203
11
109.891
21
-101.439
0
LINE
8
BLACK
6
CONTINUOUS
10
109.891
20
-101.439
11
110.001
21
-101.662
0
LINE
8
BLACK
6
CONTINUOUS
10
110.001
20
-101.662
11
110.139
21
-101.869
0
LINE
8
BLACK
6
CONTINUOUS
10
110.139
20
-101.869
11
110.304
21
-102.056
0
LINE
8
BLACK
6
CONTINUOUS
10
110.304
20
-102.056
11
110.491
21
-102.221
0
LINE
8
BLACK
6
CONTINUOUS
10
110.491
20
-102.221
11
110.698
21
-102.359
0
LINE
8
BLACK
6
CONTINUOUS
10
110.698
20
-102.359
11
110.921
21
-102.469
0
LINE
8
BLACK
6
CONTINUOUS
10
110.921
20
-102.469
11
111.157
21
-102.549
0
LINE
8
BLACK
6
CONTINUOUS
10
111.157
20
-102.549
11
111.401
21
-102.598
0
LINE
8
BLACK
6
CONTINUOUS
10
111.401
20
-102.598
11
111.64
21
-102.613
0
LINE
8
BLACK
6
CONTINUOUS
10
111.64
20
-102.613
11
111.65
21
-102.61
0
LINE
8
BLACK
6
CONTINUOUS
10
111.65
20
-102.61
11
207.65
21
-102.61
0
LINE
8
BLACK
6
CONTINUOUS
10
207.65
20
-102.61
11
207.924
21
-102.628
0
LINE
8
BLACK
6
CONTINUOUS
10
207.924
20
-102.628
11
208.194
21
-102.682
0
LINE
8
BLACK
6
CONTINUOUS
10
208.194
20
-102.682
11
208.454
21
-102.77
0
LINE
8
BLACK
6
CONTINUOUS
10
208.454
20
-102.77
11
208.7
21
-102.891
0
LINE
8
BLACK
6
CONTINUOUS
10
208.7
20
-102.891
11
208.928
21
-103.044
0
LINE
8
BLACK
6
CONTINUOUS
10
208.928
20
-103.044
11
209.135
21
-103.225
0
LINE
8
BLACK
6
CONTINUOUS
10
209.135
20
-103.225
11
209.316
21
-103.432
0
LINE
8
BLACK
6
CONTINUOUS
10
209.316
20
-103.432
11
209.469
21
-103.66
0
LINE
8
BLACK
6
CONTINUOUS
10
209.469
20
-103.66
11
209.59
21
-103.906
0
LINE
8
BLACK
6
CONTINUOUS
10
209.59
20
-103.906
11
209.678
21
-104.166
0
LINE
8
BLACK
6
CONTINUOUS
10
209.678
20
-104.166
11
209.732
21
-104.436
0
LINE
8
BLACK
6
CONTINUOUS
10
209.732
20
-104.436
11
209.75
21
-104.71
0
LINE
8
BLACK
6
CONTINUOUS
10
209.75
20
-104.71
11
209.75
21
-140.21
0
LINE
8
BLACK
6
CONTINUOUS
10
209.75
20
-140.21
11
209.732
21
-140.484
0
LINE
8
BLACK
6
CONTINUOUS
10
209.732
20
-140.484
11
209.678
21
-140.754
0
LINE
8
BLACK
6
CONTINUOUS
10
209.678
20
-140.754
11
209.59
21
-141.014
0
LINE
8
BLACK
6
CONTINUOUS
10
209.59
20
-141.014
11
209.469
21
-141.26
0
LINE
8
BLACK
6
CONTINUOUS
10
209.469
20
-141.26
11
209.316
21
-141.488
0
LINE
8
BLACK
6
CONTINUOUS
10
209.316
20
-141.488
11
209.135
21
-141.695
0
LINE
8
BLACK
6
CONTINUOUS
10
209.135
20
-141.695
11
208.928
21
-141.876
0
LINE
8
BLACK
6
CONTINUOUS
10
208.928
20
-141.876
11
208.7
21
-142.029
0
LINE
8
BLACK
6
CONTINUOUS
10
208.7
20
-142.029
11
208.454
21
-142.15
0
LINE
8
BLACK
6
CONTINUOUS
10
208.454
20
-142.15
11
208.194
21
-142.238
0
LINE
8
BLACK
6
CONTINUOUS
10
208.194
20
-142.238
11
207.924
21
-142.292
0
LINE
8
BLACK
6
CONTINUOUS
10
207.924
20
-142.292
11
207.65
21
-142.31
0
LINE
8
BLACK
6
CONTINUOUS
10
207.65
20
-142.31
11
79.65
21
-142.31
0
LINE
8
BLACK
6
CONTINUOUS
10
79.65
20
-142.31
11
79.65
21
-142.31
0
LINE
8
BLACK
6
CONTINUOUS
10
79.65
20
-142.31
11
79.65
21
-142.31
0
LINE
8
BLACK
6
CONTINUOUS
10
79.65
20
-142.31
11
79.3759
21
-142.292
0
LINE
8
BLACK
6
CONTINUOUS
10
79.3759
20
-142.292
11
79.1065
21
-142.238
0
LINE
8
BLACK
6
CONTINUOUS
10
79.1065
20
-142.238
11
78.8464
21
-142.15
0
LINE
8
BLACK
6
CONTINUOUS
10
78.8464
20
-142.15
11
78.6
21
-142.029
0
LINE
8
BLACK
6
CONTINUOUS
10
78.6
20
-142.029
11
78.3716
21
-141.876
0
LINE
8
BLACK
6
CONTINUOUS
10
78.3716
20
-141.876
11
78.1651
21
-141.695
0
LINE
8
BLACK
6
CONTINUOUS
10
78.1651
20
-141.695
11
77.984
21
-141.488
0
LINE
8
BLACK
6
CONTINUOUS
10
77.984
20
-141.488
11
77.8314
21
-141.26
0
LINE
8
BLACK
6
CONTINUOUS
10
77.8314
20
-141.26
11
77.7099
21
-141.014
0
LINE
8
BLACK
6
CONTINUOUS
10
77.7099
20
-141.014
11
77.6216
21
-140.754
0
LINE
8
BLACK
6
CONTINUOUS
10
77.6216
20
-140.754
11
77.568
21
-140.484
0
LINE
8
BLACK
6
CONTINUOUS
10
77.568
20
-140.484
11
77.55
21
-140.21
0
LINE
8
BLACK
6
CONTINUOUS
10
77.55
20
-140.21
11
77.55
21
-140.21
0
LINE
8
BLACK
6
CONTINUOUS
10
77.55
20
-140.21
11
77.55
21
-140.21
0
LINE
8
BLACK
6
CONTINUOUS
10
77.55
20
-140.21
11
77.55
21
-66.21
0
LINE
8
BLACK
6
CONTINUOUS
10
77.55
20
-66.21
11
77.568
21
-65.9359
0
LINE
8
BLACK
6
CONTINUOUS
10
77.568
20
-65.9359
11
77.6216
21
-65.6665
0
LINE
8
BLACK
6
CONTINUOUS
10
77.6216
20
-65.6665
11
77.7099
21
-65.4064
0
LINE
8
BLACK
6
CONTINUOUS
10
77.7099
20
-65.4064
11
77.8313
21
-65.16
0
LINE
8
BLACK
6
CONTINUOUS
10
77.8313
20
-65.16
11
77.984
21
-64.9316
0
LINE
8
BLACK
6
CONTINUOUS
10
77.984
20
-64.9316
11
78.1651
21
-64.7251
0
LINE
8
BLACK
6
CONTINUOUS
10
78.1651
20
-64.7251
11
78.3716
21
-64.544
0
LINE
8
BLACK
6
CONTINUOUS
10
78.3716
20
-64.544
11
78.6
21
-64.3913
0
LINE
8
BLACK
6
CONTINUOUS
10
78.6
20
-64.3913
11
78.8464
21
-64.2699
0
LINE
8
BLACK
6
CONTINUOUS
10
78.8464
20
-64.2699
11
79.1065
21
-64.1816
0
LINE
8
BLACK
6
CONTINUOUS
10
79.1065
20
-64.1816
11
79.3759
21
-64.128
0
LINE
8
BLACK
6
CONTINUOUS
10
79.3759
20
-64.128
11
79.65
21
-64.11
0
LINE
8
BLACK
6
CONTINUOUS
10
79.65
20
-64.11
11
107.65
21
-64.11
0
LINE
8
BLACK
6
CONTINUOUS
10
107.65
20
-64.11
11
107.924
21
-64.128
0
LINE
8
BLACK
6
CONTINUOUS
10
107.924
20
-64.128
11
108.194
21
-64.1815
0
LINE
8
BLACK
6
CONTINUOUS
10
108.194
20
-64.1815
11
108.454
21
-64.2698
0
LINE
8
BLACK
6
CONTINUOUS
10
108.454
20
-64.2698
11
108.7
21
-64.3913
0
LINE
8
BLACK
6
CONTINUOUS
10
108.7
20
-64.3913
11
108.928
21
-64.5439
0
LINE
8
BLACK
6
CONTINUOUS
10
108.928
20
-64.5439
11
109.135
21
-64.725
0
LINE
8
BLACK
6
CONTINUOUS
10
109.135
20
-64.725
11
109.316
21
-64.9316
0
LINE
8
BLACK
6
CONTINUOUS
10
109.316
20
-64.9316
11
109.469
21
-65.16
0
LINE
8
BLACK
6
CONTINUOUS
10
109.469
20
-65.16
11
109.59
21
-65.4064
0
LINE
8
BLACK
6
CONTINUOUS
10
109.59
20
-65.4064
11
109.678
21
-65.6665
0
LINE
8
BLACK
6
CONTINUOUS
10
109.678
20
-65.6665
11
109.732
21
-65.9359
0
LINE
8
BLACK
6
CONTINUOUS
10
109.732
20
-65.9359
11
109.75
21
-66.21
0
LINE
8
BLACK
6
CONTINUOUS
10
109.75
20
-66.21
11
109.75
21
-100.71
0
LINE
8
BLACK
6
CONTINUOUS
10
109.75
20
-100.71
11
109.747
21
-100.72
0
LINE
8
BLACK
6
CONTINUOUS
10
79.4015
20
-64.3222
11
79.1572
21
-64.3708
0
LINE
8
BLACK
6
CONTINUOUS
10
79.1572
20
-64.3708
11
78.9213
21
-64.4509
0
LINE
8
BLACK
6
CONTINUOUS
10
78.9213
20
-64.4509
11
78.698
21
-64.561
0
LINE
8
BLACK
6
CONTINUOUS
10
78.698
20
-64.561
11
78.4909
21
-64.6994
0
LINE
8
BLACK
6
CONTINUOUS
10
78.4909
20
-64.6994
11
78.3036
21
-64.8636
0
LINE
8
BLACK
6
CONTINUOUS
10
78.3036
20
-64.8636
11
78.1394
21
-65.0509
0
LINE
8
BLACK
6
CONTINUOUS
10
78.1394
20
-65.0509
11
78.001
21
-65.258
0
LINE
8
BLACK
6
CONTINUOUS
10
78.001
20
-65.258
11
77.8909
21
-65.4813
0
LINE
8
BLACK
6
CONTINUOUS
10
77.8909
20
-65.4813
11
77.8108
21
-65.7172
0
LINE
8
BLACK
6
CONTINUOUS
10
77.8108
20
-65.7172
11
77.7622
21
-65.9615
0
LINE
8
BLACK
6
CONTINUOUS
10
77.7622
20
-65.9615
11
77.7466
21
-66.1996
0
LINE
8
BLACK
6
CONTINUOUS
10
77.7466
20
-66.1996
11
77.75
21
-66.21
0
LINE
8
BLACK
6
CONTINUOUS
10
77.75
20
-66.21
11
77.75
21
-140.21
0
LINE
8
BLACK
6
CONTINUOUS
10
77.75
20
-140.21
11
77.7466
21
-140.22
0
LINE
8
BLACK
6
CONTINUOUS
10
77.7466
20
-140.22
11
77.7622
21
-140.459
0
LINE
8
BLACK
6
CONTINUOUS
10
77.7622
20
-140.459
11
77.8108
21
-140.703
0
LINE
8
BLACK
6
CONTINUOUS
10
77.8108
20
-140.703
11
77.8909
21
-140.939
0
LINE
8
BLACK
6
CONTINUOUS
10
77.8909
20
-140.939
11
78.001
21
-141.162
0
LINE
8
BLACK
6
CONTINUOUS
10
78.001
20
-141.162
11
78.1394
21
-141.369
0
LINE
8
BLACK
6
CONTINUOUS
10
78.1394
20
-141.369
11
78.3036
21
-141.556
0
LINE
8
BLACK
6
CONTINUOUS
10
78.3036
20
-141.556
11
78.4909
21
-141.721
0
LINE
8
BLACK
6
CONTINUOUS
10
78.4909
20
-141.721
11
78.698
21
-141.859
0
LINE
8
BLACK
6
CONTINUOUS
10
78.698
20
-141.859
11
78.9214
21
-141.969
0
LINE
8
BLACK
6
CONTINUOUS
10
78.9214
20
-141.969
11
79.1572
21
-142.049
0
LINE
8
BLACK
6
CONTINUOUS
10
79.1572
20
-142.049
11
79.4015
21
-142.098
0
LINE
8
BLACK
6
CONTINUOUS
10
79.4015
20
-142.098
11
79.6396
21
-142.113
0
LINE
8
BLACK
6
CONTINUOUS
10
79.6396
20
-142.113
11
79.65
21
-142.11
0
LINE
8
BLACK
6
CONTINUOUS
10
79.65
20
-142.11
11
207.65
21
-142.11
0
LINE
8
BLACK
6
CONTINUOUS
10
207.65
20
-142.11
11
207.66
21
-142.113
0
LINE
8
BLACK
6
CONTINUOUS
10
207.66
20
-142.113
11
207.899
21
-142.098
0
LINE
8
BLACK
6
CONTINUOUS
10
207.899
20
-142.098
11
208.143
21
-142.049
0
LINE
8
BLACK
6
CONTINUOUS
10
208.143
20
-142.049
11
208.379
21
-141.969
0
LINE
8
BLACK
6
CONTINUOUS
10
208.379
20
-141.969
11
208.602
21
-141.859
0
LINE
8
BLACK
6
CONTINUOUS
10
208.602
20
-141.859
11
208.809
21
-141.721
0
LINE
8
BLACK
6
CONTINUOUS
10
208.809
20
-141.721
11
208.996
21
-141.556
0
LINE
8
BLACK
6
CONTINUOUS
10
208.996
20
-141.556
11
209.161
21
-141.369
0
LINE
8
BLACK
6
CONTINUOUS
10
209.161
20
-141.369
11
209.299
21
-141.162
0
LINE
8
BLACK
6
CONTINUOUS
10
209.299
20
-141.162
11
209.409
21
-140.939
0
LINE
8
BLACK
6
CONTINUOUS
10
209.409
20
-140.939
11
209.489
21
-140.703
0
LINE
8
BLACK
6
CONTINUOUS
10
209.489
20
-140.703
11
209.538
21
-140.459
0
LINE
8
BLACK
6
CONTINUOUS
10
209.538
20
-140.459
11
209.553
21
-140.22
0
LINE
8
BLACK
6
CONTINUOUS
10
209.553
20
-140.22
11
209.55
21
-140.21
0
LINE
8
BLACK
6
CONTINUOUS
10
209.55
20
-140.21
11
209.55
21
-104.71
0
LINE
8
BLACK
6
CONTINUOUS
10
209.55
20
-104.71
11
209.55
21
-104.71
0
LINE
8
BLACK
6
CONTINUOUS
10
209.55
20
-104.71
11
209.55
21
-104.71
0
LINE
8
BLACK
6
CONTINUOUS
10
209.55
20
-104.71
11
209.553
21
-104.7
0
LINE
8
BLACK
6
CONTINUOUS
10
209.553
20
-104.7
11
209.538
21
-104.461
0
LINE
8
BLACK
6
CONTINUOUS
10
209.538
20
-104.461
11
209.489
21
-104.217
0
LINE
8
BLACK
6
CONTINUOUS
10
209.489
20
-104.217
11
209.409
21
-103.981
0
LINE
8
BLACK
6
CONTINUOUS
10
209.409
20
-103.981
11
209.299
21
-103.758
0
LINE
8
BLACK
6
CONTINUOUS
10
209.299
20
-103.758
11
209.161
21
-103.551
0
LINE
8
BLACK
6
CONTINUOUS
10
209.161
20
-103.551
11
208.996
21
-103.364
0
LINE
8
BLACK
6
CONTINUOUS
10
208.996
20
-103.364
11
208.809
21
-103.199
0
LINE
8
BLACK
6
CONTINUOUS
10
208.809
20
-103.199
11
208.602
21
-103.061
0
LINE
8
BLACK
6
CONTINUOUS
10
208.602
20
-103.061
11
208.379
21
-102.951
0
LINE
8
BLACK
6
CONTINUOUS
10
208.379
20
-102.951
11
208.143
21
-102.871
0
LINE
8
BLACK
6
CONTINUOUS
10
208.143
20
-102.871
11
207.899
21
-102.822
0
LINE
8
BLACK
6
CONTINUOUS
10
207.899
20
-102.822
11
207.66
21
-102.807
0
LINE
8
BLACK
6
CONTINUOUS
10
207.66
20
-102.807
11
207.65
21
-102.81
0
LINE
8
BLACK
6
CONTINUOUS
10
207.65
20
-102.81
11
207.65
21
-102.81
0
LINE
8
BLACK
6
CONTINUOUS
10
207.65
20
-102.81
11
207.65
21
-102.81
0
LINE
8
BLACK
6
CONTINUOUS
10
207.65
20
-102.81
11
111.65
21
-102.81
0
LINE
8
BLACK
6
CONTINUOUS
10
111.65
20
-102.81
11
111.65
21
-102.81
0
LINE
8
BLACK
6
CONTINUOUS
10
111.65
20
-102.81
11
111.65
21
-102.81
0
LINE
8
BLACK
6
CONTINUOUS
10
111.65
20
-102.81
11
111.376
21
-102.792
0
LINE
8
BLACK
6
CONTINUOUS
10
111.376
20
-102.792
11
111.106
21
-102.738
0
LINE
8
BLACK
6
CONTINUOUS
10
111.106
20
-102.738
11
110.846
21
-102.65
0
LINE
8
BLACK
6
CONTINUOUS
10
110.846
20
-102.65
11
110.6
21
-102.529
0
LINE
8
BLACK
6
CONTINUOUS
10
110.6
20
-102.529
11
110.372
21
-102.376
0
LINE
8
BLACK
6
CONTINUOUS
10
110.372
20
-102.376
11
110.165
21
-102.195
0
LINE
8
BLACK
6
CONTINUOUS
10
110.165
20
-102.195
11
109.984
21
-101.988
0
LINE
8
BLACK
6
CONTINUOUS
10
109.984
20
-101.988
11
109.831
21
-101.76
0
LINE
8
BLACK
6
CONTINUOUS
10
109.831
20
-101.76
11
109.71
21
-101.514
0
LINE
8
BLACK
6
CONTINUOUS
10
109.71
20
-101.514
11
109.622
21
-101.254
0
LINE
8
BLACK
6
CONTINUOUS
10
109.622
20
-101.254
11
109.568
21
-100.984
0
LINE
8
BLACK
6
CONTINUOUS
10
109.568
20
-100.984
11
109.55
21
-100.71
0
LINE
8
BLACK
6
CONTINUOUS
10
109.55
20
-100.71
11
109.55
21
-100.71
0
LINE
8
BLACK
6
CONTINUOUS
10
109.55
20
-100.71
11
109.55
21
-100.71
0
LINE
8
BLACK
6
CONTINUOUS
10
109.55
20
-100.71
11
109.55
21
-66.21
0
LINE
8
BLACK
6
CONTINUOUS
10
109.55
20
-66.21
11
109.55
21
-66.21
0
LINE
8
BLACK
6
CONTINUOUS
10
109.55
20
-66.21
11
109.55
21
-66.21
0
LINE
8
BLACK
6
CONTINUOUS
10
109.55
20
-66.21
11
109.553
21
-66.1996
0
LINE
8
BLACK
6
CONTINUOUS
10
109.553
20
-66.1996
11
109.538
21
-65.9615
0
LINE
8
BLACK
6
CONTINUOUS
10
109.538
20
-65.9615
11
109.489
21
-65.7172
0
LINE
8
BLACK
6
CONTINUOUS
10
109.489
20
-65.7172
11
109.409
21
-65.4813
0
LINE
8
BLACK
6
CONTINUOUS
10
109.409
20
-65.4813
11
109.299
21
-65.2579
0
LINE
8
BLACK
6
CONTINUOUS
10
109.299
20
-65.2579
11
109.161
21
-65.0508
0
LINE
8
BLACK
6
CONTINUOUS
10
109.161
20
-65.0508
11
108.996
21
-64.8636
0
LINE
8
BLACK
6
CONTINUOUS
10
108.996
20
-64.8636
11
108.809
21
-64.6994
0
LINE
8
BLACK
6
CONTINUOUS
10
108.809
20
-64.6994
11
108.602
21
-64.561
0
LINE
8
BLACK
6
CONTINUOUS
10
108.602
20
-64.561
11
108.379
21
-64.4508
0
LINE
8
BLACK
6
CONTINUOUS
10
108.379
20
-64.4508
11
108.143
21
-64.3708
0
LINE
8
BLACK
6
CONTINUOUS
10
108.143
20
-64.3708
11
107.899
21
-64.3222
0
LINE
8
BLACK
6
CONTINUOUS
10
107.899
20
-64.3222
11
107.66
21
-64.3066
0
LINE
8
BLACK
6
CONTINUOUS
10
107.66
20
-64.3066
11
107.65
21
-64.31
0
LINE
8
BLACK
6
CONTINUOUS
10
107.65
20
-64.31
11
107.65
21
-64.31
0
LINE
8
BLACK
6
CONTINUOUS
10
107.65
20
-64.31
11
107.65
21
-64.31
0
LINE
8
BLACK
6
CONTINUOUS
10
107.65
20
-64.31
11
79.65
21
-64.31
0
LINE
8
BLACK
6
CONTINUOUS
10
79.65
20
-64.31
11
79.6396
21
-64.3066
0
LINE
8
BLACK
6
CONTINUOUS
10
79.6396
20
-64.3066
11
79.4015
21
-64.3222
  0
ENDSEC
  0
EOF
