  0
SECTION
  2
HEADER
  9
$ANGBASE
  50
0.0
  9
$ANGDIR
  70
1
  9
$MEASUREMENT
  70
1
  0
ENDSEC
  0
SECTION
  2
TABLES
  0
TABLE
  2
LTYPE
  70
4
  0
LTYPE
  5
40F
  2
CONTINUOUS
  70
0
  3
Solid line
  72
65
  73
0
  40
0.0
  0
LTYPE
  5
410
  2
DASHDOT
 70
0
  3
Dash Dot ____ _ ____ _
 72
65
 73
4
 40
2.0
 49
1.25
 49
-0.25
 49
0.25
 49
-0.25
  0
LTYPE
  5
411
  2
DASHED
 70
0
  3
Dashed __ __ __ __ __
 72
65
 73
2
 40
0.75
 49
0.5
 49
-0.25
  0
LTYPE
  5
43B
  2
DOTTED
 70
0
  3
Dotted .  .  .  .
 72
65
 73
2
 40
0.2
 49
0.0
 49
-0.2
  0
ENDTAB
  0
TABLE
  2
STYLE
  70
4
  0
STYLE
  2
KICAD
  70
0
  40
0
  41
1
  42
1
  50
0
  71
0
  3
isocp.shx
  0
STYLE
  2
KICADB
  70
0
  40
0
  41
1
  42
1
  50
0
  71
0
  3
isocp.shx
  0
STYLE
  2
KICADI
  70
0
  40
0
  41
1
  42
1
  50
15
  71
0
  3
isocp.shx
  0
STYLE
  2
KICADBI
  70
0
  40
0
  41
1
  42
1
  50
15
  71
0
  3
isocp.shx
  0
ENDTAB
  0
TABLE
  2
LAYER
  70
1
  0
LAYER
  2
BLACK
  70
0
  62
7
  6
CONTINUOUS
  0
ENDTAB
  0
ENDSEC
  0
SECTION
  2
ENTITIES
0
LINE
8
BLACK
6
CONTINUOUS
10
203.192
20
-140.042
11
203.15
21
-140.06
0
LINE
8
BLACK
6
CONTINUOUS
10
203.15
20
-140.06
11
84.15
21
-140.06
0
LINE
8
BLACK
6
CONTINUOUS
10
84.15
20
-140.06
11
84.1076
21
-140.042
0
LINE
8
BLACK
6
CONTINUOUS
10
84.1076
20
-140.042
11
84.09
21
-140
0
LINE
8
BLACK
6
CONTINUOUS
10
84.09
20
-140
11
84.09
21
-108
0
LINE
8
BLACK
6
CONTINUOUS
10
84.09
20
-108
11
84.1076
21
-107.958
0
LINE
8
BLACK
6
CONTINUOUS
10
84.1076
20
-107.958
11
84.15
21
-107.94
0
LINE
8
BLACK
6
CONTINUOUS
10
84.15
20
-107.94
11
203.15
21
-107.94
0
LINE
8
BLACK
6
CONTINUOUS
10
203.15
20
-107.94
11
203.192
21
-107.958
0
LINE
8
BLACK
6
CONTINUOUS
10
203.192
20
-107.958
11
203.21
21
-108
0
LINE
8
BLACK
6
CONTINUOUS
10
203.21
20
-108
11
203.21
21
-140
0
LINE
8
BLACK
6
CONTINUOUS
10
203.21
20
-140
11
203.192
21
-140.042
0
LINE
8
BLACK
6
CONTINUOUS
10
191.31
20
-139.94
11
203.09
21
-139.94
0
LINE
8
BLACK
6
CONTINUOUS
10
203.09
20
-139.94
11
203.09
21
-132.06
0
LINE
8
BLACK
6
CONTINUOUS
10
203.09
20
-132.06
11
191.31
21
-132.06
0
LINE
8
BLACK
6
CONTINUOUS
10
191.31
20
-132.06
11
191.31
21
-139.94
0
LINE
8
BLACK
6
CONTINUOUS
10
191.19
20
-132.06
11
179.41
21
-132.06
0
LINE
8
BLACK
6
CONTINUOUS
10
179.41
20
-132.06
11
179.41
21
-139.94
0
LINE
8
BLACK
6
CONTINUOUS
10
179.41
20
-139.94
11
191.19
21
-139.94
0
LINE
8
BLACK
6
CONTINUOUS
10
191.19
20
-139.94
11
191.19
21
-132.06
0
LINE
8
BLACK
6
CONTINUOUS
10
167.51
20
-139.94
11
179.29
21
-139.94
0
LINE
8
BLACK
6
CONTINUOUS
10
179.29
20
-139.94
11
179.29
21
-132.06
0
LINE
8
BLACK
6
CONTINUOUS
10
179.29
20
-132.06
11
167.51
21
-132.06
0
LINE
8
BLACK
6
CONTINUOUS
10
167.51
20
-132.06
11
167.51
21
-139.94
0
LINE
8
BLACK
6
CONTINUOUS
10
155.61
20
-139.94
11
167.39
21
-139.94
0
LINE
8
BLACK
6
CONTINUOUS
10
167.39
20
-139.94
11
167.39
21
-132.06
0
LINE
8
BLACK
6
CONTINUOUS
10
167.39
20
-132.06
11
155.61
21
-132.06
0
LINE
8
BLACK
6
CONTINUOUS
10
155.61
20
-132.06
11
155.61
21
-139.94
0
LINE
8
BLACK
6
CONTINUOUS
10
155.49
20
-132.06
11
143.71
21
-132.06
0
LINE
8
BLACK
6
CONTINUOUS
10
143.71
20
-132.06
11
143.71
21
-139.94
0
LINE
8
BLACK
6
CONTINUOUS
10
143.71
20
-139.94
11
155.49
21
-139.94
0
LINE
8
BLACK
6
CONTINUOUS
10
155.49
20
-139.94
11
155.49
21
-132.06
0
LINE
8
BLACK
6
CONTINUOUS
10
143.59
20
-132.06
11
131.81
21
-132.06
0
LINE
8
BLACK
6
CONTINUOUS
10
131.81
20
-132.06
11
131.81
21
-139.94
0
LINE
8
BLACK
6
CONTINUOUS
10
131.81
20
-139.94
11
143.59
21
-139.94
0
LINE
8
BLACK
6
CONTINUOUS
10
143.59
20
-139.94
11
143.59
21
-132.06
0
LINE
8
BLACK
6
CONTINUOUS
10
131.69
20
-132.06
11
119.91
21
-132.06
0
LINE
8
BLACK
6
CONTINUOUS
10
119.91
20
-132.06
11
119.91
21
-139.94
0
LINE
8
BLACK
6
CONTINUOUS
10
119.91
20
-139.94
11
131.69
21
-139.94
0
LINE
8
BLACK
6
CONTINUOUS
10
131.69
20
-139.94
11
131.69
21
-132.06
0
LINE
8
BLACK
6
CONTINUOUS
10
108.01
20
-139.94
11
119.79
21
-139.94
0
LINE
8
BLACK
6
CONTINUOUS
10
119.79
20
-139.94
11
119.79
21
-132.06
0
LINE
8
BLACK
6
CONTINUOUS
10
119.79
20
-132.06
11
108.01
21
-132.06
0
LINE
8
BLACK
6
CONTINUOUS
10
108.01
20
-132.06
11
108.01
21
-139.94
0
LINE
8
BLACK
6
CONTINUOUS
10
107.89
20
-132.06
11
96.11
21
-132.06
0
LINE
8
BLACK
6
CONTINUOUS
10
96.11
20
-132.06
11
96.11
21
-139.94
0
LINE
8
BLACK
6
CONTINUOUS
10
96.11
20
-139.94
11
107.89
21
-139.94
0
LINE
8
BLACK
6
CONTINUOUS
10
107.89
20
-139.94
11
107.89
21
-132.06
0
LINE
8
BLACK
6
CONTINUOUS
10
95.99
20
-132.06
11
84.21
21
-132.06
0
LINE
8
BLACK
6
CONTINUOUS
10
84.21
20
-132.06
11
84.21
21
-139.94
0
LINE
8
BLACK
6
CONTINUOUS
10
84.21
20
-139.94
11
95.99
21
-139.94
0
LINE
8
BLACK
6
CONTINUOUS
10
95.99
20
-139.94
11
95.99
21
-132.06
0
LINE
8
BLACK
6
CONTINUOUS
10
191.31
20
-131.94
11
203.09
21
-131.94
0
LINE
8
BLACK
6
CONTINUOUS
10
203.09
20
-131.94
11
203.09
21
-124.06
0
LINE
8
BLACK
6
CONTINUOUS
10
203.09
20
-124.06
11
191.31
21
-124.06
0
LINE
8
BLACK
6
CONTINUOUS
10
191.31
20
-124.06
11
191.31
21
-131.94
0
LINE
8
BLACK
6
CONTINUOUS
10
179.41
20
-131.94
11
191.19
21
-131.94
0
LINE
8
BLACK
6
CONTINUOUS
10
191.19
20
-131.94
11
191.19
21
-124.06
0
LINE
8
BLACK
6
CONTINUOUS
10
191.19
20
-124.06
11
179.41
21
-124.06
0
LINE
8
BLACK
6
CONTINUOUS
10
179.41
20
-124.06
11
179.41
21
-131.94
0
LINE
8
BLACK
6
CONTINUOUS
10
167.51
20
-131.94
11
179.29
21
-131.94
0
LINE
8
BLACK
6
CONTINUOUS
10
179.29
20
-131.94
11
179.29
21
-124.06
0
LINE
8
BLACK
6
CONTINUOUS
10
179.29
20
-124.06
11
167.51
21
-124.06
0
LINE
8
BLACK
6
CONTINUOUS
10
167.51
20
-124.06
11
167.51
21
-131.94
0
LINE
8
BLACK
6
CONTINUOUS
10
155.61
20
-131.94
11
167.39
21
-131.94
0
LINE
8
BLACK
6
CONTINUOUS
10
167.39
20
-131.94
11
167.39
21
-124.06
0
LINE
8
BLACK
6
CONTINUOUS
10
167.39
20
-124.06
11
155.61
21
-124.06
0
LINE
8
BLACK
6
CONTINUOUS
10
155.61
20
-124.06
11
155.61
21
-131.94
0
LINE
8
BLACK
6
CONTINUOUS
10
143.71
20
-131.94
11
155.49
21
-131.94
0
LINE
8
BLACK
6
CONTINUOUS
10
155.49
20
-131.94
11
155.49
21
-124.06
0
LINE
8
BLACK
6
CONTINUOUS
10
155.49
20
-124.06
11
143.71
21
-124.06
0
LINE
8
BLACK
6
CONTINUOUS
10
143.71
20
-124.06
11
143.71
21
-131.94
0
LINE
8
BLACK
6
CONTINUOUS
10
131.81
20
-131.94
11
143.59
21
-131.94
0
LINE
8
BLACK
6
CONTINUOUS
10
143.59
20
-131.94
11
143.59
21
-124.06
0
LINE
8
BLACK
6
CONTINUOUS
10
143.59
20
-124.06
11
131.81
21
-124.06
0
LINE
8
BLACK
6
CONTINUOUS
10
131.81
20
-124.06
11
131.81
21
-131.94
0
LINE
8
BLACK
6
CONTINUOUS
10
119.91
20
-131.94
11
131.69
21
-131.94
0
LINE
8
BLACK
6
CONTINUOUS
10
131.69
20
-131.94
11
131.69
21
-124.06
0
LINE
8
BLACK
6
CONTINUOUS
10
131.69
20
-124.06
11
119.91
21
-124.06
0
LINE
8
BLACK
6
CONTINUOUS
10
119.91
20
-124.06
11
119.91
21
-131.94
0
LINE
8
BLACK
6
CONTINUOUS
10
119.79
20
-124.06
11
108.01
21
-124.06
0
LINE
8
BLACK
6
CONTINUOUS
10
108.01
20
-124.06
11
108.01
21
-131.94
0
LINE
8
BLACK
6
CONTINUOUS
10
108.01
20
-131.94
11
119.79
21
-131.94
0
LINE
8
BLACK
6
CONTINUOUS
10
119.79
20
-131.94
11
119.79
21
-124.06
0
LINE
8
BLACK
6
CONTINUOUS
10
96.11
20
-131.94
11
107.89
21
-131.94
0
LINE
8
BLACK
6
CONTINUOUS
10
107.89
20
-131.94
11
107.89
21
-124.06
0
LINE
8
BLACK
6
CONTINUOUS
10
107.89
20
-124.06
11
96.11
21
-124.06
0
LINE
8
BLACK
6
CONTINUOUS
10
96.11
20
-124.06
11
96.11
21
-131.94
0
LINE
8
BLACK
6
CONTINUOUS
10
84.21
20
-131.94
11
95.99
21
-131.94
0
LINE
8
BLACK
6
CONTINUOUS
10
95.99
20
-131.94
11
95.99
21
-124.06
0
LINE
8
BLACK
6
CONTINUOUS
10
95.99
20
-124.06
11
84.21
21
-124.06
0
LINE
8
BLACK
6
CONTINUOUS
10
84.21
20
-124.06
11
84.21
21
-131.94
0
LINE
8
BLACK
6
CONTINUOUS
10
203.09
20
-116.06
11
191.31
21
-116.06
0
LINE
8
BLACK
6
CONTINUOUS
10
191.31
20
-116.06
11
191.31
21
-123.94
0
LINE
8
BLACK
6
CONTINUOUS
10
191.31
20
-123.94
11
203.09
21
-123.94
0
LINE
8
BLACK
6
CONTINUOUS
10
203.09
20
-123.94
11
203.09
21
-116.06
0
LINE
8
BLACK
6
CONTINUOUS
10
179.41
20
-123.94
11
191.19
21
-123.94
0
LINE
8
BLACK
6
CONTINUOUS
10
191.19
20
-123.94
11
191.19
21
-116.06
0
LINE
8
BLACK
6
CONTINUOUS
10
191.19
20
-116.06
11
179.41
21
-116.06
0
LINE
8
BLACK
6
CONTINUOUS
10
179.41
20
-116.06
11
179.41
21
-123.94
0
LINE
8
BLACK
6
CONTINUOUS
10
167.51
20
-123.94
11
179.29
21
-123.94
0
LINE
8
BLACK
6
CONTINUOUS
10
179.29
20
-123.94
11
179.29
21
-116.06
0
LINE
8
BLACK
6
CONTINUOUS
10
179.29
20
-116.06
11
167.51
21
-116.06
0
LINE
8
BLACK
6
CONTINUOUS
10
167.51
20
-116.06
11
167.51
21
-123.94
0
LINE
8
BLACK
6
CONTINUOUS
10
155.61
20
-123.94
11
167.39
21
-123.94
0
LINE
8
BLACK
6
CONTINUOUS
10
167.39
20
-123.94
11
167.39
21
-116.06
0
LINE
8
BLACK
6
CONTINUOUS
10
167.39
20
-116.06
11
155.61
21
-116.06
0
LINE
8
BLACK
6
CONTINUOUS
10
155.61
20
-116.06
11
155.61
21
-123.94
0
LINE
8
BLACK
6
CONTINUOUS
10
143.71
20
-123.94
11
155.49
21
-123.94
0
LINE
8
BLACK
6
CONTINUOUS
10
155.49
20
-123.94
11
155.49
21
-116.06
0
LINE
8
BLACK
6
CONTINUOUS
10
155.49
20
-116.06
11
143.71
21
-116.06
0
LINE
8
BLACK
6
CONTINUOUS
10
143.71
20
-116.06
11
143.71
21
-123.94
0
LINE
8
BLACK
6
CONTINUOUS
10
143.59
20
-116.06
11
131.81
21
-116.06
0
LINE
8
BLACK
6
CONTINUOUS
10
131.81
20
-116.06
11
131.81
21
-123.94
0
LINE
8
BLACK
6
CONTINUOUS
10
131.81
20
-123.94
11
143.59
21
-123.94
0
LINE
8
BLACK
6
CONTINUOUS
10
143.59
20
-123.94
11
143.59
21
-116.06
0
LINE
8
BLACK
6
CONTINUOUS
10
119.91
20
-123.94
11
131.69
21
-123.94
0
LINE
8
BLACK
6
CONTINUOUS
10
131.69
20
-123.94
11
131.69
21
-116.06
0
LINE
8
BLACK
6
CONTINUOUS
10
131.69
20
-116.06
11
119.91
21
-116.06
0
LINE
8
BLACK
6
CONTINUOUS
10
119.91
20
-116.06
11
119.91
21
-123.94
0
LINE
8
BLACK
6
CONTINUOUS
10
108.01
20
-123.94
11
119.79
21
-123.94
0
LINE
8
BLACK
6
CONTINUOUS
10
119.79
20
-123.94
11
119.79
21
-116.06
0
LINE
8
BLACK
6
CONTINUOUS
10
119.79
20
-116.06
11
108.01
21
-116.06
0
LINE
8
BLACK
6
CONTINUOUS
10
108.01
20
-116.06
11
108.01
21
-123.94
0
LINE
8
BLACK
6
CONTINUOUS
10
96.11
20
-123.94
11
107.89
21
-123.94
0
LINE
8
BLACK
6
CONTINUOUS
10
107.89
20
-123.94
11
107.89
21
-116.06
0
LINE
8
BLACK
6
CONTINUOUS
10
107.89
20
-116.06
11
96.11
21
-116.06
0
LINE
8
BLACK
6
CONTINUOUS
10
96.11
20
-116.06
11
96.11
21
-123.94
0
LINE
8
BLACK
6
CONTINUOUS
10
84.21
20
-123.94
11
95.99
21
-123.94
0
LINE
8
BLACK
6
CONTINUOUS
10
95.99
20
-123.94
11
95.99
21
-116.06
0
LINE
8
BLACK
6
CONTINUOUS
10
95.99
20
-116.06
11
84.21
21
-116.06
0
LINE
8
BLACK
6
CONTINUOUS
10
84.21
20
-116.06
11
84.21
21
-123.94
0
LINE
8
BLACK
6
CONTINUOUS
10
191.31
20
-108.06
11
191.31
21
-115.94
0
LINE
8
BLACK
6
CONTINUOUS
10
191.31
20
-115.94
11
203.09
21
-115.94
0
LINE
8
BLACK
6
CONTINUOUS
10
203.09
20
-115.94
11
203.09
21
-108.06
0
LINE
8
BLACK
6
CONTINUOUS
10
203.09
20
-108.06
11
191.31
21
-108.06
0
LINE
8
BLACK
6
CONTINUOUS
10
191.19
20
-108.06
11
179.41
21
-108.06
0
LINE
8
BLACK
6
CONTINUOUS
10
179.41
20
-108.06
11
179.41
21
-115.94
0
LINE
8
BLACK
6
CONTINUOUS
10
179.41
20
-115.94
11
191.19
21
-115.94
0
LINE
8
BLACK
6
CONTINUOUS
10
191.19
20
-115.94
11
191.19
21
-108.06
0
LINE
8
BLACK
6
CONTINUOUS
10
167.51
20
-108.06
11
167.51
21
-115.94
0
LINE
8
BLACK
6
CONTINUOUS
10
167.51
20
-115.94
11
179.29
21
-115.94
0
LINE
8
BLACK
6
CONTINUOUS
10
179.29
20
-115.94
11
179.29
21
-108.06
0
LINE
8
BLACK
6
CONTINUOUS
10
179.29
20
-108.06
11
167.51
21
-108.06
0
LINE
8
BLACK
6
CONTINUOUS
10
167.39
20
-108.06
11
155.61
21
-108.06
0
LINE
8
BLACK
6
CONTINUOUS
10
155.61
20
-108.06
11
155.61
21
-115.94
0
LINE
8
BLACK
6
CONTINUOUS
10
155.61
20
-115.94
11
167.39
21
-115.94
0
LINE
8
BLACK
6
CONTINUOUS
10
167.39
20
-115.94
11
167.39
21
-108.06
0
LINE
8
BLACK
6
CONTINUOUS
10
143.71
20
-108.06
11
143.71
21
-115.94
0
LINE
8
BLACK
6
CONTINUOUS
10
143.71
20
-115.94
11
155.49
21
-115.94
0
LINE
8
BLACK
6
CONTINUOUS
10
155.49
20
-115.94
11
155.49
21
-108.06
0
LINE
8
BLACK
6
CONTINUOUS
10
155.49
20
-108.06
11
143.71
21
-108.06
0
LINE
8
BLACK
6
CONTINUOUS
10
131.81
20
-108.06
11
131.81
21
-115.94
0
LINE
8
BLACK
6
CONTINUOUS
10
131.81
20
-115.94
11
143.59
21
-115.94
0
LINE
8
BLACK
6
CONTINUOUS
10
143.59
20
-115.94
11
143.59
21
-108.06
0
LINE
8
BLACK
6
CONTINUOUS
10
143.59
20
-108.06
11
131.81
21
-108.06
0
LINE
8
BLACK
6
CONTINUOUS
10
131.69
20
-108.06
11
119.91
21
-108.06
0
LINE
8
BLACK
6
CONTINUOUS
10
119.91
20
-108.06
11
119.91
21
-115.94
0
LINE
8
BLACK
6
CONTINUOUS
10
119.91
20
-115.94
11
131.69
21
-115.94
0
LINE
8
BLACK
6
CONTINUOUS
10
131.69
20
-115.94
11
131.69
21
-108.06
0
LINE
8
BLACK
6
CONTINUOUS
10
108.01
20
-108.06
11
108.01
21
-115.94
0
LINE
8
BLACK
6
CONTINUOUS
10
108.01
20
-115.94
11
119.79
21
-115.94
0
LINE
8
BLACK
6
CONTINUOUS
10
119.79
20
-115.94
11
119.79
21
-108.06
0
LINE
8
BLACK
6
CONTINUOUS
10
119.79
20
-108.06
11
108.01
21
-108.06
0
LINE
8
BLACK
6
CONTINUOUS
10
107.89
20
-108.06
11
96.11
21
-108.06
0
LINE
8
BLACK
6
CONTINUOUS
10
96.11
20
-108.06
11
96.11
21
-115.94
0
LINE
8
BLACK
6
CONTINUOUS
10
96.11
20
-115.94
11
107.89
21
-115.94
0
LINE
8
BLACK
6
CONTINUOUS
10
107.89
20
-115.94
11
107.89
21
-108.06
0
LINE
8
BLACK
6
CONTINUOUS
10
84.21
20
-108.06
11
84.21
21
-115.94
0
LINE
8
BLACK
6
CONTINUOUS
10
84.21
20
-115.94
11
95.99
21
-115.94
0
LINE
8
BLACK
6
CONTINUOUS
10
95.99
20
-115.94
11
95.99
21
-108.06
0
LINE
8
BLACK
6
CONTINUOUS
10
95.99
20
-108.06
11
84.21
21
-108.06
0
LINE
8
BLACK
6
CONTINUOUS
10
193.458
20
-139.692
11
193.44
21
-139.65
0
LINE
8
BLACK
6
CONTINUOUS
10
193.44
20
-139.65
11
193.44
21
-132.35
0
LINE
8
BLACK
6
CONTINUOUS
10
193.44
20
-132.35
11
193.458
21
-132.308
0
LINE
8
BLACK
6
CONTINUOUS
10
193.458
20
-132.308
11
193.5
21
-132.29
0
LINE
8
BLACK
6
CONTINUOUS
10
193.5
20
-132.29
11
200.9
21
-132.29
0
LINE
8
BLACK
6
CONTINUOUS
10
200.9
20
-132.29
11
200.942
21
-132.308
0
LINE
8
BLACK
6
CONTINUOUS
10
200.942
20
-132.308
11
200.96
21
-132.35
0
LINE
8
BLACK
6
CONTINUOUS
10
200.96
20
-132.35
11
200.96
21
-139.65
0
LINE
8
BLACK
6
CONTINUOUS
10
200.96
20
-139.65
11
200.942
21
-139.692
0
LINE
8
BLACK
6
CONTINUOUS
10
200.942
20
-139.692
11
200.9
21
-139.71
0
LINE
8
BLACK
6
CONTINUOUS
10
200.9
20
-139.71
11
193.5
21
-139.71
0
LINE
8
BLACK
6
CONTINUOUS
10
193.5
20
-139.71
11
193.458
21
-139.692
0
LINE
8
BLACK
6
CONTINUOUS
10
193.56
20
-132.41
11
193.56
21
-139.59
0
LINE
8
BLACK
6
CONTINUOUS
10
193.56
20
-139.59
11
200.84
21
-139.59
0
LINE
8
BLACK
6
CONTINUOUS
10
200.84
20
-139.59
11
200.84
21
-132.41
0
LINE
8
BLACK
6
CONTINUOUS
10
200.84
20
-132.41
11
193.56
21
-132.41
0
LINE
8
BLACK
6
CONTINUOUS
10
181.558
20
-139.692
11
181.54
21
-139.65
0
LINE
8
BLACK
6
CONTINUOUS
10
181.54
20
-139.65
11
181.54
21
-132.35
0
LINE
8
BLACK
6
CONTINUOUS
10
181.54
20
-132.35
11
181.558
21
-132.308
0
LINE
8
BLACK
6
CONTINUOUS
10
181.558
20
-132.308
11
181.6
21
-132.29
0
LINE
8
BLACK
6
CONTINUOUS
10
181.6
20
-132.29
11
189
21
-132.29
0
LINE
8
BLACK
6
CONTINUOUS
10
189
20
-132.29
11
189.042
21
-132.308
0
LINE
8
BLACK
6
CONTINUOUS
10
189.042
20
-132.308
11
189.06
21
-132.35
0
LINE
8
BLACK
6
CONTINUOUS
10
189.06
20
-132.35
11
189.06
21
-139.65
0
LINE
8
BLACK
6
CONTINUOUS
10
189.06
20
-139.65
11
189.042
21
-139.692
0
LINE
8
BLACK
6
CONTINUOUS
10
189.042
20
-139.692
11
189
21
-139.71
0
LINE
8
BLACK
6
CONTINUOUS
10
189
20
-139.71
11
181.6
21
-139.71
0
LINE
8
BLACK
6
CONTINUOUS
10
181.6
20
-139.71
11
181.558
21
-139.692
0
LINE
8
BLACK
6
CONTINUOUS
10
181.66
20
-132.41
11
181.66
21
-139.59
0
LINE
8
BLACK
6
CONTINUOUS
10
181.66
20
-139.59
11
188.94
21
-139.59
0
LINE
8
BLACK
6
CONTINUOUS
10
188.94
20
-139.59
11
188.94
21
-132.41
0
LINE
8
BLACK
6
CONTINUOUS
10
188.94
20
-132.41
11
181.66
21
-132.41
0
LINE
8
BLACK
6
CONTINUOUS
10
169.658
20
-139.692
11
169.64
21
-139.65
0
LINE
8
BLACK
6
CONTINUOUS
10
169.64
20
-139.65
11
169.64
21
-132.35
0
LINE
8
BLACK
6
CONTINUOUS
10
169.64
20
-132.35
11
169.658
21
-132.308
0
LINE
8
BLACK
6
CONTINUOUS
10
169.658
20
-132.308
11
169.7
21
-132.29
0
LINE
8
BLACK
6
CONTINUOUS
10
169.7
20
-132.29
11
177.1
21
-132.29
0
LINE
8
BLACK
6
CONTINUOUS
10
177.1
20
-132.29
11
177.142
21
-132.308
0
LINE
8
BLACK
6
CONTINUOUS
10
177.142
20
-132.308
11
177.16
21
-132.35
0
LINE
8
BLACK
6
CONTINUOUS
10
177.16
20
-132.35
11
177.16
21
-139.65
0
LINE
8
BLACK
6
CONTINUOUS
10
177.16
20
-139.65
11
177.142
21
-139.692
0
LINE
8
BLACK
6
CONTINUOUS
10
177.142
20
-139.692
11
177.1
21
-139.71
0
LINE
8
BLACK
6
CONTINUOUS
10
177.1
20
-139.71
11
169.7
21
-139.71
0
LINE
8
BLACK
6
CONTINUOUS
10
169.7
20
-139.71
11
169.658
21
-139.692
0
LINE
8
BLACK
6
CONTINUOUS
10
169.76
20
-132.41
11
169.76
21
-139.59
0
LINE
8
BLACK
6
CONTINUOUS
10
169.76
20
-139.59
11
177.04
21
-139.59
0
LINE
8
BLACK
6
CONTINUOUS
10
177.04
20
-139.59
11
177.04
21
-132.41
0
LINE
8
BLACK
6
CONTINUOUS
10
177.04
20
-132.41
11
169.76
21
-132.41
0
LINE
8
BLACK
6
CONTINUOUS
10
157.758
20
-139.692
11
157.74
21
-139.65
0
LINE
8
BLACK
6
CONTINUOUS
10
157.74
20
-139.65
11
157.74
21
-132.35
0
LINE
8
BLACK
6
CONTINUOUS
10
157.74
20
-132.35
11
157.758
21
-132.308
0
LINE
8
BLACK
6
CONTINUOUS
10
157.758
20
-132.308
11
157.8
21
-132.29
0
LINE
8
BLACK
6
CONTINUOUS
10
157.8
20
-132.29
11
165.2
21
-132.29
0
LINE
8
BLACK
6
CONTINUOUS
10
165.2
20
-132.29
11
165.242
21
-132.308
0
LINE
8
BLACK
6
CONTINUOUS
10
165.242
20
-132.308
11
165.26
21
-132.35
0
LINE
8
BLACK
6
CONTINUOUS
10
165.26
20
-132.35
11
165.26
21
-139.65
0
LINE
8
BLACK
6
CONTINUOUS
10
165.26
20
-139.65
11
165.242
21
-139.692
0
LINE
8
BLACK
6
CONTINUOUS
10
165.242
20
-139.692
11
165.2
21
-139.71
0
LINE
8
BLACK
6
CONTINUOUS
10
165.2
20
-139.71
11
157.8
21
-139.71
0
LINE
8
BLACK
6
CONTINUOUS
10
157.8
20
-139.71
11
157.758
21
-139.692
0
LINE
8
BLACK
6
CONTINUOUS
10
157.86
20
-132.41
11
157.86
21
-139.59
0
LINE
8
BLACK
6
CONTINUOUS
10
157.86
20
-139.59
11
165.14
21
-139.59
0
LINE
8
BLACK
6
CONTINUOUS
10
165.14
20
-139.59
11
165.14
21
-132.41
0
LINE
8
BLACK
6
CONTINUOUS
10
165.14
20
-132.41
11
157.86
21
-132.41
0
LINE
8
BLACK
6
CONTINUOUS
10
145.858
20
-139.692
11
145.84
21
-139.65
0
LINE
8
BLACK
6
CONTINUOUS
10
145.84
20
-139.65
11
145.84
21
-132.35
0
LINE
8
BLACK
6
CONTINUOUS
10
145.84
20
-132.35
11
145.858
21
-132.308
0
LINE
8
BLACK
6
CONTINUOUS
10
145.858
20
-132.308
11
145.9
21
-132.29
0
LINE
8
BLACK
6
CONTINUOUS
10
145.9
20
-132.29
11
153.3
21
-132.29
0
LINE
8
BLACK
6
CONTINUOUS
10
153.3
20
-132.29
11
153.342
21
-132.308
0
LINE
8
BLACK
6
CONTINUOUS
10
153.342
20
-132.308
11
153.36
21
-132.35
0
LINE
8
BLACK
6
CONTINUOUS
10
153.36
20
-132.35
11
153.36
21
-139.65
0
LINE
8
BLACK
6
CONTINUOUS
10
153.36
20
-139.65
11
153.342
21
-139.692
0
LINE
8
BLACK
6
CONTINUOUS
10
153.342
20
-139.692
11
153.3
21
-139.71
0
LINE
8
BLACK
6
CONTINUOUS
10
153.3
20
-139.71
11
145.9
21
-139.71
0
LINE
8
BLACK
6
CONTINUOUS
10
145.9
20
-139.71
11
145.858
21
-139.692
0
LINE
8
BLACK
6
CONTINUOUS
10
145.96
20
-132.41
11
145.96
21
-139.59
0
LINE
8
BLACK
6
CONTINUOUS
10
145.96
20
-139.59
11
153.24
21
-139.59
0
LINE
8
BLACK
6
CONTINUOUS
10
153.24
20
-139.59
11
153.24
21
-132.41
0
LINE
8
BLACK
6
CONTINUOUS
10
153.24
20
-132.41
11
145.96
21
-132.41
0
LINE
8
BLACK
6
CONTINUOUS
10
133.958
20
-139.692
11
133.94
21
-139.65
0
LINE
8
BLACK
6
CONTINUOUS
10
133.94
20
-139.65
11
133.94
21
-132.35
0
LINE
8
BLACK
6
CONTINUOUS
10
133.94
20
-132.35
11
133.958
21
-132.308
0
LINE
8
BLACK
6
CONTINUOUS
10
133.958
20
-132.308
11
134
21
-132.29
0
LINE
8
BLACK
6
CONTINUOUS
10
134
20
-132.29
11
141.4
21
-132.29
0
LINE
8
BLACK
6
CONTINUOUS
10
141.4
20
-132.29
11
141.442
21
-132.308
0
LINE
8
BLACK
6
CONTINUOUS
10
141.442
20
-132.308
11
141.46
21
-132.35
0
LINE
8
BLACK
6
CONTINUOUS
10
141.46
20
-132.35
11
141.46
21
-139.65
0
LINE
8
BLACK
6
CONTINUOUS
10
141.46
20
-139.65
11
141.442
21
-139.692
0
LINE
8
BLACK
6
CONTINUOUS
10
141.442
20
-139.692
11
141.4
21
-139.71
0
LINE
8
BLACK
6
CONTINUOUS
10
141.4
20
-139.71
11
134
21
-139.71
0
LINE
8
BLACK
6
CONTINUOUS
10
134
20
-139.71
11
133.958
21
-139.692
0
LINE
8
BLACK
6
CONTINUOUS
10
134.06
20
-132.41
11
134.06
21
-139.59
0
LINE
8
BLACK
6
CONTINUOUS
10
134.06
20
-139.59
11
141.34
21
-139.59
0
LINE
8
BLACK
6
CONTINUOUS
10
141.34
20
-139.59
11
141.34
21
-132.41
0
LINE
8
BLACK
6
CONTINUOUS
10
141.34
20
-132.41
11
134.06
21
-132.41
0
LINE
8
BLACK
6
CONTINUOUS
10
122.058
20
-139.692
11
122.04
21
-139.65
0
LINE
8
BLACK
6
CONTINUOUS
10
122.04
20
-139.65
11
122.04
21
-132.35
0
LINE
8
BLACK
6
CONTINUOUS
10
122.04
20
-132.35
11
122.058
21
-132.308
0
LINE
8
BLACK
6
CONTINUOUS
10
122.058
20
-132.308
11
122.1
21
-132.29
0
LINE
8
BLACK
6
CONTINUOUS
10
122.1
20
-132.29
11
129.5
21
-132.29
0
LINE
8
BLACK
6
CONTINUOUS
10
129.5
20
-132.29
11
129.542
21
-132.308
0
LINE
8
BLACK
6
CONTINUOUS
10
129.542
20
-132.308
11
129.56
21
-132.35
0
LINE
8
BLACK
6
CONTINUOUS
10
129.56
20
-132.35
11
129.56
21
-139.65
0
LINE
8
BLACK
6
CONTINUOUS
10
129.56
20
-139.65
11
129.542
21
-139.692
0
LINE
8
BLACK
6
CONTINUOUS
10
129.542
20
-139.692
11
129.5
21
-139.71
0
LINE
8
BLACK
6
CONTINUOUS
10
129.5
20
-139.71
11
122.1
21
-139.71
0
LINE
8
BLACK
6
CONTINUOUS
10
122.1
20
-139.71
11
122.058
21
-139.692
0
LINE
8
BLACK
6
CONTINUOUS
10
122.16
20
-132.41
11
122.16
21
-139.59
0
LINE
8
BLACK
6
CONTINUOUS
10
122.16
20
-139.59
11
129.44
21
-139.59
0
LINE
8
BLACK
6
CONTINUOUS
10
129.44
20
-139.59
11
129.44
21
-132.41
0
LINE
8
BLACK
6
CONTINUOUS
10
129.44
20
-132.41
11
122.16
21
-132.41
0
LINE
8
BLACK
6
CONTINUOUS
10
110.158
20
-139.692
11
110.14
21
-139.65
0
LINE
8
BLACK
6
CONTINUOUS
10
110.14
20
-139.65
11
110.14
21
-132.35
0
LINE
8
BLACK
6
CONTINUOUS
10
110.14
20
-132.35
11
110.158
21
-132.308
0
LINE
8
BLACK
6
CONTINUOUS
10
110.158
20
-132.308
11
110.2
21
-132.29
0
LINE
8
BLACK
6
CONTINUOUS
10
110.2
20
-132.29
11
117.6
21
-132.29
0
LINE
8
BLACK
6
CONTINUOUS
10
117.6
20
-132.29
11
117.642
21
-132.308
0
LINE
8
BLACK
6
CONTINUOUS
10
117.642
20
-132.308
11
117.66
21
-132.35
0
LINE
8
BLACK
6
CONTINUOUS
10
117.66
20
-132.35
11
117.66
21
-139.65
0
LINE
8
BLACK
6
CONTINUOUS
10
117.66
20
-139.65
11
117.642
21
-139.692
0
LINE
8
BLACK
6
CONTINUOUS
10
117.642
20
-139.692
11
117.6
21
-139.71
0
LINE
8
BLACK
6
CONTINUOUS
10
117.6
20
-139.71
11
110.2
21
-139.71
0
LINE
8
BLACK
6
CONTINUOUS
10
110.2
20
-139.71
11
110.158
21
-139.692
0
LINE
8
BLACK
6
CONTINUOUS
10
110.26
20
-132.41
11
110.26
21
-139.59
0
LINE
8
BLACK
6
CONTINUOUS
10
110.26
20
-139.59
11
117.54
21
-139.59
0
LINE
8
BLACK
6
CONTINUOUS
10
117.54
20
-139.59
11
117.54
21
-132.41
0
LINE
8
BLACK
6
CONTINUOUS
10
117.54
20
-132.41
11
110.26
21
-132.41
0
LINE
8
BLACK
6
CONTINUOUS
10
98.2576
20
-139.692
11
98.24
21
-139.65
0
LINE
8
BLACK
6
CONTINUOUS
10
98.24
20
-139.65
11
98.24
21
-132.35
0
LINE
8
BLACK
6
CONTINUOUS
10
98.24
20
-132.35
11
98.2576
21
-132.308
0
LINE
8
BLACK
6
CONTINUOUS
10
98.2576
20
-132.308
11
98.3
21
-132.29
0
LINE
8
BLACK
6
CONTINUOUS
10
98.3
20
-132.29
11
105.7
21
-132.29
0
LINE
8
BLACK
6
CONTINUOUS
10
105.7
20
-132.29
11
105.742
21
-132.308
0
LINE
8
BLACK
6
CONTINUOUS
10
105.742
20
-132.308
11
105.76
21
-132.35
0
LINE
8
BLACK
6
CONTINUOUS
10
105.76
20
-132.35
11
105.76
21
-139.65
0
LINE
8
BLACK
6
CONTINUOUS
10
105.76
20
-139.65
11
105.742
21
-139.692
0
LINE
8
BLACK
6
CONTINUOUS
10
105.742
20
-139.692
11
105.7
21
-139.71
0
LINE
8
BLACK
6
CONTINUOUS
10
105.7
20
-139.71
11
98.3
21
-139.71
0
LINE
8
BLACK
6
CONTINUOUS
10
98.3
20
-139.71
11
98.2576
21
-139.692
0
LINE
8
BLACK
6
CONTINUOUS
10
98.36
20
-132.41
11
98.36
21
-139.59
0
LINE
8
BLACK
6
CONTINUOUS
10
98.36
20
-139.59
11
105.64
21
-139.59
0
LINE
8
BLACK
6
CONTINUOUS
10
105.64
20
-139.59
11
105.64
21
-132.41
0
LINE
8
BLACK
6
CONTINUOUS
10
105.64
20
-132.41
11
98.36
21
-132.41
0
LINE
8
BLACK
6
CONTINUOUS
10
86.3576
20
-139.692
11
86.34
21
-139.65
0
LINE
8
BLACK
6
CONTINUOUS
10
86.34
20
-139.65
11
86.34
21
-132.35
0
LINE
8
BLACK
6
CONTINUOUS
10
86.34
20
-132.35
11
86.3576
21
-132.308
0
LINE
8
BLACK
6
CONTINUOUS
10
86.3576
20
-132.308
11
86.4
21
-132.29
0
LINE
8
BLACK
6
CONTINUOUS
10
86.4
20
-132.29
11
93.8
21
-132.29
0
LINE
8
BLACK
6
CONTINUOUS
10
93.8
20
-132.29
11
93.8424
21
-132.308
0
LINE
8
BLACK
6
CONTINUOUS
10
93.8424
20
-132.308
11
93.86
21
-132.35
0
LINE
8
BLACK
6
CONTINUOUS
10
93.86
20
-132.35
11
93.86
21
-139.65
0
LINE
8
BLACK
6
CONTINUOUS
10
93.86
20
-139.65
11
93.8424
21
-139.692
0
LINE
8
BLACK
6
CONTINUOUS
10
93.8424
20
-139.692
11
93.8
21
-139.71
0
LINE
8
BLACK
6
CONTINUOUS
10
93.8
20
-139.71
11
86.4
21
-139.71
0
LINE
8
BLACK
6
CONTINUOUS
10
86.4
20
-139.71
11
86.3576
21
-139.692
0
LINE
8
BLACK
6
CONTINUOUS
10
86.46
20
-132.41
11
86.46
21
-139.59
0
LINE
8
BLACK
6
CONTINUOUS
10
86.46
20
-139.59
11
93.74
21
-139.59
0
LINE
8
BLACK
6
CONTINUOUS
10
93.74
20
-139.59
11
93.74
21
-132.41
0
LINE
8
BLACK
6
CONTINUOUS
10
93.74
20
-132.41
11
86.46
21
-132.41
0
LINE
8
BLACK
6
CONTINUOUS
10
193.458
20
-131.692
11
193.44
21
-131.65
0
LINE
8
BLACK
6
CONTINUOUS
10
193.44
20
-131.65
11
193.44
21
-124.35
0
LINE
8
BLACK
6
CONTINUOUS
10
193.44
20
-124.35
11
193.458
21
-124.308
0
LINE
8
BLACK
6
CONTINUOUS
10
193.458
20
-124.308
11
193.5
21
-124.29
0
LINE
8
BLACK
6
CONTINUOUS
10
193.5
20
-124.29
11
200.9
21
-124.29
0
LINE
8
BLACK
6
CONTINUOUS
10
200.9
20
-124.29
11
200.942
21
-124.308
0
LINE
8
BLACK
6
CONTINUOUS
10
200.942
20
-124.308
11
200.96
21
-124.35
0
LINE
8
BLACK
6
CONTINUOUS
10
200.96
20
-124.35
11
200.96
21
-131.65
0
LINE
8
BLACK
6
CONTINUOUS
10
200.96
20
-131.65
11
200.942
21
-131.692
0
LINE
8
BLACK
6
CONTINUOUS
10
200.942
20
-131.692
11
200.9
21
-131.71
0
LINE
8
BLACK
6
CONTINUOUS
10
200.9
20
-131.71
11
193.5
21
-131.71
0
LINE
8
BLACK
6
CONTINUOUS
10
193.5
20
-131.71
11
193.458
21
-131.692
0
LINE
8
BLACK
6
CONTINUOUS
10
193.56
20
-124.41
11
193.56
21
-131.59
0
LINE
8
BLACK
6
CONTINUOUS
10
193.56
20
-131.59
11
200.84
21
-131.59
0
LINE
8
BLACK
6
CONTINUOUS
10
200.84
20
-131.59
11
200.84
21
-124.41
0
LINE
8
BLACK
6
CONTINUOUS
10
200.84
20
-124.41
11
193.56
21
-124.41
0
LINE
8
BLACK
6
CONTINUOUS
10
181.558
20
-131.692
11
181.54
21
-131.65
0
LINE
8
BLACK
6
CONTINUOUS
10
181.54
20
-131.65
11
181.54
21
-124.35
0
LINE
8
BLACK
6
CONTINUOUS
10
181.54
20
-124.35
11
181.558
21
-124.308
0
LINE
8
BLACK
6
CONTINUOUS
10
181.558
20
-124.308
11
181.6
21
-124.29
0
LINE
8
BLACK
6
CONTINUOUS
10
181.6
20
-124.29
11
189
21
-124.29
0
LINE
8
BLACK
6
CONTINUOUS
10
189
20
-124.29
11
189.042
21
-124.308
0
LINE
8
BLACK
6
CONTINUOUS
10
189.042
20
-124.308
11
189.06
21
-124.35
0
LINE
8
BLACK
6
CONTINUOUS
10
189.06
20
-124.35
11
189.06
21
-131.65
0
LINE
8
BLACK
6
CONTINUOUS
10
189.06
20
-131.65
11
189.042
21
-131.692
0
LINE
8
BLACK
6
CONTINUOUS
10
189.042
20
-131.692
11
189
21
-131.71
0
LINE
8
BLACK
6
CONTINUOUS
10
189
20
-131.71
11
181.6
21
-131.71
0
LINE
8
BLACK
6
CONTINUOUS
10
181.6
20
-131.71
11
181.558
21
-131.692
0
LINE
8
BLACK
6
CONTINUOUS
10
181.66
20
-124.41
11
181.66
21
-131.59
0
LINE
8
BLACK
6
CONTINUOUS
10
181.66
20
-131.59
11
188.94
21
-131.59
0
LINE
8
BLACK
6
CONTINUOUS
10
188.94
20
-131.59
11
188.94
21
-124.41
0
LINE
8
BLACK
6
CONTINUOUS
10
188.94
20
-124.41
11
181.66
21
-124.41
0
LINE
8
BLACK
6
CONTINUOUS
10
169.658
20
-131.692
11
169.64
21
-131.65
0
LINE
8
BLACK
6
CONTINUOUS
10
169.64
20
-131.65
11
169.64
21
-124.35
0
LINE
8
BLACK
6
CONTINUOUS
10
169.64
20
-124.35
11
169.658
21
-124.308
0
LINE
8
BLACK
6
CONTINUOUS
10
169.658
20
-124.308
11
169.7
21
-124.29
0
LINE
8
BLACK
6
CONTINUOUS
10
169.7
20
-124.29
11
177.1
21
-124.29
0
LINE
8
BLACK
6
CONTINUOUS
10
177.1
20
-124.29
11
177.142
21
-124.308
0
LINE
8
BLACK
6
CONTINUOUS
10
177.142
20
-124.308
11
177.16
21
-124.35
0
LINE
8
BLACK
6
CONTINUOUS
10
177.16
20
-124.35
11
177.16
21
-131.65
0
LINE
8
BLACK
6
CONTINUOUS
10
177.16
20
-131.65
11
177.142
21
-131.692
0
LINE
8
BLACK
6
CONTINUOUS
10
177.142
20
-131.692
11
177.1
21
-131.71
0
LINE
8
BLACK
6
CONTINUOUS
10
177.1
20
-131.71
11
169.7
21
-131.71
0
LINE
8
BLACK
6
CONTINUOUS
10
169.7
20
-131.71
11
169.658
21
-131.692
0
LINE
8
BLACK
6
CONTINUOUS
10
169.76
20
-124.41
11
169.76
21
-131.59
0
LINE
8
BLACK
6
CONTINUOUS
10
169.76
20
-131.59
11
177.04
21
-131.59
0
LINE
8
BLACK
6
CONTINUOUS
10
177.04
20
-131.59
11
177.04
21
-124.41
0
LINE
8
BLACK
6
CONTINUOUS
10
177.04
20
-124.41
11
169.76
21
-124.41
0
LINE
8
BLACK
6
CONTINUOUS
10
157.758
20
-131.692
11
157.74
21
-131.65
0
LINE
8
BLACK
6
CONTINUOUS
10
157.74
20
-131.65
11
157.74
21
-124.35
0
LINE
8
BLACK
6
CONTINUOUS
10
157.74
20
-124.35
11
157.758
21
-124.308
0
LINE
8
BLACK
6
CONTINUOUS
10
157.758
20
-124.308
11
157.8
21
-124.29
0
LINE
8
BLACK
6
CONTINUOUS
10
157.8
20
-124.29
11
165.2
21
-124.29
0
LINE
8
BLACK
6
CONTINUOUS
10
165.2
20
-124.29
11
165.242
21
-124.308
0
LINE
8
BLACK
6
CONTINUOUS
10
165.242
20
-124.308
11
165.26
21
-124.35
0
LINE
8
BLACK
6
CONTINUOUS
10
165.26
20
-124.35
11
165.26
21
-131.65
0
LINE
8
BLACK
6
CONTINUOUS
10
165.26
20
-131.65
11
165.242
21
-131.692
0
LINE
8
BLACK
6
CONTINUOUS
10
165.242
20
-131.692
11
165.2
21
-131.71
0
LINE
8
BLACK
6
CONTINUOUS
10
165.2
20
-131.71
11
157.8
21
-131.71
0
LINE
8
BLACK
6
CONTINUOUS
10
157.8
20
-131.71
11
157.758
21
-131.692
0
LINE
8
BLACK
6
CONTINUOUS
10
157.86
20
-124.41
11
157.86
21
-131.59
0
LINE
8
BLACK
6
CONTINUOUS
10
157.86
20
-131.59
11
165.14
21
-131.59
0
LINE
8
BLACK
6
CONTINUOUS
10
165.14
20
-131.59
11
165.14
21
-124.41
0
LINE
8
BLACK
6
CONTINUOUS
10
165.14
20
-124.41
11
157.86
21
-124.41
0
LINE
8
BLACK
6
CONTINUOUS
10
145.858
20
-131.692
11
145.84
21
-131.65
0
LINE
8
BLACK
6
CONTINUOUS
10
145.84
20
-131.65
11
145.84
21
-124.35
0
LINE
8
BLACK
6
CONTINUOUS
10
145.84
20
-124.35
11
145.858
21
-124.308
0
LINE
8
BLACK
6
CONTINUOUS
10
145.858
20
-124.308
11
145.9
21
-124.29
0
LINE
8
BLACK
6
CONTINUOUS
10
145.9
20
-124.29
11
153.3
21
-124.29
0
LINE
8
BLACK
6
CONTINUOUS
10
153.3
20
-124.29
11
153.342
21
-124.308
0
LINE
8
BLACK
6
CONTINUOUS
10
153.342
20
-124.308
11
153.36
21
-124.35
0
LINE
8
BLACK
6
CONTINUOUS
10
153.36
20
-124.35
11
153.36
21
-131.65
0
LINE
8
BLACK
6
CONTINUOUS
10
153.36
20
-131.65
11
153.342
21
-131.692
0
LINE
8
BLACK
6
CONTINUOUS
10
153.342
20
-131.692
11
153.3
21
-131.71
0
LINE
8
BLACK
6
CONTINUOUS
10
153.3
20
-131.71
11
145.9
21
-131.71
0
LINE
8
BLACK
6
CONTINUOUS
10
145.9
20
-131.71
11
145.858
21
-131.692
0
LINE
8
BLACK
6
CONTINUOUS
10
145.96
20
-124.41
11
145.96
21
-131.59
0
LINE
8
BLACK
6
CONTINUOUS
10
145.96
20
-131.59
11
153.24
21
-131.59
0
LINE
8
BLACK
6
CONTINUOUS
10
153.24
20
-131.59
11
153.24
21
-124.41
0
LINE
8
BLACK
6
CONTINUOUS
10
153.24
20
-124.41
11
145.96
21
-124.41
0
LINE
8
BLACK
6
CONTINUOUS
10
133.958
20
-131.692
11
133.94
21
-131.65
0
LINE
8
BLACK
6
CONTINUOUS
10
133.94
20
-131.65
11
133.94
21
-124.35
0
LINE
8
BLACK
6
CONTINUOUS
10
133.94
20
-124.35
11
133.958
21
-124.308
0
LINE
8
BLACK
6
CONTINUOUS
10
133.958
20
-124.308
11
134
21
-124.29
0
LINE
8
BLACK
6
CONTINUOUS
10
134
20
-124.29
11
141.4
21
-124.29
0
LINE
8
BLACK
6
CONTINUOUS
10
141.4
20
-124.29
11
141.442
21
-124.308
0
LINE
8
BLACK
6
CONTINUOUS
10
141.442
20
-124.308
11
141.46
21
-124.35
0
LINE
8
BLACK
6
CONTINUOUS
10
141.46
20
-124.35
11
141.46
21
-131.65
0
LINE
8
BLACK
6
CONTINUOUS
10
141.46
20
-131.65
11
141.442
21
-131.692
0
LINE
8
BLACK
6
CONTINUOUS
10
141.442
20
-131.692
11
141.4
21
-131.71
0
LINE
8
BLACK
6
CONTINUOUS
10
141.4
20
-131.71
11
134
21
-131.71
0
LINE
8
BLACK
6
CONTINUOUS
10
134
20
-131.71
11
133.958
21
-131.692
0
LINE
8
BLACK
6
CONTINUOUS
10
134.06
20
-124.41
11
134.06
21
-131.59
0
LINE
8
BLACK
6
CONTINUOUS
10
134.06
20
-131.59
11
141.34
21
-131.59
0
LINE
8
BLACK
6
CONTINUOUS
10
141.34
20
-131.59
11
141.34
21
-124.41
0
LINE
8
BLACK
6
CONTINUOUS
10
141.34
20
-124.41
11
134.06
21
-124.41
0
LINE
8
BLACK
6
CONTINUOUS
10
122.058
20
-131.692
11
122.04
21
-131.65
0
LINE
8
BLACK
6
CONTINUOUS
10
122.04
20
-131.65
11
122.04
21
-124.35
0
LINE
8
BLACK
6
CONTINUOUS
10
122.04
20
-124.35
11
122.058
21
-124.308
0
LINE
8
BLACK
6
CONTINUOUS
10
122.058
20
-124.308
11
122.1
21
-124.29
0
LINE
8
BLACK
6
CONTINUOUS
10
122.1
20
-124.29
11
129.5
21
-124.29
0
LINE
8
BLACK
6
CONTINUOUS
10
129.5
20
-124.29
11
129.542
21
-124.308
0
LINE
8
BLACK
6
CONTINUOUS
10
129.542
20
-124.308
11
129.56
21
-124.35
0
LINE
8
BLACK
6
CONTINUOUS
10
129.56
20
-124.35
11
129.56
21
-131.65
0
LINE
8
BLACK
6
CONTINUOUS
10
129.56
20
-131.65
11
129.542
21
-131.692
0
LINE
8
BLACK
6
CONTINUOUS
10
129.542
20
-131.692
11
129.5
21
-131.71
0
LINE
8
BLACK
6
CONTINUOUS
10
129.5
20
-131.71
11
122.1
21
-131.71
0
LINE
8
BLACK
6
CONTINUOUS
10
122.1
20
-131.71
11
122.058
21
-131.692
0
LINE
8
BLACK
6
CONTINUOUS
10
122.16
20
-124.41
11
122.16
21
-131.59
0
LINE
8
BLACK
6
CONTINUOUS
10
122.16
20
-131.59
11
129.44
21
-131.59
0
LINE
8
BLACK
6
CONTINUOUS
10
129.44
20
-131.59
11
129.44
21
-124.41
0
LINE
8
BLACK
6
CONTINUOUS
10
129.44
20
-124.41
11
122.16
21
-124.41
0
LINE
8
BLACK
6
CONTINUOUS
10
110.158
20
-131.692
11
110.14
21
-131.65
0
LINE
8
BLACK
6
CONTINUOUS
10
110.14
20
-131.65
11
110.14
21
-124.35
0
LINE
8
BLACK
6
CONTINUOUS
10
110.14
20
-124.35
11
110.158
21
-124.308
0
LINE
8
BLACK
6
CONTINUOUS
10
110.158
20
-124.308
11
110.2
21
-124.29
0
LINE
8
BLACK
6
CONTINUOUS
10
110.2
20
-124.29
11
117.6
21
-124.29
0
LINE
8
BLACK
6
CONTINUOUS
10
117.6
20
-124.29
11
117.642
21
-124.308
0
LINE
8
BLACK
6
CONTINUOUS
10
117.642
20
-124.308
11
117.66
21
-124.35
0
LINE
8
BLACK
6
CONTINUOUS
10
117.66
20
-124.35
11
117.66
21
-131.65
0
LINE
8
BLACK
6
CONTINUOUS
10
117.66
20
-131.65
11
117.642
21
-131.692
0
LINE
8
BLACK
6
CONTINUOUS
10
117.642
20
-131.692
11
117.6
21
-131.71
0
LINE
8
BLACK
6
CONTINUOUS
10
117.6
20
-131.71
11
110.2
21
-131.71
0
LINE
8
BLACK
6
CONTINUOUS
10
110.2
20
-131.71
11
110.158
21
-131.692
0
LINE
8
BLACK
6
CONTINUOUS
10
110.26
20
-124.41
11
110.26
21
-131.59
0
LINE
8
BLACK
6
CONTINUOUS
10
110.26
20
-131.59
11
117.54
21
-131.59
0
LINE
8
BLACK
6
CONTINUOUS
10
117.54
20
-131.59
11
117.54
21
-124.41
0
LINE
8
BLACK
6
CONTINUOUS
10
117.54
20
-124.41
11
110.26
21
-124.41
0
LINE
8
BLACK
6
CONTINUOUS
10
98.2576
20
-131.692
11
98.24
21
-131.65
0
LINE
8
BLACK
6
CONTINUOUS
10
98.24
20
-131.65
11
98.24
21
-124.35
0
LINE
8
BLACK
6
CONTINUOUS
10
98.24
20
-124.35
11
98.2576
21
-124.308
0
LINE
8
BLACK
6
CONTINUOUS
10
98.2576
20
-124.308
11
98.3
21
-124.29
0
LINE
8
BLACK
6
CONTINUOUS
10
98.3
20
-124.29
11
105.7
21
-124.29
0
LINE
8
BLACK
6
CONTINUOUS
10
105.7
20
-124.29
11
105.742
21
-124.308
0
LINE
8
BLACK
6
CONTINUOUS
10
105.742
20
-124.308
11
105.76
21
-124.35
0
LINE
8
BLACK
6
CONTINUOUS
10
105.76
20
-124.35
11
105.76
21
-131.65
0
LINE
8
BLACK
6
CONTINUOUS
10
105.76
20
-131.65
11
105.742
21
-131.692
0
LINE
8
BLACK
6
CONTINUOUS
10
105.742
20
-131.692
11
105.7
21
-131.71
0
LINE
8
BLACK
6
CONTINUOUS
10
105.7
20
-131.71
11
98.3
21
-131.71
0
LINE
8
BLACK
6
CONTINUOUS
10
98.3
20
-131.71
11
98.2576
21
-131.692
0
LINE
8
BLACK
6
CONTINUOUS
10
98.36
20
-124.41
11
98.36
21
-131.59
0
LINE
8
BLACK
6
CONTINUOUS
10
98.36
20
-131.59
11
105.64
21
-131.59
0
LINE
8
BLACK
6
CONTINUOUS
10
105.64
20
-131.59
11
105.64
21
-124.41
0
LINE
8
BLACK
6
CONTINUOUS
10
105.64
20
-124.41
11
98.36
21
-124.41
0
LINE
8
BLACK
6
CONTINUOUS
10
86.3576
20
-131.692
11
86.34
21
-131.65
0
LINE
8
BLACK
6
CONTINUOUS
10
86.34
20
-131.65
11
86.34
21
-124.35
0
LINE
8
BLACK
6
CONTINUOUS
10
86.34
20
-124.35
11
86.3576
21
-124.308
0
LINE
8
BLACK
6
CONTINUOUS
10
86.3576
20
-124.308
11
86.4
21
-124.29
0
LINE
8
BLACK
6
CONTINUOUS
10
86.4
20
-124.29
11
93.8
21
-124.29
0
LINE
8
BLACK
6
CONTINUOUS
10
93.8
20
-124.29
11
93.8424
21
-124.308
0
LINE
8
BLACK
6
CONTINUOUS
10
93.8424
20
-124.308
11
93.86
21
-124.35
0
LINE
8
BLACK
6
CONTINUOUS
10
93.86
20
-124.35
11
93.86
21
-131.65
0
LINE
8
BLACK
6
CONTINUOUS
10
93.86
20
-131.65
11
93.8424
21
-131.692
0
LINE
8
BLACK
6
CONTINUOUS
10
93.8424
20
-131.692
11
93.8
21
-131.71
0
LINE
8
BLACK
6
CONTINUOUS
10
93.8
20
-131.71
11
86.4
21
-131.71
0
LINE
8
BLACK
6
CONTINUOUS
10
86.4
20
-131.71
11
86.3576
21
-131.692
0
LINE
8
BLACK
6
CONTINUOUS
10
86.46
20
-124.41
11
86.46
21
-131.59
0
LINE
8
BLACK
6
CONTINUOUS
10
86.46
20
-131.59
11
93.74
21
-131.59
0
LINE
8
BLACK
6
CONTINUOUS
10
93.74
20
-131.59
11
93.74
21
-124.41
0
LINE
8
BLACK
6
CONTINUOUS
10
93.74
20
-124.41
11
86.46
21
-124.41
0
LINE
8
BLACK
6
CONTINUOUS
10
193.458
20
-123.692
11
193.44
21
-123.65
0
LINE
8
BLACK
6
CONTINUOUS
10
193.44
20
-123.65
11
193.44
21
-116.35
0
LINE
8
BLACK
6
CONTINUOUS
10
193.44
20
-116.35
11
193.458
21
-116.308
0
LINE
8
BLACK
6
CONTINUOUS
10
193.458
20
-116.308
11
193.5
21
-116.29
0
LINE
8
BLACK
6
CONTINUOUS
10
193.5
20
-116.29
11
200.9
21
-116.29
0
LINE
8
BLACK
6
CONTINUOUS
10
200.9
20
-116.29
11
200.942
21
-116.308
0
LINE
8
BLACK
6
CONTINUOUS
10
200.942
20
-116.308
11
200.96
21
-116.35
0
LINE
8
BLACK
6
CONTINUOUS
10
200.96
20
-116.35
11
200.96
21
-123.65
0
LINE
8
BLACK
6
CONTINUOUS
10
200.96
20
-123.65
11
200.942
21
-123.692
0
LINE
8
BLACK
6
CONTINUOUS
10
200.942
20
-123.692
11
200.9
21
-123.71
0
LINE
8
BLACK
6
CONTINUOUS
10
200.9
20
-123.71
11
193.5
21
-123.71
0
LINE
8
BLACK
6
CONTINUOUS
10
193.5
20
-123.71
11
193.458
21
-123.692
0
LINE
8
BLACK
6
CONTINUOUS
10
193.56
20
-116.41
11
193.56
21
-123.59
0
LINE
8
BLACK
6
CONTINUOUS
10
193.56
20
-123.59
11
200.84
21
-123.59
0
LINE
8
BLACK
6
CONTINUOUS
10
200.84
20
-123.59
11
200.84
21
-116.41
0
LINE
8
BLACK
6
CONTINUOUS
10
200.84
20
-116.41
11
193.56
21
-116.41
0
LINE
8
BLACK
6
CONTINUOUS
10
181.558
20
-123.692
11
181.54
21
-123.65
0
LINE
8
BLACK
6
CONTINUOUS
10
181.54
20
-123.65
11
181.54
21
-116.35
0
LINE
8
BLACK
6
CONTINUOUS
10
181.54
20
-116.35
11
181.558
21
-116.308
0
LINE
8
BLACK
6
CONTINUOUS
10
181.558
20
-116.308
11
181.6
21
-116.29
0
LINE
8
BLACK
6
CONTINUOUS
10
181.6
20
-116.29
11
189
21
-116.29
0
LINE
8
BLACK
6
CONTINUOUS
10
189
20
-116.29
11
189.042
21
-116.308
0
LINE
8
BLACK
6
CONTINUOUS
10
189.042
20
-116.308
11
189.06
21
-116.35
0
LINE
8
BLACK
6
CONTINUOUS
10
189.06
20
-116.35
11
189.06
21
-123.65
0
LINE
8
BLACK
6
CONTINUOUS
10
189.06
20
-123.65
11
189.042
21
-123.692
0
LINE
8
BLACK
6
CONTINUOUS
10
189.042
20
-123.692
11
189
21
-123.71
0
LINE
8
BLACK
6
CONTINUOUS
10
189
20
-123.71
11
181.6
21
-123.71
0
LINE
8
BLACK
6
CONTINUOUS
10
181.6
20
-123.71
11
181.558
21
-123.692
0
LINE
8
BLACK
6
CONTINUOUS
10
181.66
20
-116.41
11
181.66
21
-123.59
0
LINE
8
BLACK
6
CONTINUOUS
10
181.66
20
-123.59
11
188.94
21
-123.59
0
LINE
8
BLACK
6
CONTINUOUS
10
188.94
20
-123.59
11
188.94
21
-116.41
0
LINE
8
BLACK
6
CONTINUOUS
10
188.94
20
-116.41
11
181.66
21
-116.41
0
LINE
8
BLACK
6
CONTINUOUS
10
169.658
20
-123.692
11
169.64
21
-123.65
0
LINE
8
BLACK
6
CONTINUOUS
10
169.64
20
-123.65
11
169.64
21
-116.35
0
LINE
8
BLACK
6
CONTINUOUS
10
169.64
20
-116.35
11
169.658
21
-116.308
0
LINE
8
BLACK
6
CONTINUOUS
10
169.658
20
-116.308
11
169.7
21
-116.29
0
LINE
8
BLACK
6
CONTINUOUS
10
169.7
20
-116.29
11
177.1
21
-116.29
0
LINE
8
BLACK
6
CONTINUOUS
10
177.1
20
-116.29
11
177.142
21
-116.308
0
LINE
8
BLACK
6
CONTINUOUS
10
177.142
20
-116.308
11
177.16
21
-116.35
0
LINE
8
BLACK
6
CONTINUOUS
10
177.16
20
-116.35
11
177.16
21
-123.65
0
LINE
8
BLACK
6
CONTINUOUS
10
177.16
20
-123.65
11
177.142
21
-123.692
0
LINE
8
BLACK
6
CONTINUOUS
10
177.142
20
-123.692
11
177.1
21
-123.71
0
LINE
8
BLACK
6
CONTINUOUS
10
177.1
20
-123.71
11
169.7
21
-123.71
0
LINE
8
BLACK
6
CONTINUOUS
10
169.7
20
-123.71
11
169.658
21
-123.692
0
LINE
8
BLACK
6
CONTINUOUS
10
169.76
20
-116.41
11
169.76
21
-123.59
0
LINE
8
BLACK
6
CONTINUOUS
10
169.76
20
-123.59
11
177.04
21
-123.59
0
LINE
8
BLACK
6
CONTINUOUS
10
177.04
20
-123.59
11
177.04
21
-116.41
0
LINE
8
BLACK
6
CONTINUOUS
10
177.04
20
-116.41
11
169.76
21
-116.41
0
LINE
8
BLACK
6
CONTINUOUS
10
157.758
20
-123.692
11
157.74
21
-123.65
0
LINE
8
BLACK
6
CONTINUOUS
10
157.74
20
-123.65
11
157.74
21
-116.35
0
LINE
8
BLACK
6
CONTINUOUS
10
157.74
20
-116.35
11
157.758
21
-116.308
0
LINE
8
BLACK
6
CONTINUOUS
10
157.758
20
-116.308
11
157.8
21
-116.29
0
LINE
8
BLACK
6
CONTINUOUS
10
157.8
20
-116.29
11
165.2
21
-116.29
0
LINE
8
BLACK
6
CONTINUOUS
10
165.2
20
-116.29
11
165.242
21
-116.308
0
LINE
8
BLACK
6
CONTINUOUS
10
165.242
20
-116.308
11
165.26
21
-116.35
0
LINE
8
BLACK
6
CONTINUOUS
10
165.26
20
-116.35
11
165.26
21
-123.65
0
LINE
8
BLACK
6
CONTINUOUS
10
165.26
20
-123.65
11
165.242
21
-123.692
0
LINE
8
BLACK
6
CONTINUOUS
10
165.242
20
-123.692
11
165.2
21
-123.71
0
LINE
8
BLACK
6
CONTINUOUS
10
165.2
20
-123.71
11
157.8
21
-123.71
0
LINE
8
BLACK
6
CONTINUOUS
10
157.8
20
-123.71
11
157.758
21
-123.692
0
LINE
8
BLACK
6
CONTINUOUS
10
157.86
20
-116.41
11
157.86
21
-123.59
0
LINE
8
BLACK
6
CONTINUOUS
10
157.86
20
-123.59
11
165.14
21
-123.59
0
LINE
8
BLACK
6
CONTINUOUS
10
165.14
20
-123.59
11
165.14
21
-116.41
0
LINE
8
BLACK
6
CONTINUOUS
10
165.14
20
-116.41
11
157.86
21
-116.41
0
LINE
8
BLACK
6
CONTINUOUS
10
145.858
20
-123.692
11
145.84
21
-123.65
0
LINE
8
BLACK
6
CONTINUOUS
10
145.84
20
-123.65
11
145.84
21
-116.35
0
LINE
8
BLACK
6
CONTINUOUS
10
145.84
20
-116.35
11
145.858
21
-116.308
0
LINE
8
BLACK
6
CONTINUOUS
10
145.858
20
-116.308
11
145.9
21
-116.29
0
LINE
8
BLACK
6
CONTINUOUS
10
145.9
20
-116.29
11
153.3
21
-116.29
0
LINE
8
BLACK
6
CONTINUOUS
10
153.3
20
-116.29
11
153.342
21
-116.308
0
LINE
8
BLACK
6
CONTINUOUS
10
153.342
20
-116.308
11
153.36
21
-116.35
0
LINE
8
BLACK
6
CONTINUOUS
10
153.36
20
-116.35
11
153.36
21
-123.65
0
LINE
8
BLACK
6
CONTINUOUS
10
153.36
20
-123.65
11
153.342
21
-123.692
0
LINE
8
BLACK
6
CONTINUOUS
10
153.342
20
-123.692
11
153.3
21
-123.71
0
LINE
8
BLACK
6
CONTINUOUS
10
153.3
20
-123.71
11
145.9
21
-123.71
0
LINE
8
BLACK
6
CONTINUOUS
10
145.9
20
-123.71
11
145.858
21
-123.692
0
LINE
8
BLACK
6
CONTINUOUS
10
145.96
20
-116.41
11
145.96
21
-123.59
0
LINE
8
BLACK
6
CONTINUOUS
10
145.96
20
-123.59
11
153.24
21
-123.59
0
LINE
8
BLACK
6
CONTINUOUS
10
153.24
20
-123.59
11
153.24
21
-116.41
0
LINE
8
BLACK
6
CONTINUOUS
10
153.24
20
-116.41
11
145.96
21
-116.41
0
LINE
8
BLACK
6
CONTINUOUS
10
133.958
20
-123.692
11
133.94
21
-123.65
0
LINE
8
BLACK
6
CONTINUOUS
10
133.94
20
-123.65
11
133.94
21
-116.35
0
LINE
8
BLACK
6
CONTINUOUS
10
133.94
20
-116.35
11
133.958
21
-116.308
0
LINE
8
BLACK
6
CONTINUOUS
10
133.958
20
-116.308
11
134
21
-116.29
0
LINE
8
BLACK
6
CONTINUOUS
10
134
20
-116.29
11
141.4
21
-116.29
0
LINE
8
BLACK
6
CONTINUOUS
10
141.4
20
-116.29
11
141.442
21
-116.308
0
LINE
8
BLACK
6
CONTINUOUS
10
141.442
20
-116.308
11
141.46
21
-116.35
0
LINE
8
BLACK
6
CONTINUOUS
10
141.46
20
-116.35
11
141.46
21
-123.65
0
LINE
8
BLACK
6
CONTINUOUS
10
141.46
20
-123.65
11
141.442
21
-123.692
0
LINE
8
BLACK
6
CONTINUOUS
10
141.442
20
-123.692
11
141.4
21
-123.71
0
LINE
8
BLACK
6
CONTINUOUS
10
141.4
20
-123.71
11
134
21
-123.71
0
LINE
8
BLACK
6
CONTINUOUS
10
134
20
-123.71
11
133.958
21
-123.692
0
LINE
8
BLACK
6
CONTINUOUS
10
134.06
20
-116.41
11
134.06
21
-123.59
0
LINE
8
BLACK
6
CONTINUOUS
10
134.06
20
-123.59
11
141.34
21
-123.59
0
LINE
8
BLACK
6
CONTINUOUS
10
141.34
20
-123.59
11
141.34
21
-116.41
0
LINE
8
BLACK
6
CONTINUOUS
10
141.34
20
-116.41
11
134.06
21
-116.41
0
LINE
8
BLACK
6
CONTINUOUS
10
122.058
20
-123.692
11
122.04
21
-123.65
0
LINE
8
BLACK
6
CONTINUOUS
10
122.04
20
-123.65
11
122.04
21
-116.35
0
LINE
8
BLACK
6
CONTINUOUS
10
122.04
20
-116.35
11
122.058
21
-116.308
0
LINE
8
BLACK
6
CONTINUOUS
10
122.058
20
-116.308
11
122.1
21
-116.29
0
LINE
8
BLACK
6
CONTINUOUS
10
122.1
20
-116.29
11
129.5
21
-116.29
0
LINE
8
BLACK
6
CONTINUOUS
10
129.5
20
-116.29
11
129.542
21
-116.308
0
LINE
8
BLACK
6
CONTINUOUS
10
129.542
20
-116.308
11
129.56
21
-116.35
0
LINE
8
BLACK
6
CONTINUOUS
10
129.56
20
-116.35
11
129.56
21
-123.65
0
LINE
8
BLACK
6
CONTINUOUS
10
129.56
20
-123.65
11
129.542
21
-123.692
0
LINE
8
BLACK
6
CONTINUOUS
10
129.542
20
-123.692
11
129.5
21
-123.71
0
LINE
8
BLACK
6
CONTINUOUS
10
129.5
20
-123.71
11
122.1
21
-123.71
0
LINE
8
BLACK
6
CONTINUOUS
10
122.1
20
-123.71
11
122.058
21
-123.692
0
LINE
8
BLACK
6
CONTINUOUS
10
122.16
20
-116.41
11
122.16
21
-123.59
0
LINE
8
BLACK
6
CONTINUOUS
10
122.16
20
-123.59
11
129.44
21
-123.59
0
LINE
8
BLACK
6
CONTINUOUS
10
129.44
20
-123.59
11
129.44
21
-116.41
0
LINE
8
BLACK
6
CONTINUOUS
10
129.44
20
-116.41
11
122.16
21
-116.41
0
LINE
8
BLACK
6
CONTINUOUS
10
110.158
20
-123.692
11
110.14
21
-123.65
0
LINE
8
BLACK
6
CONTINUOUS
10
110.14
20
-123.65
11
110.14
21
-116.35
0
LINE
8
BLACK
6
CONTINUOUS
10
110.14
20
-116.35
11
110.158
21
-116.308
0
LINE
8
BLACK
6
CONTINUOUS
10
110.158
20
-116.308
11
110.2
21
-116.29
0
LINE
8
BLACK
6
CONTINUOUS
10
110.2
20
-116.29
11
117.6
21
-116.29
0
LINE
8
BLACK
6
CONTINUOUS
10
117.6
20
-116.29
11
117.642
21
-116.308
0
LINE
8
BLACK
6
CONTINUOUS
10
117.642
20
-116.308
11
117.66
21
-116.35
0
LINE
8
BLACK
6
CONTINUOUS
10
117.66
20
-116.35
11
117.66
21
-123.65
0
LINE
8
BLACK
6
CONTINUOUS
10
117.66
20
-123.65
11
117.642
21
-123.692
0
LINE
8
BLACK
6
CONTINUOUS
10
117.642
20
-123.692
11
117.6
21
-123.71
0
LINE
8
BLACK
6
CONTINUOUS
10
117.6
20
-123.71
11
110.2
21
-123.71
0
LINE
8
BLACK
6
CONTINUOUS
10
110.2
20
-123.71
11
110.158
21
-123.692
0
LINE
8
BLACK
6
CONTINUOUS
10
110.26
20
-116.41
11
110.26
21
-123.59
0
LINE
8
BLACK
6
CONTINUOUS
10
110.26
20
-123.59
11
117.54
21
-123.59
0
LINE
8
BLACK
6
CONTINUOUS
10
117.54
20
-123.59
11
117.54
21
-116.41
0
LINE
8
BLACK
6
CONTINUOUS
10
117.54
20
-116.41
11
110.26
21
-116.41
0
LINE
8
BLACK
6
CONTINUOUS
10
98.2576
20
-123.692
11
98.24
21
-123.65
0
LINE
8
BLACK
6
CONTINUOUS
10
98.24
20
-123.65
11
98.24
21
-116.35
0
LINE
8
BLACK
6
CONTINUOUS
10
98.24
20
-116.35
11
98.2576
21
-116.308
0
LINE
8
BLACK
6
CONTINUOUS
10
98.2576
20
-116.308
11
98.3
21
-116.29
0
LINE
8
BLACK
6
CONTINUOUS
10
98.3
20
-116.29
11
105.7
21
-116.29
0
LINE
8
BLACK
6
CONTINUOUS
10
105.7
20
-116.29
11
105.742
21
-116.308
0
LINE
8
BLACK
6
CONTINUOUS
10
105.742
20
-116.308
11
105.76
21
-116.35
0
LINE
8
BLACK
6
CONTINUOUS
10
105.76
20
-116.35
11
105.76
21
-123.65
0
LINE
8
BLACK
6
CONTINUOUS
10
105.76
20
-123.65
11
105.742
21
-123.692
0
LINE
8
BLACK
6
CONTINUOUS
10
105.742
20
-123.692
11
105.7
21
-123.71
0
LINE
8
BLACK
6
CONTINUOUS
10
105.7
20
-123.71
11
98.3
21
-123.71
0
LINE
8
BLACK
6
CONTINUOUS
10
98.3
20
-123.71
11
98.2576
21
-123.692
0
LINE
8
BLACK
6
CONTINUOUS
10
98.36
20
-116.41
11
98.36
21
-123.59
0
LINE
8
BLACK
6
CONTINUOUS
10
98.36
20
-123.59
11
105.64
21
-123.59
0
LINE
8
BLACK
6
CONTINUOUS
10
105.64
20
-123.59
11
105.64
21
-116.41
0
LINE
8
BLACK
6
CONTINUOUS
10
105.64
20
-116.41
11
98.36
21
-116.41
0
LINE
8
BLACK
6
CONTINUOUS
10
86.3576
20
-123.692
11
86.34
21
-123.65
0
LINE
8
BLACK
6
CONTINUOUS
10
86.34
20
-123.65
11
86.34
21
-116.35
0
LINE
8
BLACK
6
CONTINUOUS
10
86.34
20
-116.35
11
86.3576
21
-116.308
0
LINE
8
BLACK
6
CONTINUOUS
10
86.3576
20
-116.308
11
86.4
21
-116.29
0
LINE
8
BLACK
6
CONTINUOUS
10
86.4
20
-116.29
11
93.8
21
-116.29
0
LINE
8
BLACK
6
CONTINUOUS
10
93.8
20
-116.29
11
93.8424
21
-116.308
0
LINE
8
BLACK
6
CONTINUOUS
10
93.8424
20
-116.308
11
93.86
21
-116.35
0
LINE
8
BLACK
6
CONTINUOUS
10
93.86
20
-116.35
11
93.86
21
-123.65
0
LINE
8
BLACK
6
CONTINUOUS
10
93.86
20
-123.65
11
93.8424
21
-123.692
0
LINE
8
BLACK
6
CONTINUOUS
10
93.8424
20
-123.692
11
93.8
21
-123.71
0
LINE
8
BLACK
6
CONTINUOUS
10
93.8
20
-123.71
11
86.4
21
-123.71
0
LINE
8
BLACK
6
CONTINUOUS
10
86.4
20
-123.71
11
86.3576
21
-123.692
0
LINE
8
BLACK
6
CONTINUOUS
10
86.46
20
-116.41
11
86.46
21
-123.59
0
LINE
8
BLACK
6
CONTINUOUS
10
86.46
20
-123.59
11
93.74
21
-123.59
0
LINE
8
BLACK
6
CONTINUOUS
10
93.74
20
-123.59
11
93.74
21
-116.41
0
LINE
8
BLACK
6
CONTINUOUS
10
93.74
20
-116.41
11
86.46
21
-116.41
0
LINE
8
BLACK
6
CONTINUOUS
10
193.458
20
-115.692
11
193.44
21
-115.65
0
LINE
8
BLACK
6
CONTINUOUS
10
193.44
20
-115.65
11
193.44
21
-108.35
0
LINE
8
BLACK
6
CONTINUOUS
10
193.44
20
-108.35
11
193.458
21
-108.308
0
LINE
8
BLACK
6
CONTINUOUS
10
193.458
20
-108.308
11
193.5
21
-108.29
0
LINE
8
BLACK
6
CONTINUOUS
10
193.5
20
-108.29
11
200.9
21
-108.29
0
LINE
8
BLACK
6
CONTINUOUS
10
200.9
20
-108.29
11
200.942
21
-108.308
0
LINE
8
BLACK
6
CONTINUOUS
10
200.942
20
-108.308
11
200.96
21
-108.35
0
LINE
8
BLACK
6
CONTINUOUS
10
200.96
20
-108.35
11
200.96
21
-115.65
0
LINE
8
BLACK
6
CONTINUOUS
10
200.96
20
-115.65
11
200.942
21
-115.692
0
LINE
8
BLACK
6
CONTINUOUS
10
200.942
20
-115.692
11
200.9
21
-115.71
0
LINE
8
BLACK
6
CONTINUOUS
10
200.9
20
-115.71
11
193.5
21
-115.71
0
LINE
8
BLACK
6
CONTINUOUS
10
193.5
20
-115.71
11
193.458
21
-115.692
0
LINE
8
BLACK
6
CONTINUOUS
10
193.56
20
-108.41
11
193.56
21
-115.59
0
LINE
8
BLACK
6
CONTINUOUS
10
193.56
20
-115.59
11
200.84
21
-115.59
0
LINE
8
BLACK
6
CONTINUOUS
10
200.84
20
-115.59
11
200.84
21
-108.41
0
LINE
8
BLACK
6
CONTINUOUS
10
200.84
20
-108.41
11
193.56
21
-108.41
0
LINE
8
BLACK
6
CONTINUOUS
10
181.558
20
-115.692
11
181.54
21
-115.65
0
LINE
8
BLACK
6
CONTINUOUS
10
181.54
20
-115.65
11
181.54
21
-108.35
0
LINE
8
BLACK
6
CONTINUOUS
10
181.54
20
-108.35
11
181.558
21
-108.308
0
LINE
8
BLACK
6
CONTINUOUS
10
181.558
20
-108.308
11
181.6
21
-108.29
0
LINE
8
BLACK
6
CONTINUOUS
10
181.6
20
-108.29
11
189
21
-108.29
0
LINE
8
BLACK
6
CONTINUOUS
10
189
20
-108.29
11
189.042
21
-108.308
0
LINE
8
BLACK
6
CONTINUOUS
10
189.042
20
-108.308
11
189.06
21
-108.35
0
LINE
8
BLACK
6
CONTINUOUS
10
189.06
20
-108.35
11
189.06
21
-115.65
0
LINE
8
BLACK
6
CONTINUOUS
10
189.06
20
-115.65
11
189.042
21
-115.692
0
LINE
8
BLACK
6
CONTINUOUS
10
189.042
20
-115.692
11
189
21
-115.71
0
LINE
8
BLACK
6
CONTINUOUS
10
189
20
-115.71
11
181.6
21
-115.71
0
LINE
8
BLACK
6
CONTINUOUS
10
181.6
20
-115.71
11
181.558
21
-115.692
0
LINE
8
BLACK
6
CONTINUOUS
10
181.66
20
-108.41
11
181.66
21
-115.59
0
LINE
8
BLACK
6
CONTINUOUS
10
181.66
20
-115.59
11
188.94
21
-115.59
0
LINE
8
BLACK
6
CONTINUOUS
10
188.94
20
-115.59
11
188.94
21
-108.41
0
LINE
8
BLACK
6
CONTINUOUS
10
188.94
20
-108.41
11
181.66
21
-108.41
0
LINE
8
BLACK
6
CONTINUOUS
10
169.658
20
-115.692
11
169.64
21
-115.65
0
LINE
8
BLACK
6
CONTINUOUS
10
169.64
20
-115.65
11
169.64
21
-108.35
0
LINE
8
BLACK
6
CONTINUOUS
10
169.64
20
-108.35
11
169.658
21
-108.308
0
LINE
8
BLACK
6
CONTINUOUS
10
169.658
20
-108.308
11
169.7
21
-108.29
0
LINE
8
BLACK
6
CONTINUOUS
10
169.7
20
-108.29
11
177.1
21
-108.29
0
LINE
8
BLACK
6
CONTINUOUS
10
177.1
20
-108.29
11
177.142
21
-108.308
0
LINE
8
BLACK
6
CONTINUOUS
10
177.142
20
-108.308
11
177.16
21
-108.35
0
LINE
8
BLACK
6
CONTINUOUS
10
177.16
20
-108.35
11
177.16
21
-115.65
0
LINE
8
BLACK
6
CONTINUOUS
10
177.16
20
-115.65
11
177.142
21
-115.692
0
LINE
8
BLACK
6
CONTINUOUS
10
177.142
20
-115.692
11
177.1
21
-115.71
0
LINE
8
BLACK
6
CONTINUOUS
10
177.1
20
-115.71
11
169.7
21
-115.71
0
LINE
8
BLACK
6
CONTINUOUS
10
169.7
20
-115.71
11
169.658
21
-115.692
0
LINE
8
BLACK
6
CONTINUOUS
10
169.76
20
-108.41
11
169.76
21
-115.59
0
LINE
8
BLACK
6
CONTINUOUS
10
169.76
20
-115.59
11
177.04
21
-115.59
0
LINE
8
BLACK
6
CONTINUOUS
10
177.04
20
-115.59
11
177.04
21
-108.41
0
LINE
8
BLACK
6
CONTINUOUS
10
177.04
20
-108.41
11
169.76
21
-108.41
0
LINE
8
BLACK
6
CONTINUOUS
10
157.758
20
-115.692
11
157.74
21
-115.65
0
LINE
8
BLACK
6
CONTINUOUS
10
157.74
20
-115.65
11
157.74
21
-108.35
0
LINE
8
BLACK
6
CONTINUOUS
10
157.74
20
-108.35
11
157.758
21
-108.308
0
LINE
8
BLACK
6
CONTINUOUS
10
157.758
20
-108.308
11
157.8
21
-108.29
0
LINE
8
BLACK
6
CONTINUOUS
10
157.8
20
-108.29
11
165.2
21
-108.29
0
LINE
8
BLACK
6
CONTINUOUS
10
165.2
20
-108.29
11
165.242
21
-108.308
0
LINE
8
BLACK
6
CONTINUOUS
10
165.242
20
-108.308
11
165.26
21
-108.35
0
LINE
8
BLACK
6
CONTINUOUS
10
165.26
20
-108.35
11
165.26
21
-115.65
0
LINE
8
BLACK
6
CONTINUOUS
10
165.26
20
-115.65
11
165.242
21
-115.692
0
LINE
8
BLACK
6
CONTINUOUS
10
165.242
20
-115.692
11
165.2
21
-115.71
0
LINE
8
BLACK
6
CONTINUOUS
10
165.2
20
-115.71
11
157.8
21
-115.71
0
LINE
8
BLACK
6
CONTINUOUS
10
157.8
20
-115.71
11
157.758
21
-115.692
0
LINE
8
BLACK
6
CONTINUOUS
10
157.86
20
-108.41
11
157.86
21
-115.59
0
LINE
8
BLACK
6
CONTINUOUS
10
157.86
20
-115.59
11
165.14
21
-115.59
0
LINE
8
BLACK
6
CONTINUOUS
10
165.14
20
-115.59
11
165.14
21
-108.41
0
LINE
8
BLACK
6
CONTINUOUS
10
165.14
20
-108.41
11
157.86
21
-108.41
0
LINE
8
BLACK
6
CONTINUOUS
10
145.858
20
-115.692
11
145.84
21
-115.65
0
LINE
8
BLACK
6
CONTINUOUS
10
145.84
20
-115.65
11
145.84
21
-108.35
0
LINE
8
BLACK
6
CONTINUOUS
10
145.84
20
-108.35
11
145.858
21
-108.308
0
LINE
8
BLACK
6
CONTINUOUS
10
145.858
20
-108.308
11
145.9
21
-108.29
0
LINE
8
BLACK
6
CONTINUOUS
10
145.9
20
-108.29
11
153.3
21
-108.29
0
LINE
8
BLACK
6
CONTINUOUS
10
153.3
20
-108.29
11
153.342
21
-108.308
0
LINE
8
BLACK
6
CONTINUOUS
10
153.342
20
-108.308
11
153.36
21
-108.35
0
LINE
8
BLACK
6
CONTINUOUS
10
153.36
20
-108.35
11
153.36
21
-115.65
0
LINE
8
BLACK
6
CONTINUOUS
10
153.36
20
-115.65
11
153.342
21
-115.692
0
LINE
8
BLACK
6
CONTINUOUS
10
153.342
20
-115.692
11
153.3
21
-115.71
0
LINE
8
BLACK
6
CONTINUOUS
10
153.3
20
-115.71
11
145.9
21
-115.71
0
LINE
8
BLACK
6
CONTINUOUS
10
145.9
20
-115.71
11
145.858
21
-115.692
0
LINE
8
BLACK
6
CONTINUOUS
10
145.96
20
-108.41
11
145.96
21
-115.59
0
LINE
8
BLACK
6
CONTINUOUS
10
145.96
20
-115.59
11
153.24
21
-115.59
0
LINE
8
BLACK
6
CONTINUOUS
10
153.24
20
-115.59
11
153.24
21
-108.41
0
LINE
8
BLACK
6
CONTINUOUS
10
153.24
20
-108.41
11
145.96
21
-108.41
0
LINE
8
BLACK
6
CONTINUOUS
10
133.958
20
-115.692
11
133.94
21
-115.65
0
LINE
8
BLACK
6
CONTINUOUS
10
133.94
20
-115.65
11
133.94
21
-108.35
0
LINE
8
BLACK
6
CONTINUOUS
10
133.94
20
-108.35
11
133.958
21
-108.308
0
LINE
8
BLACK
6
CONTINUOUS
10
133.958
20
-108.308
11
134
21
-108.29
0
LINE
8
BLACK
6
CONTINUOUS
10
134
20
-108.29
11
141.4
21
-108.29
0
LINE
8
BLACK
6
CONTINUOUS
10
141.4
20
-108.29
11
141.442
21
-108.308
0
LINE
8
BLACK
6
CONTINUOUS
10
141.442
20
-108.308
11
141.46
21
-108.35
0
LINE
8
BLACK
6
CONTINUOUS
10
141.46
20
-108.35
11
141.46
21
-115.65
0
LINE
8
BLACK
6
CONTINUOUS
10
141.46
20
-115.65
11
141.442
21
-115.692
0
LINE
8
BLACK
6
CONTINUOUS
10
141.442
20
-115.692
11
141.4
21
-115.71
0
LINE
8
BLACK
6
CONTINUOUS
10
141.4
20
-115.71
11
134
21
-115.71
0
LINE
8
BLACK
6
CONTINUOUS
10
134
20
-115.71
11
133.958
21
-115.692
0
LINE
8
BLACK
6
CONTINUOUS
10
134.06
20
-108.41
11
134.06
21
-115.59
0
LINE
8
BLACK
6
CONTINUOUS
10
134.06
20
-115.59
11
141.34
21
-115.59
0
LINE
8
BLACK
6
CONTINUOUS
10
141.34
20
-115.59
11
141.34
21
-108.41
0
LINE
8
BLACK
6
CONTINUOUS
10
141.34
20
-108.41
11
134.06
21
-108.41
0
LINE
8
BLACK
6
CONTINUOUS
10
122.058
20
-115.692
11
122.04
21
-115.65
0
LINE
8
BLACK
6
CONTINUOUS
10
122.04
20
-115.65
11
122.04
21
-108.35
0
LINE
8
BLACK
6
CONTINUOUS
10
122.04
20
-108.35
11
122.058
21
-108.308
0
LINE
8
BLACK
6
CONTINUOUS
10
122.058
20
-108.308
11
122.1
21
-108.29
0
LINE
8
BLACK
6
CONTINUOUS
10
122.1
20
-108.29
11
129.5
21
-108.29
0
LINE
8
BLACK
6
CONTINUOUS
10
129.5
20
-108.29
11
129.542
21
-108.308
0
LINE
8
BLACK
6
CONTINUOUS
10
129.542
20
-108.308
11
129.56
21
-108.35
0
LINE
8
BLACK
6
CONTINUOUS
10
129.56
20
-108.35
11
129.56
21
-115.65
0
LINE
8
BLACK
6
CONTINUOUS
10
129.56
20
-115.65
11
129.542
21
-115.692
0
LINE
8
BLACK
6
CONTINUOUS
10
129.542
20
-115.692
11
129.5
21
-115.71
0
LINE
8
BLACK
6
CONTINUOUS
10
129.5
20
-115.71
11
122.1
21
-115.71
0
LINE
8
BLACK
6
CONTINUOUS
10
122.1
20
-115.71
11
122.058
21
-115.692
0
LINE
8
BLACK
6
CONTINUOUS
10
122.16
20
-108.41
11
122.16
21
-115.59
0
LINE
8
BLACK
6
CONTINUOUS
10
122.16
20
-115.59
11
129.44
21
-115.59
0
LINE
8
BLACK
6
CONTINUOUS
10
129.44
20
-115.59
11
129.44
21
-108.41
0
LINE
8
BLACK
6
CONTINUOUS
10
129.44
20
-108.41
11
122.16
21
-108.41
0
LINE
8
BLACK
6
CONTINUOUS
10
110.158
20
-115.692
11
110.14
21
-115.65
0
LINE
8
BLACK
6
CONTINUOUS
10
110.14
20
-115.65
11
110.14
21
-108.35
0
LINE
8
BLACK
6
CONTINUOUS
10
110.14
20
-108.35
11
110.158
21
-108.308
0
LINE
8
BLACK
6
CONTINUOUS
10
110.158
20
-108.308
11
110.2
21
-108.29
0
LINE
8
BLACK
6
CONTINUOUS
10
110.2
20
-108.29
11
117.6
21
-108.29
0
LINE
8
BLACK
6
CONTINUOUS
10
117.6
20
-108.29
11
117.642
21
-108.308
0
LINE
8
BLACK
6
CONTINUOUS
10
117.642
20
-108.308
11
117.66
21
-108.35
0
LINE
8
BLACK
6
CONTINUOUS
10
117.66
20
-108.35
11
117.66
21
-115.65
0
LINE
8
BLACK
6
CONTINUOUS
10
117.66
20
-115.65
11
117.642
21
-115.692
0
LINE
8
BLACK
6
CONTINUOUS
10
117.642
20
-115.692
11
117.6
21
-115.71
0
LINE
8
BLACK
6
CONTINUOUS
10
117.6
20
-115.71
11
110.2
21
-115.71
0
LINE
8
BLACK
6
CONTINUOUS
10
110.2
20
-115.71
11
110.158
21
-115.692
0
LINE
8
BLACK
6
CONTINUOUS
10
110.26
20
-108.41
11
110.26
21
-115.59
0
LINE
8
BLACK
6
CONTINUOUS
10
110.26
20
-115.59
11
117.54
21
-115.59
0
LINE
8
BLACK
6
CONTINUOUS
10
117.54
20
-115.59
11
117.54
21
-108.41
0
LINE
8
BLACK
6
CONTINUOUS
10
117.54
20
-108.41
11
110.26
21
-108.41
0
LINE
8
BLACK
6
CONTINUOUS
10
98.2576
20
-115.692
11
98.24
21
-115.65
0
LINE
8
BLACK
6
CONTINUOUS
10
98.24
20
-115.65
11
98.24
21
-108.35
0
LINE
8
BLACK
6
CONTINUOUS
10
98.24
20
-108.35
11
98.2576
21
-108.308
0
LINE
8
BLACK
6
CONTINUOUS
10
98.2576
20
-108.308
11
98.3
21
-108.29
0
LINE
8
BLACK
6
CONTINUOUS
10
98.3
20
-108.29
11
105.7
21
-108.29
0
LINE
8
BLACK
6
CONTINUOUS
10
105.7
20
-108.29
11
105.742
21
-108.308
0
LINE
8
BLACK
6
CONTINUOUS
10
105.742
20
-108.308
11
105.76
21
-108.35
0
LINE
8
BLACK
6
CONTINUOUS
10
105.76
20
-108.35
11
105.76
21
-115.65
0
LINE
8
BLACK
6
CONTINUOUS
10
105.76
20
-115.65
11
105.742
21
-115.692
0
LINE
8
BLACK
6
CONTINUOUS
10
105.742
20
-115.692
11
105.7
21
-115.71
0
LINE
8
BLACK
6
CONTINUOUS
10
105.7
20
-115.71
11
98.3
21
-115.71
0
LINE
8
BLACK
6
CONTINUOUS
10
98.3
20
-115.71
11
98.2576
21
-115.692
0
LINE
8
BLACK
6
CONTINUOUS
10
98.36
20
-108.41
11
98.36
21
-115.59
0
LINE
8
BLACK
6
CONTINUOUS
10
98.36
20
-115.59
11
105.64
21
-115.59
0
LINE
8
BLACK
6
CONTINUOUS
10
105.64
20
-115.59
11
105.64
21
-108.41
0
LINE
8
BLACK
6
CONTINUOUS
10
105.64
20
-108.41
11
98.36
21
-108.41
0
LINE
8
BLACK
6
CONTINUOUS
10
86.3576
20
-115.692
11
86.34
21
-115.65
0
LINE
8
BLACK
6
CONTINUOUS
10
86.34
20
-115.65
11
86.34
21
-108.35
0
LINE
8
BLACK
6
CONTINUOUS
10
86.34
20
-108.35
11
86.3576
21
-108.308
0
LINE
8
BLACK
6
CONTINUOUS
10
86.3576
20
-108.308
11
86.4
21
-108.29
0
LINE
8
BLACK
6
CONTINUOUS
10
86.4
20
-108.29
11
93.8
21
-108.29
0
LINE
8
BLACK
6
CONTINUOUS
10
93.8
20
-108.29
11
93.8424
21
-108.308
0
LINE
8
BLACK
6
CONTINUOUS
10
93.8424
20
-108.308
11
93.86
21
-108.35
0
LINE
8
BLACK
6
CONTINUOUS
10
93.86
20
-108.35
11
93.86
21
-115.65
0
LINE
8
BLACK
6
CONTINUOUS
10
93.86
20
-115.65
11
93.8424
21
-115.692
0
LINE
8
BLACK
6
CONTINUOUS
10
93.8424
20
-115.692
11
93.8
21
-115.71
0
LINE
8
BLACK
6
CONTINUOUS
10
93.8
20
-115.71
11
86.4
21
-115.71
0
LINE
8
BLACK
6
CONTINUOUS
10
86.4
20
-115.71
11
86.3576
21
-115.692
0
LINE
8
BLACK
6
CONTINUOUS
10
86.46
20
-108.41
11
86.46
21
-115.59
0
LINE
8
BLACK
6
CONTINUOUS
10
86.46
20
-115.59
11
93.74
21
-115.59
0
LINE
8
BLACK
6
CONTINUOUS
10
93.74
20
-115.59
11
93.74
21
-108.41
0
LINE
8
BLACK
6
CONTINUOUS
10
93.74
20
-108.41
11
86.46
21
-108.41
  0
ENDSEC
  0
EOF
