%TF.GenerationSoftware,KiCad,Pcbnew,(6.0.4)*%
%TF.CreationDate,2022-09-18T16:29:30-05:00*%
%TF.ProjectId,Calculator_PCB,43616c63-756c-4617-946f-725f5043422e,rev?*%
%TF.SameCoordinates,Original*%
%TF.FileFunction,Soldermask,Top*%
%TF.FilePolarity,Negative*%
%FSLAX46Y46*%
G04 Gerber Fmt 4.6, Leading zero omitted, Abs format (unit mm)*
G04 Created by KiCad (PCBNEW (6.0.4)) date 2022-09-18 16:29:30*
%MOMM*%
%LPD*%
G01*
G04 APERTURE LIST*
G04 Aperture macros list*
%AMRoundRect*
0 Rectangle with rounded corners*
0 $1 Rounding radius*
0 $2 $3 $4 $5 $6 $7 $8 $9 X,Y pos of 4 corners*
0 Add a 4 corners polygon primitive as box body*
4,1,4,$2,$3,$4,$5,$6,$7,$8,$9,$2,$3,0*
0 Add four circle primitives for the rounded corners*
1,1,$1+$1,$2,$3*
1,1,$1+$1,$4,$5*
1,1,$1+$1,$6,$7*
1,1,$1+$1,$8,$9*
0 Add four rect primitives between the rounded corners*
20,1,$1+$1,$2,$3,$4,$5,0*
20,1,$1+$1,$4,$5,$6,$7,0*
20,1,$1+$1,$6,$7,$8,$9,0*
20,1,$1+$1,$8,$9,$2,$3,0*%
G04 Aperture macros list end*
%ADD10R,0.400000X1.650000*%
%ADD11O,1.350000X1.700000*%
%ADD12R,1.430000X2.500000*%
%ADD13R,1.350000X2.000000*%
%ADD14O,1.100000X1.500000*%
%ADD15R,1.825000X0.700000*%
%ADD16R,2.000000X1.500000*%
%ADD17C,1.524000*%
%ADD18RoundRect,0.155000X-0.155000X0.212500X-0.155000X-0.212500X0.155000X-0.212500X0.155000X0.212500X0*%
%ADD19RoundRect,0.155000X0.155000X-0.212500X0.155000X0.212500X-0.155000X0.212500X-0.155000X-0.212500X0*%
%ADD20RoundRect,0.155000X0.212500X0.155000X-0.212500X0.155000X-0.212500X-0.155000X0.212500X-0.155000X0*%
%ADD21RoundRect,0.155000X-0.212500X-0.155000X0.212500X-0.155000X0.212500X0.155000X-0.212500X0.155000X0*%
%ADD22RoundRect,0.250000X-0.337500X-0.475000X0.337500X-0.475000X0.337500X0.475000X-0.337500X0.475000X0*%
%ADD23RoundRect,0.150000X-0.650000X-0.150000X0.650000X-0.150000X0.650000X0.150000X-0.650000X0.150000X0*%
%ADD24RoundRect,0.160000X-0.160000X0.197500X-0.160000X-0.197500X0.160000X-0.197500X0.160000X0.197500X0*%
%ADD25R,0.700000X0.300000*%
%ADD26R,1.000000X0.300000*%
%ADD27RoundRect,0.160000X0.160000X-0.197500X0.160000X0.197500X-0.160000X0.197500X-0.160000X-0.197500X0*%
%ADD28R,1.050000X0.650000*%
%ADD29RoundRect,0.050000X-0.387500X-0.050000X0.387500X-0.050000X0.387500X0.050000X-0.387500X0.050000X0*%
%ADD30RoundRect,0.050000X-0.050000X-0.387500X0.050000X-0.387500X0.050000X0.387500X-0.050000X0.387500X0*%
%ADD31RoundRect,0.144000X-1.456000X-1.456000X1.456000X-1.456000X1.456000X1.456000X-1.456000X1.456000X0*%
%ADD32R,1.500000X2.000000*%
%ADD33R,3.800000X2.000000*%
%ADD34R,5.600000X2.100000*%
G04 APERTURE END LIST*
D10*
%TO.C,J1*%
X98045000Y-69405000D03*
X97395000Y-69405000D03*
X96745000Y-69405000D03*
X96095000Y-69405000D03*
X95445000Y-69405000D03*
D11*
X99475000Y-66525000D03*
D12*
X97705000Y-66255000D03*
D13*
X99475000Y-67455000D03*
X93995000Y-67455000D03*
D14*
X94325000Y-69525000D03*
D11*
X94015000Y-66525000D03*
D15*
X99695000Y-68205000D03*
D14*
X99165000Y-69525000D03*
D12*
X95785000Y-66255000D03*
D16*
X93845000Y-69525000D03*
D15*
X93745000Y-68205000D03*
D16*
X99595000Y-69505000D03*
%TD*%
D17*
%TO.C,SW12*%
X110090000Y-138540000D03*
X117710000Y-138540000D03*
X117710000Y-133460000D03*
X110090000Y-133460000D03*
%TD*%
%TO.C,SW39*%
X201010000Y-130540000D03*
X193390000Y-130540000D03*
X201010000Y-125460000D03*
X193390000Y-125460000D03*
%TD*%
D18*
%TO.C,C10*%
X97190000Y-95720000D03*
X97190000Y-96855000D03*
%TD*%
D19*
%TO.C,C5*%
X96710000Y-82160000D03*
X96710000Y-81025000D03*
%TD*%
D17*
%TO.C,SW2*%
X93910000Y-117460000D03*
X86290000Y-117460000D03*
X86290000Y-122540000D03*
X93910000Y-122540000D03*
%TD*%
D20*
%TO.C,C4*%
X91767500Y-76630000D03*
X90632500Y-76630000D03*
%TD*%
D17*
%TO.C,SW30*%
X177210000Y-122540000D03*
X169590000Y-122540000D03*
X169590000Y-117460000D03*
X177210000Y-117460000D03*
%TD*%
%TO.C,SW1*%
X93910000Y-114540000D03*
X86290000Y-114540000D03*
X86290000Y-109460000D03*
X93910000Y-109460000D03*
%TD*%
D21*
%TO.C,C8*%
X102900000Y-90810000D03*
X104035000Y-90810000D03*
%TD*%
D20*
%TO.C,C16*%
X97007500Y-99210000D03*
X95872500Y-99210000D03*
%TD*%
D22*
%TO.C,C13*%
X103832500Y-69310000D03*
X105907500Y-69310000D03*
%TD*%
D17*
%TO.C,SW4*%
X93910000Y-133460000D03*
X86290000Y-133460000D03*
X93910000Y-138540000D03*
X86290000Y-138540000D03*
%TD*%
%TO.C,SW8*%
X105810000Y-138540000D03*
X98190000Y-138540000D03*
X98190000Y-133460000D03*
X105810000Y-133460000D03*
%TD*%
D23*
%TO.C,U1*%
X84570000Y-78615000D03*
X84570000Y-79885000D03*
X84570000Y-81155000D03*
X84570000Y-82425000D03*
X91770000Y-82425000D03*
X91770000Y-81155000D03*
X91770000Y-79885000D03*
X91770000Y-78615000D03*
%TD*%
D17*
%TO.C,SW33*%
X189110000Y-109460000D03*
X181490000Y-109460000D03*
X181490000Y-114540000D03*
X189110000Y-114540000D03*
%TD*%
%TO.C,SW26*%
X157690000Y-122540000D03*
X165310000Y-122540000D03*
X165310000Y-117460000D03*
X157690000Y-117460000D03*
%TD*%
%TO.C,SW6*%
X105810000Y-122540000D03*
X98190000Y-122540000D03*
X105810000Y-117460000D03*
X98190000Y-117460000D03*
%TD*%
D21*
%TO.C,C12*%
X102890000Y-85572500D03*
X104025000Y-85572500D03*
%TD*%
D17*
%TO.C,SW17*%
X141510000Y-109460000D03*
X133890000Y-109460000D03*
X133890000Y-114540000D03*
X141510000Y-114540000D03*
%TD*%
D24*
%TO.C,R1*%
X84570000Y-75392500D03*
X84570000Y-76587500D03*
%TD*%
D17*
%TO.C,SW11*%
X117710000Y-130540000D03*
X110090000Y-130540000D03*
X117710000Y-125460000D03*
X110090000Y-125460000D03*
%TD*%
%TO.C,SW20*%
X133890000Y-138540000D03*
X141510000Y-138540000D03*
X141510000Y-133460000D03*
X133890000Y-133460000D03*
%TD*%
D24*
%TO.C,R5*%
X86130000Y-75392500D03*
X86130000Y-76587500D03*
%TD*%
D17*
%TO.C,SW10*%
X117710000Y-122540000D03*
X110090000Y-122540000D03*
X117710000Y-117460000D03*
X110090000Y-117460000D03*
%TD*%
%TO.C,SW23*%
X145790000Y-130540000D03*
X153410000Y-130540000D03*
X153410000Y-125460000D03*
X145790000Y-125460000D03*
%TD*%
%TO.C,SW16*%
X129610000Y-138540000D03*
X121990000Y-138540000D03*
X121990000Y-133460000D03*
X129610000Y-133460000D03*
%TD*%
D25*
%TO.C,J3*%
X205990000Y-113330000D03*
X205990000Y-112830000D03*
X205990000Y-112330000D03*
X205990000Y-111830000D03*
X205990000Y-111330000D03*
X205990000Y-110830000D03*
X205990000Y-110330000D03*
X205990000Y-109830000D03*
X205990000Y-109330000D03*
X205990000Y-108830000D03*
D26*
X208640000Y-114120000D03*
X208640000Y-108040000D03*
%TD*%
D25*
%TO.C,J2*%
X82289568Y-90380000D03*
X82289568Y-90880000D03*
X82289568Y-91380000D03*
X82289568Y-91880000D03*
X82289568Y-92380000D03*
X82289568Y-92880000D03*
X82289568Y-93380000D03*
X82289568Y-93880000D03*
X82289568Y-94380000D03*
X82289568Y-94880000D03*
D26*
X79639568Y-89590000D03*
X79639568Y-95670000D03*
%TD*%
D17*
%TO.C,SW36*%
X189110000Y-138540000D03*
X181490000Y-138540000D03*
X189110000Y-133460000D03*
X181490000Y-133460000D03*
%TD*%
D27*
%TO.C,R4*%
X98740000Y-83367500D03*
X98740000Y-82172500D03*
%TD*%
D22*
%TO.C,C14*%
X105062500Y-81830000D03*
X107137500Y-81830000D03*
%TD*%
D17*
%TO.C,SW28*%
X165310000Y-138540000D03*
X157690000Y-138540000D03*
X157690000Y-133460000D03*
X165310000Y-133460000D03*
%TD*%
%TO.C,SW14*%
X121990000Y-122540000D03*
X129610000Y-122540000D03*
X121990000Y-117460000D03*
X129610000Y-117460000D03*
%TD*%
D19*
%TO.C,C1*%
X95710000Y-82160000D03*
X95710000Y-81025000D03*
%TD*%
D17*
%TO.C,SW25*%
X157690000Y-114540000D03*
X165310000Y-114540000D03*
X157690000Y-109460000D03*
X165310000Y-109460000D03*
%TD*%
%TO.C,SW3*%
X86290000Y-125460000D03*
X93910000Y-125460000D03*
X93910000Y-130540000D03*
X86290000Y-130540000D03*
%TD*%
%TO.C,SW37*%
X201010000Y-114540000D03*
X193390000Y-114540000D03*
X193390000Y-109460000D03*
X201010000Y-109460000D03*
%TD*%
D27*
%TO.C,R3*%
X97720000Y-83362500D03*
X97720000Y-82167500D03*
%TD*%
D17*
%TO.C,SW22*%
X153410000Y-122540000D03*
X145790000Y-122540000D03*
X145790000Y-117460000D03*
X153410000Y-117460000D03*
%TD*%
%TO.C,SW34*%
X181490000Y-117460000D03*
X189110000Y-117460000D03*
X181490000Y-122540000D03*
X189110000Y-122540000D03*
%TD*%
D20*
%TO.C,C9*%
X90540000Y-90810000D03*
X89405000Y-90810000D03*
%TD*%
D19*
%TO.C,C3*%
X99750000Y-83330000D03*
X99750000Y-82195000D03*
%TD*%
D21*
%TO.C,C11*%
X102890000Y-83912500D03*
X104025000Y-83912500D03*
%TD*%
D18*
%TO.C,C2*%
X98350000Y-95722500D03*
X98350000Y-96857500D03*
%TD*%
D17*
%TO.C,SW31*%
X169590000Y-130540000D03*
X177210000Y-130540000D03*
X169590000Y-125460000D03*
X177210000Y-125460000D03*
%TD*%
D27*
%TO.C,R6*%
X99550000Y-96877500D03*
X99550000Y-95682500D03*
%TD*%
D21*
%TO.C,C15*%
X92582500Y-99210000D03*
X93717500Y-99210000D03*
%TD*%
D17*
%TO.C,SW21*%
X153410000Y-109460000D03*
X145790000Y-109460000D03*
X145790000Y-114540000D03*
X153410000Y-114540000D03*
%TD*%
%TO.C,SW38*%
X201010000Y-122540000D03*
X193390000Y-122540000D03*
X201010000Y-117460000D03*
X193390000Y-117460000D03*
%TD*%
D19*
%TO.C,C6*%
X100750000Y-83330000D03*
X100750000Y-82195000D03*
%TD*%
D17*
%TO.C,SW32*%
X177210000Y-138540000D03*
X169590000Y-138540000D03*
X177210000Y-133460000D03*
X169590000Y-133460000D03*
%TD*%
D28*
%TO.C,S1*%
X84585000Y-71015000D03*
X88735000Y-71015000D03*
X84585000Y-73165000D03*
X88735000Y-73165000D03*
%TD*%
D17*
%TO.C,SW7*%
X105810000Y-130540000D03*
X98190000Y-130540000D03*
X98190000Y-125460000D03*
X105810000Y-125460000D03*
%TD*%
D29*
%TO.C,U2*%
X93282500Y-86942500D03*
X93282500Y-87342500D03*
X93282500Y-87742500D03*
X93282500Y-88142500D03*
X93282500Y-88542500D03*
X93282500Y-88942500D03*
X93282500Y-89342500D03*
X93282500Y-89742500D03*
X93282500Y-90142500D03*
X93282500Y-90542500D03*
X93282500Y-90942500D03*
X93282500Y-91342500D03*
X93282500Y-91742500D03*
X93282500Y-92142500D03*
D30*
X94120000Y-92980000D03*
X94520000Y-92980000D03*
X94920000Y-92980000D03*
X95320000Y-92980000D03*
X95720000Y-92980000D03*
X96120000Y-92980000D03*
X96520000Y-92980000D03*
X96920000Y-92980000D03*
X97320000Y-92980000D03*
X97720000Y-92980000D03*
X98120000Y-92980000D03*
X98520000Y-92980000D03*
X98920000Y-92980000D03*
X99320000Y-92980000D03*
D29*
X100157500Y-92142500D03*
X100157500Y-91742500D03*
X100157500Y-91342500D03*
X100157500Y-90942500D03*
X100157500Y-90542500D03*
X100157500Y-90142500D03*
X100157500Y-89742500D03*
X100157500Y-89342500D03*
X100157500Y-88942500D03*
X100157500Y-88542500D03*
X100157500Y-88142500D03*
X100157500Y-87742500D03*
X100157500Y-87342500D03*
X100157500Y-86942500D03*
D30*
X99320000Y-86105000D03*
X98920000Y-86105000D03*
X98520000Y-86105000D03*
X98120000Y-86105000D03*
X97720000Y-86105000D03*
X97320000Y-86105000D03*
X96920000Y-86105000D03*
X96520000Y-86105000D03*
X96120000Y-86105000D03*
X95720000Y-86105000D03*
X95320000Y-86105000D03*
X94920000Y-86105000D03*
X94520000Y-86105000D03*
X94120000Y-86105000D03*
D31*
X96720000Y-89542500D03*
%TD*%
D17*
%TO.C,SW9*%
X117710000Y-114540000D03*
X110090000Y-114540000D03*
X117710000Y-109460000D03*
X110090000Y-109460000D03*
%TD*%
%TO.C,SW13*%
X121990000Y-114540000D03*
X129610000Y-114540000D03*
X129610000Y-109460000D03*
X121990000Y-109460000D03*
%TD*%
%TO.C,SW18*%
X133890000Y-122540000D03*
X141510000Y-122540000D03*
X141510000Y-117460000D03*
X133890000Y-117460000D03*
%TD*%
%TO.C,SW15*%
X129610000Y-130540000D03*
X121990000Y-130540000D03*
X129610000Y-125460000D03*
X121990000Y-125460000D03*
%TD*%
%TO.C,SW5*%
X105810000Y-114540000D03*
X98190000Y-114540000D03*
X98190000Y-109460000D03*
X105810000Y-109460000D03*
%TD*%
%TO.C,SW35*%
X189110000Y-130540000D03*
X181490000Y-130540000D03*
X189110000Y-125460000D03*
X181490000Y-125460000D03*
%TD*%
%TO.C,SW27*%
X157690000Y-130540000D03*
X165310000Y-130540000D03*
X165310000Y-125460000D03*
X157690000Y-125460000D03*
%TD*%
%TO.C,SW24*%
X153410000Y-138540000D03*
X145790000Y-138540000D03*
X153410000Y-133460000D03*
X145790000Y-133460000D03*
%TD*%
D32*
%TO.C,U3*%
X107340000Y-72440000D03*
X105040000Y-72440000D03*
D33*
X105040000Y-78740000D03*
D32*
X102740000Y-72440000D03*
%TD*%
D27*
%TO.C,R2*%
X95400000Y-97567500D03*
X95400000Y-96372500D03*
%TD*%
D34*
%TO.C,Y1*%
X90340000Y-103740000D03*
X99340000Y-103740000D03*
%TD*%
D17*
%TO.C,SW29*%
X169590000Y-114540000D03*
X177210000Y-114540000D03*
X177210000Y-109460000D03*
X169590000Y-109460000D03*
%TD*%
%TO.C,SW40*%
X201010000Y-138540000D03*
X193390000Y-138540000D03*
X201010000Y-133460000D03*
X193390000Y-133460000D03*
%TD*%
%TO.C,SW19*%
X141510000Y-130540000D03*
X133890000Y-130540000D03*
X133890000Y-125460000D03*
X141510000Y-125460000D03*
%TD*%
D20*
%TO.C,C7*%
X90517500Y-86672500D03*
X89382500Y-86672500D03*
%TD*%
M02*
