%TF.GenerationSoftware,KiCad,Pcbnew,(6.0.4)*%
%TF.CreationDate,2022-09-18T16:29:30-05:00*%
%TF.ProjectId,Calculator_PCB,43616c63-756c-4617-946f-725f5043422e,rev?*%
%TF.SameCoordinates,Original*%
%TF.FileFunction,Copper,L1,Top*%
%TF.FilePolarity,Positive*%
%FSLAX46Y46*%
G04 Gerber Fmt 4.6, Leading zero omitted, Abs format (unit mm)*
G04 Created by KiCad (PCBNEW (6.0.4)) date 2022-09-18 16:29:30*
%MOMM*%
%LPD*%
G01*
G04 APERTURE LIST*
G04 Aperture macros list*
%AMRoundRect*
0 Rectangle with rounded corners*
0 $1 Rounding radius*
0 $2 $3 $4 $5 $6 $7 $8 $9 X,Y pos of 4 corners*
0 Add a 4 corners polygon primitive as box body*
4,1,4,$2,$3,$4,$5,$6,$7,$8,$9,$2,$3,0*
0 Add four circle primitives for the rounded corners*
1,1,$1+$1,$2,$3*
1,1,$1+$1,$4,$5*
1,1,$1+$1,$6,$7*
1,1,$1+$1,$8,$9*
0 Add four rect primitives between the rounded corners*
20,1,$1+$1,$2,$3,$4,$5,0*
20,1,$1+$1,$4,$5,$6,$7,0*
20,1,$1+$1,$6,$7,$8,$9,0*
20,1,$1+$1,$8,$9,$2,$3,0*%
G04 Aperture macros list end*
%TA.AperFunction,SMDPad,CuDef*%
%ADD10R,0.400000X1.650000*%
%TD*%
%TA.AperFunction,ComponentPad*%
%ADD11O,1.350000X1.700000*%
%TD*%
%TA.AperFunction,SMDPad,CuDef*%
%ADD12R,1.430000X2.500000*%
%TD*%
%TA.AperFunction,SMDPad,CuDef*%
%ADD13R,1.350000X2.000000*%
%TD*%
%TA.AperFunction,ComponentPad*%
%ADD14O,1.100000X1.500000*%
%TD*%
%TA.AperFunction,SMDPad,CuDef*%
%ADD15R,1.825000X0.700000*%
%TD*%
%TA.AperFunction,SMDPad,CuDef*%
%ADD16R,2.000000X1.500000*%
%TD*%
%TA.AperFunction,ComponentPad*%
%ADD17C,1.524000*%
%TD*%
%TA.AperFunction,SMDPad,CuDef*%
%ADD18RoundRect,0.155000X-0.155000X0.212500X-0.155000X-0.212500X0.155000X-0.212500X0.155000X0.212500X0*%
%TD*%
%TA.AperFunction,SMDPad,CuDef*%
%ADD19RoundRect,0.155000X0.155000X-0.212500X0.155000X0.212500X-0.155000X0.212500X-0.155000X-0.212500X0*%
%TD*%
%TA.AperFunction,SMDPad,CuDef*%
%ADD20RoundRect,0.155000X0.212500X0.155000X-0.212500X0.155000X-0.212500X-0.155000X0.212500X-0.155000X0*%
%TD*%
%TA.AperFunction,SMDPad,CuDef*%
%ADD21RoundRect,0.155000X-0.212500X-0.155000X0.212500X-0.155000X0.212500X0.155000X-0.212500X0.155000X0*%
%TD*%
%TA.AperFunction,SMDPad,CuDef*%
%ADD22RoundRect,0.250000X-0.337500X-0.475000X0.337500X-0.475000X0.337500X0.475000X-0.337500X0.475000X0*%
%TD*%
%TA.AperFunction,SMDPad,CuDef*%
%ADD23RoundRect,0.150000X-0.650000X-0.150000X0.650000X-0.150000X0.650000X0.150000X-0.650000X0.150000X0*%
%TD*%
%TA.AperFunction,SMDPad,CuDef*%
%ADD24RoundRect,0.160000X-0.160000X0.197500X-0.160000X-0.197500X0.160000X-0.197500X0.160000X0.197500X0*%
%TD*%
%TA.AperFunction,SMDPad,CuDef*%
%ADD25R,0.700000X0.300000*%
%TD*%
%TA.AperFunction,SMDPad,CuDef*%
%ADD26R,1.000000X0.300000*%
%TD*%
%TA.AperFunction,SMDPad,CuDef*%
%ADD27RoundRect,0.160000X0.160000X-0.197500X0.160000X0.197500X-0.160000X0.197500X-0.160000X-0.197500X0*%
%TD*%
%TA.AperFunction,SMDPad,CuDef*%
%ADD28R,1.050000X0.650000*%
%TD*%
%TA.AperFunction,SMDPad,CuDef*%
%ADD29RoundRect,0.050000X-0.387500X-0.050000X0.387500X-0.050000X0.387500X0.050000X-0.387500X0.050000X0*%
%TD*%
%TA.AperFunction,SMDPad,CuDef*%
%ADD30RoundRect,0.050000X-0.050000X-0.387500X0.050000X-0.387500X0.050000X0.387500X-0.050000X0.387500X0*%
%TD*%
%TA.AperFunction,ComponentPad*%
%ADD31C,0.600000*%
%TD*%
%TA.AperFunction,SMDPad,CuDef*%
%ADD32RoundRect,0.144000X-1.456000X-1.456000X1.456000X-1.456000X1.456000X1.456000X-1.456000X1.456000X0*%
%TD*%
%TA.AperFunction,SMDPad,CuDef*%
%ADD33R,1.500000X2.000000*%
%TD*%
%TA.AperFunction,SMDPad,CuDef*%
%ADD34R,3.800000X2.000000*%
%TD*%
%TA.AperFunction,SMDPad,CuDef*%
%ADD35R,5.600000X2.100000*%
%TD*%
%TA.AperFunction,ViaPad*%
%ADD36C,0.600000*%
%TD*%
%TA.AperFunction,Conductor*%
%ADD37C,0.150000*%
%TD*%
%TA.AperFunction,Conductor*%
%ADD38C,0.200000*%
%TD*%
%TA.AperFunction,Conductor*%
%ADD39C,0.400000*%
%TD*%
%TA.AperFunction,Conductor*%
%ADD40C,0.800000*%
%TD*%
G04 APERTURE END LIST*
D10*
%TO.P,J1,1,VBUS*%
%TO.N,VBUS*%
X98045000Y-69405000D03*
%TO.P,J1,2,D-*%
%TO.N,/USB_D-*%
X97395000Y-69405000D03*
%TO.P,J1,3,D+*%
%TO.N,/USB_D+*%
X96745000Y-69405000D03*
%TO.P,J1,4,ID*%
%TO.N,unconnected-(J1-Pad4)*%
X96095000Y-69405000D03*
%TO.P,J1,5,GND*%
%TO.N,GND*%
X95445000Y-69405000D03*
D11*
%TO.P,J1,6,Shield*%
X99475000Y-66525000D03*
D12*
X97705000Y-66255000D03*
D13*
X99475000Y-67455000D03*
X93995000Y-67455000D03*
D14*
X94325000Y-69525000D03*
D11*
X94015000Y-66525000D03*
D15*
X99695000Y-68205000D03*
D14*
X99165000Y-69525000D03*
D12*
X95785000Y-66255000D03*
D16*
X93845000Y-69525000D03*
D15*
X93745000Y-68205000D03*
D16*
X99595000Y-69505000D03*
%TD*%
D17*
%TO.P,SW12,1,A*%
%TO.N,Net-(D12-Pad2)*%
X110090000Y-138540000D03*
X117710000Y-138540000D03*
%TO.P,SW12,2,B*%
%TO.N,/Col5*%
X117710000Y-133460000D03*
X110090000Y-133460000D03*
%TD*%
%TO.P,SW39,1,A*%
%TO.N,Net-(D39-Pad2)*%
X201010000Y-130540000D03*
X193390000Y-130540000D03*
%TO.P,SW39,2,B*%
%TO.N,/Col12*%
X201010000Y-125460000D03*
X193390000Y-125460000D03*
%TD*%
D18*
%TO.P,C10,1*%
%TO.N,+3V3*%
X97190000Y-95720000D03*
%TO.P,C10,2*%
%TO.N,GND*%
X97190000Y-96855000D03*
%TD*%
D19*
%TO.P,C5,1*%
%TO.N,+3V3*%
X96710000Y-82160000D03*
%TO.P,C5,2*%
%TO.N,GND*%
X96710000Y-81025000D03*
%TD*%
D17*
%TO.P,SW2,2,B*%
%TO.N,/Col3*%
X93910000Y-117460000D03*
X86290000Y-117460000D03*
%TO.P,SW2,1,A*%
%TO.N,Net-(D2-Pad2)*%
X86290000Y-122540000D03*
X93910000Y-122540000D03*
%TD*%
D20*
%TO.P,C4,1*%
%TO.N,+3V3*%
X91767500Y-76630000D03*
%TO.P,C4,2*%
%TO.N,GND*%
X90632500Y-76630000D03*
%TD*%
D17*
%TO.P,SW30,1,A*%
%TO.N,Net-(D30-Pad2)*%
X177210000Y-122540000D03*
X169590000Y-122540000D03*
%TO.P,SW30,2,B*%
%TO.N,/Col10*%
X169590000Y-117460000D03*
X177210000Y-117460000D03*
%TD*%
%TO.P,SW1,1,A*%
%TO.N,Net-(D1-Pad2)*%
X93910000Y-114540000D03*
X86290000Y-114540000D03*
%TO.P,SW1,2,B*%
%TO.N,/Col3*%
X86290000Y-109460000D03*
X93910000Y-109460000D03*
%TD*%
D21*
%TO.P,C8,1*%
%TO.N,+3V3*%
X102900000Y-90810000D03*
%TO.P,C8,2*%
%TO.N,GND*%
X104035000Y-90810000D03*
%TD*%
D20*
%TO.P,C16,1*%
%TO.N,GND*%
X97007500Y-99210000D03*
%TO.P,C16,2*%
%TO.N,Net-(C16-Pad2)*%
X95872500Y-99210000D03*
%TD*%
D22*
%TO.P,C13,1*%
%TO.N,VBUS*%
X103832500Y-69310000D03*
%TO.P,C13,2*%
%TO.N,GND*%
X105907500Y-69310000D03*
%TD*%
D17*
%TO.P,SW4,2,B*%
%TO.N,/Col3*%
X93910000Y-133460000D03*
X86290000Y-133460000D03*
%TO.P,SW4,1,A*%
%TO.N,Net-(D4-Pad2)*%
X93910000Y-138540000D03*
X86290000Y-138540000D03*
%TD*%
%TO.P,SW8,1,A*%
%TO.N,Net-(D8-Pad2)*%
X105810000Y-138540000D03*
X98190000Y-138540000D03*
%TO.P,SW8,2,B*%
%TO.N,/Col4*%
X98190000Y-133460000D03*
X105810000Y-133460000D03*
%TD*%
D23*
%TO.P,U1,1,~{CS}*%
%TO.N,/QSPI_SS_56*%
X84570000Y-78615000D03*
%TO.P,U1,2,DO(IO1)*%
%TO.N,/QSPI_SD1_55*%
X84570000Y-79885000D03*
%TO.P,U1,3,IO2*%
%TO.N,/QSPI_SD2_54*%
X84570000Y-81155000D03*
%TO.P,U1,4,GND*%
%TO.N,GND*%
X84570000Y-82425000D03*
%TO.P,U1,5,DI(IO0)*%
%TO.N,/QSPI_SD0_53*%
X91770000Y-82425000D03*
%TO.P,U1,6,CLK*%
%TO.N,/QSPI_SCLK_52*%
X91770000Y-81155000D03*
%TO.P,U1,7,IO3*%
%TO.N,/QSPI_SD3_51*%
X91770000Y-79885000D03*
%TO.P,U1,8,VCC*%
%TO.N,+3V3*%
X91770000Y-78615000D03*
%TD*%
D17*
%TO.P,SW33,2,B*%
%TO.N,/Col11*%
X189110000Y-109460000D03*
X181490000Y-109460000D03*
%TO.P,SW33,1,A*%
%TO.N,Net-(D33-Pad2)*%
X181490000Y-114540000D03*
X189110000Y-114540000D03*
%TD*%
%TO.P,SW26,1,A*%
%TO.N,Net-(D26-Pad2)*%
X157690000Y-122540000D03*
X165310000Y-122540000D03*
%TO.P,SW26,2,B*%
%TO.N,/Col9*%
X165310000Y-117460000D03*
X157690000Y-117460000D03*
%TD*%
%TO.P,SW6,1,A*%
%TO.N,Net-(D6-Pad2)*%
X105810000Y-122540000D03*
X98190000Y-122540000D03*
%TO.P,SW6,2,B*%
%TO.N,/Col4*%
X105810000Y-117460000D03*
X98190000Y-117460000D03*
%TD*%
D21*
%TO.P,C12,1*%
%TO.N,+3V3*%
X102890000Y-85572500D03*
%TO.P,C12,2*%
%TO.N,GND*%
X104025000Y-85572500D03*
%TD*%
D17*
%TO.P,SW17,2,B*%
%TO.N,/Col7*%
X141510000Y-109460000D03*
X133890000Y-109460000D03*
%TO.P,SW17,1,A*%
%TO.N,Net-(D17-Pad2)*%
X133890000Y-114540000D03*
X141510000Y-114540000D03*
%TD*%
D24*
%TO.P,R1,1*%
%TO.N,/USB_BOOT*%
X84570000Y-75392500D03*
%TO.P,R1,2*%
%TO.N,/QSPI_SS_56*%
X84570000Y-76587500D03*
%TD*%
D17*
%TO.P,SW11,1,A*%
%TO.N,Net-(D11-Pad2)*%
X117710000Y-130540000D03*
X110090000Y-130540000D03*
%TO.P,SW11,2,B*%
%TO.N,/Col5*%
X117710000Y-125460000D03*
X110090000Y-125460000D03*
%TD*%
%TO.P,SW20,1,A*%
%TO.N,Net-(D20-Pad2)*%
X133890000Y-138540000D03*
X141510000Y-138540000D03*
%TO.P,SW20,2,B*%
%TO.N,/Col7*%
X141510000Y-133460000D03*
X133890000Y-133460000D03*
%TD*%
D24*
%TO.P,R5,1*%
%TO.N,+3V3*%
X86130000Y-75392500D03*
%TO.P,R5,2*%
%TO.N,/QSPI_SS_56*%
X86130000Y-76587500D03*
%TD*%
D17*
%TO.P,SW10,1,A*%
%TO.N,Net-(D10-Pad2)*%
X117710000Y-122540000D03*
X110090000Y-122540000D03*
%TO.P,SW10,2,B*%
%TO.N,/Col5*%
X117710000Y-117460000D03*
X110090000Y-117460000D03*
%TD*%
%TO.P,SW23,1,A*%
%TO.N,Net-(D23-Pad2)*%
X145790000Y-130540000D03*
X153410000Y-130540000D03*
%TO.P,SW23,2,B*%
%TO.N,/Col8*%
X153410000Y-125460000D03*
X145790000Y-125460000D03*
%TD*%
%TO.P,SW16,1,A*%
%TO.N,Net-(D16-Pad2)*%
X129610000Y-138540000D03*
X121990000Y-138540000D03*
%TO.P,SW16,2,B*%
%TO.N,/Col6*%
X121990000Y-133460000D03*
X129610000Y-133460000D03*
%TD*%
D25*
%TO.P,J3,1,1*%
%TO.N,/Row7*%
X205990000Y-113330000D03*
%TO.P,J3,2,2*%
%TO.N,/Row6*%
X205990000Y-112830000D03*
%TO.P,J3,3,3*%
%TO.N,/Row5*%
X205990000Y-112330000D03*
%TO.P,J3,4,4*%
%TO.N,/Row4*%
X205990000Y-111830000D03*
%TO.P,J3,5,5*%
%TO.N,/Row3*%
X205990000Y-111330000D03*
%TO.P,J3,6,6*%
%TO.N,/Row2*%
X205990000Y-110830000D03*
%TO.P,J3,7,7*%
%TO.N,/Row1*%
X205990000Y-110330000D03*
%TO.P,J3,8,8*%
%TO.N,/Col13*%
X205990000Y-109830000D03*
%TO.P,J3,9,9*%
%TO.N,/Col14*%
X205990000Y-109330000D03*
%TO.P,J3,10,10*%
%TO.N,/Col15*%
X205990000Y-108830000D03*
D26*
%TO.P,J3,S1,SHIELD*%
%TO.N,unconnected-(J3-PadS1)*%
X208640000Y-114120000D03*
%TO.P,J3,S2,SHIELD*%
X208640000Y-108040000D03*
%TD*%
D25*
%TO.P,J2,1,1*%
%TO.N,/Row4*%
X82289568Y-90380000D03*
%TO.P,J2,2,2*%
%TO.N,/Row5*%
X82289568Y-90880000D03*
%TO.P,J2,3,3*%
%TO.N,/Row6*%
X82289568Y-91380000D03*
%TO.P,J2,4,4*%
%TO.N,+3V3*%
X82289568Y-91880000D03*
%TO.P,J2,5,5*%
%TO.N,GND*%
X82289568Y-92380000D03*
%TO.P,J2,6,6*%
%TO.N,/x_out*%
X82289568Y-92880000D03*
%TO.P,J2,7,7*%
%TO.N,/y_out*%
X82289568Y-93380000D03*
%TO.P,J2,8,8*%
%TO.N,/Col2*%
X82289568Y-93880000D03*
%TO.P,J2,9,9*%
%TO.N,/Col0*%
X82289568Y-94380000D03*
%TO.P,J2,10,10*%
%TO.N,/Col1*%
X82289568Y-94880000D03*
D26*
%TO.P,J2,S1,SHIELD*%
%TO.N,unconnected-(J2-PadS1)*%
X79639568Y-89590000D03*
%TO.P,J2,S2,SHIELD*%
X79639568Y-95670000D03*
%TD*%
D17*
%TO.P,SW36,1,A*%
%TO.N,Net-(D36-Pad2)*%
X189110000Y-138540000D03*
X181490000Y-138540000D03*
%TO.P,SW36,2,B*%
%TO.N,/Col11*%
X189110000Y-133460000D03*
X181490000Y-133460000D03*
%TD*%
D27*
%TO.P,R4,1*%
%TO.N,Net-(R4-Pad1)*%
X98740000Y-83367500D03*
%TO.P,R4,2*%
%TO.N,/USB_D-*%
X98740000Y-82172500D03*
%TD*%
D22*
%TO.P,C14,1*%
%TO.N,+3V3*%
X105062500Y-81830000D03*
%TO.P,C14,2*%
%TO.N,GND*%
X107137500Y-81830000D03*
%TD*%
D17*
%TO.P,SW28,1,A*%
%TO.N,Net-(D28-Pad2)*%
X165310000Y-138540000D03*
X157690000Y-138540000D03*
%TO.P,SW28,2,B*%
%TO.N,/Col9*%
X157690000Y-133460000D03*
X165310000Y-133460000D03*
%TD*%
%TO.P,SW14,1,A*%
%TO.N,Net-(D14-Pad2)*%
X121990000Y-122540000D03*
X129610000Y-122540000D03*
%TO.P,SW14,2,B*%
%TO.N,/Col6*%
X121990000Y-117460000D03*
X129610000Y-117460000D03*
%TD*%
D19*
%TO.P,C1,1*%
%TO.N,+1V1*%
X95710000Y-82160000D03*
%TO.P,C1,2*%
%TO.N,GND*%
X95710000Y-81025000D03*
%TD*%
D17*
%TO.P,SW25,1,A*%
%TO.N,Net-(D25-Pad2)*%
X157690000Y-114540000D03*
X165310000Y-114540000D03*
%TO.P,SW25,2,B*%
%TO.N,/Col9*%
X157690000Y-109460000D03*
X165310000Y-109460000D03*
%TD*%
%TO.P,SW3,2,B*%
%TO.N,/Col3*%
X86290000Y-125460000D03*
X93910000Y-125460000D03*
%TO.P,SW3,1,A*%
%TO.N,Net-(D3-Pad2)*%
X93910000Y-130540000D03*
X86290000Y-130540000D03*
%TD*%
%TO.P,SW37,1,A*%
%TO.N,Net-(D37-Pad2)*%
X201010000Y-114540000D03*
X193390000Y-114540000D03*
%TO.P,SW37,2,B*%
%TO.N,/Col12*%
X193390000Y-109460000D03*
X201010000Y-109460000D03*
%TD*%
D27*
%TO.P,R3,1*%
%TO.N,Net-(R3-Pad1)*%
X97720000Y-83362500D03*
%TO.P,R3,2*%
%TO.N,/USB_D+*%
X97720000Y-82167500D03*
%TD*%
D17*
%TO.P,SW22,1,A*%
%TO.N,Net-(D22-Pad2)*%
X153410000Y-122540000D03*
X145790000Y-122540000D03*
%TO.P,SW22,2,B*%
%TO.N,/Col8*%
X145790000Y-117460000D03*
X153410000Y-117460000D03*
%TD*%
%TO.P,SW34,2,B*%
%TO.N,/Col11*%
X181490000Y-117460000D03*
X189110000Y-117460000D03*
%TO.P,SW34,1,A*%
%TO.N,Net-(D34-Pad2)*%
X181490000Y-122540000D03*
X189110000Y-122540000D03*
%TD*%
D20*
%TO.P,C9,1*%
%TO.N,+3V3*%
X90540000Y-90810000D03*
%TO.P,C9,2*%
%TO.N,GND*%
X89405000Y-90810000D03*
%TD*%
D19*
%TO.P,C3,1*%
%TO.N,+1V1*%
X99750000Y-83330000D03*
%TO.P,C3,2*%
%TO.N,GND*%
X99750000Y-82195000D03*
%TD*%
D21*
%TO.P,C11,1*%
%TO.N,+3V3*%
X102890000Y-83912500D03*
%TO.P,C11,2*%
%TO.N,GND*%
X104025000Y-83912500D03*
%TD*%
D18*
%TO.P,C2,1*%
%TO.N,+1V1*%
X98350000Y-95722500D03*
%TO.P,C2,2*%
%TO.N,GND*%
X98350000Y-96857500D03*
%TD*%
D17*
%TO.P,SW31,1,A*%
%TO.N,Net-(D31-Pad2)*%
X169590000Y-130540000D03*
X177210000Y-130540000D03*
%TO.P,SW31,2,B*%
%TO.N,/Col10*%
X169590000Y-125460000D03*
X177210000Y-125460000D03*
%TD*%
D27*
%TO.P,R6,1*%
%TO.N,+3V3*%
X99550000Y-96877500D03*
%TO.P,R6,2*%
%TO.N,/RUN_26*%
X99550000Y-95682500D03*
%TD*%
D21*
%TO.P,C15,1*%
%TO.N,GND*%
X92582500Y-99210000D03*
%TO.P,C15,2*%
%TO.N,/XIN_20*%
X93717500Y-99210000D03*
%TD*%
D17*
%TO.P,SW21,2,B*%
%TO.N,/Col8*%
X153410000Y-109460000D03*
X145790000Y-109460000D03*
%TO.P,SW21,1,A*%
%TO.N,Net-(D21-Pad2)*%
X145790000Y-114540000D03*
X153410000Y-114540000D03*
%TD*%
%TO.P,SW38,1,A*%
%TO.N,Net-(D38-Pad2)*%
X201010000Y-122540000D03*
X193390000Y-122540000D03*
%TO.P,SW38,2,B*%
%TO.N,/Col12*%
X201010000Y-117460000D03*
X193390000Y-117460000D03*
%TD*%
D19*
%TO.P,C6,1*%
%TO.N,+3V3*%
X100750000Y-83330000D03*
%TO.P,C6,2*%
%TO.N,GND*%
X100750000Y-82195000D03*
%TD*%
D17*
%TO.P,SW32,1,A*%
%TO.N,Net-(D32-Pad2)*%
X177210000Y-138540000D03*
X169590000Y-138540000D03*
%TO.P,SW32,2,B*%
%TO.N,/Col10*%
X177210000Y-133460000D03*
X169590000Y-133460000D03*
%TD*%
D28*
%TO.P,S1,1,1*%
%TO.N,/USB_BOOT*%
X84585000Y-71015000D03*
%TO.P,S1,2,2*%
%TO.N,GND*%
X88735000Y-71015000D03*
%TO.P,S1,3,3*%
%TO.N,/USB_BOOT*%
X84585000Y-73165000D03*
%TO.P,S1,4,4*%
%TO.N,GND*%
X88735000Y-73165000D03*
%TD*%
D17*
%TO.P,SW7,1,A*%
%TO.N,Net-(D7-Pad2)*%
X105810000Y-130540000D03*
X98190000Y-130540000D03*
%TO.P,SW7,2,B*%
%TO.N,/Col4*%
X98190000Y-125460000D03*
X105810000Y-125460000D03*
%TD*%
D29*
%TO.P,U2,1,IOVDD*%
%TO.N,+3V3*%
X93282500Y-86942500D03*
%TO.P,U2,2,GPIO0*%
%TO.N,/Row6*%
X93282500Y-87342500D03*
%TO.P,U2,3,GPIO1*%
%TO.N,/Row5*%
X93282500Y-87742500D03*
%TO.P,U2,4,GPIO2*%
%TO.N,/Row4*%
X93282500Y-88142500D03*
%TO.P,U2,5,GPIO3*%
%TO.N,/Row3*%
X93282500Y-88542500D03*
%TO.P,U2,6,GPIO4*%
%TO.N,/Col12*%
X93282500Y-88942500D03*
%TO.P,U2,7,GPIO5*%
%TO.N,/Col11*%
X93282500Y-89342500D03*
%TO.P,U2,8,GPIO6*%
%TO.N,/Col10*%
X93282500Y-89742500D03*
%TO.P,U2,9,GPIO7*%
%TO.N,/Col9*%
X93282500Y-90142500D03*
%TO.P,U2,10,IOVDD*%
%TO.N,+3V3*%
X93282500Y-90542500D03*
%TO.P,U2,11,GPIO8*%
%TO.N,/Col8*%
X93282500Y-90942500D03*
%TO.P,U2,12,GPIO9*%
%TO.N,/Col7*%
X93282500Y-91342500D03*
%TO.P,U2,13,GPIO10*%
%TO.N,/Col6*%
X93282500Y-91742500D03*
%TO.P,U2,14,GPIO11*%
%TO.N,/Col5*%
X93282500Y-92142500D03*
D30*
%TO.P,U2,15,GPIO12*%
%TO.N,/Col4*%
X94120000Y-92980000D03*
%TO.P,U2,16,GPIO13*%
%TO.N,/Col3*%
X94520000Y-92980000D03*
%TO.P,U2,17,GPIO14*%
%TO.N,/Col0*%
X94920000Y-92980000D03*
%TO.P,U2,18,GPIO15*%
%TO.N,/Col1*%
X95320000Y-92980000D03*
%TO.P,U2,19,TESTEN*%
%TO.N,GND*%
X95720000Y-92980000D03*
%TO.P,U2,20,XIN*%
%TO.N,/XIN_20*%
X96120000Y-92980000D03*
%TO.P,U2,21,XOUT*%
%TO.N,/XOUT_21*%
X96520000Y-92980000D03*
%TO.P,U2,22,IOVDD*%
%TO.N,+3V3*%
X96920000Y-92980000D03*
%TO.P,U2,23,DVDD*%
%TO.N,+1V1*%
X97320000Y-92980000D03*
%TO.P,U2,24,SWCLK*%
%TO.N,unconnected-(U2-Pad24)*%
X97720000Y-92980000D03*
%TO.P,U2,25,SWDIO*%
%TO.N,unconnected-(U2-Pad25)*%
X98120000Y-92980000D03*
%TO.P,U2,26,RUN*%
%TO.N,/RUN_26*%
X98520000Y-92980000D03*
%TO.P,U2,27,GPIO16*%
%TO.N,/Col2*%
X98920000Y-92980000D03*
%TO.P,U2,28,GPIO17*%
%TO.N,unconnected-(U2-Pad28)*%
X99320000Y-92980000D03*
D29*
%TO.P,U2,29,GPIO18*%
%TO.N,/Col13*%
X100157500Y-92142500D03*
%TO.P,U2,30,GPIO19*%
%TO.N,/Col14*%
X100157500Y-91742500D03*
%TO.P,U2,31,GPIO20*%
%TO.N,/Col15*%
X100157500Y-91342500D03*
%TO.P,U2,32,GPIO21*%
%TO.N,/Row1*%
X100157500Y-90942500D03*
%TO.P,U2,33,IOVDD*%
%TO.N,+3V3*%
X100157500Y-90542500D03*
%TO.P,U2,34,GPIO22*%
%TO.N,/Row2*%
X100157500Y-90142500D03*
%TO.P,U2,35,GPIO23*%
%TO.N,/Row7*%
X100157500Y-89742500D03*
%TO.P,U2,36,GPIO24*%
%TO.N,unconnected-(U2-Pad36)*%
X100157500Y-89342500D03*
%TO.P,U2,37,GPIO25*%
%TO.N,unconnected-(U2-Pad37)*%
X100157500Y-88942500D03*
%TO.P,U2,38,GPIO26/ADC0*%
%TO.N,unconnected-(U2-Pad38)*%
X100157500Y-88542500D03*
%TO.P,U2,39,GPIO27/ADC1*%
%TO.N,/y_out*%
X100157500Y-88142500D03*
%TO.P,U2,40,GPIO28/ADC2*%
%TO.N,/x_out*%
X100157500Y-87742500D03*
%TO.P,U2,41,GPIO29/ADC3*%
%TO.N,unconnected-(U2-Pad41)*%
X100157500Y-87342500D03*
%TO.P,U2,42,IOVDD*%
%TO.N,+3V3*%
X100157500Y-86942500D03*
D30*
%TO.P,U2,43,ADC_AVDD*%
X99320000Y-86105000D03*
%TO.P,U2,44,VREG_VIN*%
X98920000Y-86105000D03*
%TO.P,U2,45,VREG_VOUT*%
%TO.N,+1V1*%
X98520000Y-86105000D03*
%TO.P,U2,46,USB_DM*%
%TO.N,Net-(R4-Pad1)*%
X98120000Y-86105000D03*
%TO.P,U2,47,USB_DP*%
%TO.N,Net-(R3-Pad1)*%
X97720000Y-86105000D03*
%TO.P,U2,48,USB_VDD*%
%TO.N,+3V3*%
X97320000Y-86105000D03*
%TO.P,U2,49,IOVDD*%
X96920000Y-86105000D03*
%TO.P,U2,50,DVDD*%
%TO.N,+1V1*%
X96520000Y-86105000D03*
%TO.P,U2,51,QSPI_SD3*%
%TO.N,/QSPI_SD3_51*%
X96120000Y-86105000D03*
%TO.P,U2,52,QSPI_SCLK*%
%TO.N,/QSPI_SCLK_52*%
X95720000Y-86105000D03*
%TO.P,U2,53,QSPI_SD0*%
%TO.N,/QSPI_SD0_53*%
X95320000Y-86105000D03*
%TO.P,U2,54,QSPI_SD2*%
%TO.N,/QSPI_SD2_54*%
X94920000Y-86105000D03*
%TO.P,U2,55,QSPI_SD1*%
%TO.N,/QSPI_SD1_55*%
X94520000Y-86105000D03*
%TO.P,U2,56,QSPI_SS_N*%
%TO.N,/QSPI_SS_56*%
X94120000Y-86105000D03*
D31*
%TO.P,U2,57,GND*%
%TO.N,GND*%
X95445000Y-89542500D03*
X96720000Y-88267500D03*
X97995000Y-88267500D03*
D32*
X96720000Y-89542500D03*
D31*
X97995000Y-90817500D03*
X97995000Y-89542500D03*
X96720000Y-89542500D03*
X96720000Y-90817500D03*
X95445000Y-88267500D03*
X95445000Y-90817500D03*
%TD*%
D17*
%TO.P,SW9,1,A*%
%TO.N,Net-(D9-Pad2)*%
X117710000Y-114540000D03*
X110090000Y-114540000D03*
%TO.P,SW9,2,B*%
%TO.N,/Col5*%
X117710000Y-109460000D03*
X110090000Y-109460000D03*
%TD*%
%TO.P,SW13,1,A*%
%TO.N,Net-(D13-Pad2)*%
X121990000Y-114540000D03*
X129610000Y-114540000D03*
%TO.P,SW13,2,B*%
%TO.N,/Col6*%
X129610000Y-109460000D03*
X121990000Y-109460000D03*
%TD*%
%TO.P,SW18,1,A*%
%TO.N,Net-(D18-Pad2)*%
X133890000Y-122540000D03*
X141510000Y-122540000D03*
%TO.P,SW18,2,B*%
%TO.N,/Col7*%
X141510000Y-117460000D03*
X133890000Y-117460000D03*
%TD*%
%TO.P,SW15,1,A*%
%TO.N,Net-(D15-Pad2)*%
X129610000Y-130540000D03*
X121990000Y-130540000D03*
%TO.P,SW15,2,B*%
%TO.N,/Col6*%
X129610000Y-125460000D03*
X121990000Y-125460000D03*
%TD*%
%TO.P,SW5,1,A*%
%TO.N,Net-(D5-Pad2)*%
X105810000Y-114540000D03*
X98190000Y-114540000D03*
%TO.P,SW5,2,B*%
%TO.N,/Col4*%
X98190000Y-109460000D03*
X105810000Y-109460000D03*
%TD*%
%TO.P,SW35,1,A*%
%TO.N,Net-(D35-Pad2)*%
X189110000Y-130540000D03*
X181490000Y-130540000D03*
%TO.P,SW35,2,B*%
%TO.N,/Col11*%
X189110000Y-125460000D03*
X181490000Y-125460000D03*
%TD*%
%TO.P,SW27,1,A*%
%TO.N,Net-(D27-Pad2)*%
X157690000Y-130540000D03*
X165310000Y-130540000D03*
%TO.P,SW27,2,B*%
%TO.N,/Col9*%
X165310000Y-125460000D03*
X157690000Y-125460000D03*
%TD*%
%TO.P,SW24,1,A*%
%TO.N,Net-(D24-Pad2)*%
X153410000Y-138540000D03*
X145790000Y-138540000D03*
%TO.P,SW24,2,B*%
%TO.N,/Col8*%
X153410000Y-133460000D03*
X145790000Y-133460000D03*
%TD*%
D33*
%TO.P,U3,1,GND*%
%TO.N,GND*%
X107340000Y-72440000D03*
%TO.P,U3,2,VO*%
%TO.N,+3V3*%
X105040000Y-72440000D03*
D34*
X105040000Y-78740000D03*
D33*
%TO.P,U3,3,VI*%
%TO.N,VBUS*%
X102740000Y-72440000D03*
%TD*%
D27*
%TO.P,R2,1*%
%TO.N,Net-(C16-Pad2)*%
X95400000Y-97567500D03*
%TO.P,R2,2*%
%TO.N,/XOUT_21*%
X95400000Y-96372500D03*
%TD*%
D35*
%TO.P,Y1,2,2*%
%TO.N,/XIN_20*%
X90340000Y-103740000D03*
%TO.P,Y1,1,1*%
%TO.N,Net-(C16-Pad2)*%
X99340000Y-103740000D03*
%TD*%
D17*
%TO.P,SW29,1,A*%
%TO.N,Net-(D29-Pad2)*%
X169590000Y-114540000D03*
X177210000Y-114540000D03*
%TO.P,SW29,2,B*%
%TO.N,/Col10*%
X177210000Y-109460000D03*
X169590000Y-109460000D03*
%TD*%
%TO.P,SW40,1,A*%
%TO.N,Net-(D40-Pad2)*%
X201010000Y-138540000D03*
X193390000Y-138540000D03*
%TO.P,SW40,2,B*%
%TO.N,/Col12*%
X201010000Y-133460000D03*
X193390000Y-133460000D03*
%TD*%
%TO.P,SW19,1,A*%
%TO.N,Net-(D19-Pad2)*%
X141510000Y-130540000D03*
X133890000Y-130540000D03*
%TO.P,SW19,2,B*%
%TO.N,/Col7*%
X133890000Y-125460000D03*
X141510000Y-125460000D03*
%TD*%
D20*
%TO.P,C7,1*%
%TO.N,+3V3*%
X90517500Y-86672500D03*
%TO.P,C7,2*%
%TO.N,GND*%
X89382500Y-86672500D03*
%TD*%
D36*
%TO.N,+3V3*%
X101520000Y-68210000D03*
X92000000Y-68220000D03*
%TO.N,GND*%
X105065000Y-90810000D03*
X96710000Y-79990000D03*
X100760000Y-81155000D03*
X91545000Y-99210000D03*
X88335000Y-86670000D03*
X89595000Y-76630000D03*
X105055000Y-85570000D03*
X105065000Y-83910000D03*
X93940000Y-97020000D03*
X83370000Y-92520000D03*
X108670000Y-81830000D03*
X97190000Y-97885000D03*
X98040000Y-99210000D03*
X95710000Y-79990000D03*
X88365000Y-90807500D03*
X98350000Y-97895000D03*
X99760000Y-81155000D03*
X95450000Y-70942500D03*
X88740000Y-74215000D03*
X86150000Y-83330000D03*
X107015000Y-70145000D03*
X96350000Y-96850000D03*
%TO.N,/Row4*%
X203268500Y-120998200D03*
X80870000Y-122150000D03*
%TO.N,/Row5*%
X203298500Y-128998200D03*
X80840000Y-126730000D03*
%TO.N,/Col10*%
X89198386Y-136173199D03*
%TO.N,/Col11*%
X89688609Y-136854702D03*
%TO.N,/Col12*%
X90143726Y-137560133D03*
%TO.N,/y_out*%
X79660000Y-100940000D03*
X106480000Y-105360000D03*
X86740000Y-107000000D03*
X109174500Y-102370000D03*
%TO.N,/x_out*%
X107050000Y-106060000D03*
X109980000Y-102760000D03*
X79040000Y-101780000D03*
X87520000Y-107610000D03*
%TO.N,/Col0*%
X83327901Y-94380000D03*
X89637200Y-95862700D03*
%TO.N,/Col1*%
X83327901Y-95380000D03*
X90210000Y-96477200D03*
%TO.N,/Col2*%
X80281744Y-100171311D03*
X86110000Y-106360000D03*
%TO.N,+1V1*%
X96644500Y-84727052D03*
X97580000Y-94690000D03*
X97650000Y-87420000D03*
X97310000Y-91690000D03*
%TO.N,/Row3*%
X80876941Y-113710000D03*
X203218500Y-113000000D03*
%TO.N,/Col3*%
X88234769Y-126825298D03*
%TO.N,/Col4*%
X88681391Y-127536138D03*
%TO.N,/Col5*%
X89209777Y-128188497D03*
%TO.N,/Col6*%
X89700000Y-128870000D03*
%TO.N,/Col7*%
X90155117Y-129575431D03*
%TO.N,/Col8*%
X88223378Y-134810000D03*
%TO.N,/Col9*%
X88670000Y-135520840D03*
%TO.N,Net-(D38-Pad2)*%
X203218500Y-122540000D03*
%TO.N,Net-(D39-Pad2)*%
X203218500Y-130540000D03*
%TO.N,/Row6*%
X84810000Y-139220000D03*
X203290000Y-137008200D03*
%TD*%
D37*
%TO.N,+3V3*%
X82289568Y-91880000D02*
X80960000Y-91880000D01*
D38*
%TO.N,Net-(R4-Pad1)*%
X98740000Y-84182500D02*
X98740000Y-83367500D01*
X98120000Y-86105000D02*
X98120000Y-84802500D01*
X98120000Y-84802500D02*
X98740000Y-84182500D01*
D39*
%TO.N,/USB_D-*%
X97395000Y-69405000D02*
X97395000Y-71275000D01*
D40*
X97400000Y-77942924D02*
X97400000Y-71280000D01*
X98702500Y-79245424D02*
X98702500Y-82135000D01*
D39*
X97395000Y-71275000D02*
X97400000Y-71280000D01*
D40*
X97400000Y-77942924D02*
X98702500Y-79245424D01*
X98702500Y-82135000D02*
X98740000Y-82172500D01*
D38*
%TO.N,Net-(R3-Pad1)*%
X97720000Y-83362500D02*
X97720000Y-86105000D01*
D39*
%TO.N,/USB_D+*%
X96450480Y-70924520D02*
X96450480Y-71240000D01*
X96745000Y-69405000D02*
X96745000Y-70630000D01*
X96745000Y-70630000D02*
X96450480Y-70924520D01*
D40*
X97752500Y-79638248D02*
X97752500Y-82135000D01*
X96450480Y-78336228D02*
X96450480Y-71240000D01*
X97752500Y-82135000D02*
X97720000Y-82167500D01*
X96450480Y-78336228D02*
X97752500Y-79638248D01*
D37*
%TO.N,Net-(C16-Pad2)*%
X95872500Y-99210000D02*
X95870000Y-99210000D01*
X99340000Y-103740000D02*
X96300000Y-103740000D01*
X95040000Y-100550000D02*
X95040000Y-102480000D01*
X95870000Y-99210000D02*
X95040000Y-100040000D01*
X95872500Y-98662500D02*
X95550000Y-98340000D01*
X95872500Y-99210000D02*
X95872500Y-98662500D01*
X95040000Y-100040000D02*
X95040000Y-100550000D01*
X95550000Y-98340000D02*
X95550000Y-97567500D01*
X96300000Y-103740000D02*
X95040000Y-102480000D01*
%TO.N,/XOUT_21*%
X96520000Y-94920000D02*
X95550000Y-95890000D01*
X96520000Y-92980000D02*
X96520000Y-94920000D01*
X95550000Y-95890000D02*
X95550000Y-96372500D01*
D38*
%TO.N,+3V3*%
X90807500Y-90542500D02*
X90540000Y-90810000D01*
X100157500Y-86942500D02*
X99332500Y-86942500D01*
X99320000Y-85652500D02*
X99680000Y-85292500D01*
X93282500Y-90542500D02*
X90807500Y-90542500D01*
X97194011Y-85185989D02*
X97194011Y-83954011D01*
X102632500Y-90542500D02*
X102900000Y-90810000D01*
X93282500Y-86942500D02*
X94197500Y-86942500D01*
X99202500Y-90542500D02*
X99200000Y-90540000D01*
X96920000Y-92518915D02*
X96521085Y-92120000D01*
X98920000Y-86820000D02*
X99100000Y-87000000D01*
X97190000Y-95360000D02*
X96920000Y-95090000D01*
X99320000Y-86930000D02*
X99320000Y-86105000D01*
X98920000Y-86105000D02*
X98920000Y-86820000D01*
X105040000Y-81807500D02*
X105062500Y-81830000D01*
X96790000Y-82240000D02*
X96710000Y-82160000D01*
X94147500Y-90542500D02*
X94150000Y-90540000D01*
X96920000Y-95090000D02*
X96920000Y-92980000D01*
X96790000Y-83550000D02*
X96790000Y-82240000D01*
X105040000Y-78740000D02*
X105040000Y-81807500D01*
X100157500Y-90542500D02*
X102632500Y-90542500D01*
X100157500Y-90542500D02*
X99202500Y-90542500D01*
X97194011Y-83954011D02*
X96790000Y-83550000D01*
X98920000Y-86105000D02*
X98920000Y-85396796D01*
X96920000Y-86105000D02*
X96920000Y-85460000D01*
X94197500Y-86942500D02*
X94200000Y-86940000D01*
X96521085Y-92120000D02*
X96520000Y-92120000D01*
X99320000Y-86105000D02*
X99320000Y-85652500D01*
X93282500Y-90542500D02*
X94147500Y-90542500D01*
X97320000Y-86105000D02*
X97320000Y-85311978D01*
X96920000Y-85460000D02*
X97194011Y-85185989D01*
X96920000Y-92980000D02*
X96920000Y-92518915D01*
X97190000Y-95720000D02*
X97190000Y-95360000D01*
X97320000Y-85311978D02*
X97194011Y-85185989D01*
X99332500Y-86942500D02*
X99320000Y-86930000D01*
X98920000Y-85396796D02*
X99347148Y-84969648D01*
D37*
%TO.N,/RUN_26*%
X98520000Y-94010000D02*
X99550000Y-95040000D01*
X98520000Y-92980000D02*
X98520000Y-94010000D01*
X99550000Y-95040000D02*
X99550000Y-95682500D01*
%TO.N,/QSPI_SS_56*%
X83355000Y-78615000D02*
X84570000Y-78615000D01*
X94120000Y-85690000D02*
X92970000Y-84540000D01*
X94120000Y-86105000D02*
X94120000Y-85690000D01*
X83280000Y-84540000D02*
X82280000Y-83540000D01*
X82280000Y-79690000D02*
X83355000Y-78615000D01*
X84570000Y-76587500D02*
X86130000Y-76587500D01*
X84570000Y-76587500D02*
X84570000Y-78615000D01*
X92970000Y-84540000D02*
X83280000Y-84540000D01*
X82280000Y-83540000D02*
X82280000Y-79690000D01*
%TO.N,/USB_BOOT*%
X84570000Y-75392500D02*
X84585000Y-75377500D01*
X84585000Y-75377500D02*
X84585000Y-73165000D01*
%TO.N,GND*%
X83230000Y-92380000D02*
X83370000Y-92520000D01*
D38*
X90630000Y-76630000D02*
X89595000Y-76630000D01*
X99475000Y-66525000D02*
X97975000Y-66525000D01*
X95710000Y-81025000D02*
X95710000Y-79990000D01*
X95515000Y-66525000D02*
X95785000Y-66255000D01*
D37*
X97007500Y-99210000D02*
X97007500Y-98717500D01*
D38*
X97975000Y-66525000D02*
X97705000Y-66255000D01*
X105907500Y-69310000D02*
X106180000Y-69310000D01*
X107137500Y-81830000D02*
X108670000Y-81830000D01*
X97005000Y-99210000D02*
X98040000Y-99210000D01*
X106180000Y-69310000D02*
X107015000Y-70145000D01*
X95720000Y-94520000D02*
X93940000Y-96300000D01*
X107015000Y-70145000D02*
X107210000Y-70340000D01*
X89400000Y-90807500D02*
X88365000Y-90807500D01*
X99760000Y-82190000D02*
X99760000Y-81155000D01*
D37*
X85245000Y-82425000D02*
X86150000Y-83330000D01*
D38*
X92580000Y-99210000D02*
X91545000Y-99210000D01*
X107210000Y-70340000D02*
X107340000Y-70470000D01*
X95720000Y-92980000D02*
X95720000Y-94520000D01*
D37*
X97007500Y-98717500D02*
X96430000Y-98140000D01*
D38*
X88740000Y-73180000D02*
X88740000Y-74215000D01*
D37*
X82289568Y-92380000D02*
X83230000Y-92380000D01*
D38*
X104030000Y-83910000D02*
X105065000Y-83910000D01*
X96710000Y-81025000D02*
X96710000Y-79990000D01*
X93940000Y-96300000D02*
X93940000Y-97020000D01*
X98350000Y-96860000D02*
X98350000Y-97895000D01*
X100760000Y-82190000D02*
X100760000Y-81155000D01*
X104020000Y-85570000D02*
X105055000Y-85570000D01*
X94015000Y-66525000D02*
X95515000Y-66525000D01*
D37*
X84570000Y-82425000D02*
X85245000Y-82425000D01*
D38*
X95450000Y-69410000D02*
X95450000Y-70942500D01*
X107340000Y-70470000D02*
X107340000Y-72440000D01*
X104030000Y-90810000D02*
X105065000Y-90810000D01*
X97190000Y-96850000D02*
X97190000Y-97885000D01*
X89370000Y-86670000D02*
X88335000Y-86670000D01*
D37*
%TO.N,/Row4*%
X80710000Y-112859616D02*
X80262430Y-113307186D01*
X204960864Y-111830000D02*
X204109520Y-112681344D01*
X80711440Y-103809056D02*
X80711441Y-110628559D01*
X81675282Y-99805214D02*
X81675282Y-102845214D01*
X80870000Y-121743844D02*
X80870000Y-122150000D01*
X81100000Y-116520000D02*
X81101922Y-116521922D01*
X204109520Y-112681344D02*
X204109520Y-120157180D01*
X86873180Y-88142500D02*
X93282500Y-88142500D01*
X81100000Y-114951921D02*
X81100000Y-116520000D01*
X82289568Y-90380000D02*
X81789568Y-90380000D01*
X81101921Y-114804031D02*
X81101921Y-114950000D01*
X83851728Y-90380000D02*
X84721439Y-91249711D01*
X84721439Y-91249711D02*
X84721440Y-96276159D01*
X81675282Y-102845214D02*
X80711440Y-103809056D01*
X84721440Y-96276159D02*
X84725281Y-96280000D01*
X86870680Y-88140000D02*
X86873180Y-88142500D01*
X81849568Y-88140000D02*
X86870680Y-88140000D01*
X81789568Y-90380000D02*
X81508608Y-90099040D01*
X82289568Y-90380000D02*
X83851728Y-90380000D01*
X84725281Y-96755216D02*
X81675282Y-99805214D01*
X81508608Y-88480960D02*
X81849568Y-88140000D01*
X80262430Y-113964540D02*
X81101921Y-114804031D01*
X81101922Y-121511922D02*
X80870000Y-121743844D01*
X81508608Y-90099040D02*
X81508608Y-88480960D01*
X84725281Y-96280000D02*
X84725281Y-96755216D01*
X80262430Y-113307186D02*
X80262430Y-113964540D01*
X205990000Y-111830000D02*
X204960864Y-111830000D01*
X80710000Y-110630000D02*
X80710000Y-112859616D01*
X81101922Y-116521922D02*
X81101922Y-121511922D01*
X204109520Y-120157180D02*
X203268500Y-120998200D01*
X81101921Y-114950000D02*
X81100000Y-114951921D01*
X80711441Y-110628559D02*
X80710000Y-110630000D01*
%TO.N,/Row5*%
X80840000Y-126730000D02*
X80840000Y-126330000D01*
X79872911Y-114125885D02*
X79872910Y-113145842D01*
X80710480Y-120978078D02*
X80710480Y-114963454D01*
X84331921Y-96597712D02*
X84331921Y-94028079D01*
X82289568Y-90880000D02*
X81559088Y-90880000D01*
X81119089Y-88319615D02*
X81696204Y-87742500D01*
X80255489Y-121806913D02*
X80712402Y-121350000D01*
X80320481Y-109571440D02*
X80321921Y-109570000D01*
X81101922Y-126068078D02*
X81101922Y-123250973D01*
X205990000Y-112330000D02*
X205011728Y-112330000D01*
X80320480Y-112698272D02*
X80320481Y-109571440D01*
X81285763Y-99643869D02*
X84331921Y-96597712D01*
X84331921Y-94028079D02*
X84331921Y-92881921D01*
X80712402Y-120980000D02*
X80710480Y-120978078D01*
X80321922Y-103647710D02*
X81285762Y-102683870D01*
X84331921Y-92881921D02*
X84330000Y-92880000D01*
X204499040Y-112842688D02*
X204499040Y-127797660D01*
X205011728Y-112330000D02*
X204499040Y-112842688D01*
X80712402Y-121350000D02*
X80712402Y-120980000D01*
X81559088Y-90880000D02*
X81119088Y-90440000D01*
X82289568Y-90880000D02*
X83800864Y-90880000D01*
X83800864Y-90880000D02*
X84331920Y-91411056D01*
X80321921Y-109570000D02*
X80321922Y-103647710D01*
X80840000Y-126330000D02*
X81101922Y-126068078D01*
X81696204Y-87742500D02*
X93282500Y-87742500D01*
X79872910Y-113145842D02*
X80320480Y-112698272D01*
X80710480Y-114963454D02*
X79872911Y-114125885D01*
X81285762Y-102683870D02*
X81285763Y-99643869D01*
X84331920Y-91411056D02*
X84331920Y-92878080D01*
X204499040Y-127797660D02*
X203298500Y-128998200D01*
X81119088Y-90440000D02*
X81119089Y-88319615D01*
X80255489Y-122404540D02*
X80255489Y-121806913D01*
X81101922Y-123250973D02*
X80255489Y-122404540D01*
%TO.N,/Col10*%
X82283362Y-127289410D02*
X82283363Y-126600000D01*
X178540000Y-133460000D02*
X178590000Y-133460000D01*
X86912068Y-90307068D02*
X87476636Y-89742500D01*
X86283363Y-90940773D02*
X86912068Y-90312068D01*
X178804000Y-125676000D02*
X178804000Y-125425200D01*
X86912068Y-90312068D02*
X86912068Y-90307068D01*
X177210000Y-117460000D02*
X178463400Y-117460000D01*
X177210000Y-133460000D02*
X178540000Y-133460000D01*
X178489800Y-125460000D02*
X178560000Y-125460000D01*
X93282500Y-89742500D02*
X87567500Y-89742500D01*
X178789000Y-117460000D02*
X178804000Y-117475000D01*
X178804000Y-133096000D02*
X178804000Y-133246000D01*
X83233360Y-103490592D02*
X83233362Y-100450591D01*
X82283363Y-126600000D02*
X82270481Y-126587118D01*
X86283361Y-97400592D02*
X86283363Y-90940773D01*
X178463400Y-117460000D02*
X178789000Y-117460000D01*
X178590000Y-133460000D02*
X178804000Y-133246000D01*
X87972748Y-136173199D02*
X87388589Y-135589040D01*
X178804000Y-125095000D02*
X178804000Y-117856000D01*
X89189710Y-136173199D02*
X87972748Y-136173199D01*
X178489800Y-125460000D02*
X178769200Y-125460000D01*
X178804000Y-117216000D02*
X178804000Y-117094000D01*
X82270481Y-110090481D02*
X82270000Y-110090000D01*
X178804000Y-109728000D02*
X178536000Y-109460000D01*
X84210893Y-134467390D02*
X84210894Y-134144701D01*
X178588000Y-125460000D02*
X178804000Y-125676000D01*
X82270000Y-110090000D02*
X82270000Y-104453952D01*
X178804000Y-125425200D02*
X178804000Y-125216000D01*
X178804000Y-117706000D02*
X178804000Y-117475000D01*
X178804000Y-133096000D02*
X178804000Y-125755400D01*
X87476636Y-89742500D02*
X87677500Y-89742500D01*
X178463400Y-117460000D02*
X178560000Y-117460000D01*
X83233362Y-100450591D02*
X86283361Y-97400592D01*
X82270481Y-126587118D02*
X82270481Y-110090481D01*
X178560000Y-117460000D02*
X178560000Y-117462000D01*
X178804000Y-125755400D02*
X178804000Y-125676000D01*
X177210000Y-125460000D02*
X178489800Y-125460000D01*
X178804000Y-117856000D02*
X178804000Y-117754400D01*
X178560000Y-125460000D02*
X178804000Y-125216000D01*
X84210894Y-129216942D02*
X82283362Y-127289410D01*
X87388589Y-135589040D02*
X85332543Y-135589040D01*
X178804000Y-117754400D02*
X178804000Y-117706000D01*
X178560000Y-117462000D02*
X178804000Y-117706000D01*
X178560000Y-125460000D02*
X178588000Y-125460000D01*
X178769200Y-125460000D02*
X178804000Y-125425200D01*
X84210894Y-134144701D02*
X84210894Y-129216942D01*
X82270000Y-104453952D02*
X83233360Y-103490592D01*
X178804000Y-117094000D02*
X178804000Y-109728000D01*
X85332543Y-135589040D02*
X84210893Y-134467390D01*
X178804000Y-125216000D02*
X178804000Y-125095000D01*
X178536000Y-109460000D02*
X177210000Y-109460000D01*
X178804000Y-117475000D02*
X178804000Y-117216000D01*
X178560000Y-117460000D02*
X178804000Y-117216000D01*
%TO.N,/Col11*%
X85893842Y-91823842D02*
X85890000Y-91820000D01*
X190704000Y-125216000D02*
X190704000Y-125095000D01*
X190704000Y-117094000D02*
X190704000Y-109728000D01*
X190488000Y-125460000D02*
X190704000Y-125676000D01*
X190704000Y-117706000D02*
X190704000Y-117475000D01*
X190704000Y-125425200D02*
X190704000Y-125216000D01*
X88103387Y-136854702D02*
X87227245Y-135978560D01*
X85893841Y-97239248D02*
X85893842Y-91823842D01*
X190490000Y-133460000D02*
X190704000Y-133246000D01*
X189110000Y-133460000D02*
X190440000Y-133460000D01*
X81880961Y-112570000D02*
X81880480Y-112569519D01*
X190704000Y-109728000D02*
X190436000Y-109460000D01*
X81880000Y-105660000D02*
X81880000Y-104293088D01*
X87325772Y-89342500D02*
X93282500Y-89342500D01*
X85171199Y-135978560D02*
X83821374Y-134628735D01*
X190389800Y-125460000D02*
X190669200Y-125460000D01*
X81880000Y-104293088D02*
X82843840Y-103329248D01*
X82843843Y-100289246D02*
X85893841Y-97239248D01*
X81880480Y-112569519D02*
X81880481Y-109928655D01*
X190704000Y-133096000D02*
X190704000Y-133246000D01*
X190460000Y-125460000D02*
X190704000Y-125216000D01*
X81880962Y-126817119D02*
X81880961Y-112570000D01*
X81893842Y-127450754D02*
X81893843Y-126830000D01*
X190440000Y-133460000D02*
X190490000Y-133460000D01*
X190460000Y-117462000D02*
X190704000Y-117706000D01*
X81893843Y-126830000D02*
X81880962Y-126817119D01*
X86122019Y-90551253D02*
X86122019Y-90546253D01*
X85890000Y-90783272D02*
X86122019Y-90551253D01*
X85890000Y-91820000D02*
X85890000Y-90783272D01*
X190704000Y-117216000D02*
X190704000Y-117094000D01*
X190460000Y-117460000D02*
X190460000Y-117462000D01*
X83821374Y-129378286D02*
X81893842Y-127450754D01*
X190460000Y-117460000D02*
X190704000Y-117216000D01*
X190363400Y-117460000D02*
X190460000Y-117460000D01*
X190704000Y-117754400D02*
X190704000Y-117706000D01*
X190704000Y-117856000D02*
X190704000Y-117754400D01*
X86122019Y-90546253D02*
X87325772Y-89342500D01*
X190704000Y-125755400D02*
X190704000Y-125676000D01*
X190704000Y-125095000D02*
X190704000Y-117856000D01*
X81880481Y-109928655D02*
X81880481Y-105660481D01*
X190460000Y-125460000D02*
X190488000Y-125460000D01*
X190704000Y-117475000D02*
X190704000Y-117216000D01*
X190689000Y-117460000D02*
X190704000Y-117475000D01*
X190704000Y-125676000D02*
X190704000Y-125425200D01*
X81880481Y-105660481D02*
X81880000Y-105660000D01*
X190363400Y-117460000D02*
X190689000Y-117460000D01*
X190436000Y-109460000D02*
X189110000Y-109460000D01*
X87227245Y-135978560D02*
X85171199Y-135978560D01*
X83821374Y-134628735D02*
X83821374Y-129378286D01*
X190704000Y-133096000D02*
X190704000Y-125755400D01*
X82843840Y-103329248D02*
X82843843Y-100289246D01*
X189110000Y-117460000D02*
X190363400Y-117460000D01*
X89679933Y-136854702D02*
X88103387Y-136854702D01*
X190389800Y-125460000D02*
X190460000Y-125460000D01*
X190669200Y-125460000D02*
X190704000Y-125425200D01*
X189110000Y-125460000D02*
X190389800Y-125460000D01*
%TO.N,/Col12*%
X201010000Y-133460000D02*
X202340000Y-133460000D01*
X202336000Y-109460000D02*
X201010000Y-109460000D01*
X201010000Y-125460000D02*
X202289800Y-125460000D01*
X202604000Y-125676000D02*
X202604000Y-125425200D01*
X202604000Y-125095000D02*
X202604000Y-117856000D01*
X202604000Y-117475000D02*
X202604000Y-117216000D01*
X81504323Y-127030000D02*
X81491442Y-127017119D01*
X202604000Y-133096000D02*
X202604000Y-133246000D01*
X202340000Y-133460000D02*
X202390000Y-133460000D01*
X202390000Y-133460000D02*
X202604000Y-133246000D01*
X82454320Y-102890000D02*
X82454322Y-102889998D01*
X202604000Y-125425200D02*
X202604000Y-125216000D01*
X82454322Y-100755678D02*
X82454324Y-100127901D01*
X202604000Y-133096000D02*
X202604000Y-125755400D01*
X81491441Y-113020000D02*
X81490960Y-113019519D01*
X202360000Y-117460000D02*
X202604000Y-117216000D01*
X202604000Y-109728000D02*
X202336000Y-109460000D01*
X85500480Y-90616928D02*
X87174908Y-88942500D01*
X202360000Y-117462000D02*
X202604000Y-117706000D01*
X202604000Y-117094000D02*
X202604000Y-109728000D01*
X202289800Y-125460000D02*
X202569200Y-125460000D01*
X201010000Y-117460000D02*
X202263400Y-117460000D01*
X83431854Y-129539630D02*
X81504322Y-127612098D01*
X202388000Y-125460000D02*
X202604000Y-125676000D01*
X83431854Y-134790079D02*
X83431854Y-129539630D01*
X85504321Y-97077904D02*
X85504322Y-93470000D01*
X81490480Y-107709519D02*
X81490481Y-104131743D01*
X88257954Y-137560133D02*
X87065901Y-136368080D01*
X87174908Y-88942500D02*
X93282500Y-88942500D01*
X202263400Y-117460000D02*
X202360000Y-117460000D01*
X81504322Y-127612098D02*
X81504323Y-127030000D01*
X85500480Y-93466158D02*
X85500480Y-90616928D01*
X81491442Y-127017119D02*
X81491441Y-113020000D01*
X202289800Y-125460000D02*
X202360000Y-125460000D01*
X202604000Y-125216000D02*
X202604000Y-125095000D01*
X202589000Y-117460000D02*
X202604000Y-117475000D01*
X202263400Y-117460000D02*
X202589000Y-117460000D01*
X202360000Y-125460000D02*
X202388000Y-125460000D01*
X202604000Y-117754400D02*
X202604000Y-117706000D01*
X81490481Y-104131743D02*
X82454320Y-103167904D01*
X85009855Y-136368080D02*
X83431854Y-134790079D01*
X202604000Y-117216000D02*
X202604000Y-117094000D01*
X202604000Y-125755400D02*
X202604000Y-125676000D01*
X202360000Y-117460000D02*
X202360000Y-117462000D01*
X82454320Y-103167904D02*
X82454320Y-102890000D01*
X81490961Y-107710000D02*
X81490480Y-107709519D01*
X82454322Y-102889998D02*
X82454322Y-100755678D01*
X87065901Y-136368080D02*
X85009855Y-136368080D01*
X81490960Y-113019519D02*
X81490961Y-107710000D01*
X202604000Y-117856000D02*
X202604000Y-117754400D01*
X82454324Y-100127901D02*
X85504321Y-97077904D01*
X202604000Y-117706000D02*
X202604000Y-117475000D01*
X85504322Y-93470000D02*
X85500480Y-93466158D01*
X202360000Y-125460000D02*
X202604000Y-125216000D01*
X202569200Y-125460000D02*
X202604000Y-125425200D01*
X90135050Y-137560133D02*
X88257954Y-137560133D01*
%TO.N,/y_out*%
X109174500Y-102370000D02*
X108949520Y-102145020D01*
X92150000Y-107440000D02*
X88219051Y-107440000D01*
X80378520Y-98898520D02*
X79660000Y-99617040D01*
X108949520Y-102145020D02*
X108949520Y-91035934D01*
X81020000Y-98257040D02*
X81008520Y-98268520D01*
X81020481Y-97769519D02*
X81020000Y-97770000D01*
X87774540Y-106995489D02*
X86744511Y-106995489D01*
X81320480Y-93718656D02*
X81020481Y-94018655D01*
X106110864Y-105360000D02*
X106480000Y-105360000D01*
X106056085Y-88142500D02*
X100157500Y-88142500D01*
X104805432Y-106665432D02*
X106110864Y-105360000D01*
X79660000Y-99617040D02*
X79660000Y-100940000D01*
X81008520Y-98268520D02*
X80378520Y-98898520D01*
X86744511Y-106995489D02*
X86740000Y-107000000D01*
X108774065Y-90860480D02*
X106056085Y-88142500D01*
X81020481Y-94018655D02*
X81020481Y-96210481D01*
X92150000Y-107440000D02*
X96380000Y-107440000D01*
X81020000Y-97770000D02*
X81020000Y-98257040D01*
X104030865Y-107439999D02*
X104805432Y-106665432D01*
X88219051Y-107440000D02*
X87774540Y-106995489D01*
X96380000Y-107440000D02*
X104030865Y-107439999D01*
X81659136Y-93380000D02*
X81320480Y-93718656D01*
X82289568Y-93380000D02*
X81659136Y-93380000D01*
X81020481Y-96210481D02*
X81020481Y-97769519D01*
X108949520Y-91035934D02*
X108774065Y-90860480D01*
%TO.N,/x_out*%
X80630480Y-97790000D02*
X80630480Y-98095696D01*
X92229519Y-107829519D02*
X87739519Y-107829519D01*
X109249040Y-101702768D02*
X109249039Y-90911868D01*
X109980000Y-102433728D02*
X109249040Y-101702768D01*
X81608272Y-92880000D02*
X81269616Y-93218656D01*
X80630960Y-96910960D02*
X80630480Y-96911440D01*
X105104952Y-106789498D02*
X105834450Y-106060000D01*
X109249039Y-90911868D02*
X106079670Y-87742500D01*
X106079670Y-87742500D02*
X100157500Y-87742500D01*
X79040000Y-99686176D02*
X79040000Y-101950000D01*
X80630480Y-98095696D02*
X80208088Y-98518088D01*
X80630480Y-96911440D02*
X80630480Y-97790000D01*
X105834450Y-106060000D02*
X107050000Y-106060000D01*
X87739519Y-107829519D02*
X87520000Y-107610000D01*
X80630962Y-93857310D02*
X80630961Y-93857311D01*
X104064931Y-107829519D02*
X105104952Y-106789498D01*
X80208088Y-98518088D02*
X79658088Y-99068088D01*
X103460481Y-107829519D02*
X104064931Y-107829519D01*
X92229519Y-107829519D02*
X103460481Y-107829519D01*
X80630960Y-96631344D02*
X80630960Y-96910960D01*
X79658088Y-99068088D02*
X79040000Y-99686176D01*
X109980000Y-102760000D02*
X109980000Y-102433728D01*
X80630961Y-93857311D02*
X80630960Y-96631344D01*
X82289568Y-92880000D02*
X81608272Y-92880000D01*
X81269616Y-93218656D02*
X80630962Y-93857310D01*
%TO.N,/Col0*%
X82289568Y-94380000D02*
X82874225Y-94380000D01*
X93367496Y-95862700D02*
X93370196Y-95860000D01*
X94920000Y-92980000D02*
X94920000Y-94120000D01*
X93370196Y-95860000D02*
X93370000Y-95860000D01*
X89637200Y-95862700D02*
X93367496Y-95862700D01*
X94410098Y-94820098D02*
X93370196Y-95860000D01*
X94920000Y-94310196D02*
X94410098Y-94820098D01*
X94920000Y-94120000D02*
X94920000Y-94310196D01*
X82874225Y-94380000D02*
X83327901Y-94380000D01*
%TO.N,/Col1*%
X82823361Y-94880000D02*
X82827901Y-94880000D01*
X82289568Y-94880000D02*
X82823361Y-94880000D01*
X82827901Y-94880000D02*
X83327901Y-95380000D01*
X90434981Y-96252219D02*
X90210000Y-96477200D01*
X93206151Y-96252219D02*
X90434981Y-96252219D01*
X95320000Y-94461060D02*
X93528840Y-96252220D01*
X93528840Y-96252220D02*
X93206151Y-96252219D01*
X95320000Y-92980000D02*
X95320000Y-94461060D01*
%TO.N,/Col2*%
X81410000Y-94180000D02*
X81410000Y-95450000D01*
X98920000Y-93720000D02*
X99610000Y-94410000D01*
X87715404Y-106385489D02*
X86135489Y-106385489D01*
X106312403Y-93505859D02*
X106312402Y-104607598D01*
X99610000Y-94410000D02*
X101045579Y-94410000D01*
X88380395Y-107050480D02*
X87715404Y-106385489D01*
X80623952Y-99203952D02*
X80281744Y-99546160D01*
X106312402Y-104607598D02*
X103869520Y-107050480D01*
X81710000Y-93880000D02*
X81430000Y-94160000D01*
X81410000Y-95450000D02*
X81410000Y-98417904D01*
X82289568Y-93880000D02*
X81710000Y-93880000D01*
X86135489Y-106385489D02*
X86110000Y-106360000D01*
X81410000Y-98417904D02*
X81268952Y-98558952D01*
X81430000Y-94160000D02*
X81410000Y-94180000D01*
X103869520Y-107050480D02*
X88380395Y-107050480D01*
X80281744Y-99546160D02*
X80281744Y-100171311D01*
X101045579Y-94410000D02*
X102160000Y-93295579D01*
X102160000Y-93295579D02*
X106102123Y-93295579D01*
X98920000Y-92980000D02*
X98920000Y-93720000D01*
X81268952Y-98558952D02*
X80623952Y-99203952D01*
X106102123Y-93295579D02*
X106312403Y-93505859D01*
%TO.N,/XIN_20*%
X93717500Y-99217500D02*
X94630000Y-100130000D01*
X94630000Y-98297500D02*
X93717500Y-99210000D01*
X94630000Y-96180000D02*
X94630000Y-98297500D01*
X93717500Y-99210000D02*
X93717500Y-99217500D01*
X93370000Y-103740000D02*
X94630000Y-102480000D01*
X90340000Y-103740000D02*
X93370000Y-103740000D01*
X94630000Y-100130000D02*
X94630000Y-102480000D01*
X96120000Y-94690000D02*
X94630000Y-96180000D01*
X96120000Y-92980000D02*
X96120000Y-94690000D01*
%TO.N,unconnected-(U2-Pad36)*%
X100157500Y-89342500D02*
X104447500Y-89342500D01*
%TO.N,unconnected-(U2-Pad37)*%
X100157500Y-88942500D02*
X104447500Y-88942500D01*
%TO.N,unconnected-(U2-Pad38)*%
X100157500Y-88542500D02*
X104447500Y-88542500D01*
%TO.N,unconnected-(U2-Pad41)*%
X100157500Y-87342500D02*
X101277500Y-87342500D01*
X101277500Y-87342500D02*
X104437500Y-87342500D01*
D38*
%TO.N,+1V1*%
X97320000Y-94430000D02*
X97580000Y-94690000D01*
X96520000Y-84851552D02*
X96644500Y-84727052D01*
X98520000Y-86105000D02*
X98520000Y-86980000D01*
X96444519Y-83615579D02*
X96444519Y-84527071D01*
X98520000Y-86105000D02*
X98520000Y-85302500D01*
X99750000Y-84072500D02*
X99750000Y-83330000D01*
X97580000Y-94690000D02*
X98350000Y-95460000D01*
X98350000Y-95460000D02*
X98350000Y-95722500D01*
X97320000Y-92980000D02*
X97320000Y-94430000D01*
X95710000Y-82881060D02*
X96444519Y-83615579D01*
X95710000Y-82160000D02*
X95710000Y-82881060D01*
X98520000Y-85302500D02*
X99750000Y-84072500D01*
X96444519Y-84527071D02*
X96644500Y-84727052D01*
X96520000Y-86105000D02*
X96520000Y-84851552D01*
D37*
%TO.N,/QSPI_SD3_51*%
X96120000Y-83750000D02*
X96120000Y-86105000D01*
X91770000Y-79885000D02*
X93905000Y-79885000D01*
X94710000Y-80690000D02*
X94710000Y-82340000D01*
X94710000Y-82340000D02*
X96120000Y-83750000D01*
X93905000Y-79885000D02*
X94710000Y-80690000D01*
%TO.N,/QSPI_SCLK_52*%
X94120000Y-82560000D02*
X95720000Y-84160000D01*
X95720000Y-84160000D02*
X95720000Y-86105000D01*
X93435000Y-81155000D02*
X94120000Y-81840000D01*
X94120000Y-81840000D02*
X94120000Y-82560000D01*
X91770000Y-81155000D02*
X93435000Y-81155000D01*
D38*
%TO.N,/QSPI_SD0_53*%
X91775000Y-82420000D02*
X91770000Y-82425000D01*
D37*
X95320000Y-86105000D02*
X95320000Y-84530000D01*
X93210000Y-82420000D02*
X91775000Y-82420000D01*
X95320000Y-84530000D02*
X93210000Y-82420000D01*
%TO.N,/QSPI_SD2_54*%
X84570000Y-81155000D02*
X85075000Y-81155000D01*
X85075000Y-81155000D02*
X87310000Y-83390000D01*
X93360000Y-83390000D02*
X87310000Y-83390000D01*
X94920000Y-84950000D02*
X93370000Y-83400000D01*
X94920000Y-86105000D02*
X94920000Y-84950000D01*
%TO.N,/QSPI_SD1_55*%
X83410000Y-83980000D02*
X82810000Y-83380000D01*
X82810000Y-80215000D02*
X83135000Y-79890000D01*
X94520000Y-85360000D02*
X93140000Y-83980000D01*
X83135000Y-79890000D02*
X84565000Y-79890000D01*
X84565000Y-79890000D02*
X84570000Y-79885000D01*
X94520000Y-86105000D02*
X94520000Y-85360000D01*
X82810000Y-83380000D02*
X82810000Y-80215000D01*
X93140000Y-83980000D02*
X83410000Y-83980000D01*
D39*
%TO.N,VBUS*%
X98045000Y-69405000D02*
X98045000Y-70505000D01*
X98045000Y-70505000D02*
X98850000Y-71310000D01*
D37*
%TO.N,/Row3*%
X85114802Y-94190000D02*
X85110960Y-94186158D01*
X204910000Y-111330000D02*
X205990000Y-111330000D01*
X82064802Y-101510000D02*
X82064804Y-99966556D01*
X85114801Y-96916560D02*
X85114802Y-94190000D01*
X82064802Y-103006558D02*
X82064802Y-101510000D01*
X82064804Y-99966556D02*
X85114801Y-96916560D01*
X85110960Y-94186158D02*
X85110960Y-90455584D01*
X203240000Y-113000000D02*
X204910000Y-111330000D01*
X203218500Y-113000000D02*
X203240000Y-113000000D01*
X85110960Y-90455584D02*
X87024044Y-88542500D01*
X80876941Y-113710000D02*
X80876941Y-113243539D01*
X80876941Y-113243539D02*
X81100960Y-113019520D01*
X81100960Y-113019520D02*
X81100960Y-103970400D01*
X87024044Y-88542500D02*
X93282500Y-88542500D01*
X81100960Y-103970400D02*
X82064802Y-103006558D01*
%TO.N,/Col3*%
X95504000Y-117475000D02*
X95504000Y-117216000D01*
X85670000Y-126820000D02*
X85010000Y-126160000D01*
X89010000Y-98530000D02*
X89010000Y-95620864D01*
X95504000Y-133256000D02*
X95504000Y-125676000D01*
X95504000Y-109728000D02*
X95236000Y-109460000D01*
X89601198Y-95029666D02*
X93649666Y-95029666D01*
X95504000Y-125425200D02*
X95504000Y-125216000D01*
X95260000Y-125460000D02*
X95288000Y-125460000D01*
X85960000Y-104620000D02*
X85960000Y-101580000D01*
X93910000Y-117460000D02*
X95163400Y-117460000D01*
X95260000Y-117462000D02*
X95504000Y-117706000D01*
X95504000Y-117216000D02*
X95504000Y-117094000D01*
X95504000Y-125095000D02*
X95504000Y-117856000D01*
X85010000Y-126160000D02*
X85010000Y-105570000D01*
X95504000Y-117856000D02*
X95504000Y-117754400D01*
X95504000Y-125216000D02*
X95504000Y-125095000D01*
X89010000Y-95620864D02*
X89601198Y-95029666D01*
X95504000Y-117094000D02*
X95504000Y-109728000D01*
X93910000Y-133460000D02*
X95300000Y-133460000D01*
X95469200Y-125460000D02*
X95504000Y-125425200D01*
X95260000Y-117460000D02*
X95260000Y-117462000D01*
X95260000Y-117460000D02*
X95504000Y-117216000D01*
X85950000Y-126820000D02*
X85670000Y-126820000D01*
X95504000Y-125676000D02*
X95504000Y-125425200D01*
X95489000Y-117460000D02*
X95504000Y-117475000D01*
X85955298Y-126825298D02*
X85950000Y-126820000D01*
X95163400Y-117460000D02*
X95260000Y-117460000D01*
X95236000Y-109460000D02*
X93910000Y-109460000D01*
X95504000Y-117706000D02*
X95504000Y-117475000D01*
X88234769Y-126825298D02*
X85955298Y-126825298D01*
X95260000Y-125460000D02*
X95504000Y-125216000D01*
X95189800Y-125460000D02*
X95260000Y-125460000D01*
X95288000Y-125460000D02*
X95504000Y-125676000D01*
X95189800Y-125460000D02*
X95469200Y-125460000D01*
X93649666Y-95029666D02*
X94520000Y-94159332D01*
X93910000Y-125460000D02*
X95189800Y-125460000D01*
X95163400Y-117460000D02*
X95489000Y-117460000D01*
X95504000Y-117754400D02*
X95504000Y-117706000D01*
X85010000Y-105570000D02*
X85960000Y-104620000D01*
X95300000Y-133460000D02*
X95504000Y-133256000D01*
X85960000Y-101580000D02*
X89010000Y-98530000D01*
X94520000Y-94159332D02*
X94520000Y-92980000D01*
%TO.N,/Col4*%
X107160000Y-125460000D02*
X107404000Y-125216000D01*
X93488322Y-94640146D02*
X94120000Y-94008468D01*
X107089800Y-125460000D02*
X107160000Y-125460000D01*
X107404000Y-117216000D02*
X107404000Y-117094000D01*
X107160000Y-117462000D02*
X107404000Y-117706000D01*
X85513954Y-127214818D02*
X84620480Y-126321344D01*
X105810000Y-117460000D02*
X107063400Y-117460000D01*
X107404000Y-109728000D02*
X107136000Y-109460000D01*
X107404000Y-117706000D02*
X107404000Y-117475000D01*
X107160000Y-117460000D02*
X107160000Y-117462000D01*
X107160000Y-125460000D02*
X107188000Y-125460000D01*
X107063400Y-117460000D02*
X107160000Y-117460000D01*
X107404000Y-117475000D02*
X107404000Y-117216000D01*
X107063400Y-117460000D02*
X107389000Y-117460000D01*
X94120000Y-94008468D02*
X94120000Y-92980000D01*
X107180000Y-133460000D02*
X107404000Y-133236000D01*
X85570481Y-101418655D02*
X88620480Y-98368656D01*
X87570000Y-127214818D02*
X85513954Y-127214818D01*
X107188000Y-125460000D02*
X107404000Y-125676000D01*
X107404000Y-117856000D02*
X107404000Y-117754400D01*
X107404000Y-125676000D02*
X107404000Y-125425200D01*
X88620481Y-95459519D02*
X89440000Y-94640000D01*
X107404000Y-125216000D02*
X107404000Y-125095000D01*
X84620481Y-105408655D02*
X85570480Y-104458656D01*
X84620480Y-126321344D02*
X84620481Y-105408655D01*
X107089800Y-125460000D02*
X107369200Y-125460000D01*
X107136000Y-109460000D02*
X105810000Y-109460000D01*
X107404000Y-133236000D02*
X107404000Y-125676000D01*
X88681391Y-127536138D02*
X87891320Y-127536138D01*
X105810000Y-125460000D02*
X107089800Y-125460000D01*
X107404000Y-117754400D02*
X107404000Y-117706000D01*
X107389000Y-117460000D02*
X107404000Y-117475000D01*
X107404000Y-125095000D02*
X107404000Y-117856000D01*
X87891320Y-127536138D02*
X87570000Y-127214818D01*
X88620480Y-98368656D02*
X88620481Y-95459519D01*
X105810000Y-133460000D02*
X107180000Y-133460000D01*
X107404000Y-125425200D02*
X107404000Y-125216000D01*
X107404000Y-117094000D02*
X107404000Y-109728000D01*
X85570480Y-104458656D02*
X85570481Y-101418655D01*
X107160000Y-117460000D02*
X107404000Y-117216000D01*
X89440000Y-94640000D02*
X90388844Y-94640000D01*
X90388990Y-94640146D02*
X93488322Y-94640146D01*
X90388844Y-94640000D02*
X90388990Y-94640146D01*
X107369200Y-125460000D02*
X107404000Y-125425200D01*
%TO.N,/Col5*%
X119304000Y-125676000D02*
X119304000Y-125425200D01*
X117710000Y-117460000D02*
X118963400Y-117460000D01*
X119060000Y-117462000D02*
X119304000Y-117706000D01*
X119304000Y-109728000D02*
X119036000Y-109460000D01*
X84230961Y-105247311D02*
X85180960Y-104297312D01*
X92240092Y-92142500D02*
X93282500Y-92142500D01*
X91457208Y-92925384D02*
X92240092Y-92142500D01*
X117710000Y-133460000D02*
X119040000Y-133460000D01*
X119304000Y-133096000D02*
X119304000Y-133246000D01*
X119304000Y-133096000D02*
X119304000Y-125755400D01*
X119304000Y-125755400D02*
X119304000Y-125676000D01*
X119304000Y-117475000D02*
X119304000Y-117216000D01*
X118989800Y-125460000D02*
X119269200Y-125460000D01*
X119269200Y-125460000D02*
X119304000Y-125425200D01*
X88484616Y-92925384D02*
X91457208Y-92925384D01*
X118963400Y-117460000D02*
X119289000Y-117460000D01*
X119289000Y-117460000D02*
X119304000Y-117475000D01*
X119304000Y-117754400D02*
X119304000Y-117706000D01*
X85180960Y-104297312D02*
X85180962Y-101257310D01*
X89209777Y-128188497D02*
X87992815Y-128188497D01*
X88230962Y-93179038D02*
X88484616Y-92925384D01*
X119060000Y-125460000D02*
X119088000Y-125460000D01*
X88230962Y-96151630D02*
X88230963Y-96151629D01*
X84230961Y-126159999D02*
X84230960Y-124250000D01*
X87992815Y-128188497D02*
X87408656Y-127604338D01*
X119304000Y-125425200D02*
X119304000Y-125216000D01*
X88230963Y-96151629D02*
X88230962Y-93179038D01*
X84230960Y-126482688D02*
X84230961Y-126159999D01*
X119090000Y-133460000D02*
X119304000Y-133246000D01*
X119088000Y-125460000D02*
X119304000Y-125676000D01*
X119304000Y-117216000D02*
X119304000Y-117094000D01*
X119060000Y-117460000D02*
X119060000Y-117462000D01*
X84230960Y-124250000D02*
X84230961Y-105247311D01*
X85180962Y-101257310D02*
X88230960Y-98207312D01*
X119304000Y-117706000D02*
X119304000Y-117475000D01*
X119036000Y-109460000D02*
X117710000Y-109460000D01*
X119304000Y-117094000D02*
X119304000Y-109728000D01*
X119304000Y-125216000D02*
X119304000Y-125095000D01*
X87408656Y-127604338D02*
X85352610Y-127604338D01*
X119060000Y-125460000D02*
X119304000Y-125216000D01*
X118989800Y-125460000D02*
X119060000Y-125460000D01*
X119060000Y-117460000D02*
X119304000Y-117216000D01*
X85352610Y-127604338D02*
X84230960Y-126482688D01*
X119304000Y-125095000D02*
X119304000Y-117856000D01*
X118963400Y-117460000D02*
X119060000Y-117460000D01*
X119040000Y-133460000D02*
X119090000Y-133460000D01*
X88230960Y-98207312D02*
X88230962Y-96151630D01*
X117710000Y-125460000D02*
X118989800Y-125460000D01*
X119304000Y-117856000D02*
X119304000Y-117754400D01*
%TO.N,/Col6*%
X131204000Y-117856000D02*
X131204000Y-117754400D01*
X88123454Y-128870000D02*
X87247312Y-127993858D01*
X130936000Y-109460000D02*
X129610000Y-109460000D01*
X131204000Y-117754400D02*
X131204000Y-117706000D01*
X130863400Y-117460000D02*
X130960000Y-117460000D01*
X131204000Y-109728000D02*
X130936000Y-109460000D01*
X130960000Y-117460000D02*
X131204000Y-117216000D01*
X87841442Y-93010286D02*
X88315864Y-92535864D01*
X87841442Y-93020000D02*
X87841442Y-93010286D01*
X130960000Y-117462000D02*
X131204000Y-117706000D01*
X92227500Y-91742500D02*
X92089228Y-91742500D01*
X130990000Y-133460000D02*
X131204000Y-133246000D01*
X131204000Y-125216000D02*
X131204000Y-125095000D01*
X131169200Y-125460000D02*
X131204000Y-125425200D01*
X131189000Y-117460000D02*
X131204000Y-117475000D01*
X84791443Y-101095965D02*
X87841440Y-98045968D01*
X88315864Y-92535864D02*
X91295864Y-92535864D01*
X131204000Y-117475000D02*
X131204000Y-117216000D01*
X87841442Y-93870000D02*
X87841442Y-93020000D01*
X92089228Y-91742500D02*
X91715864Y-92115864D01*
X131204000Y-125425200D02*
X131204000Y-125216000D01*
X91295864Y-92535864D02*
X91385864Y-92445864D01*
X130889800Y-125460000D02*
X131169200Y-125460000D01*
X85191266Y-127993858D02*
X83841441Y-126644033D01*
X84791440Y-104135968D02*
X84791441Y-101890000D01*
X131204000Y-133096000D02*
X131204000Y-133246000D01*
X131204000Y-125676000D02*
X131204000Y-125425200D01*
X83841442Y-105085966D02*
X84791440Y-104135968D01*
X129610000Y-117460000D02*
X130863400Y-117460000D01*
X130889800Y-125460000D02*
X130960000Y-125460000D01*
X130940000Y-133460000D02*
X130990000Y-133460000D01*
X130960000Y-125460000D02*
X130988000Y-125460000D01*
X129610000Y-133460000D02*
X130940000Y-133460000D01*
X91715864Y-92115864D02*
X91302688Y-92529040D01*
X129610000Y-125460000D02*
X130889800Y-125460000D01*
X130960000Y-125460000D02*
X131204000Y-125216000D01*
X130960000Y-117460000D02*
X130960000Y-117462000D01*
X131204000Y-117706000D02*
X131204000Y-117475000D01*
X131204000Y-133096000D02*
X131204000Y-125755400D01*
X93282500Y-91742500D02*
X92227500Y-91742500D01*
X131204000Y-125755400D02*
X131204000Y-125676000D01*
X131204000Y-117216000D02*
X131204000Y-117094000D01*
X87841443Y-95990285D02*
X87841442Y-93870000D01*
X131204000Y-125095000D02*
X131204000Y-117856000D01*
X87841440Y-98045968D02*
X87841443Y-95990285D01*
X84791441Y-101890000D02*
X84791443Y-101095965D01*
X89700000Y-128870000D02*
X88123454Y-128870000D01*
X87247312Y-127993858D02*
X85191266Y-127993858D01*
X83841441Y-126644033D02*
X83841442Y-105085966D01*
X130988000Y-125460000D02*
X131204000Y-125676000D01*
X131204000Y-117094000D02*
X131204000Y-109728000D01*
X130863400Y-117460000D02*
X131189000Y-117460000D01*
%TO.N,/Col7*%
X143089000Y-117460000D02*
X143104000Y-117475000D01*
X86220000Y-128383378D02*
X85360000Y-128383378D01*
X90155117Y-129575431D02*
X88278021Y-129575431D01*
X143104000Y-125425200D02*
X143104000Y-125216000D01*
X91141344Y-92139520D02*
X91938364Y-91342500D01*
X143069200Y-125460000D02*
X143104000Y-125425200D01*
X143104000Y-117216000D02*
X143104000Y-117094000D01*
X91938364Y-91342500D02*
X92282500Y-91342500D01*
X83451923Y-104924621D02*
X84401920Y-103974624D01*
X143104000Y-133096000D02*
X143104000Y-125755400D01*
X83598272Y-126951728D02*
X83451921Y-126805377D01*
X88278021Y-129575431D02*
X87611295Y-128908705D01*
X87451920Y-97884625D02*
X87451921Y-97530000D01*
X83451921Y-125700000D02*
X83451921Y-110608079D01*
X142860000Y-125460000D02*
X142888000Y-125460000D01*
X84401924Y-100934620D02*
X84630100Y-100706445D01*
X143104000Y-125755400D02*
X143104000Y-125676000D01*
X143104000Y-117856000D02*
X143104000Y-117754400D01*
X141510000Y-125460000D02*
X142789800Y-125460000D01*
X142860000Y-125460000D02*
X143104000Y-125216000D01*
X88161344Y-92139520D02*
X91141344Y-92139520D01*
X143104000Y-117706000D02*
X143104000Y-117475000D01*
X84401921Y-101970000D02*
X84401924Y-100934620D01*
X85360000Y-128383378D02*
X85029922Y-128383378D01*
X142860000Y-117460000D02*
X143104000Y-117216000D01*
X87611295Y-128908705D02*
X87086295Y-128383705D01*
X143104000Y-117475000D02*
X143104000Y-117216000D01*
X83451921Y-126805377D02*
X83451921Y-125700000D01*
X84801746Y-128155202D02*
X83979185Y-127332641D01*
X143104000Y-117754400D02*
X143104000Y-117706000D01*
X143104000Y-125676000D02*
X143104000Y-125425200D01*
X87451922Y-92848942D02*
X88161344Y-92139520D01*
X143104000Y-117094000D02*
X143104000Y-109728000D01*
X143104000Y-109728000D02*
X142836000Y-109460000D01*
X142860000Y-117460000D02*
X142860000Y-117462000D01*
X141510000Y-133460000D02*
X142840000Y-133460000D01*
X142888000Y-125460000D02*
X143104000Y-125676000D01*
X93282500Y-91342500D02*
X92282500Y-91342500D01*
X142890000Y-133460000D02*
X143104000Y-133246000D01*
X85029922Y-128383378D02*
X84801746Y-128155202D01*
X142789800Y-125460000D02*
X142860000Y-125460000D01*
X143104000Y-125216000D02*
X143104000Y-125095000D01*
X87085968Y-128383378D02*
X86220000Y-128383378D01*
X142840000Y-133460000D02*
X142890000Y-133460000D01*
X87451921Y-97530000D02*
X87451922Y-92848942D01*
X92282500Y-91342500D02*
X92152500Y-91342500D01*
X84630100Y-100706445D02*
X87451920Y-97884625D01*
X142763400Y-117460000D02*
X142860000Y-117460000D01*
X142836000Y-109460000D02*
X141510000Y-109460000D01*
X142763400Y-117460000D02*
X143089000Y-117460000D01*
X83979185Y-127332641D02*
X83598272Y-126951728D01*
X142860000Y-117462000D02*
X143104000Y-117706000D01*
X83451921Y-110608079D02*
X83451923Y-104924621D01*
X142789800Y-125460000D02*
X143069200Y-125460000D01*
X83451921Y-110608079D02*
X83451921Y-110348079D01*
X141510000Y-117460000D02*
X142763400Y-117460000D01*
X143104000Y-125095000D02*
X143104000Y-117856000D01*
X87086295Y-128383705D02*
X87085968Y-128383378D01*
X84401920Y-103974624D02*
X84401921Y-101970000D01*
X143104000Y-142516000D02*
X143100000Y-142520000D01*
X143104000Y-133096000D02*
X143104000Y-133246000D01*
%TO.N,/Col8*%
X154736000Y-109460000D02*
X153410000Y-109460000D01*
X84989933Y-128894253D02*
X84457840Y-128362160D01*
X155004000Y-117094000D02*
X155004000Y-109728000D01*
X83060000Y-111090000D02*
X83062400Y-111087600D01*
X154760000Y-125460000D02*
X154788000Y-125460000D01*
X154790000Y-133460000D02*
X153410000Y-133460000D01*
X84989933Y-134144702D02*
X84989933Y-128894253D01*
X83062402Y-111092402D02*
X83062404Y-104763276D01*
X91772980Y-90957020D02*
X91787500Y-90957020D01*
X87062402Y-95667598D02*
X87062402Y-92687598D01*
X154760000Y-117460000D02*
X155004000Y-117216000D01*
X155004000Y-117216000D02*
X155004000Y-117094000D01*
X87062402Y-92687598D02*
X88000000Y-91750000D01*
X84012400Y-103813280D02*
X84012400Y-100773281D01*
X83062402Y-111092402D02*
X83060000Y-111090000D01*
X153410000Y-125460000D02*
X154689800Y-125460000D01*
X88214702Y-134810000D02*
X85935231Y-134810000D01*
X155004000Y-117754400D02*
X155004000Y-117706000D01*
X154760000Y-117460000D02*
X154760000Y-117462000D01*
X154663400Y-117460000D02*
X154989000Y-117460000D01*
X90980000Y-91750000D02*
X91772980Y-90957020D01*
X83062402Y-125437598D02*
X83062402Y-111092402D01*
X83062404Y-104763276D02*
X84012400Y-103813280D01*
X87062400Y-97723281D02*
X87062401Y-97490000D01*
X154689800Y-125460000D02*
X154760000Y-125460000D01*
X155004000Y-117475000D02*
X155004000Y-117216000D01*
X155004000Y-109728000D02*
X154736000Y-109460000D01*
X155004000Y-125425200D02*
X155004000Y-125216000D01*
X154989000Y-117460000D02*
X155004000Y-117475000D01*
X154689800Y-125460000D02*
X154969200Y-125460000D01*
X83062402Y-126966722D02*
X83062402Y-125437598D01*
X155004000Y-133246000D02*
X154790000Y-133460000D01*
X85929933Y-134804702D02*
X85649933Y-134804702D01*
X84457840Y-128362160D02*
X83662840Y-127567160D01*
X84012400Y-100773281D02*
X87062400Y-97723281D01*
X155004000Y-125676000D02*
X155004000Y-133246000D01*
X155004000Y-117856000D02*
X155004000Y-117754400D01*
X83662840Y-127567160D02*
X83062402Y-126966722D01*
X88000000Y-91750000D02*
X90980000Y-91750000D01*
X154760000Y-117462000D02*
X155004000Y-117706000D01*
X154760000Y-125460000D02*
X155004000Y-125216000D01*
X155004000Y-125216000D02*
X155004000Y-125095000D01*
X85649933Y-134804702D02*
X84989933Y-134144702D01*
X153410000Y-117460000D02*
X154663400Y-117460000D01*
X155004000Y-117706000D02*
X155004000Y-117475000D01*
X155004000Y-125095000D02*
X155004000Y-117856000D01*
X154969200Y-125460000D02*
X155004000Y-125425200D01*
X87062401Y-97490000D02*
X87062402Y-95667598D01*
X85935231Y-134810000D02*
X85929933Y-134804702D01*
X154663400Y-117460000D02*
X154760000Y-117460000D01*
X154788000Y-125460000D02*
X155004000Y-125676000D01*
X155004000Y-125676000D02*
X155004000Y-125425200D01*
X91787500Y-90942500D02*
X93282500Y-90942500D01*
%TO.N,/Col9*%
X166589800Y-125460000D02*
X166660000Y-125460000D01*
X86672881Y-97561936D02*
X86672882Y-91102118D01*
X166904000Y-125095000D02*
X166904000Y-117856000D01*
X165310000Y-117460000D02*
X166563400Y-117460000D01*
X84600413Y-129055597D02*
X82672882Y-127128066D01*
X84600413Y-134306046D02*
X84600413Y-129055597D01*
X166700000Y-133460000D02*
X165310000Y-133460000D01*
X166660000Y-117460000D02*
X166904000Y-117216000D01*
X166636000Y-109460000D02*
X165310000Y-109460000D01*
X82672882Y-111850000D02*
X82670481Y-111847599D01*
X87871253Y-135520840D02*
X87549933Y-135199520D01*
X166904000Y-125425200D02*
X166904000Y-125216000D01*
X166660000Y-125460000D02*
X166688000Y-125460000D01*
X166563400Y-117460000D02*
X166660000Y-117460000D01*
X166904000Y-117856000D02*
X166904000Y-117754400D01*
X82672883Y-113502883D02*
X82660000Y-113490000D01*
X83622880Y-103651936D02*
X83622881Y-100611936D01*
X166904000Y-117216000D02*
X166904000Y-117094000D01*
X166660000Y-117462000D02*
X166904000Y-117706000D01*
X166904000Y-125216000D02*
X166904000Y-125095000D01*
X166904000Y-125676000D02*
X166904000Y-133256000D01*
X166904000Y-117706000D02*
X166904000Y-117475000D01*
X166589800Y-125460000D02*
X166869200Y-125460000D01*
X88661324Y-135520840D02*
X87871253Y-135520840D01*
X166563400Y-117460000D02*
X166889000Y-117460000D01*
X166660000Y-117460000D02*
X166660000Y-117462000D01*
X82670481Y-107952402D02*
X82672883Y-107950000D01*
X87549933Y-135199520D02*
X85493887Y-135199520D01*
X165310000Y-125460000D02*
X166589800Y-125460000D01*
X166904000Y-109728000D02*
X166636000Y-109460000D01*
X166660000Y-125460000D02*
X166904000Y-125216000D01*
X82672882Y-127128066D02*
X82672883Y-126187117D01*
X166869200Y-125460000D02*
X166904000Y-125425200D01*
X166904000Y-117754400D02*
X166904000Y-117706000D01*
X82672882Y-113477118D02*
X82672882Y-111850000D01*
X166688000Y-125460000D02*
X166904000Y-125676000D01*
X85493887Y-135199520D02*
X84600413Y-134306046D01*
X166904000Y-117475000D02*
X166904000Y-117216000D01*
X93282500Y-90142500D02*
X87632500Y-90142500D01*
X166904000Y-117094000D02*
X166904000Y-109728000D01*
X86672882Y-91102118D02*
X87632500Y-90142500D01*
X82672884Y-104601932D02*
X83622880Y-103651936D01*
X82670481Y-111847599D02*
X82670481Y-107952402D01*
X166904000Y-125676000D02*
X166904000Y-125425200D01*
X82660000Y-113490000D02*
X82672882Y-113477118D01*
X166889000Y-117460000D02*
X166904000Y-117475000D01*
X83622881Y-100611936D02*
X86672881Y-97561936D01*
X82672883Y-126187117D02*
X82672883Y-113502883D01*
X82672883Y-107950000D02*
X82672884Y-104601932D01*
X166904000Y-133256000D02*
X166700000Y-133460000D01*
%TO.N,/Row7*%
X108650000Y-103800000D02*
X108650000Y-91160000D01*
X108650000Y-91160000D02*
X107230000Y-89740000D01*
X110853175Y-105996825D02*
X110850000Y-106000000D01*
X104447500Y-89742500D02*
X100157500Y-89742500D01*
X207120000Y-113330000D02*
X207730000Y-112720000D01*
X110850000Y-106000000D02*
X108650000Y-103800000D01*
X205946823Y-105996824D02*
X204860000Y-105996825D01*
X207730000Y-112720000D02*
X207730000Y-107780000D01*
X107230000Y-89740000D02*
X104450000Y-89740000D01*
X207730000Y-107780000D02*
X205946823Y-105996824D01*
X104450000Y-89740000D02*
X104447500Y-89742500D01*
X205990000Y-113330000D02*
X207120000Y-113330000D01*
X204860000Y-105996825D02*
X110853175Y-105996825D01*
%TO.N,/Row2*%
X206154568Y-106755432D02*
X205785480Y-106386344D01*
X108260481Y-100930481D02*
X108260480Y-103961344D01*
X104417500Y-90142500D02*
X104420000Y-90140000D01*
X107079136Y-90140000D02*
X108260480Y-91321344D01*
X205462791Y-106386345D02*
X201426345Y-106386345D01*
X206940480Y-110830000D02*
X207340480Y-110430000D01*
X207340480Y-107941344D02*
X207314568Y-107915432D01*
X104420000Y-90140000D02*
X107079136Y-90140000D01*
X207340480Y-110430000D02*
X207340480Y-108930000D01*
X205785480Y-106386344D02*
X205462791Y-106386345D01*
X108260000Y-100930000D02*
X108260481Y-100930481D01*
X205990000Y-110830000D02*
X206940480Y-110830000D01*
X207314568Y-107915432D02*
X206154568Y-106755432D01*
X111146826Y-106389519D02*
X111150000Y-106386345D01*
X108260480Y-100929520D02*
X108260000Y-100930000D01*
X108260480Y-91321344D02*
X108260480Y-100929520D01*
X100157500Y-90142500D02*
X104417500Y-90142500D01*
X207340480Y-108930000D02*
X207340480Y-107941344D01*
X110688655Y-106389519D02*
X111146826Y-106389519D01*
X108260480Y-103961344D02*
X110688655Y-106389519D01*
X111150000Y-106386345D02*
X201426345Y-106386345D01*
X201426345Y-106386345D02*
X201290000Y-106386345D01*
%TO.N,/Row1*%
X205990000Y-110330000D02*
X206610960Y-110330000D01*
X206950960Y-108102688D02*
X205624136Y-106775864D01*
X201128656Y-106775865D02*
X111270000Y-106775865D01*
X107870961Y-104122689D02*
X107870961Y-101410000D01*
X107870481Y-99929519D02*
X107870961Y-99929039D01*
X111270000Y-106775865D02*
X111266827Y-106779038D01*
X111266827Y-106779038D02*
X110527310Y-106779038D01*
X107870481Y-101409520D02*
X107870481Y-99929519D01*
X206950960Y-109140000D02*
X206950960Y-108110000D01*
X205624136Y-106775864D02*
X201174136Y-106775864D01*
X201174136Y-106775864D02*
X201128656Y-106775865D01*
X101665000Y-90940000D02*
X100170000Y-90940000D01*
X107870961Y-101410000D02*
X107870481Y-101409520D01*
X108229136Y-104480864D02*
X107870961Y-104122689D01*
X110527310Y-106779038D02*
X109745049Y-105996777D01*
X107870961Y-99929039D02*
X107870961Y-92860961D01*
X109745049Y-105996777D02*
X108229136Y-104480864D01*
X102467500Y-91737500D02*
X101670000Y-90940000D01*
X206610960Y-110330000D02*
X206950960Y-109990000D01*
X107870961Y-92860961D02*
X106747500Y-91737500D01*
X206950960Y-108110000D02*
X206950960Y-108102688D01*
X106747500Y-91737500D02*
X102467500Y-91737500D01*
X107870961Y-99929039D02*
X107870961Y-101410000D01*
X206950960Y-109990000D02*
X206950960Y-109140000D01*
%TO.N,/Col13*%
X106701922Y-104606242D02*
X110044720Y-107949040D01*
X106263467Y-92906059D02*
X106701921Y-93344513D01*
X110044720Y-107949040D02*
X186949040Y-107949040D01*
X102628845Y-92906059D02*
X106263467Y-92906059D01*
X106701921Y-93344513D02*
X106701922Y-104606242D01*
X202852696Y-107944424D02*
X204738272Y-109830000D01*
X186949040Y-107949040D02*
X186950000Y-107950000D01*
X204738272Y-109830000D02*
X205990000Y-109830000D01*
X186950962Y-107949038D02*
X201755386Y-107949038D01*
X186950000Y-107950000D02*
X186950962Y-107949038D01*
X201760000Y-107944424D02*
X202852696Y-107944424D01*
X101983466Y-92906058D02*
X102628845Y-92906059D01*
X100157500Y-92142500D02*
X101219908Y-92142500D01*
X201755386Y-107949038D02*
X201760000Y-107944424D01*
X101219908Y-92142500D02*
X101983466Y-92906058D01*
%TO.N,/Col14*%
X205990000Y-109330000D02*
X204789136Y-109330000D01*
X110204622Y-107558078D02*
X107091441Y-104444897D01*
X102144811Y-92516539D02*
X101360292Y-91732020D01*
X204789136Y-109330000D02*
X203014040Y-107554904D01*
X203014040Y-107554904D02*
X200530000Y-107554904D01*
X200530000Y-107554904D02*
X200525385Y-107559519D01*
X106424811Y-92516539D02*
X102144811Y-92516539D01*
X110720000Y-107558078D02*
X110204622Y-107558078D01*
X200525385Y-107559519D02*
X110721442Y-107559520D01*
X100962980Y-91732020D02*
X100952500Y-91742500D01*
X110721442Y-107559520D02*
X110720000Y-107558078D01*
X107091441Y-104444897D02*
X107091441Y-93183169D01*
X107091441Y-93183169D02*
X106424811Y-92516539D01*
X100952500Y-91742500D02*
X100157500Y-91742500D01*
X101360292Y-91732020D02*
X100962980Y-91732020D01*
%TO.N,/Col15*%
X107480961Y-103589519D02*
X107480961Y-93021825D01*
X107481442Y-103590000D02*
X107480961Y-103589519D01*
X107481441Y-104284033D02*
X107481442Y-103590000D01*
X136815220Y-107165384D02*
X136810604Y-107170000D01*
X111498558Y-107168558D02*
X110365965Y-107168557D01*
X110365965Y-107168557D02*
X107481441Y-104284033D01*
X111500000Y-107170000D02*
X111498558Y-107168558D01*
X136810604Y-107170000D02*
X111500000Y-107170000D01*
X205990000Y-108830000D02*
X204840000Y-108830000D01*
X107480961Y-93021825D02*
X106586156Y-92127020D01*
X203175384Y-107165384D02*
X136815220Y-107165384D01*
X204840000Y-108830000D02*
X203175384Y-107165384D01*
X101521636Y-91342500D02*
X100157500Y-91342500D01*
X102306156Y-92127020D02*
X101521636Y-91342500D01*
X106586156Y-92127020D02*
X102306156Y-92127020D01*
%TO.N,/Row6*%
X205062592Y-112830000D02*
X204888560Y-113004032D01*
X83942401Y-96436366D02*
X80896243Y-99482525D01*
X79865970Y-122565885D02*
X80712402Y-123412317D01*
X82289568Y-91380000D02*
X83750000Y-91380000D01*
X204888560Y-135409640D02*
X203290000Y-137008200D01*
X80896244Y-100279999D02*
X80896242Y-102522526D01*
X79483390Y-112984498D02*
X79483392Y-114287230D01*
X80729569Y-90601345D02*
X80729570Y-88158270D01*
X81508224Y-91380000D02*
X80729569Y-90601345D01*
X81545340Y-87342500D02*
X93282500Y-87342500D01*
X79930962Y-112536926D02*
X79483390Y-112984498D01*
X79932402Y-105680000D02*
X79930961Y-105681441D01*
X83942401Y-93020000D02*
X83942401Y-92920000D01*
X82289568Y-91380000D02*
X81508224Y-91380000D01*
X205990000Y-112830000D02*
X205062592Y-112830000D01*
X83042334Y-134951423D02*
X84810000Y-136719089D01*
X83942401Y-96436366D02*
X83942401Y-95180000D01*
X80712402Y-125906734D02*
X80225489Y-126393647D01*
X83042334Y-129801385D02*
X83042334Y-134951423D01*
X79483392Y-114287230D02*
X80320960Y-115124798D01*
X80225489Y-126984540D02*
X83042334Y-129801385D01*
X80320960Y-121190578D02*
X79865969Y-121645569D01*
X80729570Y-88158270D02*
X81545340Y-87342500D01*
X80896243Y-99482525D02*
X80896244Y-100279999D01*
X204888560Y-113004032D02*
X204888560Y-135409640D01*
X80712402Y-123412317D02*
X80712402Y-125906734D01*
X79932402Y-103486366D02*
X79932402Y-105680000D01*
X79865969Y-121645569D02*
X79865970Y-122565885D01*
X79930961Y-105681441D02*
X79930962Y-112536926D01*
X80320960Y-115124798D02*
X80320960Y-121190578D01*
X84810000Y-136719089D02*
X84810000Y-139220000D01*
X80225489Y-126393647D02*
X80225489Y-126984540D01*
X80896242Y-102522526D02*
X79932402Y-103486366D01*
X83942401Y-95180000D02*
X83942401Y-93020000D01*
X83750000Y-91380000D02*
X83940481Y-91570481D01*
X83940481Y-91570481D02*
X83940481Y-92920000D01*
%TD*%
%TA.AperFunction,Conductor*%
%TO.N,+1V1*%
G36*
X98655148Y-86744352D02*
G01*
X98669500Y-86779000D01*
X98669500Y-86790503D01*
X98668558Y-86800060D01*
X98664592Y-86820000D01*
X98684034Y-86917741D01*
X98686716Y-86921755D01*
X98698907Y-86940000D01*
X98711742Y-86959209D01*
X98720000Y-86986432D01*
X98720000Y-87711000D01*
X98705648Y-87745648D01*
X98671000Y-87760000D01*
X95120000Y-87760000D01*
X95120000Y-87797156D01*
X95105648Y-87831804D01*
X95098754Y-87837538D01*
X95098440Y-87837754D01*
X95094304Y-87839591D01*
X95016795Y-87917235D01*
X94972435Y-88017577D01*
X94972008Y-88021235D01*
X94972008Y-88021237D01*
X94969664Y-88041339D01*
X94969663Y-88041348D01*
X94969500Y-88042750D01*
X94969500Y-91042250D01*
X94972555Y-91067932D01*
X95017091Y-91168196D01*
X95020292Y-91171391D01*
X95020293Y-91171393D01*
X95055803Y-91206841D01*
X95094735Y-91245705D01*
X95098873Y-91247534D01*
X95098874Y-91247535D01*
X95191708Y-91288576D01*
X95191710Y-91288577D01*
X95195077Y-91290065D01*
X95198735Y-91290492D01*
X95198737Y-91290492D01*
X95218839Y-91292836D01*
X95218848Y-91292837D01*
X95220250Y-91293000D01*
X97641000Y-91293000D01*
X97675648Y-91307352D01*
X97690000Y-91342000D01*
X97690000Y-92031000D01*
X97675648Y-92065648D01*
X97641000Y-92080000D01*
X96959000Y-92080000D01*
X96924352Y-92065648D01*
X96910000Y-92031000D01*
X96910000Y-91750000D01*
X94559000Y-91750000D01*
X94524352Y-91735648D01*
X94510000Y-91701000D01*
X94510000Y-87379000D01*
X94524352Y-87344352D01*
X94559000Y-87330000D01*
X97310000Y-87330000D01*
X97310000Y-87119000D01*
X97324352Y-87084352D01*
X97359000Y-87070000D01*
X97720000Y-87070000D01*
X97720000Y-86779000D01*
X97734352Y-86744352D01*
X97769000Y-86730000D01*
X98620500Y-86730000D01*
X98655148Y-86744352D01*
G37*
%TD.AperFunction*%
%TD*%
%TA.AperFunction,Conductor*%
%TO.N,VBUS*%
G36*
X102925689Y-68119685D02*
G01*
X102971444Y-68172489D01*
X102981388Y-68241647D01*
X102952363Y-68305203D01*
X102946407Y-68311605D01*
X102901184Y-68356907D01*
X102892308Y-68368145D01*
X102807119Y-68506348D01*
X102801076Y-68519307D01*
X102749828Y-68673814D01*
X102747006Y-68686980D01*
X102737322Y-68781490D01*
X102737000Y-68787798D01*
X102737000Y-69038170D01*
X102741404Y-69053169D01*
X102742774Y-69054356D01*
X102750332Y-69056000D01*
X103962500Y-69056000D01*
X104029539Y-69075685D01*
X104075294Y-69128489D01*
X104086500Y-69180000D01*
X104086500Y-70525169D01*
X104090904Y-70540168D01*
X104092274Y-70541355D01*
X104099832Y-70542999D01*
X104217165Y-70542999D01*
X104223541Y-70542669D01*
X104319318Y-70532732D01*
X104332497Y-70529886D01*
X104416758Y-70501775D01*
X104486581Y-70499232D01*
X104546695Y-70534842D01*
X104578014Y-70597299D01*
X104580000Y-70619402D01*
X104580000Y-70686000D01*
X104560315Y-70753039D01*
X104507511Y-70798794D01*
X104456000Y-70810000D01*
X103290000Y-70810000D01*
X103289856Y-70822985D01*
X103287166Y-70835029D01*
X103253342Y-70896166D01*
X103191835Y-70929310D01*
X103166148Y-70932000D01*
X103011830Y-70932000D01*
X102996831Y-70936404D01*
X102995644Y-70937774D01*
X102994000Y-70945332D01*
X102994000Y-73930169D01*
X102998404Y-73945168D01*
X102999774Y-73946355D01*
X103007332Y-73947999D01*
X103129849Y-73947999D01*
X103196888Y-73967684D01*
X103242643Y-74020488D01*
X103253841Y-74073372D01*
X103251378Y-74295682D01*
X103251359Y-74297374D01*
X103230933Y-74364191D01*
X103177626Y-74409358D01*
X103127367Y-74420000D01*
X98514319Y-74420000D01*
X98447280Y-74400315D01*
X98401525Y-74347511D01*
X98390319Y-74295682D01*
X98392398Y-73484726D01*
X101482001Y-73484726D01*
X101482364Y-73491431D01*
X101487908Y-73542477D01*
X101491478Y-73557488D01*
X101536727Y-73678190D01*
X101545126Y-73693532D01*
X101621798Y-73795835D01*
X101634165Y-73808202D01*
X101736468Y-73884874D01*
X101751810Y-73893273D01*
X101872515Y-73938524D01*
X101887518Y-73942091D01*
X101938573Y-73947637D01*
X101945271Y-73948000D01*
X102468170Y-73948000D01*
X102483169Y-73943596D01*
X102484356Y-73942226D01*
X102486000Y-73934668D01*
X102486000Y-72711830D01*
X102481596Y-72696831D01*
X102480226Y-72695644D01*
X102472668Y-72694000D01*
X101499831Y-72694000D01*
X101484832Y-72698404D01*
X101483645Y-72699774D01*
X101482001Y-72707332D01*
X101482001Y-73484726D01*
X98392398Y-73484726D01*
X98395774Y-72168170D01*
X101482000Y-72168170D01*
X101486404Y-72183169D01*
X101487774Y-72184356D01*
X101495332Y-72186000D01*
X102468170Y-72186000D01*
X102483169Y-72181596D01*
X102484356Y-72180226D01*
X102486000Y-72172668D01*
X102486000Y-70949831D01*
X102481596Y-70934832D01*
X102480226Y-70933645D01*
X102472668Y-70932001D01*
X101945274Y-70932001D01*
X101938569Y-70932364D01*
X101887523Y-70937908D01*
X101872512Y-70941478D01*
X101751810Y-70986727D01*
X101736468Y-70995126D01*
X101634165Y-71071798D01*
X101621798Y-71084165D01*
X101545126Y-71186468D01*
X101536727Y-71201810D01*
X101491476Y-71322515D01*
X101487909Y-71337518D01*
X101482363Y-71388573D01*
X101482000Y-71395271D01*
X101482000Y-72168170D01*
X98395774Y-72168170D01*
X98398943Y-70932364D01*
X98399281Y-70800351D01*
X98419138Y-70733363D01*
X98472059Y-70687744D01*
X98479758Y-70684559D01*
X98483193Y-70683271D01*
X98498532Y-70674874D01*
X98600835Y-70598202D01*
X98613202Y-70585835D01*
X98625343Y-70569635D01*
X98681300Y-70527794D01*
X98724569Y-70520000D01*
X100850000Y-70520000D01*
X100850000Y-70024000D01*
X100869685Y-69956961D01*
X100922489Y-69911206D01*
X100974000Y-69900000D01*
X102070000Y-69900000D01*
X102069623Y-69832165D01*
X102737001Y-69832165D01*
X102737331Y-69838541D01*
X102747268Y-69934318D01*
X102750114Y-69947494D01*
X102801627Y-70101900D01*
X102807698Y-70114859D01*
X102893126Y-70252909D01*
X102902016Y-70264125D01*
X103016906Y-70378816D01*
X103028145Y-70387692D01*
X103166348Y-70472881D01*
X103179307Y-70478924D01*
X103333814Y-70530172D01*
X103346980Y-70532994D01*
X103441490Y-70542678D01*
X103447798Y-70543000D01*
X103560670Y-70543000D01*
X103575669Y-70538596D01*
X103576856Y-70537226D01*
X103578500Y-70529668D01*
X103578500Y-69581830D01*
X103574096Y-69566831D01*
X103572726Y-69565644D01*
X103565168Y-69564000D01*
X102754831Y-69564000D01*
X102739832Y-69568404D01*
X102738645Y-69569774D01*
X102737001Y-69577332D01*
X102737001Y-69832165D01*
X102069623Y-69832165D01*
X102068149Y-69566831D01*
X102060693Y-68224689D01*
X102080005Y-68157541D01*
X102132554Y-68111494D01*
X102184691Y-68100000D01*
X102858650Y-68100000D01*
X102925689Y-68119685D01*
G37*
%TD.AperFunction*%
%TD*%
%TA.AperFunction,Conductor*%
%TO.N,GND*%
G36*
X94222532Y-96123020D02*
G01*
X94279368Y-96165567D01*
X94304179Y-96232087D01*
X94304500Y-96241076D01*
X94304500Y-98110484D01*
X94284498Y-98178605D01*
X94267595Y-98199579D01*
X93854579Y-98612595D01*
X93792267Y-98646621D01*
X93765484Y-98649500D01*
X93473084Y-98649500D01*
X93400723Y-98660961D01*
X93330312Y-98651861D01*
X93291917Y-98625607D01*
X93205251Y-98538941D01*
X93192824Y-98529301D01*
X93064022Y-98453128D01*
X93049586Y-98446881D01*
X92904464Y-98404719D01*
X92891860Y-98402417D01*
X92863608Y-98400193D01*
X92858679Y-98400000D01*
X92850615Y-98400000D01*
X92835376Y-98404475D01*
X92834171Y-98405865D01*
X92832500Y-98413548D01*
X92832500Y-100001885D01*
X92836975Y-100017124D01*
X92838365Y-100018329D01*
X92846048Y-100020000D01*
X92858679Y-100020000D01*
X92863608Y-100019807D01*
X92891860Y-100017583D01*
X92904464Y-100015281D01*
X93049586Y-99973119D01*
X93064022Y-99966872D01*
X93192824Y-99890699D01*
X93205251Y-99881059D01*
X93291917Y-99794393D01*
X93354229Y-99760367D01*
X93400723Y-99759039D01*
X93473084Y-99770500D01*
X93757984Y-99770500D01*
X93826105Y-99790502D01*
X93847079Y-99807405D01*
X94267595Y-100227921D01*
X94301621Y-100290233D01*
X94304500Y-100317016D01*
X94304500Y-102292984D01*
X94284498Y-102361105D01*
X94267595Y-102382079D01*
X93605595Y-103044079D01*
X93543283Y-103078105D01*
X93472468Y-103073040D01*
X93415632Y-103030493D01*
X93390821Y-102963973D01*
X93390500Y-102954984D01*
X93390500Y-102665326D01*
X93375966Y-102592260D01*
X93320601Y-102509399D01*
X93237740Y-102454034D01*
X93164674Y-102439500D01*
X87515326Y-102439500D01*
X87442260Y-102454034D01*
X87359399Y-102509399D01*
X87304034Y-102592260D01*
X87289500Y-102665326D01*
X87289500Y-104814674D01*
X87304034Y-104887740D01*
X87359399Y-104970601D01*
X87442260Y-105025966D01*
X87515326Y-105040500D01*
X93164674Y-105040500D01*
X93237740Y-105025966D01*
X93320601Y-104970601D01*
X93375966Y-104887740D01*
X93390500Y-104814674D01*
X93390500Y-104170460D01*
X93410502Y-104102339D01*
X93464158Y-104055846D01*
X93472425Y-104052460D01*
X93483045Y-104050588D01*
X93492594Y-104045075D01*
X93495869Y-104043883D01*
X93499031Y-104042409D01*
X93509684Y-104039554D01*
X93540544Y-104017945D01*
X93549815Y-104012039D01*
X93572906Y-103998707D01*
X93582455Y-103993194D01*
X93606685Y-103964317D01*
X93614111Y-103956215D01*
X94745905Y-102824421D01*
X94808217Y-102790395D01*
X94879032Y-102795460D01*
X94924095Y-102824421D01*
X96055889Y-103956215D01*
X96063315Y-103964318D01*
X96087545Y-103993194D01*
X96097094Y-103998707D01*
X96120185Y-104012039D01*
X96129456Y-104017945D01*
X96160316Y-104039554D01*
X96170968Y-104042408D01*
X96174124Y-104043880D01*
X96177404Y-104045074D01*
X96186955Y-104050588D01*
X96197815Y-104052503D01*
X96206594Y-104055698D01*
X96263766Y-104097793D01*
X96289104Y-104164114D01*
X96289500Y-104174100D01*
X96289500Y-104814674D01*
X96304034Y-104887740D01*
X96359399Y-104970601D01*
X96442260Y-105025966D01*
X96515326Y-105040500D01*
X102164674Y-105040500D01*
X102237740Y-105025966D01*
X102320601Y-104970601D01*
X102375966Y-104887740D01*
X102390500Y-104814674D01*
X102390500Y-102665326D01*
X102375966Y-102592260D01*
X102320601Y-102509399D01*
X102237740Y-102454034D01*
X102164674Y-102439500D01*
X96515326Y-102439500D01*
X96442260Y-102454034D01*
X96359399Y-102509399D01*
X96304034Y-102592260D01*
X96289500Y-102665326D01*
X96289500Y-102964984D01*
X96269498Y-103033105D01*
X96215842Y-103079598D01*
X96145568Y-103089702D01*
X96080988Y-103060208D01*
X96074405Y-103054079D01*
X95402405Y-102382079D01*
X95368379Y-102319767D01*
X95365500Y-102292984D01*
X95365500Y-100227017D01*
X95385502Y-100158896D01*
X95402405Y-100137921D01*
X95732923Y-99807404D01*
X95795235Y-99773379D01*
X95822018Y-99770500D01*
X96116916Y-99770500D01*
X96189277Y-99759039D01*
X96259688Y-99768139D01*
X96298083Y-99794393D01*
X96384749Y-99881059D01*
X96397176Y-99890699D01*
X96525978Y-99966872D01*
X96540414Y-99973119D01*
X96685536Y-100015281D01*
X96698140Y-100017583D01*
X96726392Y-100019807D01*
X96731321Y-100020000D01*
X96739385Y-100020000D01*
X96754624Y-100015525D01*
X96755829Y-100014135D01*
X96757500Y-100006452D01*
X96757500Y-100001885D01*
X97257500Y-100001885D01*
X97261975Y-100017124D01*
X97263365Y-100018329D01*
X97271048Y-100020000D01*
X97283679Y-100020000D01*
X97288608Y-100019807D01*
X97316860Y-100017583D01*
X97329464Y-100015281D01*
X97474586Y-99973119D01*
X97489022Y-99966872D01*
X97617824Y-99890699D01*
X97630251Y-99881059D01*
X97736059Y-99775251D01*
X97745699Y-99762824D01*
X97821872Y-99634022D01*
X97828119Y-99619586D01*
X97870283Y-99474457D01*
X97870408Y-99473775D01*
X97868139Y-99462970D01*
X97856674Y-99460000D01*
X97275615Y-99460000D01*
X97260376Y-99464475D01*
X97259171Y-99465865D01*
X97257500Y-99473548D01*
X97257500Y-100001885D01*
X96757500Y-100001885D01*
X96757500Y-99086000D01*
X96777502Y-99017879D01*
X96831158Y-98971386D01*
X96883500Y-98960000D01*
X97854615Y-98960000D01*
X97869408Y-98955656D01*
X97870747Y-98948082D01*
X97870283Y-98945543D01*
X97828119Y-98800414D01*
X97821869Y-98785972D01*
X97752381Y-98668474D01*
X97734921Y-98599658D01*
X97757438Y-98532327D01*
X97812782Y-98487858D01*
X97860630Y-98478335D01*
X102893468Y-98470204D01*
X102961620Y-98490096D01*
X103008200Y-98543677D01*
X103019671Y-98596531D01*
X103013221Y-101080000D01*
X103002990Y-105019072D01*
X103000326Y-106044558D01*
X102980147Y-106112627D01*
X102926370Y-106158980D01*
X102874559Y-106170231D01*
X88041584Y-106197531D01*
X87973427Y-106177654D01*
X87944830Y-106152521D01*
X87934944Y-106140739D01*
X87927859Y-106132295D01*
X87918310Y-106126782D01*
X87895219Y-106113450D01*
X87885948Y-106107544D01*
X87864119Y-106092259D01*
X87855088Y-106085935D01*
X87844438Y-106083081D01*
X87841270Y-106081604D01*
X87837994Y-106080412D01*
X87828449Y-106074901D01*
X87794705Y-106068951D01*
X87791346Y-106068359D01*
X87780619Y-106065981D01*
X87744211Y-106056225D01*
X87733226Y-106057186D01*
X87733224Y-106057186D01*
X87706676Y-106059509D01*
X87695694Y-106059989D01*
X86826000Y-106059989D01*
X86757879Y-106039987D01*
X86711386Y-105986331D01*
X86700000Y-105933989D01*
X86700000Y-101352516D01*
X86720002Y-101284395D01*
X86736905Y-101263421D01*
X87710094Y-100290233D01*
X88528409Y-99471918D01*
X91719253Y-99471918D01*
X91719717Y-99474457D01*
X91761881Y-99619586D01*
X91768128Y-99634022D01*
X91844301Y-99762824D01*
X91853941Y-99775251D01*
X91959749Y-99881059D01*
X91972176Y-99890699D01*
X92100978Y-99966872D01*
X92115414Y-99973119D01*
X92260536Y-100015281D01*
X92273140Y-100017583D01*
X92301392Y-100019807D01*
X92306321Y-100020000D01*
X92314385Y-100020000D01*
X92329624Y-100015525D01*
X92330829Y-100014135D01*
X92332500Y-100006452D01*
X92332500Y-99478115D01*
X92328025Y-99462876D01*
X92326635Y-99461671D01*
X92318952Y-99460000D01*
X91735385Y-99460000D01*
X91720592Y-99464344D01*
X91719253Y-99471918D01*
X88528409Y-99471918D01*
X89054102Y-98946225D01*
X91719592Y-98946225D01*
X91721861Y-98957030D01*
X91733326Y-98960000D01*
X92314385Y-98960000D01*
X92329624Y-98955525D01*
X92330829Y-98954135D01*
X92332500Y-98946452D01*
X92332500Y-98418115D01*
X92328025Y-98402876D01*
X92326635Y-98401671D01*
X92318952Y-98400000D01*
X92306321Y-98400000D01*
X92301392Y-98400193D01*
X92273140Y-98402417D01*
X92260536Y-98404719D01*
X92115414Y-98446881D01*
X92100978Y-98453128D01*
X91972176Y-98529301D01*
X91959749Y-98538941D01*
X91853941Y-98644749D01*
X91844301Y-98657176D01*
X91768128Y-98785978D01*
X91761881Y-98800414D01*
X91719717Y-98945543D01*
X91719592Y-98946225D01*
X89054102Y-98946225D01*
X89226222Y-98774105D01*
X89234326Y-98766678D01*
X89254750Y-98749540D01*
X89263194Y-98742455D01*
X89268704Y-98732912D01*
X89268707Y-98732908D01*
X89282036Y-98709821D01*
X89287941Y-98700551D01*
X89303232Y-98678713D01*
X89309554Y-98669684D01*
X89312407Y-98659036D01*
X89313886Y-98655865D01*
X89315078Y-98652589D01*
X89320588Y-98643045D01*
X89327134Y-98605924D01*
X89329508Y-98595217D01*
X89339263Y-98558807D01*
X89337940Y-98543677D01*
X89335979Y-98521269D01*
X89335500Y-98510288D01*
X89335500Y-98444413D01*
X89355502Y-98376292D01*
X89371546Y-98356185D01*
X91014429Y-96681158D01*
X91078836Y-96615491D01*
X91140815Y-96580864D01*
X91168790Y-96577719D01*
X93177675Y-96577719D01*
X93509118Y-96577720D01*
X93520100Y-96578199D01*
X93557647Y-96581484D01*
X93568297Y-96578630D01*
X93568301Y-96578630D01*
X93594056Y-96571729D01*
X93604785Y-96569350D01*
X93612261Y-96568031D01*
X93631031Y-96564722D01*
X93631033Y-96564721D01*
X93641884Y-96562808D01*
X93651432Y-96557296D01*
X93654719Y-96556099D01*
X93657875Y-96554627D01*
X93668524Y-96551774D01*
X93699387Y-96530163D01*
X93708661Y-96524255D01*
X93731748Y-96510926D01*
X93731747Y-96510926D01*
X93741294Y-96505415D01*
X93765524Y-96476538D01*
X93772950Y-96468436D01*
X94089405Y-96151981D01*
X94151717Y-96117955D01*
X94222532Y-96123020D01*
G37*
%TD.AperFunction*%
%TA.AperFunction,Conductor*%
G36*
X96547533Y-95456962D02*
G01*
X96604368Y-95499509D01*
X96629179Y-95566029D01*
X96629500Y-95575018D01*
X96629500Y-95964416D01*
X96636472Y-96008433D01*
X96640961Y-96036777D01*
X96631861Y-96107188D01*
X96605607Y-96145583D01*
X96518941Y-96232249D01*
X96509301Y-96244676D01*
X96433128Y-96373478D01*
X96426881Y-96387914D01*
X96384719Y-96533036D01*
X96382417Y-96545640D01*
X96380193Y-96573892D01*
X96380000Y-96578821D01*
X96380000Y-96586885D01*
X96384475Y-96602124D01*
X96385865Y-96603329D01*
X96393548Y-96605000D01*
X96830000Y-96605000D01*
X96830000Y-97105000D01*
X96398115Y-97105000D01*
X96382876Y-97109475D01*
X96381671Y-97110865D01*
X96380000Y-97118548D01*
X96380000Y-97131179D01*
X96380193Y-97136108D01*
X96382417Y-97164360D01*
X96384719Y-97176964D01*
X96426881Y-97322086D01*
X96433128Y-97336522D01*
X96509301Y-97465324D01*
X96518941Y-97477751D01*
X96624749Y-97583559D01*
X96637176Y-97593199D01*
X96768139Y-97670650D01*
X96816592Y-97722543D01*
X96830000Y-97779104D01*
X96830000Y-98275566D01*
X96809998Y-98343687D01*
X96756342Y-98390180D01*
X96713884Y-98401178D01*
X96698140Y-98402417D01*
X96685536Y-98404719D01*
X96540414Y-98446881D01*
X96525978Y-98453128D01*
X96397176Y-98529301D01*
X96384749Y-98538941D01*
X96370623Y-98553067D01*
X96308311Y-98587093D01*
X96237496Y-98582028D01*
X96180660Y-98539481D01*
X96173165Y-98526963D01*
X96172054Y-98522816D01*
X96150445Y-98491956D01*
X96144539Y-98482685D01*
X96131207Y-98459594D01*
X96125694Y-98450045D01*
X96096817Y-98425815D01*
X96088715Y-98418389D01*
X95912405Y-98242079D01*
X95878379Y-98179767D01*
X95875500Y-98152984D01*
X95875500Y-98076142D01*
X95894666Y-98010869D01*
X95896241Y-98009294D01*
X95955275Y-97893433D01*
X95970500Y-97797307D01*
X95970499Y-97337694D01*
X95955275Y-97241567D01*
X95896241Y-97125706D01*
X95829630Y-97059095D01*
X95795604Y-96996783D01*
X95800669Y-96925968D01*
X95829630Y-96880905D01*
X95896241Y-96814294D01*
X95955275Y-96698433D01*
X95970500Y-96602307D01*
X95970499Y-96142694D01*
X95958504Y-96066955D01*
X95956826Y-96056358D01*
X95956825Y-96056356D01*
X95955275Y-96046567D01*
X95952933Y-96041970D01*
X95950983Y-95973639D01*
X95983747Y-95916579D01*
X96414405Y-95485922D01*
X96476717Y-95451897D01*
X96547533Y-95456962D01*
G37*
%TD.AperFunction*%
%TD*%
%TA.AperFunction,Conductor*%
%TO.N,+3V3*%
G36*
X93505582Y-85437313D02*
G01*
X93510342Y-85441674D01*
X93817826Y-85749158D01*
X93839218Y-85795034D01*
X93839500Y-85801484D01*
X93839501Y-86515202D01*
X93840211Y-86518770D01*
X93840293Y-86519606D01*
X93827725Y-86568641D01*
X93786579Y-86598125D01*
X93747183Y-86598253D01*
X93734681Y-86594844D01*
X93716702Y-86592748D01*
X93712432Y-86592500D01*
X93395548Y-86592500D01*
X93385552Y-86596138D01*
X93382500Y-86601425D01*
X93382500Y-86829452D01*
X93386138Y-86839448D01*
X93391425Y-86842500D01*
X93956306Y-86842500D01*
X93966302Y-86838862D01*
X93968474Y-86835100D01*
X93967544Y-86827286D01*
X93964295Y-86815465D01*
X93968382Y-86765012D01*
X94003944Y-86728989D01*
X94042900Y-86722209D01*
X94043733Y-86722291D01*
X94047297Y-86723000D01*
X94119960Y-86723000D01*
X94192702Y-86722999D01*
X94196269Y-86722289D01*
X94196274Y-86722289D01*
X94240470Y-86713498D01*
X94259937Y-86709626D01*
X94265997Y-86705577D01*
X94265999Y-86705576D01*
X94278887Y-86696964D01*
X94328055Y-86684932D01*
X94361113Y-86696964D01*
X94374004Y-86705578D01*
X94374006Y-86705579D01*
X94380063Y-86709626D01*
X94387208Y-86711047D01*
X94387210Y-86711048D01*
X94434691Y-86720492D01*
X94447297Y-86723000D01*
X94519990Y-86723000D01*
X94592702Y-86722999D01*
X94596269Y-86722289D01*
X94596274Y-86722289D01*
X94640470Y-86713498D01*
X94659937Y-86709626D01*
X94665997Y-86705577D01*
X94665999Y-86705576D01*
X94678887Y-86696964D01*
X94728055Y-86684932D01*
X94761113Y-86696964D01*
X94774004Y-86705578D01*
X94774006Y-86705579D01*
X94780063Y-86709626D01*
X94787208Y-86711047D01*
X94787210Y-86711048D01*
X94834691Y-86720492D01*
X94847297Y-86723000D01*
X94919990Y-86723000D01*
X94992702Y-86722999D01*
X94996269Y-86722289D01*
X94996274Y-86722289D01*
X95040470Y-86713498D01*
X95059937Y-86709626D01*
X95065997Y-86705577D01*
X95065999Y-86705576D01*
X95078887Y-86696964D01*
X95128055Y-86684932D01*
X95161113Y-86696964D01*
X95174004Y-86705578D01*
X95174006Y-86705579D01*
X95180063Y-86709626D01*
X95187208Y-86711047D01*
X95187210Y-86711048D01*
X95234691Y-86720492D01*
X95247297Y-86723000D01*
X95319990Y-86723000D01*
X95392702Y-86722999D01*
X95396269Y-86722289D01*
X95396274Y-86722289D01*
X95440470Y-86713498D01*
X95459937Y-86709626D01*
X95465997Y-86705577D01*
X95465999Y-86705576D01*
X95478887Y-86696964D01*
X95528055Y-86684932D01*
X95561113Y-86696964D01*
X95574004Y-86705578D01*
X95574006Y-86705579D01*
X95580063Y-86709626D01*
X95587208Y-86711047D01*
X95587210Y-86711048D01*
X95634691Y-86720492D01*
X95647297Y-86723000D01*
X95719990Y-86723000D01*
X95792702Y-86722999D01*
X95796269Y-86722289D01*
X95796274Y-86722289D01*
X95840470Y-86713498D01*
X95859937Y-86709626D01*
X95865997Y-86705577D01*
X95865999Y-86705576D01*
X95878887Y-86696964D01*
X95928055Y-86684932D01*
X95961113Y-86696964D01*
X95974004Y-86705578D01*
X95974006Y-86705579D01*
X95980063Y-86709626D01*
X95987208Y-86711047D01*
X95987210Y-86711048D01*
X96034691Y-86720492D01*
X96047297Y-86723000D01*
X96119990Y-86723000D01*
X96192702Y-86722999D01*
X96196269Y-86722289D01*
X96196274Y-86722289D01*
X96240470Y-86713498D01*
X96259937Y-86709626D01*
X96265997Y-86705577D01*
X96265999Y-86705576D01*
X96278887Y-86696964D01*
X96328055Y-86684932D01*
X96361113Y-86696964D01*
X96374004Y-86705578D01*
X96374006Y-86705579D01*
X96380063Y-86709626D01*
X96387208Y-86711047D01*
X96387210Y-86711048D01*
X96434691Y-86720492D01*
X96447297Y-86723000D01*
X96519990Y-86723000D01*
X96592702Y-86722999D01*
X96596269Y-86722289D01*
X96596274Y-86722289D01*
X96615664Y-86718432D01*
X96623587Y-86716856D01*
X96673616Y-86724556D01*
X96690305Y-86737065D01*
X96692740Y-86739496D01*
X96703824Y-86747085D01*
X96794702Y-86787262D01*
X96805315Y-86790155D01*
X96807040Y-86790356D01*
X96817389Y-86787900D01*
X96820000Y-86784391D01*
X96820000Y-86079000D01*
X96837313Y-86031434D01*
X96881150Y-86006124D01*
X96894000Y-86005000D01*
X97346000Y-86005000D01*
X97393566Y-86022313D01*
X97418876Y-86066150D01*
X97420000Y-86079000D01*
X97420000Y-86131000D01*
X97402687Y-86178566D01*
X97358850Y-86203876D01*
X97346000Y-86205000D01*
X97033048Y-86205000D01*
X97023052Y-86208638D01*
X97020000Y-86213925D01*
X97020000Y-86778806D01*
X97023638Y-86788802D01*
X97027400Y-86790974D01*
X97035219Y-86790044D01*
X97045797Y-86787136D01*
X97089964Y-86767518D01*
X97140463Y-86764031D01*
X97149925Y-86767466D01*
X97194703Y-86787262D01*
X97210684Y-86791619D01*
X97210014Y-86794075D01*
X97246506Y-86812398D01*
X97266558Y-86858875D01*
X97252045Y-86907369D01*
X97230966Y-86926512D01*
X97211834Y-86938077D01*
X97211831Y-86938079D01*
X97205594Y-86941850D01*
X97152973Y-87013363D01*
X97151260Y-87017499D01*
X97140013Y-87044649D01*
X97140011Y-87044655D01*
X97138621Y-87048011D01*
X97137911Y-87051579D01*
X97137911Y-87051580D01*
X97131276Y-87084937D01*
X97105016Y-87128211D01*
X97058698Y-87144500D01*
X94559000Y-87144500D01*
X94555431Y-87145210D01*
X94555430Y-87145210D01*
X94523505Y-87151561D01*
X94488011Y-87158621D01*
X94484655Y-87160011D01*
X94484649Y-87160013D01*
X94455948Y-87171902D01*
X94455945Y-87171903D01*
X94453363Y-87172973D01*
X94405594Y-87201850D01*
X94364407Y-87257824D01*
X94358225Y-87266226D01*
X94352973Y-87273363D01*
X94351260Y-87277499D01*
X94340013Y-87304649D01*
X94340011Y-87304655D01*
X94338621Y-87308011D01*
X94324500Y-87379000D01*
X94324500Y-91701000D01*
X94338621Y-91771989D01*
X94340011Y-91775345D01*
X94340013Y-91775351D01*
X94351902Y-91804052D01*
X94352973Y-91806637D01*
X94381850Y-91854406D01*
X94453363Y-91907027D01*
X94464782Y-91911757D01*
X94484649Y-91919987D01*
X94484655Y-91919989D01*
X94488011Y-91921379D01*
X94514791Y-91926706D01*
X94555430Y-91934790D01*
X94555431Y-91934790D01*
X94559000Y-91935500D01*
X96650500Y-91935500D01*
X96698066Y-91952813D01*
X96723376Y-91996650D01*
X96724500Y-92009500D01*
X96724500Y-92031000D01*
X96738621Y-92101989D01*
X96740011Y-92105345D01*
X96740013Y-92105351D01*
X96751260Y-92132501D01*
X96752973Y-92136637D01*
X96781850Y-92184406D01*
X96787720Y-92188726D01*
X96791237Y-92192576D01*
X96810531Y-92239374D01*
X96795229Y-92287624D01*
X96766636Y-92310108D01*
X96703375Y-92338208D01*
X96692310Y-92345813D01*
X96690300Y-92347826D01*
X96687426Y-92349169D01*
X96686677Y-92349684D01*
X96686591Y-92349559D01*
X96644442Y-92369259D01*
X96623492Y-92368124D01*
X96596275Y-92362710D01*
X96596270Y-92362709D01*
X96592703Y-92362000D01*
X96520010Y-92362000D01*
X96447298Y-92362001D01*
X96443731Y-92362711D01*
X96443726Y-92362711D01*
X96410807Y-92369259D01*
X96380063Y-92375374D01*
X96374003Y-92379423D01*
X96374001Y-92379424D01*
X96361113Y-92388036D01*
X96311945Y-92400068D01*
X96278887Y-92388036D01*
X96265996Y-92379422D01*
X96265994Y-92379421D01*
X96259937Y-92375374D01*
X96252792Y-92373953D01*
X96252790Y-92373952D01*
X96196272Y-92362710D01*
X96196273Y-92362710D01*
X96192703Y-92362000D01*
X96120010Y-92362000D01*
X96047298Y-92362001D01*
X96043731Y-92362711D01*
X96043726Y-92362711D01*
X96010807Y-92369259D01*
X95980063Y-92375374D01*
X95974003Y-92379423D01*
X95974001Y-92379424D01*
X95961113Y-92388036D01*
X95911945Y-92400068D01*
X95878887Y-92388036D01*
X95865996Y-92379422D01*
X95865994Y-92379421D01*
X95859937Y-92375374D01*
X95852792Y-92373953D01*
X95852790Y-92373952D01*
X95796272Y-92362710D01*
X95796273Y-92362710D01*
X95792703Y-92362000D01*
X95720010Y-92362000D01*
X95647298Y-92362001D01*
X95643731Y-92362711D01*
X95643726Y-92362711D01*
X95610807Y-92369259D01*
X95580063Y-92375374D01*
X95574003Y-92379423D01*
X95574001Y-92379424D01*
X95561113Y-92388036D01*
X95511945Y-92400068D01*
X95478887Y-92388036D01*
X95465996Y-92379422D01*
X95465994Y-92379421D01*
X95459937Y-92375374D01*
X95452792Y-92373953D01*
X95452790Y-92373952D01*
X95396272Y-92362710D01*
X95396273Y-92362710D01*
X95392703Y-92362000D01*
X95320010Y-92362000D01*
X95247298Y-92362001D01*
X95243731Y-92362711D01*
X95243726Y-92362711D01*
X95210807Y-92369259D01*
X95180063Y-92375374D01*
X95174003Y-92379423D01*
X95174001Y-92379424D01*
X95161113Y-92388036D01*
X95111945Y-92400068D01*
X95078887Y-92388036D01*
X95065996Y-92379422D01*
X95065994Y-92379421D01*
X95059937Y-92375374D01*
X95052792Y-92373953D01*
X95052790Y-92373952D01*
X94996272Y-92362710D01*
X94996273Y-92362710D01*
X94992703Y-92362000D01*
X94920010Y-92362000D01*
X94847298Y-92362001D01*
X94843731Y-92362711D01*
X94843726Y-92362711D01*
X94810807Y-92369259D01*
X94780063Y-92375374D01*
X94774003Y-92379423D01*
X94774001Y-92379424D01*
X94761113Y-92388036D01*
X94711945Y-92400068D01*
X94678887Y-92388036D01*
X94665996Y-92379422D01*
X94665994Y-92379421D01*
X94659937Y-92375374D01*
X94652792Y-92373953D01*
X94652790Y-92373952D01*
X94596272Y-92362710D01*
X94596273Y-92362710D01*
X94592703Y-92362000D01*
X94520010Y-92362000D01*
X94447298Y-92362001D01*
X94443731Y-92362711D01*
X94443726Y-92362711D01*
X94410807Y-92369259D01*
X94380063Y-92375374D01*
X94374003Y-92379423D01*
X94374001Y-92379424D01*
X94361113Y-92388036D01*
X94311945Y-92400068D01*
X94278887Y-92388036D01*
X94265996Y-92379422D01*
X94265994Y-92379421D01*
X94259937Y-92375374D01*
X94252792Y-92373953D01*
X94252790Y-92373952D01*
X94196272Y-92362710D01*
X94196273Y-92362710D01*
X94192703Y-92362000D01*
X94120010Y-92362000D01*
X94047298Y-92362001D01*
X94043731Y-92362711D01*
X94043726Y-92362711D01*
X93987211Y-92373952D01*
X93987210Y-92373953D01*
X93980063Y-92375374D01*
X93979836Y-92375526D01*
X93933263Y-92377559D01*
X93893105Y-92346744D01*
X93882149Y-92297324D01*
X93885478Y-92284904D01*
X93887126Y-92282437D01*
X93900500Y-92215203D01*
X93900499Y-92069798D01*
X93887126Y-92002563D01*
X93883077Y-91996503D01*
X93883076Y-91996501D01*
X93874464Y-91983613D01*
X93862432Y-91934445D01*
X93874464Y-91901387D01*
X93883078Y-91888496D01*
X93883079Y-91888494D01*
X93887126Y-91882437D01*
X93888549Y-91875287D01*
X93899790Y-91818772D01*
X93900500Y-91815203D01*
X93900499Y-91669798D01*
X93893047Y-91632329D01*
X93888548Y-91609713D01*
X93887126Y-91602563D01*
X93883077Y-91596503D01*
X93883076Y-91596501D01*
X93874464Y-91583613D01*
X93862432Y-91534445D01*
X93874464Y-91501387D01*
X93883078Y-91488496D01*
X93883079Y-91488494D01*
X93887126Y-91482437D01*
X93888549Y-91475287D01*
X93899790Y-91418772D01*
X93900500Y-91415203D01*
X93900499Y-91269798D01*
X93899314Y-91263837D01*
X93888548Y-91209713D01*
X93887126Y-91202563D01*
X93883077Y-91196503D01*
X93883076Y-91196501D01*
X93874464Y-91183613D01*
X93862432Y-91134445D01*
X93874464Y-91101387D01*
X93883078Y-91088496D01*
X93883079Y-91088494D01*
X93887126Y-91082437D01*
X93888549Y-91075287D01*
X93899790Y-91018772D01*
X93900500Y-91015203D01*
X93900499Y-90869798D01*
X93899789Y-90866225D01*
X93895131Y-90842809D01*
X93894356Y-90838913D01*
X93902056Y-90788884D01*
X93914565Y-90772195D01*
X93916996Y-90769760D01*
X93924585Y-90758676D01*
X93964762Y-90667798D01*
X93967655Y-90657185D01*
X93967856Y-90655460D01*
X93965400Y-90645111D01*
X93961891Y-90642500D01*
X93256500Y-90642500D01*
X93208934Y-90625187D01*
X93183624Y-90581350D01*
X93182500Y-90568500D01*
X93182500Y-90516500D01*
X93199813Y-90468934D01*
X93243650Y-90443624D01*
X93256500Y-90442500D01*
X93956306Y-90442500D01*
X93966302Y-90438862D01*
X93968474Y-90435100D01*
X93967544Y-90427281D01*
X93964635Y-90416700D01*
X93924294Y-90325877D01*
X93916687Y-90314810D01*
X93914674Y-90312800D01*
X93913331Y-90309926D01*
X93912816Y-90309177D01*
X93912941Y-90309091D01*
X93893241Y-90266942D01*
X93894376Y-90245992D01*
X93899790Y-90218775D01*
X93899791Y-90218770D01*
X93900500Y-90215203D01*
X93900499Y-90069798D01*
X93887126Y-90002563D01*
X93883077Y-89996503D01*
X93883076Y-89996501D01*
X93874464Y-89983613D01*
X93862432Y-89934445D01*
X93874464Y-89901387D01*
X93883078Y-89888496D01*
X93883079Y-89888494D01*
X93887126Y-89882437D01*
X93888549Y-89875287D01*
X93899790Y-89818772D01*
X93900500Y-89815203D01*
X93900499Y-89669798D01*
X93887126Y-89602563D01*
X93883077Y-89596503D01*
X93883076Y-89596501D01*
X93874464Y-89583613D01*
X93862432Y-89534445D01*
X93874464Y-89501387D01*
X93883078Y-89488496D01*
X93883079Y-89488494D01*
X93887126Y-89482437D01*
X93888549Y-89475287D01*
X93899790Y-89418772D01*
X93900500Y-89415203D01*
X93900499Y-89269798D01*
X93887126Y-89202563D01*
X93883077Y-89196503D01*
X93883076Y-89196501D01*
X93874464Y-89183613D01*
X93862432Y-89134445D01*
X93874464Y-89101387D01*
X93883078Y-89088496D01*
X93883079Y-89088494D01*
X93887126Y-89082437D01*
X93888549Y-89075287D01*
X93899790Y-89018772D01*
X93900500Y-89015203D01*
X93900499Y-88869798D01*
X93887126Y-88802563D01*
X93883077Y-88796503D01*
X93883076Y-88796501D01*
X93874464Y-88783613D01*
X93862432Y-88734445D01*
X93874464Y-88701387D01*
X93883078Y-88688496D01*
X93883079Y-88688494D01*
X93887126Y-88682437D01*
X93888549Y-88675287D01*
X93899790Y-88618772D01*
X93900500Y-88615203D01*
X93900499Y-88469798D01*
X93887126Y-88402563D01*
X93883077Y-88396503D01*
X93883076Y-88396501D01*
X93874464Y-88383613D01*
X93862432Y-88334445D01*
X93874464Y-88301387D01*
X93883078Y-88288496D01*
X93883079Y-88288494D01*
X93887126Y-88282437D01*
X93888549Y-88275287D01*
X93899790Y-88218772D01*
X93900500Y-88215203D01*
X93900499Y-88069798D01*
X93896259Y-88048478D01*
X93888548Y-88009713D01*
X93887126Y-88002563D01*
X93883077Y-87996503D01*
X93883076Y-87996501D01*
X93874464Y-87983613D01*
X93862432Y-87934445D01*
X93874464Y-87901387D01*
X93883078Y-87888496D01*
X93883079Y-87888494D01*
X93887126Y-87882437D01*
X93888549Y-87875287D01*
X93899790Y-87818772D01*
X93900500Y-87815203D01*
X93900499Y-87669798D01*
X93887126Y-87602563D01*
X93883077Y-87596503D01*
X93883076Y-87596501D01*
X93874464Y-87583613D01*
X93862432Y-87534445D01*
X93874464Y-87501387D01*
X93883078Y-87488496D01*
X93883079Y-87488494D01*
X93887126Y-87482437D01*
X93888549Y-87475287D01*
X93899790Y-87418772D01*
X93900500Y-87415203D01*
X93900499Y-87269798D01*
X93899789Y-87266225D01*
X93894356Y-87238914D01*
X93902056Y-87188884D01*
X93914565Y-87172195D01*
X93916996Y-87169760D01*
X93924585Y-87158676D01*
X93964762Y-87067798D01*
X93967655Y-87057185D01*
X93967856Y-87055460D01*
X93965400Y-87045111D01*
X93961891Y-87042500D01*
X93256500Y-87042500D01*
X93208934Y-87025187D01*
X93183624Y-86981350D01*
X93182500Y-86968500D01*
X93182500Y-86605548D01*
X93178862Y-86595552D01*
X93173575Y-86592500D01*
X92852609Y-86592500D01*
X92848261Y-86592758D01*
X92829782Y-86594956D01*
X92819199Y-86597865D01*
X92728377Y-86638206D01*
X92717310Y-86645813D01*
X92648005Y-86715239D01*
X92640415Y-86726324D01*
X92600238Y-86817203D01*
X92600000Y-86818076D01*
X92600000Y-85420000D01*
X93458016Y-85420000D01*
X93505582Y-85437313D01*
G37*
%TD.AperFunction*%
%TA.AperFunction,Conductor*%
G36*
X100840000Y-86585769D02*
G01*
X100822687Y-86633335D01*
X100778850Y-86658645D01*
X100729000Y-86649855D01*
X100724192Y-86646827D01*
X100711177Y-86637915D01*
X100620297Y-86597738D01*
X100609685Y-86594845D01*
X100591702Y-86592748D01*
X100587432Y-86592500D01*
X100270548Y-86592500D01*
X100260552Y-86596138D01*
X100257500Y-86601425D01*
X100257500Y-86968500D01*
X100240187Y-87016066D01*
X100196350Y-87041376D01*
X100183500Y-87042500D01*
X99483694Y-87042500D01*
X99473698Y-87046138D01*
X99471526Y-87049900D01*
X99472456Y-87057719D01*
X99475365Y-87068300D01*
X99515706Y-87159123D01*
X99523313Y-87170190D01*
X99525326Y-87172200D01*
X99526669Y-87175074D01*
X99527184Y-87175823D01*
X99527059Y-87175909D01*
X99546759Y-87218058D01*
X99545624Y-87239008D01*
X99540210Y-87266225D01*
X99540210Y-87266226D01*
X99539500Y-87269797D01*
X99539501Y-87415202D01*
X99552874Y-87482437D01*
X99556923Y-87488496D01*
X99556924Y-87488499D01*
X99565536Y-87501387D01*
X99577568Y-87550555D01*
X99565536Y-87583613D01*
X99556922Y-87596504D01*
X99556921Y-87596506D01*
X99552874Y-87602563D01*
X99551453Y-87609708D01*
X99551452Y-87609710D01*
X99544868Y-87642809D01*
X99539500Y-87669797D01*
X99539501Y-87815202D01*
X99540211Y-87818769D01*
X99540211Y-87818774D01*
X99544869Y-87842191D01*
X99552874Y-87882437D01*
X99556923Y-87888496D01*
X99556924Y-87888499D01*
X99565536Y-87901387D01*
X99577568Y-87950555D01*
X99565536Y-87983613D01*
X99556922Y-87996504D01*
X99556921Y-87996506D01*
X99552874Y-88002563D01*
X99551453Y-88009708D01*
X99551452Y-88009710D01*
X99547584Y-88029157D01*
X99539500Y-88069797D01*
X99539501Y-88215202D01*
X99552874Y-88282437D01*
X99556923Y-88288496D01*
X99556924Y-88288499D01*
X99565536Y-88301387D01*
X99577568Y-88350555D01*
X99565536Y-88383613D01*
X99556922Y-88396504D01*
X99556921Y-88396506D01*
X99552874Y-88402563D01*
X99551453Y-88409708D01*
X99551452Y-88409710D01*
X99544868Y-88442809D01*
X99539500Y-88469797D01*
X99539501Y-88615202D01*
X99552874Y-88682437D01*
X99556923Y-88688496D01*
X99556924Y-88688499D01*
X99565536Y-88701387D01*
X99577568Y-88750555D01*
X99565536Y-88783613D01*
X99556922Y-88796504D01*
X99556921Y-88796506D01*
X99552874Y-88802563D01*
X99551453Y-88809708D01*
X99551452Y-88809710D01*
X99544868Y-88842809D01*
X99539500Y-88869797D01*
X99539501Y-89015202D01*
X99552874Y-89082437D01*
X99556923Y-89088496D01*
X99556924Y-89088499D01*
X99565536Y-89101387D01*
X99577568Y-89150555D01*
X99565536Y-89183613D01*
X99556922Y-89196504D01*
X99556921Y-89196506D01*
X99552874Y-89202563D01*
X99551453Y-89209708D01*
X99551452Y-89209710D01*
X99544868Y-89242809D01*
X99539500Y-89269797D01*
X99539501Y-89415202D01*
X99552874Y-89482437D01*
X99556923Y-89488496D01*
X99556924Y-89488499D01*
X99565536Y-89501387D01*
X99577568Y-89550555D01*
X99565536Y-89583613D01*
X99556922Y-89596504D01*
X99556921Y-89596506D01*
X99552874Y-89602563D01*
X99551453Y-89609708D01*
X99551452Y-89609710D01*
X99544868Y-89642809D01*
X99539500Y-89669797D01*
X99539501Y-89815202D01*
X99552874Y-89882437D01*
X99556923Y-89888496D01*
X99556924Y-89888499D01*
X99565536Y-89901387D01*
X99577568Y-89950555D01*
X99565536Y-89983613D01*
X99556922Y-89996504D01*
X99556921Y-89996506D01*
X99552874Y-90002563D01*
X99551453Y-90009708D01*
X99551452Y-90009710D01*
X99544868Y-90042809D01*
X99539500Y-90069797D01*
X99539501Y-90215202D01*
X99540211Y-90218769D01*
X99540211Y-90218774D01*
X99545644Y-90246086D01*
X99537944Y-90296116D01*
X99525435Y-90312805D01*
X99523004Y-90315240D01*
X99515415Y-90326324D01*
X99475238Y-90417202D01*
X99472345Y-90427815D01*
X99472144Y-90429540D01*
X99474600Y-90439889D01*
X99478109Y-90442500D01*
X100183500Y-90442500D01*
X100231066Y-90459813D01*
X100256376Y-90503650D01*
X100257500Y-90516500D01*
X100257500Y-90568500D01*
X100240187Y-90616066D01*
X100196350Y-90641376D01*
X100183500Y-90642500D01*
X99483694Y-90642500D01*
X99473698Y-90646138D01*
X99471526Y-90649900D01*
X99472456Y-90657719D01*
X99475365Y-90668300D01*
X99515706Y-90759123D01*
X99523313Y-90770190D01*
X99525326Y-90772200D01*
X99526669Y-90775074D01*
X99527184Y-90775823D01*
X99527059Y-90775909D01*
X99546759Y-90818058D01*
X99545624Y-90839008D01*
X99540210Y-90866225D01*
X99540210Y-90866226D01*
X99539500Y-90869797D01*
X99539501Y-91015202D01*
X99540211Y-91018769D01*
X99540211Y-91018774D01*
X99544220Y-91038929D01*
X99552874Y-91082437D01*
X99556923Y-91088496D01*
X99556924Y-91088499D01*
X99565536Y-91101387D01*
X99577568Y-91150555D01*
X99565536Y-91183613D01*
X99556922Y-91196504D01*
X99556921Y-91196506D01*
X99552874Y-91202563D01*
X99551453Y-91209708D01*
X99551452Y-91209710D01*
X99544868Y-91242809D01*
X99539500Y-91269797D01*
X99539501Y-91415202D01*
X99552874Y-91482437D01*
X99556923Y-91488496D01*
X99556924Y-91488499D01*
X99565536Y-91501387D01*
X99577568Y-91550555D01*
X99565536Y-91583613D01*
X99556922Y-91596504D01*
X99556921Y-91596506D01*
X99552874Y-91602563D01*
X99551453Y-91609708D01*
X99551452Y-91609710D01*
X99546953Y-91632329D01*
X99539500Y-91669797D01*
X99539501Y-91815202D01*
X99540211Y-91818769D01*
X99540211Y-91818774D01*
X99544869Y-91842191D01*
X99552874Y-91882437D01*
X99556923Y-91888496D01*
X99556924Y-91888499D01*
X99565536Y-91901387D01*
X99577568Y-91950555D01*
X99565536Y-91983613D01*
X99556922Y-91996504D01*
X99556921Y-91996506D01*
X99552874Y-92002563D01*
X99551453Y-92009708D01*
X99551452Y-92009710D01*
X99547941Y-92027360D01*
X99539500Y-92069797D01*
X99539501Y-92215202D01*
X99540211Y-92218769D01*
X99540211Y-92218774D01*
X99549505Y-92265500D01*
X99552874Y-92282437D01*
X99553026Y-92282664D01*
X99555059Y-92329237D01*
X99524244Y-92369395D01*
X99474824Y-92380351D01*
X99462404Y-92377022D01*
X99459937Y-92375374D01*
X99452792Y-92373953D01*
X99452790Y-92373952D01*
X99396272Y-92362710D01*
X99396273Y-92362710D01*
X99392703Y-92362000D01*
X99320010Y-92362000D01*
X99247298Y-92362001D01*
X99243731Y-92362711D01*
X99243726Y-92362711D01*
X99210807Y-92369259D01*
X99180063Y-92375374D01*
X99174003Y-92379423D01*
X99174001Y-92379424D01*
X99161113Y-92388036D01*
X99111945Y-92400068D01*
X99078887Y-92388036D01*
X99065996Y-92379422D01*
X99065994Y-92379421D01*
X99059937Y-92375374D01*
X99052792Y-92373953D01*
X99052790Y-92373952D01*
X98996272Y-92362710D01*
X98996273Y-92362710D01*
X98992703Y-92362000D01*
X98920010Y-92362000D01*
X98847298Y-92362001D01*
X98843731Y-92362711D01*
X98843726Y-92362711D01*
X98810807Y-92369259D01*
X98780063Y-92375374D01*
X98774003Y-92379423D01*
X98774001Y-92379424D01*
X98761113Y-92388036D01*
X98711945Y-92400068D01*
X98678887Y-92388036D01*
X98665996Y-92379422D01*
X98665994Y-92379421D01*
X98659937Y-92375374D01*
X98652792Y-92373953D01*
X98652790Y-92373952D01*
X98596272Y-92362710D01*
X98596273Y-92362710D01*
X98592703Y-92362000D01*
X98520010Y-92362000D01*
X98447298Y-92362001D01*
X98443731Y-92362711D01*
X98443726Y-92362711D01*
X98410807Y-92369259D01*
X98380063Y-92375374D01*
X98374003Y-92379423D01*
X98374001Y-92379424D01*
X98361113Y-92388036D01*
X98311945Y-92400068D01*
X98278887Y-92388036D01*
X98265996Y-92379422D01*
X98265994Y-92379421D01*
X98259937Y-92375374D01*
X98252792Y-92373953D01*
X98252790Y-92373952D01*
X98196272Y-92362710D01*
X98196273Y-92362710D01*
X98192703Y-92362000D01*
X98120010Y-92362000D01*
X98047298Y-92362001D01*
X98043731Y-92362711D01*
X98043726Y-92362711D01*
X98010807Y-92369259D01*
X97980063Y-92375374D01*
X97974003Y-92379423D01*
X97974001Y-92379424D01*
X97961113Y-92388036D01*
X97911945Y-92400068D01*
X97878887Y-92388036D01*
X97865996Y-92379422D01*
X97865994Y-92379421D01*
X97859937Y-92375374D01*
X97852792Y-92373953D01*
X97852790Y-92373952D01*
X97792703Y-92362000D01*
X97792889Y-92361063D01*
X97750693Y-92340826D01*
X97729801Y-92294720D01*
X97743433Y-92245971D01*
X97765302Y-92225744D01*
X97772217Y-92221563D01*
X97794406Y-92208150D01*
X97847027Y-92136637D01*
X97851757Y-92125218D01*
X97859987Y-92105351D01*
X97859989Y-92105345D01*
X97861379Y-92101989D01*
X97875500Y-92031000D01*
X97875500Y-91396999D01*
X97892813Y-91349433D01*
X97936650Y-91324123D01*
X97949500Y-91322999D01*
X98214022Y-91322999D01*
X98216429Y-91322682D01*
X98216431Y-91322682D01*
X98234577Y-91320293D01*
X98261282Y-91316778D01*
X98266412Y-91314386D01*
X98266415Y-91314385D01*
X98359128Y-91271153D01*
X98359129Y-91271152D01*
X98364997Y-91268416D01*
X98445916Y-91187497D01*
X98475429Y-91124206D01*
X98491884Y-91088916D01*
X98494278Y-91083782D01*
X98500500Y-91036523D01*
X98500499Y-88048478D01*
X98497956Y-88029157D01*
X98508913Y-87979738D01*
X98549073Y-87948924D01*
X98571323Y-87945500D01*
X98671000Y-87945500D01*
X98674569Y-87944790D01*
X98674570Y-87944790D01*
X98706494Y-87938440D01*
X98741989Y-87931379D01*
X98745345Y-87929989D01*
X98745351Y-87929987D01*
X98774052Y-87918098D01*
X98774055Y-87918097D01*
X98776637Y-87917027D01*
X98824406Y-87888150D01*
X98877027Y-87816637D01*
X98881757Y-87805218D01*
X98889987Y-87785351D01*
X98889989Y-87785345D01*
X98891379Y-87781989D01*
X98905500Y-87711000D01*
X98905500Y-86986432D01*
X98897512Y-86932584D01*
X98889254Y-86905361D01*
X98879388Y-86884500D01*
X98867144Y-86858611D01*
X98867141Y-86858605D01*
X98865980Y-86856151D01*
X98864469Y-86853889D01*
X98864171Y-86853364D01*
X98855980Y-86831332D01*
X98855339Y-86828105D01*
X98854149Y-86808701D01*
X98854105Y-86808699D01*
X98854125Y-86808302D01*
X98854125Y-86808298D01*
X98854149Y-86807811D01*
X98854956Y-86791407D01*
X98854956Y-86791388D01*
X98855000Y-86790503D01*
X98855000Y-86779000D01*
X98854961Y-86778806D01*
X99020000Y-86778806D01*
X99023638Y-86788802D01*
X99027400Y-86790974D01*
X99035219Y-86790044D01*
X99045797Y-86787136D01*
X99089964Y-86767518D01*
X99140463Y-86764031D01*
X99149925Y-86767466D01*
X99194702Y-86787262D01*
X99205315Y-86790155D01*
X99207040Y-86790356D01*
X99217389Y-86787900D01*
X99220000Y-86784391D01*
X99220000Y-86778806D01*
X99420000Y-86778806D01*
X99423638Y-86788802D01*
X99441011Y-86798832D01*
X99473548Y-86837608D01*
X99474125Y-86839536D01*
X99478109Y-86842500D01*
X100044452Y-86842500D01*
X100054448Y-86838862D01*
X100057500Y-86833575D01*
X100057500Y-86605548D01*
X100053862Y-86595552D01*
X100048575Y-86592500D01*
X99744000Y-86592500D01*
X99696434Y-86575187D01*
X99671124Y-86531350D01*
X99670000Y-86518500D01*
X99670000Y-86218048D01*
X99666362Y-86208052D01*
X99661075Y-86205000D01*
X99433048Y-86205000D01*
X99423052Y-86208638D01*
X99420000Y-86213925D01*
X99420000Y-86778806D01*
X99220000Y-86778806D01*
X99220000Y-86218048D01*
X99216362Y-86208052D01*
X99211075Y-86205000D01*
X99033048Y-86205000D01*
X99023052Y-86208638D01*
X99020000Y-86213925D01*
X99020000Y-86778806D01*
X98854961Y-86778806D01*
X98840879Y-86708011D01*
X98839489Y-86704655D01*
X98839487Y-86704649D01*
X98826527Y-86673363D01*
X98827116Y-86673119D01*
X98820000Y-86643276D01*
X98820000Y-86079000D01*
X98837313Y-86031434D01*
X98881150Y-86006124D01*
X98894000Y-86005000D01*
X99656952Y-86005000D01*
X99666948Y-86001362D01*
X99670000Y-85996075D01*
X99670000Y-85675109D01*
X99669742Y-85670761D01*
X99667544Y-85652282D01*
X99664635Y-85641699D01*
X99624295Y-85550881D01*
X99614009Y-85535914D01*
X99601336Y-85486907D01*
X99623128Y-85441219D01*
X99669190Y-85420228D01*
X99674995Y-85420000D01*
X100840000Y-85420000D01*
X100840000Y-86585769D01*
G37*
%TD.AperFunction*%
%TD*%
%TA.AperFunction,Conductor*%
%TO.N,+3V3*%
G36*
X107632242Y-64512003D02*
G01*
X107650015Y-64515136D01*
X107658547Y-64513631D01*
X107663069Y-64513631D01*
X107680921Y-64512709D01*
X107884824Y-64527284D01*
X107898798Y-64529292D01*
X108010352Y-64553555D01*
X108121903Y-64577817D01*
X108135457Y-64581796D01*
X108203949Y-64607340D01*
X108349392Y-64661583D01*
X108362230Y-64667445D01*
X108521666Y-64754500D01*
X108562630Y-64776867D01*
X108574514Y-64784504D01*
X108757292Y-64921328D01*
X108767968Y-64930578D01*
X108929422Y-65092032D01*
X108938672Y-65102708D01*
X109075496Y-65285486D01*
X109083133Y-65297370D01*
X109174046Y-65463871D01*
X109192552Y-65497764D01*
X109198417Y-65510608D01*
X109217282Y-65561191D01*
X109278204Y-65724543D01*
X109282183Y-65738097D01*
X109284209Y-65747412D01*
X109324402Y-65932207D01*
X109330707Y-65961198D01*
X109332716Y-65975176D01*
X109346047Y-66161679D01*
X109347291Y-66179077D01*
X109346369Y-66196931D01*
X109346369Y-66201453D01*
X109344864Y-66209985D01*
X109346370Y-66218528D01*
X109347997Y-66227758D01*
X109349500Y-66244945D01*
X109349500Y-81534226D01*
X109330593Y-81592417D01*
X109281093Y-81628381D01*
X109219907Y-81628381D01*
X109170407Y-81592417D01*
X109159036Y-81572112D01*
X109158926Y-81571846D01*
X109150861Y-81552375D01*
X109062621Y-81437379D01*
X109056426Y-81432625D01*
X108952774Y-81353090D01*
X108947625Y-81349139D01*
X108813709Y-81293670D01*
X108807280Y-81292824D01*
X108807278Y-81292823D01*
X108676433Y-81275597D01*
X108670000Y-81274750D01*
X108663567Y-81275597D01*
X108532722Y-81292823D01*
X108532720Y-81292824D01*
X108526291Y-81293670D01*
X108392375Y-81349139D01*
X108387226Y-81353090D01*
X108283575Y-81432625D01*
X108277379Y-81437379D01*
X108273428Y-81442528D01*
X108268841Y-81447115D01*
X108267499Y-81445773D01*
X108224344Y-81475426D01*
X108196236Y-81479500D01*
X108074499Y-81479500D01*
X108016308Y-81460593D01*
X107980344Y-81411093D01*
X107975499Y-81380500D01*
X107975499Y-81307624D01*
X107968851Y-81246420D01*
X107918526Y-81112176D01*
X107832546Y-80997454D01*
X107717824Y-80911474D01*
X107711218Y-80908997D01*
X107711215Y-80908996D01*
X107642863Y-80883373D01*
X107583580Y-80861149D01*
X107522377Y-80854500D01*
X107137644Y-80854500D01*
X106752624Y-80854501D01*
X106749965Y-80854790D01*
X106749962Y-80854790D01*
X106697595Y-80860478D01*
X106697593Y-80860478D01*
X106691420Y-80861149D01*
X106641945Y-80879696D01*
X106563785Y-80908996D01*
X106563782Y-80908997D01*
X106557176Y-80911474D01*
X106442454Y-80997454D01*
X106356474Y-81112176D01*
X106306149Y-81246420D01*
X106299500Y-81307623D01*
X106299501Y-82352376D01*
X106299790Y-82355035D01*
X106299790Y-82355038D01*
X106305154Y-82404416D01*
X106306149Y-82413580D01*
X106325488Y-82465168D01*
X106351430Y-82534368D01*
X106356474Y-82547824D01*
X106442454Y-82662546D01*
X106557176Y-82748526D01*
X106563782Y-82751003D01*
X106563785Y-82751004D01*
X106604111Y-82766121D01*
X106691420Y-82798851D01*
X106752623Y-82805500D01*
X107137356Y-82805500D01*
X107522376Y-82805499D01*
X107525035Y-82805210D01*
X107525038Y-82805210D01*
X107577405Y-82799522D01*
X107577407Y-82799522D01*
X107583580Y-82798851D01*
X107659912Y-82770236D01*
X107711215Y-82751004D01*
X107711218Y-82751003D01*
X107717824Y-82748526D01*
X107832546Y-82662546D01*
X107918526Y-82547824D01*
X107923571Y-82534368D01*
X107949512Y-82465168D01*
X107968851Y-82413580D01*
X107975500Y-82352377D01*
X107975500Y-82279500D01*
X107994407Y-82221309D01*
X108043907Y-82185345D01*
X108074500Y-82180500D01*
X108196236Y-82180500D01*
X108254427Y-82199407D01*
X108268556Y-82213170D01*
X108268841Y-82212885D01*
X108273428Y-82217472D01*
X108277379Y-82222621D01*
X108392375Y-82310861D01*
X108526291Y-82366330D01*
X108532720Y-82367176D01*
X108532722Y-82367177D01*
X108663567Y-82384403D01*
X108670000Y-82385250D01*
X108676433Y-82384403D01*
X108807278Y-82367177D01*
X108807280Y-82367176D01*
X108813709Y-82366330D01*
X108947625Y-82310861D01*
X109062621Y-82222621D01*
X109150861Y-82107625D01*
X109159036Y-82087888D01*
X109198773Y-82041362D01*
X109258268Y-82027079D01*
X109314796Y-82050494D01*
X109346765Y-82102663D01*
X109349500Y-82125774D01*
X109349500Y-86171000D01*
X109330593Y-86229191D01*
X109281093Y-86265155D01*
X109250500Y-86270000D01*
X105301281Y-86270000D01*
X105243090Y-86251093D01*
X105207126Y-86201593D01*
X105207126Y-86140407D01*
X105243090Y-86090907D01*
X105263396Y-86079536D01*
X105332625Y-86050861D01*
X105447621Y-85962621D01*
X105535861Y-85847625D01*
X105591330Y-85713709D01*
X105595546Y-85681691D01*
X105609403Y-85576433D01*
X105610250Y-85570000D01*
X105606593Y-85542221D01*
X105592177Y-85432722D01*
X105592176Y-85432720D01*
X105591330Y-85426291D01*
X105535861Y-85292375D01*
X105462088Y-85196233D01*
X105451572Y-85182528D01*
X105447621Y-85177379D01*
X105332625Y-85089139D01*
X105198709Y-85033670D01*
X105192280Y-85032824D01*
X105192278Y-85032823D01*
X105061433Y-85015597D01*
X105055000Y-85014750D01*
X105048567Y-85015597D01*
X104917722Y-85032823D01*
X104917720Y-85032824D01*
X104911291Y-85033670D01*
X104777375Y-85089139D01*
X104679465Y-85164268D01*
X104621790Y-85184692D01*
X104563124Y-85167315D01*
X104549194Y-85155730D01*
X104478818Y-85085354D01*
X104471881Y-85081819D01*
X104471879Y-85081818D01*
X104371308Y-85030575D01*
X104371307Y-85030575D01*
X104364368Y-85027039D01*
X104356674Y-85025820D01*
X104356673Y-85025820D01*
X104273262Y-85012609D01*
X104273260Y-85012609D01*
X104269416Y-85012000D01*
X103780584Y-85012000D01*
X103776740Y-85012609D01*
X103776738Y-85012609D01*
X103693327Y-85025820D01*
X103693326Y-85025820D01*
X103685632Y-85027039D01*
X103678693Y-85030575D01*
X103678692Y-85030575D01*
X103578121Y-85081818D01*
X103578119Y-85081819D01*
X103571182Y-85085354D01*
X103565361Y-85091175D01*
X103564964Y-85091377D01*
X103559368Y-85095443D01*
X103558724Y-85094557D01*
X103510844Y-85118952D01*
X103450412Y-85109381D01*
X103425357Y-85091179D01*
X103421912Y-85087735D01*
X103323767Y-85015242D01*
X103310831Y-85008393D01*
X103194411Y-84967509D01*
X103182716Y-84964943D01*
X103159179Y-84962719D01*
X103154541Y-84962500D01*
X103055680Y-84962500D01*
X103042995Y-84966622D01*
X103040000Y-84970743D01*
X103040000Y-85623500D01*
X103021093Y-85681691D01*
X102971593Y-85717655D01*
X102941000Y-85722500D01*
X102238181Y-85722500D01*
X102225496Y-85726622D01*
X102222501Y-85730743D01*
X102222501Y-85779538D01*
X102222720Y-85784184D01*
X102224943Y-85807711D01*
X102227511Y-85819415D01*
X102268393Y-85935831D01*
X102275242Y-85948767D01*
X102347733Y-86046910D01*
X102358087Y-86057264D01*
X102404258Y-86091367D01*
X102439831Y-86141148D01*
X102439350Y-86202332D01*
X102402998Y-86251548D01*
X102345439Y-86270000D01*
X100270000Y-86270000D01*
X100264504Y-85420000D01*
X100264419Y-85406820D01*
X102222500Y-85406820D01*
X102226622Y-85419505D01*
X102230743Y-85422500D01*
X102724320Y-85422500D01*
X102737005Y-85418378D01*
X102740000Y-85414257D01*
X102740000Y-84978181D01*
X102735878Y-84965496D01*
X102731757Y-84962501D01*
X102625462Y-84962501D01*
X102620816Y-84962720D01*
X102597289Y-84964943D01*
X102585585Y-84967511D01*
X102469169Y-85008393D01*
X102456233Y-85015242D01*
X102358090Y-85087733D01*
X102347733Y-85098090D01*
X102275242Y-85196233D01*
X102268393Y-85209169D01*
X102227509Y-85325589D01*
X102224943Y-85337284D01*
X102222719Y-85360821D01*
X102222500Y-85365459D01*
X102222500Y-85406820D01*
X100264419Y-85406820D01*
X100256096Y-84119538D01*
X102222501Y-84119538D01*
X102222720Y-84124184D01*
X102224943Y-84147711D01*
X102227511Y-84159415D01*
X102268393Y-84275831D01*
X102275242Y-84288767D01*
X102347733Y-84386910D01*
X102358090Y-84397267D01*
X102456233Y-84469758D01*
X102469169Y-84476607D01*
X102585589Y-84517491D01*
X102597284Y-84520057D01*
X102620821Y-84522281D01*
X102625459Y-84522500D01*
X102724320Y-84522500D01*
X102737005Y-84518378D01*
X102740000Y-84514257D01*
X102740000Y-84506819D01*
X103040000Y-84506819D01*
X103044122Y-84519504D01*
X103048243Y-84522499D01*
X103154538Y-84522499D01*
X103159184Y-84522280D01*
X103182711Y-84520057D01*
X103194415Y-84517489D01*
X103310831Y-84476607D01*
X103323767Y-84469758D01*
X103421912Y-84397265D01*
X103425357Y-84393821D01*
X103479876Y-84366047D01*
X103540307Y-84375622D01*
X103565361Y-84393825D01*
X103571182Y-84399646D01*
X103578119Y-84403181D01*
X103578121Y-84403182D01*
X103662805Y-84446330D01*
X103685632Y-84457961D01*
X103693326Y-84459180D01*
X103693327Y-84459180D01*
X103776738Y-84472391D01*
X103776740Y-84472391D01*
X103780584Y-84473000D01*
X104269416Y-84473000D01*
X104273260Y-84472391D01*
X104273262Y-84472391D01*
X104356673Y-84459180D01*
X104356674Y-84459180D01*
X104364368Y-84457961D01*
X104387195Y-84446330D01*
X104471879Y-84403182D01*
X104471881Y-84403181D01*
X104478818Y-84399646D01*
X104556365Y-84322099D01*
X104610882Y-84294322D01*
X104671314Y-84303893D01*
X104686633Y-84313558D01*
X104787375Y-84390861D01*
X104921291Y-84446330D01*
X104927720Y-84447176D01*
X104927722Y-84447177D01*
X105058567Y-84464403D01*
X105065000Y-84465250D01*
X105071433Y-84464403D01*
X105202278Y-84447177D01*
X105202280Y-84447176D01*
X105208709Y-84446330D01*
X105342625Y-84390861D01*
X105457621Y-84302621D01*
X105545861Y-84187625D01*
X105601330Y-84053709D01*
X105608731Y-83997499D01*
X105619403Y-83916433D01*
X105620250Y-83910000D01*
X105606992Y-83809294D01*
X105602177Y-83772722D01*
X105602176Y-83772720D01*
X105601330Y-83766291D01*
X105545861Y-83632375D01*
X105457621Y-83517379D01*
X105342625Y-83429139D01*
X105208709Y-83373670D01*
X105202280Y-83372824D01*
X105202278Y-83372823D01*
X105071433Y-83355597D01*
X105065000Y-83354750D01*
X105058567Y-83355597D01*
X104927722Y-83372823D01*
X104927720Y-83372824D01*
X104921291Y-83373670D01*
X104787375Y-83429139D01*
X104683806Y-83508611D01*
X104626132Y-83529034D01*
X104567466Y-83511657D01*
X104553536Y-83500072D01*
X104478818Y-83425354D01*
X104471881Y-83421819D01*
X104471879Y-83421818D01*
X104371308Y-83370575D01*
X104371307Y-83370575D01*
X104364368Y-83367039D01*
X104356674Y-83365820D01*
X104356673Y-83365820D01*
X104273262Y-83352609D01*
X104273260Y-83352609D01*
X104269416Y-83352000D01*
X103780584Y-83352000D01*
X103776740Y-83352609D01*
X103776738Y-83352609D01*
X103693327Y-83365820D01*
X103693326Y-83365820D01*
X103685632Y-83367039D01*
X103678693Y-83370575D01*
X103678692Y-83370575D01*
X103578121Y-83421818D01*
X103578119Y-83421819D01*
X103571182Y-83425354D01*
X103565361Y-83431175D01*
X103564964Y-83431377D01*
X103559368Y-83435443D01*
X103558724Y-83434557D01*
X103510844Y-83458952D01*
X103450412Y-83449381D01*
X103425357Y-83431179D01*
X103421912Y-83427735D01*
X103323767Y-83355242D01*
X103310831Y-83348393D01*
X103194411Y-83307509D01*
X103182716Y-83304943D01*
X103159179Y-83302719D01*
X103154541Y-83302500D01*
X103055680Y-83302500D01*
X103042995Y-83306622D01*
X103040000Y-83310743D01*
X103040000Y-84506819D01*
X102740000Y-84506819D01*
X102740000Y-84078180D01*
X102735878Y-84065495D01*
X102731757Y-84062500D01*
X102238181Y-84062500D01*
X102225496Y-84066622D01*
X102222501Y-84070743D01*
X102222501Y-84119538D01*
X100256096Y-84119538D01*
X100255620Y-84045918D01*
X100274151Y-83987607D01*
X100323417Y-83951324D01*
X100387421Y-83951871D01*
X100503089Y-83992491D01*
X100514784Y-83995057D01*
X100538321Y-83997281D01*
X100542959Y-83997500D01*
X100584320Y-83997500D01*
X100597005Y-83993378D01*
X100600000Y-83989257D01*
X100600000Y-83981819D01*
X100900000Y-83981819D01*
X100904122Y-83994504D01*
X100908243Y-83997499D01*
X100957038Y-83997499D01*
X100961684Y-83997280D01*
X100985211Y-83995057D01*
X100996915Y-83992489D01*
X101113331Y-83951607D01*
X101126267Y-83944758D01*
X101224410Y-83872267D01*
X101234767Y-83861910D01*
X101307258Y-83763767D01*
X101314107Y-83750831D01*
X101315516Y-83746820D01*
X102222500Y-83746820D01*
X102226622Y-83759505D01*
X102230743Y-83762500D01*
X102724320Y-83762500D01*
X102737005Y-83758378D01*
X102740000Y-83754257D01*
X102740000Y-83318181D01*
X102735878Y-83305496D01*
X102731757Y-83302501D01*
X102625462Y-83302501D01*
X102620816Y-83302720D01*
X102597289Y-83304943D01*
X102585585Y-83307511D01*
X102469169Y-83348393D01*
X102456233Y-83355242D01*
X102358090Y-83427733D01*
X102347733Y-83438090D01*
X102275242Y-83536233D01*
X102268393Y-83549169D01*
X102227509Y-83665589D01*
X102224943Y-83677284D01*
X102222719Y-83700821D01*
X102222500Y-83705459D01*
X102222500Y-83746820D01*
X101315516Y-83746820D01*
X101354991Y-83634411D01*
X101357557Y-83622716D01*
X101359781Y-83599179D01*
X101360000Y-83594541D01*
X101360000Y-83495680D01*
X101355878Y-83482995D01*
X101351757Y-83480000D01*
X100915680Y-83480000D01*
X100902995Y-83484122D01*
X100900000Y-83488243D01*
X100900000Y-83981819D01*
X100600000Y-83981819D01*
X100600000Y-83279000D01*
X100618907Y-83220809D01*
X100668407Y-83184845D01*
X100699000Y-83180000D01*
X101344319Y-83180000D01*
X101357004Y-83175878D01*
X101359999Y-83171757D01*
X101359999Y-83065462D01*
X101359780Y-83060816D01*
X101357557Y-83037289D01*
X101354989Y-83025585D01*
X101314107Y-82909169D01*
X101307258Y-82896233D01*
X101234765Y-82798088D01*
X101231321Y-82794643D01*
X101203547Y-82740124D01*
X101213122Y-82679693D01*
X101231325Y-82654639D01*
X101237146Y-82648818D01*
X101254980Y-82613818D01*
X101291925Y-82541308D01*
X101291925Y-82541307D01*
X101295461Y-82534368D01*
X101301005Y-82499368D01*
X101309891Y-82443262D01*
X101309891Y-82443260D01*
X101310500Y-82439416D01*
X101310500Y-82344743D01*
X104175000Y-82344743D01*
X104175359Y-82350699D01*
X104185090Y-82431113D01*
X104188195Y-82443340D01*
X104238842Y-82571260D01*
X104245408Y-82582913D01*
X104328352Y-82692186D01*
X104337814Y-82701648D01*
X104447087Y-82784592D01*
X104458740Y-82791158D01*
X104586660Y-82841805D01*
X104598887Y-82844910D01*
X104679301Y-82854641D01*
X104685257Y-82855000D01*
X104896820Y-82855000D01*
X104909505Y-82850878D01*
X104912500Y-82846757D01*
X104912500Y-82839320D01*
X105212500Y-82839320D01*
X105216622Y-82852005D01*
X105220743Y-82855000D01*
X105439743Y-82855000D01*
X105445699Y-82854641D01*
X105526113Y-82844910D01*
X105538340Y-82841805D01*
X105666260Y-82791158D01*
X105677913Y-82784592D01*
X105787186Y-82701648D01*
X105796648Y-82692186D01*
X105879592Y-82582913D01*
X105886158Y-82571260D01*
X105936805Y-82443340D01*
X105939910Y-82431113D01*
X105949641Y-82350699D01*
X105950000Y-82344743D01*
X105950000Y-81995680D01*
X105945878Y-81982995D01*
X105941757Y-81980000D01*
X105228180Y-81980000D01*
X105215495Y-81984122D01*
X105212500Y-81988243D01*
X105212500Y-82839320D01*
X104912500Y-82839320D01*
X104912500Y-81995680D01*
X104908378Y-81982995D01*
X104904257Y-81980000D01*
X104190680Y-81980000D01*
X104177995Y-81984122D01*
X104175000Y-81988243D01*
X104175000Y-82344743D01*
X101310500Y-82344743D01*
X101310500Y-81950584D01*
X101298450Y-81874501D01*
X101296680Y-81863327D01*
X101296680Y-81863326D01*
X101295461Y-81855632D01*
X101237146Y-81741182D01*
X101166672Y-81670708D01*
X101163417Y-81664320D01*
X104175000Y-81664320D01*
X104179122Y-81677005D01*
X104183243Y-81680000D01*
X104896820Y-81680000D01*
X104909505Y-81675878D01*
X104912500Y-81671757D01*
X104912500Y-81664320D01*
X105212500Y-81664320D01*
X105216622Y-81677005D01*
X105220743Y-81680000D01*
X105934320Y-81680000D01*
X105947005Y-81675878D01*
X105950000Y-81671757D01*
X105950000Y-81315257D01*
X105949641Y-81309301D01*
X105939910Y-81228887D01*
X105936805Y-81216660D01*
X105886158Y-81088740D01*
X105879592Y-81077087D01*
X105796648Y-80967814D01*
X105787186Y-80958352D01*
X105677913Y-80875408D01*
X105666260Y-80868842D01*
X105538340Y-80818195D01*
X105526113Y-80815090D01*
X105445699Y-80805359D01*
X105439743Y-80805000D01*
X105228180Y-80805000D01*
X105215495Y-80809122D01*
X105212500Y-80813243D01*
X105212500Y-81664320D01*
X104912500Y-81664320D01*
X104912500Y-80820680D01*
X104908378Y-80807995D01*
X104904257Y-80805000D01*
X104685257Y-80805000D01*
X104679301Y-80805359D01*
X104598887Y-80815090D01*
X104586660Y-80818195D01*
X104458740Y-80868842D01*
X104447087Y-80875408D01*
X104337814Y-80958352D01*
X104328352Y-80967814D01*
X104245408Y-81077087D01*
X104238842Y-81088740D01*
X104188195Y-81216660D01*
X104185090Y-81228887D01*
X104175359Y-81309301D01*
X104175000Y-81315257D01*
X104175000Y-81664320D01*
X101163417Y-81664320D01*
X101138895Y-81616191D01*
X101148466Y-81555759D01*
X101158134Y-81540436D01*
X101236910Y-81437774D01*
X101240861Y-81432625D01*
X101296330Y-81298709D01*
X101299485Y-81274750D01*
X101314403Y-81161433D01*
X101315250Y-81155000D01*
X101306527Y-81088740D01*
X101297177Y-81017722D01*
X101297176Y-81017720D01*
X101296330Y-81011291D01*
X101240861Y-80877375D01*
X101152621Y-80762379D01*
X101037625Y-80674139D01*
X100903709Y-80618670D01*
X100897280Y-80617824D01*
X100897278Y-80617823D01*
X100766433Y-80600597D01*
X100760000Y-80599750D01*
X100753567Y-80600597D01*
X100622722Y-80617823D01*
X100622720Y-80617824D01*
X100616291Y-80618670D01*
X100482375Y-80674139D01*
X100367379Y-80762379D01*
X100363428Y-80767528D01*
X100363425Y-80767531D01*
X100338542Y-80799959D01*
X100288117Y-80834615D01*
X100226953Y-80833013D01*
X100181458Y-80799959D01*
X100156575Y-80767531D01*
X100156572Y-80767528D01*
X100152621Y-80762379D01*
X100037625Y-80674139D01*
X99903709Y-80618670D01*
X99897280Y-80617824D01*
X99897278Y-80617823D01*
X99766433Y-80600597D01*
X99760000Y-80599750D01*
X99753567Y-80600597D01*
X99622722Y-80617823D01*
X99622720Y-80617824D01*
X99616291Y-80618670D01*
X99605264Y-80623238D01*
X99604181Y-80623686D01*
X99543184Y-80628486D01*
X99491015Y-80596517D01*
X99467601Y-80539989D01*
X99467298Y-80531578D01*
X99472281Y-79781639D01*
X102840000Y-79781639D01*
X102840346Y-79787485D01*
X102842234Y-79803353D01*
X102846128Y-79817519D01*
X102884770Y-79904514D01*
X102894946Y-79919321D01*
X102961108Y-79985367D01*
X102975931Y-79995517D01*
X103062980Y-80034000D01*
X103077185Y-80037873D01*
X103092580Y-80039668D01*
X103098292Y-80040000D01*
X104874320Y-80040000D01*
X104887005Y-80035878D01*
X104890000Y-80031757D01*
X104890000Y-80024320D01*
X105190000Y-80024320D01*
X105194122Y-80037005D01*
X105198243Y-80040000D01*
X106981639Y-80040000D01*
X106987485Y-80039654D01*
X107003353Y-80037766D01*
X107017519Y-80033872D01*
X107104514Y-79995230D01*
X107119321Y-79985054D01*
X107185367Y-79918892D01*
X107195517Y-79904069D01*
X107234000Y-79817020D01*
X107237873Y-79802815D01*
X107239668Y-79787420D01*
X107240000Y-79781708D01*
X107240000Y-78905680D01*
X107235878Y-78892995D01*
X107231757Y-78890000D01*
X105205680Y-78890000D01*
X105192995Y-78894122D01*
X105190000Y-78898243D01*
X105190000Y-80024320D01*
X104890000Y-80024320D01*
X104890000Y-78905680D01*
X104885878Y-78892995D01*
X104881757Y-78890000D01*
X102855680Y-78890000D01*
X102842995Y-78894122D01*
X102840000Y-78898243D01*
X102840000Y-79781639D01*
X99472281Y-79781639D01*
X99479491Y-78696593D01*
X99479896Y-78635679D01*
X99479896Y-78635678D01*
X99480000Y-78620000D01*
X99438732Y-78581757D01*
X99430707Y-78574320D01*
X102840000Y-78574320D01*
X102844122Y-78587005D01*
X102848243Y-78590000D01*
X104874320Y-78590000D01*
X104887005Y-78585878D01*
X104890000Y-78581757D01*
X104890000Y-78574320D01*
X105190000Y-78574320D01*
X105194122Y-78587005D01*
X105198243Y-78590000D01*
X107224320Y-78590000D01*
X107237005Y-78585878D01*
X107240000Y-78581757D01*
X107240000Y-77698361D01*
X107239654Y-77692515D01*
X107237766Y-77676647D01*
X107233872Y-77662481D01*
X107195230Y-77575486D01*
X107185054Y-77560679D01*
X107118892Y-77494633D01*
X107104069Y-77484483D01*
X107017020Y-77446000D01*
X107002815Y-77442127D01*
X106987420Y-77440332D01*
X106981708Y-77440000D01*
X105205680Y-77440000D01*
X105192995Y-77444122D01*
X105190000Y-77448243D01*
X105190000Y-78574320D01*
X104890000Y-78574320D01*
X104890000Y-77455680D01*
X104885878Y-77442995D01*
X104881757Y-77440000D01*
X103098361Y-77440000D01*
X103092515Y-77440346D01*
X103076647Y-77442234D01*
X103062481Y-77446128D01*
X102975486Y-77484770D01*
X102960679Y-77494946D01*
X102894633Y-77561108D01*
X102884483Y-77575931D01*
X102846000Y-77662980D01*
X102842127Y-77677185D01*
X102840332Y-77692580D01*
X102840000Y-77698292D01*
X102840000Y-78574320D01*
X99430707Y-78574320D01*
X98433013Y-77649762D01*
X98403182Y-77596341D01*
X98401304Y-77577167D01*
X98400755Y-74773443D01*
X98419651Y-74715249D01*
X98469144Y-74679275D01*
X98507206Y-74675991D01*
X98507295Y-74674744D01*
X98510810Y-74674995D01*
X98514319Y-74675500D01*
X103127367Y-74675500D01*
X103156861Y-74672412D01*
X103177738Y-74670226D01*
X103177745Y-74670225D01*
X103180294Y-74669958D01*
X103182802Y-74669427D01*
X103182808Y-74669426D01*
X103229340Y-74659573D01*
X103229346Y-74659572D01*
X103230553Y-74659316D01*
X103231759Y-74658996D01*
X103249701Y-74654234D01*
X103249702Y-74654233D01*
X103255623Y-74652662D01*
X103329676Y-74611572D01*
X103338545Y-74606651D01*
X103338547Y-74606649D01*
X103342794Y-74604293D01*
X103396101Y-74559126D01*
X103428088Y-74526704D01*
X103475271Y-74438885D01*
X103495697Y-74372068D01*
X103496840Y-74364703D01*
X103506301Y-74303697D01*
X103506843Y-74300205D01*
X103509325Y-74076203D01*
X103503799Y-74020444D01*
X103492601Y-73967560D01*
X103485068Y-73939801D01*
X103435737Y-73853171D01*
X103432553Y-73849496D01*
X103430563Y-73846684D01*
X103412385Y-73788262D01*
X103432018Y-73730312D01*
X103481964Y-73694970D01*
X103505020Y-73691466D01*
X103504972Y-73690977D01*
X103509814Y-73690500D01*
X103514674Y-73690500D01*
X103587740Y-73675966D01*
X103670601Y-73620601D01*
X103725966Y-73537740D01*
X103737125Y-73481639D01*
X103990000Y-73481639D01*
X103990346Y-73487485D01*
X103992234Y-73503353D01*
X103996128Y-73517519D01*
X104034770Y-73604514D01*
X104044946Y-73619321D01*
X104111108Y-73685367D01*
X104125931Y-73695517D01*
X104212980Y-73734000D01*
X104227185Y-73737873D01*
X104242580Y-73739668D01*
X104248292Y-73740000D01*
X104874320Y-73740000D01*
X104887005Y-73735878D01*
X104890000Y-73731757D01*
X104890000Y-73724320D01*
X105190000Y-73724320D01*
X105194122Y-73737005D01*
X105198243Y-73740000D01*
X105831639Y-73740000D01*
X105837485Y-73739654D01*
X105853353Y-73737766D01*
X105867519Y-73733872D01*
X105954514Y-73695230D01*
X105969321Y-73685054D01*
X106035367Y-73618892D01*
X106045517Y-73604069D01*
X106084000Y-73517020D01*
X106087873Y-73502815D01*
X106089668Y-73487420D01*
X106090000Y-73481708D01*
X106090000Y-72605680D01*
X106085878Y-72592995D01*
X106081757Y-72590000D01*
X105205680Y-72590000D01*
X105192995Y-72594122D01*
X105190000Y-72598243D01*
X105190000Y-73724320D01*
X104890000Y-73724320D01*
X104890000Y-72605680D01*
X104885878Y-72592995D01*
X104881757Y-72590000D01*
X104005680Y-72590000D01*
X103992995Y-72594122D01*
X103990000Y-72598243D01*
X103990000Y-73481639D01*
X103737125Y-73481639D01*
X103740500Y-73464674D01*
X103740500Y-71415326D01*
X103725966Y-71342260D01*
X103670601Y-71259399D01*
X103651769Y-71246816D01*
X103613889Y-71198766D01*
X103611487Y-71137628D01*
X103645479Y-71086754D01*
X103706770Y-71065500D01*
X104001187Y-71065500D01*
X104059378Y-71084407D01*
X104095342Y-71133907D01*
X104095342Y-71195093D01*
X104071252Y-71234442D01*
X104044633Y-71261107D01*
X104034483Y-71275931D01*
X103996000Y-71362980D01*
X103992127Y-71377185D01*
X103990332Y-71392580D01*
X103990000Y-71398292D01*
X103990000Y-72274320D01*
X103994122Y-72287005D01*
X103998243Y-72290000D01*
X104874320Y-72290000D01*
X104887005Y-72285878D01*
X104890000Y-72281757D01*
X104890000Y-72274320D01*
X105190000Y-72274320D01*
X105194122Y-72287005D01*
X105198243Y-72290000D01*
X106074320Y-72290000D01*
X106087005Y-72285878D01*
X106090000Y-72281757D01*
X106090000Y-71398361D01*
X106089654Y-71392515D01*
X106087766Y-71376647D01*
X106083872Y-71362481D01*
X106045230Y-71275486D01*
X106035054Y-71260679D01*
X105968892Y-71194633D01*
X105954069Y-71184483D01*
X105867020Y-71146000D01*
X105852815Y-71142127D01*
X105837420Y-71140332D01*
X105831708Y-71140000D01*
X105205680Y-71140000D01*
X105192995Y-71144122D01*
X105190000Y-71148243D01*
X105190000Y-72274320D01*
X104890000Y-72274320D01*
X104890000Y-71155680D01*
X104885878Y-71142995D01*
X104881757Y-71140000D01*
X104769326Y-71140000D01*
X104711135Y-71121093D01*
X104675171Y-71071593D01*
X104675171Y-71010407D01*
X104704493Y-70966183D01*
X104727632Y-70946133D01*
X104759257Y-70913359D01*
X104805465Y-70825024D01*
X104825150Y-70757985D01*
X104835500Y-70686000D01*
X104835500Y-70619402D01*
X104835452Y-70618342D01*
X104835452Y-70618320D01*
X104834523Y-70597616D01*
X104834475Y-70596537D01*
X104832489Y-70574434D01*
X104820550Y-70532472D01*
X104816292Y-70517509D01*
X104806408Y-70482771D01*
X104804328Y-70478623D01*
X104804326Y-70478618D01*
X104776074Y-70422278D01*
X104776072Y-70422275D01*
X104775089Y-70420314D01*
X104751125Y-70381582D01*
X104691377Y-70327989D01*
X104680529Y-70318258D01*
X104680525Y-70318255D01*
X104676914Y-70315016D01*
X104672738Y-70312542D01*
X104672735Y-70312540D01*
X104618699Y-70280531D01*
X104616800Y-70279406D01*
X104584532Y-70263996D01*
X104540170Y-70221859D01*
X104529048Y-70161693D01*
X104547975Y-70115288D01*
X104609293Y-70033472D01*
X104613526Y-70027824D01*
X104663851Y-69893580D01*
X104670500Y-69832377D01*
X104670499Y-68787624D01*
X104670499Y-68787623D01*
X105069500Y-68787623D01*
X105069501Y-69832376D01*
X105069790Y-69835035D01*
X105069790Y-69835038D01*
X105075413Y-69886800D01*
X105076149Y-69893580D01*
X105126474Y-70027824D01*
X105212454Y-70142546D01*
X105327176Y-70228526D01*
X105333782Y-70231003D01*
X105333785Y-70231004D01*
X105367197Y-70243529D01*
X105461420Y-70278851D01*
X105522623Y-70285500D01*
X105907356Y-70285500D01*
X106292376Y-70285499D01*
X106295035Y-70285210D01*
X106295038Y-70285210D01*
X106347405Y-70279522D01*
X106347407Y-70279522D01*
X106353580Y-70278851D01*
X106359394Y-70276671D01*
X106359400Y-70276670D01*
X106368728Y-70273173D01*
X106429852Y-70270452D01*
X106480902Y-70304180D01*
X106494940Y-70327989D01*
X106531654Y-70416627D01*
X106531656Y-70416631D01*
X106534139Y-70422625D01*
X106622379Y-70537621D01*
X106737375Y-70625861D01*
X106871291Y-70681330D01*
X106877720Y-70682176D01*
X106877722Y-70682177D01*
X106891835Y-70684035D01*
X106903423Y-70685560D01*
X106958647Y-70711901D01*
X106987842Y-70765671D01*
X106989500Y-70783713D01*
X106989500Y-71090500D01*
X106970593Y-71148691D01*
X106921093Y-71184655D01*
X106890500Y-71189500D01*
X106565326Y-71189500D01*
X106492260Y-71204034D01*
X106468178Y-71220125D01*
X106439817Y-71239075D01*
X106409399Y-71259399D01*
X106354034Y-71342260D01*
X106339500Y-71415326D01*
X106339500Y-73464674D01*
X106354034Y-73537740D01*
X106409399Y-73620601D01*
X106492260Y-73675966D01*
X106565326Y-73690500D01*
X108114674Y-73690500D01*
X108187740Y-73675966D01*
X108270601Y-73620601D01*
X108325966Y-73537740D01*
X108340500Y-73464674D01*
X108340500Y-71415326D01*
X108325966Y-71342260D01*
X108270601Y-71259399D01*
X108240184Y-71239075D01*
X108211822Y-71220125D01*
X108187740Y-71204034D01*
X108114674Y-71189500D01*
X107789500Y-71189500D01*
X107731309Y-71170593D01*
X107695345Y-71121093D01*
X107690500Y-71090500D01*
X107690500Y-70517953D01*
X107692718Y-70497115D01*
X107693230Y-70494739D01*
X107693230Y-70494738D01*
X107694952Y-70486740D01*
X107691186Y-70454923D01*
X107690839Y-70449043D01*
X107690837Y-70449043D01*
X107690500Y-70444967D01*
X107690500Y-70440885D01*
X107687505Y-70422892D01*
X107686850Y-70418290D01*
X107682197Y-70378984D01*
X107681236Y-70370862D01*
X107677882Y-70363877D01*
X107677461Y-70362546D01*
X107676188Y-70354897D01*
X107653495Y-70312840D01*
X107651395Y-70308717D01*
X107633420Y-70271283D01*
X107633418Y-70271279D01*
X107630726Y-70265674D01*
X107627408Y-70261726D01*
X107625900Y-70260218D01*
X107624718Y-70258929D01*
X107623852Y-70257903D01*
X107620778Y-70252206D01*
X107614773Y-70246655D01*
X107614770Y-70246651D01*
X107600793Y-70233732D01*
X107570896Y-70180349D01*
X107570163Y-70157922D01*
X107569403Y-70157922D01*
X107569403Y-70151434D01*
X107570250Y-70145000D01*
X107564228Y-70099258D01*
X107552177Y-70007722D01*
X107552176Y-70007720D01*
X107551330Y-70001291D01*
X107495861Y-69867375D01*
X107407621Y-69752379D01*
X107292625Y-69664139D01*
X107158709Y-69608670D01*
X107152280Y-69607824D01*
X107152278Y-69607823D01*
X107021433Y-69590597D01*
X107015000Y-69589750D01*
X107008566Y-69590597D01*
X107002078Y-69590597D01*
X107002078Y-69588699D01*
X106950597Y-69579152D01*
X106927840Y-69562158D01*
X106774496Y-69408814D01*
X106746719Y-69354297D01*
X106745500Y-69338810D01*
X106745499Y-68790301D01*
X106745499Y-68787624D01*
X106745210Y-68784962D01*
X106739522Y-68732595D01*
X106739522Y-68732593D01*
X106738851Y-68726420D01*
X106707646Y-68643180D01*
X106691004Y-68598785D01*
X106691003Y-68598782D01*
X106688526Y-68592176D01*
X106602546Y-68477454D01*
X106596214Y-68472708D01*
X106493472Y-68395707D01*
X106487824Y-68391474D01*
X106481218Y-68388997D01*
X106481215Y-68388996D01*
X106409862Y-68362248D01*
X106353580Y-68341149D01*
X106292377Y-68334500D01*
X105907644Y-68334500D01*
X105522624Y-68334501D01*
X105519965Y-68334790D01*
X105519962Y-68334790D01*
X105467595Y-68340478D01*
X105467593Y-68340478D01*
X105461420Y-68341149D01*
X105405138Y-68362248D01*
X105333785Y-68388996D01*
X105333782Y-68388997D01*
X105327176Y-68391474D01*
X105321528Y-68395707D01*
X105218787Y-68472708D01*
X105212454Y-68477454D01*
X105126474Y-68592176D01*
X105123997Y-68598782D01*
X105123996Y-68598785D01*
X105115598Y-68621188D01*
X105076149Y-68726420D01*
X105069500Y-68787623D01*
X104670499Y-68787623D01*
X104670210Y-68784962D01*
X104664522Y-68732595D01*
X104664522Y-68732593D01*
X104663851Y-68726420D01*
X104632646Y-68643180D01*
X104616004Y-68598785D01*
X104616003Y-68598782D01*
X104613526Y-68592176D01*
X104527546Y-68477454D01*
X104521214Y-68472708D01*
X104418472Y-68395707D01*
X104412824Y-68391474D01*
X104406218Y-68388997D01*
X104406215Y-68388996D01*
X104334862Y-68362248D01*
X104278580Y-68341149D01*
X104217377Y-68334500D01*
X103832644Y-68334500D01*
X103447624Y-68334501D01*
X103444965Y-68334790D01*
X103444962Y-68334790D01*
X103392595Y-68340478D01*
X103392593Y-68340478D01*
X103386420Y-68341149D01*
X103372170Y-68346491D01*
X103365445Y-68349012D01*
X103304320Y-68351734D01*
X103253269Y-68318008D01*
X103231792Y-68260716D01*
X103231836Y-68251014D01*
X103234027Y-68210137D01*
X103234027Y-68210136D01*
X103234287Y-68205283D01*
X103224343Y-68136125D01*
X103213869Y-68091802D01*
X103164538Y-68005172D01*
X103154170Y-67993207D01*
X103120235Y-67954043D01*
X103120228Y-67954036D01*
X103118783Y-67952368D01*
X103086009Y-67920743D01*
X102997674Y-67874535D01*
X102930635Y-67854850D01*
X102927141Y-67854348D01*
X102927138Y-67854347D01*
X102904331Y-67851068D01*
X102858650Y-67844500D01*
X102184691Y-67844500D01*
X102129685Y-67850491D01*
X102127073Y-67851067D01*
X102127066Y-67851068D01*
X102078861Y-67861695D01*
X102078843Y-67861700D01*
X102077548Y-67861985D01*
X102076255Y-67862345D01*
X102076249Y-67862347D01*
X102067376Y-67864821D01*
X102050523Y-67869520D01*
X102045135Y-67872628D01*
X102045130Y-67872630D01*
X101969613Y-67916190D01*
X101964168Y-67919331D01*
X101960508Y-67922538D01*
X101960504Y-67922541D01*
X101956945Y-67925660D01*
X101911619Y-67965378D01*
X101880175Y-67998330D01*
X101876929Y-68004620D01*
X101876927Y-68004623D01*
X101836686Y-68082605D01*
X101834459Y-68086921D01*
X101815147Y-68154069D01*
X101805197Y-68226109D01*
X101808388Y-68800500D01*
X101812524Y-69544950D01*
X101793941Y-69603245D01*
X101744641Y-69639483D01*
X101713526Y-69644500D01*
X100974000Y-69644500D01*
X100955082Y-69646534D01*
X100895205Y-69633955D01*
X100854155Y-69588584D01*
X100845500Y-69548101D01*
X100845500Y-68730326D01*
X100843566Y-68720603D01*
X100839605Y-68700688D01*
X100844311Y-68652908D01*
X100843466Y-68652740D01*
X100845173Y-68644159D01*
X100845173Y-68644158D01*
X100858000Y-68579674D01*
X100858000Y-67830326D01*
X100843466Y-67757260D01*
X100788101Y-67674399D01*
X100705240Y-67619034D01*
X100632174Y-67604500D01*
X100499500Y-67604500D01*
X100441309Y-67585593D01*
X100405345Y-67536093D01*
X100400500Y-67505500D01*
X100400500Y-66301496D01*
X100390883Y-66210000D01*
X106344532Y-66210000D01*
X106364365Y-66436692D01*
X106423261Y-66656496D01*
X106519432Y-66862734D01*
X106649953Y-67049139D01*
X106810861Y-67210047D01*
X106997266Y-67340568D01*
X107203504Y-67436739D01*
X107292563Y-67460602D01*
X107419131Y-67494516D01*
X107419133Y-67494516D01*
X107423308Y-67495635D01*
X107650000Y-67515468D01*
X107876692Y-67495635D01*
X107880867Y-67494516D01*
X107880869Y-67494516D01*
X108007437Y-67460602D01*
X108096496Y-67436739D01*
X108302734Y-67340568D01*
X108489139Y-67210047D01*
X108650047Y-67049139D01*
X108780568Y-66862734D01*
X108876739Y-66656496D01*
X108935635Y-66436692D01*
X108955468Y-66210000D01*
X108935635Y-65983308D01*
X108929715Y-65961212D01*
X108877857Y-65767677D01*
X108876739Y-65763504D01*
X108780568Y-65557266D01*
X108771334Y-65544078D01*
X108652526Y-65374401D01*
X108652524Y-65374399D01*
X108650047Y-65370861D01*
X108489139Y-65209953D01*
X108387736Y-65138950D01*
X108306279Y-65081914D01*
X108306277Y-65081913D01*
X108302734Y-65079432D01*
X108096496Y-64983261D01*
X107982351Y-64952676D01*
X107880869Y-64925484D01*
X107880867Y-64925484D01*
X107876692Y-64924365D01*
X107650000Y-64904532D01*
X107423308Y-64924365D01*
X107419133Y-64925484D01*
X107419131Y-64925484D01*
X107317649Y-64952676D01*
X107203504Y-64983261D01*
X106997266Y-65079432D01*
X106993723Y-65081913D01*
X106993721Y-65081914D01*
X106912265Y-65138950D01*
X106810861Y-65209953D01*
X106649953Y-65370861D01*
X106647476Y-65374399D01*
X106647474Y-65374401D01*
X106528666Y-65544078D01*
X106519432Y-65557266D01*
X106423261Y-65763504D01*
X106422143Y-65767677D01*
X106370286Y-65961212D01*
X106364365Y-65983308D01*
X106359130Y-66043146D01*
X106345676Y-66196931D01*
X106345173Y-66202675D01*
X106344532Y-66210000D01*
X100390883Y-66210000D01*
X100385262Y-66156518D01*
X100325144Y-65971492D01*
X100227870Y-65803008D01*
X100196058Y-65767677D01*
X100101162Y-65662284D01*
X100101158Y-65662281D01*
X100097692Y-65658431D01*
X99940299Y-65544078D01*
X99875294Y-65515136D01*
X99767309Y-65467058D01*
X99767305Y-65467057D01*
X99762571Y-65464949D01*
X99757501Y-65463871D01*
X99757500Y-65463871D01*
X99721185Y-65456152D01*
X99572274Y-65424500D01*
X99377726Y-65424500D01*
X99228815Y-65456152D01*
X99192500Y-65463871D01*
X99192499Y-65463871D01*
X99187429Y-65464949D01*
X99182695Y-65467057D01*
X99182691Y-65467058D01*
X99074706Y-65515136D01*
X99009701Y-65544078D01*
X98852308Y-65658431D01*
X98848842Y-65662280D01*
X98848839Y-65662283D01*
X98843072Y-65668689D01*
X98790085Y-65699282D01*
X98729234Y-65692888D01*
X98683764Y-65651947D01*
X98670500Y-65602446D01*
X98670500Y-64980326D01*
X98655966Y-64907260D01*
X98600601Y-64824399D01*
X98517740Y-64769034D01*
X98444674Y-64754500D01*
X96965326Y-64754500D01*
X96892260Y-64769034D01*
X96809399Y-64824399D01*
X96809370Y-64824356D01*
X96760487Y-64849262D01*
X96700055Y-64839691D01*
X96682105Y-64826650D01*
X96680601Y-64824399D01*
X96597740Y-64769034D01*
X96524674Y-64754500D01*
X95045326Y-64754500D01*
X94972260Y-64769034D01*
X94889399Y-64824399D01*
X94834034Y-64907260D01*
X94819500Y-64980326D01*
X94819500Y-65602446D01*
X94800593Y-65660637D01*
X94751093Y-65696601D01*
X94689907Y-65696601D01*
X94646928Y-65668689D01*
X94641161Y-65662283D01*
X94641158Y-65662280D01*
X94637692Y-65658431D01*
X94480299Y-65544078D01*
X94415294Y-65515136D01*
X94307309Y-65467058D01*
X94307305Y-65467057D01*
X94302571Y-65464949D01*
X94297501Y-65463871D01*
X94297500Y-65463871D01*
X94261185Y-65456152D01*
X94112274Y-65424500D01*
X93917726Y-65424500D01*
X93768815Y-65456152D01*
X93732500Y-65463871D01*
X93732499Y-65463871D01*
X93727429Y-65464949D01*
X93722695Y-65467057D01*
X93722691Y-65467058D01*
X93614706Y-65515136D01*
X93549701Y-65544078D01*
X93392308Y-65658431D01*
X93388842Y-65662281D01*
X93388838Y-65662284D01*
X93293942Y-65767677D01*
X93262130Y-65803008D01*
X93164856Y-65971492D01*
X93104738Y-66156518D01*
X93089500Y-66301496D01*
X93089500Y-66329342D01*
X93083950Y-66357243D01*
X93084034Y-66357260D01*
X93069500Y-66430326D01*
X93069500Y-67505500D01*
X93050593Y-67563691D01*
X93001093Y-67599655D01*
X92970500Y-67604500D01*
X92807826Y-67604500D01*
X92734760Y-67619034D01*
X92651899Y-67674399D01*
X92596534Y-67757260D01*
X92582000Y-67830326D01*
X92582000Y-68579674D01*
X92596534Y-68652740D01*
X92597925Y-68654822D01*
X92603083Y-68707178D01*
X92594500Y-68750326D01*
X92594500Y-70299674D01*
X92609034Y-70372740D01*
X92614451Y-70380847D01*
X92642366Y-70422625D01*
X92664399Y-70455601D01*
X92747260Y-70510966D01*
X92820326Y-70525500D01*
X94271182Y-70525500D01*
X94282904Y-70526196D01*
X94313880Y-70529890D01*
X94313883Y-70529890D01*
X94319376Y-70530545D01*
X94362220Y-70526042D01*
X94372568Y-70525500D01*
X94869674Y-70525500D01*
X94871048Y-70525227D01*
X94929738Y-70538101D01*
X94970382Y-70583836D01*
X94976382Y-70644727D01*
X94968653Y-70664674D01*
X94969139Y-70664875D01*
X94913670Y-70798791D01*
X94894750Y-70942500D01*
X94895597Y-70948933D01*
X94911746Y-71071593D01*
X94913670Y-71086209D01*
X94969139Y-71220125D01*
X95057379Y-71335121D01*
X95172375Y-71423361D01*
X95306291Y-71478830D01*
X95312720Y-71479676D01*
X95312722Y-71479677D01*
X95422221Y-71494093D01*
X95450000Y-71497750D01*
X95452567Y-71497412D01*
X95509191Y-71515810D01*
X95545155Y-71565310D01*
X95550000Y-71595903D01*
X95550000Y-78519149D01*
X95531093Y-78577340D01*
X95481593Y-78613304D01*
X95449166Y-78618132D01*
X92967165Y-78572153D01*
X92909335Y-78552171D01*
X92874294Y-78502014D01*
X92869999Y-78473170D01*
X92869999Y-78413557D01*
X92869780Y-78408914D01*
X92867589Y-78385731D01*
X92865024Y-78374035D01*
X92824638Y-78259034D01*
X92817791Y-78246101D01*
X92746192Y-78149165D01*
X92735835Y-78138808D01*
X92638899Y-78067209D01*
X92625966Y-78060362D01*
X92510969Y-78019978D01*
X92499266Y-78017410D01*
X92476082Y-78015218D01*
X92471446Y-78015000D01*
X91935680Y-78015000D01*
X91922995Y-78019122D01*
X91920000Y-78023243D01*
X91920000Y-78552755D01*
X91620000Y-78547197D01*
X91620000Y-78030681D01*
X91615878Y-78017996D01*
X91611757Y-78015001D01*
X91068557Y-78015001D01*
X91063914Y-78015220D01*
X91040731Y-78017411D01*
X91029035Y-78019976D01*
X90914034Y-78060362D01*
X90901101Y-78067209D01*
X90804165Y-78138808D01*
X90793808Y-78149165D01*
X90722209Y-78246101D01*
X90715362Y-78259034D01*
X90674978Y-78374031D01*
X90672410Y-78385734D01*
X90670218Y-78408918D01*
X90670000Y-78413554D01*
X90670000Y-78428748D01*
X90651093Y-78486939D01*
X90601593Y-78522903D01*
X90569166Y-78527731D01*
X85703873Y-78437602D01*
X85646045Y-78417621D01*
X85611004Y-78367464D01*
X85607928Y-78354105D01*
X85606865Y-78347390D01*
X85606864Y-78347387D01*
X85605646Y-78339696D01*
X85567287Y-78264413D01*
X85551586Y-78233597D01*
X85551585Y-78233595D01*
X85548050Y-78226658D01*
X85458342Y-78136950D01*
X85451405Y-78133415D01*
X85451403Y-78133414D01*
X85352244Y-78082890D01*
X85352243Y-78082890D01*
X85345304Y-78079354D01*
X85337610Y-78078135D01*
X85337609Y-78078135D01*
X85255365Y-78065109D01*
X85255363Y-78065109D01*
X85251519Y-78064500D01*
X84994500Y-78064500D01*
X84936309Y-78045593D01*
X84900345Y-77996093D01*
X84895500Y-77965500D01*
X84895500Y-77222056D01*
X84914407Y-77163865D01*
X84949555Y-77133846D01*
X84967355Y-77124777D01*
X84967357Y-77124775D01*
X84974294Y-77121241D01*
X85066241Y-77029294D01*
X85074474Y-77013137D01*
X85097953Y-76967055D01*
X85141218Y-76923791D01*
X85186163Y-76913000D01*
X85513837Y-76913000D01*
X85572028Y-76931907D01*
X85602047Y-76967055D01*
X85625527Y-77013137D01*
X85633759Y-77029294D01*
X85725706Y-77121241D01*
X85732643Y-77124776D01*
X85732645Y-77124777D01*
X85825179Y-77171925D01*
X85841567Y-77180275D01*
X85849261Y-77181494D01*
X85849262Y-77181494D01*
X85933847Y-77194891D01*
X85933849Y-77194891D01*
X85937693Y-77195500D01*
X86129975Y-77195500D01*
X86322306Y-77195499D01*
X86326149Y-77194890D01*
X86326154Y-77194890D01*
X86410739Y-77181494D01*
X86410742Y-77181493D01*
X86418433Y-77180275D01*
X86476363Y-77150758D01*
X86527355Y-77124777D01*
X86527357Y-77124776D01*
X86534294Y-77121241D01*
X86626241Y-77029294D01*
X86634474Y-77013137D01*
X86681739Y-76920373D01*
X86681739Y-76920372D01*
X86685275Y-76913433D01*
X86697375Y-76837041D01*
X86699891Y-76821153D01*
X86699891Y-76821151D01*
X86700500Y-76817307D01*
X86700500Y-76630000D01*
X89039750Y-76630000D01*
X89058670Y-76773709D01*
X89114139Y-76907625D01*
X89202379Y-77022621D01*
X89317375Y-77110861D01*
X89451291Y-77166330D01*
X89457720Y-77167176D01*
X89457722Y-77167177D01*
X89588567Y-77184403D01*
X89595000Y-77185250D01*
X89601433Y-77184403D01*
X89732278Y-77167177D01*
X89732280Y-77167176D01*
X89738709Y-77166330D01*
X89872625Y-77110861D01*
X89973364Y-77033560D01*
X90031039Y-77013137D01*
X90089705Y-77030514D01*
X90103635Y-77042099D01*
X90178682Y-77117146D01*
X90185619Y-77120681D01*
X90185621Y-77120682D01*
X90286192Y-77171925D01*
X90293132Y-77175461D01*
X90300826Y-77176680D01*
X90300827Y-77176680D01*
X90384238Y-77189891D01*
X90384240Y-77189891D01*
X90388084Y-77190500D01*
X90876916Y-77190500D01*
X90880760Y-77189891D01*
X90880762Y-77189891D01*
X90964173Y-77176680D01*
X90964174Y-77176680D01*
X90971868Y-77175461D01*
X90978808Y-77171925D01*
X91079379Y-77120682D01*
X91079381Y-77120681D01*
X91086318Y-77117146D01*
X91092139Y-77111325D01*
X91092536Y-77111123D01*
X91098132Y-77107057D01*
X91098776Y-77107943D01*
X91146656Y-77083548D01*
X91207088Y-77093119D01*
X91232143Y-77111321D01*
X91235588Y-77114765D01*
X91333733Y-77187258D01*
X91346669Y-77194107D01*
X91463089Y-77234991D01*
X91474784Y-77237557D01*
X91498321Y-77239781D01*
X91502959Y-77240000D01*
X91601820Y-77240000D01*
X91614505Y-77235878D01*
X91617500Y-77231757D01*
X91617500Y-77224319D01*
X91917500Y-77224319D01*
X91921622Y-77237004D01*
X91925743Y-77239999D01*
X92032038Y-77239999D01*
X92036684Y-77239780D01*
X92060211Y-77237557D01*
X92071915Y-77234989D01*
X92188331Y-77194107D01*
X92201267Y-77187258D01*
X92299410Y-77114767D01*
X92309767Y-77104410D01*
X92382258Y-77006267D01*
X92389107Y-76993331D01*
X92429991Y-76876911D01*
X92432557Y-76865216D01*
X92434781Y-76841679D01*
X92435000Y-76837041D01*
X92435000Y-76795680D01*
X92430878Y-76782995D01*
X92426757Y-76780000D01*
X91933180Y-76780000D01*
X91920495Y-76784122D01*
X91917500Y-76788243D01*
X91917500Y-77224319D01*
X91617500Y-77224319D01*
X91617500Y-76464320D01*
X91917500Y-76464320D01*
X91921622Y-76477005D01*
X91925743Y-76480000D01*
X92419319Y-76480000D01*
X92432004Y-76475878D01*
X92434999Y-76471757D01*
X92434999Y-76422962D01*
X92434780Y-76418316D01*
X92432557Y-76394789D01*
X92429989Y-76383085D01*
X92389107Y-76266669D01*
X92382258Y-76253733D01*
X92309767Y-76155590D01*
X92299410Y-76145233D01*
X92201267Y-76072742D01*
X92188331Y-76065893D01*
X92071911Y-76025009D01*
X92060216Y-76022443D01*
X92036679Y-76020219D01*
X92032041Y-76020000D01*
X91933180Y-76020000D01*
X91920495Y-76024122D01*
X91917500Y-76028243D01*
X91917500Y-76464320D01*
X91617500Y-76464320D01*
X91617500Y-76035681D01*
X91613378Y-76022996D01*
X91609257Y-76020001D01*
X91502962Y-76020001D01*
X91498316Y-76020220D01*
X91474789Y-76022443D01*
X91463085Y-76025011D01*
X91346669Y-76065893D01*
X91333733Y-76072742D01*
X91235588Y-76145235D01*
X91232143Y-76148679D01*
X91177624Y-76176453D01*
X91117193Y-76166878D01*
X91092139Y-76148675D01*
X91086318Y-76142854D01*
X91079381Y-76139319D01*
X91079379Y-76139318D01*
X90978808Y-76088075D01*
X90978807Y-76088075D01*
X90971868Y-76084539D01*
X90964174Y-76083320D01*
X90964173Y-76083320D01*
X90880762Y-76070109D01*
X90880760Y-76070109D01*
X90876916Y-76069500D01*
X90388084Y-76069500D01*
X90384240Y-76070109D01*
X90384238Y-76070109D01*
X90300827Y-76083320D01*
X90300826Y-76083320D01*
X90293132Y-76084539D01*
X90286193Y-76088075D01*
X90286192Y-76088075D01*
X90185621Y-76139318D01*
X90185619Y-76139319D01*
X90178682Y-76142854D01*
X90103635Y-76217901D01*
X90049118Y-76245678D01*
X89988686Y-76236107D01*
X89973367Y-76226442D01*
X89872625Y-76149139D01*
X89738709Y-76093670D01*
X89732280Y-76092824D01*
X89732278Y-76092823D01*
X89601433Y-76075597D01*
X89595000Y-76074750D01*
X89588567Y-76075597D01*
X89457722Y-76092823D01*
X89457720Y-76092824D01*
X89451291Y-76093670D01*
X89317375Y-76149139D01*
X89202379Y-76237379D01*
X89114139Y-76352375D01*
X89058670Y-76486291D01*
X89039750Y-76630000D01*
X86700500Y-76630000D01*
X86700499Y-76357694D01*
X86698985Y-76348132D01*
X86686494Y-76269261D01*
X86686493Y-76269258D01*
X86685275Y-76261567D01*
X86655758Y-76203637D01*
X86629777Y-76152645D01*
X86629776Y-76152643D01*
X86626241Y-76145706D01*
X86574028Y-76093493D01*
X86546251Y-76038976D01*
X86555822Y-75978544D01*
X86585213Y-75943856D01*
X86612989Y-75923340D01*
X86623343Y-75912986D01*
X86696726Y-75813633D01*
X86703576Y-75800697D01*
X86744957Y-75682860D01*
X86747524Y-75671164D01*
X86749782Y-75647278D01*
X86750000Y-75642642D01*
X86750000Y-75558180D01*
X86745878Y-75545495D01*
X86741757Y-75542500D01*
X85525681Y-75542500D01*
X85512996Y-75546622D01*
X85510001Y-75550743D01*
X85510001Y-75642638D01*
X85510220Y-75647284D01*
X85512476Y-75671159D01*
X85515044Y-75682863D01*
X85556424Y-75800697D01*
X85563274Y-75813633D01*
X85636657Y-75912986D01*
X85647011Y-75923340D01*
X85674787Y-75943856D01*
X85710360Y-75993637D01*
X85709879Y-76054821D01*
X85685972Y-76093493D01*
X85633759Y-76145706D01*
X85630224Y-76152643D01*
X85630223Y-76152645D01*
X85602047Y-76207945D01*
X85558782Y-76251209D01*
X85513837Y-76262000D01*
X85186163Y-76262000D01*
X85127972Y-76243093D01*
X85097953Y-76207945D01*
X85069777Y-76152645D01*
X85069776Y-76152643D01*
X85066241Y-76145706D01*
X84980539Y-76060004D01*
X84952762Y-76005487D01*
X84962333Y-75945055D01*
X84980539Y-75919996D01*
X85066241Y-75834294D01*
X85076769Y-75813633D01*
X85121739Y-75725373D01*
X85121739Y-75725372D01*
X85125275Y-75718433D01*
X85140500Y-75622307D01*
X85140499Y-75226820D01*
X85510000Y-75226820D01*
X85514122Y-75239505D01*
X85518243Y-75242500D01*
X85964320Y-75242500D01*
X85977005Y-75238378D01*
X85980000Y-75234257D01*
X85980000Y-75226820D01*
X86280000Y-75226820D01*
X86284122Y-75239505D01*
X86288243Y-75242500D01*
X86734319Y-75242500D01*
X86747004Y-75238378D01*
X86749999Y-75234257D01*
X86749999Y-75142362D01*
X86749780Y-75137716D01*
X86747524Y-75113841D01*
X86744956Y-75102137D01*
X86703576Y-74984303D01*
X86696726Y-74971367D01*
X86623343Y-74872014D01*
X86612986Y-74861657D01*
X86513633Y-74788274D01*
X86500697Y-74781424D01*
X86382860Y-74740043D01*
X86371164Y-74737476D01*
X86347278Y-74735218D01*
X86342642Y-74735000D01*
X86295680Y-74735000D01*
X86282995Y-74739122D01*
X86280000Y-74743243D01*
X86280000Y-75226820D01*
X85980000Y-75226820D01*
X85980000Y-74750681D01*
X85975878Y-74737996D01*
X85971757Y-74735001D01*
X85917362Y-74735001D01*
X85912716Y-74735220D01*
X85888841Y-74737476D01*
X85877137Y-74740044D01*
X85759303Y-74781424D01*
X85746367Y-74788274D01*
X85647014Y-74861657D01*
X85636657Y-74872014D01*
X85563274Y-74971367D01*
X85556424Y-74984303D01*
X85515043Y-75102140D01*
X85512476Y-75113836D01*
X85510218Y-75137722D01*
X85510000Y-75142358D01*
X85510000Y-75226820D01*
X85140499Y-75226820D01*
X85140499Y-75162694D01*
X85137279Y-75142362D01*
X85126494Y-75074261D01*
X85126493Y-75074258D01*
X85125275Y-75066567D01*
X85095758Y-75008636D01*
X85069777Y-74957645D01*
X85069776Y-74957643D01*
X85066241Y-74950706D01*
X84974294Y-74858759D01*
X84964554Y-74853796D01*
X84962338Y-74851580D01*
X84961051Y-74850645D01*
X84961199Y-74850441D01*
X84921291Y-74810535D01*
X84910500Y-74765588D01*
X84910500Y-73839500D01*
X84929407Y-73781309D01*
X84978907Y-73745345D01*
X85009500Y-73740500D01*
X85134674Y-73740500D01*
X85207740Y-73725966D01*
X85290601Y-73670601D01*
X85345966Y-73587740D01*
X85360500Y-73514674D01*
X87959500Y-73514674D01*
X87974034Y-73587740D01*
X88029399Y-73670601D01*
X88112260Y-73725966D01*
X88185326Y-73740500D01*
X88209454Y-73740500D01*
X88267645Y-73759407D01*
X88303609Y-73808907D01*
X88303609Y-73870093D01*
X88287996Y-73899768D01*
X88259139Y-73937375D01*
X88203670Y-74071291D01*
X88184750Y-74215000D01*
X88185597Y-74221433D01*
X88202481Y-74349676D01*
X88203670Y-74358709D01*
X88259139Y-74492625D01*
X88347379Y-74607621D01*
X88462375Y-74695861D01*
X88596291Y-74751330D01*
X88602720Y-74752176D01*
X88602722Y-74752177D01*
X88733567Y-74769403D01*
X88740000Y-74770250D01*
X88746433Y-74769403D01*
X88877278Y-74752177D01*
X88877280Y-74752176D01*
X88883709Y-74751330D01*
X89017625Y-74695861D01*
X89132621Y-74607621D01*
X89220861Y-74492625D01*
X89276330Y-74358709D01*
X89277520Y-74349676D01*
X89294403Y-74221433D01*
X89295250Y-74215000D01*
X89276330Y-74071291D01*
X89220861Y-73937375D01*
X89192004Y-73899768D01*
X89171580Y-73842092D01*
X89188957Y-73783426D01*
X89237499Y-73746179D01*
X89270546Y-73740500D01*
X89284674Y-73740500D01*
X89357740Y-73725966D01*
X89440601Y-73670601D01*
X89495966Y-73587740D01*
X89510500Y-73514674D01*
X89510500Y-72815326D01*
X89495966Y-72742260D01*
X89440601Y-72659399D01*
X89357740Y-72604034D01*
X89284674Y-72589500D01*
X88185326Y-72589500D01*
X88112260Y-72604034D01*
X88029399Y-72659399D01*
X87974034Y-72742260D01*
X87959500Y-72815326D01*
X87959500Y-73514674D01*
X85360500Y-73514674D01*
X85360500Y-72815326D01*
X85345966Y-72742260D01*
X85290601Y-72659399D01*
X85207740Y-72604034D01*
X85134674Y-72589500D01*
X84035326Y-72589500D01*
X83962260Y-72604034D01*
X83879399Y-72659399D01*
X83824034Y-72742260D01*
X83809500Y-72815326D01*
X83809500Y-73514674D01*
X83824034Y-73587740D01*
X83879399Y-73670601D01*
X83962260Y-73725966D01*
X84035326Y-73740500D01*
X84160500Y-73740500D01*
X84218691Y-73759407D01*
X84254655Y-73808907D01*
X84259500Y-73839500D01*
X84259500Y-74750301D01*
X84240593Y-74808492D01*
X84205445Y-74838511D01*
X84172645Y-74855223D01*
X84172643Y-74855224D01*
X84165706Y-74858759D01*
X84073759Y-74950706D01*
X84070224Y-74957643D01*
X84070223Y-74957645D01*
X84018261Y-75059627D01*
X84014725Y-75066567D01*
X83999500Y-75162693D01*
X83999501Y-75622306D01*
X84000110Y-75626149D01*
X84000110Y-75626154D01*
X84009092Y-75682863D01*
X84014725Y-75718433D01*
X84044242Y-75776363D01*
X84063232Y-75813633D01*
X84073759Y-75834294D01*
X84159461Y-75919996D01*
X84187238Y-75974513D01*
X84177667Y-76034945D01*
X84159461Y-76060004D01*
X84073759Y-76145706D01*
X84070224Y-76152643D01*
X84070223Y-76152645D01*
X84028933Y-76233682D01*
X84014725Y-76261567D01*
X84013506Y-76269261D01*
X84013506Y-76269262D01*
X84001158Y-76347226D01*
X83999500Y-76357693D01*
X83999501Y-76817306D01*
X84000110Y-76821149D01*
X84000110Y-76821154D01*
X84008941Y-76876911D01*
X84014725Y-76913433D01*
X84020003Y-76923791D01*
X84065527Y-77013137D01*
X84073759Y-77029294D01*
X84165706Y-77121241D01*
X84172643Y-77124775D01*
X84172645Y-77124777D01*
X84190445Y-77133846D01*
X84233709Y-77177111D01*
X84244500Y-77222056D01*
X84244500Y-77965501D01*
X84225593Y-78023692D01*
X84176093Y-78059656D01*
X84145500Y-78064501D01*
X83888482Y-78064501D01*
X83884639Y-78065110D01*
X83884634Y-78065110D01*
X83847783Y-78070947D01*
X83794696Y-78079354D01*
X83738177Y-78108152D01*
X83688597Y-78133414D01*
X83688595Y-78133415D01*
X83681658Y-78136950D01*
X83591950Y-78226658D01*
X83588412Y-78233602D01*
X83588411Y-78233603D01*
X83587471Y-78235447D01*
X83586008Y-78236910D01*
X83583835Y-78239901D01*
X83583361Y-78239557D01*
X83544206Y-78278711D01*
X83499263Y-78289500D01*
X83373534Y-78289500D01*
X83364905Y-78289123D01*
X83334822Y-78286491D01*
X83326193Y-78285736D01*
X83317826Y-78287978D01*
X83288651Y-78295796D01*
X83280216Y-78297666D01*
X83250483Y-78302908D01*
X83250481Y-78302909D01*
X83241955Y-78304412D01*
X83234456Y-78308742D01*
X83228971Y-78310738D01*
X83223684Y-78313204D01*
X83215316Y-78315446D01*
X83190594Y-78332757D01*
X83183489Y-78337732D01*
X83176208Y-78342371D01*
X83142545Y-78361806D01*
X83136979Y-78368439D01*
X83130341Y-78374009D01*
X83129257Y-78372717D01*
X83103965Y-78389439D01*
X83101998Y-78389403D01*
X82731109Y-78778525D01*
X82729492Y-78780182D01*
X82062943Y-79446731D01*
X82056576Y-79452565D01*
X82026806Y-79477545D01*
X82008566Y-79509139D01*
X82007373Y-79511205D01*
X82002732Y-79518489D01*
X81980446Y-79550316D01*
X81978205Y-79558681D01*
X81976153Y-79563080D01*
X81958093Y-79589542D01*
X81920818Y-79628650D01*
X81910000Y-79640000D01*
X81910000Y-83700000D01*
X81917375Y-83707018D01*
X81917375Y-83707019D01*
X82771116Y-84519504D01*
X83200046Y-84927707D01*
X83211272Y-84927710D01*
X83211273Y-84927710D01*
X87886409Y-84928826D01*
X92759524Y-84929990D01*
X92817709Y-84948911D01*
X92828875Y-84958364D01*
X92835573Y-84964943D01*
X93769500Y-85882341D01*
X93769500Y-86443500D01*
X93750593Y-86501691D01*
X93701093Y-86537655D01*
X93670500Y-86542500D01*
X93398180Y-86542500D01*
X93385495Y-86546622D01*
X93382500Y-86550743D01*
X93382500Y-86893000D01*
X93363593Y-86951191D01*
X93314093Y-86987155D01*
X93283500Y-86992000D01*
X93262192Y-86992000D01*
X93204001Y-86973093D01*
X93168037Y-86923593D01*
X93168037Y-86862407D01*
X93182099Y-86834810D01*
X93182500Y-86834258D01*
X93182500Y-86558181D01*
X93178378Y-86545496D01*
X93174257Y-86542501D01*
X92865443Y-86542501D01*
X92858246Y-86543028D01*
X92800645Y-86551506D01*
X92786127Y-86556017D01*
X92695784Y-86600373D01*
X92682658Y-86609770D01*
X92611899Y-86680652D01*
X92602526Y-86693794D01*
X92558322Y-86784226D01*
X92553840Y-86798726D01*
X92549718Y-86826983D01*
X92551965Y-86840133D01*
X92559153Y-86847147D01*
X92587595Y-86901320D01*
X92578762Y-86961864D01*
X92536029Y-87005654D01*
X92490010Y-87017000D01*
X91281026Y-87017000D01*
X91222835Y-86998093D01*
X91186871Y-86948593D01*
X91182465Y-86908683D01*
X91184782Y-86884177D01*
X91185000Y-86879541D01*
X91185000Y-86838180D01*
X91180878Y-86825495D01*
X91176757Y-86822500D01*
X90466500Y-86822500D01*
X90408309Y-86803593D01*
X90372345Y-86754093D01*
X90367500Y-86723500D01*
X90367500Y-86506820D01*
X90667500Y-86506820D01*
X90671622Y-86519505D01*
X90675743Y-86522500D01*
X91169319Y-86522500D01*
X91182004Y-86518378D01*
X91184999Y-86514257D01*
X91184999Y-86465462D01*
X91184780Y-86460816D01*
X91182557Y-86437289D01*
X91179989Y-86425585D01*
X91139107Y-86309169D01*
X91132258Y-86296233D01*
X91059767Y-86198090D01*
X91049410Y-86187733D01*
X90951267Y-86115242D01*
X90938331Y-86108393D01*
X90821911Y-86067509D01*
X90810216Y-86064943D01*
X90786679Y-86062719D01*
X90782041Y-86062500D01*
X90683180Y-86062500D01*
X90670495Y-86066622D01*
X90667500Y-86070743D01*
X90667500Y-86506820D01*
X90367500Y-86506820D01*
X90367500Y-86078181D01*
X90363378Y-86065496D01*
X90359257Y-86062501D01*
X90252962Y-86062501D01*
X90248316Y-86062720D01*
X90224789Y-86064943D01*
X90213085Y-86067511D01*
X90096669Y-86108393D01*
X90083733Y-86115242D01*
X89985588Y-86187735D01*
X89982143Y-86191179D01*
X89927624Y-86218953D01*
X89867193Y-86209378D01*
X89842139Y-86191175D01*
X89836318Y-86185354D01*
X89829381Y-86181819D01*
X89829379Y-86181818D01*
X89728808Y-86130575D01*
X89728807Y-86130575D01*
X89721868Y-86127039D01*
X89714174Y-86125820D01*
X89714173Y-86125820D01*
X89630762Y-86112609D01*
X89630760Y-86112609D01*
X89626916Y-86112000D01*
X89138084Y-86112000D01*
X89134240Y-86112609D01*
X89134238Y-86112609D01*
X89050827Y-86125820D01*
X89050826Y-86125820D01*
X89043132Y-86127039D01*
X89036193Y-86130575D01*
X89036192Y-86130575D01*
X88935621Y-86181818D01*
X88935619Y-86181819D01*
X88928682Y-86185354D01*
X88850708Y-86263328D01*
X88796191Y-86291105D01*
X88735759Y-86281534D01*
X88720436Y-86271866D01*
X88718005Y-86270000D01*
X88612625Y-86189139D01*
X88478709Y-86133670D01*
X88472280Y-86132824D01*
X88472278Y-86132823D01*
X88362779Y-86118407D01*
X88335000Y-86114750D01*
X88307221Y-86118407D01*
X88197722Y-86132823D01*
X88197720Y-86132824D01*
X88191291Y-86133670D01*
X88057375Y-86189139D01*
X87942379Y-86277379D01*
X87854139Y-86392375D01*
X87798670Y-86526291D01*
X87797824Y-86532720D01*
X87797823Y-86532722D01*
X87786912Y-86615597D01*
X87779750Y-86670000D01*
X87780597Y-86676433D01*
X87795944Y-86793000D01*
X87798670Y-86813709D01*
X87803552Y-86825495D01*
X87826176Y-86880115D01*
X87830977Y-86941111D01*
X87799007Y-86993280D01*
X87742479Y-87016695D01*
X87734712Y-87017000D01*
X81563874Y-87017000D01*
X81555245Y-87016623D01*
X81525162Y-87013991D01*
X81516533Y-87013236D01*
X81508166Y-87015478D01*
X81478991Y-87023296D01*
X81470556Y-87025166D01*
X81440823Y-87030408D01*
X81440821Y-87030409D01*
X81432295Y-87031912D01*
X81424796Y-87036242D01*
X81419311Y-87038238D01*
X81414024Y-87040704D01*
X81405656Y-87042946D01*
X81376284Y-87063513D01*
X81373829Y-87065232D01*
X81366548Y-87069871D01*
X81332885Y-87089306D01*
X81307909Y-87119071D01*
X81302075Y-87125439D01*
X80512513Y-87915001D01*
X80506146Y-87920835D01*
X80476376Y-87945815D01*
X80472047Y-87953314D01*
X80456943Y-87979475D01*
X80452302Y-87986759D01*
X80430016Y-88018586D01*
X80427774Y-88026954D01*
X80425308Y-88032241D01*
X80423312Y-88037726D01*
X80418982Y-88045225D01*
X80417479Y-88053751D01*
X80417478Y-88053753D01*
X80412236Y-88083486D01*
X80410366Y-88091920D01*
X80400306Y-88129463D01*
X80401061Y-88138092D01*
X80403693Y-88168174D01*
X80404070Y-88176803D01*
X80404070Y-89130244D01*
X80385163Y-89188435D01*
X80335663Y-89224399D01*
X80274477Y-89224399D01*
X80250071Y-89212561D01*
X80245417Y-89209452D01*
X80245415Y-89209451D01*
X80237308Y-89204034D01*
X80164242Y-89189500D01*
X79114894Y-89189500D01*
X79041828Y-89204034D01*
X79029066Y-89212561D01*
X78976246Y-89247854D01*
X78958967Y-89259399D01*
X78903602Y-89342260D01*
X78889068Y-89415326D01*
X78889068Y-89764674D01*
X78903602Y-89837740D01*
X78958967Y-89920601D01*
X79041828Y-89975966D01*
X79114894Y-89990500D01*
X80164242Y-89990500D01*
X80237308Y-89975966D01*
X80245414Y-89970550D01*
X80245416Y-89970549D01*
X80250067Y-89967441D01*
X80308956Y-89950832D01*
X80366359Y-89972009D01*
X80400352Y-90022883D01*
X80404069Y-90049756D01*
X80404069Y-90582811D01*
X80403692Y-90591440D01*
X80400305Y-90630152D01*
X80402547Y-90638519D01*
X80410365Y-90667694D01*
X80412235Y-90676128D01*
X80418981Y-90714390D01*
X80423311Y-90721889D01*
X80425307Y-90727374D01*
X80427773Y-90732661D01*
X80430015Y-90741029D01*
X80450582Y-90770401D01*
X80452301Y-90772856D01*
X80456940Y-90780137D01*
X80476375Y-90813800D01*
X80485735Y-90821654D01*
X80506139Y-90838775D01*
X80512507Y-90844609D01*
X81264966Y-91597069D01*
X81270789Y-91603424D01*
X81295769Y-91633194D01*
X81303266Y-91637523D01*
X81303268Y-91637524D01*
X81329430Y-91652628D01*
X81336703Y-91657261D01*
X81355038Y-91670099D01*
X81362454Y-91675292D01*
X81399275Y-91724158D01*
X81404586Y-91752350D01*
X81436899Y-92544027D01*
X81420380Y-92602940D01*
X81402441Y-92622982D01*
X81395817Y-92626806D01*
X81370841Y-92656571D01*
X81365007Y-92662939D01*
X80446081Y-93581865D01*
X80391564Y-93609642D01*
X80376770Y-93610859D01*
X79061695Y-93620023D01*
X78050190Y-93627072D01*
X77991869Y-93608570D01*
X77955561Y-93559322D01*
X77950500Y-93528074D01*
X77950500Y-71364674D01*
X83809500Y-71364674D01*
X83824034Y-71437740D01*
X83879399Y-71520601D01*
X83962260Y-71575966D01*
X84035326Y-71590500D01*
X85134674Y-71590500D01*
X85207740Y-71575966D01*
X85290601Y-71520601D01*
X85345966Y-71437740D01*
X85360500Y-71364674D01*
X87959500Y-71364674D01*
X87974034Y-71437740D01*
X88029399Y-71520601D01*
X88112260Y-71575966D01*
X88185326Y-71590500D01*
X89284674Y-71590500D01*
X89357740Y-71575966D01*
X89440601Y-71520601D01*
X89495966Y-71437740D01*
X89510500Y-71364674D01*
X89510500Y-70665326D01*
X89495966Y-70592260D01*
X89454343Y-70529966D01*
X89446020Y-70517509D01*
X89440601Y-70509399D01*
X89422217Y-70497115D01*
X89394529Y-70478615D01*
X89357740Y-70454034D01*
X89284674Y-70439500D01*
X88185326Y-70439500D01*
X88112260Y-70454034D01*
X88075471Y-70478615D01*
X88047784Y-70497115D01*
X88029399Y-70509399D01*
X88023980Y-70517509D01*
X88015657Y-70529966D01*
X87974034Y-70592260D01*
X87959500Y-70665326D01*
X87959500Y-71364674D01*
X85360500Y-71364674D01*
X85360500Y-70665326D01*
X85345966Y-70592260D01*
X85304343Y-70529966D01*
X85296020Y-70517509D01*
X85290601Y-70509399D01*
X85272217Y-70497115D01*
X85244529Y-70478615D01*
X85207740Y-70454034D01*
X85134674Y-70439500D01*
X84035326Y-70439500D01*
X83962260Y-70454034D01*
X83925471Y-70478615D01*
X83897784Y-70497115D01*
X83879399Y-70509399D01*
X83873980Y-70517509D01*
X83865657Y-70529966D01*
X83824034Y-70592260D01*
X83809500Y-70665326D01*
X83809500Y-71364674D01*
X77950500Y-71364674D01*
X77950500Y-66244953D01*
X77952004Y-66227761D01*
X77953632Y-66218528D01*
X77955136Y-66210000D01*
X78324308Y-66210000D01*
X78344141Y-66436692D01*
X78403037Y-66656496D01*
X78499208Y-66862734D01*
X78629729Y-67049139D01*
X78790637Y-67210047D01*
X78977042Y-67340568D01*
X79183280Y-67436739D01*
X79272339Y-67460602D01*
X79398907Y-67494516D01*
X79398909Y-67494516D01*
X79403084Y-67495635D01*
X79629776Y-67515468D01*
X79856468Y-67495635D01*
X79860643Y-67494516D01*
X79860645Y-67494516D01*
X79987213Y-67460602D01*
X80076272Y-67436739D01*
X80282510Y-67340568D01*
X80468915Y-67210047D01*
X80629823Y-67049139D01*
X80760344Y-66862734D01*
X80856515Y-66656496D01*
X80915411Y-66436692D01*
X80935244Y-66210000D01*
X80915411Y-65983308D01*
X80909491Y-65961212D01*
X80857633Y-65767677D01*
X80856515Y-65763504D01*
X80760344Y-65557266D01*
X80751110Y-65544078D01*
X80632302Y-65374401D01*
X80632300Y-65374399D01*
X80629823Y-65370861D01*
X80468915Y-65209953D01*
X80367512Y-65138950D01*
X80286055Y-65081914D01*
X80286053Y-65081913D01*
X80282510Y-65079432D01*
X80076272Y-64983261D01*
X79962127Y-64952676D01*
X79860645Y-64925484D01*
X79860643Y-64925484D01*
X79856468Y-64924365D01*
X79629776Y-64904532D01*
X79403084Y-64924365D01*
X79398909Y-64925484D01*
X79398907Y-64925484D01*
X79297425Y-64952676D01*
X79183280Y-64983261D01*
X78977042Y-65079432D01*
X78973499Y-65081913D01*
X78973497Y-65081914D01*
X78892041Y-65138950D01*
X78790637Y-65209953D01*
X78629729Y-65370861D01*
X78627252Y-65374399D01*
X78627250Y-65374401D01*
X78508442Y-65544078D01*
X78499208Y-65557266D01*
X78403037Y-65763504D01*
X78401919Y-65767677D01*
X78350062Y-65961212D01*
X78344141Y-65983308D01*
X78338906Y-66043146D01*
X78325452Y-66196931D01*
X78324949Y-66202675D01*
X78324308Y-66210000D01*
X77955136Y-66210000D01*
X77953632Y-66201470D01*
X77953632Y-66196944D01*
X77952711Y-66179093D01*
X77962433Y-66043146D01*
X77967293Y-65975191D01*
X77969304Y-65961212D01*
X77987091Y-65879451D01*
X78017837Y-65738116D01*
X78021815Y-65724565D01*
X78045045Y-65662284D01*
X78089133Y-65544078D01*
X78101606Y-65510636D01*
X78107474Y-65497787D01*
X78216897Y-65297396D01*
X78224533Y-65285514D01*
X78361358Y-65102736D01*
X78370608Y-65092060D01*
X78532060Y-64930608D01*
X78542736Y-64921358D01*
X78725514Y-64784533D01*
X78737396Y-64776897D01*
X78937787Y-64667474D01*
X78950636Y-64661606D01*
X79081516Y-64612791D01*
X79164568Y-64581814D01*
X79178116Y-64577837D01*
X79401215Y-64529304D01*
X79415191Y-64527293D01*
X79497107Y-64521435D01*
X79619093Y-64512711D01*
X79636944Y-64513632D01*
X79641470Y-64513632D01*
X79650000Y-64515136D01*
X79667764Y-64512004D01*
X79684953Y-64510500D01*
X107615055Y-64510500D01*
X107632242Y-64512003D01*
G37*
%TD.AperFunction*%
%TD*%
M02*
