%TF.GenerationSoftware,KiCad,Pcbnew,(6.0.4)*%
%TF.CreationDate,2022-10-14T21:38:42-05:00*%
%TF.ProjectId,Calculator_PCB _V2,43616c63-756c-4617-946f-725f50434220,rev?*%
%TF.SameCoordinates,Original*%
%TF.FileFunction,Legend,Bot*%
%TF.FilePolarity,Positive*%
%FSLAX46Y46*%
G04 Gerber Fmt 4.6, Leading zero omitted, Abs format (unit mm)*
G04 Created by KiCad (PCBNEW (6.0.4)) date 2022-10-14 21:38:42*
%MOMM*%
%LPD*%
G01*
G04 APERTURE LIST*
%ADD10C,0.100000*%
%ADD11C,0.150000*%
%ADD12C,0.120000*%
%ADD13C,0.127000*%
%ADD14C,0.200000*%
G04 APERTURE END LIST*
D10*
X79747142Y-78170952D02*
X79880476Y-77980476D01*
X79975714Y-78170952D02*
X79975714Y-77770952D01*
X79823333Y-77770952D01*
X79785238Y-77790000D01*
X79766190Y-77809047D01*
X79747142Y-77847142D01*
X79747142Y-77904285D01*
X79766190Y-77942380D01*
X79785238Y-77961428D01*
X79823333Y-77980476D01*
X79975714Y-77980476D01*
X79518571Y-78170952D02*
X79556666Y-78151904D01*
X79575714Y-78132857D01*
X79594761Y-78094761D01*
X79594761Y-77980476D01*
X79575714Y-77942380D01*
X79556666Y-77923333D01*
X79518571Y-77904285D01*
X79461428Y-77904285D01*
X79423333Y-77923333D01*
X79404285Y-77942380D01*
X79385238Y-77980476D01*
X79385238Y-78094761D01*
X79404285Y-78132857D01*
X79423333Y-78151904D01*
X79461428Y-78170952D01*
X79518571Y-78170952D01*
X79251904Y-77904285D02*
X79175714Y-78170952D01*
X79099523Y-77980476D01*
X79023333Y-78170952D01*
X78947142Y-77904285D01*
X78718571Y-77770952D02*
X78680476Y-77770952D01*
X78642380Y-77790000D01*
X78623333Y-77809047D01*
X78604285Y-77847142D01*
X78585238Y-77923333D01*
X78585238Y-78018571D01*
X78604285Y-78094761D01*
X78623333Y-78132857D01*
X78642380Y-78151904D01*
X78680476Y-78170952D01*
X78718571Y-78170952D01*
X78756666Y-78151904D01*
X78775714Y-78132857D01*
X78794761Y-78094761D01*
X78813809Y-78018571D01*
X78813809Y-77923333D01*
X78794761Y-77847142D01*
X78775714Y-77809047D01*
X78756666Y-77790000D01*
X78718571Y-77770952D01*
X108487142Y-90170952D02*
X108620476Y-89980476D01*
X108715714Y-90170952D02*
X108715714Y-89770952D01*
X108563333Y-89770952D01*
X108525238Y-89790000D01*
X108506190Y-89809047D01*
X108487142Y-89847142D01*
X108487142Y-89904285D01*
X108506190Y-89942380D01*
X108525238Y-89961428D01*
X108563333Y-89980476D01*
X108715714Y-89980476D01*
X108258571Y-90170952D02*
X108296666Y-90151904D01*
X108315714Y-90132857D01*
X108334761Y-90094761D01*
X108334761Y-89980476D01*
X108315714Y-89942380D01*
X108296666Y-89923333D01*
X108258571Y-89904285D01*
X108201428Y-89904285D01*
X108163333Y-89923333D01*
X108144285Y-89942380D01*
X108125238Y-89980476D01*
X108125238Y-90094761D01*
X108144285Y-90132857D01*
X108163333Y-90151904D01*
X108201428Y-90170952D01*
X108258571Y-90170952D01*
X107991904Y-89904285D02*
X107915714Y-90170952D01*
X107839523Y-89980476D01*
X107763333Y-90170952D01*
X107687142Y-89904285D01*
X107325238Y-90170952D02*
X107553809Y-90170952D01*
X107439523Y-90170952D02*
X107439523Y-89770952D01*
X107477619Y-89828095D01*
X107515714Y-89866190D01*
X107553809Y-89885238D01*
D11*
X82777142Y-71750000D02*
X82834285Y-71721428D01*
X82920000Y-71721428D01*
X83005714Y-71750000D01*
X83062857Y-71807142D01*
X83091428Y-71864285D01*
X83120000Y-71978571D01*
X83120000Y-72064285D01*
X83091428Y-72178571D01*
X83062857Y-72235714D01*
X83005714Y-72292857D01*
X82920000Y-72321428D01*
X82862857Y-72321428D01*
X82777142Y-72292857D01*
X82748571Y-72264285D01*
X82748571Y-72064285D01*
X82862857Y-72064285D01*
X82491428Y-72321428D02*
X82491428Y-71721428D01*
X82148571Y-72321428D01*
X82148571Y-71721428D01*
X81862857Y-72321428D02*
X81862857Y-71721428D01*
X81720000Y-71721428D01*
X81634285Y-71750000D01*
X81577142Y-71807142D01*
X81548571Y-71864285D01*
X81520000Y-71978571D01*
X81520000Y-72064285D01*
X81548571Y-72178571D01*
X81577142Y-72235714D01*
X81634285Y-72292857D01*
X81720000Y-72321428D01*
X81862857Y-72321428D01*
D10*
X86792857Y-100917619D02*
X86811904Y-100898571D01*
X86830952Y-100841428D01*
X86830952Y-100803333D01*
X86811904Y-100746190D01*
X86773809Y-100708095D01*
X86735714Y-100689047D01*
X86659523Y-100670000D01*
X86602380Y-100670000D01*
X86526190Y-100689047D01*
X86488095Y-100708095D01*
X86450000Y-100746190D01*
X86430952Y-100803333D01*
X86430952Y-100841428D01*
X86450000Y-100898571D01*
X86469047Y-100917619D01*
X86830952Y-101146190D02*
X86811904Y-101108095D01*
X86792857Y-101089047D01*
X86754761Y-101070000D01*
X86640476Y-101070000D01*
X86602380Y-101089047D01*
X86583333Y-101108095D01*
X86564285Y-101146190D01*
X86564285Y-101203333D01*
X86583333Y-101241428D01*
X86602380Y-101260476D01*
X86640476Y-101279523D01*
X86754761Y-101279523D01*
X86792857Y-101260476D01*
X86811904Y-101241428D01*
X86830952Y-101203333D01*
X86830952Y-101146190D01*
X86830952Y-101508095D02*
X86811904Y-101470000D01*
X86773809Y-101450952D01*
X86430952Y-101450952D01*
X86430952Y-101622380D02*
X86430952Y-101870000D01*
X86583333Y-101736666D01*
X86583333Y-101793809D01*
X86602380Y-101831904D01*
X86621428Y-101850952D01*
X86659523Y-101870000D01*
X86754761Y-101870000D01*
X86792857Y-101850952D01*
X86811904Y-101831904D01*
X86830952Y-101793809D01*
X86830952Y-101679523D01*
X86811904Y-101641428D01*
X86792857Y-101622380D01*
X108487142Y-86170952D02*
X108620476Y-85980476D01*
X108715714Y-86170952D02*
X108715714Y-85770952D01*
X108563333Y-85770952D01*
X108525238Y-85790000D01*
X108506190Y-85809047D01*
X108487142Y-85847142D01*
X108487142Y-85904285D01*
X108506190Y-85942380D01*
X108525238Y-85961428D01*
X108563333Y-85980476D01*
X108715714Y-85980476D01*
X108258571Y-86170952D02*
X108296666Y-86151904D01*
X108315714Y-86132857D01*
X108334761Y-86094761D01*
X108334761Y-85980476D01*
X108315714Y-85942380D01*
X108296666Y-85923333D01*
X108258571Y-85904285D01*
X108201428Y-85904285D01*
X108163333Y-85923333D01*
X108144285Y-85942380D01*
X108125238Y-85980476D01*
X108125238Y-86094761D01*
X108144285Y-86132857D01*
X108163333Y-86151904D01*
X108201428Y-86170952D01*
X108258571Y-86170952D01*
X107991904Y-85904285D02*
X107915714Y-86170952D01*
X107839523Y-85980476D01*
X107763333Y-86170952D01*
X107687142Y-85904285D01*
X107572857Y-85770952D02*
X107306190Y-85770952D01*
X107477619Y-86170952D01*
X88792857Y-100917619D02*
X88811904Y-100898571D01*
X88830952Y-100841428D01*
X88830952Y-100803333D01*
X88811904Y-100746190D01*
X88773809Y-100708095D01*
X88735714Y-100689047D01*
X88659523Y-100670000D01*
X88602380Y-100670000D01*
X88526190Y-100689047D01*
X88488095Y-100708095D01*
X88450000Y-100746190D01*
X88430952Y-100803333D01*
X88430952Y-100841428D01*
X88450000Y-100898571D01*
X88469047Y-100917619D01*
X88830952Y-101146190D02*
X88811904Y-101108095D01*
X88792857Y-101089047D01*
X88754761Y-101070000D01*
X88640476Y-101070000D01*
X88602380Y-101089047D01*
X88583333Y-101108095D01*
X88564285Y-101146190D01*
X88564285Y-101203333D01*
X88583333Y-101241428D01*
X88602380Y-101260476D01*
X88640476Y-101279523D01*
X88754761Y-101279523D01*
X88792857Y-101260476D01*
X88811904Y-101241428D01*
X88830952Y-101203333D01*
X88830952Y-101146190D01*
X88830952Y-101508095D02*
X88811904Y-101470000D01*
X88773809Y-101450952D01*
X88430952Y-101450952D01*
X88430952Y-101850952D02*
X88430952Y-101660476D01*
X88621428Y-101641428D01*
X88602380Y-101660476D01*
X88583333Y-101698571D01*
X88583333Y-101793809D01*
X88602380Y-101831904D01*
X88621428Y-101850952D01*
X88659523Y-101870000D01*
X88754761Y-101870000D01*
X88792857Y-101850952D01*
X88811904Y-101831904D01*
X88830952Y-101793809D01*
X88830952Y-101698571D01*
X88811904Y-101660476D01*
X88792857Y-101641428D01*
D11*
X88041428Y-66662857D02*
X87584285Y-66662857D01*
X87812857Y-66891428D02*
X87812857Y-66434285D01*
X87012857Y-66291428D02*
X87298571Y-66291428D01*
X87327142Y-66577142D01*
X87298571Y-66548571D01*
X87241428Y-66520000D01*
X87098571Y-66520000D01*
X87041428Y-66548571D01*
X87012857Y-66577142D01*
X86984285Y-66634285D01*
X86984285Y-66777142D01*
X87012857Y-66834285D01*
X87041428Y-66862857D01*
X87098571Y-66891428D01*
X87241428Y-66891428D01*
X87298571Y-66862857D01*
X87327142Y-66834285D01*
X86812857Y-66291428D02*
X86612857Y-66891428D01*
X86412857Y-66291428D01*
D10*
X79747142Y-92170952D02*
X79880476Y-91980476D01*
X79975714Y-92170952D02*
X79975714Y-91770952D01*
X79823333Y-91770952D01*
X79785238Y-91790000D01*
X79766190Y-91809047D01*
X79747142Y-91847142D01*
X79747142Y-91904285D01*
X79766190Y-91942380D01*
X79785238Y-91961428D01*
X79823333Y-91980476D01*
X79975714Y-91980476D01*
X79518571Y-92170952D02*
X79556666Y-92151904D01*
X79575714Y-92132857D01*
X79594761Y-92094761D01*
X79594761Y-91980476D01*
X79575714Y-91942380D01*
X79556666Y-91923333D01*
X79518571Y-91904285D01*
X79461428Y-91904285D01*
X79423333Y-91923333D01*
X79404285Y-91942380D01*
X79385238Y-91980476D01*
X79385238Y-92094761D01*
X79404285Y-92132857D01*
X79423333Y-92151904D01*
X79461428Y-92170952D01*
X79518571Y-92170952D01*
X79251904Y-91904285D02*
X79175714Y-92170952D01*
X79099523Y-91980476D01*
X79023333Y-92170952D01*
X78947142Y-91904285D01*
X78604285Y-91770952D02*
X78794761Y-91770952D01*
X78813809Y-91961428D01*
X78794761Y-91942380D01*
X78756666Y-91923333D01*
X78661428Y-91923333D01*
X78623333Y-91942380D01*
X78604285Y-91961428D01*
X78585238Y-91999523D01*
X78585238Y-92094761D01*
X78604285Y-92132857D01*
X78623333Y-92151904D01*
X78661428Y-92170952D01*
X78756666Y-92170952D01*
X78794761Y-92151904D01*
X78813809Y-92132857D01*
X98792857Y-100907142D02*
X98811904Y-100888095D01*
X98830952Y-100830952D01*
X98830952Y-100792857D01*
X98811904Y-100735714D01*
X98773809Y-100697619D01*
X98735714Y-100678571D01*
X98659523Y-100659523D01*
X98602380Y-100659523D01*
X98526190Y-100678571D01*
X98488095Y-100697619D01*
X98450000Y-100735714D01*
X98430952Y-100792857D01*
X98430952Y-100830952D01*
X98450000Y-100888095D01*
X98469047Y-100907142D01*
X98830952Y-101135714D02*
X98811904Y-101097619D01*
X98792857Y-101078571D01*
X98754761Y-101059523D01*
X98640476Y-101059523D01*
X98602380Y-101078571D01*
X98583333Y-101097619D01*
X98564285Y-101135714D01*
X98564285Y-101192857D01*
X98583333Y-101230952D01*
X98602380Y-101250000D01*
X98640476Y-101269047D01*
X98754761Y-101269047D01*
X98792857Y-101250000D01*
X98811904Y-101230952D01*
X98830952Y-101192857D01*
X98830952Y-101135714D01*
X98830952Y-101497619D02*
X98811904Y-101459523D01*
X98773809Y-101440476D01*
X98430952Y-101440476D01*
X98830952Y-101859523D02*
X98830952Y-101630952D01*
X98830952Y-101745238D02*
X98430952Y-101745238D01*
X98488095Y-101707142D01*
X98526190Y-101669047D01*
X98545238Y-101630952D01*
X98430952Y-102107142D02*
X98430952Y-102145238D01*
X98450000Y-102183333D01*
X98469047Y-102202380D01*
X98507142Y-102221428D01*
X98583333Y-102240476D01*
X98678571Y-102240476D01*
X98754761Y-102221428D01*
X98792857Y-102202380D01*
X98811904Y-102183333D01*
X98830952Y-102145238D01*
X98830952Y-102107142D01*
X98811904Y-102069047D01*
X98792857Y-102050000D01*
X98754761Y-102030952D01*
X98678571Y-102011904D01*
X98583333Y-102011904D01*
X98507142Y-102030952D01*
X98469047Y-102050000D01*
X98450000Y-102069047D01*
X98430952Y-102107142D01*
X84792857Y-100917619D02*
X84811904Y-100898571D01*
X84830952Y-100841428D01*
X84830952Y-100803333D01*
X84811904Y-100746190D01*
X84773809Y-100708095D01*
X84735714Y-100689047D01*
X84659523Y-100670000D01*
X84602380Y-100670000D01*
X84526190Y-100689047D01*
X84488095Y-100708095D01*
X84450000Y-100746190D01*
X84430952Y-100803333D01*
X84430952Y-100841428D01*
X84450000Y-100898571D01*
X84469047Y-100917619D01*
X84830952Y-101146190D02*
X84811904Y-101108095D01*
X84792857Y-101089047D01*
X84754761Y-101070000D01*
X84640476Y-101070000D01*
X84602380Y-101089047D01*
X84583333Y-101108095D01*
X84564285Y-101146190D01*
X84564285Y-101203333D01*
X84583333Y-101241428D01*
X84602380Y-101260476D01*
X84640476Y-101279523D01*
X84754761Y-101279523D01*
X84792857Y-101260476D01*
X84811904Y-101241428D01*
X84830952Y-101203333D01*
X84830952Y-101146190D01*
X84830952Y-101508095D02*
X84811904Y-101470000D01*
X84773809Y-101450952D01*
X84430952Y-101450952D01*
X84430952Y-101622380D02*
X84430952Y-101870000D01*
X84583333Y-101736666D01*
X84583333Y-101793809D01*
X84602380Y-101831904D01*
X84621428Y-101850952D01*
X84659523Y-101870000D01*
X84754761Y-101870000D01*
X84792857Y-101850952D01*
X84811904Y-101831904D01*
X84830952Y-101793809D01*
X84830952Y-101679523D01*
X84811904Y-101641428D01*
X84792857Y-101622380D01*
X96792857Y-100917619D02*
X96811904Y-100898571D01*
X96830952Y-100841428D01*
X96830952Y-100803333D01*
X96811904Y-100746190D01*
X96773809Y-100708095D01*
X96735714Y-100689047D01*
X96659523Y-100670000D01*
X96602380Y-100670000D01*
X96526190Y-100689047D01*
X96488095Y-100708095D01*
X96450000Y-100746190D01*
X96430952Y-100803333D01*
X96430952Y-100841428D01*
X96450000Y-100898571D01*
X96469047Y-100917619D01*
X96830952Y-101146190D02*
X96811904Y-101108095D01*
X96792857Y-101089047D01*
X96754761Y-101070000D01*
X96640476Y-101070000D01*
X96602380Y-101089047D01*
X96583333Y-101108095D01*
X96564285Y-101146190D01*
X96564285Y-101203333D01*
X96583333Y-101241428D01*
X96602380Y-101260476D01*
X96640476Y-101279523D01*
X96754761Y-101279523D01*
X96792857Y-101260476D01*
X96811904Y-101241428D01*
X96830952Y-101203333D01*
X96830952Y-101146190D01*
X96830952Y-101508095D02*
X96811904Y-101470000D01*
X96773809Y-101450952D01*
X96430952Y-101450952D01*
X96830952Y-101679523D02*
X96830952Y-101755714D01*
X96811904Y-101793809D01*
X96792857Y-101812857D01*
X96735714Y-101850952D01*
X96659523Y-101870000D01*
X96507142Y-101870000D01*
X96469047Y-101850952D01*
X96450000Y-101831904D01*
X96430952Y-101793809D01*
X96430952Y-101717619D01*
X96450000Y-101679523D01*
X96469047Y-101660476D01*
X96507142Y-101641428D01*
X96602380Y-101641428D01*
X96640476Y-101660476D01*
X96659523Y-101679523D01*
X96678571Y-101717619D01*
X96678571Y-101793809D01*
X96659523Y-101831904D01*
X96640476Y-101850952D01*
X96602380Y-101870000D01*
X90792857Y-100917619D02*
X90811904Y-100898571D01*
X90830952Y-100841428D01*
X90830952Y-100803333D01*
X90811904Y-100746190D01*
X90773809Y-100708095D01*
X90735714Y-100689047D01*
X90659523Y-100670000D01*
X90602380Y-100670000D01*
X90526190Y-100689047D01*
X90488095Y-100708095D01*
X90450000Y-100746190D01*
X90430952Y-100803333D01*
X90430952Y-100841428D01*
X90450000Y-100898571D01*
X90469047Y-100917619D01*
X90830952Y-101146190D02*
X90811904Y-101108095D01*
X90792857Y-101089047D01*
X90754761Y-101070000D01*
X90640476Y-101070000D01*
X90602380Y-101089047D01*
X90583333Y-101108095D01*
X90564285Y-101146190D01*
X90564285Y-101203333D01*
X90583333Y-101241428D01*
X90602380Y-101260476D01*
X90640476Y-101279523D01*
X90754761Y-101279523D01*
X90792857Y-101260476D01*
X90811904Y-101241428D01*
X90830952Y-101203333D01*
X90830952Y-101146190D01*
X90830952Y-101508095D02*
X90811904Y-101470000D01*
X90773809Y-101450952D01*
X90430952Y-101450952D01*
X90430952Y-101831904D02*
X90430952Y-101755714D01*
X90450000Y-101717619D01*
X90469047Y-101698571D01*
X90526190Y-101660476D01*
X90602380Y-101641428D01*
X90754761Y-101641428D01*
X90792857Y-101660476D01*
X90811904Y-101679523D01*
X90830952Y-101717619D01*
X90830952Y-101793809D01*
X90811904Y-101831904D01*
X90792857Y-101850952D01*
X90754761Y-101870000D01*
X90659523Y-101870000D01*
X90621428Y-101850952D01*
X90602380Y-101831904D01*
X90583333Y-101793809D01*
X90583333Y-101717619D01*
X90602380Y-101679523D01*
X90621428Y-101660476D01*
X90659523Y-101641428D01*
X79963809Y-81904285D02*
X79868571Y-82170952D01*
X79773333Y-81904285D02*
X79868571Y-82170952D01*
X79906666Y-82266190D01*
X79925714Y-82285238D01*
X79963809Y-82304285D01*
X79716190Y-82209047D02*
X79411428Y-82209047D01*
X79259047Y-82170952D02*
X79297142Y-82151904D01*
X79316190Y-82132857D01*
X79335238Y-82094761D01*
X79335238Y-81980476D01*
X79316190Y-81942380D01*
X79297142Y-81923333D01*
X79259047Y-81904285D01*
X79201904Y-81904285D01*
X79163809Y-81923333D01*
X79144761Y-81942380D01*
X79125714Y-81980476D01*
X79125714Y-82094761D01*
X79144761Y-82132857D01*
X79163809Y-82151904D01*
X79201904Y-82170952D01*
X79259047Y-82170952D01*
X78782857Y-81904285D02*
X78782857Y-82170952D01*
X78954285Y-81904285D02*
X78954285Y-82113809D01*
X78935238Y-82151904D01*
X78897142Y-82170952D01*
X78840000Y-82170952D01*
X78801904Y-82151904D01*
X78782857Y-82132857D01*
X78649523Y-81904285D02*
X78497142Y-81904285D01*
X78592380Y-81770952D02*
X78592380Y-82113809D01*
X78573333Y-82151904D01*
X78535238Y-82170952D01*
X78497142Y-82170952D01*
X79732380Y-88132857D02*
X79751428Y-88151904D01*
X79808571Y-88170952D01*
X79846666Y-88170952D01*
X79903809Y-88151904D01*
X79941904Y-88113809D01*
X79960952Y-88075714D01*
X79980000Y-87999523D01*
X79980000Y-87942380D01*
X79960952Y-87866190D01*
X79941904Y-87828095D01*
X79903809Y-87790000D01*
X79846666Y-87770952D01*
X79808571Y-87770952D01*
X79751428Y-87790000D01*
X79732380Y-87809047D01*
X79503809Y-88170952D02*
X79541904Y-88151904D01*
X79560952Y-88132857D01*
X79580000Y-88094761D01*
X79580000Y-87980476D01*
X79560952Y-87942380D01*
X79541904Y-87923333D01*
X79503809Y-87904285D01*
X79446666Y-87904285D01*
X79408571Y-87923333D01*
X79389523Y-87942380D01*
X79370476Y-87980476D01*
X79370476Y-88094761D01*
X79389523Y-88132857D01*
X79408571Y-88151904D01*
X79446666Y-88170952D01*
X79503809Y-88170952D01*
X79141904Y-88170952D02*
X79180000Y-88151904D01*
X79199047Y-88113809D01*
X79199047Y-87770952D01*
X79027619Y-87770952D02*
X78780000Y-87770952D01*
X78913333Y-87923333D01*
X78856190Y-87923333D01*
X78818095Y-87942380D01*
X78799047Y-87961428D01*
X78780000Y-87999523D01*
X78780000Y-88094761D01*
X78799047Y-88132857D01*
X78818095Y-88151904D01*
X78856190Y-88170952D01*
X78970476Y-88170952D01*
X79008571Y-88151904D01*
X79027619Y-88132857D01*
X79747142Y-94170952D02*
X79880476Y-93980476D01*
X79975714Y-94170952D02*
X79975714Y-93770952D01*
X79823333Y-93770952D01*
X79785238Y-93790000D01*
X79766190Y-93809047D01*
X79747142Y-93847142D01*
X79747142Y-93904285D01*
X79766190Y-93942380D01*
X79785238Y-93961428D01*
X79823333Y-93980476D01*
X79975714Y-93980476D01*
X79518571Y-94170952D02*
X79556666Y-94151904D01*
X79575714Y-94132857D01*
X79594761Y-94094761D01*
X79594761Y-93980476D01*
X79575714Y-93942380D01*
X79556666Y-93923333D01*
X79518571Y-93904285D01*
X79461428Y-93904285D01*
X79423333Y-93923333D01*
X79404285Y-93942380D01*
X79385238Y-93980476D01*
X79385238Y-94094761D01*
X79404285Y-94132857D01*
X79423333Y-94151904D01*
X79461428Y-94170952D01*
X79518571Y-94170952D01*
X79251904Y-93904285D02*
X79175714Y-94170952D01*
X79099523Y-93980476D01*
X79023333Y-94170952D01*
X78947142Y-93904285D01*
X78623333Y-93904285D02*
X78623333Y-94170952D01*
X78718571Y-93751904D02*
X78813809Y-94037619D01*
X78566190Y-94037619D01*
X108652857Y-94302857D02*
X108671904Y-94321904D01*
X108729047Y-94340952D01*
X108767142Y-94340952D01*
X108824285Y-94321904D01*
X108862380Y-94283809D01*
X108881428Y-94245714D01*
X108900476Y-94169523D01*
X108900476Y-94112380D01*
X108881428Y-94036190D01*
X108862380Y-93998095D01*
X108824285Y-93960000D01*
X108767142Y-93940952D01*
X108729047Y-93940952D01*
X108671904Y-93960000D01*
X108652857Y-93979047D01*
X108424285Y-94340952D02*
X108462380Y-94321904D01*
X108481428Y-94302857D01*
X108500476Y-94264761D01*
X108500476Y-94150476D01*
X108481428Y-94112380D01*
X108462380Y-94093333D01*
X108424285Y-94074285D01*
X108367142Y-94074285D01*
X108329047Y-94093333D01*
X108310000Y-94112380D01*
X108290952Y-94150476D01*
X108290952Y-94264761D01*
X108310000Y-94302857D01*
X108329047Y-94321904D01*
X108367142Y-94340952D01*
X108424285Y-94340952D01*
X108062380Y-94340952D02*
X108100476Y-94321904D01*
X108119523Y-94283809D01*
X108119523Y-93940952D01*
X107700476Y-94340952D02*
X107929047Y-94340952D01*
X107814761Y-94340952D02*
X107814761Y-93940952D01*
X107852857Y-93998095D01*
X107890952Y-94036190D01*
X107929047Y-94055238D01*
X107357619Y-94074285D02*
X107357619Y-94340952D01*
X107452857Y-93921904D02*
X107548095Y-94207619D01*
X107300476Y-94207619D01*
D11*
X95418571Y-66891428D02*
X95418571Y-66291428D01*
X95275714Y-66291428D01*
X95190000Y-66320000D01*
X95132857Y-66377142D01*
X95104285Y-66434285D01*
X95075714Y-66548571D01*
X95075714Y-66634285D01*
X95104285Y-66748571D01*
X95132857Y-66805714D01*
X95190000Y-66862857D01*
X95275714Y-66891428D01*
X95418571Y-66891428D01*
X94818571Y-66662857D02*
X94361428Y-66662857D01*
X94590000Y-66891428D02*
X94590000Y-66434285D01*
D10*
X79973333Y-80170952D02*
X79763809Y-79904285D01*
X79973333Y-79904285D02*
X79763809Y-80170952D01*
X79706666Y-80209047D02*
X79401904Y-80209047D01*
X79249523Y-80170952D02*
X79287619Y-80151904D01*
X79306666Y-80132857D01*
X79325714Y-80094761D01*
X79325714Y-79980476D01*
X79306666Y-79942380D01*
X79287619Y-79923333D01*
X79249523Y-79904285D01*
X79192380Y-79904285D01*
X79154285Y-79923333D01*
X79135238Y-79942380D01*
X79116190Y-79980476D01*
X79116190Y-80094761D01*
X79135238Y-80132857D01*
X79154285Y-80151904D01*
X79192380Y-80170952D01*
X79249523Y-80170952D01*
X78773333Y-79904285D02*
X78773333Y-80170952D01*
X78944761Y-79904285D02*
X78944761Y-80113809D01*
X78925714Y-80151904D01*
X78887619Y-80170952D01*
X78830476Y-80170952D01*
X78792380Y-80151904D01*
X78773333Y-80132857D01*
X78640000Y-79904285D02*
X78487619Y-79904285D01*
X78582857Y-79770952D02*
X78582857Y-80113809D01*
X78563809Y-80151904D01*
X78525714Y-80170952D01*
X78487619Y-80170952D01*
D11*
X90867142Y-66662857D02*
X90410000Y-66662857D01*
X90638571Y-66891428D02*
X90638571Y-66434285D01*
X90181428Y-66291428D02*
X89810000Y-66291428D01*
X90010000Y-66520000D01*
X89924285Y-66520000D01*
X89867142Y-66548571D01*
X89838571Y-66577142D01*
X89810000Y-66634285D01*
X89810000Y-66777142D01*
X89838571Y-66834285D01*
X89867142Y-66862857D01*
X89924285Y-66891428D01*
X90095714Y-66891428D01*
X90152857Y-66862857D01*
X90181428Y-66834285D01*
X89638571Y-66291428D02*
X89438571Y-66891428D01*
X89238571Y-66291428D01*
X89095714Y-66291428D02*
X88724285Y-66291428D01*
X88924285Y-66520000D01*
X88838571Y-66520000D01*
X88781428Y-66548571D01*
X88752857Y-66577142D01*
X88724285Y-66634285D01*
X88724285Y-66777142D01*
X88752857Y-66834285D01*
X88781428Y-66862857D01*
X88838571Y-66891428D01*
X89010000Y-66891428D01*
X89067142Y-66862857D01*
X89095714Y-66834285D01*
X92878571Y-66891428D02*
X92878571Y-66291428D01*
X92735714Y-66291428D01*
X92650000Y-66320000D01*
X92592857Y-66377142D01*
X92564285Y-66434285D01*
X92535714Y-66548571D01*
X92535714Y-66634285D01*
X92564285Y-66748571D01*
X92592857Y-66805714D01*
X92650000Y-66862857D01*
X92735714Y-66891428D01*
X92878571Y-66891428D01*
X92278571Y-66662857D02*
X91821428Y-66662857D01*
D10*
X108652857Y-92132857D02*
X108671904Y-92151904D01*
X108729047Y-92170952D01*
X108767142Y-92170952D01*
X108824285Y-92151904D01*
X108862380Y-92113809D01*
X108881428Y-92075714D01*
X108900476Y-91999523D01*
X108900476Y-91942380D01*
X108881428Y-91866190D01*
X108862380Y-91828095D01*
X108824285Y-91790000D01*
X108767142Y-91770952D01*
X108729047Y-91770952D01*
X108671904Y-91790000D01*
X108652857Y-91809047D01*
X108424285Y-92170952D02*
X108462380Y-92151904D01*
X108481428Y-92132857D01*
X108500476Y-92094761D01*
X108500476Y-91980476D01*
X108481428Y-91942380D01*
X108462380Y-91923333D01*
X108424285Y-91904285D01*
X108367142Y-91904285D01*
X108329047Y-91923333D01*
X108310000Y-91942380D01*
X108290952Y-91980476D01*
X108290952Y-92094761D01*
X108310000Y-92132857D01*
X108329047Y-92151904D01*
X108367142Y-92170952D01*
X108424285Y-92170952D01*
X108062380Y-92170952D02*
X108100476Y-92151904D01*
X108119523Y-92113809D01*
X108119523Y-91770952D01*
X107700476Y-92170952D02*
X107929047Y-92170952D01*
X107814761Y-92170952D02*
X107814761Y-91770952D01*
X107852857Y-91828095D01*
X107890952Y-91866190D01*
X107929047Y-91885238D01*
X107338571Y-91770952D02*
X107529047Y-91770952D01*
X107548095Y-91961428D01*
X107529047Y-91942380D01*
X107490952Y-91923333D01*
X107395714Y-91923333D01*
X107357619Y-91942380D01*
X107338571Y-91961428D01*
X107319523Y-91999523D01*
X107319523Y-92094761D01*
X107338571Y-92132857D01*
X107357619Y-92151904D01*
X107395714Y-92170952D01*
X107490952Y-92170952D01*
X107529047Y-92151904D01*
X107548095Y-92132857D01*
X79747142Y-96170952D02*
X79880476Y-95980476D01*
X79975714Y-96170952D02*
X79975714Y-95770952D01*
X79823333Y-95770952D01*
X79785238Y-95790000D01*
X79766190Y-95809047D01*
X79747142Y-95847142D01*
X79747142Y-95904285D01*
X79766190Y-95942380D01*
X79785238Y-95961428D01*
X79823333Y-95980476D01*
X79975714Y-95980476D01*
X79518571Y-96170952D02*
X79556666Y-96151904D01*
X79575714Y-96132857D01*
X79594761Y-96094761D01*
X79594761Y-95980476D01*
X79575714Y-95942380D01*
X79556666Y-95923333D01*
X79518571Y-95904285D01*
X79461428Y-95904285D01*
X79423333Y-95923333D01*
X79404285Y-95942380D01*
X79385238Y-95980476D01*
X79385238Y-96094761D01*
X79404285Y-96132857D01*
X79423333Y-96151904D01*
X79461428Y-96170952D01*
X79518571Y-96170952D01*
X79251904Y-95904285D02*
X79175714Y-96170952D01*
X79099523Y-95980476D01*
X79023333Y-96170952D01*
X78947142Y-95904285D01*
X78832857Y-95770952D02*
X78585238Y-95770952D01*
X78718571Y-95923333D01*
X78661428Y-95923333D01*
X78623333Y-95942380D01*
X78604285Y-95961428D01*
X78585238Y-95999523D01*
X78585238Y-96094761D01*
X78604285Y-96132857D01*
X78623333Y-96151904D01*
X78661428Y-96170952D01*
X78775714Y-96170952D01*
X78813809Y-96151904D01*
X78832857Y-96132857D01*
X102792857Y-100907142D02*
X102811904Y-100888095D01*
X102830952Y-100830952D01*
X102830952Y-100792857D01*
X102811904Y-100735714D01*
X102773809Y-100697619D01*
X102735714Y-100678571D01*
X102659523Y-100659523D01*
X102602380Y-100659523D01*
X102526190Y-100678571D01*
X102488095Y-100697619D01*
X102450000Y-100735714D01*
X102430952Y-100792857D01*
X102430952Y-100830952D01*
X102450000Y-100888095D01*
X102469047Y-100907142D01*
X102830952Y-101135714D02*
X102811904Y-101097619D01*
X102792857Y-101078571D01*
X102754761Y-101059523D01*
X102640476Y-101059523D01*
X102602380Y-101078571D01*
X102583333Y-101097619D01*
X102564285Y-101135714D01*
X102564285Y-101192857D01*
X102583333Y-101230952D01*
X102602380Y-101250000D01*
X102640476Y-101269047D01*
X102754761Y-101269047D01*
X102792857Y-101250000D01*
X102811904Y-101230952D01*
X102830952Y-101192857D01*
X102830952Y-101135714D01*
X102830952Y-101497619D02*
X102811904Y-101459523D01*
X102773809Y-101440476D01*
X102430952Y-101440476D01*
X102830952Y-101859523D02*
X102830952Y-101630952D01*
X102830952Y-101745238D02*
X102430952Y-101745238D01*
X102488095Y-101707142D01*
X102526190Y-101669047D01*
X102545238Y-101630952D01*
X102469047Y-102011904D02*
X102450000Y-102030952D01*
X102430952Y-102069047D01*
X102430952Y-102164285D01*
X102450000Y-102202380D01*
X102469047Y-102221428D01*
X102507142Y-102240476D01*
X102545238Y-102240476D01*
X102602380Y-102221428D01*
X102830952Y-101992857D01*
X102830952Y-102240476D01*
X108487142Y-88170952D02*
X108620476Y-87980476D01*
X108715714Y-88170952D02*
X108715714Y-87770952D01*
X108563333Y-87770952D01*
X108525238Y-87790000D01*
X108506190Y-87809047D01*
X108487142Y-87847142D01*
X108487142Y-87904285D01*
X108506190Y-87942380D01*
X108525238Y-87961428D01*
X108563333Y-87980476D01*
X108715714Y-87980476D01*
X108258571Y-88170952D02*
X108296666Y-88151904D01*
X108315714Y-88132857D01*
X108334761Y-88094761D01*
X108334761Y-87980476D01*
X108315714Y-87942380D01*
X108296666Y-87923333D01*
X108258571Y-87904285D01*
X108201428Y-87904285D01*
X108163333Y-87923333D01*
X108144285Y-87942380D01*
X108125238Y-87980476D01*
X108125238Y-88094761D01*
X108144285Y-88132857D01*
X108163333Y-88151904D01*
X108201428Y-88170952D01*
X108258571Y-88170952D01*
X107991904Y-87904285D02*
X107915714Y-88170952D01*
X107839523Y-87980476D01*
X107763333Y-88170952D01*
X107687142Y-87904285D01*
X107553809Y-87809047D02*
X107534761Y-87790000D01*
X107496666Y-87770952D01*
X107401428Y-87770952D01*
X107363333Y-87790000D01*
X107344285Y-87809047D01*
X107325238Y-87847142D01*
X107325238Y-87885238D01*
X107344285Y-87942380D01*
X107572857Y-88170952D01*
X107325238Y-88170952D01*
X108652857Y-96132857D02*
X108671904Y-96151904D01*
X108729047Y-96170952D01*
X108767142Y-96170952D01*
X108824285Y-96151904D01*
X108862380Y-96113809D01*
X108881428Y-96075714D01*
X108900476Y-95999523D01*
X108900476Y-95942380D01*
X108881428Y-95866190D01*
X108862380Y-95828095D01*
X108824285Y-95790000D01*
X108767142Y-95770952D01*
X108729047Y-95770952D01*
X108671904Y-95790000D01*
X108652857Y-95809047D01*
X108424285Y-96170952D02*
X108462380Y-96151904D01*
X108481428Y-96132857D01*
X108500476Y-96094761D01*
X108500476Y-95980476D01*
X108481428Y-95942380D01*
X108462380Y-95923333D01*
X108424285Y-95904285D01*
X108367142Y-95904285D01*
X108329047Y-95923333D01*
X108310000Y-95942380D01*
X108290952Y-95980476D01*
X108290952Y-96094761D01*
X108310000Y-96132857D01*
X108329047Y-96151904D01*
X108367142Y-96170952D01*
X108424285Y-96170952D01*
X108062380Y-96170952D02*
X108100476Y-96151904D01*
X108119523Y-96113809D01*
X108119523Y-95770952D01*
X107700476Y-96170952D02*
X107929047Y-96170952D01*
X107814761Y-96170952D02*
X107814761Y-95770952D01*
X107852857Y-95828095D01*
X107890952Y-95866190D01*
X107929047Y-95885238D01*
X107567142Y-95770952D02*
X107319523Y-95770952D01*
X107452857Y-95923333D01*
X107395714Y-95923333D01*
X107357619Y-95942380D01*
X107338571Y-95961428D01*
X107319523Y-95999523D01*
X107319523Y-96094761D01*
X107338571Y-96132857D01*
X107357619Y-96151904D01*
X107395714Y-96170952D01*
X107510000Y-96170952D01*
X107548095Y-96151904D01*
X107567142Y-96132857D01*
X92792857Y-100917619D02*
X92811904Y-100898571D01*
X92830952Y-100841428D01*
X92830952Y-100803333D01*
X92811904Y-100746190D01*
X92773809Y-100708095D01*
X92735714Y-100689047D01*
X92659523Y-100670000D01*
X92602380Y-100670000D01*
X92526190Y-100689047D01*
X92488095Y-100708095D01*
X92450000Y-100746190D01*
X92430952Y-100803333D01*
X92430952Y-100841428D01*
X92450000Y-100898571D01*
X92469047Y-100917619D01*
X92830952Y-101146190D02*
X92811904Y-101108095D01*
X92792857Y-101089047D01*
X92754761Y-101070000D01*
X92640476Y-101070000D01*
X92602380Y-101089047D01*
X92583333Y-101108095D01*
X92564285Y-101146190D01*
X92564285Y-101203333D01*
X92583333Y-101241428D01*
X92602380Y-101260476D01*
X92640476Y-101279523D01*
X92754761Y-101279523D01*
X92792857Y-101260476D01*
X92811904Y-101241428D01*
X92830952Y-101203333D01*
X92830952Y-101146190D01*
X92830952Y-101508095D02*
X92811904Y-101470000D01*
X92773809Y-101450952D01*
X92430952Y-101450952D01*
X92430952Y-101622380D02*
X92430952Y-101889047D01*
X92830952Y-101717619D01*
X79747142Y-90170952D02*
X79880476Y-89980476D01*
X79975714Y-90170952D02*
X79975714Y-89770952D01*
X79823333Y-89770952D01*
X79785238Y-89790000D01*
X79766190Y-89809047D01*
X79747142Y-89847142D01*
X79747142Y-89904285D01*
X79766190Y-89942380D01*
X79785238Y-89961428D01*
X79823333Y-89980476D01*
X79975714Y-89980476D01*
X79518571Y-90170952D02*
X79556666Y-90151904D01*
X79575714Y-90132857D01*
X79594761Y-90094761D01*
X79594761Y-89980476D01*
X79575714Y-89942380D01*
X79556666Y-89923333D01*
X79518571Y-89904285D01*
X79461428Y-89904285D01*
X79423333Y-89923333D01*
X79404285Y-89942380D01*
X79385238Y-89980476D01*
X79385238Y-90094761D01*
X79404285Y-90132857D01*
X79423333Y-90151904D01*
X79461428Y-90170952D01*
X79518571Y-90170952D01*
X79251904Y-89904285D02*
X79175714Y-90170952D01*
X79099523Y-89980476D01*
X79023333Y-90170952D01*
X78947142Y-89904285D01*
X78623333Y-89770952D02*
X78699523Y-89770952D01*
X78737619Y-89790000D01*
X78756666Y-89809047D01*
X78794761Y-89866190D01*
X78813809Y-89942380D01*
X78813809Y-90094761D01*
X78794761Y-90132857D01*
X78775714Y-90151904D01*
X78737619Y-90170952D01*
X78661428Y-90170952D01*
X78623333Y-90151904D01*
X78604285Y-90132857D01*
X78585238Y-90094761D01*
X78585238Y-89999523D01*
X78604285Y-89961428D01*
X78623333Y-89942380D01*
X78661428Y-89923333D01*
X78737619Y-89923333D01*
X78775714Y-89942380D01*
X78794761Y-89961428D01*
X78813809Y-89999523D01*
D11*
X97887142Y-66320000D02*
X97944285Y-66291428D01*
X98030000Y-66291428D01*
X98115714Y-66320000D01*
X98172857Y-66377142D01*
X98201428Y-66434285D01*
X98230000Y-66548571D01*
X98230000Y-66634285D01*
X98201428Y-66748571D01*
X98172857Y-66805714D01*
X98115714Y-66862857D01*
X98030000Y-66891428D01*
X97972857Y-66891428D01*
X97887142Y-66862857D01*
X97858571Y-66834285D01*
X97858571Y-66634285D01*
X97972857Y-66634285D01*
X97601428Y-66891428D02*
X97601428Y-66291428D01*
X97258571Y-66891428D01*
X97258571Y-66291428D01*
X96972857Y-66891428D02*
X96972857Y-66291428D01*
X96830000Y-66291428D01*
X96744285Y-66320000D01*
X96687142Y-66377142D01*
X96658571Y-66434285D01*
X96630000Y-66548571D01*
X96630000Y-66634285D01*
X96658571Y-66748571D01*
X96687142Y-66805714D01*
X96744285Y-66862857D01*
X96830000Y-66891428D01*
X96972857Y-66891428D01*
D10*
X79732380Y-84132857D02*
X79751428Y-84151904D01*
X79808571Y-84170952D01*
X79846666Y-84170952D01*
X79903809Y-84151904D01*
X79941904Y-84113809D01*
X79960952Y-84075714D01*
X79980000Y-83999523D01*
X79980000Y-83942380D01*
X79960952Y-83866190D01*
X79941904Y-83828095D01*
X79903809Y-83790000D01*
X79846666Y-83770952D01*
X79808571Y-83770952D01*
X79751428Y-83790000D01*
X79732380Y-83809047D01*
X79503809Y-84170952D02*
X79541904Y-84151904D01*
X79560952Y-84132857D01*
X79580000Y-84094761D01*
X79580000Y-83980476D01*
X79560952Y-83942380D01*
X79541904Y-83923333D01*
X79503809Y-83904285D01*
X79446666Y-83904285D01*
X79408571Y-83923333D01*
X79389523Y-83942380D01*
X79370476Y-83980476D01*
X79370476Y-84094761D01*
X79389523Y-84132857D01*
X79408571Y-84151904D01*
X79446666Y-84170952D01*
X79503809Y-84170952D01*
X79141904Y-84170952D02*
X79180000Y-84151904D01*
X79199047Y-84113809D01*
X79199047Y-83770952D01*
X79008571Y-83809047D02*
X78989523Y-83790000D01*
X78951428Y-83770952D01*
X78856190Y-83770952D01*
X78818095Y-83790000D01*
X78799047Y-83809047D01*
X78780000Y-83847142D01*
X78780000Y-83885238D01*
X78799047Y-83942380D01*
X79027619Y-84170952D01*
X78780000Y-84170952D01*
X79732380Y-86132857D02*
X79751428Y-86151904D01*
X79808571Y-86170952D01*
X79846666Y-86170952D01*
X79903809Y-86151904D01*
X79941904Y-86113809D01*
X79960952Y-86075714D01*
X79980000Y-85999523D01*
X79980000Y-85942380D01*
X79960952Y-85866190D01*
X79941904Y-85828095D01*
X79903809Y-85790000D01*
X79846666Y-85770952D01*
X79808571Y-85770952D01*
X79751428Y-85790000D01*
X79732380Y-85809047D01*
X79503809Y-86170952D02*
X79541904Y-86151904D01*
X79560952Y-86132857D01*
X79580000Y-86094761D01*
X79580000Y-85980476D01*
X79560952Y-85942380D01*
X79541904Y-85923333D01*
X79503809Y-85904285D01*
X79446666Y-85904285D01*
X79408571Y-85923333D01*
X79389523Y-85942380D01*
X79370476Y-85980476D01*
X79370476Y-86094761D01*
X79389523Y-86132857D01*
X79408571Y-86151904D01*
X79446666Y-86170952D01*
X79503809Y-86170952D01*
X79141904Y-86170952D02*
X79180000Y-86151904D01*
X79199047Y-86113809D01*
X79199047Y-85770952D01*
X78780000Y-86170952D02*
X79008571Y-86170952D01*
X78894285Y-86170952D02*
X78894285Y-85770952D01*
X78932380Y-85828095D01*
X78970476Y-85866190D01*
X79008571Y-85885238D01*
X94792857Y-100917619D02*
X94811904Y-100898571D01*
X94830952Y-100841428D01*
X94830952Y-100803333D01*
X94811904Y-100746190D01*
X94773809Y-100708095D01*
X94735714Y-100689047D01*
X94659523Y-100670000D01*
X94602380Y-100670000D01*
X94526190Y-100689047D01*
X94488095Y-100708095D01*
X94450000Y-100746190D01*
X94430952Y-100803333D01*
X94430952Y-100841428D01*
X94450000Y-100898571D01*
X94469047Y-100917619D01*
X94830952Y-101146190D02*
X94811904Y-101108095D01*
X94792857Y-101089047D01*
X94754761Y-101070000D01*
X94640476Y-101070000D01*
X94602380Y-101089047D01*
X94583333Y-101108095D01*
X94564285Y-101146190D01*
X94564285Y-101203333D01*
X94583333Y-101241428D01*
X94602380Y-101260476D01*
X94640476Y-101279523D01*
X94754761Y-101279523D01*
X94792857Y-101260476D01*
X94811904Y-101241428D01*
X94830952Y-101203333D01*
X94830952Y-101146190D01*
X94830952Y-101508095D02*
X94811904Y-101470000D01*
X94773809Y-101450952D01*
X94430952Y-101450952D01*
X94602380Y-101717619D02*
X94583333Y-101679523D01*
X94564285Y-101660476D01*
X94526190Y-101641428D01*
X94507142Y-101641428D01*
X94469047Y-101660476D01*
X94450000Y-101679523D01*
X94430952Y-101717619D01*
X94430952Y-101793809D01*
X94450000Y-101831904D01*
X94469047Y-101850952D01*
X94507142Y-101870000D01*
X94526190Y-101870000D01*
X94564285Y-101850952D01*
X94583333Y-101831904D01*
X94602380Y-101793809D01*
X94602380Y-101717619D01*
X94621428Y-101679523D01*
X94640476Y-101660476D01*
X94678571Y-101641428D01*
X94754761Y-101641428D01*
X94792857Y-101660476D01*
X94811904Y-101679523D01*
X94830952Y-101717619D01*
X94830952Y-101793809D01*
X94811904Y-101831904D01*
X94792857Y-101850952D01*
X94754761Y-101870000D01*
X94678571Y-101870000D01*
X94640476Y-101850952D01*
X94621428Y-101831904D01*
X94602380Y-101793809D01*
X100792857Y-100907142D02*
X100811904Y-100888095D01*
X100830952Y-100830952D01*
X100830952Y-100792857D01*
X100811904Y-100735714D01*
X100773809Y-100697619D01*
X100735714Y-100678571D01*
X100659523Y-100659523D01*
X100602380Y-100659523D01*
X100526190Y-100678571D01*
X100488095Y-100697619D01*
X100450000Y-100735714D01*
X100430952Y-100792857D01*
X100430952Y-100830952D01*
X100450000Y-100888095D01*
X100469047Y-100907142D01*
X100830952Y-101135714D02*
X100811904Y-101097619D01*
X100792857Y-101078571D01*
X100754761Y-101059523D01*
X100640476Y-101059523D01*
X100602380Y-101078571D01*
X100583333Y-101097619D01*
X100564285Y-101135714D01*
X100564285Y-101192857D01*
X100583333Y-101230952D01*
X100602380Y-101250000D01*
X100640476Y-101269047D01*
X100754761Y-101269047D01*
X100792857Y-101250000D01*
X100811904Y-101230952D01*
X100830952Y-101192857D01*
X100830952Y-101135714D01*
X100830952Y-101497619D02*
X100811904Y-101459523D01*
X100773809Y-101440476D01*
X100430952Y-101440476D01*
X100830952Y-101859523D02*
X100830952Y-101630952D01*
X100830952Y-101745238D02*
X100430952Y-101745238D01*
X100488095Y-101707142D01*
X100526190Y-101669047D01*
X100545238Y-101630952D01*
X100830952Y-102240476D02*
X100830952Y-102011904D01*
X100830952Y-102126190D02*
X100430952Y-102126190D01*
X100488095Y-102088095D01*
X100526190Y-102050000D01*
X100545238Y-102011904D01*
D11*
X83377142Y-70082857D02*
X82920000Y-70082857D01*
X83148571Y-70311428D02*
X83148571Y-69854285D01*
X82691428Y-69711428D02*
X82320000Y-69711428D01*
X82520000Y-69940000D01*
X82434285Y-69940000D01*
X82377142Y-69968571D01*
X82348571Y-69997142D01*
X82320000Y-70054285D01*
X82320000Y-70197142D01*
X82348571Y-70254285D01*
X82377142Y-70282857D01*
X82434285Y-70311428D01*
X82605714Y-70311428D01*
X82662857Y-70282857D01*
X82691428Y-70254285D01*
X82148571Y-69711428D02*
X81948571Y-70311428D01*
X81748571Y-69711428D01*
X81605714Y-69711428D02*
X81234285Y-69711428D01*
X81434285Y-69940000D01*
X81348571Y-69940000D01*
X81291428Y-69968571D01*
X81262857Y-69997142D01*
X81234285Y-70054285D01*
X81234285Y-70197142D01*
X81262857Y-70254285D01*
X81291428Y-70282857D01*
X81348571Y-70311428D01*
X81520000Y-70311428D01*
X81577142Y-70282857D01*
X81605714Y-70254285D01*
%TO.C,D26*%
X162714285Y-122573380D02*
X162714285Y-121573380D01*
X162476190Y-121573380D01*
X162333333Y-121621000D01*
X162238095Y-121716238D01*
X162190476Y-121811476D01*
X162142857Y-122001952D01*
X162142857Y-122144809D01*
X162190476Y-122335285D01*
X162238095Y-122430523D01*
X162333333Y-122525761D01*
X162476190Y-122573380D01*
X162714285Y-122573380D01*
X161761904Y-121668619D02*
X161714285Y-121621000D01*
X161619047Y-121573380D01*
X161380952Y-121573380D01*
X161285714Y-121621000D01*
X161238095Y-121668619D01*
X161190476Y-121763857D01*
X161190476Y-121859095D01*
X161238095Y-122001952D01*
X161809523Y-122573380D01*
X161190476Y-122573380D01*
X160333333Y-121573380D02*
X160523809Y-121573380D01*
X160619047Y-121621000D01*
X160666666Y-121668619D01*
X160761904Y-121811476D01*
X160809523Y-122001952D01*
X160809523Y-122382904D01*
X160761904Y-122478142D01*
X160714285Y-122525761D01*
X160619047Y-122573380D01*
X160428571Y-122573380D01*
X160333333Y-122525761D01*
X160285714Y-122478142D01*
X160238095Y-122382904D01*
X160238095Y-122144809D01*
X160285714Y-122049571D01*
X160333333Y-122001952D01*
X160428571Y-121954333D01*
X160619047Y-121954333D01*
X160714285Y-122001952D01*
X160761904Y-122049571D01*
X160809523Y-122144809D01*
%TO.C,D35*%
X186497285Y-130562380D02*
X186497285Y-129562380D01*
X186259190Y-129562380D01*
X186116333Y-129610000D01*
X186021095Y-129705238D01*
X185973476Y-129800476D01*
X185925857Y-129990952D01*
X185925857Y-130133809D01*
X185973476Y-130324285D01*
X186021095Y-130419523D01*
X186116333Y-130514761D01*
X186259190Y-130562380D01*
X186497285Y-130562380D01*
X185592523Y-129562380D02*
X184973476Y-129562380D01*
X185306809Y-129943333D01*
X185163952Y-129943333D01*
X185068714Y-129990952D01*
X185021095Y-130038571D01*
X184973476Y-130133809D01*
X184973476Y-130371904D01*
X185021095Y-130467142D01*
X185068714Y-130514761D01*
X185163952Y-130562380D01*
X185449666Y-130562380D01*
X185544904Y-130514761D01*
X185592523Y-130467142D01*
X184068714Y-129562380D02*
X184544904Y-129562380D01*
X184592523Y-130038571D01*
X184544904Y-129990952D01*
X184449666Y-129943333D01*
X184211571Y-129943333D01*
X184116333Y-129990952D01*
X184068714Y-130038571D01*
X184021095Y-130133809D01*
X184021095Y-130371904D01*
X184068714Y-130467142D01*
X184116333Y-130514761D01*
X184211571Y-130562380D01*
X184449666Y-130562380D01*
X184544904Y-130514761D01*
X184592523Y-130467142D01*
%TO.C,D21*%
X150814285Y-114572380D02*
X150814285Y-113572380D01*
X150576190Y-113572380D01*
X150433333Y-113620000D01*
X150338095Y-113715238D01*
X150290476Y-113810476D01*
X150242857Y-114000952D01*
X150242857Y-114143809D01*
X150290476Y-114334285D01*
X150338095Y-114429523D01*
X150433333Y-114524761D01*
X150576190Y-114572380D01*
X150814285Y-114572380D01*
X149861904Y-113667619D02*
X149814285Y-113620000D01*
X149719047Y-113572380D01*
X149480952Y-113572380D01*
X149385714Y-113620000D01*
X149338095Y-113667619D01*
X149290476Y-113762857D01*
X149290476Y-113858095D01*
X149338095Y-114000952D01*
X149909523Y-114572380D01*
X149290476Y-114572380D01*
X148338095Y-114572380D02*
X148909523Y-114572380D01*
X148623809Y-114572380D02*
X148623809Y-113572380D01*
X148719047Y-113715238D01*
X148814285Y-113810476D01*
X148909523Y-113858095D01*
%TO.C,D31*%
X174604285Y-130562380D02*
X174604285Y-129562380D01*
X174366190Y-129562380D01*
X174223333Y-129610000D01*
X174128095Y-129705238D01*
X174080476Y-129800476D01*
X174032857Y-129990952D01*
X174032857Y-130133809D01*
X174080476Y-130324285D01*
X174128095Y-130419523D01*
X174223333Y-130514761D01*
X174366190Y-130562380D01*
X174604285Y-130562380D01*
X173699523Y-129562380D02*
X173080476Y-129562380D01*
X173413809Y-129943333D01*
X173270952Y-129943333D01*
X173175714Y-129990952D01*
X173128095Y-130038571D01*
X173080476Y-130133809D01*
X173080476Y-130371904D01*
X173128095Y-130467142D01*
X173175714Y-130514761D01*
X173270952Y-130562380D01*
X173556666Y-130562380D01*
X173651904Y-130514761D01*
X173699523Y-130467142D01*
X172128095Y-130562380D02*
X172699523Y-130562380D01*
X172413809Y-130562380D02*
X172413809Y-129562380D01*
X172509047Y-129705238D01*
X172604285Y-129800476D01*
X172699523Y-129848095D01*
%TO.C,D40*%
X198404285Y-138563380D02*
X198404285Y-137563380D01*
X198166190Y-137563380D01*
X198023333Y-137611000D01*
X197928095Y-137706238D01*
X197880476Y-137801476D01*
X197832857Y-137991952D01*
X197832857Y-138134809D01*
X197880476Y-138325285D01*
X197928095Y-138420523D01*
X198023333Y-138515761D01*
X198166190Y-138563380D01*
X198404285Y-138563380D01*
X196975714Y-137896714D02*
X196975714Y-138563380D01*
X197213809Y-137515761D02*
X197451904Y-138230047D01*
X196832857Y-138230047D01*
X196261428Y-137563380D02*
X196166190Y-137563380D01*
X196070952Y-137611000D01*
X196023333Y-137658619D01*
X195975714Y-137753857D01*
X195928095Y-137944333D01*
X195928095Y-138182428D01*
X195975714Y-138372904D01*
X196023333Y-138468142D01*
X196070952Y-138515761D01*
X196166190Y-138563380D01*
X196261428Y-138563380D01*
X196356666Y-138515761D01*
X196404285Y-138468142D01*
X196451904Y-138372904D01*
X196499523Y-138182428D01*
X196499523Y-137944333D01*
X196451904Y-137753857D01*
X196404285Y-137658619D01*
X196356666Y-137611000D01*
X196261428Y-137563380D01*
%TO.C,D10*%
X115107885Y-122573380D02*
X115107885Y-121573380D01*
X114869790Y-121573380D01*
X114726933Y-121621000D01*
X114631695Y-121716238D01*
X114584076Y-121811476D01*
X114536457Y-122001952D01*
X114536457Y-122144809D01*
X114584076Y-122335285D01*
X114631695Y-122430523D01*
X114726933Y-122525761D01*
X114869790Y-122573380D01*
X115107885Y-122573380D01*
X113584076Y-122573380D02*
X114155504Y-122573380D01*
X113869790Y-122573380D02*
X113869790Y-121573380D01*
X113965028Y-121716238D01*
X114060266Y-121811476D01*
X114155504Y-121859095D01*
X112965028Y-121573380D02*
X112869790Y-121573380D01*
X112774552Y-121621000D01*
X112726933Y-121668619D01*
X112679314Y-121763857D01*
X112631695Y-121954333D01*
X112631695Y-122192428D01*
X112679314Y-122382904D01*
X112726933Y-122478142D01*
X112774552Y-122525761D01*
X112869790Y-122573380D01*
X112965028Y-122573380D01*
X113060266Y-122525761D01*
X113107885Y-122478142D01*
X113155504Y-122382904D01*
X113203123Y-122192428D01*
X113203123Y-121954333D01*
X113155504Y-121763857D01*
X113107885Y-121668619D01*
X113060266Y-121621000D01*
X112965028Y-121573380D01*
%TO.C,D8*%
X102728095Y-138563380D02*
X102728095Y-137563380D01*
X102490000Y-137563380D01*
X102347142Y-137611000D01*
X102251904Y-137706238D01*
X102204285Y-137801476D01*
X102156666Y-137991952D01*
X102156666Y-138134809D01*
X102204285Y-138325285D01*
X102251904Y-138420523D01*
X102347142Y-138515761D01*
X102490000Y-138563380D01*
X102728095Y-138563380D01*
X101585238Y-137991952D02*
X101680476Y-137944333D01*
X101728095Y-137896714D01*
X101775714Y-137801476D01*
X101775714Y-137753857D01*
X101728095Y-137658619D01*
X101680476Y-137611000D01*
X101585238Y-137563380D01*
X101394761Y-137563380D01*
X101299523Y-137611000D01*
X101251904Y-137658619D01*
X101204285Y-137753857D01*
X101204285Y-137801476D01*
X101251904Y-137896714D01*
X101299523Y-137944333D01*
X101394761Y-137991952D01*
X101585238Y-137991952D01*
X101680476Y-138039571D01*
X101728095Y-138087190D01*
X101775714Y-138182428D01*
X101775714Y-138372904D01*
X101728095Y-138468142D01*
X101680476Y-138515761D01*
X101585238Y-138563380D01*
X101394761Y-138563380D01*
X101299523Y-138515761D01*
X101251904Y-138468142D01*
X101204285Y-138372904D01*
X101204285Y-138182428D01*
X101251904Y-138087190D01*
X101299523Y-138039571D01*
X101394761Y-137991952D01*
%TO.C,D20*%
X138796085Y-138563380D02*
X138796085Y-137563380D01*
X138557990Y-137563380D01*
X138415133Y-137611000D01*
X138319895Y-137706238D01*
X138272276Y-137801476D01*
X138224657Y-137991952D01*
X138224657Y-138134809D01*
X138272276Y-138325285D01*
X138319895Y-138420523D01*
X138415133Y-138515761D01*
X138557990Y-138563380D01*
X138796085Y-138563380D01*
X137843704Y-137658619D02*
X137796085Y-137611000D01*
X137700847Y-137563380D01*
X137462752Y-137563380D01*
X137367514Y-137611000D01*
X137319895Y-137658619D01*
X137272276Y-137753857D01*
X137272276Y-137849095D01*
X137319895Y-137991952D01*
X137891323Y-138563380D01*
X137272276Y-138563380D01*
X136653228Y-137563380D02*
X136557990Y-137563380D01*
X136462752Y-137611000D01*
X136415133Y-137658619D01*
X136367514Y-137753857D01*
X136319895Y-137944333D01*
X136319895Y-138182428D01*
X136367514Y-138372904D01*
X136415133Y-138468142D01*
X136462752Y-138515761D01*
X136557990Y-138563380D01*
X136653228Y-138563380D01*
X136748466Y-138515761D01*
X136796085Y-138468142D01*
X136843704Y-138372904D01*
X136891323Y-138182428D01*
X136891323Y-137944333D01*
X136843704Y-137753857D01*
X136796085Y-137658619D01*
X136748466Y-137611000D01*
X136653228Y-137563380D01*
%TO.C,D30*%
X174614285Y-122573380D02*
X174614285Y-121573380D01*
X174376190Y-121573380D01*
X174233333Y-121621000D01*
X174138095Y-121716238D01*
X174090476Y-121811476D01*
X174042857Y-122001952D01*
X174042857Y-122144809D01*
X174090476Y-122335285D01*
X174138095Y-122430523D01*
X174233333Y-122525761D01*
X174376190Y-122573380D01*
X174614285Y-122573380D01*
X173709523Y-121573380D02*
X173090476Y-121573380D01*
X173423809Y-121954333D01*
X173280952Y-121954333D01*
X173185714Y-122001952D01*
X173138095Y-122049571D01*
X173090476Y-122144809D01*
X173090476Y-122382904D01*
X173138095Y-122478142D01*
X173185714Y-122525761D01*
X173280952Y-122573380D01*
X173566666Y-122573380D01*
X173661904Y-122525761D01*
X173709523Y-122478142D01*
X172471428Y-121573380D02*
X172376190Y-121573380D01*
X172280952Y-121621000D01*
X172233333Y-121668619D01*
X172185714Y-121763857D01*
X172138095Y-121954333D01*
X172138095Y-122192428D01*
X172185714Y-122382904D01*
X172233333Y-122478142D01*
X172280952Y-122525761D01*
X172376190Y-122573380D01*
X172471428Y-122573380D01*
X172566666Y-122525761D01*
X172614285Y-122478142D01*
X172661904Y-122382904D01*
X172709523Y-122192428D01*
X172709523Y-121954333D01*
X172661904Y-121763857D01*
X172614285Y-121668619D01*
X172566666Y-121621000D01*
X172471428Y-121573380D01*
%TO.C,D28*%
X162697485Y-138563380D02*
X162697485Y-137563380D01*
X162459390Y-137563380D01*
X162316533Y-137611000D01*
X162221295Y-137706238D01*
X162173676Y-137801476D01*
X162126057Y-137991952D01*
X162126057Y-138134809D01*
X162173676Y-138325285D01*
X162221295Y-138420523D01*
X162316533Y-138515761D01*
X162459390Y-138563380D01*
X162697485Y-138563380D01*
X161745104Y-137658619D02*
X161697485Y-137611000D01*
X161602247Y-137563380D01*
X161364152Y-137563380D01*
X161268914Y-137611000D01*
X161221295Y-137658619D01*
X161173676Y-137753857D01*
X161173676Y-137849095D01*
X161221295Y-137991952D01*
X161792723Y-138563380D01*
X161173676Y-138563380D01*
X160602247Y-137991952D02*
X160697485Y-137944333D01*
X160745104Y-137896714D01*
X160792723Y-137801476D01*
X160792723Y-137753857D01*
X160745104Y-137658619D01*
X160697485Y-137611000D01*
X160602247Y-137563380D01*
X160411771Y-137563380D01*
X160316533Y-137611000D01*
X160268914Y-137658619D01*
X160221295Y-137753857D01*
X160221295Y-137801476D01*
X160268914Y-137896714D01*
X160316533Y-137944333D01*
X160411771Y-137991952D01*
X160602247Y-137991952D01*
X160697485Y-138039571D01*
X160745104Y-138087190D01*
X160792723Y-138182428D01*
X160792723Y-138372904D01*
X160745104Y-138468142D01*
X160697485Y-138515761D01*
X160602247Y-138563380D01*
X160411771Y-138563380D01*
X160316533Y-138515761D01*
X160268914Y-138468142D01*
X160221295Y-138372904D01*
X160221295Y-138182428D01*
X160268914Y-138087190D01*
X160316533Y-138039571D01*
X160411771Y-137991952D01*
%TO.C,D13*%
X127014285Y-114572380D02*
X127014285Y-113572380D01*
X126776190Y-113572380D01*
X126633333Y-113620000D01*
X126538095Y-113715238D01*
X126490476Y-113810476D01*
X126442857Y-114000952D01*
X126442857Y-114143809D01*
X126490476Y-114334285D01*
X126538095Y-114429523D01*
X126633333Y-114524761D01*
X126776190Y-114572380D01*
X127014285Y-114572380D01*
X125490476Y-114572380D02*
X126061904Y-114572380D01*
X125776190Y-114572380D02*
X125776190Y-113572380D01*
X125871428Y-113715238D01*
X125966666Y-113810476D01*
X126061904Y-113858095D01*
X125157142Y-113572380D02*
X124538095Y-113572380D01*
X124871428Y-113953333D01*
X124728571Y-113953333D01*
X124633333Y-114000952D01*
X124585714Y-114048571D01*
X124538095Y-114143809D01*
X124538095Y-114381904D01*
X124585714Y-114477142D01*
X124633333Y-114524761D01*
X124728571Y-114572380D01*
X125014285Y-114572380D01*
X125109523Y-114524761D01*
X125157142Y-114477142D01*
%TO.C,D3*%
X90828095Y-130562380D02*
X90828095Y-129562380D01*
X90590000Y-129562380D01*
X90447142Y-129610000D01*
X90351904Y-129705238D01*
X90304285Y-129800476D01*
X90256666Y-129990952D01*
X90256666Y-130133809D01*
X90304285Y-130324285D01*
X90351904Y-130419523D01*
X90447142Y-130514761D01*
X90590000Y-130562380D01*
X90828095Y-130562380D01*
X89923333Y-129562380D02*
X89304285Y-129562380D01*
X89637619Y-129943333D01*
X89494761Y-129943333D01*
X89399523Y-129990952D01*
X89351904Y-130038571D01*
X89304285Y-130133809D01*
X89304285Y-130371904D01*
X89351904Y-130467142D01*
X89399523Y-130514761D01*
X89494761Y-130562380D01*
X89780476Y-130562380D01*
X89875714Y-130514761D01*
X89923333Y-130467142D01*
%TO.C,D33*%
X186507285Y-114572380D02*
X186507285Y-113572380D01*
X186269190Y-113572380D01*
X186126333Y-113620000D01*
X186031095Y-113715238D01*
X185983476Y-113810476D01*
X185935857Y-114000952D01*
X185935857Y-114143809D01*
X185983476Y-114334285D01*
X186031095Y-114429523D01*
X186126333Y-114524761D01*
X186269190Y-114572380D01*
X186507285Y-114572380D01*
X185602523Y-113572380D02*
X184983476Y-113572380D01*
X185316809Y-113953333D01*
X185173952Y-113953333D01*
X185078714Y-114000952D01*
X185031095Y-114048571D01*
X184983476Y-114143809D01*
X184983476Y-114381904D01*
X185031095Y-114477142D01*
X185078714Y-114524761D01*
X185173952Y-114572380D01*
X185459666Y-114572380D01*
X185554904Y-114524761D01*
X185602523Y-114477142D01*
X184650142Y-113572380D02*
X184031095Y-113572380D01*
X184364428Y-113953333D01*
X184221571Y-113953333D01*
X184126333Y-114000952D01*
X184078714Y-114048571D01*
X184031095Y-114143809D01*
X184031095Y-114381904D01*
X184078714Y-114477142D01*
X184126333Y-114524761D01*
X184221571Y-114572380D01*
X184507285Y-114572380D01*
X184602523Y-114524761D01*
X184650142Y-114477142D01*
%TO.C,D4*%
X90821895Y-138563380D02*
X90821895Y-137563380D01*
X90583800Y-137563380D01*
X90440942Y-137611000D01*
X90345704Y-137706238D01*
X90298085Y-137801476D01*
X90250466Y-137991952D01*
X90250466Y-138134809D01*
X90298085Y-138325285D01*
X90345704Y-138420523D01*
X90440942Y-138515761D01*
X90583800Y-138563380D01*
X90821895Y-138563380D01*
X89393323Y-137896714D02*
X89393323Y-138563380D01*
X89631419Y-137515761D02*
X89869514Y-138230047D01*
X89250466Y-138230047D01*
%TO.C,D2*%
X90838095Y-122573380D02*
X90838095Y-121573380D01*
X90600000Y-121573380D01*
X90457142Y-121621000D01*
X90361904Y-121716238D01*
X90314285Y-121811476D01*
X90266666Y-122001952D01*
X90266666Y-122144809D01*
X90314285Y-122335285D01*
X90361904Y-122430523D01*
X90457142Y-122525761D01*
X90600000Y-122573380D01*
X90838095Y-122573380D01*
X89885714Y-121668619D02*
X89838095Y-121621000D01*
X89742857Y-121573380D01*
X89504761Y-121573380D01*
X89409523Y-121621000D01*
X89361904Y-121668619D01*
X89314285Y-121763857D01*
X89314285Y-121859095D01*
X89361904Y-122001952D01*
X89933333Y-122573380D01*
X89314285Y-122573380D01*
%TO.C,U1*%
X82411904Y-99842380D02*
X82411904Y-100651904D01*
X82364285Y-100747142D01*
X82316666Y-100794761D01*
X82221428Y-100842380D01*
X82030952Y-100842380D01*
X81935714Y-100794761D01*
X81888095Y-100747142D01*
X81840476Y-100651904D01*
X81840476Y-99842380D01*
X80840476Y-100842380D02*
X81411904Y-100842380D01*
X81126190Y-100842380D02*
X81126190Y-99842380D01*
X81221428Y-99985238D01*
X81316666Y-100080476D01*
X81411904Y-100128095D01*
D12*
X104892857Y-75297142D02*
X104807142Y-75297142D01*
X104721428Y-75340000D01*
X104678571Y-75382857D01*
X104635714Y-75468571D01*
X104592857Y-75640000D01*
X104592857Y-75854285D01*
X104635714Y-76025714D01*
X104678571Y-76111428D01*
X104721428Y-76154285D01*
X104807142Y-76197142D01*
X104892857Y-76197142D01*
X104978571Y-76154285D01*
X105021428Y-76111428D01*
X105064285Y-76025714D01*
X105107142Y-75854285D01*
X105107142Y-75640000D01*
X105064285Y-75468571D01*
X105021428Y-75382857D01*
X104978571Y-75340000D01*
X104892857Y-75297142D01*
X105221428Y-98597142D02*
X105735714Y-98597142D01*
X105478571Y-98597142D02*
X105478571Y-97697142D01*
X105564285Y-97825714D01*
X105650000Y-97911428D01*
X105735714Y-97954285D01*
X104664285Y-97697142D02*
X104578571Y-97697142D01*
X104492857Y-97740000D01*
X104450000Y-97782857D01*
X104407142Y-97868571D01*
X104364285Y-98040000D01*
X104364285Y-98254285D01*
X104407142Y-98425714D01*
X104450000Y-98511428D01*
X104492857Y-98554285D01*
X104578571Y-98597142D01*
X104664285Y-98597142D01*
X104750000Y-98554285D01*
X104792857Y-98511428D01*
X104835714Y-98425714D01*
X104878571Y-98254285D01*
X104878571Y-98040000D01*
X104835714Y-97868571D01*
X104792857Y-97782857D01*
X104750000Y-97740000D01*
X104664285Y-97697142D01*
X83135714Y-97982857D02*
X83092857Y-97940000D01*
X83007142Y-97897142D01*
X82792857Y-97897142D01*
X82707142Y-97940000D01*
X82664285Y-97982857D01*
X82621428Y-98068571D01*
X82621428Y-98154285D01*
X82664285Y-98282857D01*
X83178571Y-98797142D01*
X82621428Y-98797142D01*
X82064285Y-97897142D02*
X81978571Y-97897142D01*
X81892857Y-97940000D01*
X81850000Y-97982857D01*
X81807142Y-98068571D01*
X81764285Y-98240000D01*
X81764285Y-98454285D01*
X81807142Y-98625714D01*
X81850000Y-98711428D01*
X81892857Y-98754285D01*
X81978571Y-98797142D01*
X82064285Y-98797142D01*
X82150000Y-98754285D01*
X82192857Y-98711428D01*
X82235714Y-98625714D01*
X82278571Y-98454285D01*
X82278571Y-98240000D01*
X82235714Y-98068571D01*
X82192857Y-97982857D01*
X82150000Y-97940000D01*
X82064285Y-97897142D01*
X82014285Y-75340000D02*
X82100000Y-75297142D01*
X82228571Y-75297142D01*
X82357142Y-75340000D01*
X82442857Y-75425714D01*
X82485714Y-75511428D01*
X82528571Y-75682857D01*
X82528571Y-75811428D01*
X82485714Y-75982857D01*
X82442857Y-76068571D01*
X82357142Y-76154285D01*
X82228571Y-76197142D01*
X82142857Y-76197142D01*
X82014285Y-76154285D01*
X81971428Y-76111428D01*
X81971428Y-75811428D01*
X82142857Y-75811428D01*
D11*
%TO.C,D25*%
X162714285Y-114572380D02*
X162714285Y-113572380D01*
X162476190Y-113572380D01*
X162333333Y-113620000D01*
X162238095Y-113715238D01*
X162190476Y-113810476D01*
X162142857Y-114000952D01*
X162142857Y-114143809D01*
X162190476Y-114334285D01*
X162238095Y-114429523D01*
X162333333Y-114524761D01*
X162476190Y-114572380D01*
X162714285Y-114572380D01*
X161761904Y-113667619D02*
X161714285Y-113620000D01*
X161619047Y-113572380D01*
X161380952Y-113572380D01*
X161285714Y-113620000D01*
X161238095Y-113667619D01*
X161190476Y-113762857D01*
X161190476Y-113858095D01*
X161238095Y-114000952D01*
X161809523Y-114572380D01*
X161190476Y-114572380D01*
X160285714Y-113572380D02*
X160761904Y-113572380D01*
X160809523Y-114048571D01*
X160761904Y-114000952D01*
X160666666Y-113953333D01*
X160428571Y-113953333D01*
X160333333Y-114000952D01*
X160285714Y-114048571D01*
X160238095Y-114143809D01*
X160238095Y-114381904D01*
X160285714Y-114477142D01*
X160333333Y-114524761D01*
X160428571Y-114572380D01*
X160666666Y-114572380D01*
X160761904Y-114524761D01*
X160809523Y-114477142D01*
%TO.C,D39*%
X198404285Y-130562380D02*
X198404285Y-129562380D01*
X198166190Y-129562380D01*
X198023333Y-129610000D01*
X197928095Y-129705238D01*
X197880476Y-129800476D01*
X197832857Y-129990952D01*
X197832857Y-130133809D01*
X197880476Y-130324285D01*
X197928095Y-130419523D01*
X198023333Y-130514761D01*
X198166190Y-130562380D01*
X198404285Y-130562380D01*
X197499523Y-129562380D02*
X196880476Y-129562380D01*
X197213809Y-129943333D01*
X197070952Y-129943333D01*
X196975714Y-129990952D01*
X196928095Y-130038571D01*
X196880476Y-130133809D01*
X196880476Y-130371904D01*
X196928095Y-130467142D01*
X196975714Y-130514761D01*
X197070952Y-130562380D01*
X197356666Y-130562380D01*
X197451904Y-130514761D01*
X197499523Y-130467142D01*
X196404285Y-130562380D02*
X196213809Y-130562380D01*
X196118571Y-130514761D01*
X196070952Y-130467142D01*
X195975714Y-130324285D01*
X195928095Y-130133809D01*
X195928095Y-129752857D01*
X195975714Y-129657619D01*
X196023333Y-129610000D01*
X196118571Y-129562380D01*
X196309047Y-129562380D01*
X196404285Y-129610000D01*
X196451904Y-129657619D01*
X196499523Y-129752857D01*
X196499523Y-129990952D01*
X196451904Y-130086190D01*
X196404285Y-130133809D01*
X196309047Y-130181428D01*
X196118571Y-130181428D01*
X196023333Y-130133809D01*
X195975714Y-130086190D01*
X195928095Y-129990952D01*
%TO.C,D36*%
X186504285Y-138563380D02*
X186504285Y-137563380D01*
X186266190Y-137563380D01*
X186123333Y-137611000D01*
X186028095Y-137706238D01*
X185980476Y-137801476D01*
X185932857Y-137991952D01*
X185932857Y-138134809D01*
X185980476Y-138325285D01*
X186028095Y-138420523D01*
X186123333Y-138515761D01*
X186266190Y-138563380D01*
X186504285Y-138563380D01*
X185599523Y-137563380D02*
X184980476Y-137563380D01*
X185313809Y-137944333D01*
X185170952Y-137944333D01*
X185075714Y-137991952D01*
X185028095Y-138039571D01*
X184980476Y-138134809D01*
X184980476Y-138372904D01*
X185028095Y-138468142D01*
X185075714Y-138515761D01*
X185170952Y-138563380D01*
X185456666Y-138563380D01*
X185551904Y-138515761D01*
X185599523Y-138468142D01*
X184123333Y-137563380D02*
X184313809Y-137563380D01*
X184409047Y-137611000D01*
X184456666Y-137658619D01*
X184551904Y-137801476D01*
X184599523Y-137991952D01*
X184599523Y-138372904D01*
X184551904Y-138468142D01*
X184504285Y-138515761D01*
X184409047Y-138563380D01*
X184218571Y-138563380D01*
X184123333Y-138515761D01*
X184075714Y-138468142D01*
X184028095Y-138372904D01*
X184028095Y-138134809D01*
X184075714Y-138039571D01*
X184123333Y-137991952D01*
X184218571Y-137944333D01*
X184409047Y-137944333D01*
X184504285Y-137991952D01*
X184551904Y-138039571D01*
X184599523Y-138134809D01*
%TO.C,D37*%
X198414285Y-114572380D02*
X198414285Y-113572380D01*
X198176190Y-113572380D01*
X198033333Y-113620000D01*
X197938095Y-113715238D01*
X197890476Y-113810476D01*
X197842857Y-114000952D01*
X197842857Y-114143809D01*
X197890476Y-114334285D01*
X197938095Y-114429523D01*
X198033333Y-114524761D01*
X198176190Y-114572380D01*
X198414285Y-114572380D01*
X197509523Y-113572380D02*
X196890476Y-113572380D01*
X197223809Y-113953333D01*
X197080952Y-113953333D01*
X196985714Y-114000952D01*
X196938095Y-114048571D01*
X196890476Y-114143809D01*
X196890476Y-114381904D01*
X196938095Y-114477142D01*
X196985714Y-114524761D01*
X197080952Y-114572380D01*
X197366666Y-114572380D01*
X197461904Y-114524761D01*
X197509523Y-114477142D01*
X196557142Y-113572380D02*
X195890476Y-113572380D01*
X196319047Y-114572380D01*
%TO.C,D19*%
X138904285Y-130562380D02*
X138904285Y-129562380D01*
X138666190Y-129562380D01*
X138523333Y-129610000D01*
X138428095Y-129705238D01*
X138380476Y-129800476D01*
X138332857Y-129990952D01*
X138332857Y-130133809D01*
X138380476Y-130324285D01*
X138428095Y-130419523D01*
X138523333Y-130514761D01*
X138666190Y-130562380D01*
X138904285Y-130562380D01*
X137380476Y-130562380D02*
X137951904Y-130562380D01*
X137666190Y-130562380D02*
X137666190Y-129562380D01*
X137761428Y-129705238D01*
X137856666Y-129800476D01*
X137951904Y-129848095D01*
X136904285Y-130562380D02*
X136713809Y-130562380D01*
X136618571Y-130514761D01*
X136570952Y-130467142D01*
X136475714Y-130324285D01*
X136428095Y-130133809D01*
X136428095Y-129752857D01*
X136475714Y-129657619D01*
X136523333Y-129610000D01*
X136618571Y-129562380D01*
X136809047Y-129562380D01*
X136904285Y-129610000D01*
X136951904Y-129657619D01*
X136999523Y-129752857D01*
X136999523Y-129990952D01*
X136951904Y-130086190D01*
X136904285Y-130133809D01*
X136809047Y-130181428D01*
X136618571Y-130181428D01*
X136523333Y-130133809D01*
X136475714Y-130086190D01*
X136428095Y-129990952D01*
%TO.C,D6*%
X102738095Y-122573380D02*
X102738095Y-121573380D01*
X102500000Y-121573380D01*
X102357142Y-121621000D01*
X102261904Y-121716238D01*
X102214285Y-121811476D01*
X102166666Y-122001952D01*
X102166666Y-122144809D01*
X102214285Y-122335285D01*
X102261904Y-122430523D01*
X102357142Y-122525761D01*
X102500000Y-122573380D01*
X102738095Y-122573380D01*
X101309523Y-121573380D02*
X101500000Y-121573380D01*
X101595238Y-121621000D01*
X101642857Y-121668619D01*
X101738095Y-121811476D01*
X101785714Y-122001952D01*
X101785714Y-122382904D01*
X101738095Y-122478142D01*
X101690476Y-122525761D01*
X101595238Y-122573380D01*
X101404761Y-122573380D01*
X101309523Y-122525761D01*
X101261904Y-122478142D01*
X101214285Y-122382904D01*
X101214285Y-122144809D01*
X101261904Y-122049571D01*
X101309523Y-122001952D01*
X101404761Y-121954333D01*
X101595238Y-121954333D01*
X101690476Y-122001952D01*
X101738095Y-122049571D01*
X101785714Y-122144809D01*
%TO.C,D27*%
X162704285Y-130562380D02*
X162704285Y-129562380D01*
X162466190Y-129562380D01*
X162323333Y-129610000D01*
X162228095Y-129705238D01*
X162180476Y-129800476D01*
X162132857Y-129990952D01*
X162132857Y-130133809D01*
X162180476Y-130324285D01*
X162228095Y-130419523D01*
X162323333Y-130514761D01*
X162466190Y-130562380D01*
X162704285Y-130562380D01*
X161751904Y-129657619D02*
X161704285Y-129610000D01*
X161609047Y-129562380D01*
X161370952Y-129562380D01*
X161275714Y-129610000D01*
X161228095Y-129657619D01*
X161180476Y-129752857D01*
X161180476Y-129848095D01*
X161228095Y-129990952D01*
X161799523Y-130562380D01*
X161180476Y-130562380D01*
X160847142Y-129562380D02*
X160180476Y-129562380D01*
X160609047Y-130562380D01*
%TO.C,D17*%
X138907685Y-114572380D02*
X138907685Y-113572380D01*
X138669590Y-113572380D01*
X138526733Y-113620000D01*
X138431495Y-113715238D01*
X138383876Y-113810476D01*
X138336257Y-114000952D01*
X138336257Y-114143809D01*
X138383876Y-114334285D01*
X138431495Y-114429523D01*
X138526733Y-114524761D01*
X138669590Y-114572380D01*
X138907685Y-114572380D01*
X137383876Y-114572380D02*
X137955304Y-114572380D01*
X137669590Y-114572380D02*
X137669590Y-113572380D01*
X137764828Y-113715238D01*
X137860066Y-113810476D01*
X137955304Y-113858095D01*
X137050542Y-113572380D02*
X136383876Y-113572380D01*
X136812447Y-114572380D01*
%TO.C,D15*%
X127004285Y-130562380D02*
X127004285Y-129562380D01*
X126766190Y-129562380D01*
X126623333Y-129610000D01*
X126528095Y-129705238D01*
X126480476Y-129800476D01*
X126432857Y-129990952D01*
X126432857Y-130133809D01*
X126480476Y-130324285D01*
X126528095Y-130419523D01*
X126623333Y-130514761D01*
X126766190Y-130562380D01*
X127004285Y-130562380D01*
X125480476Y-130562380D02*
X126051904Y-130562380D01*
X125766190Y-130562380D02*
X125766190Y-129562380D01*
X125861428Y-129705238D01*
X125956666Y-129800476D01*
X126051904Y-129848095D01*
X124575714Y-129562380D02*
X125051904Y-129562380D01*
X125099523Y-130038571D01*
X125051904Y-129990952D01*
X124956666Y-129943333D01*
X124718571Y-129943333D01*
X124623333Y-129990952D01*
X124575714Y-130038571D01*
X124528095Y-130133809D01*
X124528095Y-130371904D01*
X124575714Y-130467142D01*
X124623333Y-130514761D01*
X124718571Y-130562380D01*
X124956666Y-130562380D01*
X125051904Y-130514761D01*
X125099523Y-130467142D01*
%TO.C,D23*%
X150804285Y-130562380D02*
X150804285Y-129562380D01*
X150566190Y-129562380D01*
X150423333Y-129610000D01*
X150328095Y-129705238D01*
X150280476Y-129800476D01*
X150232857Y-129990952D01*
X150232857Y-130133809D01*
X150280476Y-130324285D01*
X150328095Y-130419523D01*
X150423333Y-130514761D01*
X150566190Y-130562380D01*
X150804285Y-130562380D01*
X149851904Y-129657619D02*
X149804285Y-129610000D01*
X149709047Y-129562380D01*
X149470952Y-129562380D01*
X149375714Y-129610000D01*
X149328095Y-129657619D01*
X149280476Y-129752857D01*
X149280476Y-129848095D01*
X149328095Y-129990952D01*
X149899523Y-130562380D01*
X149280476Y-130562380D01*
X148947142Y-129562380D02*
X148328095Y-129562380D01*
X148661428Y-129943333D01*
X148518571Y-129943333D01*
X148423333Y-129990952D01*
X148375714Y-130038571D01*
X148328095Y-130133809D01*
X148328095Y-130371904D01*
X148375714Y-130467142D01*
X148423333Y-130514761D01*
X148518571Y-130562380D01*
X148804285Y-130562380D01*
X148899523Y-130514761D01*
X148947142Y-130467142D01*
%TO.C,D5*%
X102719095Y-114572380D02*
X102719095Y-113572380D01*
X102481000Y-113572380D01*
X102338142Y-113620000D01*
X102242904Y-113715238D01*
X102195285Y-113810476D01*
X102147666Y-114000952D01*
X102147666Y-114143809D01*
X102195285Y-114334285D01*
X102242904Y-114429523D01*
X102338142Y-114524761D01*
X102481000Y-114572380D01*
X102719095Y-114572380D01*
X101242904Y-113572380D02*
X101719095Y-113572380D01*
X101766714Y-114048571D01*
X101719095Y-114000952D01*
X101623857Y-113953333D01*
X101385761Y-113953333D01*
X101290523Y-114000952D01*
X101242904Y-114048571D01*
X101195285Y-114143809D01*
X101195285Y-114381904D01*
X101242904Y-114477142D01*
X101290523Y-114524761D01*
X101385761Y-114572380D01*
X101623857Y-114572380D01*
X101719095Y-114524761D01*
X101766714Y-114477142D01*
%TO.C,D32*%
X174604285Y-138563380D02*
X174604285Y-137563380D01*
X174366190Y-137563380D01*
X174223333Y-137611000D01*
X174128095Y-137706238D01*
X174080476Y-137801476D01*
X174032857Y-137991952D01*
X174032857Y-138134809D01*
X174080476Y-138325285D01*
X174128095Y-138420523D01*
X174223333Y-138515761D01*
X174366190Y-138563380D01*
X174604285Y-138563380D01*
X173699523Y-137563380D02*
X173080476Y-137563380D01*
X173413809Y-137944333D01*
X173270952Y-137944333D01*
X173175714Y-137991952D01*
X173128095Y-138039571D01*
X173080476Y-138134809D01*
X173080476Y-138372904D01*
X173128095Y-138468142D01*
X173175714Y-138515761D01*
X173270952Y-138563380D01*
X173556666Y-138563380D01*
X173651904Y-138515761D01*
X173699523Y-138468142D01*
X172699523Y-137658619D02*
X172651904Y-137611000D01*
X172556666Y-137563380D01*
X172318571Y-137563380D01*
X172223333Y-137611000D01*
X172175714Y-137658619D01*
X172128095Y-137753857D01*
X172128095Y-137849095D01*
X172175714Y-137991952D01*
X172747142Y-138563380D01*
X172128095Y-138563380D01*
%TO.C,D11*%
X115097885Y-130562380D02*
X115097885Y-129562380D01*
X114859790Y-129562380D01*
X114716933Y-129610000D01*
X114621695Y-129705238D01*
X114574076Y-129800476D01*
X114526457Y-129990952D01*
X114526457Y-130133809D01*
X114574076Y-130324285D01*
X114621695Y-130419523D01*
X114716933Y-130514761D01*
X114859790Y-130562380D01*
X115097885Y-130562380D01*
X113574076Y-130562380D02*
X114145504Y-130562380D01*
X113859790Y-130562380D02*
X113859790Y-129562380D01*
X113955028Y-129705238D01*
X114050266Y-129800476D01*
X114145504Y-129848095D01*
X112621695Y-130562380D02*
X113193123Y-130562380D01*
X112907409Y-130562380D02*
X112907409Y-129562380D01*
X113002647Y-129705238D01*
X113097885Y-129800476D01*
X113193123Y-129848095D01*
%TO.C,D24*%
X150804285Y-138563380D02*
X150804285Y-137563380D01*
X150566190Y-137563380D01*
X150423333Y-137611000D01*
X150328095Y-137706238D01*
X150280476Y-137801476D01*
X150232857Y-137991952D01*
X150232857Y-138134809D01*
X150280476Y-138325285D01*
X150328095Y-138420523D01*
X150423333Y-138515761D01*
X150566190Y-138563380D01*
X150804285Y-138563380D01*
X149851904Y-137658619D02*
X149804285Y-137611000D01*
X149709047Y-137563380D01*
X149470952Y-137563380D01*
X149375714Y-137611000D01*
X149328095Y-137658619D01*
X149280476Y-137753857D01*
X149280476Y-137849095D01*
X149328095Y-137991952D01*
X149899523Y-138563380D01*
X149280476Y-138563380D01*
X148423333Y-137896714D02*
X148423333Y-138563380D01*
X148661428Y-137515761D02*
X148899523Y-138230047D01*
X148280476Y-138230047D01*
%TO.C,D29*%
X174614285Y-114572380D02*
X174614285Y-113572380D01*
X174376190Y-113572380D01*
X174233333Y-113620000D01*
X174138095Y-113715238D01*
X174090476Y-113810476D01*
X174042857Y-114000952D01*
X174042857Y-114143809D01*
X174090476Y-114334285D01*
X174138095Y-114429523D01*
X174233333Y-114524761D01*
X174376190Y-114572380D01*
X174614285Y-114572380D01*
X173661904Y-113667619D02*
X173614285Y-113620000D01*
X173519047Y-113572380D01*
X173280952Y-113572380D01*
X173185714Y-113620000D01*
X173138095Y-113667619D01*
X173090476Y-113762857D01*
X173090476Y-113858095D01*
X173138095Y-114000952D01*
X173709523Y-114572380D01*
X173090476Y-114572380D01*
X172614285Y-114572380D02*
X172423809Y-114572380D01*
X172328571Y-114524761D01*
X172280952Y-114477142D01*
X172185714Y-114334285D01*
X172138095Y-114143809D01*
X172138095Y-113762857D01*
X172185714Y-113667619D01*
X172233333Y-113620000D01*
X172328571Y-113572380D01*
X172519047Y-113572380D01*
X172614285Y-113620000D01*
X172661904Y-113667619D01*
X172709523Y-113762857D01*
X172709523Y-114000952D01*
X172661904Y-114096190D01*
X172614285Y-114143809D01*
X172519047Y-114191428D01*
X172328571Y-114191428D01*
X172233333Y-114143809D01*
X172185714Y-114096190D01*
X172138095Y-114000952D01*
%TO.C,D1*%
X90755695Y-114572380D02*
X90755695Y-113572380D01*
X90517600Y-113572380D01*
X90374742Y-113620000D01*
X90279504Y-113715238D01*
X90231885Y-113810476D01*
X90184266Y-114000952D01*
X90184266Y-114143809D01*
X90231885Y-114334285D01*
X90279504Y-114429523D01*
X90374742Y-114524761D01*
X90517600Y-114572380D01*
X90755695Y-114572380D01*
X89231885Y-114572380D02*
X89803314Y-114572380D01*
X89517600Y-114572380D02*
X89517600Y-113572380D01*
X89612838Y-113715238D01*
X89708076Y-113810476D01*
X89803314Y-113858095D01*
%TO.C,D14*%
X127014285Y-122573380D02*
X127014285Y-121573380D01*
X126776190Y-121573380D01*
X126633333Y-121621000D01*
X126538095Y-121716238D01*
X126490476Y-121811476D01*
X126442857Y-122001952D01*
X126442857Y-122144809D01*
X126490476Y-122335285D01*
X126538095Y-122430523D01*
X126633333Y-122525761D01*
X126776190Y-122573380D01*
X127014285Y-122573380D01*
X125490476Y-122573380D02*
X126061904Y-122573380D01*
X125776190Y-122573380D02*
X125776190Y-121573380D01*
X125871428Y-121716238D01*
X125966666Y-121811476D01*
X126061904Y-121859095D01*
X124633333Y-121906714D02*
X124633333Y-122573380D01*
X124871428Y-121525761D02*
X125109523Y-122240047D01*
X124490476Y-122240047D01*
%TO.C,D34*%
X186507285Y-122573380D02*
X186507285Y-121573380D01*
X186269190Y-121573380D01*
X186126333Y-121621000D01*
X186031095Y-121716238D01*
X185983476Y-121811476D01*
X185935857Y-122001952D01*
X185935857Y-122144809D01*
X185983476Y-122335285D01*
X186031095Y-122430523D01*
X186126333Y-122525761D01*
X186269190Y-122573380D01*
X186507285Y-122573380D01*
X185602523Y-121573380D02*
X184983476Y-121573380D01*
X185316809Y-121954333D01*
X185173952Y-121954333D01*
X185078714Y-122001952D01*
X185031095Y-122049571D01*
X184983476Y-122144809D01*
X184983476Y-122382904D01*
X185031095Y-122478142D01*
X185078714Y-122525761D01*
X185173952Y-122573380D01*
X185459666Y-122573380D01*
X185554904Y-122525761D01*
X185602523Y-122478142D01*
X184126333Y-121906714D02*
X184126333Y-122573380D01*
X184364428Y-121525761D02*
X184602523Y-122240047D01*
X183983476Y-122240047D01*
%TO.C,D38*%
X198414285Y-122573380D02*
X198414285Y-121573380D01*
X198176190Y-121573380D01*
X198033333Y-121621000D01*
X197938095Y-121716238D01*
X197890476Y-121811476D01*
X197842857Y-122001952D01*
X197842857Y-122144809D01*
X197890476Y-122335285D01*
X197938095Y-122430523D01*
X198033333Y-122525761D01*
X198176190Y-122573380D01*
X198414285Y-122573380D01*
X197509523Y-121573380D02*
X196890476Y-121573380D01*
X197223809Y-121954333D01*
X197080952Y-121954333D01*
X196985714Y-122001952D01*
X196938095Y-122049571D01*
X196890476Y-122144809D01*
X196890476Y-122382904D01*
X196938095Y-122478142D01*
X196985714Y-122525761D01*
X197080952Y-122573380D01*
X197366666Y-122573380D01*
X197461904Y-122525761D01*
X197509523Y-122478142D01*
X196319047Y-122001952D02*
X196414285Y-121954333D01*
X196461904Y-121906714D01*
X196509523Y-121811476D01*
X196509523Y-121763857D01*
X196461904Y-121668619D01*
X196414285Y-121621000D01*
X196319047Y-121573380D01*
X196128571Y-121573380D01*
X196033333Y-121621000D01*
X195985714Y-121668619D01*
X195938095Y-121763857D01*
X195938095Y-121811476D01*
X195985714Y-121906714D01*
X196033333Y-121954333D01*
X196128571Y-122001952D01*
X196319047Y-122001952D01*
X196414285Y-122049571D01*
X196461904Y-122097190D01*
X196509523Y-122192428D01*
X196509523Y-122382904D01*
X196461904Y-122478142D01*
X196414285Y-122525761D01*
X196319047Y-122573380D01*
X196128571Y-122573380D01*
X196033333Y-122525761D01*
X195985714Y-122478142D01*
X195938095Y-122382904D01*
X195938095Y-122192428D01*
X195985714Y-122097190D01*
X196033333Y-122049571D01*
X196128571Y-122001952D01*
%TO.C,D18*%
X138914285Y-122573380D02*
X138914285Y-121573380D01*
X138676190Y-121573380D01*
X138533333Y-121621000D01*
X138438095Y-121716238D01*
X138390476Y-121811476D01*
X138342857Y-122001952D01*
X138342857Y-122144809D01*
X138390476Y-122335285D01*
X138438095Y-122430523D01*
X138533333Y-122525761D01*
X138676190Y-122573380D01*
X138914285Y-122573380D01*
X137390476Y-122573380D02*
X137961904Y-122573380D01*
X137676190Y-122573380D02*
X137676190Y-121573380D01*
X137771428Y-121716238D01*
X137866666Y-121811476D01*
X137961904Y-121859095D01*
X136819047Y-122001952D02*
X136914285Y-121954333D01*
X136961904Y-121906714D01*
X137009523Y-121811476D01*
X137009523Y-121763857D01*
X136961904Y-121668619D01*
X136914285Y-121621000D01*
X136819047Y-121573380D01*
X136628571Y-121573380D01*
X136533333Y-121621000D01*
X136485714Y-121668619D01*
X136438095Y-121763857D01*
X136438095Y-121811476D01*
X136485714Y-121906714D01*
X136533333Y-121954333D01*
X136628571Y-122001952D01*
X136819047Y-122001952D01*
X136914285Y-122049571D01*
X136961904Y-122097190D01*
X137009523Y-122192428D01*
X137009523Y-122382904D01*
X136961904Y-122478142D01*
X136914285Y-122525761D01*
X136819047Y-122573380D01*
X136628571Y-122573380D01*
X136533333Y-122525761D01*
X136485714Y-122478142D01*
X136438095Y-122382904D01*
X136438095Y-122192428D01*
X136485714Y-122097190D01*
X136533333Y-122049571D01*
X136628571Y-122001952D01*
%TO.C,D22*%
X150814285Y-122573380D02*
X150814285Y-121573380D01*
X150576190Y-121573380D01*
X150433333Y-121621000D01*
X150338095Y-121716238D01*
X150290476Y-121811476D01*
X150242857Y-122001952D01*
X150242857Y-122144809D01*
X150290476Y-122335285D01*
X150338095Y-122430523D01*
X150433333Y-122525761D01*
X150576190Y-122573380D01*
X150814285Y-122573380D01*
X149861904Y-121668619D02*
X149814285Y-121621000D01*
X149719047Y-121573380D01*
X149480952Y-121573380D01*
X149385714Y-121621000D01*
X149338095Y-121668619D01*
X149290476Y-121763857D01*
X149290476Y-121859095D01*
X149338095Y-122001952D01*
X149909523Y-122573380D01*
X149290476Y-122573380D01*
X148909523Y-121668619D02*
X148861904Y-121621000D01*
X148766666Y-121573380D01*
X148528571Y-121573380D01*
X148433333Y-121621000D01*
X148385714Y-121668619D01*
X148338095Y-121763857D01*
X148338095Y-121859095D01*
X148385714Y-122001952D01*
X148957142Y-122573380D01*
X148338095Y-122573380D01*
%TO.C,D12*%
X115097885Y-138563380D02*
X115097885Y-137563380D01*
X114859790Y-137563380D01*
X114716933Y-137611000D01*
X114621695Y-137706238D01*
X114574076Y-137801476D01*
X114526457Y-137991952D01*
X114526457Y-138134809D01*
X114574076Y-138325285D01*
X114621695Y-138420523D01*
X114716933Y-138515761D01*
X114859790Y-138563380D01*
X115097885Y-138563380D01*
X113574076Y-138563380D02*
X114145504Y-138563380D01*
X113859790Y-138563380D02*
X113859790Y-137563380D01*
X113955028Y-137706238D01*
X114050266Y-137801476D01*
X114145504Y-137849095D01*
X113193123Y-137658619D02*
X113145504Y-137611000D01*
X113050266Y-137563380D01*
X112812171Y-137563380D01*
X112716933Y-137611000D01*
X112669314Y-137658619D01*
X112621695Y-137753857D01*
X112621695Y-137849095D01*
X112669314Y-137991952D01*
X113240742Y-138563380D01*
X112621695Y-138563380D01*
%TO.C,D7*%
X102728095Y-130562380D02*
X102728095Y-129562380D01*
X102490000Y-129562380D01*
X102347142Y-129610000D01*
X102251904Y-129705238D01*
X102204285Y-129800476D01*
X102156666Y-129990952D01*
X102156666Y-130133809D01*
X102204285Y-130324285D01*
X102251904Y-130419523D01*
X102347142Y-130514761D01*
X102490000Y-130562380D01*
X102728095Y-130562380D01*
X101823333Y-129562380D02*
X101156666Y-129562380D01*
X101585238Y-130562380D01*
%TO.C,D16*%
X127004285Y-138563380D02*
X127004285Y-137563380D01*
X126766190Y-137563380D01*
X126623333Y-137611000D01*
X126528095Y-137706238D01*
X126480476Y-137801476D01*
X126432857Y-137991952D01*
X126432857Y-138134809D01*
X126480476Y-138325285D01*
X126528095Y-138420523D01*
X126623333Y-138515761D01*
X126766190Y-138563380D01*
X127004285Y-138563380D01*
X125480476Y-138563380D02*
X126051904Y-138563380D01*
X125766190Y-138563380D02*
X125766190Y-137563380D01*
X125861428Y-137706238D01*
X125956666Y-137801476D01*
X126051904Y-137849095D01*
X124623333Y-137563380D02*
X124813809Y-137563380D01*
X124909047Y-137611000D01*
X124956666Y-137658619D01*
X125051904Y-137801476D01*
X125099523Y-137991952D01*
X125099523Y-138372904D01*
X125051904Y-138468142D01*
X125004285Y-138515761D01*
X124909047Y-138563380D01*
X124718571Y-138563380D01*
X124623333Y-138515761D01*
X124575714Y-138468142D01*
X124528095Y-138372904D01*
X124528095Y-138134809D01*
X124575714Y-138039571D01*
X124623333Y-137991952D01*
X124718571Y-137944333D01*
X124909047Y-137944333D01*
X125004285Y-137991952D01*
X125051904Y-138039571D01*
X125099523Y-138134809D01*
%TO.C,D9*%
X114631695Y-114572380D02*
X114631695Y-113572380D01*
X114393600Y-113572380D01*
X114250742Y-113620000D01*
X114155504Y-113715238D01*
X114107885Y-113810476D01*
X114060266Y-114000952D01*
X114060266Y-114143809D01*
X114107885Y-114334285D01*
X114155504Y-114429523D01*
X114250742Y-114524761D01*
X114393600Y-114572380D01*
X114631695Y-114572380D01*
X113584076Y-114572380D02*
X113393600Y-114572380D01*
X113298361Y-114524761D01*
X113250742Y-114477142D01*
X113155504Y-114334285D01*
X113107885Y-114143809D01*
X113107885Y-113762857D01*
X113155504Y-113667619D01*
X113203123Y-113620000D01*
X113298361Y-113572380D01*
X113488838Y-113572380D01*
X113584076Y-113620000D01*
X113631695Y-113667619D01*
X113679314Y-113762857D01*
X113679314Y-114000952D01*
X113631695Y-114096190D01*
X113584076Y-114143809D01*
X113488838Y-114191428D01*
X113298361Y-114191428D01*
X113203123Y-114143809D01*
X113155504Y-114096190D01*
X113107885Y-114000952D01*
D12*
%TO.C,D26*%
X159250000Y-125002800D02*
X163150000Y-125002800D01*
X159250000Y-125002800D02*
X159250000Y-123002800D01*
X159250000Y-123002800D02*
X163150000Y-123002800D01*
%TO.C,D35*%
X183043000Y-133003800D02*
X186943000Y-133003800D01*
X183043000Y-133003800D02*
X183043000Y-131003800D01*
X183043000Y-131003800D02*
X186943000Y-131003800D01*
%TO.C,D21*%
X147350000Y-117001800D02*
X147350000Y-115001800D01*
X147350000Y-115001800D02*
X151250000Y-115001800D01*
X147350000Y-117001800D02*
X151250000Y-117001800D01*
D13*
%TO.C,J2*%
X78130000Y-113210000D02*
X78130000Y-108010000D01*
X81730000Y-107910000D02*
X81730000Y-107260000D01*
X81730000Y-113310000D02*
X81730000Y-113960000D01*
X81730000Y-113960000D02*
X79530000Y-113960000D01*
X81730000Y-107260000D02*
X79530000Y-107260000D01*
D14*
X82265000Y-112865000D02*
G75*
G03*
X82265000Y-112865000I-100000J0D01*
G01*
D12*
%TO.C,D31*%
X171150000Y-133003800D02*
X171150000Y-131003800D01*
X171150000Y-131003800D02*
X175050000Y-131003800D01*
X171150000Y-133003800D02*
X175050000Y-133003800D01*
%TO.C,D40*%
X194950000Y-139004800D02*
X198850000Y-139004800D01*
X194950000Y-141004800D02*
X194950000Y-139004800D01*
X194950000Y-141004800D02*
X198850000Y-141004800D01*
%TO.C,D10*%
X111643600Y-125002800D02*
X111643600Y-123002800D01*
X111643600Y-123002800D02*
X115543600Y-123002800D01*
X111643600Y-125002800D02*
X115543600Y-125002800D01*
%TO.C,D8*%
X99750000Y-139004800D02*
X103650000Y-139004800D01*
X99750000Y-141004800D02*
X99750000Y-139004800D01*
X99750000Y-141004800D02*
X103650000Y-141004800D01*
%TO.C,D20*%
X135341800Y-141004800D02*
X139241800Y-141004800D01*
X135341800Y-139004800D02*
X139241800Y-139004800D01*
X135341800Y-141004800D02*
X135341800Y-139004800D01*
%TO.C,D30*%
X171150000Y-125002800D02*
X171150000Y-123002800D01*
X171150000Y-125002800D02*
X175050000Y-125002800D01*
X171150000Y-123002800D02*
X175050000Y-123002800D01*
%TO.C,D28*%
X159243200Y-141004800D02*
X163143200Y-141004800D01*
X159243200Y-139004800D02*
X163143200Y-139004800D01*
X159243200Y-141004800D02*
X159243200Y-139004800D01*
%TO.C,D13*%
X123550000Y-117001800D02*
X127450000Y-117001800D01*
X123550000Y-115001800D02*
X127450000Y-115001800D01*
X123550000Y-117001800D02*
X123550000Y-115001800D01*
%TO.C,D3*%
X87850000Y-133003800D02*
X91750000Y-133003800D01*
X87850000Y-133003800D02*
X87850000Y-131003800D01*
X87850000Y-131003800D02*
X91750000Y-131003800D01*
%TO.C,D33*%
X183043000Y-117001800D02*
X186943000Y-117001800D01*
X183043000Y-117001800D02*
X183043000Y-115001800D01*
X183043000Y-115001800D02*
X186943000Y-115001800D01*
%TO.C,D4*%
X87843800Y-141004800D02*
X91743800Y-141004800D01*
X87843800Y-139004800D02*
X91743800Y-139004800D01*
X87843800Y-141004800D02*
X87843800Y-139004800D01*
%TO.C,REF\u002A\u002A*%
X80360000Y-76110000D02*
X78240000Y-76110000D01*
X78240000Y-76050000D02*
X78240000Y-76110000D01*
X80360000Y-76050000D02*
X78240000Y-76050000D01*
X80360000Y-73990000D02*
X79300000Y-73990000D01*
X80360000Y-75050000D02*
X80360000Y-73990000D01*
X80360000Y-76050000D02*
X80360000Y-76110000D01*
%TO.C,D2*%
X87850000Y-125002800D02*
X91750000Y-125002800D01*
X87850000Y-123002800D02*
X91750000Y-123002800D01*
X87850000Y-125002800D02*
X87850000Y-123002800D01*
%TO.C,U1*%
X103950000Y-98490000D02*
X103650000Y-98190000D01*
D11*
X106250000Y-76990000D02*
X106950000Y-76990000D01*
X103650000Y-99590000D02*
X106250000Y-99590000D01*
D12*
X82950000Y-75490000D02*
X83250000Y-75790000D01*
D11*
X106250000Y-99590000D02*
X106250000Y-96990000D01*
X81050000Y-96990000D02*
X81050000Y-99590000D01*
X81050000Y-74390000D02*
X81050000Y-76990000D01*
D12*
X104850000Y-76890000D02*
X104550000Y-76590000D01*
X103650000Y-98190000D02*
X103950000Y-97890000D01*
X82450000Y-97190000D02*
X82750000Y-97490000D01*
X83250000Y-75790000D02*
X82950000Y-76090000D01*
D11*
X83650000Y-74390000D02*
X81050000Y-74390000D01*
X106250000Y-76990000D02*
X106250000Y-75890000D01*
X104750000Y-74390000D02*
X103650000Y-74390000D01*
X81050000Y-99590000D02*
X83650000Y-99590000D01*
D12*
X82150000Y-97490000D02*
X82450000Y-97190000D01*
X105150000Y-76590000D02*
X104850000Y-76890000D01*
D11*
X106250000Y-75890000D02*
G75*
G03*
X104750000Y-74390000I-1616790J-116790D01*
G01*
D12*
%TO.C,D25*%
X159250000Y-115001800D02*
X163150000Y-115001800D01*
X159250000Y-117001800D02*
X159250000Y-115001800D01*
X159250000Y-117001800D02*
X163150000Y-117001800D01*
%TO.C,D39*%
X194950000Y-133003800D02*
X194950000Y-131003800D01*
X194950000Y-133003800D02*
X198850000Y-133003800D01*
X194950000Y-131003800D02*
X198850000Y-131003800D01*
%TO.C,D36*%
X183050000Y-141004800D02*
X183050000Y-139004800D01*
X183050000Y-139004800D02*
X186950000Y-139004800D01*
X183050000Y-141004800D02*
X186950000Y-141004800D01*
D13*
%TO.C,J3*%
X205600000Y-113960000D02*
X207800000Y-113960000D01*
X209200000Y-108010000D02*
X209200000Y-113210000D01*
X205600000Y-107910000D02*
X205600000Y-107260000D01*
X205600000Y-113310000D02*
X205600000Y-113960000D01*
X205600000Y-107260000D02*
X207800000Y-107260000D01*
D14*
X205265000Y-108355000D02*
G75*
G03*
X205265000Y-108355000I-100000J0D01*
G01*
D12*
%TO.C,D37*%
X194950000Y-117001800D02*
X194950000Y-115001800D01*
X194950000Y-117001800D02*
X198850000Y-117001800D01*
X194950000Y-115001800D02*
X198850000Y-115001800D01*
%TO.C,D19*%
X135450000Y-133003800D02*
X135450000Y-131003800D01*
X135450000Y-131003800D02*
X139350000Y-131003800D01*
X135450000Y-133003800D02*
X139350000Y-133003800D01*
%TO.C,D6*%
X99750000Y-123002800D02*
X103650000Y-123002800D01*
X99750000Y-125002800D02*
X103650000Y-125002800D01*
X99750000Y-125002800D02*
X99750000Y-123002800D01*
%TO.C,D27*%
X159250000Y-131003800D02*
X163150000Y-131003800D01*
X159250000Y-133003800D02*
X159250000Y-131003800D01*
X159250000Y-133003800D02*
X163150000Y-133003800D01*
%TO.C,D17*%
X135443400Y-115001800D02*
X139343400Y-115001800D01*
X135443400Y-117001800D02*
X139343400Y-117001800D01*
X135443400Y-117001800D02*
X135443400Y-115001800D01*
%TO.C,REF\u002A\u002A*%
X78240000Y-71040000D02*
X78240000Y-68980000D01*
X78240000Y-72040000D02*
X78240000Y-73100000D01*
X78240000Y-73100000D02*
X79300000Y-73100000D01*
X78240000Y-71040000D02*
X80360000Y-71040000D01*
X78240000Y-68980000D02*
X80360000Y-68980000D01*
X80360000Y-71040000D02*
X80360000Y-68980000D01*
%TO.C,D15*%
X123550000Y-133003800D02*
X123550000Y-131003800D01*
X123550000Y-133003800D02*
X127450000Y-133003800D01*
X123550000Y-131003800D02*
X127450000Y-131003800D01*
%TO.C,D23*%
X147350000Y-131003800D02*
X151250000Y-131003800D01*
X147350000Y-133003800D02*
X147350000Y-131003800D01*
X147350000Y-133003800D02*
X151250000Y-133003800D01*
%TO.C,D5*%
X99731000Y-115001800D02*
X103631000Y-115001800D01*
X99731000Y-117001800D02*
X99731000Y-115001800D01*
X99731000Y-117001800D02*
X103631000Y-117001800D01*
%TO.C,D32*%
X171150000Y-139004800D02*
X175050000Y-139004800D01*
X171150000Y-141004800D02*
X171150000Y-139004800D01*
X171150000Y-141004800D02*
X175050000Y-141004800D01*
%TO.C,D11*%
X111643600Y-133003800D02*
X111643600Y-131003800D01*
X111643600Y-133003800D02*
X115543600Y-133003800D01*
X111643600Y-131003800D02*
X115543600Y-131003800D01*
%TO.C,D24*%
X147350000Y-141004800D02*
X147350000Y-139004800D01*
X147350000Y-141004800D02*
X151250000Y-141004800D01*
X147350000Y-139004800D02*
X151250000Y-139004800D01*
%TO.C,D29*%
X171150000Y-115001800D02*
X175050000Y-115001800D01*
X171150000Y-117001800D02*
X171150000Y-115001800D01*
X171150000Y-117001800D02*
X175050000Y-117001800D01*
%TO.C,D1*%
X87767600Y-117001800D02*
X91667600Y-117001800D01*
X87767600Y-117001800D02*
X87767600Y-115001800D01*
X87767600Y-115001800D02*
X91667600Y-115001800D01*
%TO.C,D14*%
X123550000Y-123002800D02*
X127450000Y-123002800D01*
X123550000Y-125002800D02*
X127450000Y-125002800D01*
X123550000Y-125002800D02*
X123550000Y-123002800D01*
%TO.C,D34*%
X183043000Y-125002800D02*
X183043000Y-123002800D01*
X183043000Y-125002800D02*
X186943000Y-125002800D01*
X183043000Y-123002800D02*
X186943000Y-123002800D01*
%TO.C,D38*%
X194950000Y-125002800D02*
X198850000Y-125002800D01*
X194950000Y-125002800D02*
X194950000Y-123002800D01*
X194950000Y-123002800D02*
X198850000Y-123002800D01*
%TO.C,D18*%
X135450000Y-123002800D02*
X139350000Y-123002800D01*
X135450000Y-125002800D02*
X135450000Y-123002800D01*
X135450000Y-125002800D02*
X139350000Y-125002800D01*
%TO.C,D22*%
X147350000Y-125002800D02*
X147350000Y-123002800D01*
X147350000Y-125002800D02*
X151250000Y-125002800D01*
X147350000Y-123002800D02*
X151250000Y-123002800D01*
%TO.C,D12*%
X111643600Y-141004800D02*
X111643600Y-139004800D01*
X111643600Y-141004800D02*
X115543600Y-141004800D01*
X111643600Y-139004800D02*
X115543600Y-139004800D01*
%TO.C,D7*%
X99750000Y-131003800D02*
X103650000Y-131003800D01*
X99750000Y-133003800D02*
X99750000Y-131003800D01*
X99750000Y-133003800D02*
X103650000Y-133003800D01*
%TO.C,D16*%
X123550000Y-139004800D02*
X127450000Y-139004800D01*
X123550000Y-141004800D02*
X123550000Y-139004800D01*
X123550000Y-141004800D02*
X127450000Y-141004800D01*
%TO.C,D9*%
X111643600Y-117001800D02*
X115543600Y-117001800D01*
X111643600Y-115001800D02*
X115543600Y-115001800D01*
X111643600Y-117001800D02*
X111643600Y-115001800D01*
%TD*%
M02*
