%TF.GenerationSoftware,KiCad,Pcbnew,(6.0.4)*%
%TF.CreationDate,2022-10-14T21:38:42-05:00*%
%TF.ProjectId,Calculator_PCB _V2,43616c63-756c-4617-946f-725f50434220,rev?*%
%TF.SameCoordinates,Original*%
%TF.FileFunction,Copper,L2,Bot*%
%TF.FilePolarity,Positive*%
%FSLAX46Y46*%
G04 Gerber Fmt 4.6, Leading zero omitted, Abs format (unit mm)*
G04 Created by KiCad (PCBNEW (6.0.4)) date 2022-10-14 21:38:42*
%MOMM*%
%LPD*%
G01*
G04 APERTURE LIST*
%TA.AperFunction,ComponentPad*%
%ADD10C,1.524000*%
%TD*%
%TA.AperFunction,SMDPad,CuDef*%
%ADD11R,0.900000X1.200000*%
%TD*%
%TA.AperFunction,SMDPad,CuDef*%
%ADD12R,0.700000X0.300000*%
%TD*%
%TA.AperFunction,SMDPad,CuDef*%
%ADD13R,1.000000X0.300000*%
%TD*%
%TA.AperFunction,ComponentPad*%
%ADD14R,1.350000X1.350000*%
%TD*%
%TA.AperFunction,SMDPad,CuDef*%
%ADD15R,2.800000X1.500000*%
%TD*%
%TA.AperFunction,SMDPad,CuDef*%
%ADD16R,1.500000X2.800000*%
%TD*%
%TA.AperFunction,ComponentPad*%
%ADD17O,1.350000X1.350000*%
%TD*%
%TA.AperFunction,ComponentPad*%
%ADD18R,1.778000X1.778000*%
%TD*%
%TA.AperFunction,ComponentPad*%
%ADD19C,1.778000*%
%TD*%
%TA.AperFunction,ViaPad*%
%ADD20C,0.800000*%
%TD*%
%TA.AperFunction,Conductor*%
%ADD21C,0.800000*%
%TD*%
%TA.AperFunction,Conductor*%
%ADD22C,0.250000*%
%TD*%
%TA.AperFunction,Conductor*%
%ADD23C,0.200000*%
%TD*%
%TA.AperFunction,Conductor*%
%ADD24C,0.150000*%
%TD*%
%TA.AperFunction,Conductor*%
%ADD25C,0.400000*%
%TD*%
G04 APERTURE END LIST*
D10*
%TO.P,SW12,1,A*%
%TO.N,Net-(D12-Pad2)*%
X110090000Y-138540000D03*
X117710000Y-138540000D03*
%TO.P,SW12,2,B*%
%TO.N,/Col5*%
X117710000Y-133460000D03*
X110090000Y-133460000D03*
%TD*%
%TO.P,SW39,1,A*%
%TO.N,Net-(D39-Pad2)*%
X201010000Y-130540000D03*
X193390000Y-130540000D03*
%TO.P,SW39,2,B*%
%TO.N,/Col12*%
X201010000Y-125460000D03*
X193390000Y-125460000D03*
%TD*%
%TO.P,SW2,1,A*%
%TO.N,Net-(D2-Pad2)*%
X93910000Y-122540000D03*
X86290000Y-122540000D03*
%TO.P,SW2,2,B*%
%TO.N,/Col3*%
X86290000Y-117460000D03*
X93910000Y-117460000D03*
%TD*%
%TO.P,SW30,1,A*%
%TO.N,Net-(D30-Pad2)*%
X177210000Y-122540000D03*
X169590000Y-122540000D03*
%TO.P,SW30,2,B*%
%TO.N,/Col10*%
X169590000Y-117460000D03*
X177210000Y-117460000D03*
%TD*%
%TO.P,SW1,1,A*%
%TO.N,Net-(D1-Pad2)*%
X93910000Y-114540000D03*
X86290000Y-114540000D03*
%TO.P,SW1,2,B*%
%TO.N,/Col3*%
X86290000Y-109460000D03*
X93910000Y-109460000D03*
%TD*%
%TO.P,SW4,1,A*%
%TO.N,Net-(D4-Pad2)*%
X86290000Y-138540000D03*
X93910000Y-138540000D03*
%TO.P,SW4,2,B*%
%TO.N,/Col3*%
X86290000Y-133460000D03*
X93910000Y-133460000D03*
%TD*%
%TO.P,SW8,1,A*%
%TO.N,Net-(D8-Pad2)*%
X105810000Y-138540000D03*
X98190000Y-138540000D03*
%TO.P,SW8,2,B*%
%TO.N,/Col4*%
X98190000Y-133460000D03*
X105810000Y-133460000D03*
%TD*%
%TO.P,SW33,1,A*%
%TO.N,Net-(D33-Pad2)*%
X189110000Y-114540000D03*
X181490000Y-114540000D03*
%TO.P,SW33,2,B*%
%TO.N,/Col11*%
X181490000Y-109460000D03*
X189110000Y-109460000D03*
%TD*%
%TO.P,SW26,1,A*%
%TO.N,Net-(D26-Pad2)*%
X157690000Y-122540000D03*
X165310000Y-122540000D03*
%TO.P,SW26,2,B*%
%TO.N,/Col9*%
X165310000Y-117460000D03*
X157690000Y-117460000D03*
%TD*%
%TO.P,SW6,1,A*%
%TO.N,Net-(D6-Pad2)*%
X105810000Y-122540000D03*
X98190000Y-122540000D03*
%TO.P,SW6,2,B*%
%TO.N,/Col4*%
X105810000Y-117460000D03*
X98190000Y-117460000D03*
%TD*%
%TO.P,SW17,1,A*%
%TO.N,Net-(D17-Pad2)*%
X141510000Y-114540000D03*
X133890000Y-114540000D03*
%TO.P,SW17,2,B*%
%TO.N,/Col7*%
X133890000Y-109460000D03*
X141510000Y-109460000D03*
%TD*%
%TO.P,SW11,1,A*%
%TO.N,Net-(D11-Pad2)*%
X117710000Y-130540000D03*
X110090000Y-130540000D03*
%TO.P,SW11,2,B*%
%TO.N,/Col5*%
X117710000Y-125460000D03*
X110090000Y-125460000D03*
%TD*%
%TO.P,SW20,1,A*%
%TO.N,Net-(D20-Pad2)*%
X133890000Y-138540000D03*
X141510000Y-138540000D03*
%TO.P,SW20,2,B*%
%TO.N,/Col7*%
X141510000Y-133460000D03*
X133890000Y-133460000D03*
%TD*%
%TO.P,SW10,1,A*%
%TO.N,Net-(D10-Pad2)*%
X117710000Y-122540000D03*
X110090000Y-122540000D03*
%TO.P,SW10,2,B*%
%TO.N,/Col5*%
X117710000Y-117460000D03*
X110090000Y-117460000D03*
%TD*%
%TO.P,SW23,1,A*%
%TO.N,Net-(D23-Pad2)*%
X145790000Y-130540000D03*
X153410000Y-130540000D03*
%TO.P,SW23,2,B*%
%TO.N,/Col8*%
X153410000Y-125460000D03*
X145790000Y-125460000D03*
%TD*%
%TO.P,SW16,1,A*%
%TO.N,Net-(D16-Pad2)*%
X129610000Y-138540000D03*
X121990000Y-138540000D03*
%TO.P,SW16,2,B*%
%TO.N,/Col6*%
X121990000Y-133460000D03*
X129610000Y-133460000D03*
%TD*%
%TO.P,SW36,1,A*%
%TO.N,Net-(D36-Pad2)*%
X189110000Y-138540000D03*
X181490000Y-138540000D03*
%TO.P,SW36,2,B*%
%TO.N,/Col11*%
X189110000Y-133460000D03*
X181490000Y-133460000D03*
%TD*%
%TO.P,SW28,1,A*%
%TO.N,Net-(D28-Pad2)*%
X165310000Y-138540000D03*
X157690000Y-138540000D03*
%TO.P,SW28,2,B*%
%TO.N,/Col9*%
X157690000Y-133460000D03*
X165310000Y-133460000D03*
%TD*%
%TO.P,SW14,1,A*%
%TO.N,Net-(D14-Pad2)*%
X121990000Y-122540000D03*
X129610000Y-122540000D03*
%TO.P,SW14,2,B*%
%TO.N,/Col6*%
X121990000Y-117460000D03*
X129610000Y-117460000D03*
%TD*%
%TO.P,SW25,1,A*%
%TO.N,Net-(D25-Pad2)*%
X157690000Y-114540000D03*
X165310000Y-114540000D03*
%TO.P,SW25,2,B*%
%TO.N,/Col9*%
X157690000Y-109460000D03*
X165310000Y-109460000D03*
%TD*%
%TO.P,SW3,1,A*%
%TO.N,Net-(D3-Pad2)*%
X86290000Y-130540000D03*
X93910000Y-130540000D03*
%TO.P,SW3,2,B*%
%TO.N,/Col3*%
X93910000Y-125460000D03*
X86290000Y-125460000D03*
%TD*%
%TO.P,SW37,1,A*%
%TO.N,Net-(D37-Pad2)*%
X201010000Y-114540000D03*
X193390000Y-114540000D03*
%TO.P,SW37,2,B*%
%TO.N,/Col12*%
X193390000Y-109460000D03*
X201010000Y-109460000D03*
%TD*%
%TO.P,SW22,1,A*%
%TO.N,Net-(D22-Pad2)*%
X153410000Y-122540000D03*
X145790000Y-122540000D03*
%TO.P,SW22,2,B*%
%TO.N,/Col8*%
X145790000Y-117460000D03*
X153410000Y-117460000D03*
%TD*%
%TO.P,SW34,1,A*%
%TO.N,Net-(D34-Pad2)*%
X189110000Y-122540000D03*
X181490000Y-122540000D03*
%TO.P,SW34,2,B*%
%TO.N,/Col11*%
X189110000Y-117460000D03*
X181490000Y-117460000D03*
%TD*%
%TO.P,SW31,1,A*%
%TO.N,Net-(D31-Pad2)*%
X169590000Y-130540000D03*
X177210000Y-130540000D03*
%TO.P,SW31,2,B*%
%TO.N,/Col10*%
X169590000Y-125460000D03*
X177210000Y-125460000D03*
%TD*%
%TO.P,SW21,1,A*%
%TO.N,Net-(D21-Pad2)*%
X153410000Y-114540000D03*
X145790000Y-114540000D03*
%TO.P,SW21,2,B*%
%TO.N,/Col8*%
X145790000Y-109460000D03*
X153410000Y-109460000D03*
%TD*%
%TO.P,SW38,1,A*%
%TO.N,Net-(D38-Pad2)*%
X201010000Y-122540000D03*
X193390000Y-122540000D03*
%TO.P,SW38,2,B*%
%TO.N,/Col12*%
X201010000Y-117460000D03*
X193390000Y-117460000D03*
%TD*%
%TO.P,SW32,1,A*%
%TO.N,Net-(D32-Pad2)*%
X177210000Y-138540000D03*
X169590000Y-138540000D03*
%TO.P,SW32,2,B*%
%TO.N,/Col10*%
X177210000Y-133460000D03*
X169590000Y-133460000D03*
%TD*%
%TO.P,SW7,1,A*%
%TO.N,Net-(D7-Pad2)*%
X105810000Y-130540000D03*
X98190000Y-130540000D03*
%TO.P,SW7,2,B*%
%TO.N,/Col4*%
X98190000Y-125460000D03*
X105810000Y-125460000D03*
%TD*%
%TO.P,SW9,1,A*%
%TO.N,Net-(D9-Pad2)*%
X117710000Y-114540000D03*
X110090000Y-114540000D03*
%TO.P,SW9,2,B*%
%TO.N,/Col5*%
X117710000Y-109460000D03*
X110090000Y-109460000D03*
%TD*%
%TO.P,SW13,1,A*%
%TO.N,Net-(D13-Pad2)*%
X121990000Y-114540000D03*
X129610000Y-114540000D03*
%TO.P,SW13,2,B*%
%TO.N,/Col6*%
X129610000Y-109460000D03*
X121990000Y-109460000D03*
%TD*%
%TO.P,SW18,1,A*%
%TO.N,Net-(D18-Pad2)*%
X133890000Y-122540000D03*
X141510000Y-122540000D03*
%TO.P,SW18,2,B*%
%TO.N,/Col7*%
X141510000Y-117460000D03*
X133890000Y-117460000D03*
%TD*%
%TO.P,SW15,1,A*%
%TO.N,Net-(D15-Pad2)*%
X129610000Y-130540000D03*
X121990000Y-130540000D03*
%TO.P,SW15,2,B*%
%TO.N,/Col6*%
X129610000Y-125460000D03*
X121990000Y-125460000D03*
%TD*%
%TO.P,SW5,1,A*%
%TO.N,Net-(D5-Pad2)*%
X105810000Y-114540000D03*
X98190000Y-114540000D03*
%TO.P,SW5,2,B*%
%TO.N,/Col4*%
X98190000Y-109460000D03*
X105810000Y-109460000D03*
%TD*%
%TO.P,SW35,1,A*%
%TO.N,Net-(D35-Pad2)*%
X189110000Y-130540000D03*
X181490000Y-130540000D03*
%TO.P,SW35,2,B*%
%TO.N,/Col11*%
X189110000Y-125460000D03*
X181490000Y-125460000D03*
%TD*%
%TO.P,SW27,1,A*%
%TO.N,Net-(D27-Pad2)*%
X157690000Y-130540000D03*
X165310000Y-130540000D03*
%TO.P,SW27,2,B*%
%TO.N,/Col9*%
X165310000Y-125460000D03*
X157690000Y-125460000D03*
%TD*%
%TO.P,SW24,1,A*%
%TO.N,Net-(D24-Pad2)*%
X153410000Y-138540000D03*
X145790000Y-138540000D03*
%TO.P,SW24,2,B*%
%TO.N,/Col8*%
X153410000Y-133460000D03*
X145790000Y-133460000D03*
%TD*%
%TO.P,SW29,1,A*%
%TO.N,Net-(D29-Pad2)*%
X169590000Y-114540000D03*
X177210000Y-114540000D03*
%TO.P,SW29,2,B*%
%TO.N,/Col10*%
X177210000Y-109460000D03*
X169590000Y-109460000D03*
%TD*%
%TO.P,SW40,1,A*%
%TO.N,Net-(D40-Pad2)*%
X201010000Y-138540000D03*
X193390000Y-138540000D03*
%TO.P,SW40,2,B*%
%TO.N,/Col12*%
X201010000Y-133460000D03*
X193390000Y-133460000D03*
%TD*%
%TO.P,SW19,1,A*%
%TO.N,Net-(D19-Pad2)*%
X141510000Y-130540000D03*
X133890000Y-130540000D03*
%TO.P,SW19,2,B*%
%TO.N,/Col7*%
X133890000Y-125460000D03*
X141510000Y-125460000D03*
%TD*%
D11*
%TO.P,D26,1,K*%
%TO.N,/Row4*%
X159850000Y-124002800D03*
%TO.P,D26,2,A*%
%TO.N,Net-(D26-Pad2)*%
X163150000Y-124002800D03*
%TD*%
%TO.P,D35,1,K*%
%TO.N,/Row5*%
X183643000Y-132003800D03*
%TO.P,D35,2,A*%
%TO.N,Net-(D35-Pad2)*%
X186943000Y-132003800D03*
%TD*%
%TO.P,D21,1,K*%
%TO.N,/Row3*%
X147950000Y-116001800D03*
%TO.P,D21,2,A*%
%TO.N,Net-(D21-Pad2)*%
X151250000Y-116001800D03*
%TD*%
D12*
%TO.P,J2,1,1*%
%TO.N,unconnected-(J2-Pad1)*%
X81430000Y-112860000D03*
%TO.P,J2,2,2*%
%TO.N,unconnected-(J2-Pad2)*%
X81430000Y-112360000D03*
%TO.P,J2,3,3*%
%TO.N,/Row5*%
X81430000Y-111860000D03*
%TO.P,J2,4,4*%
%TO.N,/Row4*%
X81430000Y-111360000D03*
%TO.P,J2,5,5*%
%TO.N,/Row3*%
X81430000Y-110860000D03*
%TO.P,J2,6,6*%
%TO.N,/Col0*%
X81430000Y-110360000D03*
%TO.P,J2,7,7*%
%TO.N,/Col1*%
X81430000Y-109860000D03*
%TO.P,J2,8,8*%
%TO.N,/Col2*%
X81430000Y-109360000D03*
%TO.P,J2,9,9*%
%TO.N,/x_out*%
X81430000Y-108860000D03*
%TO.P,J2,10,10*%
%TO.N,/y_out*%
X81430000Y-108360000D03*
D13*
%TO.P,J2,S1,SHIELD*%
%TO.N,GND*%
X78780000Y-113650000D03*
%TO.P,J2,S2,SHIELD*%
X78780000Y-107570000D03*
%TD*%
D11*
%TO.P,D31,1,K*%
%TO.N,/Row5*%
X171750000Y-132003800D03*
%TO.P,D31,2,A*%
%TO.N,Net-(D31-Pad2)*%
X175050000Y-132003800D03*
%TD*%
%TO.P,D40,1,K*%
%TO.N,/Row6*%
X195550000Y-140004800D03*
%TO.P,D40,2,A*%
%TO.N,Net-(D40-Pad2)*%
X198850000Y-140004800D03*
%TD*%
%TO.P,D10,1,K*%
%TO.N,/Row4*%
X112243600Y-124002800D03*
%TO.P,D10,2,A*%
%TO.N,Net-(D10-Pad2)*%
X115543600Y-124002800D03*
%TD*%
%TO.P,D8,1,K*%
%TO.N,/Row6*%
X100350000Y-140004800D03*
%TO.P,D8,2,A*%
%TO.N,Net-(D8-Pad2)*%
X103650000Y-140004800D03*
%TD*%
%TO.P,D20,1,K*%
%TO.N,/Row6*%
X135941800Y-140004800D03*
%TO.P,D20,2,A*%
%TO.N,Net-(D20-Pad2)*%
X139241800Y-140004800D03*
%TD*%
%TO.P,D30,1,K*%
%TO.N,/Row4*%
X171750000Y-124002800D03*
%TO.P,D30,2,A*%
%TO.N,Net-(D30-Pad2)*%
X175050000Y-124002800D03*
%TD*%
%TO.P,D28,1,K*%
%TO.N,/Row6*%
X159843200Y-140004800D03*
%TO.P,D28,2,A*%
%TO.N,Net-(D28-Pad2)*%
X163143200Y-140004800D03*
%TD*%
%TO.P,D13,1,K*%
%TO.N,/Row3*%
X124150000Y-116001800D03*
%TO.P,D13,2,A*%
%TO.N,Net-(D13-Pad2)*%
X127450000Y-116001800D03*
%TD*%
%TO.P,D3,1,K*%
%TO.N,/Row5*%
X88450000Y-132003800D03*
%TO.P,D3,2,A*%
%TO.N,Net-(D3-Pad2)*%
X91750000Y-132003800D03*
%TD*%
%TO.P,D33,1,K*%
%TO.N,/Row3*%
X183643000Y-116001800D03*
%TO.P,D33,2,A*%
%TO.N,Net-(D33-Pad2)*%
X186943000Y-116001800D03*
%TD*%
%TO.P,D4,1,K*%
%TO.N,/Row6*%
X88443800Y-140004800D03*
%TO.P,D4,2,A*%
%TO.N,Net-(D4-Pad2)*%
X91743800Y-140004800D03*
%TD*%
D14*
%TO.P,REF\u002A\u002A,1*%
%TO.N,/Row0*%
X79300000Y-75050000D03*
%TD*%
D11*
%TO.P,D2,1,K*%
%TO.N,/Row4*%
X88450000Y-124002800D03*
%TO.P,D2,2,A*%
%TO.N,Net-(D2-Pad2)*%
X91750000Y-124002800D03*
%TD*%
D15*
%TO.P,U1,1,GPIO0*%
%TO.N,unconnected-(U1-Pad1)*%
X105300000Y-77990000D03*
%TO.P,U1,2,GPIO1*%
%TO.N,unconnected-(U1-Pad2)*%
X105300000Y-79990000D03*
%TO.P,U1,3,GPIO2*%
%TO.N,unconnected-(U1-Pad3)*%
X105300000Y-81990000D03*
%TO.P,U1,4,GPIO3*%
%TO.N,unconnected-(U1-Pad4)*%
X105300000Y-83990000D03*
%TO.P,U1,5,GPIO4*%
%TO.N,/Row7*%
X105300000Y-85990000D03*
%TO.P,U1,6,GPIO5*%
%TO.N,/Row2*%
X105300000Y-87990000D03*
%TO.P,U1,7,GPIO6*%
%TO.N,/Row1*%
X105300000Y-89990000D03*
%TO.P,U1,8,GPIO7*%
%TO.N,/Col15*%
X105300000Y-91990000D03*
%TO.P,U1,9,GPIO8*%
%TO.N,/Col14*%
X105300000Y-93990000D03*
%TO.P,U1,10,GPIO9*%
%TO.N,/Col13*%
X105300000Y-95990000D03*
D16*
%TO.P,U1,11,GPIO10*%
%TO.N,/Col12*%
X102650000Y-98640000D03*
%TO.P,U1,12,GPIO11*%
%TO.N,/Col11*%
X100650000Y-98640000D03*
%TO.P,U1,13,GPIO12*%
%TO.N,/Col10*%
X98650000Y-98640000D03*
%TO.P,U1,14,GPIO13*%
%TO.N,/Col9*%
X96650000Y-98640000D03*
%TO.P,U1,15,GPIO14*%
%TO.N,/Col8*%
X94650000Y-98640000D03*
%TO.P,U1,16,GPIO15*%
%TO.N,/Col7*%
X92650000Y-98640000D03*
%TO.P,U1,17,GPIO16*%
%TO.N,/Col6*%
X90650000Y-98640000D03*
%TO.P,U1,18,GPIO17*%
%TO.N,/Col5*%
X88650000Y-98640000D03*
%TO.P,U1,19,GPIO18*%
%TO.N,/Col4*%
X86650000Y-98640000D03*
%TO.P,U1,20,GPIO19*%
%TO.N,/Col3*%
X84650000Y-98640000D03*
D15*
%TO.P,U1,21,GPIO20*%
%TO.N,/Row3*%
X82000000Y-95990000D03*
%TO.P,U1,22,GPIO21*%
%TO.N,/Row4*%
X82000000Y-93990000D03*
%TO.P,U1,23,GPIO22*%
%TO.N,/Row5*%
X82000000Y-91990000D03*
%TO.P,U1,24,GPIO23*%
%TO.N,/Row6*%
X82000000Y-89990000D03*
%TO.P,U1,25,GPIO24*%
%TO.N,/Col0*%
X82000000Y-87990000D03*
%TO.P,U1,26,GPIO25*%
%TO.N,/Col1*%
X82000000Y-85990000D03*
%TO.P,U1,27,GPIO26*%
%TO.N,/Col2*%
X82000000Y-83990000D03*
%TO.P,U1,28,GPIO27*%
%TO.N,/y_out*%
X82000000Y-81990000D03*
%TO.P,U1,29,GPIO28*%
%TO.N,/x_out*%
X82000000Y-79990000D03*
%TO.P,U1,30,GPIO29*%
%TO.N,/Row0*%
X82000000Y-77990000D03*
D16*
%TO.P,U1,31,GND*%
%TO.N,GND*%
X84650000Y-75340000D03*
%TO.P,U1,32,VBAT*%
%TO.N,unconnected-(U1-Pad32)*%
X86650000Y-75340000D03*
%TO.P,U1,33,5V*%
%TO.N,VBUS*%
X88650000Y-75340000D03*
%TO.P,U1,34,3.3V*%
%TO.N,+3V3*%
X90650000Y-75340000D03*
%TO.P,U1,35,USB_D-*%
%TO.N,/USB_D-*%
X92650000Y-75340000D03*
%TO.P,U1,36,USB_D+*%
%TO.N,/USB_D+*%
X94650000Y-75340000D03*
%TO.P,U1,37,SWDIO*%
%TO.N,unconnected-(U1-Pad37)*%
X96650000Y-75340000D03*
%TO.P,U1,38,SWCLK*%
%TO.N,unconnected-(U1-Pad38)*%
X98650000Y-75340000D03*
%TO.P,U1,39,~{RESET}*%
%TO.N,unconnected-(U1-Pad39)*%
X100650000Y-75340000D03*
%TO.P,U1,40,BOOTSEL*%
%TO.N,/USB_BOOT*%
X102650000Y-75340000D03*
%TD*%
D11*
%TO.P,D25,1,K*%
%TO.N,/Row3*%
X159850000Y-116001800D03*
%TO.P,D25,2,A*%
%TO.N,Net-(D25-Pad2)*%
X163150000Y-116001800D03*
%TD*%
%TO.P,D39,1,K*%
%TO.N,/Row5*%
X195550000Y-132003800D03*
%TO.P,D39,2,A*%
%TO.N,Net-(D39-Pad2)*%
X198850000Y-132003800D03*
%TD*%
%TO.P,D36,1,K*%
%TO.N,/Row6*%
X183650000Y-140004800D03*
%TO.P,D36,2,A*%
%TO.N,Net-(D36-Pad2)*%
X186950000Y-140004800D03*
%TD*%
D12*
%TO.P,J3,1,1*%
%TO.N,/Col15*%
X205900000Y-108360000D03*
%TO.P,J3,2,2*%
%TO.N,/Col14*%
X205900000Y-108860000D03*
%TO.P,J3,3,3*%
%TO.N,/Col13*%
X205900000Y-109360000D03*
%TO.P,J3,4,4*%
%TO.N,/Row1*%
X205900000Y-109860000D03*
%TO.P,J3,5,5*%
%TO.N,/Row2*%
X205900000Y-110360000D03*
%TO.P,J3,6,6*%
%TO.N,/Row3*%
X205900000Y-110860000D03*
%TO.P,J3,7,7*%
%TO.N,/Row4*%
X205900000Y-111360000D03*
%TO.P,J3,8,8*%
%TO.N,/Row5*%
X205900000Y-111860000D03*
%TO.P,J3,9,9*%
%TO.N,/Row6*%
X205900000Y-112360000D03*
%TO.P,J3,10,10*%
%TO.N,/Row7*%
X205900000Y-112860000D03*
D13*
%TO.P,J3,S1,SHIELD*%
%TO.N,GND*%
X208550000Y-107570000D03*
%TO.P,J3,S2,SHIELD*%
X208550000Y-113650000D03*
%TD*%
D11*
%TO.P,D37,1,K*%
%TO.N,/Row3*%
X195550000Y-116001800D03*
%TO.P,D37,2,A*%
%TO.N,Net-(D37-Pad2)*%
X198850000Y-116001800D03*
%TD*%
%TO.P,D19,1,K*%
%TO.N,/Row5*%
X136050000Y-132003800D03*
%TO.P,D19,2,A*%
%TO.N,Net-(D19-Pad2)*%
X139350000Y-132003800D03*
%TD*%
%TO.P,D6,1,K*%
%TO.N,/Row4*%
X100350000Y-124002800D03*
%TO.P,D6,2,A*%
%TO.N,Net-(D6-Pad2)*%
X103650000Y-124002800D03*
%TD*%
%TO.P,D27,1,K*%
%TO.N,/Row5*%
X159850000Y-132003800D03*
%TO.P,D27,2,A*%
%TO.N,Net-(D27-Pad2)*%
X163150000Y-132003800D03*
%TD*%
%TO.P,D17,1,K*%
%TO.N,/Row3*%
X136043400Y-116001800D03*
%TO.P,D17,2,A*%
%TO.N,Net-(D17-Pad2)*%
X139343400Y-116001800D03*
%TD*%
D14*
%TO.P,REF\u002A\u002A,1*%
%TO.N,GND*%
X79300000Y-72040000D03*
D17*
%TO.P,REF\u002A\u002A,2*%
%TO.N,+3V3*%
X79300000Y-70040000D03*
%TD*%
D11*
%TO.P,D15,1,K*%
%TO.N,/Row5*%
X124150000Y-132003800D03*
%TO.P,D15,2,A*%
%TO.N,Net-(D15-Pad2)*%
X127450000Y-132003800D03*
%TD*%
%TO.P,D23,1,K*%
%TO.N,/Row5*%
X147950000Y-132003800D03*
%TO.P,D23,2,A*%
%TO.N,Net-(D23-Pad2)*%
X151250000Y-132003800D03*
%TD*%
%TO.P,D5,1,K*%
%TO.N,/Row3*%
X100331000Y-116001800D03*
%TO.P,D5,2,A*%
%TO.N,Net-(D5-Pad2)*%
X103631000Y-116001800D03*
%TD*%
%TO.P,D32,1,K*%
%TO.N,/Row6*%
X171750000Y-140004800D03*
%TO.P,D32,2,A*%
%TO.N,Net-(D32-Pad2)*%
X175050000Y-140004800D03*
%TD*%
%TO.P,D11,1,K*%
%TO.N,/Row5*%
X112243600Y-132003800D03*
%TO.P,D11,2,A*%
%TO.N,Net-(D11-Pad2)*%
X115543600Y-132003800D03*
%TD*%
%TO.P,D24,1,K*%
%TO.N,/Row6*%
X147950000Y-140004800D03*
%TO.P,D24,2,A*%
%TO.N,Net-(D24-Pad2)*%
X151250000Y-140004800D03*
%TD*%
D18*
%TO.P,JP1,1,1*%
%TO.N,GND*%
X97430000Y-68340000D03*
D19*
%TO.P,JP1,2,2*%
%TO.N,/USB_D+*%
X94890000Y-68340000D03*
%TO.P,JP1,3,3*%
%TO.N,/USB_D-*%
X92350000Y-68340000D03*
%TO.P,JP1,4,4*%
%TO.N,+3V3*%
X89810000Y-68340000D03*
%TO.P,JP1,5,5*%
%TO.N,VBUS*%
X87270000Y-68340000D03*
%TD*%
D11*
%TO.P,D29,1,K*%
%TO.N,/Row3*%
X171750000Y-116001800D03*
%TO.P,D29,2,A*%
%TO.N,Net-(D29-Pad2)*%
X175050000Y-116001800D03*
%TD*%
%TO.P,D1,1,K*%
%TO.N,/Row3*%
X88367600Y-116001800D03*
%TO.P,D1,2,A*%
%TO.N,Net-(D1-Pad2)*%
X91667600Y-116001800D03*
%TD*%
%TO.P,D14,1,K*%
%TO.N,/Row4*%
X124150000Y-124002800D03*
%TO.P,D14,2,A*%
%TO.N,Net-(D14-Pad2)*%
X127450000Y-124002800D03*
%TD*%
%TO.P,D34,1,K*%
%TO.N,/Row4*%
X183643000Y-124002800D03*
%TO.P,D34,2,A*%
%TO.N,Net-(D34-Pad2)*%
X186943000Y-124002800D03*
%TD*%
%TO.P,D38,1,K*%
%TO.N,/Row4*%
X195550000Y-124002800D03*
%TO.P,D38,2,A*%
%TO.N,Net-(D38-Pad2)*%
X198850000Y-124002800D03*
%TD*%
%TO.P,D18,1,K*%
%TO.N,/Row4*%
X136050000Y-124002800D03*
%TO.P,D18,2,A*%
%TO.N,Net-(D18-Pad2)*%
X139350000Y-124002800D03*
%TD*%
%TO.P,D22,1,K*%
%TO.N,/Row4*%
X147950000Y-124002800D03*
%TO.P,D22,2,A*%
%TO.N,Net-(D22-Pad2)*%
X151250000Y-124002800D03*
%TD*%
%TO.P,D12,1,K*%
%TO.N,/Row6*%
X112243600Y-140004800D03*
%TO.P,D12,2,A*%
%TO.N,Net-(D12-Pad2)*%
X115543600Y-140004800D03*
%TD*%
%TO.P,D7,1,K*%
%TO.N,/Row5*%
X100350000Y-132003800D03*
%TO.P,D7,2,A*%
%TO.N,Net-(D7-Pad2)*%
X103650000Y-132003800D03*
%TD*%
%TO.P,D16,1,K*%
%TO.N,/Row6*%
X124150000Y-140004800D03*
%TO.P,D16,2,A*%
%TO.N,Net-(D16-Pad2)*%
X127450000Y-140004800D03*
%TD*%
%TO.P,D9,1,K*%
%TO.N,/Row3*%
X112243600Y-116001800D03*
%TO.P,D9,2,A*%
%TO.N,Net-(D9-Pad2)*%
X115543600Y-116001800D03*
%TD*%
D20*
%TO.N,/USB_BOOT*%
X103240000Y-72250000D03*
%TO.N,GND*%
X208550000Y-106660000D03*
X78780000Y-114560000D03*
X84650000Y-73080000D03*
X81290000Y-72030000D03*
X208550000Y-114560000D03*
X78780000Y-106660000D03*
X97430000Y-70380000D03*
%TO.N,/Row4*%
X83316940Y-123880000D03*
X86937200Y-124002800D03*
%TO.N,/Row5*%
X83315981Y-131880000D03*
X86940000Y-132000000D03*
%TO.N,/Row3*%
X86958200Y-116001800D03*
X83316940Y-115880000D03*
%TO.N,/y_out*%
X84250000Y-81990000D03*
X80750000Y-105830000D03*
%TO.N,/x_out*%
X81810000Y-105830000D03*
X84250000Y-79990000D03*
%TD*%
D21*
%TO.N,/USB_D-*%
X92650000Y-73325000D02*
X93145000Y-72830000D01*
X92350000Y-68340000D02*
X93145000Y-69135000D01*
X92650000Y-75340000D02*
X92650000Y-73325000D01*
X93145000Y-69135000D02*
X93145000Y-72830000D01*
%TO.N,/USB_D+*%
X94890000Y-68340000D02*
X94095000Y-69135000D01*
X94650000Y-75340000D02*
X94650000Y-73385000D01*
X94095000Y-69135000D02*
X94095000Y-72830000D01*
X94650000Y-73385000D02*
X94095000Y-72830000D01*
D22*
%TO.N,/USB_BOOT*%
X102650000Y-75340000D02*
X102650000Y-72840000D01*
X102650000Y-72840000D02*
X103240000Y-72250000D01*
D23*
%TO.N,GND*%
X78780000Y-106840000D02*
X78780000Y-106660000D01*
X208550000Y-107570000D02*
X208550000Y-106840000D01*
D22*
X81280000Y-72040000D02*
X81290000Y-72030000D01*
X79300000Y-72040000D02*
X81280000Y-72040000D01*
X84650000Y-75340000D02*
X84650000Y-73080000D01*
D23*
X78780000Y-107570000D02*
X78780000Y-106840000D01*
X78780000Y-113650000D02*
X78780000Y-114380000D01*
X208550000Y-113650000D02*
X208550000Y-114380000D01*
D22*
X97430000Y-68340000D02*
X97430000Y-70380000D01*
D24*
%TO.N,/Row4*%
X112293400Y-124002800D02*
X105434400Y-124002800D01*
X148131800Y-125323600D02*
X147928600Y-125120400D01*
X183692800Y-124002800D02*
X176833800Y-124002800D01*
X195600000Y-122038200D02*
X196640000Y-120998200D01*
X100407200Y-124002800D02*
X93548200Y-124002800D01*
X84690480Y-103964776D02*
X84690480Y-123300480D01*
X80070000Y-99344296D02*
X84690480Y-103964776D01*
X203268500Y-120998200D02*
X203999520Y-120267180D01*
X164946600Y-124002800D02*
X163625800Y-125323600D01*
X88443800Y-125119400D02*
X88443800Y-124002800D01*
X203999519Y-111860481D02*
X204500000Y-111360000D01*
X82430000Y-116250000D02*
X82430000Y-115530000D01*
X171729400Y-125119400D02*
X171729400Y-124002800D01*
X93548200Y-124002800D02*
X92227400Y-125323600D01*
X84820000Y-123430000D02*
X85392800Y-124002800D01*
X88646000Y-125323600D02*
X88442800Y-125120400D01*
X100532200Y-125323600D02*
X100329000Y-125120400D01*
X151713200Y-125323600D02*
X148131800Y-125323600D01*
X153034000Y-124002800D02*
X151713200Y-125323600D01*
X84690480Y-123300480D02*
X84820000Y-123430000D01*
X204500000Y-111360000D02*
X205900000Y-111360000D01*
X171931600Y-125323600D02*
X171728400Y-125120400D01*
X83316940Y-123880000D02*
X83316940Y-123383060D01*
X195600000Y-124000000D02*
X195600000Y-122038200D01*
X136118600Y-124003300D02*
X129259600Y-124003300D01*
X92227400Y-125323600D02*
X88646000Y-125323600D01*
X117347500Y-124002800D02*
X116026700Y-125323600D01*
X188746400Y-124002800D02*
X187425600Y-125323600D01*
X83316940Y-123383060D02*
X83641920Y-123058080D01*
X159842200Y-125119400D02*
X159842200Y-124002800D01*
X112445300Y-125323600D02*
X112242100Y-125120400D01*
X139826000Y-125323600D02*
X136244600Y-125323600D01*
X124206500Y-124002800D02*
X117347500Y-124002800D01*
X104113600Y-125323600D02*
X100532200Y-125323600D01*
X105434400Y-124002800D02*
X104113600Y-125323600D01*
X124357400Y-125324100D02*
X124154200Y-125120900D01*
X171805600Y-124002800D02*
X164946600Y-124002800D01*
X127938800Y-125324100D02*
X124357400Y-125324100D01*
X83641920Y-123058080D02*
X83641920Y-117461920D01*
X160044400Y-125323600D02*
X159841200Y-125120400D01*
X187425600Y-125323600D02*
X183844200Y-125323600D01*
X163625800Y-125323600D02*
X160044400Y-125323600D01*
X183642000Y-125119400D02*
X183642000Y-124002800D01*
X88450000Y-124002800D02*
X86937200Y-124002800D01*
X124155200Y-125119900D02*
X124155200Y-124003300D01*
X116026700Y-125323600D02*
X112445300Y-125323600D01*
X203999520Y-120267180D02*
X203999519Y-111860481D01*
X183844200Y-125323600D02*
X183641000Y-125120400D01*
X176833800Y-124002800D02*
X175513000Y-125323600D01*
X84689100Y-123299100D02*
X84820000Y-123430000D01*
X82430000Y-115530000D02*
X83292400Y-114667600D01*
X147929600Y-125119400D02*
X147929600Y-124002800D01*
X83120000Y-111360000D02*
X81430000Y-111360000D01*
X100330000Y-125119400D02*
X100330000Y-124002800D01*
X195605400Y-124002800D02*
X188746400Y-124002800D01*
X159893000Y-124002800D02*
X153034000Y-124002800D01*
X148005800Y-124002800D02*
X141146800Y-124002800D01*
X175513000Y-125323600D02*
X171931600Y-125323600D01*
X112243100Y-125119400D02*
X112243100Y-124002800D01*
X80450000Y-93990000D02*
X80070000Y-94370000D01*
X80070000Y-94370000D02*
X80070000Y-99344296D01*
X83641920Y-117461920D02*
X82430000Y-116250000D01*
X136244600Y-125323600D02*
X136041400Y-125120400D01*
X136042400Y-125119400D02*
X136042400Y-124002800D01*
X129259600Y-124003300D02*
X127938800Y-125324100D01*
X85392800Y-124002800D02*
X86937200Y-124002800D01*
X196640000Y-120998200D02*
X203268500Y-120998200D01*
X83292400Y-114667600D02*
X83292400Y-111532400D01*
X83292400Y-111532400D02*
X83120000Y-111360000D01*
X141146800Y-124002800D02*
X139826000Y-125323600D01*
X82000000Y-93990000D02*
X80450000Y-93990000D01*
%TO.N,/Row5*%
X82000000Y-91990000D02*
X80440000Y-91990000D01*
X82430000Y-124250000D02*
X82430000Y-123500000D01*
X196670000Y-128998200D02*
X203298500Y-128998200D01*
X92226400Y-133324600D02*
X88645000Y-133324600D01*
X195630000Y-132000000D02*
X195630000Y-130038200D01*
X153059900Y-132003800D02*
X151739100Y-133324600D01*
X112444800Y-133324600D02*
X112241600Y-133121400D01*
X136042400Y-133120400D02*
X136042400Y-132003800D01*
X183844200Y-133324600D02*
X183641000Y-133121400D01*
X112293400Y-132003800D02*
X105434400Y-132003800D01*
X127913400Y-133324600D02*
X124332000Y-133324600D01*
X84340000Y-131130000D02*
X84340960Y-131129040D01*
X164946600Y-132003800D02*
X163625800Y-133324600D01*
X83640961Y-130880959D02*
X83641920Y-130880000D01*
X105434400Y-132003800D02*
X104113600Y-133324600D01*
X79720001Y-92709999D02*
X79720000Y-93040000D01*
X100532200Y-133324600D02*
X100329000Y-133121400D01*
X195630000Y-130038200D02*
X196670000Y-128998200D01*
X79720480Y-93040480D02*
X79720000Y-93040000D01*
X88450000Y-132003800D02*
X85033800Y-132003800D01*
X83640961Y-131059039D02*
X83640961Y-130880959D01*
X147955500Y-133120400D02*
X147955500Y-132003800D01*
X148157700Y-133324600D02*
X147954500Y-133121400D01*
X83292400Y-117606696D02*
X82080481Y-116394777D01*
X82430000Y-123500000D02*
X83292400Y-122637600D01*
X82080481Y-116394777D02*
X82080480Y-115385225D01*
X183642000Y-133120400D02*
X183642000Y-132003800D01*
X204349040Y-127947660D02*
X204349039Y-112230961D01*
X104113600Y-133324600D02*
X100532200Y-133324600D01*
X203298500Y-128998200D02*
X204349040Y-127947660D01*
X171729400Y-133120400D02*
X171729400Y-132003800D01*
X116026200Y-133324600D02*
X112444800Y-133324600D01*
X141146800Y-132003800D02*
X139826000Y-133324600D01*
X124129800Y-133120400D02*
X124129800Y-132003800D01*
X171805600Y-132003800D02*
X164946600Y-132003800D01*
X83315981Y-131384019D02*
X83640961Y-131059039D01*
X83315981Y-131880000D02*
X83315981Y-131384019D01*
X83641920Y-125461920D02*
X82430000Y-124250000D01*
X82942880Y-112112880D02*
X82690000Y-111860000D01*
X82080480Y-115385225D02*
X82942880Y-114522824D01*
X84340000Y-131310000D02*
X84340000Y-131130000D01*
X176833800Y-132003800D02*
X175513000Y-133324600D01*
X183692800Y-132003800D02*
X176833800Y-132003800D01*
X136093200Y-132003800D02*
X129234200Y-132003800D01*
X85033800Y-132003800D02*
X84340000Y-131310000D01*
X187425600Y-133324600D02*
X183844200Y-133324600D01*
X124332000Y-133324600D02*
X124128800Y-133121400D01*
X195605400Y-132003800D02*
X188746400Y-132003800D01*
X112242600Y-133120400D02*
X112242600Y-132003800D01*
X129234200Y-132003800D02*
X127913400Y-133324600D01*
X188746400Y-132003800D02*
X187425600Y-133324600D01*
X204720000Y-111860000D02*
X205900000Y-111860000D01*
X160044400Y-133324600D02*
X159841200Y-133121400D01*
X151739100Y-133324600D02*
X148157700Y-133324600D01*
X139826000Y-133324600D02*
X136244600Y-133324600D01*
X159918900Y-132003800D02*
X153059900Y-132003800D01*
X163625800Y-133324600D02*
X160044400Y-133324600D01*
X83641920Y-130880000D02*
X83641920Y-125461920D01*
X175513000Y-133324600D02*
X171931600Y-133324600D01*
X84340960Y-104109552D02*
X79720480Y-99489071D01*
X93547200Y-132003800D02*
X92226400Y-133324600D01*
X88442800Y-133120400D02*
X88442800Y-132003800D01*
X79720480Y-99489071D02*
X79720480Y-93040480D01*
X117347000Y-132003800D02*
X116026200Y-133324600D01*
X82690000Y-111860000D02*
X81430000Y-111860000D01*
X204349039Y-112230961D02*
X204720000Y-111860000D01*
X83292400Y-122637600D02*
X83292400Y-117606696D01*
X88645000Y-133324600D02*
X88441800Y-133121400D01*
X124206000Y-132003800D02*
X117347000Y-132003800D01*
X84340960Y-131129040D02*
X84340960Y-104109552D01*
X159842200Y-133120400D02*
X159842200Y-132003800D01*
X80440000Y-91990000D02*
X79720001Y-92709999D01*
X136244600Y-133324600D02*
X136041400Y-133121400D01*
X100330000Y-133120400D02*
X100330000Y-132003800D01*
X148005800Y-132003800D02*
X141146800Y-132003800D01*
X171931600Y-133324600D02*
X171728400Y-133121400D01*
X100406200Y-132003800D02*
X93547200Y-132003800D01*
X82942880Y-114522824D02*
X82942880Y-112112880D01*
%TO.N,/Col10*%
X174780480Y-105840480D02*
X177210000Y-108270000D01*
X108956113Y-105840478D02*
X174780480Y-105840480D01*
X99479040Y-101659040D02*
X104774674Y-101659040D01*
X106984674Y-103869040D02*
X106984677Y-103869040D01*
X104774674Y-101659040D02*
X106984674Y-103869040D01*
X177210000Y-108270000D02*
X177210000Y-109460000D01*
X98650000Y-98640000D02*
X98650000Y-100830000D01*
X106984677Y-103869040D02*
X108956113Y-105840478D01*
X98650000Y-100830000D02*
X99479040Y-101659040D01*
%TO.N,/Col11*%
X107129449Y-103519519D02*
X107129453Y-103519520D01*
X189110000Y-108280000D02*
X189110000Y-109460000D01*
X100650000Y-100850000D02*
X101109520Y-101309520D01*
X107129453Y-103519520D02*
X109100891Y-105490959D01*
X186320960Y-105490960D02*
X189110000Y-108280000D01*
X101109520Y-101309520D02*
X104919450Y-101309520D01*
X104919450Y-101309520D02*
X107129449Y-103519519D01*
X109100891Y-105490959D02*
X186320960Y-105490960D01*
X100650000Y-98640000D02*
X100650000Y-100850000D01*
%TO.N,/Col12*%
X105064226Y-100960000D02*
X109245668Y-105141440D01*
X109245668Y-105141440D02*
X197871440Y-105141440D01*
X102650000Y-100700000D02*
X102910000Y-100960000D01*
X197871440Y-105141440D02*
X201010000Y-108280000D01*
X102650000Y-98640000D02*
X102650000Y-100700000D01*
X102910000Y-100960000D02*
X105064226Y-100960000D01*
X201010000Y-108280000D02*
X201010000Y-109460000D01*
D25*
%TO.N,VBUS*%
X88650000Y-72540000D02*
X87270000Y-71160000D01*
X87270000Y-71160000D02*
X87270000Y-68340000D01*
X88650000Y-75340000D02*
X88650000Y-72540000D01*
D24*
%TO.N,Net-(D6-Pad2)*%
X105899800Y-122541000D02*
X103926400Y-122541000D01*
X103657400Y-122810000D02*
X103657400Y-124002800D01*
X103926400Y-122541000D02*
X103657400Y-122810000D01*
%TO.N,/Row3*%
X203340000Y-113000000D02*
X196590000Y-113000000D01*
X124155200Y-117118400D02*
X124155200Y-116001800D01*
X83316940Y-115880000D02*
X83316940Y-115363060D01*
X159918400Y-116001800D02*
X153059400Y-116001800D01*
X112444800Y-117322600D02*
X112241600Y-117119400D01*
X160044400Y-117322600D02*
X159841200Y-117119400D01*
X81430000Y-110860000D02*
X82640000Y-110860000D01*
X171754800Y-117118400D02*
X171754800Y-116001800D01*
X85040000Y-103820000D02*
X81990000Y-100770000D01*
X85741800Y-116001800D02*
X85040000Y-115300000D01*
X136042400Y-117118400D02*
X136042400Y-116001800D01*
X104088200Y-117322600D02*
X100506800Y-117322600D01*
X183718200Y-116001800D02*
X176859200Y-116001800D01*
X163625800Y-117322600D02*
X160044400Y-117322600D01*
X124206000Y-116001800D02*
X117347000Y-116001800D01*
X147955000Y-117118400D02*
X147955000Y-116001800D01*
X81990000Y-99960000D02*
X82000000Y-99950000D01*
X127938800Y-117322600D02*
X124357400Y-117322600D01*
X183844700Y-117322600D02*
X183641500Y-117119400D01*
X100506800Y-117322600D02*
X100303600Y-117119400D01*
X195605900Y-116001800D02*
X188746900Y-116001800D01*
X205900000Y-110860000D02*
X204150000Y-110860000D01*
X112242600Y-117118400D02*
X112242600Y-116001800D01*
X136244600Y-117322600D02*
X136041400Y-117119400D01*
X159842200Y-117118400D02*
X159842200Y-116001800D01*
X188746900Y-116001800D02*
X187426100Y-117322600D01*
X88569800Y-117322600D02*
X88366600Y-117119400D01*
X112268000Y-116001800D02*
X105409000Y-116001800D01*
X164946600Y-116001800D02*
X163625800Y-117322600D01*
X171805600Y-116001800D02*
X164946600Y-116001800D01*
X105409000Y-116001800D02*
X104088200Y-117322600D01*
X83641920Y-115038080D02*
X83641920Y-111111920D01*
X183642500Y-117118400D02*
X183642500Y-116001800D01*
X203649999Y-112690001D02*
X203340000Y-113000000D01*
X81990000Y-100770000D02*
X81990000Y-99960000D01*
X83390000Y-110860000D02*
X82640000Y-110860000D01*
X176859200Y-116001800D02*
X175538400Y-117322600D01*
X93472000Y-116001800D02*
X92151200Y-117322600D01*
X83316940Y-115363060D02*
X83641920Y-115038080D01*
X136118600Y-116001800D02*
X129259600Y-116001800D01*
X85040000Y-115300000D02*
X85040000Y-103820000D01*
X82640000Y-110860000D02*
X82710000Y-110860000D01*
X83641920Y-111111920D02*
X83390000Y-110860000D01*
X204150000Y-110860000D02*
X203650000Y-111360000D01*
X92151200Y-117322600D02*
X88569800Y-117322600D01*
X124357400Y-117322600D02*
X124154200Y-117119400D01*
X196590000Y-113000000D02*
X195550000Y-114040000D01*
X100304600Y-117118400D02*
X100304600Y-116001800D01*
X82000000Y-99950000D02*
X82000000Y-95990000D01*
X171957000Y-117322600D02*
X171753800Y-117119400D01*
X139826000Y-117322600D02*
X136244600Y-117322600D01*
X100331000Y-116001800D02*
X93472000Y-116001800D01*
X88367600Y-116001800D02*
X85741800Y-116001800D01*
X117347000Y-116001800D02*
X116026200Y-117322600D01*
X175538400Y-117322600D02*
X171957000Y-117322600D01*
X148157200Y-117322600D02*
X147954000Y-117119400D01*
X153059400Y-116001800D02*
X151738600Y-117322600D01*
X141146800Y-116001800D02*
X139826000Y-117322600D01*
X187426100Y-117322600D02*
X183844700Y-117322600D01*
X116026200Y-117322600D02*
X112444800Y-117322600D01*
X129259600Y-116001800D02*
X127938800Y-117322600D01*
X151738600Y-117322600D02*
X148157200Y-117322600D01*
X195550000Y-114040000D02*
X195550000Y-116001800D01*
X88367600Y-117118400D02*
X88367600Y-116001800D01*
X203650000Y-111360000D02*
X203649999Y-112690001D01*
X148005800Y-116001800D02*
X141146800Y-116001800D01*
%TO.N,Net-(D5-Pad2)*%
X105874400Y-114540000D02*
X103901000Y-114540000D01*
X103632000Y-114809000D02*
X103632000Y-116001800D01*
X103901000Y-114540000D02*
X103632000Y-114809000D01*
%TO.N,Net-(D4-Pad2)*%
X91744800Y-138812000D02*
X91744800Y-140004800D01*
X93987200Y-138543000D02*
X92013800Y-138543000D01*
X92013800Y-138543000D02*
X91744800Y-138812000D01*
%TO.N,Net-(D2-Pad2)*%
X92013800Y-122541000D02*
X91744800Y-122810000D01*
X93987200Y-122541000D02*
X92013800Y-122541000D01*
X91744800Y-122810000D02*
X91744800Y-124002800D01*
%TO.N,Net-(D1-Pad2)*%
X91667600Y-114809000D02*
X91667600Y-116001800D01*
X93910000Y-114540000D02*
X91936600Y-114540000D01*
X91936600Y-114540000D02*
X91667600Y-114809000D01*
%TO.N,Net-(D3-Pad2)*%
X93987200Y-130542000D02*
X92013800Y-130542000D01*
X92013800Y-130542000D02*
X91744800Y-130811000D01*
X91744800Y-130811000D02*
X91744800Y-132003800D01*
%TO.N,/Col3*%
X93910000Y-104880000D02*
X93910000Y-109460000D01*
X84650000Y-101050000D02*
X87705680Y-104105680D01*
X87705680Y-104105680D02*
X93135680Y-104105680D01*
X93135680Y-104105680D02*
X93910000Y-104880000D01*
X84650000Y-98640000D02*
X84650000Y-101050000D01*
%TO.N,Net-(D18-Pad2)*%
X141586800Y-122541000D02*
X139613400Y-122541000D01*
X139613400Y-122541000D02*
X139344400Y-122810000D01*
X139344400Y-122810000D02*
X139344400Y-124002800D01*
%TO.N,/Col4*%
X89386160Y-103756160D02*
X103906018Y-103756160D01*
X86650000Y-101020000D02*
X89386160Y-103756160D01*
X86650000Y-98640000D02*
X86650000Y-101020000D01*
X103906018Y-103756160D02*
X105810000Y-105660142D01*
X105810000Y-105660142D02*
X105810000Y-109460000D01*
%TO.N,Net-(D10-Pad2)*%
X115813600Y-122541000D02*
X115544600Y-122810000D01*
X117787000Y-122541000D02*
X115813600Y-122541000D01*
X115544600Y-122810000D02*
X115544600Y-124002800D01*
%TO.N,Net-(D11-Pad2)*%
X115555000Y-130811000D02*
X115555000Y-132003800D01*
X117797400Y-130542000D02*
X115824000Y-130542000D01*
X115824000Y-130542000D02*
X115555000Y-130811000D01*
%TO.N,Net-(D13-Pad2)*%
X127726200Y-114540000D02*
X127457200Y-114809000D01*
X129699600Y-114540000D02*
X127726200Y-114540000D01*
X127457200Y-114809000D02*
X127457200Y-116001800D01*
%TO.N,Net-(D14-Pad2)*%
X129699600Y-122541000D02*
X127726200Y-122541000D01*
X127726200Y-122541000D02*
X127457200Y-122810000D01*
X127457200Y-122810000D02*
X127457200Y-124002800D01*
%TO.N,Net-(D15-Pad2)*%
X127700800Y-130542000D02*
X127431800Y-130811000D01*
X127431800Y-130811000D02*
X127431800Y-132003800D01*
X129674200Y-130542000D02*
X127700800Y-130542000D01*
%TO.N,Net-(D16-Pad2)*%
X127700800Y-138543000D02*
X127431800Y-138812000D01*
X127431800Y-138812000D02*
X127431800Y-140004800D01*
X129674200Y-138543000D02*
X127700800Y-138543000D01*
%TO.N,Net-(D17-Pad2)*%
X141586800Y-114540000D02*
X139613400Y-114540000D01*
X139613400Y-114540000D02*
X139344400Y-114809000D01*
X139344400Y-114809000D02*
X139344400Y-116001800D01*
%TO.N,Net-(D12-Pad2)*%
X115544600Y-138812000D02*
X115544600Y-140004800D01*
X115813600Y-138543000D02*
X115544600Y-138812000D01*
X117787000Y-138543000D02*
X115813600Y-138543000D01*
%TO.N,Net-(D19-Pad2)*%
X139344400Y-130811000D02*
X139344400Y-132003800D01*
X139613400Y-130542000D02*
X139344400Y-130811000D01*
X141586800Y-130542000D02*
X139613400Y-130542000D01*
%TO.N,Net-(D20-Pad2)*%
X139242800Y-138812000D02*
X139242800Y-140004800D01*
X141485200Y-138543000D02*
X139511800Y-138543000D01*
X139511800Y-138543000D02*
X139242800Y-138812000D01*
%TO.N,Net-(D21-Pad2)*%
X151257000Y-114809000D02*
X151257000Y-116001800D01*
X151526000Y-114540000D02*
X151257000Y-114809000D01*
X153499400Y-114540000D02*
X151526000Y-114540000D01*
%TO.N,/Col5*%
X116418080Y-107588080D02*
X116998080Y-107588080D01*
X88650000Y-100960000D02*
X88650000Y-98640000D01*
X91096640Y-103406640D02*
X88650000Y-100960000D01*
X116998080Y-107588080D02*
X117710000Y-108300000D01*
X116418080Y-107588080D02*
X112140000Y-107588080D01*
X104050794Y-103406640D02*
X91096640Y-103406640D01*
X108232231Y-107588076D02*
X107402077Y-106757923D01*
X112140000Y-107588080D02*
X112139997Y-107588077D01*
X117710000Y-108300000D02*
X117710000Y-109460000D01*
X112139997Y-107588077D02*
X108232231Y-107588076D01*
X107402077Y-106757923D02*
X104050794Y-103406640D01*
%TO.N,Net-(D22-Pad2)*%
X153499400Y-122541000D02*
X151526000Y-122541000D01*
X151257000Y-122810000D02*
X151257000Y-124002800D01*
X151526000Y-122541000D02*
X151257000Y-122810000D01*
%TO.N,Net-(D23-Pad2)*%
X151257000Y-130811000D02*
X151257000Y-132003800D01*
X153499400Y-130542000D02*
X151526000Y-130542000D01*
X151526000Y-130542000D02*
X151257000Y-130811000D01*
%TO.N,Net-(D24-Pad2)*%
X151257000Y-138812000D02*
X151257000Y-140004800D01*
X153499400Y-138543000D02*
X151526000Y-138543000D01*
X151526000Y-138543000D02*
X151257000Y-138812000D01*
%TO.N,Net-(D25-Pad2)*%
X165386600Y-114540000D02*
X163413200Y-114540000D01*
X163413200Y-114540000D02*
X163144200Y-114809000D01*
X163144200Y-114809000D02*
X163144200Y-116001800D01*
%TO.N,/Col6*%
X112010000Y-107238560D02*
X112009998Y-107238558D01*
X128598560Y-107238560D02*
X112010000Y-107238560D01*
X90650000Y-100920000D02*
X90650000Y-98640000D01*
X108377008Y-107238557D02*
X104195570Y-103057120D01*
X104195570Y-103057120D02*
X92767120Y-103057120D01*
X90640000Y-100930000D02*
X90650000Y-100920000D01*
X128598560Y-107238560D02*
X129620000Y-108260000D01*
X112009998Y-107238558D02*
X108377008Y-107238557D01*
X129620000Y-108260000D02*
X129620000Y-109450000D01*
X92767120Y-103057120D02*
X90640000Y-100930000D01*
X129620000Y-109450000D02*
X129610000Y-109460000D01*
%TO.N,Net-(D26-Pad2)*%
X163413200Y-122541000D02*
X163144200Y-122810000D01*
X163144200Y-122810000D02*
X163144200Y-124002800D01*
X165386600Y-122541000D02*
X163413200Y-122541000D01*
%TO.N,Net-(D27-Pad2)*%
X163413200Y-130542000D02*
X163144200Y-130811000D01*
X163144200Y-130811000D02*
X163144200Y-132003800D01*
X165386600Y-130542000D02*
X163413200Y-130542000D01*
%TO.N,Net-(D28-Pad2)*%
X163144200Y-138812000D02*
X163144200Y-140004800D01*
X165386600Y-138543000D02*
X163413200Y-138543000D01*
X163413200Y-138543000D02*
X163144200Y-138812000D01*
%TO.N,Net-(D29-Pad2)*%
X175325800Y-114540000D02*
X175056800Y-114809000D01*
X177299200Y-114540000D02*
X175325800Y-114540000D01*
X175056800Y-114809000D02*
X175056800Y-116001800D01*
%TO.N,/Col7*%
X140199039Y-106889039D02*
X141510000Y-108200000D01*
X108317039Y-106684292D02*
X104340346Y-102707600D01*
X108317044Y-106684292D02*
X108317039Y-106684292D01*
X138999039Y-106889039D02*
X109290000Y-106889039D01*
X138999039Y-106889039D02*
X140199039Y-106889039D01*
X92650000Y-100940000D02*
X92650000Y-98640000D01*
X108521787Y-106889037D02*
X108317044Y-106684292D01*
X109290000Y-106889039D02*
X108521787Y-106889037D01*
X141510000Y-108200000D02*
X141510000Y-109460000D01*
X94417600Y-102707600D02*
X92650000Y-100940000D01*
X104340346Y-102707600D02*
X94417600Y-102707600D01*
%TO.N,Net-(D30-Pad2)*%
X175300400Y-122541000D02*
X175031400Y-122810000D01*
X175031400Y-122810000D02*
X175031400Y-124002800D01*
X177273800Y-122541000D02*
X175300400Y-122541000D01*
%TO.N,Net-(D32-Pad2)*%
X177299200Y-138543000D02*
X175325800Y-138543000D01*
X175325800Y-138543000D02*
X175056800Y-138812000D01*
X175056800Y-138812000D02*
X175056800Y-140004800D01*
%TO.N,Net-(D33-Pad2)*%
X187213000Y-114540000D02*
X186944000Y-114809000D01*
X186944000Y-114809000D02*
X186944000Y-116001800D01*
X189186400Y-114540000D02*
X187213000Y-114540000D01*
%TO.N,/Col8*%
X151109520Y-106539520D02*
X151669520Y-106539520D01*
X107018523Y-104891477D02*
X107018520Y-104891477D01*
X104485122Y-102358080D02*
X96148080Y-102358080D01*
X151669520Y-106539520D02*
X153410000Y-108280000D01*
X96148080Y-102358080D02*
X94650000Y-100860000D01*
X153410000Y-108280000D02*
X153410000Y-109460000D01*
X108666564Y-106539518D02*
X107018523Y-104891477D01*
X107018520Y-104891477D02*
X104485122Y-102358080D01*
X151109520Y-106539520D02*
X108970000Y-106539519D01*
X94650000Y-100860000D02*
X94650000Y-98640000D01*
X108970000Y-106539519D02*
X108666564Y-106539518D01*
%TO.N,Net-(D34-Pad2)*%
X186944000Y-122810000D02*
X186944000Y-124002800D01*
X187213000Y-122541000D02*
X186944000Y-122810000D01*
X189186400Y-122541000D02*
X187213000Y-122541000D01*
%TO.N,Net-(D35-Pad2)*%
X189186400Y-130542000D02*
X187213000Y-130542000D01*
X186944000Y-130811000D02*
X186944000Y-132003800D01*
X187213000Y-130542000D02*
X186944000Y-130811000D01*
%TO.N,Net-(D36-Pad2)*%
X187213000Y-138543000D02*
X186944000Y-138812000D01*
X189186400Y-138543000D02*
X187213000Y-138543000D01*
X186944000Y-138812000D02*
X186944000Y-140004800D01*
%TO.N,Net-(D37-Pad2)*%
X201073600Y-114540000D02*
X199100200Y-114540000D01*
X198831200Y-114809000D02*
X198831200Y-116001800D01*
X199100200Y-114540000D02*
X198831200Y-114809000D01*
%TO.N,/Col9*%
X96650000Y-100880000D02*
X96650000Y-98640000D01*
X162810000Y-106190000D02*
X108811341Y-106189999D01*
X104629898Y-102008560D02*
X97778560Y-102008560D01*
X163200000Y-106190000D02*
X165310000Y-108300000D01*
X108811341Y-106189999D02*
X106839902Y-104218560D01*
X106839902Y-104218560D02*
X106839899Y-104218560D01*
X97778560Y-102008560D02*
X96650000Y-100880000D01*
X162810000Y-106190000D02*
X163200000Y-106190000D01*
X106839899Y-104218560D02*
X104629898Y-102008560D01*
X165310000Y-108300000D02*
X165310000Y-109460000D01*
%TO.N,Net-(D38-Pad2)*%
X201073600Y-122541000D02*
X199100200Y-122541000D01*
X199100200Y-122541000D02*
X198831200Y-122810000D01*
X198831200Y-122810000D02*
X198831200Y-124002800D01*
%TO.N,Net-(D39-Pad2)*%
X201099000Y-130542000D02*
X199125600Y-130542000D01*
X199125600Y-130542000D02*
X198856600Y-130811000D01*
X198856600Y-130811000D02*
X198856600Y-132003800D01*
%TO.N,Net-(D40-Pad2)*%
X199125600Y-138543000D02*
X198856600Y-138812000D01*
X198856600Y-138812000D02*
X198856600Y-140004800D01*
X201099000Y-138543000D02*
X199125600Y-138543000D01*
%TO.N,Net-(D9-Pad2)*%
X117787000Y-114540000D02*
X115813600Y-114540000D01*
X115813600Y-114540000D02*
X115544600Y-114809000D01*
X115544600Y-114809000D02*
X115544600Y-116001800D01*
%TO.N,Net-(D8-Pad2)*%
X103926400Y-138543000D02*
X103657400Y-138812000D01*
X103657400Y-138812000D02*
X103657400Y-140004800D01*
X105899800Y-138543000D02*
X103926400Y-138543000D01*
%TO.N,Net-(D7-Pad2)*%
X105899800Y-130542000D02*
X103926400Y-130542000D01*
X103657400Y-130811000D02*
X103657400Y-132003800D01*
X103926400Y-130542000D02*
X103657400Y-130811000D01*
%TO.N,Net-(D31-Pad2)*%
X175300400Y-130542000D02*
X175031400Y-130811000D01*
X175031400Y-130811000D02*
X175031400Y-132003800D01*
X177273800Y-130542000D02*
X175300400Y-130542000D01*
%TO.N,/Row7*%
X207554040Y-107780451D02*
X207554039Y-108680000D01*
X163695680Y-103044320D02*
X110114320Y-103044320D01*
X163695680Y-103044320D02*
X199535799Y-103044321D01*
X207120000Y-112860000D02*
X205900000Y-112860000D01*
X109280000Y-88420000D02*
X106850000Y-85990000D01*
X110114320Y-103044320D02*
X109280000Y-102210000D01*
X206584550Y-106810960D02*
X207054295Y-107280704D01*
X109280000Y-102210000D02*
X109280000Y-88420000D01*
X207554039Y-108680000D02*
X207554039Y-112425961D01*
X106850000Y-85990000D02*
X105300000Y-85990000D01*
X207554039Y-112425961D02*
X207120000Y-112860000D01*
X163553360Y-103044320D02*
X163695680Y-103044320D01*
X199535799Y-103044321D02*
X203302438Y-106810960D01*
X207054295Y-107280704D02*
X207554040Y-107780451D01*
X203302438Y-106810960D02*
X206584550Y-106810960D01*
%TO.N,/Row2*%
X199391022Y-103393840D02*
X109969545Y-103393840D01*
X206439775Y-107160480D02*
X203157662Y-107160480D01*
X205900000Y-110360000D02*
X206780000Y-110360000D01*
X207204519Y-109935481D02*
X207204520Y-107925225D01*
X206780000Y-110360000D02*
X207204519Y-109935481D01*
X207204520Y-107925225D02*
X206439775Y-107160480D01*
X109969545Y-103393840D02*
X108930480Y-102354775D01*
X203157662Y-107160480D02*
X199391022Y-103393840D01*
X108930480Y-90070480D02*
X106850000Y-87990000D01*
X106850000Y-87990000D02*
X105300000Y-87990000D01*
X108930480Y-102354775D02*
X108930480Y-90070480D01*
%TO.N,/Row1*%
X196500000Y-103743360D02*
X199246248Y-103743362D01*
X206295000Y-107510000D02*
X206855000Y-108070000D01*
X199246248Y-103743362D02*
X203012886Y-107510000D01*
X108580960Y-102499550D02*
X108580960Y-91720960D01*
X206680000Y-109860000D02*
X205900000Y-109860000D01*
X108600705Y-102519295D02*
X108580960Y-102499550D01*
X109880000Y-103743360D02*
X196500000Y-103743360D01*
X106850000Y-89990000D02*
X105300000Y-89990000D01*
X206855000Y-108070000D02*
X206855000Y-109685000D01*
X108580960Y-91720960D02*
X106850000Y-89990000D01*
X203012886Y-107510000D02*
X206295000Y-107510000D01*
X206855000Y-109685000D02*
X206680000Y-109860000D01*
X108600705Y-102519295D02*
X109824768Y-103743359D01*
X108580960Y-102499551D02*
X108600705Y-102519295D01*
X109824768Y-103743359D02*
X109880000Y-103743360D01*
%TO.N,/Col13*%
X107532402Y-102933880D02*
X109390443Y-104791920D01*
X106850000Y-95990000D02*
X107532402Y-96672402D01*
X109390443Y-104791920D02*
X198811920Y-104791920D01*
X107532402Y-96672402D02*
X107532402Y-102933880D01*
X198811920Y-104791920D02*
X203380000Y-109360000D01*
X105300000Y-95990000D02*
X106850000Y-95990000D01*
X203380000Y-109360000D02*
X205900000Y-109360000D01*
%TO.N,/Col14*%
X110907600Y-104442400D02*
X110770000Y-104442400D01*
X106850000Y-93990000D02*
X105300000Y-93990000D01*
X110907600Y-104442400D02*
X109535216Y-104442399D01*
X107881922Y-102499551D02*
X107881922Y-95021922D01*
X203374295Y-108860000D02*
X205900000Y-108860000D01*
X109330473Y-104237655D02*
X107881921Y-102789103D01*
X109535216Y-104442399D02*
X109330473Y-104237655D01*
X110907600Y-104442400D02*
X198956697Y-104442401D01*
X107881921Y-102789103D02*
X107881922Y-102499551D01*
X199161440Y-104647145D02*
X203374295Y-108860000D01*
X107881922Y-95021922D02*
X106850000Y-93990000D01*
X198956697Y-104442401D02*
X199161440Y-104647145D01*
%TO.N,/Col15*%
X203370000Y-108360000D02*
X202920000Y-107910000D01*
X202918590Y-107910000D02*
X199101471Y-104092881D01*
X108231442Y-102644326D02*
X108231441Y-93391441D01*
X109679993Y-104092880D02*
X108231441Y-102644328D01*
X108231441Y-93391441D02*
X106830000Y-91990000D01*
X106830000Y-91990000D02*
X105300000Y-91990000D01*
X199101471Y-104092881D02*
X109679993Y-104092880D01*
X108231441Y-102644328D02*
X108231442Y-102644326D01*
X202920000Y-107910000D02*
X202918590Y-107910000D01*
X205900000Y-108360000D02*
X203370000Y-108360000D01*
%TO.N,/Row6*%
X124155200Y-141121400D02*
X124155200Y-140004800D01*
X124357400Y-141325600D02*
X124154200Y-141122400D01*
X147904200Y-140004800D02*
X141045200Y-140004800D01*
X112419400Y-141325600D02*
X112216200Y-141122400D01*
X163600400Y-141325600D02*
X160019000Y-141325600D01*
X183844200Y-141325600D02*
X183641000Y-141122400D01*
X83991440Y-104254328D02*
X83803556Y-104066444D01*
X171780200Y-140004800D02*
X164921200Y-140004800D01*
X88645000Y-141325600D02*
X88441800Y-141122400D01*
X79370481Y-95829522D02*
X79370481Y-91079519D01*
X183718200Y-140004800D02*
X176859200Y-140004800D01*
X147930100Y-141121400D02*
X147930100Y-140004800D01*
X93547200Y-140004800D02*
X92226400Y-141325600D01*
X83558556Y-103821444D02*
X79370960Y-99633846D01*
X148132300Y-141325600D02*
X147929100Y-141122400D01*
X83991440Y-131040000D02*
X83990481Y-131040959D01*
X83803556Y-104066444D02*
X83558556Y-103821444D01*
X117321600Y-140004800D02*
X116000800Y-141325600D01*
X83558556Y-103821444D02*
X83513556Y-103776444D01*
X127938800Y-141325600D02*
X124357400Y-141325600D01*
X195621500Y-138048200D02*
X196661500Y-137008200D01*
X187425600Y-141325600D02*
X183844200Y-141325600D01*
X104139500Y-141325600D02*
X100558100Y-141325600D01*
X84694800Y-140004800D02*
X88443800Y-140004800D01*
X159816800Y-141121400D02*
X159816800Y-140004800D01*
X195621500Y-140010000D02*
X195621500Y-138048200D01*
X80460000Y-89990000D02*
X82000000Y-89990000D01*
X112217200Y-141121400D02*
X112217200Y-140004800D01*
X136143000Y-141325600D02*
X135939800Y-141122400D01*
X79370961Y-99344294D02*
X79370960Y-95830001D01*
X160019000Y-141325600D02*
X159815800Y-141122400D01*
X188746400Y-140004800D02*
X187425600Y-141325600D01*
X204698559Y-112721441D02*
X205060000Y-112360000D01*
X116000800Y-141325600D02*
X112419400Y-141325600D01*
X88442800Y-141121400D02*
X88442800Y-140004800D01*
X83990481Y-131040959D02*
X83990481Y-139300481D01*
X151713700Y-141325600D02*
X148132300Y-141325600D01*
X205060000Y-112360000D02*
X205900000Y-112360000D01*
X135940800Y-141121400D02*
X135940800Y-140004800D01*
X79370960Y-95830001D02*
X79370480Y-95829521D01*
X195605400Y-140004800D02*
X188746400Y-140004800D01*
X171957000Y-141325600D02*
X171753800Y-141122400D01*
X183642000Y-141121400D02*
X183642000Y-140004800D01*
X153034500Y-140004800D02*
X151713700Y-141325600D01*
X175538400Y-141325600D02*
X171957000Y-141325600D01*
X164921200Y-140004800D02*
X163600400Y-141325600D01*
X203290000Y-137008200D02*
X204698560Y-135599640D01*
X129259600Y-140004800D02*
X127938800Y-141325600D01*
X100406200Y-140004800D02*
X93547200Y-140004800D01*
X100558100Y-141325600D02*
X100354900Y-141122400D01*
X79370480Y-95829521D02*
X79370481Y-95829519D01*
X83991440Y-104301440D02*
X83991440Y-104254328D01*
X196661500Y-137008200D02*
X203290000Y-137008200D01*
X176859200Y-140004800D02*
X175538400Y-141325600D01*
X79370960Y-99633846D02*
X79370961Y-99344294D01*
X139724400Y-141325600D02*
X136143000Y-141325600D01*
X79370481Y-91079519D02*
X80460000Y-89990000D01*
X141045200Y-140004800D02*
X139724400Y-141325600D01*
X105460300Y-140004800D02*
X104139500Y-141325600D01*
X83991440Y-104301440D02*
X83991440Y-131040000D01*
X83990481Y-139300481D02*
X84694800Y-140004800D01*
X204698559Y-127802883D02*
X204698559Y-112721441D01*
X136118600Y-140004800D02*
X129259600Y-140004800D01*
X159893500Y-140004800D02*
X153034500Y-140004800D01*
X100355900Y-141121400D02*
X100355900Y-140004800D01*
X79370960Y-95830001D02*
X79370481Y-95829522D01*
X124180600Y-140004800D02*
X117321600Y-140004800D01*
X92226400Y-141325600D02*
X88645000Y-141325600D01*
X112319300Y-140004800D02*
X105460300Y-140004800D01*
X171754800Y-141121400D02*
X171754800Y-140004800D01*
X204698560Y-135599640D02*
X204698559Y-127802883D01*
%TO.N,/Col2*%
X82670000Y-109360000D02*
X82942880Y-109087120D01*
X78320480Y-86109520D02*
X80440000Y-83990000D01*
X78967114Y-100712886D02*
X78322401Y-100068170D01*
X78320480Y-96528078D02*
X78320480Y-87220481D01*
X81737112Y-103482884D02*
X78967114Y-100712886D01*
X81430000Y-109360000D02*
X82670000Y-109360000D01*
X81737112Y-103482887D02*
X81737112Y-103482884D01*
X82942880Y-109087120D02*
X82942880Y-104688656D01*
X78322402Y-96530000D02*
X78320480Y-96528078D01*
X82942880Y-104688656D02*
X81737112Y-103482887D01*
X78320480Y-87220481D02*
X78320961Y-87220000D01*
X78322401Y-100068170D02*
X78322402Y-96530000D01*
X78320480Y-87220481D02*
X78320480Y-86109520D01*
X80440000Y-83990000D02*
X82000000Y-83990000D01*
%TO.N,/Col1*%
X83120000Y-109860000D02*
X81430000Y-109860000D01*
X78670481Y-87769519D02*
X78670481Y-88449040D01*
X78671441Y-88450000D02*
X78670000Y-88451441D01*
X82000000Y-85990000D02*
X81990000Y-85980000D01*
X81990000Y-85980000D02*
X80460000Y-85980000D01*
X78671922Y-96281922D02*
X78671921Y-99923396D01*
X83292400Y-109687600D02*
X83120000Y-109860000D01*
X78671921Y-99923396D02*
X83292400Y-104543880D01*
X78670000Y-88451441D02*
X78670000Y-96280000D01*
X83292400Y-104543880D02*
X83292400Y-109687600D01*
X80460000Y-85980000D02*
X78670481Y-87769519D01*
X78670481Y-88449040D02*
X78671441Y-88450000D01*
X78670000Y-96280000D02*
X78671922Y-96281922D01*
%TO.N,/Col0*%
X80246409Y-101003591D02*
X79021441Y-99778621D01*
X79021441Y-96071441D02*
X79020960Y-96070960D01*
X81430000Y-110360000D02*
X83420000Y-110360000D01*
X83641920Y-104399104D02*
X80246409Y-101003591D01*
X79020960Y-96070960D02*
X79020961Y-95684744D01*
X80460000Y-87990000D02*
X82000000Y-87990000D01*
X79020961Y-95684744D02*
X79020961Y-89429039D01*
X79021441Y-99778621D02*
X79021441Y-96071441D01*
X83641920Y-110138080D02*
X83641920Y-104399104D01*
X79020961Y-89429039D02*
X80460000Y-87990000D01*
X83420000Y-110360000D02*
X83641920Y-110138080D01*
X79021441Y-96071441D02*
X79020000Y-96070000D01*
%TO.N,/Row0*%
X82000000Y-77990000D02*
X79980000Y-77990000D01*
X79980000Y-77990000D02*
X79300000Y-77310000D01*
X79300000Y-77310000D02*
X79300000Y-75050000D01*
D25*
%TO.N,+3V3*%
X89810000Y-68340000D02*
X87720000Y-66250000D01*
X90650000Y-72400000D02*
X90650000Y-75340000D01*
X85380000Y-66250000D02*
X81580000Y-70050000D01*
X89810000Y-71560000D02*
X90650000Y-72400000D01*
X89810000Y-68340000D02*
X89810000Y-71560000D01*
X87720000Y-66250000D02*
X85380000Y-66250000D01*
X81580000Y-70050000D02*
X79310000Y-70050000D01*
X79310000Y-70050000D02*
X79300000Y-70040000D01*
D24*
%TO.N,/y_out*%
X81430000Y-107410000D02*
X81430000Y-108360000D01*
X80750000Y-105830000D02*
X80750000Y-106730000D01*
X80750000Y-106730000D02*
X81430000Y-107410000D01*
D22*
X82000000Y-81990000D02*
X84250000Y-81990000D01*
D24*
%TO.N,/x_out*%
X82593360Y-106613360D02*
X82593360Y-108676640D01*
X81810000Y-105830000D02*
X82593360Y-106613360D01*
X82410000Y-108860000D02*
X81430000Y-108860000D01*
D22*
X82000000Y-79990000D02*
X84250000Y-79990000D01*
D24*
X82593360Y-108676640D02*
X82410000Y-108860000D01*
%TD*%
M02*
