%TF.GenerationSoftware,KiCad,Pcbnew,(6.0.4)*%
%TF.CreationDate,2022-10-14T21:38:42-05:00*%
%TF.ProjectId,Calculator_PCB _V2,43616c63-756c-4617-946f-725f50434220,rev?*%
%TF.SameCoordinates,Original*%
%TF.FileFunction,Paste,Bot*%
%TF.FilePolarity,Positive*%
%FSLAX46Y46*%
G04 Gerber Fmt 4.6, Leading zero omitted, Abs format (unit mm)*
G04 Created by KiCad (PCBNEW (6.0.4)) date 2022-10-14 21:38:42*
%MOMM*%
%LPD*%
G01*
G04 APERTURE LIST*
%ADD10R,0.900000X1.200000*%
%ADD11R,0.700000X0.300000*%
%ADD12R,1.000000X0.300000*%
%ADD13R,2.800000X1.500000*%
%ADD14R,1.500000X2.800000*%
G04 APERTURE END LIST*
D10*
%TO.C,D26*%
X159850000Y-124002800D03*
X163150000Y-124002800D03*
%TD*%
%TO.C,D35*%
X183643000Y-132003800D03*
X186943000Y-132003800D03*
%TD*%
%TO.C,D21*%
X147950000Y-116001800D03*
X151250000Y-116001800D03*
%TD*%
D11*
%TO.C,J2*%
X81430000Y-112860000D03*
X81430000Y-112360000D03*
X81430000Y-111860000D03*
X81430000Y-111360000D03*
X81430000Y-110860000D03*
X81430000Y-110360000D03*
X81430000Y-109860000D03*
X81430000Y-109360000D03*
X81430000Y-108860000D03*
X81430000Y-108360000D03*
D12*
X78780000Y-113650000D03*
X78780000Y-107570000D03*
%TD*%
D10*
%TO.C,D31*%
X171750000Y-132003800D03*
X175050000Y-132003800D03*
%TD*%
%TO.C,D40*%
X195550000Y-140004800D03*
X198850000Y-140004800D03*
%TD*%
%TO.C,D10*%
X112243600Y-124002800D03*
X115543600Y-124002800D03*
%TD*%
%TO.C,D8*%
X100350000Y-140004800D03*
X103650000Y-140004800D03*
%TD*%
%TO.C,D20*%
X135941800Y-140004800D03*
X139241800Y-140004800D03*
%TD*%
%TO.C,D30*%
X171750000Y-124002800D03*
X175050000Y-124002800D03*
%TD*%
%TO.C,D28*%
X159843200Y-140004800D03*
X163143200Y-140004800D03*
%TD*%
%TO.C,D13*%
X124150000Y-116001800D03*
X127450000Y-116001800D03*
%TD*%
%TO.C,D3*%
X88450000Y-132003800D03*
X91750000Y-132003800D03*
%TD*%
%TO.C,D33*%
X183643000Y-116001800D03*
X186943000Y-116001800D03*
%TD*%
%TO.C,D4*%
X88443800Y-140004800D03*
X91743800Y-140004800D03*
%TD*%
%TO.C,D2*%
X88450000Y-124002800D03*
X91750000Y-124002800D03*
%TD*%
D13*
%TO.C,U1*%
X105300000Y-77990000D03*
X105300000Y-79990000D03*
X105300000Y-81990000D03*
X105300000Y-83990000D03*
X105300000Y-85990000D03*
X105300000Y-87990000D03*
X105300000Y-89990000D03*
X105300000Y-91990000D03*
X105300000Y-93990000D03*
X105300000Y-95990000D03*
D14*
X102650000Y-98640000D03*
X100650000Y-98640000D03*
X98650000Y-98640000D03*
X96650000Y-98640000D03*
X94650000Y-98640000D03*
X92650000Y-98640000D03*
X90650000Y-98640000D03*
X88650000Y-98640000D03*
X86650000Y-98640000D03*
X84650000Y-98640000D03*
D13*
X82000000Y-95990000D03*
X82000000Y-93990000D03*
X82000000Y-91990000D03*
X82000000Y-89990000D03*
X82000000Y-87990000D03*
X82000000Y-85990000D03*
X82000000Y-83990000D03*
X82000000Y-81990000D03*
X82000000Y-79990000D03*
X82000000Y-77990000D03*
D14*
X84650000Y-75340000D03*
X86650000Y-75340000D03*
X88650000Y-75340000D03*
X90650000Y-75340000D03*
X92650000Y-75340000D03*
X94650000Y-75340000D03*
X96650000Y-75340000D03*
X98650000Y-75340000D03*
X100650000Y-75340000D03*
X102650000Y-75340000D03*
%TD*%
D10*
%TO.C,D25*%
X159850000Y-116001800D03*
X163150000Y-116001800D03*
%TD*%
%TO.C,D39*%
X195550000Y-132003800D03*
X198850000Y-132003800D03*
%TD*%
%TO.C,D36*%
X183650000Y-140004800D03*
X186950000Y-140004800D03*
%TD*%
D11*
%TO.C,J3*%
X205900000Y-108360000D03*
X205900000Y-108860000D03*
X205900000Y-109360000D03*
X205900000Y-109860000D03*
X205900000Y-110360000D03*
X205900000Y-110860000D03*
X205900000Y-111360000D03*
X205900000Y-111860000D03*
X205900000Y-112360000D03*
X205900000Y-112860000D03*
D12*
X208550000Y-107570000D03*
X208550000Y-113650000D03*
%TD*%
D10*
%TO.C,D37*%
X195550000Y-116001800D03*
X198850000Y-116001800D03*
%TD*%
%TO.C,D19*%
X136050000Y-132003800D03*
X139350000Y-132003800D03*
%TD*%
%TO.C,D6*%
X100350000Y-124002800D03*
X103650000Y-124002800D03*
%TD*%
%TO.C,D27*%
X159850000Y-132003800D03*
X163150000Y-132003800D03*
%TD*%
%TO.C,D17*%
X136043400Y-116001800D03*
X139343400Y-116001800D03*
%TD*%
%TO.C,D15*%
X124150000Y-132003800D03*
X127450000Y-132003800D03*
%TD*%
%TO.C,D23*%
X147950000Y-132003800D03*
X151250000Y-132003800D03*
%TD*%
%TO.C,D5*%
X100331000Y-116001800D03*
X103631000Y-116001800D03*
%TD*%
%TO.C,D32*%
X171750000Y-140004800D03*
X175050000Y-140004800D03*
%TD*%
%TO.C,D11*%
X112243600Y-132003800D03*
X115543600Y-132003800D03*
%TD*%
%TO.C,D24*%
X147950000Y-140004800D03*
X151250000Y-140004800D03*
%TD*%
%TO.C,D29*%
X171750000Y-116001800D03*
X175050000Y-116001800D03*
%TD*%
%TO.C,D1*%
X88367600Y-116001800D03*
X91667600Y-116001800D03*
%TD*%
%TO.C,D14*%
X124150000Y-124002800D03*
X127450000Y-124002800D03*
%TD*%
%TO.C,D34*%
X183643000Y-124002800D03*
X186943000Y-124002800D03*
%TD*%
%TO.C,D38*%
X195550000Y-124002800D03*
X198850000Y-124002800D03*
%TD*%
%TO.C,D18*%
X136050000Y-124002800D03*
X139350000Y-124002800D03*
%TD*%
%TO.C,D22*%
X147950000Y-124002800D03*
X151250000Y-124002800D03*
%TD*%
%TO.C,D12*%
X112243600Y-140004800D03*
X115543600Y-140004800D03*
%TD*%
%TO.C,D7*%
X100350000Y-132003800D03*
X103650000Y-132003800D03*
%TD*%
%TO.C,D16*%
X124150000Y-140004800D03*
X127450000Y-140004800D03*
%TD*%
%TO.C,D9*%
X112243600Y-116001800D03*
X115543600Y-116001800D03*
%TD*%
M02*
