%TF.GenerationSoftware,KiCad,Pcbnew,(6.0.4)*%
%TF.CreationDate,2022-10-14T21:38:42-05:00*%
%TF.ProjectId,Calculator_PCB _V2,43616c63-756c-4617-946f-725f50434220,rev?*%
%TF.SameCoordinates,Original*%
%TF.FileFunction,Soldermask,Bot*%
%TF.FilePolarity,Negative*%
%FSLAX46Y46*%
G04 Gerber Fmt 4.6, Leading zero omitted, Abs format (unit mm)*
G04 Created by KiCad (PCBNEW (6.0.4)) date 2022-10-14 21:38:42*
%MOMM*%
%LPD*%
G01*
G04 APERTURE LIST*
G04 Aperture macros list*
%AMRoundRect*
0 Rectangle with rounded corners*
0 $1 Rounding radius*
0 $2 $3 $4 $5 $6 $7 $8 $9 X,Y pos of 4 corners*
0 Add a 4 corners polygon primitive as box body*
4,1,4,$2,$3,$4,$5,$6,$7,$8,$9,$2,$3,0*
0 Add four circle primitives for the rounded corners*
1,1,$1+$1,$2,$3*
1,1,$1+$1,$4,$5*
1,1,$1+$1,$6,$7*
1,1,$1+$1,$8,$9*
0 Add four rect primitives between the rounded corners*
20,1,$1+$1,$2,$3,$4,$5,0*
20,1,$1+$1,$4,$5,$6,$7,0*
20,1,$1+$1,$6,$7,$8,$9,0*
20,1,$1+$1,$8,$9,$2,$3,0*%
G04 Aperture macros list end*
%ADD10C,1.524000*%
%ADD11C,2.200000*%
%ADD12R,0.900000X1.200000*%
%ADD13R,0.700000X0.300000*%
%ADD14R,1.000000X0.300000*%
%ADD15R,1.350000X1.350000*%
%ADD16R,2.800000X1.500000*%
%ADD17R,1.500000X2.800000*%
%ADD18O,1.350000X1.350000*%
%ADD19RoundRect,0.101600X0.889000X-0.889000X0.889000X0.889000X-0.889000X0.889000X-0.889000X-0.889000X0*%
%ADD20C,1.981200*%
G04 APERTURE END LIST*
D10*
%TO.C,SW12*%
X110090000Y-138540000D03*
X117710000Y-138540000D03*
X117710000Y-133460000D03*
X110090000Y-133460000D03*
%TD*%
D11*
%TO.C,REF\u002A\u002A*%
X79650000Y-140210000D03*
%TD*%
D10*
%TO.C,SW39*%
X201010000Y-130540000D03*
X193390000Y-130540000D03*
X201010000Y-125460000D03*
X193390000Y-125460000D03*
%TD*%
%TO.C,SW2*%
X93910000Y-122540000D03*
X86290000Y-122540000D03*
X86290000Y-117460000D03*
X93910000Y-117460000D03*
%TD*%
%TO.C,SW30*%
X177210000Y-122540000D03*
X169590000Y-122540000D03*
X169590000Y-117460000D03*
X177210000Y-117460000D03*
%TD*%
%TO.C,SW1*%
X93910000Y-114540000D03*
X86290000Y-114540000D03*
X86290000Y-109460000D03*
X93910000Y-109460000D03*
%TD*%
D11*
%TO.C,REF\u002A\u002A*%
X207650000Y-140210000D03*
%TD*%
D10*
%TO.C,SW4*%
X86290000Y-138540000D03*
X93910000Y-138540000D03*
X86290000Y-133460000D03*
X93910000Y-133460000D03*
%TD*%
%TO.C,SW8*%
X105810000Y-138540000D03*
X98190000Y-138540000D03*
X98190000Y-133460000D03*
X105810000Y-133460000D03*
%TD*%
%TO.C,SW33*%
X189110000Y-114540000D03*
X181490000Y-114540000D03*
X181490000Y-109460000D03*
X189110000Y-109460000D03*
%TD*%
%TO.C,SW26*%
X157690000Y-122540000D03*
X165310000Y-122540000D03*
X165310000Y-117460000D03*
X157690000Y-117460000D03*
%TD*%
%TO.C,SW6*%
X105810000Y-122540000D03*
X98190000Y-122540000D03*
X105810000Y-117460000D03*
X98190000Y-117460000D03*
%TD*%
%TO.C,SW17*%
X141510000Y-114540000D03*
X133890000Y-114540000D03*
X133890000Y-109460000D03*
X141510000Y-109460000D03*
%TD*%
%TO.C,SW11*%
X117710000Y-130540000D03*
X110090000Y-130540000D03*
X117710000Y-125460000D03*
X110090000Y-125460000D03*
%TD*%
%TO.C,SW20*%
X133890000Y-138540000D03*
X141510000Y-138540000D03*
X141510000Y-133460000D03*
X133890000Y-133460000D03*
%TD*%
%TO.C,SW10*%
X117710000Y-122540000D03*
X110090000Y-122540000D03*
X117710000Y-117460000D03*
X110090000Y-117460000D03*
%TD*%
%TO.C,SW23*%
X145790000Y-130540000D03*
X153410000Y-130540000D03*
X153410000Y-125460000D03*
X145790000Y-125460000D03*
%TD*%
%TO.C,SW16*%
X129610000Y-138540000D03*
X121990000Y-138540000D03*
X121990000Y-133460000D03*
X129610000Y-133460000D03*
%TD*%
%TO.C,SW36*%
X189110000Y-138540000D03*
X181490000Y-138540000D03*
X189110000Y-133460000D03*
X181490000Y-133460000D03*
%TD*%
%TO.C,SW28*%
X165310000Y-138540000D03*
X157690000Y-138540000D03*
X157690000Y-133460000D03*
X165310000Y-133460000D03*
%TD*%
%TO.C,SW14*%
X121990000Y-122540000D03*
X129610000Y-122540000D03*
X121990000Y-117460000D03*
X129610000Y-117460000D03*
%TD*%
%TO.C,SW25*%
X157690000Y-114540000D03*
X165310000Y-114540000D03*
X157690000Y-109460000D03*
X165310000Y-109460000D03*
%TD*%
%TO.C,SW3*%
X86290000Y-130540000D03*
X93910000Y-130540000D03*
X93910000Y-125460000D03*
X86290000Y-125460000D03*
%TD*%
%TO.C,SW37*%
X201010000Y-114540000D03*
X193390000Y-114540000D03*
X193390000Y-109460000D03*
X201010000Y-109460000D03*
%TD*%
%TO.C,SW22*%
X153410000Y-122540000D03*
X145790000Y-122540000D03*
X145790000Y-117460000D03*
X153410000Y-117460000D03*
%TD*%
D11*
%TO.C,REF\u002A\u002A*%
X79629776Y-66210000D03*
%TD*%
D10*
%TO.C,SW34*%
X189110000Y-122540000D03*
X181490000Y-122540000D03*
X189110000Y-117460000D03*
X181490000Y-117460000D03*
%TD*%
%TO.C,SW31*%
X169590000Y-130540000D03*
X177210000Y-130540000D03*
X169590000Y-125460000D03*
X177210000Y-125460000D03*
%TD*%
%TO.C,SW21*%
X153410000Y-114540000D03*
X145790000Y-114540000D03*
X145790000Y-109460000D03*
X153410000Y-109460000D03*
%TD*%
%TO.C,SW38*%
X201010000Y-122540000D03*
X193390000Y-122540000D03*
X201010000Y-117460000D03*
X193390000Y-117460000D03*
%TD*%
%TO.C,SW32*%
X177210000Y-138540000D03*
X169590000Y-138540000D03*
X177210000Y-133460000D03*
X169590000Y-133460000D03*
%TD*%
%TO.C,SW7*%
X105810000Y-130540000D03*
X98190000Y-130540000D03*
X98190000Y-125460000D03*
X105810000Y-125460000D03*
%TD*%
%TO.C,SW9*%
X117710000Y-114540000D03*
X110090000Y-114540000D03*
X117710000Y-109460000D03*
X110090000Y-109460000D03*
%TD*%
%TO.C,SW13*%
X121990000Y-114540000D03*
X129610000Y-114540000D03*
X129610000Y-109460000D03*
X121990000Y-109460000D03*
%TD*%
%TO.C,SW18*%
X133890000Y-122540000D03*
X141510000Y-122540000D03*
X141510000Y-117460000D03*
X133890000Y-117460000D03*
%TD*%
%TO.C,SW15*%
X129610000Y-130540000D03*
X121990000Y-130540000D03*
X129610000Y-125460000D03*
X121990000Y-125460000D03*
%TD*%
%TO.C,SW5*%
X105810000Y-114540000D03*
X98190000Y-114540000D03*
X98190000Y-109460000D03*
X105810000Y-109460000D03*
%TD*%
D11*
%TO.C,REF\u002A\u002A*%
X107650000Y-66210000D03*
%TD*%
D10*
%TO.C,SW35*%
X189110000Y-130540000D03*
X181490000Y-130540000D03*
X189110000Y-125460000D03*
X181490000Y-125460000D03*
%TD*%
%TO.C,SW27*%
X157690000Y-130540000D03*
X165310000Y-130540000D03*
X165310000Y-125460000D03*
X157690000Y-125460000D03*
%TD*%
D11*
%TO.C,REF\u002A\u002A*%
X207650000Y-104710000D03*
%TD*%
D10*
%TO.C,SW24*%
X153410000Y-138540000D03*
X145790000Y-138540000D03*
X153410000Y-133460000D03*
X145790000Y-133460000D03*
%TD*%
%TO.C,SW29*%
X169590000Y-114540000D03*
X177210000Y-114540000D03*
X177210000Y-109460000D03*
X169590000Y-109460000D03*
%TD*%
%TO.C,SW40*%
X201010000Y-138540000D03*
X193390000Y-138540000D03*
X201010000Y-133460000D03*
X193390000Y-133460000D03*
%TD*%
%TO.C,SW19*%
X141510000Y-130540000D03*
X133890000Y-130540000D03*
X133890000Y-125460000D03*
X141510000Y-125460000D03*
%TD*%
D12*
%TO.C,D26*%
X159850000Y-124002800D03*
X163150000Y-124002800D03*
%TD*%
%TO.C,D35*%
X183643000Y-132003800D03*
X186943000Y-132003800D03*
%TD*%
%TO.C,D21*%
X147950000Y-116001800D03*
X151250000Y-116001800D03*
%TD*%
D13*
%TO.C,J2*%
X81430000Y-112860000D03*
X81430000Y-112360000D03*
X81430000Y-111860000D03*
X81430000Y-111360000D03*
X81430000Y-110860000D03*
X81430000Y-110360000D03*
X81430000Y-109860000D03*
X81430000Y-109360000D03*
X81430000Y-108860000D03*
X81430000Y-108360000D03*
D14*
X78780000Y-113650000D03*
X78780000Y-107570000D03*
%TD*%
D12*
%TO.C,D31*%
X171750000Y-132003800D03*
X175050000Y-132003800D03*
%TD*%
%TO.C,D40*%
X195550000Y-140004800D03*
X198850000Y-140004800D03*
%TD*%
%TO.C,D10*%
X112243600Y-124002800D03*
X115543600Y-124002800D03*
%TD*%
%TO.C,D8*%
X100350000Y-140004800D03*
X103650000Y-140004800D03*
%TD*%
%TO.C,D20*%
X135941800Y-140004800D03*
X139241800Y-140004800D03*
%TD*%
%TO.C,D30*%
X171750000Y-124002800D03*
X175050000Y-124002800D03*
%TD*%
%TO.C,D28*%
X159843200Y-140004800D03*
X163143200Y-140004800D03*
%TD*%
%TO.C,D13*%
X124150000Y-116001800D03*
X127450000Y-116001800D03*
%TD*%
%TO.C,D3*%
X88450000Y-132003800D03*
X91750000Y-132003800D03*
%TD*%
%TO.C,D33*%
X183643000Y-116001800D03*
X186943000Y-116001800D03*
%TD*%
%TO.C,D4*%
X88443800Y-140004800D03*
X91743800Y-140004800D03*
%TD*%
D15*
%TO.C,REF\u002A\u002A*%
X79300000Y-75050000D03*
%TD*%
D12*
%TO.C,D2*%
X88450000Y-124002800D03*
X91750000Y-124002800D03*
%TD*%
D16*
%TO.C,U1*%
X105300000Y-77990000D03*
X105300000Y-79990000D03*
X105300000Y-81990000D03*
X105300000Y-83990000D03*
X105300000Y-85990000D03*
X105300000Y-87990000D03*
X105300000Y-89990000D03*
X105300000Y-91990000D03*
X105300000Y-93990000D03*
X105300000Y-95990000D03*
D17*
X102650000Y-98640000D03*
X100650000Y-98640000D03*
X98650000Y-98640000D03*
X96650000Y-98640000D03*
X94650000Y-98640000D03*
X92650000Y-98640000D03*
X90650000Y-98640000D03*
X88650000Y-98640000D03*
X86650000Y-98640000D03*
X84650000Y-98640000D03*
D16*
X82000000Y-95990000D03*
X82000000Y-93990000D03*
X82000000Y-91990000D03*
X82000000Y-89990000D03*
X82000000Y-87990000D03*
X82000000Y-85990000D03*
X82000000Y-83990000D03*
X82000000Y-81990000D03*
X82000000Y-79990000D03*
X82000000Y-77990000D03*
D17*
X84650000Y-75340000D03*
X86650000Y-75340000D03*
X88650000Y-75340000D03*
X90650000Y-75340000D03*
X92650000Y-75340000D03*
X94650000Y-75340000D03*
X96650000Y-75340000D03*
X98650000Y-75340000D03*
X100650000Y-75340000D03*
X102650000Y-75340000D03*
%TD*%
D12*
%TO.C,D25*%
X159850000Y-116001800D03*
X163150000Y-116001800D03*
%TD*%
%TO.C,D39*%
X195550000Y-132003800D03*
X198850000Y-132003800D03*
%TD*%
%TO.C,D36*%
X183650000Y-140004800D03*
X186950000Y-140004800D03*
%TD*%
D13*
%TO.C,J3*%
X205900000Y-108360000D03*
X205900000Y-108860000D03*
X205900000Y-109360000D03*
X205900000Y-109860000D03*
X205900000Y-110360000D03*
X205900000Y-110860000D03*
X205900000Y-111360000D03*
X205900000Y-111860000D03*
X205900000Y-112360000D03*
X205900000Y-112860000D03*
D14*
X208550000Y-107570000D03*
X208550000Y-113650000D03*
%TD*%
D12*
%TO.C,D37*%
X195550000Y-116001800D03*
X198850000Y-116001800D03*
%TD*%
%TO.C,D19*%
X136050000Y-132003800D03*
X139350000Y-132003800D03*
%TD*%
%TO.C,D6*%
X100350000Y-124002800D03*
X103650000Y-124002800D03*
%TD*%
%TO.C,D27*%
X159850000Y-132003800D03*
X163150000Y-132003800D03*
%TD*%
%TO.C,D17*%
X136043400Y-116001800D03*
X139343400Y-116001800D03*
%TD*%
D15*
%TO.C,REF\u002A\u002A*%
X79300000Y-72040000D03*
D18*
X79300000Y-70040000D03*
%TD*%
D12*
%TO.C,D15*%
X124150000Y-132003800D03*
X127450000Y-132003800D03*
%TD*%
%TO.C,D23*%
X147950000Y-132003800D03*
X151250000Y-132003800D03*
%TD*%
%TO.C,D5*%
X100331000Y-116001800D03*
X103631000Y-116001800D03*
%TD*%
%TO.C,D32*%
X171750000Y-140004800D03*
X175050000Y-140004800D03*
%TD*%
%TO.C,D11*%
X112243600Y-132003800D03*
X115543600Y-132003800D03*
%TD*%
%TO.C,D24*%
X147950000Y-140004800D03*
X151250000Y-140004800D03*
%TD*%
D19*
%TO.C,JP1*%
X97430000Y-68340000D03*
D20*
X94890000Y-68340000D03*
X92350000Y-68340000D03*
X89810000Y-68340000D03*
X87270000Y-68340000D03*
%TD*%
D12*
%TO.C,D29*%
X171750000Y-116001800D03*
X175050000Y-116001800D03*
%TD*%
%TO.C,D1*%
X88367600Y-116001800D03*
X91667600Y-116001800D03*
%TD*%
%TO.C,D14*%
X124150000Y-124002800D03*
X127450000Y-124002800D03*
%TD*%
%TO.C,D34*%
X183643000Y-124002800D03*
X186943000Y-124002800D03*
%TD*%
%TO.C,D38*%
X195550000Y-124002800D03*
X198850000Y-124002800D03*
%TD*%
%TO.C,D18*%
X136050000Y-124002800D03*
X139350000Y-124002800D03*
%TD*%
%TO.C,D22*%
X147950000Y-124002800D03*
X151250000Y-124002800D03*
%TD*%
%TO.C,D12*%
X112243600Y-140004800D03*
X115543600Y-140004800D03*
%TD*%
%TO.C,D7*%
X100350000Y-132003800D03*
X103650000Y-132003800D03*
%TD*%
%TO.C,D16*%
X124150000Y-140004800D03*
X127450000Y-140004800D03*
%TD*%
%TO.C,D9*%
X112243600Y-116001800D03*
X115543600Y-116001800D03*
%TD*%
M02*
