M48
; DRILL file {KiCad (6.0.4)} date Fri Oct 14 21:38:44 2022
; FORMAT={-:-/ absolute / inch / decimal}
; #@! TF.CreationDate,2022-10-14T21:38:44-05:00
; #@! TF.GenerationSoftware,Kicad,Pcbnew,(6.0.4)
; #@! TF.FileFunction,Plated,1,2,PTH
FMAT,2
INCH
; #@! TA.AperFunction,Plated,PTH,ViaDrill
T1C0.0157
; #@! TA.AperFunction,Plated,PTH,ComponentDrill
T2C0.0315
; #@! TA.AperFunction,Plated,PTH,ComponentDrill
T3C0.0354
; #@! TA.AperFunction,Plated,PTH,ComponentDrill
T4C0.0394
%
G90
G05
T1
X3.1016Y-4.1992
X3.1016Y-4.5102
X3.1791Y-4.1665
X3.2004Y-2.8358
X3.2209Y-4.1665
X3.2802Y-5.1921
X3.2802Y-4.5622
X3.2802Y-4.8772
X3.3169Y-3.1492
X3.3169Y-3.228
X3.3327Y-2.8772
X3.4227Y-4.882
X3.4228Y-5.1969
X3.4236Y-4.567
X3.8358Y-2.7709
X4.0646Y-2.8445
X8.2106Y-4.1992
X8.2106Y-4.5102
T2
X3.122Y-2.7575
X3.122Y-2.8362
X3.122Y-2.9547
T3
X3.3972Y-4.3094
X3.3972Y-4.5094
X3.3972Y-4.6244
X3.3972Y-4.8244
X3.3972Y-4.9394
X3.3972Y-5.1394
X3.3972Y-5.2543
X3.3972Y-5.4543
X3.6972Y-4.3094
X3.6972Y-4.5094
X3.6972Y-4.6244
X3.6972Y-4.8244
X3.6972Y-4.9394
X3.6972Y-5.1394
X3.6972Y-5.2543
X3.6972Y-5.4543
X3.8657Y-4.3094
X3.8657Y-4.5094
X3.8657Y-4.6244
X3.8657Y-4.8244
X3.8657Y-4.9394
X3.8657Y-5.1394
X3.8657Y-5.2543
X3.8657Y-5.4543
X4.1657Y-4.3094
X4.1657Y-4.5094
X4.1657Y-4.6244
X4.1657Y-4.8244
X4.1657Y-4.9394
X4.1657Y-5.1394
X4.1657Y-5.2543
X4.1657Y-5.4543
X4.3343Y-4.3094
X4.3343Y-4.5094
X4.3343Y-4.6244
X4.3343Y-4.8244
X4.3343Y-4.9394
X4.3343Y-5.1394
X4.3343Y-5.2543
X4.3343Y-5.4543
X4.6343Y-4.3094
X4.6343Y-4.5094
X4.6343Y-4.6244
X4.6343Y-4.8244
X4.6343Y-4.9394
X4.6343Y-5.1394
X4.6343Y-5.2543
X4.6343Y-5.4543
X4.8028Y-4.3094
X4.8028Y-4.5094
X4.8028Y-4.6244
X4.8028Y-4.8244
X4.8028Y-4.9394
X4.8028Y-5.1394
X4.8028Y-5.2543
X4.8028Y-5.4543
X5.1028Y-4.3094
X5.1028Y-4.5094
X5.1028Y-4.6244
X5.1028Y-4.8244
X5.1028Y-4.9394
X5.1028Y-5.1394
X5.1028Y-5.2543
X5.1028Y-5.4543
X5.2713Y-4.3094
X5.2713Y-4.5094
X5.2713Y-4.6244
X5.2713Y-4.8244
X5.2713Y-4.9394
X5.2713Y-5.1394
X5.2713Y-5.2543
X5.2713Y-5.4543
X5.5713Y-4.3094
X5.5713Y-4.5094
X5.5713Y-4.6244
X5.5713Y-4.8244
X5.5713Y-4.9394
X5.5713Y-5.1394
X5.5713Y-5.2543
X5.5713Y-5.4543
X5.7398Y-4.3094
X5.7398Y-4.5094
X5.7398Y-4.6244
X5.7398Y-4.8244
X5.7398Y-4.9394
X5.7398Y-5.1394
X5.7398Y-5.2543
X5.7398Y-5.4543
X6.0398Y-4.3094
X6.0398Y-4.5094
X6.0398Y-4.6244
X6.0398Y-4.8244
X6.0398Y-4.9394
X6.0398Y-5.1394
X6.0398Y-5.2543
X6.0398Y-5.4543
X6.2083Y-4.3094
X6.2083Y-4.5094
X6.2083Y-4.6244
X6.2083Y-4.8244
X6.2083Y-4.9394
X6.2083Y-5.1394
X6.2083Y-5.2543
X6.2083Y-5.4543
X6.5083Y-4.3094
X6.5083Y-4.5094
X6.5083Y-4.6244
X6.5083Y-4.8244
X6.5083Y-4.9394
X6.5083Y-5.1394
X6.5083Y-5.2543
X6.5083Y-5.4543
X6.6768Y-4.3094
X6.6768Y-4.5094
X6.6768Y-4.6244
X6.6768Y-4.8244
X6.6768Y-4.9394
X6.6768Y-5.1394
X6.6768Y-5.2543
X6.6768Y-5.4543
X6.9768Y-4.3094
X6.9768Y-4.5094
X6.9768Y-4.6244
X6.9768Y-4.8244
X6.9768Y-4.9394
X6.9768Y-5.1394
X6.9768Y-5.2543
X6.9768Y-5.4543
X7.1453Y-4.3094
X7.1453Y-4.5094
X7.1453Y-4.6244
X7.1453Y-4.8244
X7.1453Y-4.9394
X7.1453Y-5.1394
X7.1453Y-5.2543
X7.1453Y-5.4543
X7.4453Y-4.3094
X7.4453Y-4.5094
X7.4453Y-4.6244
X7.4453Y-4.8244
X7.4453Y-4.9394
X7.4453Y-5.1394
X7.4453Y-5.2543
X7.4453Y-5.4543
X7.6138Y-4.3094
X7.6138Y-4.5094
X7.6138Y-4.6244
X7.6138Y-4.8244
X7.6138Y-4.9394
X7.6138Y-5.1394
X7.6138Y-5.2543
X7.6138Y-5.4543
X7.9138Y-4.3094
X7.9138Y-4.5094
X7.9138Y-4.6244
X7.9138Y-4.8244
X7.9138Y-4.9394
X7.9138Y-5.1394
X7.9138Y-5.2543
X7.9138Y-5.4543
T4
X3.4358Y-2.6906
X3.5358Y-2.6906
X3.6358Y-2.6906
X3.7358Y-2.6906
X3.8358Y-2.6906
T0
M30
