<svg version="1.1" xmlns="http://www.w3.org/2000/svg" xmlns:xlink="http://www.w3.org/1999/xlink" stroke-linecap="round" stroke-linejoin="round" stroke-width="0" fill-rule="evenodd" width="132.0000000025mm" height="78.0000000025mm" viewBox="77650 -142210 132000.0000025 78000.0000025" id="V5Cq-efBTkMHbiTwQ8hy"><g transform="translate(0,-206419.99999749998) scale(1,-1)" fill="currentColor" stroke="currentColor"><path d="M 79650 -142210 207650 -142210 A 2000 2000 0 0 1 209650 -140210 L 209650 -108210 209650 -106210 209650 -104710 A 1999.9000025 1999.9000025 0 0 1 207650 -102710 L 111650 -102710 A 2000.1000025 2000.1000025 0 0 0 109650 -100710 L 109650 -98210 109650 -66210 A 1999.9000025 1999.9000025 0 0 1 107650 -64210 L 79650 -64210 A 2000 2000 0 0 1 77650 -66210 L 77650 -140210 A 2000.1000025 2000.1000025 0 0 1 79650 -142210 M 208650 -140210 A 1000 1000 0 0 1 206650 -140210 1000 1000 0 0 1 208650 -140210 M 80629.776 -66210 A 1000 1000 0 0 1 78629.776 -66210 1000 1000 0 0 1 80629.776 -66210 M 208650 -104710 A 1000 1000 0 0 1 206650 -104710 1000 1000 0 0 1 208650 -104710 M 80650 -140210 A 1000 1000 0 0 1 78650 -140210 1000 1000 0 0 1 80650 -140210 M 108650 -66210 A 1000 1000 0 0 1 106650 -66210 1000 1000 0 0 1 108650 -66210" fill="none" stroke-width="200"/></g></svg>