<svg version="1.1" xmlns="http://www.w3.org/2000/svg" xmlns:xlink="http://www.w3.org/1999/xlink" stroke-linecap="round" stroke-linejoin="round" stroke-width="0" fill-rule="evenodd" width="130.000432mm" height="49.265mm" viewBox="79139.568 -114270 130000.432 49265" id="FK6RY8eWxpT7ByNfDRJK"><defs><rect x="-200" y="-825" width="400" height="1650" id="FK6RY8eWxpT7ByNfDRJK_pad-10"/><rect x="-715" y="-1250" width="1430" height="2500" id="FK6RY8eWxpT7ByNfDRJK_pad-11"/><rect x="-675" y="-1000" width="1350" height="2000" id="FK6RY8eWxpT7ByNfDRJK_pad-12"/><rect x="-912.5" y="-350" width="1825" height="700" id="FK6RY8eWxpT7ByNfDRJK_pad-13"/><rect x="-1000" y="-750" width="2000" height="1500" id="FK6RY8eWxpT7ByNfDRJK_pad-14"/><g id="FK6RY8eWxpT7ByNfDRJK_pad-15"><polygon points="-155,212.5 -155,-212.5 155,-212.5 155,212.5"/><circle cx="-155" cy="212.5" r="155"/><circle cx="-155" cy="-212.5" r="155"/><circle cx="155" cy="-212.5" r="155"/><circle cx="155" cy="212.5" r="155"/><polygon points="0,212.5 0,-212.5 -310,-212.5 -310,212.5"/><polygon points="-155,-367.5 155,-367.5 155,-57.5 -155,-57.5"/><polygon points="310,-212.5 310,212.5 0,212.5 0,-212.5"/><polygon points="155,57.5 -155,57.5 -155,367.5 155,367.5"/></g><g id="FK6RY8eWxpT7ByNfDRJK_pad-16"><polygon points="155,-212.5 155,212.5 -155,212.5 -155,-212.5"/><circle cx="155" cy="-212.5" r="155"/><circle cx="155" cy="212.5" r="155"/><circle cx="-155" cy="212.5" r="155"/><circle cx="-155" cy="-212.5" r="155"/><polygon points="310,-212.5 310,212.5 0,212.5 0,-212.5"/><polygon points="155,57.5 -155,57.5 -155,367.5 155,367.5"/><polygon points="0,212.5 0,-212.5 -310,-212.5 -310,212.5"/><polygon points="-155,-367.5 155,-367.5 155,-57.5 -155,-57.5"/></g><g id="FK6RY8eWxpT7ByNfDRJK_pad-17"><polygon points="212.5,155 -212.5,155 -212.5,-155 212.5,-155"/><circle cx="212.5" cy="155" r="155"/><circle cx="-212.5" cy="155" r="155"/><circle cx="-212.5" cy="-155" r="155"/><circle cx="212.5" cy="-155" r="155"/><polygon points="212.5,0 -212.5,0 -212.5,310 212.5,310"/><polygon points="-57.5,155 -57.5,-155 -367.5,-155 -367.5,155"/><polygon points="-212.5,-310 212.5,-310 212.5,0 -212.5,0"/><polygon points="367.5,-155 367.5,155 57.5,155 57.5,-155"/></g><g id="FK6RY8eWxpT7ByNfDRJK_pad-18"><polygon points="-212.5,-155 212.5,-155 212.5,155 -212.5,155"/><circle cx="-212.5" cy="-155" r="155"/><circle cx="212.5" cy="-155" r="155"/><circle cx="212.5" cy="155" r="155"/><circle cx="-212.5" cy="155" r="155"/><polygon points="-212.5,-310 212.5,-310 212.5,0 -212.5,0"/><polygon points="367.5,-155 367.5,155 57.5,155 57.5,-155"/><polygon points="212.5,0 -212.5,0 -212.5,310 212.5,310"/><polygon points="-57.5,155 -57.5,-155 -367.5,-155 -367.5,155"/></g><g id="FK6RY8eWxpT7ByNfDRJK_pad-19"><polygon points="-337.5,-475 337.5,-475 337.5,475 -337.5,475"/><circle cx="-337.5" cy="-475" r="250"/><circle cx="337.5" cy="-475" r="250"/><circle cx="337.5" cy="475" r="250"/><circle cx="-337.5" cy="475" r="250"/><polygon points="-337.5,-725 337.5,-725 337.5,-225 -337.5,-225"/><polygon points="587.5,-475 587.5,475 87.5,475 87.5,-475"/><polygon points="337.5,225 -337.5,225 -337.5,725 337.5,725"/><polygon points="-87.5,475 -87.5,-475 -587.5,-475 -587.5,475"/></g><g id="FK6RY8eWxpT7ByNfDRJK_pad-20"><polygon points="-650,-150 650,-150 650,150 -650,150"/><circle cx="-650" cy="-150" r="150"/><circle cx="650" cy="-150" r="150"/><circle cx="650" cy="150" r="150"/><circle cx="-650" cy="150" r="150"/><polygon points="-650,-300 650,-300 650,0 -650,0"/><polygon points="800,-150 800,150 500,150 500,-150"/><polygon points="650,0 -650,0 -650,300 650,300"/><polygon points="-500,150 -500,-150 -800,-150 -800,150"/></g><g id="FK6RY8eWxpT7ByNfDRJK_pad-21"><polygon points="-160,197.5 -160,-197.5 160,-197.5 160,197.5"/><circle cx="-160" cy="197.5" r="160"/><circle cx="-160" cy="-197.5" r="160"/><circle cx="160" cy="-197.5" r="160"/><circle cx="160" cy="197.5" r="160"/><polygon points="0,197.5 0,-197.5 -320,-197.5 -320,197.5"/><polygon points="-160,-357.5 160,-357.5 160,-37.5 -160,-37.5"/><polygon points="320,-197.5 320,197.5 0,197.5 0,-197.5"/><polygon points="160,37.5 -160,37.5 -160,357.5 160,357.5"/></g><rect x="-350" y="-150" width="700" height="300" id="FK6RY8eWxpT7ByNfDRJK_pad-22"/><rect x="-500" y="-150" width="1000" height="300" id="FK6RY8eWxpT7ByNfDRJK_pad-23"/><g id="FK6RY8eWxpT7ByNfDRJK_pad-24"><polygon points="160,-197.5 160,197.5 -160,197.5 -160,-197.5"/><circle cx="160" cy="-197.5" r="160"/><circle cx="160" cy="197.5" r="160"/><circle cx="-160" cy="197.5" r="160"/><circle cx="-160" cy="-197.5" r="160"/><polygon points="320,-197.5 320,197.5 0,197.5 0,-197.5"/><polygon points="160,37.5 -160,37.5 -160,357.5 160,357.5"/><polygon points="0,197.5 0,-197.5 -320,-197.5 -320,197.5"/><polygon points="-160,-357.5 160,-357.5 160,-37.5 -160,-37.5"/></g><rect x="-525" y="-325" width="1050" height="650" id="FK6RY8eWxpT7ByNfDRJK_pad-25"/><g id="FK6RY8eWxpT7ByNfDRJK_pad-26"><polygon points="-292.217,-292.217 292.217,-292.217 292.217,292.217 -292.217,292.217"/><circle cx="-292.217" cy="-292.217" r="250"/><circle cx="292.217" cy="-292.217" r="250"/><circle cx="292.217" cy="292.217" r="250"/><circle cx="-292.217" cy="292.217" r="250"/><polygon points="-292.217,-542.217 292.217,-542.217 292.217,-42.217 -292.217,-42.217"/><polygon points="542.217,-292.217 542.217,292.217 42.217,292.217 42.217,-292.217"/><polygon points="292.217,42.217 -292.217,42.217 -292.217,542.217 292.217,542.217"/><polygon points="-42.217,292.217 -42.217,-292.217 -542.217,-292.217 -542.217,292.217"/></g><g id="FK6RY8eWxpT7ByNfDRJK_pad-27"><polygon points="-387.5,-50 387.5,-50 387.5,50 -387.5,50"/><circle cx="-387.5" cy="-50" r="50"/><circle cx="387.5" cy="-50" r="50"/><circle cx="387.5" cy="50" r="50"/><circle cx="-387.5" cy="50" r="50"/><polygon points="-387.5,-100 387.5,-100 387.5,0 -387.5,0"/><polygon points="437.5,-50 437.5,50 337.5,50 337.5,-50"/><polygon points="387.5,0 -387.5,0 -387.5,100 387.5,100"/><polygon points="-337.5,50 -337.5,-50 -437.5,-50 -437.5,50"/></g><g id="FK6RY8eWxpT7ByNfDRJK_pad-28"><polygon points="-50,-387.5 50,-387.5 50,387.5 -50,387.5"/><circle cx="-50" cy="-387.5" r="50"/><circle cx="50" cy="-387.5" r="50"/><circle cx="50" cy="387.5" r="50"/><circle cx="-50" cy="387.5" r="50"/><polygon points="-50,-437.5 50,-437.5 50,-337.5 -50,-337.5"/><polygon points="100,-387.5 100,387.5 0,387.5 0,-387.5"/><polygon points="50,337.5 -50,337.5 -50,437.5 50,437.5"/><polygon points="0,387.5 0,-387.5 -100,-387.5 -100,387.5"/></g><rect x="-750" y="-1000" width="1500" height="2000" id="FK6RY8eWxpT7ByNfDRJK_pad-29"/><rect x="-1900" y="-1000" width="3800" height="2000" id="FK6RY8eWxpT7ByNfDRJK_pad-30"/><rect x="-2800" y="-1050" width="5600" height="2100" id="FK6RY8eWxpT7ByNfDRJK_pad-31"/></defs><g transform="translate(0,-179275) scale(1,-1)" fill="currentColor" stroke="currentColor"><use xlink:href="#FK6RY8eWxpT7ByNfDRJK_pad-10" x="98045" y="-69405"/><use xlink:href="#FK6RY8eWxpT7ByNfDRJK_pad-10" x="97395" y="-69405"/><use xlink:href="#FK6RY8eWxpT7ByNfDRJK_pad-10" x="96745" y="-69405"/><use xlink:href="#FK6RY8eWxpT7ByNfDRJK_pad-10" x="96095" y="-69405"/><use xlink:href="#FK6RY8eWxpT7ByNfDRJK_pad-10" x="95445" y="-69405"/><use xlink:href="#FK6RY8eWxpT7ByNfDRJK_pad-11" x="97705" y="-66255"/><use xlink:href="#FK6RY8eWxpT7ByNfDRJK_pad-12" x="99475" y="-67455"/><use xlink:href="#FK6RY8eWxpT7ByNfDRJK_pad-12" x="93995" y="-67455"/><use xlink:href="#FK6RY8eWxpT7ByNfDRJK_pad-13" x="99695" y="-68205"/><use xlink:href="#FK6RY8eWxpT7ByNfDRJK_pad-11" x="95785" y="-66255"/><use xlink:href="#FK6RY8eWxpT7ByNfDRJK_pad-14" x="93845" y="-69525"/><use xlink:href="#FK6RY8eWxpT7ByNfDRJK_pad-13" x="93745" y="-68205"/><use xlink:href="#FK6RY8eWxpT7ByNfDRJK_pad-14" x="99595" y="-69505"/><use xlink:href="#FK6RY8eWxpT7ByNfDRJK_pad-15" x="97190" y="-95720"/><use xlink:href="#FK6RY8eWxpT7ByNfDRJK_pad-15" x="97190" y="-96855"/><use xlink:href="#FK6RY8eWxpT7ByNfDRJK_pad-16" x="96710" y="-82160"/><use xlink:href="#FK6RY8eWxpT7ByNfDRJK_pad-16" x="96710" y="-81025"/><use xlink:href="#FK6RY8eWxpT7ByNfDRJK_pad-17" x="91767.5" y="-76630"/><use xlink:href="#FK6RY8eWxpT7ByNfDRJK_pad-17" x="90632.5" y="-76630"/><use xlink:href="#FK6RY8eWxpT7ByNfDRJK_pad-18" x="102900" y="-90810"/><use xlink:href="#FK6RY8eWxpT7ByNfDRJK_pad-18" x="104035" y="-90810"/><use xlink:href="#FK6RY8eWxpT7ByNfDRJK_pad-17" x="97007.5" y="-99210"/><use xlink:href="#FK6RY8eWxpT7ByNfDRJK_pad-17" x="95872.5" y="-99210"/><use xlink:href="#FK6RY8eWxpT7ByNfDRJK_pad-19" x="103832.5" y="-69310"/><use xlink:href="#FK6RY8eWxpT7ByNfDRJK_pad-19" x="105907.5" y="-69310"/><use xlink:href="#FK6RY8eWxpT7ByNfDRJK_pad-20" x="84570" y="-78615"/><use xlink:href="#FK6RY8eWxpT7ByNfDRJK_pad-20" x="84570" y="-79885"/><use xlink:href="#FK6RY8eWxpT7ByNfDRJK_pad-20" x="84570" y="-81155"/><use xlink:href="#FK6RY8eWxpT7ByNfDRJK_pad-20" x="84570" y="-82425"/><use xlink:href="#FK6RY8eWxpT7ByNfDRJK_pad-20" x="91770" y="-82425"/><use xlink:href="#FK6RY8eWxpT7ByNfDRJK_pad-20" x="91770" y="-81155"/><use xlink:href="#FK6RY8eWxpT7ByNfDRJK_pad-20" x="91770" y="-79885"/><use xlink:href="#FK6RY8eWxpT7ByNfDRJK_pad-20" x="91770" y="-78615"/><use xlink:href="#FK6RY8eWxpT7ByNfDRJK_pad-18" x="102890" y="-85572.5"/><use xlink:href="#FK6RY8eWxpT7ByNfDRJK_pad-18" x="104025" y="-85572.5"/><use xlink:href="#FK6RY8eWxpT7ByNfDRJK_pad-21" x="84570" y="-75392.5"/><use xlink:href="#FK6RY8eWxpT7ByNfDRJK_pad-21" x="84570" y="-76587.5"/><use xlink:href="#FK6RY8eWxpT7ByNfDRJK_pad-21" x="86130" y="-75392.5"/><use xlink:href="#FK6RY8eWxpT7ByNfDRJK_pad-21" x="86130" y="-76587.5"/><use xlink:href="#FK6RY8eWxpT7ByNfDRJK_pad-22" x="205990" y="-113330"/><use xlink:href="#FK6RY8eWxpT7ByNfDRJK_pad-22" x="205990" y="-112830"/><use xlink:href="#FK6RY8eWxpT7ByNfDRJK_pad-22" x="205990" y="-112330"/><use xlink:href="#FK6RY8eWxpT7ByNfDRJK_pad-22" x="205990" y="-111830"/><use xlink:href="#FK6RY8eWxpT7ByNfDRJK_pad-22" x="205990" y="-111330"/><use xlink:href="#FK6RY8eWxpT7ByNfDRJK_pad-22" x="205990" y="-110830"/><use xlink:href="#FK6RY8eWxpT7ByNfDRJK_pad-22" x="205990" y="-110330"/><use xlink:href="#FK6RY8eWxpT7ByNfDRJK_pad-22" x="205990" y="-109830"/><use xlink:href="#FK6RY8eWxpT7ByNfDRJK_pad-22" x="205990" y="-109330"/><use xlink:href="#FK6RY8eWxpT7ByNfDRJK_pad-22" x="205990" y="-108830"/><use xlink:href="#FK6RY8eWxpT7ByNfDRJK_pad-23" x="208640" y="-114120"/><use xlink:href="#FK6RY8eWxpT7ByNfDRJK_pad-23" x="208640" y="-108040"/><use xlink:href="#FK6RY8eWxpT7ByNfDRJK_pad-22" x="82289.568" y="-90380"/><use xlink:href="#FK6RY8eWxpT7ByNfDRJK_pad-22" x="82289.568" y="-90880"/><use xlink:href="#FK6RY8eWxpT7ByNfDRJK_pad-22" x="82289.568" y="-91380"/><use xlink:href="#FK6RY8eWxpT7ByNfDRJK_pad-22" x="82289.568" y="-91880"/><use xlink:href="#FK6RY8eWxpT7ByNfDRJK_pad-22" x="82289.568" y="-92380"/><use xlink:href="#FK6RY8eWxpT7ByNfDRJK_pad-22" x="82289.568" y="-92880"/><use xlink:href="#FK6RY8eWxpT7ByNfDRJK_pad-22" x="82289.568" y="-93380"/><use xlink:href="#FK6RY8eWxpT7ByNfDRJK_pad-22" x="82289.568" y="-93880"/><use xlink:href="#FK6RY8eWxpT7ByNfDRJK_pad-22" x="82289.568" y="-94380"/><use xlink:href="#FK6RY8eWxpT7ByNfDRJK_pad-22" x="82289.568" y="-94880"/><use xlink:href="#FK6RY8eWxpT7ByNfDRJK_pad-23" x="79639.568" y="-89590"/><use xlink:href="#FK6RY8eWxpT7ByNfDRJK_pad-23" x="79639.568" y="-95670"/><use xlink:href="#FK6RY8eWxpT7ByNfDRJK_pad-24" x="98740" y="-83367.5"/><use xlink:href="#FK6RY8eWxpT7ByNfDRJK_pad-24" x="98740" y="-82172.5"/><use xlink:href="#FK6RY8eWxpT7ByNfDRJK_pad-19" x="105062.5" y="-81830"/><use xlink:href="#FK6RY8eWxpT7ByNfDRJK_pad-19" x="107137.5" y="-81830"/><use xlink:href="#FK6RY8eWxpT7ByNfDRJK_pad-16" x="95710" y="-82160"/><use xlink:href="#FK6RY8eWxpT7ByNfDRJK_pad-16" x="95710" y="-81025"/><use xlink:href="#FK6RY8eWxpT7ByNfDRJK_pad-24" x="97720" y="-83362.5"/><use xlink:href="#FK6RY8eWxpT7ByNfDRJK_pad-24" x="97720" y="-82167.5"/><use xlink:href="#FK6RY8eWxpT7ByNfDRJK_pad-17" x="90540" y="-90810"/><use xlink:href="#FK6RY8eWxpT7ByNfDRJK_pad-17" x="89405" y="-90810"/><use xlink:href="#FK6RY8eWxpT7ByNfDRJK_pad-16" x="99750" y="-83330"/><use xlink:href="#FK6RY8eWxpT7ByNfDRJK_pad-16" x="99750" y="-82195"/><use xlink:href="#FK6RY8eWxpT7ByNfDRJK_pad-18" x="102890" y="-83912.5"/><use xlink:href="#FK6RY8eWxpT7ByNfDRJK_pad-18" x="104025" y="-83912.5"/><use xlink:href="#FK6RY8eWxpT7ByNfDRJK_pad-15" x="98350" y="-95722.5"/><use xlink:href="#FK6RY8eWxpT7ByNfDRJK_pad-15" x="98350" y="-96857.5"/><use xlink:href="#FK6RY8eWxpT7ByNfDRJK_pad-24" x="99550" y="-96877.5"/><use xlink:href="#FK6RY8eWxpT7ByNfDRJK_pad-24" x="99550" y="-95682.5"/><use xlink:href="#FK6RY8eWxpT7ByNfDRJK_pad-18" x="92582.5" y="-99210"/><use xlink:href="#FK6RY8eWxpT7ByNfDRJK_pad-18" x="93717.5" y="-99210"/><use xlink:href="#FK6RY8eWxpT7ByNfDRJK_pad-16" x="100750" y="-83330"/><use xlink:href="#FK6RY8eWxpT7ByNfDRJK_pad-16" x="100750" y="-82195"/><use xlink:href="#FK6RY8eWxpT7ByNfDRJK_pad-25" x="84585" y="-71015"/><use xlink:href="#FK6RY8eWxpT7ByNfDRJK_pad-25" x="88735" y="-71015"/><use xlink:href="#FK6RY8eWxpT7ByNfDRJK_pad-25" x="84585" y="-73165"/><use xlink:href="#FK6RY8eWxpT7ByNfDRJK_pad-25" x="88735" y="-73165"/><use xlink:href="#FK6RY8eWxpT7ByNfDRJK_pad-26" x="96082.5" y="-88905"/><use xlink:href="#FK6RY8eWxpT7ByNfDRJK_pad-26" x="97357.5" y="-90180"/><use xlink:href="#FK6RY8eWxpT7ByNfDRJK_pad-26" x="97357.5" y="-88905"/><use xlink:href="#FK6RY8eWxpT7ByNfDRJK_pad-26" x="96082.5" y="-90180"/><use xlink:href="#FK6RY8eWxpT7ByNfDRJK_pad-27" x="93282.5" y="-86942.5"/><use xlink:href="#FK6RY8eWxpT7ByNfDRJK_pad-27" x="93282.5" y="-87342.5"/><use xlink:href="#FK6RY8eWxpT7ByNfDRJK_pad-27" x="93282.5" y="-87742.5"/><use xlink:href="#FK6RY8eWxpT7ByNfDRJK_pad-27" x="93282.5" y="-88142.5"/><use xlink:href="#FK6RY8eWxpT7ByNfDRJK_pad-27" x="93282.5" y="-88542.5"/><use xlink:href="#FK6RY8eWxpT7ByNfDRJK_pad-27" x="93282.5" y="-88942.5"/><use xlink:href="#FK6RY8eWxpT7ByNfDRJK_pad-27" x="93282.5" y="-89342.5"/><use xlink:href="#FK6RY8eWxpT7ByNfDRJK_pad-27" x="93282.5" y="-89742.5"/><use xlink:href="#FK6RY8eWxpT7ByNfDRJK_pad-27" x="93282.5" y="-90142.5"/><use xlink:href="#FK6RY8eWxpT7ByNfDRJK_pad-27" x="93282.5" y="-90542.5"/><use xlink:href="#FK6RY8eWxpT7ByNfDRJK_pad-27" x="93282.5" y="-90942.5"/><use xlink:href="#FK6RY8eWxpT7ByNfDRJK_pad-27" x="93282.5" y="-91342.5"/><use xlink:href="#FK6RY8eWxpT7ByNfDRJK_pad-27" x="93282.5" y="-91742.5"/><use xlink:href="#FK6RY8eWxpT7ByNfDRJK_pad-27" x="93282.5" y="-92142.5"/><use xlink:href="#FK6RY8eWxpT7ByNfDRJK_pad-28" x="94120" y="-92980"/><use xlink:href="#FK6RY8eWxpT7ByNfDRJK_pad-28" x="94520" y="-92980"/><use xlink:href="#FK6RY8eWxpT7ByNfDRJK_pad-28" x="94920" y="-92980"/><use xlink:href="#FK6RY8eWxpT7ByNfDRJK_pad-28" x="95320" y="-92980"/><use xlink:href="#FK6RY8eWxpT7ByNfDRJK_pad-28" x="95720" y="-92980"/><use xlink:href="#FK6RY8eWxpT7ByNfDRJK_pad-28" x="96120" y="-92980"/><use xlink:href="#FK6RY8eWxpT7ByNfDRJK_pad-28" x="96520" y="-92980"/><use xlink:href="#FK6RY8eWxpT7ByNfDRJK_pad-28" x="96920" y="-92980"/><use xlink:href="#FK6RY8eWxpT7ByNfDRJK_pad-28" x="97320" y="-92980"/><use xlink:href="#FK6RY8eWxpT7ByNfDRJK_pad-28" x="97720" y="-92980"/><use xlink:href="#FK6RY8eWxpT7ByNfDRJK_pad-28" x="98120" y="-92980"/><use xlink:href="#FK6RY8eWxpT7ByNfDRJK_pad-28" x="98520" y="-92980"/><use xlink:href="#FK6RY8eWxpT7ByNfDRJK_pad-28" x="98920" y="-92980"/><use xlink:href="#FK6RY8eWxpT7ByNfDRJK_pad-28" x="99320" y="-92980"/><use xlink:href="#FK6RY8eWxpT7ByNfDRJK_pad-27" x="100157.5" y="-92142.5"/><use xlink:href="#FK6RY8eWxpT7ByNfDRJK_pad-27" x="100157.5" y="-91742.5"/><use xlink:href="#FK6RY8eWxpT7ByNfDRJK_pad-27" x="100157.5" y="-91342.5"/><use xlink:href="#FK6RY8eWxpT7ByNfDRJK_pad-27" x="100157.5" y="-90942.5"/><use xlink:href="#FK6RY8eWxpT7ByNfDRJK_pad-27" x="100157.5" y="-90542.5"/><use xlink:href="#FK6RY8eWxpT7ByNfDRJK_pad-27" x="100157.5" y="-90142.5"/><use xlink:href="#FK6RY8eWxpT7ByNfDRJK_pad-27" x="100157.5" y="-89742.5"/><use xlink:href="#FK6RY8eWxpT7ByNfDRJK_pad-27" x="100157.5" y="-89342.5"/><use xlink:href="#FK6RY8eWxpT7ByNfDRJK_pad-27" x="100157.5" y="-88942.5"/><use xlink:href="#FK6RY8eWxpT7ByNfDRJK_pad-27" x="100157.5" y="-88542.5"/><use xlink:href="#FK6RY8eWxpT7ByNfDRJK_pad-27" x="100157.5" y="-88142.5"/><use xlink:href="#FK6RY8eWxpT7ByNfDRJK_pad-27" x="100157.5" y="-87742.5"/><use xlink:href="#FK6RY8eWxpT7ByNfDRJK_pad-27" x="100157.5" y="-87342.5"/><use xlink:href="#FK6RY8eWxpT7ByNfDRJK_pad-27" x="100157.5" y="-86942.5"/><use xlink:href="#FK6RY8eWxpT7ByNfDRJK_pad-28" x="99320" y="-86105"/><use xlink:href="#FK6RY8eWxpT7ByNfDRJK_pad-28" x="98920" y="-86105"/><use xlink:href="#FK6RY8eWxpT7ByNfDRJK_pad-28" x="98520" y="-86105"/><use xlink:href="#FK6RY8eWxpT7ByNfDRJK_pad-28" x="98120" y="-86105"/><use xlink:href="#FK6RY8eWxpT7ByNfDRJK_pad-28" x="97720" y="-86105"/><use xlink:href="#FK6RY8eWxpT7ByNfDRJK_pad-28" x="97320" y="-86105"/><use xlink:href="#FK6RY8eWxpT7ByNfDRJK_pad-28" x="96920" y="-86105"/><use xlink:href="#FK6RY8eWxpT7ByNfDRJK_pad-28" x="96520" y="-86105"/><use xlink:href="#FK6RY8eWxpT7ByNfDRJK_pad-28" x="96120" y="-86105"/><use xlink:href="#FK6RY8eWxpT7ByNfDRJK_pad-28" x="95720" y="-86105"/><use xlink:href="#FK6RY8eWxpT7ByNfDRJK_pad-28" x="95320" y="-86105"/><use xlink:href="#FK6RY8eWxpT7ByNfDRJK_pad-28" x="94920" y="-86105"/><use xlink:href="#FK6RY8eWxpT7ByNfDRJK_pad-28" x="94520" y="-86105"/><use xlink:href="#FK6RY8eWxpT7ByNfDRJK_pad-28" x="94120" y="-86105"/><use xlink:href="#FK6RY8eWxpT7ByNfDRJK_pad-29" x="107340" y="-72440"/><use xlink:href="#FK6RY8eWxpT7ByNfDRJK_pad-29" x="105040" y="-72440"/><use xlink:href="#FK6RY8eWxpT7ByNfDRJK_pad-30" x="105040" y="-78740"/><use xlink:href="#FK6RY8eWxpT7ByNfDRJK_pad-29" x="102740" y="-72440"/><use xlink:href="#FK6RY8eWxpT7ByNfDRJK_pad-24" x="95400" y="-97567.5"/><use xlink:href="#FK6RY8eWxpT7ByNfDRJK_pad-24" x="95400" y="-96372.5"/><use xlink:href="#FK6RY8eWxpT7ByNfDRJK_pad-31" x="90340" y="-103740"/><use xlink:href="#FK6RY8eWxpT7ByNfDRJK_pad-31" x="99340" y="-103740"/><use xlink:href="#FK6RY8eWxpT7ByNfDRJK_pad-17" x="90517.5" y="-86672.5"/><use xlink:href="#FK6RY8eWxpT7ByNfDRJK_pad-17" x="89382.5" y="-86672.5"/></g></svg>