<svg version="1.1" xmlns="http://www.w3.org/2000/svg" xmlns:xlink="http://www.w3.org/1999/xlink" stroke-linecap="round" stroke-linejoin="round" stroke-width="0" fill-rule="evenodd" width="130.427432mm" height="73.263333mm" viewBox="78926.068 -138108.333 130427.432 73263.333" id="D1baBvplirQKbwQr-T-o"><g transform="translate(0,-202953.33300000004) scale(1,-1)" fill="currentColor" stroke="currentColor"><path d="M 94461.666 -70457.38 94461.666 -71171.666 94414.047 -71314.523 94318.809 -71409.761 94175.952 -71457.38 94080.714 -71457.38 M 95461.666 -71457.38 94890.238 -71457.38 M 95175.952 -71457.38 95175.952 -70457.38 95080.714 -70600.238 94985.476 -70695.476 94890.238 -70743.095 M 108354.761 -137809.523 108402.38 -137666.666 108402.38 -137428.571 108354.761 -137333.333 108307.142 -137285.714 108211.904 -137238.095 108116.666 -137238.095 108021.428 -137285.714 107973.809 -137333.333 107926.19 -137428.571 107878.571 -137619.047 107830.952 -137714.285 107783.333 -137761.904 107688.095 -137809.523 107592.857 -137809.523 107497.619 -137761.904 107450 -137714.285 107402.38 -137619.047 107402.38 -137380.952 107450 -137238.095 M 107402.38 -136904.761 108402.38 -136666.666 107688.095 -136476.19 108402.38 -136285.714 107402.38 -136047.619 M 108402.38 -135142.857 108402.38 -135714.285 M 108402.38 -135428.571 107402.38 -135428.571 107545.238 -135523.809 107640.476 -135619.047 107688.095 -135714.285 M 107497.619 -134761.904 107450 -134714.285 107402.38 -134619.047 107402.38 -134380.952 107450 -134285.714 107497.619 -134238.095 107592.857 -134190.476 107688.095 -134190.476 107830.952 -134238.095 108402.38 -134809.523 108402.38 -134190.476 M 191654.761 -129809.523 191702.38 -129666.666 191702.38 -129428.571 191654.761 -129333.333 191607.142 -129285.714 191511.904 -129238.095 191416.666 -129238.095 191321.428 -129285.714 191273.809 -129333.333 191226.19 -129428.571 191178.571 -129619.047 191130.952 -129714.285 191083.333 -129761.904 190988.095 -129809.523 190892.857 -129809.523 190797.619 -129761.904 190750 -129714.285 190702.38 -129619.047 190702.38 -129380.952 190750 -129238.095 M 190702.38 -128904.761 191702.38 -128666.666 190988.095 -128476.19 191702.38 -128285.714 190702.38 -128047.619 M 190702.38 -127761.904 190702.38 -127142.857 191083.333 -127476.19 191083.333 -127333.333 191130.952 -127238.095 191178.571 -127190.476 191273.809 -127142.857 191511.904 -127142.857 191607.142 -127190.476 191654.761 -127238.095 191702.38 -127333.333 191702.38 -127619.047 191654.761 -127714.285 191607.142 -127761.904 M 191702.38 -126666.666 191702.38 -126476.19 191654.761 -126380.952 191607.142 -126333.333 191464.285 -126238.095 191273.809 -126190.476 190892.857 -126190.476 190797.619 -126238.095 190750 -126285.714 190702.38 -126380.952 190702.38 -126571.428 190750 -126666.666 190797.619 -126714.285 190892.857 -126761.904 191130.952 -126761.904 191226.19 -126714.285 191273.809 -126666.666 191321.428 -126571.428 191321.428 -126380.952 191273.809 -126285.714 191226.19 -126238.095 191130.952 -126190.476 M 95967.142 -94977.142 95919.523 -95024.761 95776.666 -95072.38 95681.428 -95072.38 95538.571 -95024.761 95443.333 -94929.523 95395.714 -94834.285 95348.095 -94643.809 95348.095 -94500.952 95395.714 -94310.476 95443.333 -94215.238 95538.571 -94120 95681.428 -94072.38 95776.666 -94072.38 95919.523 -94120 95967.142 -94167.619 M 96919.523 -95072.38 96348.095 -95072.38 M 96633.809 -95072.38 96633.809 -94072.38 96538.571 -94215.238 96443.333 -94310.476 96348.095 -94358.095 M 97538.571 -94072.38 97633.809 -94072.38 97729.047 -94120 97776.666 -94167.619 97824.285 -94262.857 97871.904 -94453.333 97871.904 -94691.428 97824.285 -94881.904 97776.666 -94977.142 97729.047 -95024.761 97633.809 -95072.38 97538.571 -95072.38 97443.333 -95024.761 97395.714 -94977.142 97348.095 -94881.904 97300.476 -94691.428 97300.476 -94453.333 97348.095 -94262.857 97395.714 -94167.619 97443.333 -94120 97538.571 -94072.38 M 96827.142 -78966.666 96874.761 -79014.285 96922.38 -79157.142 96922.38 -79252.38 96874.761 -79395.238 96779.523 -79490.476 96684.285 -79538.095 96493.809 -79585.714 96350.952 -79585.714 96160.476 -79538.095 96065.238 -79490.476 95970 -79395.238 95922.38 -79252.38 95922.38 -79157.142 95970 -79014.285 96017.619 -78966.666 M 95922.38 -78061.904 95922.38 -78538.095 96398.571 -78585.714 96350.952 -78538.095 96303.333 -78442.857 96303.333 -78204.761 96350.952 -78109.523 96398.571 -78061.904 96493.809 -78014.285 96731.904 -78014.285 96827.142 -78061.904 96874.761 -78109.523 96922.38 -78204.761 96922.38 -78442.857 96874.761 -78538.095 96827.142 -78585.714 M 84554.761 -121333.333 84602.38 -121190.476 84602.38 -120952.38 84554.761 -120857.142 84507.142 -120809.523 84411.904 -120761.904 84316.666 -120761.904 84221.428 -120809.523 84173.809 -120857.142 84126.19 -120952.38 84078.571 -121142.857 84030.952 -121238.095 83983.333 -121285.714 83888.095 -121333.333 83792.857 -121333.333 83697.619 -121285.714 83650 -121238.095 83602.38 -121142.857 83602.38 -120904.761 83650 -120761.904 M 83602.38 -120428.571 84602.38 -120190.476 83888.095 -120000 84602.38 -119809.523 83602.38 -119571.428 M 83697.619 -119238.095 83650 -119190.476 83602.38 -119095.238 83602.38 -118857.142 83650 -118761.904 83697.619 -118714.285 83792.857 -118666.666 83888.095 -118666.666 84030.952 -118714.285 84602.38 -119285.714 84602.38 -118666.666 M 91033.333 -75867.142 90985.714 -75914.761 90842.857 -75962.38 90747.619 -75962.38 90604.761 -75914.761 90509.523 -75819.523 90461.904 -75724.285 90414.285 -75533.809 90414.285 -75390.952 90461.904 -75200.476 90509.523 -75105.238 90604.761 -75010 90747.619 -74962.38 90842.857 -74962.38 90985.714 -75010 91033.333 -75057.619 M 91890.476 -75295.714 91890.476 -75962.38 M 91652.38 -74914.761 91414.285 -75629.047 92033.333 -75629.047 M 167854.761 -121809.523 167902.38 -121666.666 167902.38 -121428.571 167854.761 -121333.333 167807.142 -121285.714 167711.904 -121238.095 167616.666 -121238.095 167521.428 -121285.714 167473.809 -121333.333 167426.19 -121428.571 167378.571 -121619.047 167330.952 -121714.285 167283.333 -121761.904 167188.095 -121809.523 167092.857 -121809.523 166997.619 -121761.904 166950 -121714.285 166902.38 -121619.047 166902.38 -121380.952 166950 -121238.095 M 166902.38 -120904.761 167902.38 -120666.666 167188.095 -120476.19 167902.38 -120285.714 166902.38 -120047.619 M 166902.38 -119761.904 166902.38 -119142.857 167283.333 -119476.19 167283.333 -119333.333 167330.952 -119238.095 167378.571 -119190.476 167473.809 -119142.857 167711.904 -119142.857 167807.142 -119190.476 167854.761 -119238.095 167902.38 -119333.333 167902.38 -119619.047 167854.761 -119714.285 167807.142 -119761.904 M 166902.38 -118523.809 166902.38 -118428.571 166950 -118333.333 166997.619 -118285.714 167092.857 -118238.095 167283.333 -118190.476 167521.428 -118190.476 167711.904 -118238.095 167807.142 -118285.714 167854.761 -118333.333 167902.38 -118428.571 167902.38 -118523.809 167854.761 -118619.047 167807.142 -118666.666 167711.904 -118714.285 167521.428 -118761.904 167283.333 -118761.904 167092.857 -118714.285 166997.619 -118666.666 166950 -118619.047 166902.38 -118523.809 M 84554.761 -113333.333 84602.38 -113190.476 84602.38 -112952.38 84554.761 -112857.142 84507.142 -112809.523 84411.904 -112761.904 84316.666 -112761.904 84221.428 -112809.523 84173.809 -112857.142 84126.19 -112952.38 84078.571 -113142.857 84030.952 -113238.095 83983.333 -113285.714 83888.095 -113333.333 83792.857 -113333.333 83697.619 -113285.714 83650 -113238.095 83602.38 -113142.857 83602.38 -112904.761 83650 -112761.904 M 83602.38 -112428.571 84602.38 -112190.476 83888.095 -112000 84602.38 -111809.523 83602.38 -111571.428 M 84602.38 -110666.666 84602.38 -111238.095 M 84602.38 -110952.38 83602.38 -110952.38 83745.238 -111047.619 83840.476 -111142.857 83888.095 -111238.095 M 103300.833 -90007.142 103253.214 -90054.761 103110.357 -90102.38 103015.119 -90102.38 102872.261 -90054.761 102777.023 -89959.523 102729.404 -89864.285 102681.785 -89673.809 102681.785 -89530.952 102729.404 -89340.476 102777.023 -89245.238 102872.261 -89150 103015.119 -89102.38 103110.357 -89102.38 103253.214 -89150 103300.833 -89197.619 M 103872.261 -89530.952 103777.023 -89483.333 103729.404 -89435.714 103681.785 -89340.476 103681.785 -89292.857 103729.404 -89197.619 103777.023 -89150 103872.261 -89102.38 104062.738 -89102.38 104157.976 -89150 104205.595 -89197.619 104253.214 -89292.857 104253.214 -89340.476 104205.595 -89435.714 104157.976 -89483.333 104062.738 -89530.952 103872.261 -89530.952 103777.023 -89578.571 103729.404 -89626.19 103681.785 -89721.428 103681.785 -89911.904 103729.404 -90007.142 103777.023 -90054.761 103872.261 -90102.38 104062.738 -90102.38 104157.976 -90054.761 104205.595 -90007.142 104253.214 -89911.904 104253.214 -89721.428 104205.595 -89626.19 104157.976 -89578.571 104062.738 -89530.952 M 95797.142 -100727.142 95749.523 -100774.761 95606.666 -100822.38 95511.428 -100822.38 95368.571 -100774.761 95273.333 -100679.523 95225.714 -100584.285 95178.095 -100393.809 95178.095 -100250.952 95225.714 -100060.476 95273.333 -99965.238 95368.571 -99870 95511.428 -99822.38 95606.666 -99822.38 95749.523 -99870 95797.142 -99917.619 M 96749.523 -100822.38 96178.095 -100822.38 M 96463.809 -100822.38 96463.809 -99822.38 96368.571 -99965.238 96273.333 -100060.476 96178.095 -100108.095 M 97606.666 -99822.38 97416.19 -99822.38 97320.952 -99870 97273.333 -99917.619 97178.095 -100060.476 97130.476 -100250.952 97130.476 -100631.904 97178.095 -100727.142 97225.714 -100774.761 97320.952 -100822.38 97511.428 -100822.38 97606.666 -100774.761 97654.285 -100727.142 97701.904 -100631.904 97701.904 -100393.809 97654.285 -100298.571 97606.666 -100250.952 97511.428 -100203.333 97320.952 -100203.333 97225.714 -100250.952 97178.095 -100298.571 97130.476 -100393.809 M 104227.142 -67987.142 104179.523 -68034.761 104036.666 -68082.38 103941.428 -68082.38 103798.571 -68034.761 103703.333 -67939.523 103655.714 -67844.285 103608.095 -67653.809 103608.095 -67510.952 103655.714 -67320.476 103703.333 -67225.238 103798.571 -67130 103941.428 -67082.38 104036.666 -67082.38 104179.523 -67130 104227.142 -67177.619 M 105179.523 -68082.38 104608.095 -68082.38 M 104893.809 -68082.38 104893.809 -67082.38 104798.571 -67225.238 104703.333 -67320.476 104608.095 -67368.095 M 105512.857 -67082.38 106131.904 -67082.38 105798.571 -67463.333 105941.428 -67463.333 106036.666 -67510.952 106084.285 -67558.571 106131.904 -67653.809 106131.904 -67891.904 106084.285 -67987.142 106036.666 -68034.761 105941.428 -68082.38 105655.714 -68082.38 105560.476 -68034.761 105512.857 -67987.142 M 89374.694 -138033.333 89422.313 -137890.476 89422.313 -137652.38 89374.694 -137557.142 89327.075 -137509.523 89231.837 -137461.904 89136.599 -137461.904 89041.361 -137509.523 88993.742 -137557.142 88946.123 -137652.38 88898.504 -137842.857 88850.885 -137938.095 88803.266 -137985.714 88708.028 -138033.333 88612.79 -138033.333 88517.552 -137985.714 88469.933 -137938.095 88422.313 -137842.857 88422.313 -137604.761 88469.933 -137461.904 M 88422.313 -137128.571 89422.313 -136890.476 88708.028 -136700 89422.313 -136509.523 88422.313 -136271.428 M 88755.647 -135461.904 89422.313 -135461.904 M 88374.694 -135700 89088.98 -135938.095 89088.98 -135319.047 M 84454.761 -137323.333 84502.38 -137180.476 84502.38 -136942.38 84454.761 -136847.142 84407.142 -136799.523 84311.904 -136751.904 84216.666 -136751.904 84121.428 -136799.523 84073.809 -136847.142 84026.19 -136942.38 83978.571 -137132.857 83930.952 -137228.095 83883.333 -137275.714 83788.095 -137323.333 83692.857 -137323.333 83597.619 -137275.714 83550 -137228.095 83502.38 -137132.857 83502.38 -136894.761 83550 -136751.904 M 83502.38 -136418.571 84502.38 -136180.476 83788.095 -135990 84502.38 -135799.523 83502.38 -135561.428 M 83835.714 -134751.904 84502.38 -134751.904 M 83454.761 -134990 84169.047 -135228.095 84169.047 -134609.047 M 96454.761 -137333.333 96502.38 -137190.476 96502.38 -136952.38 96454.761 -136857.142 96407.142 -136809.523 96311.904 -136761.904 96216.666 -136761.904 96121.428 -136809.523 96073.809 -136857.142 96026.19 -136952.38 95978.571 -137142.857 95930.952 -137238.095 95883.333 -137285.714 95788.095 -137333.333 95692.857 -137333.333 95597.619 -137285.714 95550 -137238.095 95502.38 -137142.857 95502.38 -136904.761 95550 -136761.904 M 95502.38 -136428.571 96502.38 -136190.476 95788.095 -136000 96502.38 -135809.523 95502.38 -135571.428 M 95930.952 -135047.619 95883.333 -135142.857 95835.714 -135190.476 95740.476 -135238.095 95692.857 -135238.095 95597.619 -135190.476 95550 -135142.857 95502.38 -135047.619 95502.38 -134857.142 95550 -134761.904 95597.619 -134714.285 95692.857 -134666.666 95740.476 -134666.666 95835.714 -134714.285 95883.333 -134761.904 95930.952 -134857.142 95930.952 -135047.619 95978.571 -135142.857 96026.19 -135190.476 96121.428 -135238.095 96311.904 -135238.095 96407.142 -135190.476 96454.761 -135142.857 96502.38 -135047.619 96502.38 -134857.142 96454.761 -134761.904 96407.142 -134714.285 96311.904 -134666.666 96121.428 -134666.666 96026.19 -134714.285 95978.571 -134761.904 95930.952 -134857.142 M 87388.095 -83652.38 87388.095 -84461.904 87435.714 -84557.142 87483.333 -84604.761 87578.571 -84652.38 87769.047 -84652.38 87864.285 -84604.761 87911.904 -84557.142 87959.523 -84461.904 87959.523 -83652.38 M 88959.523 -84652.38 88388.095 -84652.38 M 88673.809 -84652.38 88673.809 -83652.38 88578.571 -83795.238 88483.333 -83890.476 88388.095 -83938.095 M 179754.761 -113809.523 179802.38 -113666.666 179802.38 -113428.571 179754.761 -113333.333 179707.142 -113285.714 179611.904 -113238.095 179516.666 -113238.095 179421.428 -113285.714 179373.809 -113333.333 179326.19 -113428.571 179278.571 -113619.047 179230.952 -113714.285 179183.333 -113761.904 179088.095 -113809.523 178992.857 -113809.523 178897.619 -113761.904 178850 -113714.285 178802.38 -113619.047 178802.38 -113380.952 178850 -113238.095 M 178802.38 -112904.761 179802.38 -112666.666 179088.095 -112476.19 179802.38 -112285.714 178802.38 -112047.619 M 178802.38 -111761.904 178802.38 -111142.857 179183.333 -111476.19 179183.333 -111333.333 179230.952 -111238.095 179278.571 -111190.476 179373.809 -111142.857 179611.904 -111142.857 179707.142 -111190.476 179754.761 -111238.095 179802.38 -111333.333 179802.38 -111619.047 179754.761 -111714.285 179707.142 -111761.904 M 178802.38 -110809.523 178802.38 -110190.476 179183.333 -110523.809 179183.333 -110380.952 179230.952 -110285.714 179278.571 -110238.095 179373.809 -110190.476 179611.904 -110190.476 179707.142 -110238.095 179754.761 -110285.714 179802.38 -110380.952 179802.38 -110666.666 179754.761 -110761.904 179707.142 -110809.523 M 155954.761 -121809.523 156002.38 -121666.666 156002.38 -121428.571 155954.761 -121333.333 155907.142 -121285.714 155811.904 -121238.095 155716.666 -121238.095 155621.428 -121285.714 155573.809 -121333.333 155526.19 -121428.571 155478.571 -121619.047 155430.952 -121714.285 155383.333 -121761.904 155288.095 -121809.523 155192.857 -121809.523 155097.619 -121761.904 155050 -121714.285 155002.38 -121619.047 155002.38 -121380.952 155050 -121238.095 M 155002.38 -120904.761 156002.38 -120666.666 155288.095 -120476.19 156002.38 -120285.714 155002.38 -120047.619 M 155097.619 -119714.285 155050 -119666.666 155002.38 -119571.428 155002.38 -119333.333 155050 -119238.095 155097.619 -119190.476 155192.857 -119142.857 155288.095 -119142.857 155430.952 -119190.476 156002.38 -119761.904 156002.38 -119142.857 M 155002.38 -118285.714 155002.38 -118476.19 155050 -118571.428 155097.619 -118619.047 155240.476 -118714.285 155430.952 -118761.904 155811.904 -118761.904 155907.142 -118714.285 155954.761 -118666.666 156002.38 -118571.428 156002.38 -118380.952 155954.761 -118285.714 155907.142 -118238.095 155811.904 -118190.476 155573.809 -118190.476 155478.571 -118238.095 155430.952 -118285.714 155383.333 -118380.952 155383.333 -118571.428 155430.952 -118666.666 155478.571 -118714.285 155573.809 -118761.904 M 96454.761 -121333.333 96502.38 -121190.476 96502.38 -120952.38 96454.761 -120857.142 96407.142 -120809.523 96311.904 -120761.904 96216.666 -120761.904 96121.428 -120809.523 96073.809 -120857.142 96026.19 -120952.38 95978.571 -121142.857 95930.952 -121238.095 95883.333 -121285.714 95788.095 -121333.333 95692.857 -121333.333 95597.619 -121285.714 95550 -121238.095 95502.38 -121142.857 95502.38 -120904.761 95550 -120761.904 M 95502.38 -120428.571 96502.38 -120190.476 95788.095 -120000 96502.38 -119809.523 95502.38 -119571.428 M 95502.38 -118761.904 95502.38 -118952.38 95550 -119047.619 95597.619 -119095.238 95740.476 -119190.476 95930.952 -119238.095 96311.904 -119238.095 96407.142 -119190.476 96454.761 -119142.857 96502.38 -119047.619 96502.38 -118857.142 96454.761 -118761.904 96407.142 -118714.285 96311.904 -118666.666 96073.809 -118666.666 95978.571 -118714.285 95930.952 -118761.904 95883.333 -118857.142 95883.333 -119047.619 95930.952 -119142.857 95978.571 -119190.476 96073.809 -119238.095 M 106417.142 -85937.142 106369.523 -85984.761 106226.666 -86032.38 106131.428 -86032.38 105988.571 -85984.761 105893.333 -85889.523 105845.714 -85794.285 105798.095 -85603.809 105798.095 -85460.952 105845.714 -85270.476 105893.333 -85175.238 105988.571 -85080 106131.428 -85032.38 106226.666 -85032.38 106369.523 -85080 106417.142 -85127.619 M 107369.523 -86032.38 106798.095 -86032.38 M 107083.809 -86032.38 107083.809 -85032.38 106988.571 -85175.238 106893.333 -85270.476 106798.095 -85318.095 M 107750.476 -85127.619 107798.095 -85080 107893.333 -85032.38 108131.428 -85032.38 108226.666 -85080 108274.285 -85127.619 108321.904 -85222.857 108321.904 -85318.095 108274.285 -85460.952 107702.857 -86032.38 108321.904 -86032.38 M 132154.761 -113809.523 132202.38 -113666.666 132202.38 -113428.571 132154.761 -113333.333 132107.142 -113285.714 132011.904 -113238.095 131916.666 -113238.095 131821.428 -113285.714 131773.809 -113333.333 131726.19 -113428.571 131678.571 -113619.047 131630.952 -113714.285 131583.333 -113761.904 131488.095 -113809.523 131392.857 -113809.523 131297.619 -113761.904 131250 -113714.285 131202.38 -113619.047 131202.38 -113380.952 131250 -113238.095 M 131202.38 -112904.761 132202.38 -112666.666 131488.095 -112476.19 132202.38 -112285.714 131202.38 -112047.619 M 132202.38 -111142.857 132202.38 -111714.285 M 132202.38 -111428.571 131202.38 -111428.571 131345.238 -111523.809 131440.476 -111619.047 131488.095 -111714.285 M 131202.38 -110809.523 131202.38 -110142.857 132202.38 -110571.428 M 82933.333 -76442.38 82600 -75966.19 M 82361.904 -76442.38 82361.904 -75442.38 82742.857 -75442.38 82838.095 -75490 82885.714 -75537.619 82933.333 -75632.857 82933.333 -75775.714 82885.714 -75870.952 82838.095 -75918.571 82742.857 -75966.19 82361.904 -75966.19 M 83885.714 -76442.38 83314.285 -76442.38 M 83600 -76442.38 83600 -75442.38 83504.761 -75585.238 83409.523 -75680.476 83314.285 -75728.095 M 108354.761 -129809.523 108402.38 -129666.666 108402.38 -129428.571 108354.761 -129333.333 108307.142 -129285.714 108211.904 -129238.095 108116.666 -129238.095 108021.428 -129285.714 107973.809 -129333.333 107926.19 -129428.571 107878.571 -129619.047 107830.952 -129714.285 107783.333 -129761.904 107688.095 -129809.523 107592.857 -129809.523 107497.619 -129761.904 107450 -129714.285 107402.38 -129619.047 107402.38 -129380.952 107450 -129238.095 M 107402.38 -128904.761 108402.38 -128666.666 107688.095 -128476.19 108402.38 -128285.714 107402.38 -128047.619 M 108402.38 -127142.857 108402.38 -127714.285 M 108402.38 -127428.571 107402.38 -127428.571 107545.238 -127523.809 107640.476 -127619.047 107688.095 -127714.285 M 108402.38 -126190.476 108402.38 -126761.904 M 108402.38 -126476.19 107402.38 -126476.19 107545.238 -126571.428 107640.476 -126666.666 107688.095 -126761.904 M 132154.761 -137809.523 132202.38 -137666.666 132202.38 -137428.571 132154.761 -137333.333 132107.142 -137285.714 132011.904 -137238.095 131916.666 -137238.095 131821.428 -137285.714 131773.809 -137333.333 131726.19 -137428.571 131678.571 -137619.047 131630.952 -137714.285 131583.333 -137761.904 131488.095 -137809.523 131392.857 -137809.523 131297.619 -137761.904 131250 -137714.285 131202.38 -137619.047 131202.38 -137380.952 131250 -137238.095 M 131202.38 -136904.761 132202.38 -136666.666 131488.095 -136476.19 132202.38 -136285.714 131202.38 -136047.619 M 131297.619 -135714.285 131250 -135666.666 131202.38 -135571.428 131202.38 -135333.333 131250 -135238.095 131297.619 -135190.476 131392.857 -135142.857 131488.095 -135142.857 131630.952 -135190.476 132202.38 -135761.904 132202.38 -135142.857 M 131202.38 -134523.809 131202.38 -134428.571 131250 -134333.333 131297.619 -134285.714 131392.857 -134238.095 131583.333 -134190.476 131821.428 -134190.476 132011.904 -134238.095 132107.142 -134285.714 132154.761 -134333.333 132202.38 -134428.571 132202.38 -134523.809 132154.761 -134619.047 132107.142 -134666.666 132011.904 -134714.285 131821.428 -134761.904 131583.333 -134761.904 131392.857 -134714.285 131297.619 -134666.666 131250 -134619.047 131202.38 -134523.809 M 87403.333 -76432.38 87070 -75956.19 M 86831.904 -76432.38 86831.904 -75432.38 87212.857 -75432.38 87308.095 -75480 87355.714 -75527.619 87403.333 -75622.857 87403.333 -75765.714 87355.714 -75860.952 87308.095 -75908.571 87212.857 -75956.19 86831.904 -75956.19 M 88308.095 -75432.38 87831.904 -75432.38 87784.285 -75908.571 87831.904 -75860.952 87927.142 -75813.333 88165.238 -75813.333 88260.476 -75860.952 88308.095 -75908.571 88355.714 -76003.809 88355.714 -76241.904 88308.095 -76337.142 88260.476 -76384.761 88165.238 -76432.38 87927.142 -76432.38 87831.904 -76384.761 87784.285 -76337.142 M 108354.761 -121809.523 108402.38 -121666.666 108402.38 -121428.571 108354.761 -121333.333 108307.142 -121285.714 108211.904 -121238.095 108116.666 -121238.095 108021.428 -121285.714 107973.809 -121333.333 107926.19 -121428.571 107878.571 -121619.047 107830.952 -121714.285 107783.333 -121761.904 107688.095 -121809.523 107592.857 -121809.523 107497.619 -121761.904 107450 -121714.285 107402.38 -121619.047 107402.38 -121380.952 107450 -121238.095 M 107402.38 -120904.761 108402.38 -120666.666 107688.095 -120476.19 108402.38 -120285.714 107402.38 -120047.619 M 108402.38 -119142.857 108402.38 -119714.285 M 108402.38 -119428.571 107402.38 -119428.571 107545.238 -119523.809 107640.476 -119619.047 107688.095 -119714.285 M 107402.38 -118523.809 107402.38 -118428.571 107450 -118333.333 107497.619 -118285.714 107592.857 -118238.095 107783.333 -118190.476 108021.428 -118190.476 108211.904 -118238.095 108307.142 -118285.714 108354.761 -118333.333 108402.38 -118428.571 108402.38 -118523.809 108354.761 -118619.047 108307.142 -118666.666 108211.904 -118714.285 108021.428 -118761.904 107783.333 -118761.904 107592.857 -118714.285 107497.619 -118666.666 107450 -118619.047 107402.38 -118523.809 M 144054.761 -129809.523 144102.38 -129666.666 144102.38 -129428.571 144054.761 -129333.333 144007.142 -129285.714 143911.904 -129238.095 143816.666 -129238.095 143721.428 -129285.714 143673.809 -129333.333 143626.19 -129428.571 143578.571 -129619.047 143530.952 -129714.285 143483.333 -129761.904 143388.095 -129809.523 143292.857 -129809.523 143197.619 -129761.904 143150 -129714.285 143102.38 -129619.047 143102.38 -129380.952 143150 -129238.095 M 143102.38 -128904.761 144102.38 -128666.666 143388.095 -128476.19 144102.38 -128285.714 143102.38 -128047.619 M 143197.619 -127714.285 143150 -127666.666 143102.38 -127571.428 143102.38 -127333.333 143150 -127238.095 143197.619 -127190.476 143292.857 -127142.857 143388.095 -127142.857 143530.952 -127190.476 144102.38 -127761.904 144102.38 -127142.857 M 143102.38 -126809.523 143102.38 -126190.476 143483.333 -126523.809 143483.333 -126380.952 143530.952 -126285.714 143578.571 -126238.095 143673.809 -126190.476 143911.904 -126190.476 144007.142 -126238.095 144054.761 -126285.714 144102.38 -126380.952 144102.38 -126666.666 144054.761 -126761.904 144007.142 -126809.523 M 120254.761 -137809.523 120302.38 -137666.666 120302.38 -137428.571 120254.761 -137333.333 120207.142 -137285.714 120111.904 -137238.095 120016.666 -137238.095 119921.428 -137285.714 119873.809 -137333.333 119826.19 -137428.571 119778.571 -137619.047 119730.952 -137714.285 119683.333 -137761.904 119588.095 -137809.523 119492.857 -137809.523 119397.619 -137761.904 119350 -137714.285 119302.38 -137619.047 119302.38 -137380.952 119350 -137238.095 M 119302.38 -136904.761 120302.38 -136666.666 119588.095 -136476.19 120302.38 -136285.714 119302.38 -136047.619 M 120302.38 -135142.857 120302.38 -135714.285 M 120302.38 -135428.571 119302.38 -135428.571 119445.238 -135523.809 119540.476 -135619.047 119588.095 -135714.285 M 119302.38 -134285.714 119302.38 -134476.19 119350 -134571.428 119397.619 -134619.047 119540.476 -134714.285 119730.952 -134761.904 120111.904 -134761.904 120207.142 -134714.285 120254.761 -134666.666 120302.38 -134571.428 120302.38 -134380.952 120254.761 -134285.714 120207.142 -134238.095 120111.904 -134190.476 119873.809 -134190.476 119778.571 -134238.095 119730.952 -134285.714 119683.333 -134380.952 119683.333 -134571.428 119730.952 -134666.666 119778.571 -134714.285 119873.809 -134761.904 M 203537.38 -112048.333 204251.666 -112048.333 204394.523 -112095.952 204489.761 -112191.19 204537.38 -112334.047 204537.38 -112429.285 M 203537.38 -111667.38 203537.38 -111048.333 203918.333 -111381.666 203918.333 -111238.809 203965.952 -111143.571 204013.571 -111095.952 204108.809 -111048.333 204346.904 -111048.333 204442.142 -111095.952 204489.761 -111143.571 204537.38 -111238.809 204537.38 -111524.523 204489.761 -111619.761 204442.142 -111667.38 M 83646.948 -92328.333 84361.234 -92328.333 84504.091 -92375.952 84599.329 -92471.19 84646.948 -92614.047 84646.948 -92709.285 M 83742.187 -91899.761 83694.568 -91852.142 83646.948 -91756.904 83646.948 -91518.809 83694.568 -91423.571 83742.187 -91375.952 83837.425 -91328.333 83932.663 -91328.333 84075.52 -91375.952 84646.948 -91947.38 84646.948 -91328.333 M 179754.761 -137809.523 179802.38 -137666.666 179802.38 -137428.571 179754.761 -137333.333 179707.142 -137285.714 179611.904 -137238.095 179516.666 -137238.095 179421.428 -137285.714 179373.809 -137333.333 179326.19 -137428.571 179278.571 -137619.047 179230.952 -137714.285 179183.333 -137761.904 179088.095 -137809.523 178992.857 -137809.523 178897.619 -137761.904 178850 -137714.285 178802.38 -137619.047 178802.38 -137380.952 178850 -137238.095 M 178802.38 -136904.761 179802.38 -136666.666 179088.095 -136476.19 179802.38 -136285.714 178802.38 -136047.619 M 178802.38 -135761.904 178802.38 -135142.857 179183.333 -135476.19 179183.333 -135333.333 179230.952 -135238.095 179278.571 -135190.476 179373.809 -135142.857 179611.904 -135142.857 179707.142 -135190.476 179754.761 -135238.095 179802.38 -135333.333 179802.38 -135619.047 179754.761 -135714.285 179707.142 -135761.904 M 178802.38 -134285.714 178802.38 -134476.19 178850 -134571.428 178897.619 -134619.047 179040.476 -134714.285 179230.952 -134761.904 179611.904 -134761.904 179707.142 -134714.285 179754.761 -134666.666 179802.38 -134571.428 179802.38 -134380.952 179754.761 -134285.714 179707.142 -134238.095 179611.904 -134190.476 179373.809 -134190.476 179278.571 -134238.095 179230.952 -134285.714 179183.333 -134380.952 179183.333 -134571.428 179230.952 -134666.666 179278.571 -134714.285 179373.809 -134761.904 M 99422.38 -79006.666 98946.19 -79340 M 99422.38 -79578.095 98422.38 -79578.095 98422.38 -79197.142 98470 -79101.904 98517.619 -79054.285 98612.857 -79006.666 98755.714 -79006.666 98850.952 -79054.285 98898.571 -79101.904 98946.19 -79197.142 98946.19 -79578.095 M 98755.714 -78149.523 99422.38 -78149.523 M 98374.761 -78387.619 99089.047 -78625.714 99089.047 -78006.666 M 102117.142 -82177.142 102069.523 -82224.761 101926.666 -82272.38 101831.428 -82272.38 101688.571 -82224.761 101593.333 -82129.523 101545.714 -82034.285 101498.095 -81843.809 101498.095 -81700.952 101545.714 -81510.476 101593.333 -81415.238 101688.571 -81320 101831.428 -81272.38 101926.666 -81272.38 102069.523 -81320 102117.142 -81367.619 M 103069.523 -82272.38 102498.095 -82272.38 M 102783.809 -82272.38 102783.809 -81272.38 102688.571 -81415.238 102593.333 -81510.476 102498.095 -81558.095 M 103926.666 -81605.714 103926.666 -82272.38 M 103688.571 -81224.761 103450.476 -81939.047 104069.523 -81939.047 M 155954.761 -137809.523 156002.38 -137666.666 156002.38 -137428.571 155954.761 -137333.333 155907.142 -137285.714 155811.904 -137238.095 155716.666 -137238.095 155621.428 -137285.714 155573.809 -137333.333 155526.19 -137428.571 155478.571 -137619.047 155430.952 -137714.285 155383.333 -137761.904 155288.095 -137809.523 155192.857 -137809.523 155097.619 -137761.904 155050 -137714.285 155002.38 -137619.047 155002.38 -137380.952 155050 -137238.095 M 155002.38 -136904.761 156002.38 -136666.666 155288.095 -136476.19 156002.38 -136285.714 155002.38 -136047.619 M 155097.619 -135714.285 155050 -135666.666 155002.38 -135571.428 155002.38 -135333.333 155050 -135238.095 155097.619 -135190.476 155192.857 -135142.857 155288.095 -135142.857 155430.952 -135190.476 156002.38 -135761.904 156002.38 -135142.857 M 155430.952 -134571.428 155383.333 -134666.666 155335.714 -134714.285 155240.476 -134761.904 155192.857 -134761.904 155097.619 -134714.285 155050 -134666.666 155002.38 -134571.428 155002.38 -134380.952 155050 -134285.714 155097.619 -134238.095 155192.857 -134190.476 155240.476 -134190.476 155335.714 -134238.095 155383.333 -134285.714 155430.952 -134380.952 155430.952 -134571.428 155478.571 -134666.666 155526.19 -134714.285 155621.428 -134761.904 155811.904 -134761.904 155907.142 -134714.285 155954.761 -134666.666 156002.38 -134571.428 156002.38 -134380.952 155954.761 -134285.714 155907.142 -134238.095 155811.904 -134190.476 155621.428 -134190.476 155526.19 -134238.095 155478.571 -134285.714 155430.952 -134380.952 M 120254.761 -121809.523 120302.38 -121666.666 120302.38 -121428.571 120254.761 -121333.333 120207.142 -121285.714 120111.904 -121238.095 120016.666 -121238.095 119921.428 -121285.714 119873.809 -121333.333 119826.19 -121428.571 119778.571 -121619.047 119730.952 -121714.285 119683.333 -121761.904 119588.095 -121809.523 119492.857 -121809.523 119397.619 -121761.904 119350 -121714.285 119302.38 -121619.047 119302.38 -121380.952 119350 -121238.095 M 119302.38 -120904.761 120302.38 -120666.666 119588.095 -120476.19 120302.38 -120285.714 119302.38 -120047.619 M 120302.38 -119142.857 120302.38 -119714.285 M 120302.38 -119428.571 119302.38 -119428.571 119445.238 -119523.809 119540.476 -119619.047 119588.095 -119714.285 M 119635.714 -118285.714 120302.38 -118285.714 M 119254.761 -118523.809 119969.047 -118761.904 119969.047 -118142.857 M 95577.142 -78966.666 95624.761 -79014.285 95672.38 -79157.142 95672.38 -79252.38 95624.761 -79395.238 95529.523 -79490.476 95434.285 -79538.095 95243.809 -79585.714 95100.952 -79585.714 94910.476 -79538.095 94815.238 -79490.476 94720 -79395.238 94672.38 -79252.38 94672.38 -79157.142 94720 -79014.285 94767.619 -78966.666 M 95672.38 -78014.285 95672.38 -78585.714 M 95672.38 -78300 94672.38 -78300 94815.238 -78395.238 94910.476 -78490.476 94958.095 -78585.714 M 155954.761 -113809.523 156002.38 -113666.666 156002.38 -113428.571 155954.761 -113333.333 155907.142 -113285.714 155811.904 -113238.095 155716.666 -113238.095 155621.428 -113285.714 155573.809 -113333.333 155526.19 -113428.571 155478.571 -113619.047 155430.952 -113714.285 155383.333 -113761.904 155288.095 -113809.523 155192.857 -113809.523 155097.619 -113761.904 155050 -113714.285 155002.38 -113619.047 155002.38 -113380.952 155050 -113238.095 M 155002.38 -112904.761 156002.38 -112666.666 155288.095 -112476.19 156002.38 -112285.714 155002.38 -112047.619 M 155097.619 -111714.285 155050 -111666.666 155002.38 -111571.428 155002.38 -111333.333 155050 -111238.095 155097.619 -111190.476 155192.857 -111142.857 155288.095 -111142.857 155430.952 -111190.476 156002.38 -111761.904 156002.38 -111142.857 M 155002.38 -110238.095 155002.38 -110714.285 155478.571 -110761.904 155430.952 -110714.285 155383.333 -110619.047 155383.333 -110380.952 155430.952 -110285.714 155478.571 -110238.095 155573.809 -110190.476 155811.904 -110190.476 155907.142 -110238.095 155954.761 -110285.714 156002.38 -110380.952 156002.38 -110619.047 155954.761 -110714.285 155907.142 -110761.904 M 84554.761 -129333.333 84602.38 -129190.476 84602.38 -128952.38 84554.761 -128857.142 84507.142 -128809.523 84411.904 -128761.904 84316.666 -128761.904 84221.428 -128809.523 84173.809 -128857.142 84126.19 -128952.38 84078.571 -129142.857 84030.952 -129238.095 83983.333 -129285.714 83888.095 -129333.333 83792.857 -129333.333 83697.619 -129285.714 83650 -129238.095 83602.38 -129142.857 83602.38 -128904.761 83650 -128761.904 M 83602.38 -128428.571 84602.38 -128190.476 83888.095 -128000 84602.38 -127809.523 83602.38 -127571.428 M 83602.38 -127285.714 83602.38 -126666.666 83983.333 -127000 83983.333 -126857.142 84030.952 -126761.904 84078.571 -126714.285 84173.809 -126666.666 84411.904 -126666.666 84507.142 -126714.285 84554.761 -126761.904 84602.38 -126857.142 84602.38 -127142.857 84554.761 -127238.095 84507.142 -127285.714 M 191654.761 -113809.523 191702.38 -113666.666 191702.38 -113428.571 191654.761 -113333.333 191607.142 -113285.714 191511.904 -113238.095 191416.666 -113238.095 191321.428 -113285.714 191273.809 -113333.333 191226.19 -113428.571 191178.571 -113619.047 191130.952 -113714.285 191083.333 -113761.904 190988.095 -113809.523 190892.857 -113809.523 190797.619 -113761.904 190750 -113714.285 190702.38 -113619.047 190702.38 -113380.952 190750 -113238.095 M 190702.38 -112904.761 191702.38 -112666.666 190988.095 -112476.19 191702.38 -112285.714 190702.38 -112047.619 M 190702.38 -111761.904 190702.38 -111142.857 191083.333 -111476.19 191083.333 -111333.333 191130.952 -111238.095 191178.571 -111190.476 191273.809 -111142.857 191511.904 -111142.857 191607.142 -111190.476 191654.761 -111238.095 191702.38 -111333.333 191702.38 -111619.047 191654.761 -111714.285 191607.142 -111761.904 M 190702.38 -110809.523 190702.38 -110142.857 191702.38 -110571.428 M 98172.38 -79006.666 97696.19 -79340 M 98172.38 -79578.095 97172.38 -79578.095 97172.38 -79197.142 97220 -79101.904 97267.619 -79054.285 97362.857 -79006.666 97505.714 -79006.666 97600.952 -79054.285 97648.571 -79101.904 97696.19 -79197.142 97696.19 -79578.095 M 97172.38 -78673.333 97172.38 -78054.285 97553.333 -78387.619 97553.333 -78244.761 97600.952 -78149.523 97648.571 -78101.904 97743.809 -78054.285 97981.904 -78054.285 98077.142 -78101.904 98124.761 -78149.523 98172.38 -78244.761 98172.38 -78530.476 98124.761 -78625.714 98077.142 -78673.333 M 144054.761 -121809.523 144102.38 -121666.666 144102.38 -121428.571 144054.761 -121333.333 144007.142 -121285.714 143911.904 -121238.095 143816.666 -121238.095 143721.428 -121285.714 143673.809 -121333.333 143626.19 -121428.571 143578.571 -121619.047 143530.952 -121714.285 143483.333 -121761.904 143388.095 -121809.523 143292.857 -121809.523 143197.619 -121761.904 143150 -121714.285 143102.38 -121619.047 143102.38 -121380.952 143150 -121238.095 M 143102.38 -120904.761 144102.38 -120666.666 143388.095 -120476.19 144102.38 -120285.714 143102.38 -120047.619 M 143197.619 -119714.285 143150 -119666.666 143102.38 -119571.428 143102.38 -119333.333 143150 -119238.095 143197.619 -119190.476 143292.857 -119142.857 143388.095 -119142.857 143530.952 -119190.476 144102.38 -119761.904 144102.38 -119142.857 M 143197.619 -118761.904 143150 -118714.285 143102.38 -118619.047 143102.38 -118380.952 143150 -118285.714 143197.619 -118238.095 143292.857 -118190.476 143388.095 -118190.476 143530.952 -118238.095 144102.38 -118809.523 144102.38 -118190.476 M 179754.761 -121809.523 179802.38 -121666.666 179802.38 -121428.571 179754.761 -121333.333 179707.142 -121285.714 179611.904 -121238.095 179516.666 -121238.095 179421.428 -121285.714 179373.809 -121333.333 179326.19 -121428.571 179278.571 -121619.047 179230.952 -121714.285 179183.333 -121761.904 179088.095 -121809.523 178992.857 -121809.523 178897.619 -121761.904 178850 -121714.285 178802.38 -121619.047 178802.38 -121380.952 178850 -121238.095 M 178802.38 -120904.761 179802.38 -120666.666 179088.095 -120476.19 179802.38 -120285.714 178802.38 -120047.619 M 178802.38 -119761.904 178802.38 -119142.857 179183.333 -119476.19 179183.333 -119333.333 179230.952 -119238.095 179278.571 -119190.476 179373.809 -119142.857 179611.904 -119142.857 179707.142 -119190.476 179754.761 -119238.095 179802.38 -119333.333 179802.38 -119619.047 179754.761 -119714.285 179707.142 -119761.904 M 179135.714 -118285.714 179802.38 -118285.714 M 178754.761 -118523.809 179469.047 -118761.904 179469.047 -118142.857 M 89805.833 -92327.142 89758.214 -92374.761 89615.357 -92422.38 89520.119 -92422.38 89377.261 -92374.761 89282.023 -92279.523 89234.404 -92184.285 89186.785 -91993.809 89186.785 -91850.952 89234.404 -91660.476 89282.023 -91565.238 89377.261 -91470 89520.119 -91422.38 89615.357 -91422.38 89758.214 -91470 89805.833 -91517.619 M 90282.023 -92422.38 90472.5 -92422.38 90567.738 -92374.761 90615.357 -92327.142 90710.595 -92184.285 90758.214 -91993.809 90758.214 -91612.857 90710.595 -91517.619 90662.976 -91470 90567.738 -91422.38 90377.261 -91422.38 90282.023 -91470 90234.404 -91517.619 90186.785 -91612.857 90186.785 -91850.952 90234.404 -91946.19 90282.023 -91993.809 90377.261 -92041.428 90567.738 -92041.428 90662.976 -91993.809 90710.595 -91946.19 90758.214 -91850.952 M 100587.142 -78956.666 100634.761 -79004.285 100682.38 -79147.142 100682.38 -79242.38 100634.761 -79385.238 100539.523 -79480.476 100444.285 -79528.095 100253.809 -79575.714 100110.952 -79575.714 99920.476 -79528.095 99825.238 -79480.476 99730 -79385.238 99682.38 -79242.38 99682.38 -79147.142 99730 -79004.285 99777.619 -78956.666 M 99682.38 -78623.333 99682.38 -78004.285 100063.333 -78337.619 100063.333 -78194.761 100110.952 -78099.523 100158.571 -78051.904 100253.809 -78004.285 100491.904 -78004.285 100587.142 -78051.904 100634.761 -78099.523 100682.38 -78194.761 100682.38 -78480.476 100634.761 -78575.714 100587.142 -78623.333 M 106417.142 -84277.142 106369.523 -84324.761 106226.666 -84372.38 106131.428 -84372.38 105988.571 -84324.761 105893.333 -84229.523 105845.714 -84134.285 105798.095 -83943.809 105798.095 -83800.952 105845.714 -83610.476 105893.333 -83515.238 105988.571 -83420 106131.428 -83372.38 106226.666 -83372.38 106369.523 -83420 106417.142 -83467.619 M 107369.523 -84372.38 106798.095 -84372.38 M 107083.809 -84372.38 107083.809 -83372.38 106988.571 -83515.238 106893.333 -83610.476 106798.095 -83658.095 M 108321.904 -84372.38 107750.476 -84372.38 M 108036.19 -84372.38 108036.19 -83372.38 107940.952 -83515.238 107845.714 -83610.476 107750.476 -83658.095 M 98193.333 -98357.142 98145.714 -98404.761 98002.857 -98452.38 97907.619 -98452.38 97764.761 -98404.761 97669.523 -98309.523 97621.904 -98214.285 97574.285 -98023.809 97574.285 -97880.952 97621.904 -97690.476 97669.523 -97595.238 97764.761 -97500 97907.619 -97452.38 98002.857 -97452.38 98145.714 -97500 98193.333 -97547.619 M 98574.285 -97547.619 98621.904 -97500 98717.142 -97452.38 98955.238 -97452.38 99050.476 -97500 99098.095 -97547.619 99145.714 -97642.857 99145.714 -97738.095 99098.095 -97880.952 98526.666 -98452.38 99145.714 -98452.38 M 167854.761 -129809.523 167902.38 -129666.666 167902.38 -129428.571 167854.761 -129333.333 167807.142 -129285.714 167711.904 -129238.095 167616.666 -129238.095 167521.428 -129285.714 167473.809 -129333.333 167426.19 -129428.571 167378.571 -129619.047 167330.952 -129714.285 167283.333 -129761.904 167188.095 -129809.523 167092.857 -129809.523 166997.619 -129761.904 166950 -129714.285 166902.38 -129619.047 166902.38 -129380.952 166950 -129238.095 M 166902.38 -128904.761 167902.38 -128666.666 167188.095 -128476.19 167902.38 -128285.714 166902.38 -128047.619 M 166902.38 -127761.904 166902.38 -127142.857 167283.333 -127476.19 167283.333 -127333.333 167330.952 -127238.095 167378.571 -127190.476 167473.809 -127142.857 167711.904 -127142.857 167807.142 -127190.476 167854.761 -127238.095 167902.38 -127333.333 167902.38 -127619.047 167854.761 -127714.285 167807.142 -127761.904 M 167902.38 -126190.476 167902.38 -126761.904 M 167902.38 -126476.19 166902.38 -126476.19 167045.238 -126571.428 167140.476 -126666.666 167188.095 -126761.904 M 100893.333 -96732.38 100560 -96256.19 M 100321.904 -96732.38 100321.904 -95732.38 100702.857 -95732.38 100798.095 -95780 100845.714 -95827.619 100893.333 -95922.857 100893.333 -96065.714 100845.714 -96160.952 100798.095 -96208.571 100702.857 -96256.19 100321.904 -96256.19 M 101750.476 -95732.38 101560 -95732.38 101464.761 -95780 101417.142 -95827.619 101321.904 -95970.476 101274.285 -96160.952 101274.285 -96541.904 101321.904 -96637.142 101369.523 -96684.761 101464.761 -96732.38 101655.238 -96732.38 101750.476 -96684.761 101798.095 -96637.142 101845.714 -96541.904 101845.714 -96303.809 101798.095 -96208.571 101750.476 -96160.952 101655.238 -96113.333 101464.761 -96113.333 101369.523 -96160.952 101321.904 -96208.571 101274.285 -96303.809 M 89187.142 -99557.142 89139.523 -99604.761 88996.666 -99652.38 88901.428 -99652.38 88758.571 -99604.761 88663.333 -99509.523 88615.714 -99414.285 88568.095 -99223.809 88568.095 -99080.952 88615.714 -98890.476 88663.333 -98795.238 88758.571 -98700 88901.428 -98652.38 88996.666 -98652.38 89139.523 -98700 89187.142 -98747.619 M 90139.523 -99652.38 89568.095 -99652.38 M 89853.809 -99652.38 89853.809 -98652.38 89758.571 -98795.238 89663.333 -98890.476 89568.095 -98938.095 M 91044.285 -98652.38 90568.095 -98652.38 90520.476 -99128.571 90568.095 -99080.952 90663.333 -99033.333 90901.428 -99033.333 90996.666 -99080.952 91044.285 -99128.571 91091.904 -99223.809 91091.904 -99461.904 91044.285 -99557.142 90996.666 -99604.761 90901.428 -99652.38 90663.333 -99652.38 90568.095 -99604.761 90520.476 -99557.142 M 144054.761 -113809.523 144102.38 -113666.666 144102.38 -113428.571 144054.761 -113333.333 144007.142 -113285.714 143911.904 -113238.095 143816.666 -113238.095 143721.428 -113285.714 143673.809 -113333.333 143626.19 -113428.571 143578.571 -113619.047 143530.952 -113714.285 143483.333 -113761.904 143388.095 -113809.523 143292.857 -113809.523 143197.619 -113761.904 143150 -113714.285 143102.38 -113619.047 143102.38 -113380.952 143150 -113238.095 M 143102.38 -112904.761 144102.38 -112666.666 143388.095 -112476.19 144102.38 -112285.714 143102.38 -112047.619 M 143197.619 -111714.285 143150 -111666.666 143102.38 -111571.428 143102.38 -111333.333 143150 -111238.095 143197.619 -111190.476 143292.857 -111142.857 143388.095 -111142.857 143530.952 -111190.476 144102.38 -111761.904 144102.38 -111142.857 M 144102.38 -110190.476 144102.38 -110761.904 M 144102.38 -110476.19 143102.38 -110476.19 143245.238 -110571.428 143340.476 -110666.666 143388.095 -110761.904 M 191654.761 -121809.523 191702.38 -121666.666 191702.38 -121428.571 191654.761 -121333.333 191607.142 -121285.714 191511.904 -121238.095 191416.666 -121238.095 191321.428 -121285.714 191273.809 -121333.333 191226.19 -121428.571 191178.571 -121619.047 191130.952 -121714.285 191083.333 -121761.904 190988.095 -121809.523 190892.857 -121809.523 190797.619 -121761.904 190750 -121714.285 190702.38 -121619.047 190702.38 -121380.952 190750 -121238.095 M 190702.38 -120904.761 191702.38 -120666.666 190988.095 -120476.19 191702.38 -120285.714 190702.38 -120047.619 M 190702.38 -119761.904 190702.38 -119142.857 191083.333 -119476.19 191083.333 -119333.333 191130.952 -119238.095 191178.571 -119190.476 191273.809 -119142.857 191511.904 -119142.857 191607.142 -119190.476 191654.761 -119238.095 191702.38 -119333.333 191702.38 -119619.047 191654.761 -119714.285 191607.142 -119761.904 M 191130.952 -118571.428 191083.333 -118666.666 191035.714 -118714.285 190940.476 -118761.904 190892.857 -118761.904 190797.619 -118714.285 190750 -118666.666 190702.38 -118571.428 190702.38 -118380.952 190750 -118285.714 190797.619 -118238.095 190892.857 -118190.476 190940.476 -118190.476 191035.714 -118238.095 191083.333 -118285.714 191130.952 -118380.952 191130.952 -118571.428 191178.571 -118666.666 191226.19 -118714.285 191321.428 -118761.904 191511.904 -118761.904 191607.142 -118714.285 191654.761 -118666.666 191702.38 -118571.428 191702.38 -118380.952 191654.761 -118285.714 191607.142 -118238.095 191511.904 -118190.476 191321.428 -118190.476 191226.19 -118238.095 191178.571 -118285.714 191130.952 -118380.952 M 101837.142 -78966.666 101884.761 -79014.285 101932.38 -79157.142 101932.38 -79252.38 101884.761 -79395.238 101789.523 -79490.476 101694.285 -79538.095 101503.809 -79585.714 101360.952 -79585.714 101170.476 -79538.095 101075.238 -79490.476 100980 -79395.238 100932.38 -79252.38 100932.38 -79157.142 100980 -79014.285 101027.619 -78966.666 M 100932.38 -78109.523 100932.38 -78300 100980 -78395.238 101027.619 -78442.857 101170.476 -78538.095 101360.952 -78585.714 101741.904 -78585.714 101837.142 -78538.095 101884.761 -78490.476 101932.38 -78395.238 101932.38 -78204.761 101884.761 -78109.523 101837.142 -78061.904 101741.904 -78014.285 101503.809 -78014.285 101408.571 -78061.904 101360.952 -78109.523 101313.333 -78204.761 101313.333 -78395.238 101360.952 -78490.476 101408.571 -78538.095 101503.809 -78585.714 M 167854.761 -137809.523 167902.38 -137666.666 167902.38 -137428.571 167854.761 -137333.333 167807.142 -137285.714 167711.904 -137238.095 167616.666 -137238.095 167521.428 -137285.714 167473.809 -137333.333 167426.19 -137428.571 167378.571 -137619.047 167330.952 -137714.285 167283.333 -137761.904 167188.095 -137809.523 167092.857 -137809.523 166997.619 -137761.904 166950 -137714.285 166902.38 -137619.047 166902.38 -137380.952 166950 -137238.095 M 166902.38 -136904.761 167902.38 -136666.666 167188.095 -136476.19 167902.38 -136285.714 166902.38 -136047.619 M 166902.38 -135761.904 166902.38 -135142.857 167283.333 -135476.19 167283.333 -135333.333 167330.952 -135238.095 167378.571 -135190.476 167473.809 -135142.857 167711.904 -135142.857 167807.142 -135190.476 167854.761 -135238.095 167902.38 -135333.333 167902.38 -135619.047 167854.761 -135714.285 167807.142 -135761.904 M 166997.619 -134761.904 166950 -134714.285 166902.38 -134619.047 166902.38 -134380.952 166950 -134285.714 166997.619 -134238.095 167092.857 -134190.476 167188.095 -134190.476 167330.952 -134238.095 167902.38 -134809.523 167902.38 -134190.476 M 85648.095 -72494.761 85790.952 -72542.38 86029.047 -72542.38 86124.285 -72494.761 86171.904 -72447.142 86219.523 -72351.904 86219.523 -72256.666 86171.904 -72161.428 86124.285 -72113.809 86029.047 -72066.19 85838.571 -72018.571 85743.333 -71970.952 85695.714 -71923.333 85648.095 -71828.095 85648.095 -71732.857 85695.714 -71637.619 85743.333 -71590 85838.571 -71542.38 86076.666 -71542.38 86219.523 -71590 M 87171.904 -72542.38 86600.476 -72542.38 M 86886.19 -72542.38 86886.19 -71542.38 86790.952 -71685.238 86695.714 -71780.476 86600.476 -71828.095 M 96454.761 -129333.333 96502.38 -129190.476 96502.38 -128952.38 96454.761 -128857.142 96407.142 -128809.523 96311.904 -128761.904 96216.666 -128761.904 96121.428 -128809.523 96073.809 -128857.142 96026.19 -128952.38 95978.571 -129142.857 95930.952 -129238.095 95883.333 -129285.714 95788.095 -129333.333 95692.857 -129333.333 95597.619 -129285.714 95550 -129238.095 95502.38 -129142.857 95502.38 -128904.761 95550 -128761.904 M 95502.38 -128428.571 96502.38 -128190.476 95788.095 -128000 96502.38 -127809.523 95502.38 -127571.428 M 95502.38 -127285.714 95502.38 -126619.047 96502.38 -127047.619 M 92288.095 -84162.38 92288.095 -84971.904 92335.714 -85067.142 92383.333 -85114.761 92478.571 -85162.38 92669.047 -85162.38 92764.285 -85114.761 92811.904 -85067.142 92859.523 -84971.904 92859.523 -84162.38 M 93288.095 -84257.619 93335.714 -84210 93430.952 -84162.38 93669.047 -84162.38 93764.285 -84210 93811.904 -84257.619 93859.523 -84352.857 93859.523 -84448.095 93811.904 -84590.952 93240.476 -85162.38 93859.523 -85162.38 M 108354.761 -113333.333 108402.38 -113190.476 108402.38 -112952.38 108354.761 -112857.142 108307.142 -112809.523 108211.904 -112761.904 108116.666 -112761.904 108021.428 -112809.523 107973.809 -112857.142 107926.19 -112952.38 107878.571 -113142.857 107830.952 -113238.095 107783.333 -113285.714 107688.095 -113333.333 107592.857 -113333.333 107497.619 -113285.714 107450 -113238.095 107402.38 -113142.857 107402.38 -112904.761 107450 -112761.904 M 107402.38 -112428.571 108402.38 -112190.476 107688.095 -112000 108402.38 -111809.523 107402.38 -111571.428 M 108402.38 -111142.857 108402.38 -110952.38 108354.761 -110857.142 108307.142 -110809.523 108164.285 -110714.285 107973.809 -110666.666 107592.857 -110666.666 107497.619 -110714.285 107450 -110761.904 107402.38 -110857.142 107402.38 -111047.619 107450 -111142.857 107497.619 -111190.476 107592.857 -111238.095 107830.952 -111238.095 107926.19 -111190.476 107973.809 -111142.857 108021.428 -111047.619 108021.428 -110857.142 107973.809 -110761.904 107926.19 -110714.285 107830.952 -110666.666 M 120254.761 -113809.523 120302.38 -113666.666 120302.38 -113428.571 120254.761 -113333.333 120207.142 -113285.714 120111.904 -113238.095 120016.666 -113238.095 119921.428 -113285.714 119873.809 -113333.333 119826.19 -113428.571 119778.571 -113619.047 119730.952 -113714.285 119683.333 -113761.904 119588.095 -113809.523 119492.857 -113809.523 119397.619 -113761.904 119350 -113714.285 119302.38 -113619.047 119302.38 -113380.952 119350 -113238.095 M 119302.38 -112904.761 120302.38 -112666.666 119588.095 -112476.19 120302.38 -112285.714 119302.38 -112047.619 M 120302.38 -111142.857 120302.38 -111714.285 M 120302.38 -111428.571 119302.38 -111428.571 119445.238 -111523.809 119540.476 -111619.047 119588.095 -111714.285 M 119302.38 -110809.523 119302.38 -110190.476 119683.333 -110523.809 119683.333 -110380.952 119730.952 -110285.714 119778.571 -110238.095 119873.809 -110190.476 120111.904 -110190.476 120207.142 -110238.095 120254.761 -110285.714 120302.38 -110380.952 120302.38 -110666.666 120254.761 -110761.904 120207.142 -110809.523 M 132154.761 -121809.523 132202.38 -121666.666 132202.38 -121428.571 132154.761 -121333.333 132107.142 -121285.714 132011.904 -121238.095 131916.666 -121238.095 131821.428 -121285.714 131773.809 -121333.333 131726.19 -121428.571 131678.571 -121619.047 131630.952 -121714.285 131583.333 -121761.904 131488.095 -121809.523 131392.857 -121809.523 131297.619 -121761.904 131250 -121714.285 131202.38 -121619.047 131202.38 -121380.952 131250 -121238.095 M 131202.38 -120904.761 132202.38 -120666.666 131488.095 -120476.19 132202.38 -120285.714 131202.38 -120047.619 M 132202.38 -119142.857 132202.38 -119714.285 M 132202.38 -119428.571 131202.38 -119428.571 131345.238 -119523.809 131440.476 -119619.047 131488.095 -119714.285 M 131630.952 -118571.428 131583.333 -118666.666 131535.714 -118714.285 131440.476 -118761.904 131392.857 -118761.904 131297.619 -118714.285 131250 -118666.666 131202.38 -118571.428 131202.38 -118380.952 131250 -118285.714 131297.619 -118238.095 131392.857 -118190.476 131440.476 -118190.476 131535.714 -118238.095 131583.333 -118285.714 131630.952 -118380.952 131630.952 -118571.428 131678.571 -118666.666 131726.19 -118714.285 131821.428 -118761.904 132011.904 -118761.904 132107.142 -118714.285 132154.761 -118666.666 132202.38 -118571.428 132202.38 -118380.952 132154.761 -118285.714 132107.142 -118238.095 132011.904 -118190.476 131821.428 -118190.476 131726.19 -118238.095 131678.571 -118285.714 131630.952 -118380.952 M 120254.761 -129809.523 120302.38 -129666.666 120302.38 -129428.571 120254.761 -129333.333 120207.142 -129285.714 120111.904 -129238.095 120016.666 -129238.095 119921.428 -129285.714 119873.809 -129333.333 119826.19 -129428.571 119778.571 -129619.047 119730.952 -129714.285 119683.333 -129761.904 119588.095 -129809.523 119492.857 -129809.523 119397.619 -129761.904 119350 -129714.285 119302.38 -129619.047 119302.38 -129380.952 119350 -129238.095 M 119302.38 -128904.761 120302.38 -128666.666 119588.095 -128476.19 120302.38 -128285.714 119302.38 -128047.619 M 120302.38 -127142.857 120302.38 -127714.285 M 120302.38 -127428.571 119302.38 -127428.571 119445.238 -127523.809 119540.476 -127619.047 119588.095 -127714.285 M 119302.38 -126238.095 119302.38 -126714.285 119778.571 -126761.904 119730.952 -126714.285 119683.333 -126619.047 119683.333 -126380.952 119730.952 -126285.714 119778.571 -126238.095 119873.809 -126190.476 120111.904 -126190.476 120207.142 -126238.095 120254.761 -126285.714 120302.38 -126380.952 120302.38 -126619.047 120254.761 -126714.285 120207.142 -126761.904 M 96454.761 -113333.333 96502.38 -113190.476 96502.38 -112952.38 96454.761 -112857.142 96407.142 -112809.523 96311.904 -112761.904 96216.666 -112761.904 96121.428 -112809.523 96073.809 -112857.142 96026.19 -112952.38 95978.571 -113142.857 95930.952 -113238.095 95883.333 -113285.714 95788.095 -113333.333 95692.857 -113333.333 95597.619 -113285.714 95550 -113238.095 95502.38 -113142.857 95502.38 -112904.761 95550 -112761.904 M 95502.38 -112428.571 96502.38 -112190.476 95788.095 -112000 96502.38 -111809.523 95502.38 -111571.428 M 95502.38 -110714.285 95502.38 -111190.476 95978.571 -111238.095 95930.952 -111190.476 95883.333 -111095.238 95883.333 -110857.142 95930.952 -110761.904 95978.571 -110714.285 96073.809 -110666.666 96311.904 -110666.666 96407.142 -110714.285 96454.761 -110761.904 96502.38 -110857.142 96502.38 -111095.238 96454.761 -111190.476 96407.142 -111238.095 M 179754.761 -129809.523 179802.38 -129666.666 179802.38 -129428.571 179754.761 -129333.333 179707.142 -129285.714 179611.904 -129238.095 179516.666 -129238.095 179421.428 -129285.714 179373.809 -129333.333 179326.19 -129428.571 179278.571 -129619.047 179230.952 -129714.285 179183.333 -129761.904 179088.095 -129809.523 178992.857 -129809.523 178897.619 -129761.904 178850 -129714.285 178802.38 -129619.047 178802.38 -129380.952 178850 -129238.095 M 178802.38 -128904.761 179802.38 -128666.666 179088.095 -128476.19 179802.38 -128285.714 178802.38 -128047.619 M 178802.38 -127761.904 178802.38 -127142.857 179183.333 -127476.19 179183.333 -127333.333 179230.952 -127238.095 179278.571 -127190.476 179373.809 -127142.857 179611.904 -127142.857 179707.142 -127190.476 179754.761 -127238.095 179802.38 -127333.333 179802.38 -127619.047 179754.761 -127714.285 179707.142 -127761.904 M 178802.38 -126238.095 178802.38 -126714.285 179278.571 -126761.904 179230.952 -126714.285 179183.333 -126619.047 179183.333 -126380.952 179230.952 -126285.714 179278.571 -126238.095 179373.809 -126190.476 179611.904 -126190.476 179707.142 -126238.095 179754.761 -126285.714 179802.38 -126380.952 179802.38 -126619.047 179754.761 -126714.285 179707.142 -126761.904 M 155954.761 -129809.523 156002.38 -129666.666 156002.38 -129428.571 155954.761 -129333.333 155907.142 -129285.714 155811.904 -129238.095 155716.666 -129238.095 155621.428 -129285.714 155573.809 -129333.333 155526.19 -129428.571 155478.571 -129619.047 155430.952 -129714.285 155383.333 -129761.904 155288.095 -129809.523 155192.857 -129809.523 155097.619 -129761.904 155050 -129714.285 155002.38 -129619.047 155002.38 -129380.952 155050 -129238.095 M 155002.38 -128904.761 156002.38 -128666.666 155288.095 -128476.19 156002.38 -128285.714 155002.38 -128047.619 M 155097.619 -127714.285 155050 -127666.666 155002.38 -127571.428 155002.38 -127333.333 155050 -127238.095 155097.619 -127190.476 155192.857 -127142.857 155288.095 -127142.857 155430.952 -127190.476 156002.38 -127761.904 156002.38 -127142.857 M 155002.38 -126809.523 155002.38 -126142.857 156002.38 -126571.428 M 144054.761 -137809.523 144102.38 -137666.666 144102.38 -137428.571 144054.761 -137333.333 144007.142 -137285.714 143911.904 -137238.095 143816.666 -137238.095 143721.428 -137285.714 143673.809 -137333.333 143626.19 -137428.571 143578.571 -137619.047 143530.952 -137714.285 143483.333 -137761.904 143388.095 -137809.523 143292.857 -137809.523 143197.619 -137761.904 143150 -137714.285 143102.38 -137619.047 143102.38 -137380.952 143150 -137238.095 M 143102.38 -136904.761 144102.38 -136666.666 143388.095 -136476.19 144102.38 -136285.714 143102.38 -136047.619 M 143197.619 -135714.285 143150 -135666.666 143102.38 -135571.428 143102.38 -135333.333 143150 -135238.095 143197.619 -135190.476 143292.857 -135142.857 143388.095 -135142.857 143530.952 -135190.476 144102.38 -135761.904 144102.38 -135142.857 M 143435.714 -134285.714 144102.38 -134285.714 M 143054.761 -134523.809 143769.047 -134761.904 143769.047 -134142.857 M 99992.38 -76341.904 100801.904 -76341.904 100897.142 -76294.285 100944.761 -76246.666 100992.38 -76151.428 100992.38 -75960.952 100944.761 -75865.714 100897.142 -75818.095 100801.904 -75770.476 99992.38 -75770.476 M 99992.38 -75389.523 99992.38 -74770.476 100373.333 -75103.809 100373.333 -74960.952 100420.952 -74865.714 100468.571 -74818.095 100563.809 -74770.476 100801.904 -74770.476 100897.142 -74818.095 100944.761 -74865.714 100992.38 -74960.952 100992.38 -75246.666 100944.761 -75341.904 100897.142 -75389.523 M 93713.333 -97432.38 93380 -96956.19 M 93141.904 -97432.38 93141.904 -96432.38 93522.857 -96432.38 93618.095 -96480 93665.714 -96527.619 93713.333 -96622.857 93713.333 -96765.714 93665.714 -96860.952 93618.095 -96908.571 93522.857 -96956.19 93141.904 -96956.19 M 94094.285 -96527.619 94141.904 -96480 94237.142 -96432.38 94475.238 -96432.38 94570.476 -96480 94618.095 -96527.619 94665.714 -96622.857 94665.714 -96718.095 94618.095 -96860.952 94046.666 -97432.38 94665.714 -97432.38 M 94363.809 -107266.19 94363.809 -107742.38 M 94030.476 -106742.38 94363.809 -107266.19 94697.142 -106742.38 M 95554.285 -107742.38 94982.857 -107742.38 M 95268.571 -107742.38 95268.571 -106742.38 95173.333 -106885.238 95078.095 -106980.476 94982.857 -107028.095 M 167854.761 -113809.523 167902.38 -113666.666 167902.38 -113428.571 167854.761 -113333.333 167807.142 -113285.714 167711.904 -113238.095 167616.666 -113238.095 167521.428 -113285.714 167473.809 -113333.333 167426.19 -113428.571 167378.571 -113619.047 167330.952 -113714.285 167283.333 -113761.904 167188.095 -113809.523 167092.857 -113809.523 166997.619 -113761.904 166950 -113714.285 166902.38 -113619.047 166902.38 -113380.952 166950 -113238.095 M 166902.38 -112904.761 167902.38 -112666.666 167188.095 -112476.19 167902.38 -112285.714 166902.38 -112047.619 M 166997.619 -111714.285 166950 -111666.666 166902.38 -111571.428 166902.38 -111333.333 166950 -111238.095 166997.619 -111190.476 167092.857 -111142.857 167188.095 -111142.857 167330.952 -111190.476 167902.38 -111761.904 167902.38 -111142.857 M 167902.38 -110666.666 167902.38 -110476.19 167854.761 -110380.952 167807.142 -110333.333 167664.285 -110238.095 167473.809 -110190.476 167092.857 -110190.476 166997.619 -110238.095 166950 -110285.714 166902.38 -110380.952 166902.38 -110571.428 166950 -110666.666 166997.619 -110714.285 167092.857 -110761.904 167330.952 -110761.904 167426.19 -110714.285 167473.809 -110666.666 167521.428 -110571.428 167521.428 -110380.952 167473.809 -110285.714 167426.19 -110238.095 167330.952 -110190.476 M 191654.761 -137809.523 191702.38 -137666.666 191702.38 -137428.571 191654.761 -137333.333 191607.142 -137285.714 191511.904 -137238.095 191416.666 -137238.095 191321.428 -137285.714 191273.809 -137333.333 191226.19 -137428.571 191178.571 -137619.047 191130.952 -137714.285 191083.333 -137761.904 190988.095 -137809.523 190892.857 -137809.523 190797.619 -137761.904 190750 -137714.285 190702.38 -137619.047 190702.38 -137380.952 190750 -137238.095 M 190702.38 -136904.761 191702.38 -136666.666 190988.095 -136476.19 191702.38 -136285.714 190702.38 -136047.619 M 191035.714 -135238.095 191702.38 -135238.095 M 190654.761 -135476.19 191369.047 -135714.285 191369.047 -135095.238 M 190702.38 -134523.809 190702.38 -134428.571 190750 -134333.333 190797.619 -134285.714 190892.857 -134238.095 191083.333 -134190.476 191321.428 -134190.476 191511.904 -134238.095 191607.142 -134285.714 191654.761 -134333.333 191702.38 -134428.571 191702.38 -134523.809 191654.761 -134619.047 191607.142 -134666.666 191511.904 -134714.285 191321.428 -134761.904 191083.333 -134761.904 190892.857 -134714.285 190797.619 -134666.666 190750 -134619.047 190702.38 -134523.809 M 132154.761 -129809.523 132202.38 -129666.666 132202.38 -129428.571 132154.761 -129333.333 132107.142 -129285.714 132011.904 -129238.095 131916.666 -129238.095 131821.428 -129285.714 131773.809 -129333.333 131726.19 -129428.571 131678.571 -129619.047 131630.952 -129714.285 131583.333 -129761.904 131488.095 -129809.523 131392.857 -129809.523 131297.619 -129761.904 131250 -129714.285 131202.38 -129619.047 131202.38 -129380.952 131250 -129238.095 M 131202.38 -128904.761 132202.38 -128666.666 131488.095 -128476.19 132202.38 -128285.714 131202.38 -128047.619 M 132202.38 -127142.857 132202.38 -127714.285 M 132202.38 -127428.571 131202.38 -127428.571 131345.238 -127523.809 131440.476 -127619.047 131488.095 -127714.285 M 132202.38 -126666.666 132202.38 -126476.19 132154.761 -126380.952 132107.142 -126333.333 131964.285 -126238.095 131773.809 -126190.476 131392.857 -126190.476 131297.619 -126238.095 131250 -126285.714 131202.38 -126380.952 131202.38 -126571.428 131250 -126666.666 131297.619 -126714.285 131392.857 -126761.904 131630.952 -126761.904 131726.19 -126714.285 131773.809 -126666.666 131821.428 -126571.428 131821.428 -126380.952 131773.809 -126285.714 131726.19 -126238.095 131630.952 -126190.476 M 89783.333 -88189.642 89735.714 -88237.261 89592.857 -88284.88 89497.619 -88284.88 89354.761 -88237.261 89259.523 -88142.023 89211.904 -88046.785 89164.285 -87856.309 89164.285 -87713.452 89211.904 -87522.976 89259.523 -87427.738 89354.761 -87332.5 89497.619 -87284.88 89592.857 -87284.88 89735.714 -87332.5 89783.333 -87380.119 M 90116.666 -87284.88 90783.333 -87284.88 90354.761 -88284.88" fill="none" stroke-width="150"/><path d="M 92595 -67705 92595 -69255 M 100895 -67705 100895 -69255 M 92895 -67705 92595 -67705 M 100895 -67705 100595 -67705 M 97645 -70955 98045 -70505 M 100595 -64905 100595 -67705 M 98045 -70505 98445 -70955 M 92895 -64905 92895 -67705 M 98445 -70955 97645 -70955 M 97550 -96171.665 97550 -96403.335 M 96830 -96171.665 96830 -96403.335 M 97070 -81708.335 97070 -81476.665 M 96350 -81708.335 96350 -81476.665 M 91315.835 -76990 91084.165 -76990 M 91315.835 -76270 91084.165 -76270 M 103351.665 -90450 103583.335 -90450 M 103351.665 -91170 103583.335 -91170 M 96555.835 -99570 96324.165 -99570 M 96555.835 -98850 96324.165 -98850 M 104608.748 -70045 105131.252 -70045 M 104608.748 -68575 105131.252 -68575 M 85445 -77795 85445 -78055 83770 -78055 M 88170 -77795 85445 -77795 M 88170 -77795 90895 -77795 90895 -78055 M 90895 -83245 90895 -82985 M 85445 -83245 85445 -82985 M 88170 -83245 90895 -83245 M 88170 -83245 85445 -83245 M 103341.665 -85212.5 103573.335 -85212.5 M 103341.665 -85932.5 103573.335 -85932.5 M 84190 -75822.379 84190 -76157.621 M 84950 -75822.379 84950 -76157.621 M 85750 -75822.379 85750 -76157.621 M 86510 -75822.379 86510 -76157.621" fill="none" stroke-width="120"/><path d="M 205690 -107730 207890 -107730 M 209290 -113680 209290 -108480 M 205690 -113780 205690 -114430 M 205690 -108380 205690 -107730 M 205690 -114430 207890 -114430" fill="none" stroke-width="127"/><path d="M 205355 -113335 A 100 100 0 0 1 205155 -113335 100 100 0 0 1 205355 -113335" fill="none" stroke-width="200"/><path d="M 78989.568 -90030 78989.568 -95230 M 82589.568 -89280 80389.568 -89280 M 82589.568 -89930 82589.568 -89280 M 82589.568 -95330 82589.568 -95980 80389.568 -95980" fill="none" stroke-width="127"/><path d="M 83124.568 -90375 A 100 100 0 0 1 82924.568 -90375 100 100 0 0 1 83124.568 -90375" fill="none" stroke-width="200"/><path d="M 99120 -82937.621 99120 -82602.379 M 98360 -82937.621 98360 -82602.379 M 105838.748 -82565 106361.252 -82565 M 105838.748 -81095 106361.252 -81095 M 95350 -81708.335 95350 -81476.665 M 96070 -81708.335 96070 -81476.665 M 98100 -82932.621 98100 -82597.379 M 97340 -82932.621 97340 -82597.379 M 90088.335 -90450 89856.665 -90450 M 90088.335 -91170 89856.665 -91170 M 99390 -82878.335 99390 -82646.665 M 100110 -82878.335 100110 -82646.665 M 103341.665 -83552.5 103573.335 -83552.5 M 103341.665 -84272.5 103573.335 -84272.5 M 98710 -96174.165 98710 -96405.835 M 97990 -96174.165 97990 -96405.835 M 99930 -96447.621 99930 -96112.379 M 99170 -96447.621 99170 -96112.379 M 93034.165 -99570 93265.835 -99570 M 93034.165 -98850 93265.835 -98850 M 100390 -82878.335 100390 -82646.665 M 101110 -82878.335 101110 -82646.665" fill="none" stroke-width="120"/><path d="M 84560 -73690 88735 -73690 M 84560 -70490 88735 -70490" fill="none" stroke-width="100"/><path d="M 83660 -70890 A 100 100 0 0 1 83660 -71090 100 100 0 0 1 83660 -70890" fill="none" stroke-width="200"/><path d="M 99680 -93152.5 100330 -93152.5 100330 -92502.5 M 93760 -85932.5 93110 -85932.5 M 93110 -93152.5 93110 -92502.5 M 100330 -85932.5 100330 -86582.5 M 99680 -85932.5 100330 -85932.5 M 93760 -93152.5 93110 -93152.5 M 108450 -77500 107190 -77500 M 101630 -77500 102890 -77500 M 101630 -73740 101630 -77500 M 108450 -71490 108450 -77500 M 95020 -97137.621 95020 -96802.379 M 95780 -97137.621 95780 -96802.379 M 101540 -101190 88940 -101190 M 88940 -106290 101540 -106290 M 101540 -102440 101540 -101190 M 101540 -106290 101540 -105040 M 90065.835 -86312.5 89834.165 -86312.5 M 90065.835 -87032.5 89834.165 -87032.5" fill="none" stroke-width="120"/></g></svg>