<svg version="1.1" xmlns="http://www.w3.org/2000/svg" xmlns:xlink="http://www.w3.org/1999/xlink" stroke-linecap="round" stroke-linejoin="round" stroke-width="0" fill-rule="evenodd" width="116.244mm" height="74.9298mm" viewBox="85528 -140604.8 116244 74929.8" id="fBsFyK67S2hAaVSiUzU3"><defs><rect x="-675" y="-850" width="1350" height="1700" rx="675" ry="675" id="fBsFyK67S2hAaVSiUzU3_pad-10"/><rect x="-550" y="-750" width="1100" height="1500" rx="550" ry="550" id="fBsFyK67S2hAaVSiUzU3_pad-11"/><circle cx="0" cy="0" r="762" id="fBsFyK67S2hAaVSiUzU3_pad-12"/><rect x="-450" y="-600" width="900" height="1200" id="fBsFyK67S2hAaVSiUzU3_pad-13"/></defs><g transform="translate(0,-206279.8) scale(1,-1)" fill="currentColor" stroke="currentColor"><use xlink:href="#fBsFyK67S2hAaVSiUzU3_pad-10" x="99475" y="-66525"/><use xlink:href="#fBsFyK67S2hAaVSiUzU3_pad-11" x="94325" y="-69525"/><use xlink:href="#fBsFyK67S2hAaVSiUzU3_pad-10" x="94015" y="-66525"/><use xlink:href="#fBsFyK67S2hAaVSiUzU3_pad-11" x="99165" y="-69525"/><use xlink:href="#fBsFyK67S2hAaVSiUzU3_pad-12" x="110090" y="-138540"/><use xlink:href="#fBsFyK67S2hAaVSiUzU3_pad-12" x="117710" y="-138540"/><use xlink:href="#fBsFyK67S2hAaVSiUzU3_pad-12" x="117710" y="-133460"/><use xlink:href="#fBsFyK67S2hAaVSiUzU3_pad-12" x="110090" y="-133460"/><use xlink:href="#fBsFyK67S2hAaVSiUzU3_pad-12" x="201010" y="-130540"/><use xlink:href="#fBsFyK67S2hAaVSiUzU3_pad-12" x="193390" y="-130540"/><use xlink:href="#fBsFyK67S2hAaVSiUzU3_pad-12" x="201010" y="-125460"/><use xlink:href="#fBsFyK67S2hAaVSiUzU3_pad-12" x="193390" y="-125460"/><use xlink:href="#fBsFyK67S2hAaVSiUzU3_pad-12" x="93910" y="-117460"/><use xlink:href="#fBsFyK67S2hAaVSiUzU3_pad-12" x="86290" y="-117460"/><use xlink:href="#fBsFyK67S2hAaVSiUzU3_pad-12" x="86290" y="-122540"/><use xlink:href="#fBsFyK67S2hAaVSiUzU3_pad-12" x="93910" y="-122540"/><use xlink:href="#fBsFyK67S2hAaVSiUzU3_pad-12" x="177210" y="-122540"/><use xlink:href="#fBsFyK67S2hAaVSiUzU3_pad-12" x="169590" y="-122540"/><use xlink:href="#fBsFyK67S2hAaVSiUzU3_pad-12" x="169590" y="-117460"/><use xlink:href="#fBsFyK67S2hAaVSiUzU3_pad-12" x="177210" y="-117460"/><use xlink:href="#fBsFyK67S2hAaVSiUzU3_pad-12" x="93910" y="-114540"/><use xlink:href="#fBsFyK67S2hAaVSiUzU3_pad-12" x="86290" y="-114540"/><use xlink:href="#fBsFyK67S2hAaVSiUzU3_pad-12" x="86290" y="-109460"/><use xlink:href="#fBsFyK67S2hAaVSiUzU3_pad-12" x="93910" y="-109460"/><use xlink:href="#fBsFyK67S2hAaVSiUzU3_pad-12" x="93910" y="-133460"/><use xlink:href="#fBsFyK67S2hAaVSiUzU3_pad-12" x="86290" y="-133460"/><use xlink:href="#fBsFyK67S2hAaVSiUzU3_pad-12" x="93910" y="-138540"/><use xlink:href="#fBsFyK67S2hAaVSiUzU3_pad-12" x="86290" y="-138540"/><use xlink:href="#fBsFyK67S2hAaVSiUzU3_pad-12" x="105810" y="-138540"/><use xlink:href="#fBsFyK67S2hAaVSiUzU3_pad-12" x="98190" y="-138540"/><use xlink:href="#fBsFyK67S2hAaVSiUzU3_pad-12" x="98190" y="-133460"/><use xlink:href="#fBsFyK67S2hAaVSiUzU3_pad-12" x="105810" y="-133460"/><use xlink:href="#fBsFyK67S2hAaVSiUzU3_pad-12" x="189110" y="-109460"/><use xlink:href="#fBsFyK67S2hAaVSiUzU3_pad-12" x="181490" y="-109460"/><use xlink:href="#fBsFyK67S2hAaVSiUzU3_pad-12" x="181490" y="-114540"/><use xlink:href="#fBsFyK67S2hAaVSiUzU3_pad-12" x="189110" y="-114540"/><use xlink:href="#fBsFyK67S2hAaVSiUzU3_pad-12" x="157690" y="-122540"/><use xlink:href="#fBsFyK67S2hAaVSiUzU3_pad-12" x="165310" y="-122540"/><use xlink:href="#fBsFyK67S2hAaVSiUzU3_pad-12" x="165310" y="-117460"/><use xlink:href="#fBsFyK67S2hAaVSiUzU3_pad-12" x="157690" y="-117460"/><use xlink:href="#fBsFyK67S2hAaVSiUzU3_pad-12" x="105810" y="-122540"/><use xlink:href="#fBsFyK67S2hAaVSiUzU3_pad-12" x="98190" y="-122540"/><use xlink:href="#fBsFyK67S2hAaVSiUzU3_pad-12" x="105810" y="-117460"/><use xlink:href="#fBsFyK67S2hAaVSiUzU3_pad-12" x="98190" y="-117460"/><use xlink:href="#fBsFyK67S2hAaVSiUzU3_pad-12" x="141510" y="-109460"/><use xlink:href="#fBsFyK67S2hAaVSiUzU3_pad-12" x="133890" y="-109460"/><use xlink:href="#fBsFyK67S2hAaVSiUzU3_pad-12" x="133890" y="-114540"/><use xlink:href="#fBsFyK67S2hAaVSiUzU3_pad-12" x="141510" y="-114540"/><use xlink:href="#fBsFyK67S2hAaVSiUzU3_pad-12" x="117710" y="-130540"/><use xlink:href="#fBsFyK67S2hAaVSiUzU3_pad-12" x="110090" y="-130540"/><use xlink:href="#fBsFyK67S2hAaVSiUzU3_pad-12" x="117710" y="-125460"/><use xlink:href="#fBsFyK67S2hAaVSiUzU3_pad-12" x="110090" y="-125460"/><use xlink:href="#fBsFyK67S2hAaVSiUzU3_pad-12" x="133890" y="-138540"/><use xlink:href="#fBsFyK67S2hAaVSiUzU3_pad-12" x="141510" y="-138540"/><use xlink:href="#fBsFyK67S2hAaVSiUzU3_pad-12" x="141510" y="-133460"/><use xlink:href="#fBsFyK67S2hAaVSiUzU3_pad-12" x="133890" y="-133460"/><use xlink:href="#fBsFyK67S2hAaVSiUzU3_pad-12" x="117710" y="-122540"/><use xlink:href="#fBsFyK67S2hAaVSiUzU3_pad-12" x="110090" y="-122540"/><use xlink:href="#fBsFyK67S2hAaVSiUzU3_pad-12" x="117710" y="-117460"/><use xlink:href="#fBsFyK67S2hAaVSiUzU3_pad-12" x="110090" y="-117460"/><use xlink:href="#fBsFyK67S2hAaVSiUzU3_pad-12" x="145790" y="-130540"/><use xlink:href="#fBsFyK67S2hAaVSiUzU3_pad-12" x="153410" y="-130540"/><use xlink:href="#fBsFyK67S2hAaVSiUzU3_pad-12" x="153410" y="-125460"/><use xlink:href="#fBsFyK67S2hAaVSiUzU3_pad-12" x="145790" y="-125460"/><use xlink:href="#fBsFyK67S2hAaVSiUzU3_pad-12" x="129610" y="-138540"/><use xlink:href="#fBsFyK67S2hAaVSiUzU3_pad-12" x="121990" y="-138540"/><use xlink:href="#fBsFyK67S2hAaVSiUzU3_pad-12" x="121990" y="-133460"/><use xlink:href="#fBsFyK67S2hAaVSiUzU3_pad-12" x="129610" y="-133460"/><use xlink:href="#fBsFyK67S2hAaVSiUzU3_pad-12" x="189110" y="-138540"/><use xlink:href="#fBsFyK67S2hAaVSiUzU3_pad-12" x="181490" y="-138540"/><use xlink:href="#fBsFyK67S2hAaVSiUzU3_pad-12" x="189110" y="-133460"/><use xlink:href="#fBsFyK67S2hAaVSiUzU3_pad-12" x="181490" y="-133460"/><use xlink:href="#fBsFyK67S2hAaVSiUzU3_pad-12" x="165310" y="-138540"/><use xlink:href="#fBsFyK67S2hAaVSiUzU3_pad-12" x="157690" y="-138540"/><use xlink:href="#fBsFyK67S2hAaVSiUzU3_pad-12" x="157690" y="-133460"/><use xlink:href="#fBsFyK67S2hAaVSiUzU3_pad-12" x="165310" y="-133460"/><use xlink:href="#fBsFyK67S2hAaVSiUzU3_pad-12" x="121990" y="-122540"/><use xlink:href="#fBsFyK67S2hAaVSiUzU3_pad-12" x="129610" y="-122540"/><use xlink:href="#fBsFyK67S2hAaVSiUzU3_pad-12" x="121990" y="-117460"/><use xlink:href="#fBsFyK67S2hAaVSiUzU3_pad-12" x="129610" y="-117460"/><use xlink:href="#fBsFyK67S2hAaVSiUzU3_pad-12" x="157690" y="-114540"/><use xlink:href="#fBsFyK67S2hAaVSiUzU3_pad-12" x="165310" y="-114540"/><use xlink:href="#fBsFyK67S2hAaVSiUzU3_pad-12" x="157690" y="-109460"/><use xlink:href="#fBsFyK67S2hAaVSiUzU3_pad-12" x="165310" y="-109460"/><use xlink:href="#fBsFyK67S2hAaVSiUzU3_pad-12" x="86290" y="-125460"/><use xlink:href="#fBsFyK67S2hAaVSiUzU3_pad-12" x="93910" y="-125460"/><use xlink:href="#fBsFyK67S2hAaVSiUzU3_pad-12" x="93910" y="-130540"/><use xlink:href="#fBsFyK67S2hAaVSiUzU3_pad-12" x="86290" y="-130540"/><use xlink:href="#fBsFyK67S2hAaVSiUzU3_pad-12" x="201010" y="-114540"/><use xlink:href="#fBsFyK67S2hAaVSiUzU3_pad-12" x="193390" y="-114540"/><use xlink:href="#fBsFyK67S2hAaVSiUzU3_pad-12" x="193390" y="-109460"/><use xlink:href="#fBsFyK67S2hAaVSiUzU3_pad-12" x="201010" y="-109460"/><use xlink:href="#fBsFyK67S2hAaVSiUzU3_pad-12" x="153410" y="-122540"/><use xlink:href="#fBsFyK67S2hAaVSiUzU3_pad-12" x="145790" y="-122540"/><use xlink:href="#fBsFyK67S2hAaVSiUzU3_pad-12" x="145790" y="-117460"/><use xlink:href="#fBsFyK67S2hAaVSiUzU3_pad-12" x="153410" y="-117460"/><use xlink:href="#fBsFyK67S2hAaVSiUzU3_pad-12" x="181490" y="-117460"/><use xlink:href="#fBsFyK67S2hAaVSiUzU3_pad-12" x="189110" y="-117460"/><use xlink:href="#fBsFyK67S2hAaVSiUzU3_pad-12" x="181490" y="-122540"/><use xlink:href="#fBsFyK67S2hAaVSiUzU3_pad-12" x="189110" y="-122540"/><use xlink:href="#fBsFyK67S2hAaVSiUzU3_pad-12" x="169590" y="-130540"/><use xlink:href="#fBsFyK67S2hAaVSiUzU3_pad-12" x="177210" y="-130540"/><use xlink:href="#fBsFyK67S2hAaVSiUzU3_pad-12" x="169590" y="-125460"/><use xlink:href="#fBsFyK67S2hAaVSiUzU3_pad-12" x="177210" y="-125460"/><use xlink:href="#fBsFyK67S2hAaVSiUzU3_pad-12" x="153410" y="-109460"/><use xlink:href="#fBsFyK67S2hAaVSiUzU3_pad-12" x="145790" y="-109460"/><use xlink:href="#fBsFyK67S2hAaVSiUzU3_pad-12" x="145790" y="-114540"/><use xlink:href="#fBsFyK67S2hAaVSiUzU3_pad-12" x="153410" y="-114540"/><use xlink:href="#fBsFyK67S2hAaVSiUzU3_pad-12" x="201010" y="-122540"/><use xlink:href="#fBsFyK67S2hAaVSiUzU3_pad-12" x="193390" y="-122540"/><use xlink:href="#fBsFyK67S2hAaVSiUzU3_pad-12" x="201010" y="-117460"/><use xlink:href="#fBsFyK67S2hAaVSiUzU3_pad-12" x="193390" y="-117460"/><use xlink:href="#fBsFyK67S2hAaVSiUzU3_pad-12" x="177210" y="-138540"/><use xlink:href="#fBsFyK67S2hAaVSiUzU3_pad-12" x="169590" y="-138540"/><use xlink:href="#fBsFyK67S2hAaVSiUzU3_pad-12" x="177210" y="-133460"/><use xlink:href="#fBsFyK67S2hAaVSiUzU3_pad-12" x="169590" y="-133460"/><use xlink:href="#fBsFyK67S2hAaVSiUzU3_pad-12" x="105810" y="-130540"/><use xlink:href="#fBsFyK67S2hAaVSiUzU3_pad-12" x="98190" y="-130540"/><use xlink:href="#fBsFyK67S2hAaVSiUzU3_pad-12" x="98190" y="-125460"/><use xlink:href="#fBsFyK67S2hAaVSiUzU3_pad-12" x="105810" y="-125460"/><use xlink:href="#fBsFyK67S2hAaVSiUzU3_pad-12" x="117710" y="-114540"/><use xlink:href="#fBsFyK67S2hAaVSiUzU3_pad-12" x="110090" y="-114540"/><use xlink:href="#fBsFyK67S2hAaVSiUzU3_pad-12" x="117710" y="-109460"/><use xlink:href="#fBsFyK67S2hAaVSiUzU3_pad-12" x="110090" y="-109460"/><use xlink:href="#fBsFyK67S2hAaVSiUzU3_pad-12" x="121990" y="-114540"/><use xlink:href="#fBsFyK67S2hAaVSiUzU3_pad-12" x="129610" y="-114540"/><use xlink:href="#fBsFyK67S2hAaVSiUzU3_pad-12" x="129610" y="-109460"/><use xlink:href="#fBsFyK67S2hAaVSiUzU3_pad-12" x="121990" y="-109460"/><use xlink:href="#fBsFyK67S2hAaVSiUzU3_pad-12" x="133890" y="-122540"/><use xlink:href="#fBsFyK67S2hAaVSiUzU3_pad-12" x="141510" y="-122540"/><use xlink:href="#fBsFyK67S2hAaVSiUzU3_pad-12" x="141510" y="-117460"/><use xlink:href="#fBsFyK67S2hAaVSiUzU3_pad-12" x="133890" y="-117460"/><use xlink:href="#fBsFyK67S2hAaVSiUzU3_pad-12" x="129610" y="-130540"/><use xlink:href="#fBsFyK67S2hAaVSiUzU3_pad-12" x="121990" y="-130540"/><use xlink:href="#fBsFyK67S2hAaVSiUzU3_pad-12" x="129610" y="-125460"/><use xlink:href="#fBsFyK67S2hAaVSiUzU3_pad-12" x="121990" y="-125460"/><use xlink:href="#fBsFyK67S2hAaVSiUzU3_pad-12" x="105810" y="-114540"/><use xlink:href="#fBsFyK67S2hAaVSiUzU3_pad-12" x="98190" y="-114540"/><use xlink:href="#fBsFyK67S2hAaVSiUzU3_pad-12" x="98190" y="-109460"/><use xlink:href="#fBsFyK67S2hAaVSiUzU3_pad-12" x="105810" y="-109460"/><use xlink:href="#fBsFyK67S2hAaVSiUzU3_pad-12" x="189110" y="-130540"/><use xlink:href="#fBsFyK67S2hAaVSiUzU3_pad-12" x="181490" y="-130540"/><use xlink:href="#fBsFyK67S2hAaVSiUzU3_pad-12" x="189110" y="-125460"/><use xlink:href="#fBsFyK67S2hAaVSiUzU3_pad-12" x="181490" y="-125460"/><use xlink:href="#fBsFyK67S2hAaVSiUzU3_pad-12" x="157690" y="-130540"/><use xlink:href="#fBsFyK67S2hAaVSiUzU3_pad-12" x="165310" y="-130540"/><use xlink:href="#fBsFyK67S2hAaVSiUzU3_pad-12" x="165310" y="-125460"/><use xlink:href="#fBsFyK67S2hAaVSiUzU3_pad-12" x="157690" y="-125460"/><use xlink:href="#fBsFyK67S2hAaVSiUzU3_pad-12" x="153410" y="-138540"/><use xlink:href="#fBsFyK67S2hAaVSiUzU3_pad-12" x="145790" y="-138540"/><use xlink:href="#fBsFyK67S2hAaVSiUzU3_pad-12" x="153410" y="-133460"/><use xlink:href="#fBsFyK67S2hAaVSiUzU3_pad-12" x="145790" y="-133460"/><use xlink:href="#fBsFyK67S2hAaVSiUzU3_pad-12" x="169590" y="-114540"/><use xlink:href="#fBsFyK67S2hAaVSiUzU3_pad-12" x="177210" y="-114540"/><use xlink:href="#fBsFyK67S2hAaVSiUzU3_pad-12" x="177210" y="-109460"/><use xlink:href="#fBsFyK67S2hAaVSiUzU3_pad-12" x="169590" y="-109460"/><use xlink:href="#fBsFyK67S2hAaVSiUzU3_pad-12" x="201010" y="-138540"/><use xlink:href="#fBsFyK67S2hAaVSiUzU3_pad-12" x="193390" y="-138540"/><use xlink:href="#fBsFyK67S2hAaVSiUzU3_pad-12" x="201010" y="-133460"/><use xlink:href="#fBsFyK67S2hAaVSiUzU3_pad-12" x="193390" y="-133460"/><use xlink:href="#fBsFyK67S2hAaVSiUzU3_pad-12" x="141510" y="-130540"/><use xlink:href="#fBsFyK67S2hAaVSiUzU3_pad-12" x="133890" y="-130540"/><use xlink:href="#fBsFyK67S2hAaVSiUzU3_pad-12" x="133890" y="-125460"/><use xlink:href="#fBsFyK67S2hAaVSiUzU3_pad-12" x="141510" y="-125460"/><use xlink:href="#fBsFyK67S2hAaVSiUzU3_pad-13" x="159850" y="-124002.8"/><use xlink:href="#fBsFyK67S2hAaVSiUzU3_pad-13" x="163150" y="-124002.8"/><use xlink:href="#fBsFyK67S2hAaVSiUzU3_pad-13" x="183643" y="-132003.8"/><use xlink:href="#fBsFyK67S2hAaVSiUzU3_pad-13" x="186943" y="-132003.8"/><use xlink:href="#fBsFyK67S2hAaVSiUzU3_pad-13" x="147950" y="-116001.8"/><use xlink:href="#fBsFyK67S2hAaVSiUzU3_pad-13" x="151250" y="-116001.8"/><use xlink:href="#fBsFyK67S2hAaVSiUzU3_pad-13" x="171750" y="-132003.8"/><use xlink:href="#fBsFyK67S2hAaVSiUzU3_pad-13" x="175050" y="-132003.8"/><use xlink:href="#fBsFyK67S2hAaVSiUzU3_pad-13" x="195550" y="-140004.8"/><use xlink:href="#fBsFyK67S2hAaVSiUzU3_pad-13" x="198850" y="-140004.8"/><use xlink:href="#fBsFyK67S2hAaVSiUzU3_pad-13" x="112243.6" y="-124002.8"/><use xlink:href="#fBsFyK67S2hAaVSiUzU3_pad-13" x="115543.6" y="-124002.8"/><use xlink:href="#fBsFyK67S2hAaVSiUzU3_pad-13" x="100350" y="-140004.8"/><use xlink:href="#fBsFyK67S2hAaVSiUzU3_pad-13" x="103650" y="-140004.8"/><use xlink:href="#fBsFyK67S2hAaVSiUzU3_pad-13" x="135941.8" y="-140004.8"/><use xlink:href="#fBsFyK67S2hAaVSiUzU3_pad-13" x="139241.8" y="-140004.8"/><use xlink:href="#fBsFyK67S2hAaVSiUzU3_pad-13" x="171750" y="-124002.8"/><use xlink:href="#fBsFyK67S2hAaVSiUzU3_pad-13" x="175050" y="-124002.8"/><use xlink:href="#fBsFyK67S2hAaVSiUzU3_pad-13" x="159843.2" y="-140004.8"/><use xlink:href="#fBsFyK67S2hAaVSiUzU3_pad-13" x="163143.2" y="-140004.8"/><use xlink:href="#fBsFyK67S2hAaVSiUzU3_pad-13" x="124150" y="-116001.8"/><use xlink:href="#fBsFyK67S2hAaVSiUzU3_pad-13" x="127450" y="-116001.8"/><use xlink:href="#fBsFyK67S2hAaVSiUzU3_pad-13" x="88450" y="-132003.8"/><use xlink:href="#fBsFyK67S2hAaVSiUzU3_pad-13" x="91750" y="-132003.8"/><use xlink:href="#fBsFyK67S2hAaVSiUzU3_pad-13" x="183643" y="-116001.8"/><use xlink:href="#fBsFyK67S2hAaVSiUzU3_pad-13" x="186943" y="-116001.8"/><use xlink:href="#fBsFyK67S2hAaVSiUzU3_pad-13" x="88443.8" y="-140004.8"/><use xlink:href="#fBsFyK67S2hAaVSiUzU3_pad-13" x="91743.8" y="-140004.8"/><use xlink:href="#fBsFyK67S2hAaVSiUzU3_pad-13" x="88450" y="-124002.8"/><use xlink:href="#fBsFyK67S2hAaVSiUzU3_pad-13" x="91750" y="-124002.8"/><use xlink:href="#fBsFyK67S2hAaVSiUzU3_pad-13" x="159850" y="-116001.8"/><use xlink:href="#fBsFyK67S2hAaVSiUzU3_pad-13" x="163150" y="-116001.8"/><use xlink:href="#fBsFyK67S2hAaVSiUzU3_pad-13" x="195550" y="-132003.8"/><use xlink:href="#fBsFyK67S2hAaVSiUzU3_pad-13" x="198850" y="-132003.8"/><use xlink:href="#fBsFyK67S2hAaVSiUzU3_pad-13" x="183650" y="-140004.8"/><use xlink:href="#fBsFyK67S2hAaVSiUzU3_pad-13" x="186950" y="-140004.8"/><use xlink:href="#fBsFyK67S2hAaVSiUzU3_pad-13" x="195550" y="-116001.8"/><use xlink:href="#fBsFyK67S2hAaVSiUzU3_pad-13" x="198850" y="-116001.8"/><use xlink:href="#fBsFyK67S2hAaVSiUzU3_pad-13" x="136050" y="-132003.8"/><use xlink:href="#fBsFyK67S2hAaVSiUzU3_pad-13" x="139350" y="-132003.8"/><use xlink:href="#fBsFyK67S2hAaVSiUzU3_pad-13" x="100350" y="-124002.8"/><use xlink:href="#fBsFyK67S2hAaVSiUzU3_pad-13" x="103650" y="-124002.8"/><use xlink:href="#fBsFyK67S2hAaVSiUzU3_pad-13" x="159850" y="-132003.8"/><use xlink:href="#fBsFyK67S2hAaVSiUzU3_pad-13" x="163150" y="-132003.8"/><use xlink:href="#fBsFyK67S2hAaVSiUzU3_pad-13" x="136043.4" y="-116001.8"/><use xlink:href="#fBsFyK67S2hAaVSiUzU3_pad-13" x="139343.4" y="-116001.8"/><use xlink:href="#fBsFyK67S2hAaVSiUzU3_pad-13" x="124150" y="-132003.8"/><use xlink:href="#fBsFyK67S2hAaVSiUzU3_pad-13" x="127450" y="-132003.8"/><use xlink:href="#fBsFyK67S2hAaVSiUzU3_pad-13" x="147950" y="-132003.8"/><use xlink:href="#fBsFyK67S2hAaVSiUzU3_pad-13" x="151250" y="-132003.8"/><use xlink:href="#fBsFyK67S2hAaVSiUzU3_pad-13" x="100331" y="-116001.8"/><use xlink:href="#fBsFyK67S2hAaVSiUzU3_pad-13" x="103631" y="-116001.8"/><use xlink:href="#fBsFyK67S2hAaVSiUzU3_pad-13" x="171750" y="-140004.8"/><use xlink:href="#fBsFyK67S2hAaVSiUzU3_pad-13" x="175050" y="-140004.8"/><use xlink:href="#fBsFyK67S2hAaVSiUzU3_pad-13" x="112243.6" y="-132003.8"/><use xlink:href="#fBsFyK67S2hAaVSiUzU3_pad-13" x="115543.6" y="-132003.8"/><use xlink:href="#fBsFyK67S2hAaVSiUzU3_pad-13" x="147950" y="-140004.8"/><use xlink:href="#fBsFyK67S2hAaVSiUzU3_pad-13" x="151250" y="-140004.8"/><use xlink:href="#fBsFyK67S2hAaVSiUzU3_pad-13" x="171750" y="-116001.8"/><use xlink:href="#fBsFyK67S2hAaVSiUzU3_pad-13" x="175050" y="-116001.8"/><use xlink:href="#fBsFyK67S2hAaVSiUzU3_pad-13" x="88367.6" y="-116001.8"/><use xlink:href="#fBsFyK67S2hAaVSiUzU3_pad-13" x="91667.6" y="-116001.8"/><use xlink:href="#fBsFyK67S2hAaVSiUzU3_pad-13" x="124150" y="-124002.8"/><use xlink:href="#fBsFyK67S2hAaVSiUzU3_pad-13" x="127450" y="-124002.8"/><use xlink:href="#fBsFyK67S2hAaVSiUzU3_pad-13" x="183643" y="-124002.8"/><use xlink:href="#fBsFyK67S2hAaVSiUzU3_pad-13" x="186943" y="-124002.8"/><use xlink:href="#fBsFyK67S2hAaVSiUzU3_pad-13" x="195550" y="-124002.8"/><use xlink:href="#fBsFyK67S2hAaVSiUzU3_pad-13" x="198850" y="-124002.8"/><use xlink:href="#fBsFyK67S2hAaVSiUzU3_pad-13" x="136050" y="-124002.8"/><use xlink:href="#fBsFyK67S2hAaVSiUzU3_pad-13" x="139350" y="-124002.8"/><use xlink:href="#fBsFyK67S2hAaVSiUzU3_pad-13" x="147950" y="-124002.8"/><use xlink:href="#fBsFyK67S2hAaVSiUzU3_pad-13" x="151250" y="-124002.8"/><use xlink:href="#fBsFyK67S2hAaVSiUzU3_pad-13" x="112243.6" y="-140004.8"/><use xlink:href="#fBsFyK67S2hAaVSiUzU3_pad-13" x="115543.6" y="-140004.8"/><use xlink:href="#fBsFyK67S2hAaVSiUzU3_pad-13" x="100350" y="-132003.8"/><use xlink:href="#fBsFyK67S2hAaVSiUzU3_pad-13" x="103650" y="-132003.8"/><use xlink:href="#fBsFyK67S2hAaVSiUzU3_pad-13" x="124150" y="-140004.8"/><use xlink:href="#fBsFyK67S2hAaVSiUzU3_pad-13" x="127450" y="-140004.8"/><use xlink:href="#fBsFyK67S2hAaVSiUzU3_pad-13" x="112243.6" y="-116001.8"/><use xlink:href="#fBsFyK67S2hAaVSiUzU3_pad-13" x="115543.6" y="-116001.8"/></g></svg>