<svg version="1.1" xmlns="http://www.w3.org/2000/svg" xmlns:xlink="http://www.w3.org/1999/xlink" stroke-linecap="round" stroke-linejoin="round" stroke-width="0" fill-rule="evenodd" width="111.38239999999999mm" height="25.203mm" viewBox="87917.6 -140604.8 111382.4 25203" id="raoUitR0dv5cI6H4qOlY"><defs><rect x="-450" y="-600" width="900" height="1200" id="raoUitR0dv5cI6H4qOlY_pad-10"/></defs><g transform="translate(0,-256006.59999999998) scale(1,-1)" fill="currentColor" stroke="currentColor"><use xlink:href="#raoUitR0dv5cI6H4qOlY_pad-10" x="159850" y="-124002.8"/><use xlink:href="#raoUitR0dv5cI6H4qOlY_pad-10" x="163150" y="-124002.8"/><use xlink:href="#raoUitR0dv5cI6H4qOlY_pad-10" x="183643" y="-132003.8"/><use xlink:href="#raoUitR0dv5cI6H4qOlY_pad-10" x="186943" y="-132003.8"/><use xlink:href="#raoUitR0dv5cI6H4qOlY_pad-10" x="147950" y="-116001.8"/><use xlink:href="#raoUitR0dv5cI6H4qOlY_pad-10" x="151250" y="-116001.8"/><use xlink:href="#raoUitR0dv5cI6H4qOlY_pad-10" x="171750" y="-132003.8"/><use xlink:href="#raoUitR0dv5cI6H4qOlY_pad-10" x="175050" y="-132003.8"/><use xlink:href="#raoUitR0dv5cI6H4qOlY_pad-10" x="195550" y="-140004.8"/><use xlink:href="#raoUitR0dv5cI6H4qOlY_pad-10" x="198850" y="-140004.8"/><use xlink:href="#raoUitR0dv5cI6H4qOlY_pad-10" x="112243.6" y="-124002.8"/><use xlink:href="#raoUitR0dv5cI6H4qOlY_pad-10" x="115543.6" y="-124002.8"/><use xlink:href="#raoUitR0dv5cI6H4qOlY_pad-10" x="100350" y="-140004.8"/><use xlink:href="#raoUitR0dv5cI6H4qOlY_pad-10" x="103650" y="-140004.8"/><use xlink:href="#raoUitR0dv5cI6H4qOlY_pad-10" x="135941.8" y="-140004.8"/><use xlink:href="#raoUitR0dv5cI6H4qOlY_pad-10" x="139241.8" y="-140004.8"/><use xlink:href="#raoUitR0dv5cI6H4qOlY_pad-10" x="171750" y="-124002.8"/><use xlink:href="#raoUitR0dv5cI6H4qOlY_pad-10" x="175050" y="-124002.8"/><use xlink:href="#raoUitR0dv5cI6H4qOlY_pad-10" x="159843.2" y="-140004.8"/><use xlink:href="#raoUitR0dv5cI6H4qOlY_pad-10" x="163143.2" y="-140004.8"/><use xlink:href="#raoUitR0dv5cI6H4qOlY_pad-10" x="124150" y="-116001.8"/><use xlink:href="#raoUitR0dv5cI6H4qOlY_pad-10" x="127450" y="-116001.8"/><use xlink:href="#raoUitR0dv5cI6H4qOlY_pad-10" x="88450" y="-132003.8"/><use xlink:href="#raoUitR0dv5cI6H4qOlY_pad-10" x="91750" y="-132003.8"/><use xlink:href="#raoUitR0dv5cI6H4qOlY_pad-10" x="183643" y="-116001.8"/><use xlink:href="#raoUitR0dv5cI6H4qOlY_pad-10" x="186943" y="-116001.8"/><use xlink:href="#raoUitR0dv5cI6H4qOlY_pad-10" x="88443.8" y="-140004.8"/><use xlink:href="#raoUitR0dv5cI6H4qOlY_pad-10" x="91743.8" y="-140004.8"/><use xlink:href="#raoUitR0dv5cI6H4qOlY_pad-10" x="88450" y="-124002.8"/><use xlink:href="#raoUitR0dv5cI6H4qOlY_pad-10" x="91750" y="-124002.8"/><use xlink:href="#raoUitR0dv5cI6H4qOlY_pad-10" x="159850" y="-116001.8"/><use xlink:href="#raoUitR0dv5cI6H4qOlY_pad-10" x="163150" y="-116001.8"/><use xlink:href="#raoUitR0dv5cI6H4qOlY_pad-10" x="195550" y="-132003.8"/><use xlink:href="#raoUitR0dv5cI6H4qOlY_pad-10" x="198850" y="-132003.8"/><use xlink:href="#raoUitR0dv5cI6H4qOlY_pad-10" x="183650" y="-140004.8"/><use xlink:href="#raoUitR0dv5cI6H4qOlY_pad-10" x="186950" y="-140004.8"/><use xlink:href="#raoUitR0dv5cI6H4qOlY_pad-10" x="195550" y="-116001.8"/><use xlink:href="#raoUitR0dv5cI6H4qOlY_pad-10" x="198850" y="-116001.8"/><use xlink:href="#raoUitR0dv5cI6H4qOlY_pad-10" x="136050" y="-132003.8"/><use xlink:href="#raoUitR0dv5cI6H4qOlY_pad-10" x="139350" y="-132003.8"/><use xlink:href="#raoUitR0dv5cI6H4qOlY_pad-10" x="100350" y="-124002.8"/><use xlink:href="#raoUitR0dv5cI6H4qOlY_pad-10" x="103650" y="-124002.8"/><use xlink:href="#raoUitR0dv5cI6H4qOlY_pad-10" x="159850" y="-132003.8"/><use xlink:href="#raoUitR0dv5cI6H4qOlY_pad-10" x="163150" y="-132003.8"/><use xlink:href="#raoUitR0dv5cI6H4qOlY_pad-10" x="136043.4" y="-116001.8"/><use xlink:href="#raoUitR0dv5cI6H4qOlY_pad-10" x="139343.4" y="-116001.8"/><use xlink:href="#raoUitR0dv5cI6H4qOlY_pad-10" x="124150" y="-132003.8"/><use xlink:href="#raoUitR0dv5cI6H4qOlY_pad-10" x="127450" y="-132003.8"/><use xlink:href="#raoUitR0dv5cI6H4qOlY_pad-10" x="147950" y="-132003.8"/><use xlink:href="#raoUitR0dv5cI6H4qOlY_pad-10" x="151250" y="-132003.8"/><use xlink:href="#raoUitR0dv5cI6H4qOlY_pad-10" x="100331" y="-116001.8"/><use xlink:href="#raoUitR0dv5cI6H4qOlY_pad-10" x="103631" y="-116001.8"/><use xlink:href="#raoUitR0dv5cI6H4qOlY_pad-10" x="171750" y="-140004.8"/><use xlink:href="#raoUitR0dv5cI6H4qOlY_pad-10" x="175050" y="-140004.8"/><use xlink:href="#raoUitR0dv5cI6H4qOlY_pad-10" x="112243.6" y="-132003.8"/><use xlink:href="#raoUitR0dv5cI6H4qOlY_pad-10" x="115543.6" y="-132003.8"/><use xlink:href="#raoUitR0dv5cI6H4qOlY_pad-10" x="147950" y="-140004.8"/><use xlink:href="#raoUitR0dv5cI6H4qOlY_pad-10" x="151250" y="-140004.8"/><use xlink:href="#raoUitR0dv5cI6H4qOlY_pad-10" x="171750" y="-116001.8"/><use xlink:href="#raoUitR0dv5cI6H4qOlY_pad-10" x="175050" y="-116001.8"/><use xlink:href="#raoUitR0dv5cI6H4qOlY_pad-10" x="88367.6" y="-116001.8"/><use xlink:href="#raoUitR0dv5cI6H4qOlY_pad-10" x="91667.6" y="-116001.8"/><use xlink:href="#raoUitR0dv5cI6H4qOlY_pad-10" x="124150" y="-124002.8"/><use xlink:href="#raoUitR0dv5cI6H4qOlY_pad-10" x="127450" y="-124002.8"/><use xlink:href="#raoUitR0dv5cI6H4qOlY_pad-10" x="183643" y="-124002.8"/><use xlink:href="#raoUitR0dv5cI6H4qOlY_pad-10" x="186943" y="-124002.8"/><use xlink:href="#raoUitR0dv5cI6H4qOlY_pad-10" x="195550" y="-124002.8"/><use xlink:href="#raoUitR0dv5cI6H4qOlY_pad-10" x="198850" y="-124002.8"/><use xlink:href="#raoUitR0dv5cI6H4qOlY_pad-10" x="136050" y="-124002.8"/><use xlink:href="#raoUitR0dv5cI6H4qOlY_pad-10" x="139350" y="-124002.8"/><use xlink:href="#raoUitR0dv5cI6H4qOlY_pad-10" x="147950" y="-124002.8"/><use xlink:href="#raoUitR0dv5cI6H4qOlY_pad-10" x="151250" y="-124002.8"/><use xlink:href="#raoUitR0dv5cI6H4qOlY_pad-10" x="112243.6" y="-140004.8"/><use xlink:href="#raoUitR0dv5cI6H4qOlY_pad-10" x="115543.6" y="-140004.8"/><use xlink:href="#raoUitR0dv5cI6H4qOlY_pad-10" x="100350" y="-132003.8"/><use xlink:href="#raoUitR0dv5cI6H4qOlY_pad-10" x="103650" y="-132003.8"/><use xlink:href="#raoUitR0dv5cI6H4qOlY_pad-10" x="124150" y="-140004.8"/><use xlink:href="#raoUitR0dv5cI6H4qOlY_pad-10" x="127450" y="-140004.8"/><use xlink:href="#raoUitR0dv5cI6H4qOlY_pad-10" x="112243.6" y="-116001.8"/><use xlink:href="#raoUitR0dv5cI6H4qOlY_pad-10" x="115543.6" y="-116001.8"/></g></svg>