<svg version="1.1" xmlns="http://www.w3.org/2000/svg" xmlns:xlink="http://www.w3.org/1999/xlink" stroke-linecap="round" stroke-linejoin="round" stroke-width="0" fill-rule="evenodd" width="213.9374mm" height="220.68717999999998mm" viewBox="87707.6 -142532.18 213937.4 220687.18" id="OJ75hJMApYaZXZHHuLwQ"><g transform="translate(0,-64377.17999999999) scale(1,-1)" fill="currentColor" stroke="currentColor"><path d="M 301570 18080 301570 78080 M 199570 18080 199570 78080 M 199570 18080 301570 18080 M 199570 78080 301570 78080 M 235855.714 45365.714 235855.714 51365.714 237284.285 51365.714 238141.428 51080 238712.857 50508.571 238998.571 49937.142 239284.285 48794.285 239284.285 47937.142 238998.571 46794.285 238712.857 46222.857 238141.428 45651.428 237284.285 45365.714 235855.714 45365.714 M 241855.714 45365.714 241855.714 49365.714 M 241855.714 51365.714 241570 51080 241855.714 50794.285 242141.428 51080 241855.714 51365.714 241855.714 50794.285 M 244427.142 45651.428 244998.571 45365.714 246141.428 45365.714 246712.857 45651.428 246998.571 46222.857 246998.571 46508.571 246712.857 47080 246141.428 47365.714 245284.285 47365.714 244712.857 47651.428 244427.142 48222.857 244427.142 48508.571 244712.857 49080 245284.285 49365.714 246141.428 49365.714 246712.857 49080 M 249570 49365.714 249570 43365.714 M 249570 49080 250141.428 49365.714 251284.285 49365.714 251855.714 49080 252141.428 48794.285 252427.142 48222.857 252427.142 46508.571 252141.428 45937.142 251855.714 45651.428 251284.285 45365.714 250141.428 45365.714 249570 45651.428 M 255855.714 45365.714 255284.285 45651.428 254998.571 46222.857 254998.571 51365.714 M 260712.857 45365.714 260712.857 48508.571 260427.142 49080 259855.714 49365.714 258712.857 49365.714 258141.428 49080 M 260712.857 45651.428 260141.428 45365.714 258712.857 45365.714 258141.428 45651.428 257855.714 46222.857 257855.714 46794.285 258141.428 47365.714 258712.857 47651.428 260141.428 47651.428 260712.857 47937.142 M 262998.571 49365.714 264427.142 45365.714 M 265855.714 49365.714 264427.142 45365.714 263855.714 43937.142 263570 43651.428 262998.571 43365.714 M 162714.285 -126455.18 162714.285 -125455.18 162476.19 -125455.18 162333.333 -125502.8 162238.095 -125598.038 162190.476 -125693.276 162142.857 -125883.752 162142.857 -126026.609 162190.476 -126217.085 162238.095 -126312.323 162333.333 -126407.561 162476.19 -126455.18 162714.285 -126455.18 M 161761.904 -125550.419 161714.285 -125502.8 161619.047 -125455.18 161380.952 -125455.18 161285.714 -125502.8 161238.095 -125550.419 161190.476 -125645.657 161190.476 -125740.895 161238.095 -125883.752 161809.523 -126455.18 161190.476 -126455.18 M 160333.333 -125455.18 160523.809 -125455.18 160619.047 -125502.8 160666.666 -125550.419 160761.904 -125693.276 160809.523 -125883.752 160809.523 -126264.704 160761.904 -126359.942 160714.285 -126407.561 160619.047 -126455.18 160428.571 -126455.18 160333.333 -126407.561 160285.714 -126359.942 160238.095 -126264.704 160238.095 -126026.609 160285.714 -125931.371 160333.333 -125883.752 160428.571 -125836.133 160619.047 -125836.133 160714.285 -125883.752 160761.904 -125931.371 160809.523 -126026.609 M 186507.285 -134456.18 186507.285 -133456.18 186269.19 -133456.18 186126.333 -133503.8 186031.095 -133599.038 185983.476 -133694.276 185935.857 -133884.752 185935.857 -134027.609 185983.476 -134218.085 186031.095 -134313.323 186126.333 -134408.561 186269.19 -134456.18 186507.285 -134456.18 M 185602.523 -133456.18 184983.476 -133456.18 185316.809 -133837.133 185173.952 -133837.133 185078.714 -133884.752 185031.095 -133932.371 184983.476 -134027.609 184983.476 -134265.704 185031.095 -134360.942 185078.714 -134408.561 185173.952 -134456.18 185459.666 -134456.18 185554.904 -134408.561 185602.523 -134360.942 M 184078.714 -133456.18 184554.904 -133456.18 184602.523 -133932.371 184554.904 -133884.752 184459.666 -133837.133 184221.571 -133837.133 184126.333 -133884.752 184078.714 -133932.371 184031.095 -134027.609 184031.095 -134265.704 184078.714 -134360.942 184126.333 -134408.561 184221.571 -134456.18 184459.666 -134456.18 184554.904 -134408.561 184602.523 -134360.942 M 150814.285 -118454.18 150814.285 -117454.18 150576.19 -117454.18 150433.333 -117501.8 150338.095 -117597.038 150290.476 -117692.276 150242.857 -117882.752 150242.857 -118025.609 150290.476 -118216.085 150338.095 -118311.323 150433.333 -118406.561 150576.19 -118454.18 150814.285 -118454.18 M 149861.904 -117549.419 149814.285 -117501.8 149719.047 -117454.18 149480.952 -117454.18 149385.714 -117501.8 149338.095 -117549.419 149290.476 -117644.657 149290.476 -117739.895 149338.095 -117882.752 149909.523 -118454.18 149290.476 -118454.18 M 148338.095 -118454.18 148909.523 -118454.18 M 148623.809 -118454.18 148623.809 -117454.18 148719.047 -117597.038 148814.285 -117692.276 148909.523 -117739.895 M 174614.285 -134456.18 174614.285 -133456.18 174376.19 -133456.18 174233.333 -133503.8 174138.095 -133599.038 174090.476 -133694.276 174042.857 -133884.752 174042.857 -134027.609 174090.476 -134218.085 174138.095 -134313.323 174233.333 -134408.561 174376.19 -134456.18 174614.285 -134456.18 M 173709.523 -133456.18 173090.476 -133456.18 173423.809 -133837.133 173280.952 -133837.133 173185.714 -133884.752 173138.095 -133932.371 173090.476 -134027.609 173090.476 -134265.704 173138.095 -134360.942 173185.714 -134408.561 173280.952 -134456.18 173566.666 -134456.18 173661.904 -134408.561 173709.523 -134360.942 M 172138.095 -134456.18 172709.523 -134456.18 M 172423.809 -134456.18 172423.809 -133456.18 172519.047 -133599.038 172614.285 -133694.276 172709.523 -133741.895 M 198414.285 -142457.18 198414.285 -141457.18 198176.19 -141457.18 198033.333 -141504.8 197938.095 -141600.038 197890.476 -141695.276 197842.857 -141885.752 197842.857 -142028.609 197890.476 -142219.085 197938.095 -142314.323 198033.333 -142409.561 198176.19 -142457.18 198414.285 -142457.18 M 196985.714 -141790.514 196985.714 -142457.18 M 197223.809 -141409.561 197461.904 -142123.847 196842.857 -142123.847 M 196271.428 -141457.18 196176.19 -141457.18 196080.952 -141504.8 196033.333 -141552.419 195985.714 -141647.657 195938.095 -141838.133 195938.095 -142076.228 195985.714 -142266.704 196033.333 -142361.942 196080.952 -142409.561 196176.19 -142457.18 196271.428 -142457.18 196366.666 -142409.561 196414.285 -142361.942 196461.904 -142266.704 196509.523 -142076.228 196509.523 -141838.133 196461.904 -141647.657 196414.285 -141552.419 196366.666 -141504.8 196271.428 -141457.18 M 115107.885 -126455.18 115107.885 -125455.18 114869.79 -125455.18 114726.933 -125502.8 114631.695 -125598.038 114584.076 -125693.276 114536.457 -125883.752 114536.457 -126026.609 114584.076 -126217.085 114631.695 -126312.323 114726.933 -126407.561 114869.79 -126455.18 115107.885 -126455.18 M 113584.076 -126455.18 114155.504 -126455.18 M 113869.79 -126455.18 113869.79 -125455.18 113965.028 -125598.038 114060.266 -125693.276 114155.504 -125740.895 M 112965.028 -125455.18 112869.79 -125455.18 112774.552 -125502.8 112726.933 -125550.419 112679.314 -125645.657 112631.695 -125836.133 112631.695 -126074.228 112679.314 -126264.704 112726.933 -126359.942 112774.552 -126407.561 112869.79 -126455.18 112965.028 -126455.18 113060.266 -126407.561 113107.885 -126359.942 113155.504 -126264.704 113203.123 -126074.228 113203.123 -125836.133 113155.504 -125645.657 113107.885 -125550.419 113060.266 -125502.8 112965.028 -125455.18 M 102738.095 -142457.18 102738.095 -141457.18 102500 -141457.18 102357.142 -141504.8 102261.904 -141600.038 102214.285 -141695.276 102166.666 -141885.752 102166.666 -142028.609 102214.285 -142219.085 102261.904 -142314.323 102357.142 -142409.561 102500 -142457.18 102738.095 -142457.18 M 101595.238 -141885.752 101690.476 -141838.133 101738.095 -141790.514 101785.714 -141695.276 101785.714 -141647.657 101738.095 -141552.419 101690.476 -141504.8 101595.238 -141457.18 101404.761 -141457.18 101309.523 -141504.8 101261.904 -141552.419 101214.285 -141647.657 101214.285 -141695.276 101261.904 -141790.514 101309.523 -141838.133 101404.761 -141885.752 101595.238 -141885.752 101690.476 -141933.371 101738.095 -141980.99 101785.714 -142076.228 101785.714 -142266.704 101738.095 -142361.942 101690.476 -142409.561 101595.238 -142457.18 101404.761 -142457.18 101309.523 -142409.561 101261.904 -142361.942 101214.285 -142266.704 101214.285 -142076.228 101261.904 -141980.99 101309.523 -141933.371 101404.761 -141885.752 M 138806.085 -142457.18 138806.085 -141457.18 138567.99 -141457.18 138425.133 -141504.8 138329.895 -141600.038 138282.276 -141695.276 138234.657 -141885.752 138234.657 -142028.609 138282.276 -142219.085 138329.895 -142314.323 138425.133 -142409.561 138567.99 -142457.18 138806.085 -142457.18 M 137853.704 -141552.419 137806.085 -141504.8 137710.847 -141457.18 137472.752 -141457.18 137377.514 -141504.8 137329.895 -141552.419 137282.276 -141647.657 137282.276 -141742.895 137329.895 -141885.752 137901.323 -142457.18 137282.276 -142457.18 M 136663.228 -141457.18 136567.99 -141457.18 136472.752 -141504.8 136425.133 -141552.419 136377.514 -141647.657 136329.895 -141838.133 136329.895 -142076.228 136377.514 -142266.704 136425.133 -142361.942 136472.752 -142409.561 136567.99 -142457.18 136663.228 -142457.18 136758.466 -142409.561 136806.085 -142361.942 136853.704 -142266.704 136901.323 -142076.228 136901.323 -141838.133 136853.704 -141647.657 136806.085 -141552.419 136758.466 -141504.8 136663.228 -141457.18 M 174614.285 -126455.18 174614.285 -125455.18 174376.19 -125455.18 174233.333 -125502.8 174138.095 -125598.038 174090.476 -125693.276 174042.857 -125883.752 174042.857 -126026.609 174090.476 -126217.085 174138.095 -126312.323 174233.333 -126407.561 174376.19 -126455.18 174614.285 -126455.18 M 173709.523 -125455.18 173090.476 -125455.18 173423.809 -125836.133 173280.952 -125836.133 173185.714 -125883.752 173138.095 -125931.371 173090.476 -126026.609 173090.476 -126264.704 173138.095 -126359.942 173185.714 -126407.561 173280.952 -126455.18 173566.666 -126455.18 173661.904 -126407.561 173709.523 -126359.942 M 172471.428 -125455.18 172376.19 -125455.18 172280.952 -125502.8 172233.333 -125550.419 172185.714 -125645.657 172138.095 -125836.133 172138.095 -126074.228 172185.714 -126264.704 172233.333 -126359.942 172280.952 -126407.561 172376.19 -126455.18 172471.428 -126455.18 172566.666 -126407.561 172614.285 -126359.942 172661.904 -126264.704 172709.523 -126074.228 172709.523 -125836.133 172661.904 -125645.657 172614.285 -125550.419 172566.666 -125502.8 172471.428 -125455.18 M 162707.485 -142457.18 162707.485 -141457.18 162469.39 -141457.18 162326.533 -141504.8 162231.295 -141600.038 162183.676 -141695.276 162136.057 -141885.752 162136.057 -142028.609 162183.676 -142219.085 162231.295 -142314.323 162326.533 -142409.561 162469.39 -142457.18 162707.485 -142457.18 M 161755.104 -141552.419 161707.485 -141504.8 161612.247 -141457.18 161374.152 -141457.18 161278.914 -141504.8 161231.295 -141552.419 161183.676 -141647.657 161183.676 -141742.895 161231.295 -141885.752 161802.723 -142457.18 161183.676 -142457.18 M 160612.247 -141885.752 160707.485 -141838.133 160755.104 -141790.514 160802.723 -141695.276 160802.723 -141647.657 160755.104 -141552.419 160707.485 -141504.8 160612.247 -141457.18 160421.771 -141457.18 160326.533 -141504.8 160278.914 -141552.419 160231.295 -141647.657 160231.295 -141695.276 160278.914 -141790.514 160326.533 -141838.133 160421.771 -141885.752 160612.247 -141885.752 160707.485 -141933.371 160755.104 -141980.99 160802.723 -142076.228 160802.723 -142266.704 160755.104 -142361.942 160707.485 -142409.561 160612.247 -142457.18 160421.771 -142457.18 160326.533 -142409.561 160278.914 -142361.942 160231.295 -142266.704 160231.295 -142076.228 160278.914 -141980.99 160326.533 -141933.371 160421.771 -141885.752 M 127014.285 -118454.18 127014.285 -117454.18 126776.19 -117454.18 126633.333 -117501.8 126538.095 -117597.038 126490.476 -117692.276 126442.857 -117882.752 126442.857 -118025.609 126490.476 -118216.085 126538.095 -118311.323 126633.333 -118406.561 126776.19 -118454.18 127014.285 -118454.18 M 125490.476 -118454.18 126061.904 -118454.18 M 125776.19 -118454.18 125776.19 -117454.18 125871.428 -117597.038 125966.666 -117692.276 126061.904 -117739.895 M 125157.142 -117454.18 124538.095 -117454.18 124871.428 -117835.133 124728.571 -117835.133 124633.333 -117882.752 124585.714 -117930.371 124538.095 -118025.609 124538.095 -118263.704 124585.714 -118358.942 124633.333 -118406.561 124728.571 -118454.18 125014.285 -118454.18 125109.523 -118406.561 125157.142 -118358.942 M 90838.095 -134456.18 90838.095 -133456.18 90600 -133456.18 90457.142 -133503.8 90361.904 -133599.038 90314.285 -133694.276 90266.666 -133884.752 90266.666 -134027.609 90314.285 -134218.085 90361.904 -134313.323 90457.142 -134408.561 90600 -134456.18 90838.095 -134456.18 M 89933.333 -133456.18 89314.285 -133456.18 89647.619 -133837.133 89504.761 -133837.133 89409.523 -133884.752 89361.904 -133932.371 89314.285 -134027.609 89314.285 -134265.704 89361.904 -134360.942 89409.523 -134408.561 89504.761 -134456.18 89790.476 -134456.18 89885.714 -134408.561 89933.333 -134360.942 M 186507.285 -118454.18 186507.285 -117454.18 186269.19 -117454.18 186126.333 -117501.8 186031.095 -117597.038 185983.476 -117692.276 185935.857 -117882.752 185935.857 -118025.609 185983.476 -118216.085 186031.095 -118311.323 186126.333 -118406.561 186269.19 -118454.18 186507.285 -118454.18 M 185602.523 -117454.18 184983.476 -117454.18 185316.809 -117835.133 185173.952 -117835.133 185078.714 -117882.752 185031.095 -117930.371 184983.476 -118025.609 184983.476 -118263.704 185031.095 -118358.942 185078.714 -118406.561 185173.952 -118454.18 185459.666 -118454.18 185554.904 -118406.561 185602.523 -118358.942 M 184650.142 -117454.18 184031.095 -117454.18 184364.428 -117835.133 184221.571 -117835.133 184126.333 -117882.752 184078.714 -117930.371 184031.095 -118025.609 184031.095 -118263.704 184078.714 -118358.942 184126.333 -118406.561 184221.571 -118454.18 184507.285 -118454.18 184602.523 -118406.561 184650.142 -118358.942 M 90831.895 -142457.18 90831.895 -141457.18 90593.8 -141457.18 90450.942 -141504.8 90355.704 -141600.038 90308.085 -141695.276 90260.466 -141885.752 90260.466 -142028.609 90308.085 -142219.085 90355.704 -142314.323 90450.942 -142409.561 90593.8 -142457.18 90831.895 -142457.18 M 89403.323 -141790.514 89403.323 -142457.18 M 89641.419 -141409.561 89879.514 -142123.847 89260.466 -142123.847 M 90838.095 -126455.18 90838.095 -125455.18 90600 -125455.18 90457.142 -125502.8 90361.904 -125598.038 90314.285 -125693.276 90266.666 -125883.752 90266.666 -126026.609 90314.285 -126217.085 90361.904 -126312.323 90457.142 -126407.561 90600 -126455.18 90838.095 -126455.18 M 89885.714 -125550.419 89838.095 -125502.8 89742.857 -125455.18 89504.761 -125455.18 89409.523 -125502.8 89361.904 -125550.419 89314.285 -125645.657 89314.285 -125740.895 89361.904 -125883.752 89933.333 -126455.18 89314.285 -126455.18 M 162714.285 -118454.18 162714.285 -117454.18 162476.19 -117454.18 162333.333 -117501.8 162238.095 -117597.038 162190.476 -117692.276 162142.857 -117882.752 162142.857 -118025.609 162190.476 -118216.085 162238.095 -118311.323 162333.333 -118406.561 162476.19 -118454.18 162714.285 -118454.18 M 161761.904 -117549.419 161714.285 -117501.8 161619.047 -117454.18 161380.952 -117454.18 161285.714 -117501.8 161238.095 -117549.419 161190.476 -117644.657 161190.476 -117739.895 161238.095 -117882.752 161809.523 -118454.18 161190.476 -118454.18 M 160285.714 -117454.18 160761.904 -117454.18 160809.523 -117930.371 160761.904 -117882.752 160666.666 -117835.133 160428.571 -117835.133 160333.333 -117882.752 160285.714 -117930.371 160238.095 -118025.609 160238.095 -118263.704 160285.714 -118358.942 160333.333 -118406.561 160428.571 -118454.18 160666.666 -118454.18 160761.904 -118406.561 160809.523 -118358.942 M 198414.285 -134456.18 198414.285 -133456.18 198176.19 -133456.18 198033.333 -133503.8 197938.095 -133599.038 197890.476 -133694.276 197842.857 -133884.752 197842.857 -134027.609 197890.476 -134218.085 197938.095 -134313.323 198033.333 -134408.561 198176.19 -134456.18 198414.285 -134456.18 M 197509.523 -133456.18 196890.476 -133456.18 197223.809 -133837.133 197080.952 -133837.133 196985.714 -133884.752 196938.095 -133932.371 196890.476 -134027.609 196890.476 -134265.704 196938.095 -134360.942 196985.714 -134408.561 197080.952 -134456.18 197366.666 -134456.18 197461.904 -134408.561 197509.523 -134360.942 M 196414.285 -134456.18 196223.809 -134456.18 196128.571 -134408.561 196080.952 -134360.942 195985.714 -134218.085 195938.095 -134027.609 195938.095 -133646.657 195985.714 -133551.419 196033.333 -133503.8 196128.571 -133456.18 196319.047 -133456.18 196414.285 -133503.8 196461.904 -133551.419 196509.523 -133646.657 196509.523 -133884.752 196461.904 -133979.99 196414.285 -134027.609 196319.047 -134075.228 196128.571 -134075.228 196033.333 -134027.609 195985.714 -133979.99 195938.095 -133884.752 M 186514.285 -142457.18 186514.285 -141457.18 186276.19 -141457.18 186133.333 -141504.8 186038.095 -141600.038 185990.476 -141695.276 185942.857 -141885.752 185942.857 -142028.609 185990.476 -142219.085 186038.095 -142314.323 186133.333 -142409.561 186276.19 -142457.18 186514.285 -142457.18 M 185609.523 -141457.18 184990.476 -141457.18 185323.809 -141838.133 185180.952 -141838.133 185085.714 -141885.752 185038.095 -141933.371 184990.476 -142028.609 184990.476 -142266.704 185038.095 -142361.942 185085.714 -142409.561 185180.952 -142457.18 185466.666 -142457.18 185561.904 -142409.561 185609.523 -142361.942 M 184133.333 -141457.18 184323.809 -141457.18 184419.047 -141504.8 184466.666 -141552.419 184561.904 -141695.276 184609.523 -141885.752 184609.523 -142266.704 184561.904 -142361.942 184514.285 -142409.561 184419.047 -142457.18 184228.571 -142457.18 184133.333 -142409.561 184085.714 -142361.942 184038.095 -142266.704 184038.095 -142028.609 184085.714 -141933.371 184133.333 -141885.752 184228.571 -141838.133 184419.047 -141838.133 184514.285 -141885.752 184561.904 -141933.371 184609.523 -142028.609 M 198414.285 -118454.18 198414.285 -117454.18 198176.19 -117454.18 198033.333 -117501.8 197938.095 -117597.038 197890.476 -117692.276 197842.857 -117882.752 197842.857 -118025.609 197890.476 -118216.085 197938.095 -118311.323 198033.333 -118406.561 198176.19 -118454.18 198414.285 -118454.18 M 197509.523 -117454.18 196890.476 -117454.18 197223.809 -117835.133 197080.952 -117835.133 196985.714 -117882.752 196938.095 -117930.371 196890.476 -118025.609 196890.476 -118263.704 196938.095 -118358.942 196985.714 -118406.561 197080.952 -118454.18 197366.666 -118454.18 197461.904 -118406.561 197509.523 -118358.942 M 196557.142 -117454.18 195890.476 -117454.18 196319.047 -118454.18 M 138914.285 -134456.18 138914.285 -133456.18 138676.19 -133456.18 138533.333 -133503.8 138438.095 -133599.038 138390.476 -133694.276 138342.857 -133884.752 138342.857 -134027.609 138390.476 -134218.085 138438.095 -134313.323 138533.333 -134408.561 138676.19 -134456.18 138914.285 -134456.18 M 137390.476 -134456.18 137961.904 -134456.18 M 137676.19 -134456.18 137676.19 -133456.18 137771.428 -133599.038 137866.666 -133694.276 137961.904 -133741.895 M 136914.285 -134456.18 136723.809 -134456.18 136628.571 -134408.561 136580.952 -134360.942 136485.714 -134218.085 136438.095 -134027.609 136438.095 -133646.657 136485.714 -133551.419 136533.333 -133503.8 136628.571 -133456.18 136819.047 -133456.18 136914.285 -133503.8 136961.904 -133551.419 137009.523 -133646.657 137009.523 -133884.752 136961.904 -133979.99 136914.285 -134027.609 136819.047 -134075.228 136628.571 -134075.228 136533.333 -134027.609 136485.714 -133979.99 136438.095 -133884.752 M 102738.095 -126455.18 102738.095 -125455.18 102500 -125455.18 102357.142 -125502.8 102261.904 -125598.038 102214.285 -125693.276 102166.666 -125883.752 102166.666 -126026.609 102214.285 -126217.085 102261.904 -126312.323 102357.142 -126407.561 102500 -126455.18 102738.095 -126455.18 M 101309.523 -125455.18 101500 -125455.18 101595.238 -125502.8 101642.857 -125550.419 101738.095 -125693.276 101785.714 -125883.752 101785.714 -126264.704 101738.095 -126359.942 101690.476 -126407.561 101595.238 -126455.18 101404.761 -126455.18 101309.523 -126407.561 101261.904 -126359.942 101214.285 -126264.704 101214.285 -126026.609 101261.904 -125931.371 101309.523 -125883.752 101404.761 -125836.133 101595.238 -125836.133 101690.476 -125883.752 101738.095 -125931.371 101785.714 -126026.609 M 162714.285 -134456.18 162714.285 -133456.18 162476.19 -133456.18 162333.333 -133503.8 162238.095 -133599.038 162190.476 -133694.276 162142.857 -133884.752 162142.857 -134027.609 162190.476 -134218.085 162238.095 -134313.323 162333.333 -134408.561 162476.19 -134456.18 162714.285 -134456.18 M 161761.904 -133551.419 161714.285 -133503.8 161619.047 -133456.18 161380.952 -133456.18 161285.714 -133503.8 161238.095 -133551.419 161190.476 -133646.657 161190.476 -133741.895 161238.095 -133884.752 161809.523 -134456.18 161190.476 -134456.18 M 160857.142 -133456.18 160190.476 -133456.18 160619.047 -134456.18 M 138907.685 -118454.18 138907.685 -117454.18 138669.59 -117454.18 138526.733 -117501.8 138431.495 -117597.038 138383.876 -117692.276 138336.257 -117882.752 138336.257 -118025.609 138383.876 -118216.085 138431.495 -118311.323 138526.733 -118406.561 138669.59 -118454.18 138907.685 -118454.18 M 137383.876 -118454.18 137955.304 -118454.18 M 137669.59 -118454.18 137669.59 -117454.18 137764.828 -117597.038 137860.066 -117692.276 137955.304 -117739.895 M 137050.542 -117454.18 136383.876 -117454.18 136812.447 -118454.18 M 127014.285 -134456.18 127014.285 -133456.18 126776.19 -133456.18 126633.333 -133503.8 126538.095 -133599.038 126490.476 -133694.276 126442.857 -133884.752 126442.857 -134027.609 126490.476 -134218.085 126538.095 -134313.323 126633.333 -134408.561 126776.19 -134456.18 127014.285 -134456.18 M 125490.476 -134456.18 126061.904 -134456.18 M 125776.19 -134456.18 125776.19 -133456.18 125871.428 -133599.038 125966.666 -133694.276 126061.904 -133741.895 M 124585.714 -133456.18 125061.904 -133456.18 125109.523 -133932.371 125061.904 -133884.752 124966.666 -133837.133 124728.571 -133837.133 124633.333 -133884.752 124585.714 -133932.371 124538.095 -134027.609 124538.095 -134265.704 124585.714 -134360.942 124633.333 -134408.561 124728.571 -134456.18 124966.666 -134456.18 125061.904 -134408.561 125109.523 -134360.942 M 150814.285 -134456.18 150814.285 -133456.18 150576.19 -133456.18 150433.333 -133503.8 150338.095 -133599.038 150290.476 -133694.276 150242.857 -133884.752 150242.857 -134027.609 150290.476 -134218.085 150338.095 -134313.323 150433.333 -134408.561 150576.19 -134456.18 150814.285 -134456.18 M 149861.904 -133551.419 149814.285 -133503.8 149719.047 -133456.18 149480.952 -133456.18 149385.714 -133503.8 149338.095 -133551.419 149290.476 -133646.657 149290.476 -133741.895 149338.095 -133884.752 149909.523 -134456.18 149290.476 -134456.18 M 148957.142 -133456.18 148338.095 -133456.18 148671.428 -133837.133 148528.571 -133837.133 148433.333 -133884.752 148385.714 -133932.371 148338.095 -134027.609 148338.095 -134265.704 148385.714 -134360.942 148433.333 -134408.561 148528.571 -134456.18 148814.285 -134456.18 148909.523 -134408.561 148957.142 -134360.942 M 102719.095 -118454.18 102719.095 -117454.18 102481 -117454.18 102338.142 -117501.8 102242.904 -117597.038 102195.285 -117692.276 102147.666 -117882.752 102147.666 -118025.609 102195.285 -118216.085 102242.904 -118311.323 102338.142 -118406.561 102481 -118454.18 102719.095 -118454.18 M 101242.904 -117454.18 101719.095 -117454.18 101766.714 -117930.371 101719.095 -117882.752 101623.857 -117835.133 101385.761 -117835.133 101290.523 -117882.752 101242.904 -117930.371 101195.285 -118025.609 101195.285 -118263.704 101242.904 -118358.942 101290.523 -118406.561 101385.761 -118454.18 101623.857 -118454.18 101719.095 -118406.561 101766.714 -118358.942 M 174614.285 -142457.18 174614.285 -141457.18 174376.19 -141457.18 174233.333 -141504.8 174138.095 -141600.038 174090.476 -141695.276 174042.857 -141885.752 174042.857 -142028.609 174090.476 -142219.085 174138.095 -142314.323 174233.333 -142409.561 174376.19 -142457.18 174614.285 -142457.18 M 173709.523 -141457.18 173090.476 -141457.18 173423.809 -141838.133 173280.952 -141838.133 173185.714 -141885.752 173138.095 -141933.371 173090.476 -142028.609 173090.476 -142266.704 173138.095 -142361.942 173185.714 -142409.561 173280.952 -142457.18 173566.666 -142457.18 173661.904 -142409.561 173709.523 -142361.942 M 172709.523 -141552.419 172661.904 -141504.8 172566.666 -141457.18 172328.571 -141457.18 172233.333 -141504.8 172185.714 -141552.419 172138.095 -141647.657 172138.095 -141742.895 172185.714 -141885.752 172757.142 -142457.18 172138.095 -142457.18 M 115107.885 -134456.18 115107.885 -133456.18 114869.79 -133456.18 114726.933 -133503.8 114631.695 -133599.038 114584.076 -133694.276 114536.457 -133884.752 114536.457 -134027.609 114584.076 -134218.085 114631.695 -134313.323 114726.933 -134408.561 114869.79 -134456.18 115107.885 -134456.18 M 113584.076 -134456.18 114155.504 -134456.18 M 113869.79 -134456.18 113869.79 -133456.18 113965.028 -133599.038 114060.266 -133694.276 114155.504 -133741.895 M 112631.695 -134456.18 113203.123 -134456.18 M 112917.409 -134456.18 112917.409 -133456.18 113012.647 -133599.038 113107.885 -133694.276 113203.123 -133741.895 M 150814.285 -142457.18 150814.285 -141457.18 150576.19 -141457.18 150433.333 -141504.8 150338.095 -141600.038 150290.476 -141695.276 150242.857 -141885.752 150242.857 -142028.609 150290.476 -142219.085 150338.095 -142314.323 150433.333 -142409.561 150576.19 -142457.18 150814.285 -142457.18 M 149861.904 -141552.419 149814.285 -141504.8 149719.047 -141457.18 149480.952 -141457.18 149385.714 -141504.8 149338.095 -141552.419 149290.476 -141647.657 149290.476 -141742.895 149338.095 -141885.752 149909.523 -142457.18 149290.476 -142457.18 M 148433.333 -141790.514 148433.333 -142457.18 M 148671.428 -141409.561 148909.523 -142123.847 148290.476 -142123.847 M 174614.285 -118454.18 174614.285 -117454.18 174376.19 -117454.18 174233.333 -117501.8 174138.095 -117597.038 174090.476 -117692.276 174042.857 -117882.752 174042.857 -118025.609 174090.476 -118216.085 174138.095 -118311.323 174233.333 -118406.561 174376.19 -118454.18 174614.285 -118454.18 M 173661.904 -117549.419 173614.285 -117501.8 173519.047 -117454.18 173280.952 -117454.18 173185.714 -117501.8 173138.095 -117549.419 173090.476 -117644.657 173090.476 -117739.895 173138.095 -117882.752 173709.523 -118454.18 173090.476 -118454.18 M 172614.285 -118454.18 172423.809 -118454.18 172328.571 -118406.561 172280.952 -118358.942 172185.714 -118216.085 172138.095 -118025.609 172138.095 -117644.657 172185.714 -117549.419 172233.333 -117501.8 172328.571 -117454.18 172519.047 -117454.18 172614.285 -117501.8 172661.904 -117549.419 172709.523 -117644.657 172709.523 -117882.752 172661.904 -117977.99 172614.285 -118025.609 172519.047 -118073.228 172328.571 -118073.228 172233.333 -118025.609 172185.714 -117977.99 172138.095 -117882.752 M 90755.695 -118454.18 90755.695 -117454.18 90517.6 -117454.18 90374.742 -117501.8 90279.504 -117597.038 90231.885 -117692.276 90184.266 -117882.752 90184.266 -118025.609 90231.885 -118216.085 90279.504 -118311.323 90374.742 -118406.561 90517.6 -118454.18 90755.695 -118454.18 M 89231.885 -118454.18 89803.314 -118454.18 M 89517.6 -118454.18 89517.6 -117454.18 89612.838 -117597.038 89708.076 -117692.276 89803.314 -117739.895 M 127014.285 -126455.18 127014.285 -125455.18 126776.19 -125455.18 126633.333 -125502.8 126538.095 -125598.038 126490.476 -125693.276 126442.857 -125883.752 126442.857 -126026.609 126490.476 -126217.085 126538.095 -126312.323 126633.333 -126407.561 126776.19 -126455.18 127014.285 -126455.18 M 125490.476 -126455.18 126061.904 -126455.18 M 125776.19 -126455.18 125776.19 -125455.18 125871.428 -125598.038 125966.666 -125693.276 126061.904 -125740.895 M 124633.333 -125788.514 124633.333 -126455.18 M 124871.428 -125407.561 125109.523 -126121.847 124490.476 -126121.847 M 186507.285 -126455.18 186507.285 -125455.18 186269.19 -125455.18 186126.333 -125502.8 186031.095 -125598.038 185983.476 -125693.276 185935.857 -125883.752 185935.857 -126026.609 185983.476 -126217.085 186031.095 -126312.323 186126.333 -126407.561 186269.19 -126455.18 186507.285 -126455.18 M 185602.523 -125455.18 184983.476 -125455.18 185316.809 -125836.133 185173.952 -125836.133 185078.714 -125883.752 185031.095 -125931.371 184983.476 -126026.609 184983.476 -126264.704 185031.095 -126359.942 185078.714 -126407.561 185173.952 -126455.18 185459.666 -126455.18 185554.904 -126407.561 185602.523 -126359.942 M 184126.333 -125788.514 184126.333 -126455.18 M 184364.428 -125407.561 184602.523 -126121.847 183983.476 -126121.847 M 198414.285 -126455.18 198414.285 -125455.18 198176.19 -125455.18 198033.333 -125502.8 197938.095 -125598.038 197890.476 -125693.276 197842.857 -125883.752 197842.857 -126026.609 197890.476 -126217.085 197938.095 -126312.323 198033.333 -126407.561 198176.19 -126455.18 198414.285 -126455.18 M 197509.523 -125455.18 196890.476 -125455.18 197223.809 -125836.133 197080.952 -125836.133 196985.714 -125883.752 196938.095 -125931.371 196890.476 -126026.609 196890.476 -126264.704 196938.095 -126359.942 196985.714 -126407.561 197080.952 -126455.18 197366.666 -126455.18 197461.904 -126407.561 197509.523 -126359.942 M 196319.047 -125883.752 196414.285 -125836.133 196461.904 -125788.514 196509.523 -125693.276 196509.523 -125645.657 196461.904 -125550.419 196414.285 -125502.8 196319.047 -125455.18 196128.571 -125455.18 196033.333 -125502.8 195985.714 -125550.419 195938.095 -125645.657 195938.095 -125693.276 195985.714 -125788.514 196033.333 -125836.133 196128.571 -125883.752 196319.047 -125883.752 196414.285 -125931.371 196461.904 -125978.99 196509.523 -126074.228 196509.523 -126264.704 196461.904 -126359.942 196414.285 -126407.561 196319.047 -126455.18 196128.571 -126455.18 196033.333 -126407.561 195985.714 -126359.942 195938.095 -126264.704 195938.095 -126074.228 195985.714 -125978.99 196033.333 -125931.371 196128.571 -125883.752 M 138914.285 -126455.18 138914.285 -125455.18 138676.19 -125455.18 138533.333 -125502.8 138438.095 -125598.038 138390.476 -125693.276 138342.857 -125883.752 138342.857 -126026.609 138390.476 -126217.085 138438.095 -126312.323 138533.333 -126407.561 138676.19 -126455.18 138914.285 -126455.18 M 137390.476 -126455.18 137961.904 -126455.18 M 137676.19 -126455.18 137676.19 -125455.18 137771.428 -125598.038 137866.666 -125693.276 137961.904 -125740.895 M 136819.047 -125883.752 136914.285 -125836.133 136961.904 -125788.514 137009.523 -125693.276 137009.523 -125645.657 136961.904 -125550.419 136914.285 -125502.8 136819.047 -125455.18 136628.571 -125455.18 136533.333 -125502.8 136485.714 -125550.419 136438.095 -125645.657 136438.095 -125693.276 136485.714 -125788.514 136533.333 -125836.133 136628.571 -125883.752 136819.047 -125883.752 136914.285 -125931.371 136961.904 -125978.99 137009.523 -126074.228 137009.523 -126264.704 136961.904 -126359.942 136914.285 -126407.561 136819.047 -126455.18 136628.571 -126455.18 136533.333 -126407.561 136485.714 -126359.942 136438.095 -126264.704 136438.095 -126074.228 136485.714 -125978.99 136533.333 -125931.371 136628.571 -125883.752 M 150814.285 -126455.18 150814.285 -125455.18 150576.19 -125455.18 150433.333 -125502.8 150338.095 -125598.038 150290.476 -125693.276 150242.857 -125883.752 150242.857 -126026.609 150290.476 -126217.085 150338.095 -126312.323 150433.333 -126407.561 150576.19 -126455.18 150814.285 -126455.18 M 149861.904 -125550.419 149814.285 -125502.8 149719.047 -125455.18 149480.952 -125455.18 149385.714 -125502.8 149338.095 -125550.419 149290.476 -125645.657 149290.476 -125740.895 149338.095 -125883.752 149909.523 -126455.18 149290.476 -126455.18 M 148909.523 -125550.419 148861.904 -125502.8 148766.666 -125455.18 148528.571 -125455.18 148433.333 -125502.8 148385.714 -125550.419 148338.095 -125645.657 148338.095 -125740.895 148385.714 -125883.752 148957.142 -126455.18 148338.095 -126455.18 M 115107.885 -142457.18 115107.885 -141457.18 114869.79 -141457.18 114726.933 -141504.8 114631.695 -141600.038 114584.076 -141695.276 114536.457 -141885.752 114536.457 -142028.609 114584.076 -142219.085 114631.695 -142314.323 114726.933 -142409.561 114869.79 -142457.18 115107.885 -142457.18 M 113584.076 -142457.18 114155.504 -142457.18 M 113869.79 -142457.18 113869.79 -141457.18 113965.028 -141600.038 114060.266 -141695.276 114155.504 -141742.895 M 113203.123 -141552.419 113155.504 -141504.8 113060.266 -141457.18 112822.171 -141457.18 112726.933 -141504.8 112679.314 -141552.419 112631.695 -141647.657 112631.695 -141742.895 112679.314 -141885.752 113250.742 -142457.18 112631.695 -142457.18 M 102738.095 -134456.18 102738.095 -133456.18 102500 -133456.18 102357.142 -133503.8 102261.904 -133599.038 102214.285 -133694.276 102166.666 -133884.752 102166.666 -134027.609 102214.285 -134218.085 102261.904 -134313.323 102357.142 -134408.561 102500 -134456.18 102738.095 -134456.18 M 101833.333 -133456.18 101166.666 -133456.18 101595.238 -134456.18 M 127014.285 -142457.18 127014.285 -141457.18 126776.19 -141457.18 126633.333 -141504.8 126538.095 -141600.038 126490.476 -141695.276 126442.857 -141885.752 126442.857 -142028.609 126490.476 -142219.085 126538.095 -142314.323 126633.333 -142409.561 126776.19 -142457.18 127014.285 -142457.18 M 125490.476 -142457.18 126061.904 -142457.18 M 125776.19 -142457.18 125776.19 -141457.18 125871.428 -141600.038 125966.666 -141695.276 126061.904 -141742.895 M 124633.333 -141457.18 124823.809 -141457.18 124919.047 -141504.8 124966.666 -141552.419 125061.904 -141695.276 125109.523 -141885.752 125109.523 -142266.704 125061.904 -142361.942 125014.285 -142409.561 124919.047 -142457.18 124728.571 -142457.18 124633.333 -142409.561 124585.714 -142361.942 124538.095 -142266.704 124538.095 -142028.609 124585.714 -141933.371 124633.333 -141885.752 124728.571 -141838.133 124919.047 -141838.133 125014.285 -141885.752 125061.904 -141933.371 125109.523 -142028.609 M 114631.695 -118454.18 114631.695 -117454.18 114393.6 -117454.18 114250.742 -117501.8 114155.504 -117597.038 114107.885 -117692.276 114060.266 -117882.752 114060.266 -118025.609 114107.885 -118216.085 114155.504 -118311.323 114250.742 -118406.561 114393.6 -118454.18 114631.695 -118454.18 M 113584.076 -118454.18 113393.6 -118454.18 113298.361 -118406.561 113250.742 -118358.942 113155.504 -118216.085 113107.885 -118025.609 113107.885 -117644.657 113155.504 -117549.419 113203.123 -117501.8 113298.361 -117454.18 113488.838 -117454.18 113584.076 -117501.8 113631.695 -117549.419 113679.314 -117644.657 113679.314 -117882.752 113631.695 -117977.99 113584.076 -118025.609 113488.838 -118073.228 113298.361 -118073.228 113203.123 -118025.609 113155.504 -117977.99 113107.885 -117882.752" fill="none" stroke-width="150"/><path d="M 159250 -125002.8 163150 -125002.8 M 159250 -125002.8 159250 -123002.8 163150 -123002.8 M 183043 -133003.8 186943 -133003.8 M 183043 -133003.8 183043 -131003.8 186943 -131003.8 M 147350 -117001.8 147350 -115001.8 151250 -115001.8 M 147350 -117001.8 151250 -117001.8 M 171150 -133003.8 171150 -131003.8 175050 -131003.8 M 171150 -133003.8 175050 -133003.8 M 194950 -139004.8 198850 -139004.8 M 194950 -141004.8 194950 -139004.8 M 194950 -141004.8 198850 -141004.8 M 111643.6 -125002.8 111643.6 -123002.8 115543.6 -123002.8 M 111643.6 -125002.8 115543.6 -125002.8 M 99750 -139004.8 103650 -139004.8 M 99750 -141004.8 99750 -139004.8 M 99750 -141004.8 103650 -141004.8 M 135341.8 -141004.8 139241.8 -141004.8 M 135341.8 -139004.8 139241.8 -139004.8 M 135341.8 -141004.8 135341.8 -139004.8 M 171150 -125002.8 171150 -123002.8 M 171150 -125002.8 175050 -125002.8 M 171150 -123002.8 175050 -123002.8 M 159243.2 -141004.8 163143.2 -141004.8 M 159243.2 -139004.8 163143.2 -139004.8 M 159243.2 -141004.8 159243.2 -139004.8 M 123550 -117001.8 127450 -117001.8 M 123550 -115001.8 127450 -115001.8 M 123550 -117001.8 123550 -115001.8 M 87850 -133003.8 91750 -133003.8 M 87850 -133003.8 87850 -131003.8 91750 -131003.8 M 183043 -117001.8 186943 -117001.8 M 183043 -117001.8 183043 -115001.8 186943 -115001.8 M 87843.8 -141004.8 91743.8 -141004.8 M 87843.8 -139004.8 91743.8 -139004.8 M 87843.8 -141004.8 87843.8 -139004.8 M 87850 -125002.8 91750 -125002.8 M 87850 -123002.8 91750 -123002.8 M 87850 -125002.8 87850 -123002.8 M 159250 -115001.8 163150 -115001.8 M 159250 -117001.8 159250 -115001.8 M 159250 -117001.8 163150 -117001.8 M 194950 -133003.8 194950 -131003.8 M 194950 -133003.8 198850 -133003.8 M 194950 -131003.8 198850 -131003.8 M 183050 -141004.8 183050 -139004.8 186950 -139004.8 M 183050 -141004.8 186950 -141004.8 M 194950 -117001.8 194950 -115001.8 M 194950 -117001.8 198850 -117001.8 M 194950 -115001.8 198850 -115001.8 M 135450 -133003.8 135450 -131003.8 139350 -131003.8 M 135450 -133003.8 139350 -133003.8 M 99750 -123002.8 103650 -123002.8 M 99750 -125002.8 103650 -125002.8 M 99750 -125002.8 99750 -123002.8 M 159250 -131003.8 163150 -131003.8 M 159250 -133003.8 159250 -131003.8 M 159250 -133003.8 163150 -133003.8 M 135443.4 -115001.8 139343.4 -115001.8 M 135443.4 -117001.8 139343.4 -117001.8 M 135443.4 -117001.8 135443.4 -115001.8 M 123550 -133003.8 123550 -131003.8 M 123550 -133003.8 127450 -133003.8 M 123550 -131003.8 127450 -131003.8 M 147350 -131003.8 151250 -131003.8 M 147350 -133003.8 147350 -131003.8 M 147350 -133003.8 151250 -133003.8 M 99731 -115001.8 103631 -115001.8 M 99731 -117001.8 99731 -115001.8 M 99731 -117001.8 103631 -117001.8 M 171150 -139004.8 175050 -139004.8 M 171150 -141004.8 171150 -139004.8 M 171150 -141004.8 175050 -141004.8 M 111643.6 -133003.8 111643.6 -131003.8 M 111643.6 -133003.8 115543.6 -133003.8 M 111643.6 -131003.8 115543.6 -131003.8 M 147350 -141004.8 147350 -139004.8 M 147350 -141004.8 151250 -141004.8 M 147350 -139004.8 151250 -139004.8 M 171150 -115001.8 175050 -115001.8 M 171150 -117001.8 171150 -115001.8 M 171150 -117001.8 175050 -117001.8 M 87767.6 -117001.8 91667.6 -117001.8 M 87767.6 -117001.8 87767.6 -115001.8 91667.6 -115001.8 M 123550 -123002.8 127450 -123002.8 M 123550 -125002.8 127450 -125002.8 M 123550 -125002.8 123550 -123002.8 M 183043 -125002.8 183043 -123002.8 M 183043 -125002.8 186943 -125002.8 M 183043 -123002.8 186943 -123002.8 M 194950 -125002.8 198850 -125002.8 M 194950 -125002.8 194950 -123002.8 198850 -123002.8 M 135450 -123002.8 139350 -123002.8 M 135450 -125002.8 135450 -123002.8 M 135450 -125002.8 139350 -125002.8 M 147350 -125002.8 147350 -123002.8 M 147350 -125002.8 151250 -125002.8 M 147350 -123002.8 151250 -123002.8 M 111643.6 -141004.8 111643.6 -139004.8 M 111643.6 -141004.8 115543.6 -141004.8 M 111643.6 -139004.8 115543.6 -139004.8 M 99750 -131003.8 103650 -131003.8 M 99750 -133003.8 99750 -131003.8 M 99750 -133003.8 103650 -133003.8 M 123550 -139004.8 127450 -139004.8 M 123550 -141004.8 123550 -139004.8 M 123550 -141004.8 127450 -141004.8 M 111643.6 -117001.8 115543.6 -117001.8 M 111643.6 -115001.8 115543.6 -115001.8 M 111643.6 -117001.8 111643.6 -115001.8" fill="none" stroke-width="120"/></g></svg>