<svg version="1.1" xmlns="http://www.w3.org/2000/svg" xmlns:xlink="http://www.w3.org/1999/xlink" stroke-linecap="round" stroke-linejoin="round" stroke-width="0" fill-rule="evenodd" width="4.9059in" height="2.8925in" viewBox="3104.9 -5488 4905.9 2892.5" id="ut8ETJsNpWUDuPPdHLyd"><defs><circle cx="0" cy="0" r="6.9" id="ut8ETJsNpWUDuPPdHLyd_pad-1"/><circle cx="0" cy="0" r="6.9" id="ut8ETJsNpWUDuPPdHLyd_pad-2"/><circle cx="0" cy="0" r="17.7" id="ut8ETJsNpWUDuPPdHLyd_pad-5"/></defs><g transform="translate(0,-8083.5) scale(1,-1)" fill="currentColor" stroke="currentColor"><use xlink:href="#ut8ETJsNpWUDuPPdHLyd_pad-1" x="3111.8" y="-4007.1"/><use xlink:href="#ut8ETJsNpWUDuPPdHLyd_pad-1" x="3136.2" y="-3974"/><use xlink:href="#ut8ETJsNpWUDuPPdHLyd_pad-1" x="3160.7" y="-3943.8"/><use xlink:href="#ut8ETJsNpWUDuPPdHLyd_pad-1" x="3182.7" y="-4989.4"/><use xlink:href="#ut8ETJsNpWUDuPPdHLyd_pad-1" x="3183.9" y="-4809.1"/><use xlink:href="#ut8ETJsNpWUDuPPdHLyd_pad-1" x="3184.1" y="-4476.8"/><use xlink:href="#ut8ETJsNpWUDuPPdHLyd_pad-1" x="3280.6" y="-3715.7"/><use xlink:href="#ut8ETJsNpWUDuPPdHLyd_pad-1" x="3280.6" y="-3755.1"/><use xlink:href="#ut8ETJsNpWUDuPPdHLyd_pad-1" x="3282.3" y="-3642.5"/><use xlink:href="#ut8ETJsNpWUDuPPdHLyd_pad-1" x="3339" y="-5481.1"/><use xlink:href="#ut8ETJsNpWUDuPPdHLyd_pad-1" x="3390.2" y="-4187.4"/><use xlink:href="#ut8ETJsNpWUDuPPdHLyd_pad-1" x="3391.7" y="-3280.7"/><use xlink:href="#ut8ETJsNpWUDuPPdHLyd_pad-1" x="3415" y="-4212.6"/><use xlink:href="#ut8ETJsNpWUDuPPdHLyd_pad-1" x="3445.7" y="-4236.6"/><use xlink:href="#ut8ETJsNpWUDuPPdHLyd_pad-1" x="3473.4" y="-5307.5"/><use xlink:href="#ut8ETJsNpWUDuPPdHLyd_pad-1" x="3473.8" y="-4993.1"/><use xlink:href="#ut8ETJsNpWUDuPPdHLyd_pad-1" x="3477.8" y="-3412.2"/><use xlink:href="#ut8ETJsNpWUDuPPdHLyd_pad-1" x="3478.9" y="-3575.1"/><use xlink:href="#ut8ETJsNpWUDuPPdHLyd_pad-1" x="3490.9" y="-5335.5"/><use xlink:href="#ut8ETJsNpWUDuPPdHLyd_pad-1" x="3491.4" y="-5021.1"/><use xlink:href="#ut8ETJsNpWUDuPPdHLyd_pad-1" x="3493.7" y="-2921.9"/><use xlink:href="#ut8ETJsNpWUDuPPdHLyd_pad-1" x="3511.7" y="-5361.1"/><use xlink:href="#ut8ETJsNpWUDuPPdHLyd_pad-1" x="3512.2" y="-5046.8"/><use xlink:href="#ut8ETJsNpWUDuPPdHLyd_pad-1" x="3527.4" y="-3016.9"/><use xlink:href="#ut8ETJsNpWUDuPPdHLyd_pad-1" x="3529" y="-3774.1"/><use xlink:href="#ut8ETJsNpWUDuPPdHLyd_pad-1" x="3531" y="-5388"/><use xlink:href="#ut8ETJsNpWUDuPPdHLyd_pad-1" x="3531.5" y="-5073.6"/><use xlink:href="#ut8ETJsNpWUDuPPdHLyd_pad-1" x="3549" y="-5415.8"/><use xlink:href="#ut8ETJsNpWUDuPPdHLyd_pad-1" x="3549.4" y="-5101.4"/><use xlink:href="#ut8ETJsNpWUDuPPdHLyd_pad-1" x="3551.6" y="-3798.3"/><use xlink:href="#ut8ETJsNpWUDuPPdHLyd_pad-1" x="3604.1" y="-3905.9"/><use xlink:href="#ut8ETJsNpWUDuPPdHLyd_pad-1" x="3622" y="-2685.8"/><use xlink:href="#ut8ETJsNpWUDuPPdHLyd_pad-1" x="3698.4" y="-3819.7"/><use xlink:href="#ut8ETJsNpWUDuPPdHLyd_pad-1" x="3757.9" y="-2793"/><use xlink:href="#ut8ETJsNpWUDuPPdHLyd_pad-1" x="3768.1" y="-3149.2"/><use xlink:href="#ut8ETJsNpWUDuPPdHLyd_pad-1" x="3793.3" y="-3813"/><use xlink:href="#ut8ETJsNpWUDuPPdHLyd_pad-1" x="3804.9" y="-3335.7"/><use xlink:href="#ut8ETJsNpWUDuPPdHLyd_pad-1" x="3807.5" y="-3149.2"/><use xlink:href="#ut8ETJsNpWUDuPPdHLyd_pad-1" x="3826.4" y="-3853.7"/><use xlink:href="#ut8ETJsNpWUDuPPdHLyd_pad-1" x="3831.1" y="-3609.8"/><use xlink:href="#ut8ETJsNpWUDuPPdHLyd_pad-1" x="3841.7" y="-3728"/><use xlink:href="#ut8ETJsNpWUDuPPdHLyd_pad-1" x="3844.5" y="-3441.7"/><use xlink:href="#ut8ETJsNpWUDuPPdHLyd_pad-1" x="3859.8" y="-3905.9"/><use xlink:href="#ut8ETJsNpWUDuPPdHLyd_pad-1" x="3872" y="-3854.1"/><use xlink:href="#ut8ETJsNpWUDuPPdHLyd_pad-1" x="3927.6" y="-3195.1"/><use xlink:href="#ut8ETJsNpWUDuPPdHLyd_pad-1" x="3966.9" y="-3195.1"/><use xlink:href="#ut8ETJsNpWUDuPPdHLyd_pad-1" x="3996.9" y="-2685.4"/><use xlink:href="#ut8ETJsNpWUDuPPdHLyd_pad-1" x="4136" y="-3368.9"/><use xlink:href="#ut8ETJsNpWUDuPPdHLyd_pad-1" x="4136.4" y="-3303.5"/><use xlink:href="#ut8ETJsNpWUDuPPdHLyd_pad-1" x="4136.4" y="-3575.2"/><use xlink:href="#ut8ETJsNpWUDuPPdHLyd_pad-1" x="4192.1" y="-4148"/><use xlink:href="#ut8ETJsNpWUDuPPdHLyd_pad-1" x="4213.2" y="-2761.6"/><use xlink:href="#ut8ETJsNpWUDuPPdHLyd_pad-1" x="4214.6" y="-4175.6"/><use xlink:href="#ut8ETJsNpWUDuPPdHLyd_pad-1" x="4278.3" y="-3221.7"/><use xlink:href="#ut8ETJsNpWUDuPPdHLyd_pad-1" x="4298.2" y="-4030.3"/><use xlink:href="#ut8ETJsNpWUDuPPdHLyd_pad-1" x="4329.9" y="-4045.7"/><use xlink:href="#ut8ETJsNpWUDuPPdHLyd_pad-1" x="8000.7" y="-4448.8"/><use xlink:href="#ut8ETJsNpWUDuPPdHLyd_pad-1" x="8000.7" y="-4824.4"/><use xlink:href="#ut8ETJsNpWUDuPPdHLyd_pad-1" x="8000.7" y="-5139.4"/><use xlink:href="#ut8ETJsNpWUDuPPdHLyd_pad-1" x="8002.7" y="-4763.7"/><use xlink:href="#ut8ETJsNpWUDuPPdHLyd_pad-1" x="8003.5" y="-5394"/><use xlink:href="#ut8ETJsNpWUDuPPdHLyd_pad-1" x="8003.9" y="-5078.7"/><use xlink:href="#ut8ETJsNpWUDuPPdHLyd_pad-2" x="3757.7" y="-3475.1"/><use xlink:href="#ut8ETJsNpWUDuPPdHLyd_pad-2" x="3757.7" y="-3525.3"/><use xlink:href="#ut8ETJsNpWUDuPPdHLyd_pad-2" x="3757.7" y="-3575.5"/><use xlink:href="#ut8ETJsNpWUDuPPdHLyd_pad-2" x="3807.9" y="-3475.1"/><use xlink:href="#ut8ETJsNpWUDuPPdHLyd_pad-2" x="3807.9" y="-3525.3"/><use xlink:href="#ut8ETJsNpWUDuPPdHLyd_pad-2" x="3807.9" y="-3575.5"/><use xlink:href="#ut8ETJsNpWUDuPPdHLyd_pad-2" x="3858.1" y="-3475.1"/><use xlink:href="#ut8ETJsNpWUDuPPdHLyd_pad-2" x="3858.1" y="-3525.3"/><use xlink:href="#ut8ETJsNpWUDuPPdHLyd_pad-2" x="3858.1" y="-3575.5"/><use xlink:href="#ut8ETJsNpWUDuPPdHLyd_pad-5" x="3397.2" y="-4309.4"/><use xlink:href="#ut8ETJsNpWUDuPPdHLyd_pad-5" x="3397.2" y="-4509.4"/><use xlink:href="#ut8ETJsNpWUDuPPdHLyd_pad-5" x="3397.2" y="-4624.4"/><use xlink:href="#ut8ETJsNpWUDuPPdHLyd_pad-5" x="3397.2" y="-4824.4"/><use xlink:href="#ut8ETJsNpWUDuPPdHLyd_pad-5" x="3397.2" y="-4939.4"/><use xlink:href="#ut8ETJsNpWUDuPPdHLyd_pad-5" x="3397.2" y="-5139.4"/><use xlink:href="#ut8ETJsNpWUDuPPdHLyd_pad-5" x="3397.2" y="-5254.3"/><use xlink:href="#ut8ETJsNpWUDuPPdHLyd_pad-5" x="3397.2" y="-5454.3"/><use xlink:href="#ut8ETJsNpWUDuPPdHLyd_pad-5" x="3697.2" y="-4309.4"/><use xlink:href="#ut8ETJsNpWUDuPPdHLyd_pad-5" x="3697.2" y="-4509.4"/><use xlink:href="#ut8ETJsNpWUDuPPdHLyd_pad-5" x="3697.2" y="-4624.4"/><use xlink:href="#ut8ETJsNpWUDuPPdHLyd_pad-5" x="3697.2" y="-4824.4"/><use xlink:href="#ut8ETJsNpWUDuPPdHLyd_pad-5" x="3697.2" y="-4939.4"/><use xlink:href="#ut8ETJsNpWUDuPPdHLyd_pad-5" x="3697.2" y="-5139.4"/><use xlink:href="#ut8ETJsNpWUDuPPdHLyd_pad-5" x="3697.2" y="-5254.3"/><use xlink:href="#ut8ETJsNpWUDuPPdHLyd_pad-5" x="3697.2" y="-5454.3"/><use xlink:href="#ut8ETJsNpWUDuPPdHLyd_pad-5" x="3865.7" y="-4309.4"/><use xlink:href="#ut8ETJsNpWUDuPPdHLyd_pad-5" x="3865.7" y="-4509.4"/><use xlink:href="#ut8ETJsNpWUDuPPdHLyd_pad-5" x="3865.7" y="-4624.4"/><use xlink:href="#ut8ETJsNpWUDuPPdHLyd_pad-5" x="3865.7" y="-4824.4"/><use xlink:href="#ut8ETJsNpWUDuPPdHLyd_pad-5" x="3865.7" y="-4939.4"/><use xlink:href="#ut8ETJsNpWUDuPPdHLyd_pad-5" x="3865.7" y="-5139.4"/><use xlink:href="#ut8ETJsNpWUDuPPdHLyd_pad-5" x="3865.7" y="-5254.3"/><use xlink:href="#ut8ETJsNpWUDuPPdHLyd_pad-5" x="3865.7" y="-5454.3"/><use xlink:href="#ut8ETJsNpWUDuPPdHLyd_pad-5" x="4165.7" y="-4309.4"/><use xlink:href="#ut8ETJsNpWUDuPPdHLyd_pad-5" x="4165.7" y="-4509.4"/><use xlink:href="#ut8ETJsNpWUDuPPdHLyd_pad-5" x="4165.7" y="-4624.4"/><use xlink:href="#ut8ETJsNpWUDuPPdHLyd_pad-5" x="4165.7" y="-4824.4"/><use xlink:href="#ut8ETJsNpWUDuPPdHLyd_pad-5" x="4165.7" y="-4939.4"/><use xlink:href="#ut8ETJsNpWUDuPPdHLyd_pad-5" x="4165.7" y="-5139.4"/><use xlink:href="#ut8ETJsNpWUDuPPdHLyd_pad-5" x="4165.7" y="-5254.3"/><use xlink:href="#ut8ETJsNpWUDuPPdHLyd_pad-5" x="4165.7" y="-5454.3"/><use xlink:href="#ut8ETJsNpWUDuPPdHLyd_pad-5" x="4334.3" y="-4309.4"/><use xlink:href="#ut8ETJsNpWUDuPPdHLyd_pad-5" x="4334.3" y="-4509.4"/><use xlink:href="#ut8ETJsNpWUDuPPdHLyd_pad-5" x="4334.3" y="-4624.4"/><use xlink:href="#ut8ETJsNpWUDuPPdHLyd_pad-5" x="4334.3" y="-4824.4"/><use xlink:href="#ut8ETJsNpWUDuPPdHLyd_pad-5" x="4334.3" y="-4939.4"/><use xlink:href="#ut8ETJsNpWUDuPPdHLyd_pad-5" x="4334.3" y="-5139.4"/><use xlink:href="#ut8ETJsNpWUDuPPdHLyd_pad-5" x="4334.3" y="-5254.3"/><use xlink:href="#ut8ETJsNpWUDuPPdHLyd_pad-5" x="4334.3" y="-5454.3"/><use xlink:href="#ut8ETJsNpWUDuPPdHLyd_pad-5" x="4634.3" y="-4309.4"/><use xlink:href="#ut8ETJsNpWUDuPPdHLyd_pad-5" x="4634.3" y="-4509.4"/><use xlink:href="#ut8ETJsNpWUDuPPdHLyd_pad-5" x="4634.3" y="-4624.4"/><use xlink:href="#ut8ETJsNpWUDuPPdHLyd_pad-5" x="4634.3" y="-4824.4"/><use xlink:href="#ut8ETJsNpWUDuPPdHLyd_pad-5" x="4634.3" y="-4939.4"/><use xlink:href="#ut8ETJsNpWUDuPPdHLyd_pad-5" x="4634.3" y="-5139.4"/><use xlink:href="#ut8ETJsNpWUDuPPdHLyd_pad-5" x="4634.3" y="-5254.3"/><use xlink:href="#ut8ETJsNpWUDuPPdHLyd_pad-5" x="4634.3" y="-5454.3"/><use xlink:href="#ut8ETJsNpWUDuPPdHLyd_pad-5" x="4802.8" y="-4309.4"/><use xlink:href="#ut8ETJsNpWUDuPPdHLyd_pad-5" x="4802.8" y="-4509.4"/><use xlink:href="#ut8ETJsNpWUDuPPdHLyd_pad-5" x="4802.8" y="-4624.4"/><use xlink:href="#ut8ETJsNpWUDuPPdHLyd_pad-5" x="4802.8" y="-4824.4"/><use xlink:href="#ut8ETJsNpWUDuPPdHLyd_pad-5" x="4802.8" y="-4939.4"/><use xlink:href="#ut8ETJsNpWUDuPPdHLyd_pad-5" x="4802.8" y="-5139.4"/><use xlink:href="#ut8ETJsNpWUDuPPdHLyd_pad-5" x="4802.8" y="-5254.3"/><use xlink:href="#ut8ETJsNpWUDuPPdHLyd_pad-5" x="4802.8" y="-5454.3"/><use xlink:href="#ut8ETJsNpWUDuPPdHLyd_pad-5" x="5102.8" y="-4309.4"/><use xlink:href="#ut8ETJsNpWUDuPPdHLyd_pad-5" x="5102.8" y="-4509.4"/><use xlink:href="#ut8ETJsNpWUDuPPdHLyd_pad-5" x="5102.8" y="-4624.4"/><use xlink:href="#ut8ETJsNpWUDuPPdHLyd_pad-5" x="5102.8" y="-4824.4"/><use xlink:href="#ut8ETJsNpWUDuPPdHLyd_pad-5" x="5102.8" y="-4939.4"/><use xlink:href="#ut8ETJsNpWUDuPPdHLyd_pad-5" x="5102.8" y="-5139.4"/><use xlink:href="#ut8ETJsNpWUDuPPdHLyd_pad-5" x="5102.8" y="-5254.3"/><use xlink:href="#ut8ETJsNpWUDuPPdHLyd_pad-5" x="5102.8" y="-5454.3"/><use xlink:href="#ut8ETJsNpWUDuPPdHLyd_pad-5" x="5271.3" y="-4309.4"/><use xlink:href="#ut8ETJsNpWUDuPPdHLyd_pad-5" x="5271.3" y="-4509.4"/><use xlink:href="#ut8ETJsNpWUDuPPdHLyd_pad-5" x="5271.3" y="-4624.4"/><use xlink:href="#ut8ETJsNpWUDuPPdHLyd_pad-5" x="5271.3" y="-4824.4"/><use xlink:href="#ut8ETJsNpWUDuPPdHLyd_pad-5" x="5271.3" y="-4939.4"/><use xlink:href="#ut8ETJsNpWUDuPPdHLyd_pad-5" x="5271.3" y="-5139.4"/><use xlink:href="#ut8ETJsNpWUDuPPdHLyd_pad-5" x="5271.3" y="-5254.3"/><use xlink:href="#ut8ETJsNpWUDuPPdHLyd_pad-5" x="5271.3" y="-5454.3"/><use xlink:href="#ut8ETJsNpWUDuPPdHLyd_pad-5" x="5571.3" y="-4309.4"/><use xlink:href="#ut8ETJsNpWUDuPPdHLyd_pad-5" x="5571.3" y="-4509.4"/><use xlink:href="#ut8ETJsNpWUDuPPdHLyd_pad-5" x="5571.3" y="-4624.4"/><use xlink:href="#ut8ETJsNpWUDuPPdHLyd_pad-5" x="5571.3" y="-4824.4"/><use xlink:href="#ut8ETJsNpWUDuPPdHLyd_pad-5" x="5571.3" y="-4939.4"/><use xlink:href="#ut8ETJsNpWUDuPPdHLyd_pad-5" x="5571.3" y="-5139.4"/><use xlink:href="#ut8ETJsNpWUDuPPdHLyd_pad-5" x="5571.3" y="-5254.3"/><use xlink:href="#ut8ETJsNpWUDuPPdHLyd_pad-5" x="5571.3" y="-5454.3"/><use xlink:href="#ut8ETJsNpWUDuPPdHLyd_pad-5" x="5739.8" y="-4309.4"/><use xlink:href="#ut8ETJsNpWUDuPPdHLyd_pad-5" x="5739.8" y="-4509.4"/><use xlink:href="#ut8ETJsNpWUDuPPdHLyd_pad-5" x="5739.8" y="-4624.4"/><use xlink:href="#ut8ETJsNpWUDuPPdHLyd_pad-5" x="5739.8" y="-4824.4"/><use xlink:href="#ut8ETJsNpWUDuPPdHLyd_pad-5" x="5739.8" y="-4939.4"/><use xlink:href="#ut8ETJsNpWUDuPPdHLyd_pad-5" x="5739.8" y="-5139.4"/><use xlink:href="#ut8ETJsNpWUDuPPdHLyd_pad-5" x="5739.8" y="-5254.3"/><use xlink:href="#ut8ETJsNpWUDuPPdHLyd_pad-5" x="5739.8" y="-5454.3"/><use xlink:href="#ut8ETJsNpWUDuPPdHLyd_pad-5" x="6039.8" y="-4309.4"/><use xlink:href="#ut8ETJsNpWUDuPPdHLyd_pad-5" x="6039.8" y="-4509.4"/><use xlink:href="#ut8ETJsNpWUDuPPdHLyd_pad-5" x="6039.8" y="-4624.4"/><use xlink:href="#ut8ETJsNpWUDuPPdHLyd_pad-5" x="6039.8" y="-4824.4"/><use xlink:href="#ut8ETJsNpWUDuPPdHLyd_pad-5" x="6039.8" y="-4939.4"/><use xlink:href="#ut8ETJsNpWUDuPPdHLyd_pad-5" x="6039.8" y="-5139.4"/><use xlink:href="#ut8ETJsNpWUDuPPdHLyd_pad-5" x="6039.8" y="-5254.3"/><use xlink:href="#ut8ETJsNpWUDuPPdHLyd_pad-5" x="6039.8" y="-5454.3"/><use xlink:href="#ut8ETJsNpWUDuPPdHLyd_pad-5" x="6208.3" y="-4309.4"/><use xlink:href="#ut8ETJsNpWUDuPPdHLyd_pad-5" x="6208.3" y="-4509.4"/><use xlink:href="#ut8ETJsNpWUDuPPdHLyd_pad-5" x="6208.3" y="-4624.4"/><use xlink:href="#ut8ETJsNpWUDuPPdHLyd_pad-5" x="6208.3" y="-4824.4"/><use xlink:href="#ut8ETJsNpWUDuPPdHLyd_pad-5" x="6208.3" y="-4939.4"/><use xlink:href="#ut8ETJsNpWUDuPPdHLyd_pad-5" x="6208.3" y="-5139.4"/><use xlink:href="#ut8ETJsNpWUDuPPdHLyd_pad-5" x="6208.3" y="-5254.3"/><use xlink:href="#ut8ETJsNpWUDuPPdHLyd_pad-5" x="6208.3" y="-5454.3"/><use xlink:href="#ut8ETJsNpWUDuPPdHLyd_pad-5" x="6508.3" y="-4309.4"/><use xlink:href="#ut8ETJsNpWUDuPPdHLyd_pad-5" x="6508.3" y="-4509.4"/><use xlink:href="#ut8ETJsNpWUDuPPdHLyd_pad-5" x="6508.3" y="-4624.4"/><use xlink:href="#ut8ETJsNpWUDuPPdHLyd_pad-5" x="6508.3" y="-4824.4"/><use xlink:href="#ut8ETJsNpWUDuPPdHLyd_pad-5" x="6508.3" y="-4939.4"/><use xlink:href="#ut8ETJsNpWUDuPPdHLyd_pad-5" x="6508.3" y="-5139.4"/><use xlink:href="#ut8ETJsNpWUDuPPdHLyd_pad-5" x="6508.3" y="-5254.3"/><use xlink:href="#ut8ETJsNpWUDuPPdHLyd_pad-5" x="6508.3" y="-5454.3"/><use xlink:href="#ut8ETJsNpWUDuPPdHLyd_pad-5" x="6676.8" y="-4309.4"/><use xlink:href="#ut8ETJsNpWUDuPPdHLyd_pad-5" x="6676.8" y="-4509.4"/><use xlink:href="#ut8ETJsNpWUDuPPdHLyd_pad-5" x="6676.8" y="-4624.4"/><use xlink:href="#ut8ETJsNpWUDuPPdHLyd_pad-5" x="6676.8" y="-4824.4"/><use xlink:href="#ut8ETJsNpWUDuPPdHLyd_pad-5" x="6676.8" y="-4939.4"/><use xlink:href="#ut8ETJsNpWUDuPPdHLyd_pad-5" x="6676.8" y="-5139.4"/><use xlink:href="#ut8ETJsNpWUDuPPdHLyd_pad-5" x="6676.8" y="-5254.3"/><use xlink:href="#ut8ETJsNpWUDuPPdHLyd_pad-5" x="6676.8" y="-5454.3"/><use xlink:href="#ut8ETJsNpWUDuPPdHLyd_pad-5" x="6976.8" y="-4309.4"/><use xlink:href="#ut8ETJsNpWUDuPPdHLyd_pad-5" x="6976.8" y="-4509.4"/><use xlink:href="#ut8ETJsNpWUDuPPdHLyd_pad-5" x="6976.8" y="-4624.4"/><use xlink:href="#ut8ETJsNpWUDuPPdHLyd_pad-5" x="6976.8" y="-4824.4"/><use xlink:href="#ut8ETJsNpWUDuPPdHLyd_pad-5" x="6976.8" y="-4939.4"/><use xlink:href="#ut8ETJsNpWUDuPPdHLyd_pad-5" x="6976.8" y="-5139.4"/><use xlink:href="#ut8ETJsNpWUDuPPdHLyd_pad-5" x="6976.8" y="-5254.3"/><use xlink:href="#ut8ETJsNpWUDuPPdHLyd_pad-5" x="6976.8" y="-5454.3"/><use xlink:href="#ut8ETJsNpWUDuPPdHLyd_pad-5" x="7145.3" y="-4309.4"/><use xlink:href="#ut8ETJsNpWUDuPPdHLyd_pad-5" x="7145.3" y="-4509.4"/><use xlink:href="#ut8ETJsNpWUDuPPdHLyd_pad-5" x="7145.3" y="-4624.4"/><use xlink:href="#ut8ETJsNpWUDuPPdHLyd_pad-5" x="7145.3" y="-4824.4"/><use xlink:href="#ut8ETJsNpWUDuPPdHLyd_pad-5" x="7145.3" y="-4939.4"/><use xlink:href="#ut8ETJsNpWUDuPPdHLyd_pad-5" x="7145.3" y="-5139.4"/><use xlink:href="#ut8ETJsNpWUDuPPdHLyd_pad-5" x="7145.3" y="-5254.3"/><use xlink:href="#ut8ETJsNpWUDuPPdHLyd_pad-5" x="7145.3" y="-5454.3"/><use xlink:href="#ut8ETJsNpWUDuPPdHLyd_pad-5" x="7445.3" y="-4309.4"/><use xlink:href="#ut8ETJsNpWUDuPPdHLyd_pad-5" x="7445.3" y="-4509.4"/><use xlink:href="#ut8ETJsNpWUDuPPdHLyd_pad-5" x="7445.3" y="-4624.4"/><use xlink:href="#ut8ETJsNpWUDuPPdHLyd_pad-5" x="7445.3" y="-4824.4"/><use xlink:href="#ut8ETJsNpWUDuPPdHLyd_pad-5" x="7445.3" y="-4939.4"/><use xlink:href="#ut8ETJsNpWUDuPPdHLyd_pad-5" x="7445.3" y="-5139.4"/><use xlink:href="#ut8ETJsNpWUDuPPdHLyd_pad-5" x="7445.3" y="-5254.3"/><use xlink:href="#ut8ETJsNpWUDuPPdHLyd_pad-5" x="7445.3" y="-5454.3"/><use xlink:href="#ut8ETJsNpWUDuPPdHLyd_pad-5" x="7613.8" y="-4309.4"/><use xlink:href="#ut8ETJsNpWUDuPPdHLyd_pad-5" x="7613.8" y="-4509.4"/><use xlink:href="#ut8ETJsNpWUDuPPdHLyd_pad-5" x="7613.8" y="-4624.4"/><use xlink:href="#ut8ETJsNpWUDuPPdHLyd_pad-5" x="7613.8" y="-4824.4"/><use xlink:href="#ut8ETJsNpWUDuPPdHLyd_pad-5" x="7613.8" y="-4939.4"/><use xlink:href="#ut8ETJsNpWUDuPPdHLyd_pad-5" x="7613.8" y="-5139.4"/><use xlink:href="#ut8ETJsNpWUDuPPdHLyd_pad-5" x="7613.8" y="-5254.3"/><use xlink:href="#ut8ETJsNpWUDuPPdHLyd_pad-5" x="7613.8" y="-5454.3"/><use xlink:href="#ut8ETJsNpWUDuPPdHLyd_pad-5" x="7913.8" y="-4309.4"/><use xlink:href="#ut8ETJsNpWUDuPPdHLyd_pad-5" x="7913.8" y="-4509.4"/><use xlink:href="#ut8ETJsNpWUDuPPdHLyd_pad-5" x="7913.8" y="-4624.4"/><use xlink:href="#ut8ETJsNpWUDuPPdHLyd_pad-5" x="7913.8" y="-4824.4"/><use xlink:href="#ut8ETJsNpWUDuPPdHLyd_pad-5" x="7913.8" y="-4939.4"/><use xlink:href="#ut8ETJsNpWUDuPPdHLyd_pad-5" x="7913.8" y="-5139.4"/><use xlink:href="#ut8ETJsNpWUDuPPdHLyd_pad-5" x="7913.8" y="-5254.3"/><use xlink:href="#ut8ETJsNpWUDuPPdHLyd_pad-5" x="7913.8" y="-5454.3"/><path d="M 3713.6 -2729.3 3713.6 -2745.1 M 3904.1 -2729.3 3904.1 -2745.1" fill="none" stroke-width="25.6"/><path d="M 3701.4 -2609.3 3701.4 -2628.9 M 3916.3 -2609.3 3916.3 -2628.9" fill="none" stroke-width="27.6"/></g></svg>