0
SECTION
2
HEADER
9
$INSUNITS
70
4
9
$ACADVER
1
AC1014
9
$HANDSEED
5
FFFF
0
ENDSEC
0
SECTION
2
TABLES
0
TABLE
2
VPORT
5
8
100
AcDbSymbolTable
0
ENDTAB
0
TABLE
2
LTYPE
5
5
100
AcDbSymbolTable
0
LTYPE
5
14
100
AcDbSymbolTableRecord
100
AcDbLinetypeTableRecord
2
BYBLOCK
70
0
0
LTYPE
5
15
100
AcDbSymbolTableRecord
100
AcDbLinetypeTableRecord
2
BYLAYER
70
0
0
ENDTAB
0
TABLE
2
LAYER
5
2
100
AcDbSymbolTable
70
2
0
LAYER
5
50
100
AcDbSymbolTableRecord
100
AcDbLayerTableRecord
2
0
70
0
6
CONTINUOUS
0
ENDTAB
0
TABLE
2
STYLE
5
3
100
AcDbSymbolTable
70
1
0
STYLE
5
11
100
AcDbSymbolTableRecord
100
AcDbTextStyleTableRecord
2
STANDARD
70
0
0
ENDTAB
0
TABLE
2
VIEW
5
6
100
AcDbSymbolTable
70
0
0
ENDTAB
0
TABLE
2
UCS
5
7
100
AcDbSymbolTable
70
0
0
ENDTAB
0
TABLE
2
APPID
5
9
100
AcDbSymbolTable
70
2
0
APPID
5
12
100
AcDbSymbolTableRecord
100
AcDbRegAppTableRecord
2
ACAD
70
0
0
ENDTAB
0
TABLE
2
DIMSTYLE
5
A
100
AcDbSymbolTable
70
1
0
ENDTAB
0
TABLE
2
BLOCK_RECORD
5
1
100
AcDbSymbolTable
70
1
0
BLOCK_RECORD
5
1F
100
AcDbSymbolTableRecord
100
AcDbBlockTableRecord
2
*MODEL_SPACE
0
BLOCK_RECORD
5
1B
100
AcDbSymbolTableRecord
100
AcDbBlockTableRecord
2
*PAPER_SPACE
0
ENDTAB
0
ENDSEC
0
SECTION
2
BLOCKS
0
BLOCK
5
20
100
AcDbEntity
100
AcDbBlockBegin
2
*MODEL_SPACE
0
ENDBLK
5
21
100
AcDbEntity
100
AcDbBlockEnd
0
BLOCK
5
1C
100
AcDbEntity
100
AcDbBlockBegin
2
*PAPER_SPACE
0
ENDBLK
5
1D
100
AcDbEntity
100
AcDbBlockEnd
0
ENDSEC
0
SECTION
2
ENTITIES
0
LWPOLYLINE
5
100
100
AcDbEntity
8
0
100
AcDbPolyline
90
8
70
1
43
0.0
10
-83.756381540781604
20
1.0542352188740556
42
0.41421356237309503
10
-80.756381540781618
20
-1.9457647811259449
10
-21.756381540781611
20
-1.9457647811259449
42
0.41421356237309548
10
-18.756381540781607
20
1.0542352188740556
10
-18.756381540781604
20
25.054235218874055
42
0.41421356237309503
10
-21.756381540781607
20
28.054235218874055
10
-80.756381540781618
20
28.054235218874055
42
0.41421356237309503
10
-83.756381540781604
20
25.054235218874055
0
LWPOLYLINE
5
101
100
AcDbEntity
8
0
100
AcDbPolyline
90
4
70
1
43
0.0
10
-27.87635642049089
20
6.0965820829486725
10
-26.37635642049089
20
6.0965820829486725
10
-26.37635642049089
20
4.5965820829486734
10
-27.87635642049089
20
4.5965820829486734
0
LWPOLYLINE
5
102
100
AcDbEntity
8
0
100
AcDbPolyline
90
4
70
1
43
0.0
10
-77.335223891350211
20
26.093730615276144
42
0.99999999999999989
10
-76.335223891350211
20
26.093730615276144
10
-76.335223891350211
20
26.59373061527614
42
0.99999999999999989
10
-77.335223891350211
20
26.59373061527614
0
LWPOLYLINE
5
103
100
AcDbEntity
8
0
100
AcDbPolyline
90
4
70
1
43
0.0
10
-66.435223891350205
20
26.093730615276144
42
0.99999999999999989
10
-65.435223891350219
20
26.093730615276144
10
-65.435223891350219
20
26.59373061527614
42
0.99999999999999989
10
-66.435223891350205
20
26.59373061527614
0
LWPOLYLINE
5
104
100
AcDbEntity
8
0
100
AcDbPolyline
90
4
70
1
43
0.0
10
-66.435223891350205
20
21.593730615276144
42
0.99999999999999989
10
-65.435223891350219
20
21.593730615276144
10
-65.435223891350219
20
22.093730615276144
42
0.99999999999999989
10
-66.435223891350205
20
22.093730615276144
0
LWPOLYLINE
5
105
100
AcDbEntity
8
0
100
AcDbPolyline
90
4
70
1
43
0.0
10
-77.335223891350211
20
21.593730615276144
42
0.99999999999999989
10
-76.335223891350211
20
21.593730615276144
10
-76.335223891350211
20
22.093730615276144
42
0.99999999999999989
10
-77.335223891350211
20
22.093730615276144
0
LWPOLYLINE
5
106
100
AcDbEntity
8
0
100
AcDbPolyline
90
4
70
1
43
0.0
10
-30.395745176327441
20
8.6364984549211936
10
-28.895745176327445
20
8.6364984549211936
10
-28.895745176327438
20
7.1364984549211927
10
-30.395745176327441
20
7.1364984549211927
0
CIRCLE
5
107
100
AcDbEntity
8
0
100
AcDbCircle
10
-80.256381540781604
20
24.554235218874059
30
0
40
3.0000000000000009
210
0
220
0
230
1
0
CIRCLE
5
108
100
AcDbEntity
8
0
100
AcDbCircle
10
-75.386381540781585
20
0.26658208307289488
30
0
40
0.75000000000000244
210
0
220
0
230
1
0
CIRCLE
5
109
100
AcDbEntity
8
0
100
AcDbCircle
10
-72.846381540781579
20
0.26658208307289488
30
0
40
0.75000000000000244
210
0
220
0
230
1
0
CIRCLE
5
110
100
AcDbEntity
8
0
100
AcDbCircle
10
-67.76638154078158
20
0.26658208307289488
30
0
40
0.75000000000000244
210
0
220
0
230
1
0
CIRCLE
5
111
100
AcDbEntity
8
0
100
AcDbCircle
10
-62.686381540781596
20
0.26658208307289488
30
0
40
0.75000000000000067
210
0
220
0
230
1
0
CIRCLE
5
112
100
AcDbEntity
8
0
100
AcDbCircle
10
-57.606381540781598
20
0.26658208307289488
30
0
40
0.75000000000000067
210
0
220
0
230
1
0
CIRCLE
5
113
100
AcDbEntity
8
0
100
AcDbCircle
10
-52.5263815407816
20
0.26658208307289488
30
0
40
0.75000000000000067
210
0
220
0
230
1
0
CIRCLE
5
114
100
AcDbEntity
8
0
100
AcDbCircle
10
-47.446381540781609
20
0.26658208307289488
30
0
40
0.75000000000000067
210
0
220
0
230
1
0
CIRCLE
5
115
100
AcDbEntity
8
0
100
AcDbCircle
10
-42.36638154078161
20
0.26658208307289488
30
0
40
0.75000000000000067
210
0
220
0
230
1
0
CIRCLE
5
116
100
AcDbEntity
8
0
100
AcDbCircle
10
-37.286381540781626
20
0.26658208307289488
30
0
40
0.75000000000000067
210
0
220
0
230
1
0
CIRCLE
5
117
100
AcDbEntity
8
0
100
AcDbCircle
10
-32.206381540781621
20
0.26658208307289488
30
0
40
0.75000000000000244
210
0
220
0
230
1
0
CIRCLE
5
118
100
AcDbEntity
8
0
100
AcDbCircle
10
-27.126381540781637
20
0.26658208307289488
30
0
40
0.75000000000000244
210
0
220
0
230
1
0
CIRCLE
5
119
100
AcDbEntity
8
0
100
AcDbCircle
10
-70.306381540781558
20
2.8065820830728949
30
0
40
0.75000000000000244
210
0
220
0
230
1
0
CIRCLE
5
120
100
AcDbEntity
8
0
100
AcDbCircle
10
-65.22638154078156
20
2.8065820830728949
30
0
40
0.75000000000000067
210
0
220
0
230
1
0
CIRCLE
5
121
100
AcDbEntity
8
0
100
AcDbCircle
10
-60.146381540781569
20
2.8065820830728949
30
0
40
0.75000000000000067
210
0
220
0
230
1
0
CIRCLE
5
122
100
AcDbEntity
8
0
100
AcDbCircle
10
-55.06638154078157
20
2.8065820830728949
30
0
40
0.75000000000000067
210
0
220
0
230
1
0
CIRCLE
5
123
100
AcDbEntity
8
0
100
AcDbCircle
10
-49.986381540781579
20
2.8065820830728949
30
0
40
0.75000000000000067
210
0
220
0
230
1
0
CIRCLE
5
124
100
AcDbEntity
8
0
100
AcDbCircle
10
-44.906381540781588
20
2.8065820830728949
30
0
40
0.75000000000000067
210
0
220
0
230
1
0
CIRCLE
5
125
100
AcDbEntity
8
0
100
AcDbCircle
10
-39.82638154078159
20
2.8065820830728949
30
0
40
0.75000000000000067
210
0
220
0
230
1
0
CIRCLE
5
126
100
AcDbEntity
8
0
100
AcDbCircle
10
-34.746381540781599
20
2.8065820830728949
30
0
40
0.75000000000000244
210
0
220
0
230
1
0
CIRCLE
5
127
100
AcDbEntity
8
0
100
AcDbCircle
10
-29.6663815407816
20
2.8065820830728949
30
0
40
0.75000000000000244
210
0
220
0
230
1
0
CIRCLE
5
128
100
AcDbEntity
8
0
100
AcDbCircle
10
-75.386381540781557
20
2.8065820830728949
30
0
40
0.75000000000000244
210
0
220
0
230
1
0
CIRCLE
5
129
100
AcDbEntity
8
0
100
AcDbCircle
10
-22.256381540781611
20
1.554235218874056
30
0
40
3.0000000000000009
210
0
220
0
230
1
0
CIRCLE
5
130
100
AcDbEntity
8
0
100
AcDbCircle
10
-27.105745176327439
20
7.8864984549211927
30
0
40
0.75000000000000244
210
0
220
0
230
1
0
CIRCLE
5
131
100
AcDbEntity
8
0
100
AcDbCircle
10
-27.126381540781605
20
2.8065820830728949
30
0
40
0.75000000000000244
210
0
220
0
230
1
0
CIRCLE
5
132
100
AcDbEntity
8
0
100
AcDbCircle
10
-32.206381540781592
20
2.8065820830728949
30
0
40
0.75000000000000244
210
0
220
0
230
1
0
CIRCLE
5
133
100
AcDbEntity
8
0
100
AcDbCircle
10
-37.286381540781598
20
2.8065820830728949
30
0
40
0.75000000000000067
210
0
220
0
230
1
0
CIRCLE
5
134
100
AcDbEntity
8
0
100
AcDbCircle
10
-42.366381540781582
20
2.8065820830728949
30
0
40
0.75000000000000067
210
0
220
0
230
1
0
CIRCLE
5
135
100
AcDbEntity
8
0
100
AcDbCircle
10
-47.446381540781587
20
2.8065820830728949
30
0
40
0.75000000000000067
210
0
220
0
230
1
0
CIRCLE
5
136
100
AcDbEntity
8
0
100
AcDbCircle
10
-52.526381540781571
20
2.8065820830728949
30
0
40
0.75000000000000067
210
0
220
0
230
1
0
CIRCLE
5
137
100
AcDbEntity
8
0
100
AcDbCircle
10
-57.60638154078157
20
2.8065820830728949
30
0
40
0.75000000000000067
210
0
220
0
230
1
0
CIRCLE
5
138
100
AcDbEntity
8
0
100
AcDbCircle
10
-62.686381540781568
20
2.8065820830728949
30
0
40
0.75000000000000067
210
0
220
0
230
1
0
CIRCLE
5
139
100
AcDbEntity
8
0
100
AcDbCircle
10
-67.766381540781552
20
2.8065820830728949
30
0
40
0.75000000000000244
210
0
220
0
230
1
0
CIRCLE
5
140
100
AcDbEntity
8
0
100
AcDbCircle
10
-72.84638154078155
20
2.8065820830728949
30
0
40
0.75000000000000244
210
0
220
0
230
1
0
CIRCLE
5
141
100
AcDbEntity
8
0
100
AcDbCircle
10
-29.666381540781629
20
0.26658208307289488
30
0
40
0.75000000000000244
210
0
220
0
230
1
0
CIRCLE
5
142
100
AcDbEntity
8
0
100
AcDbCircle
10
-34.746381540781627
20
0.26658208307289488
30
0
40
0.75000000000000244
210
0
220
0
230
1
0
CIRCLE
5
143
100
AcDbEntity
8
0
100
AcDbCircle
10
-39.826381540781611
20
0.26658208307289488
30
0
40
0.75000000000000067
210
0
220
0
230
1
0
CIRCLE
5
144
100
AcDbEntity
8
0
100
AcDbCircle
10
-44.906381540781616
20
0.26658208307289488
30
0
40
0.75000000000000067
210
0
220
0
230
1
0
CIRCLE
5
145
100
AcDbEntity
8
0
100
AcDbCircle
10
-49.986381540781608
20
0.26658208307289488
30
0
40
0.75000000000000067
210
0
220
0
230
1
0
CIRCLE
5
146
100
AcDbEntity
8
0
100
AcDbCircle
10
-55.066381540781606
20
0.26658208307289488
30
0
40
0.75000000000000067
210
0
220
0
230
1
0
CIRCLE
5
147
100
AcDbEntity
8
0
100
AcDbCircle
10
-60.146381540781597
20
0.26658208307289488
30
0
40
0.75000000000000067
210
0
220
0
230
1
0
CIRCLE
5
148
100
AcDbEntity
8
0
100
AcDbCircle
10
-65.226381540781588
20
0.26658208307289488
30
0
40
0.75000000000000067
210
0
220
0
230
1
0
CIRCLE
5
149
100
AcDbEntity
8
0
100
AcDbCircle
10
-70.306381540781587
20
0.26658208307289488
30
0
40
0.75000000000000244
210
0
220
0
230
1
0
CIRCLE
5
150
100
AcDbEntity
8
0
100
AcDbCircle
10
-29.666356420490892
20
5.3465820829486779
30
0
40
0.75000000000000244
210
0
220
0
230
1
0
CIRCLE
5
151
100
AcDbEntity
8
0
100
AcDbCircle
10
-22.256381540781611
20
24.554235218874059
30
0
40
3.0000000000000009
210
0
220
0
230
1
0
CIRCLE
5
152
100
AcDbEntity
8
0
100
AcDbCircle
10
-80.256381540781604
20
1.554235218874056
30
0
40
2.9999999999999978
210
0
220
0
230
1
0
ENDSEC
0
SECTION
2
OBJECTS
0
DICTIONARY
5
C
100
AcDbDictionary
3
ACAD_GROUP
350
D
3
ACAD_MLINESTYLE
350
17
0
DICTIONARY
5
D
100
AcDbDictionary
0
DICTIONARY
5
1A
330
C
100
AcDbDictionary
0
DICTIONARY
5
17
100
AcDbDictionary
0
ENDSEC
0
EOF
