M48
; DRILL file {KiCad (6.0.4)} date Fri Oct 14 21:25:16 2022
; FORMAT={-:-/ absolute / inch / decimal}
; #@! TF.CreationDate,2022-10-14T21:25:16-05:00
; #@! TF.GenerationSoftware,Kicad,Pcbnew,(6.0.4)
; #@! TF.FileFunction,Plated,1,2,PTH
FMAT,2
INCH
; #@! TA.AperFunction,Plated,PTH,ViaDrill
T1C0.0157
; #@! TA.AperFunction,Plated,PTH,ComponentDrill
T2C0.0315
; #@! TA.AperFunction,Plated,PTH,ComponentDrill
T3C0.0354
%
G90
G05
T1
X5.2469Y-3.9201
X5.2469Y-4.2311
X5.7041Y-2.6303
X6.1878Y-2.6441
T2
X6.3244Y-2.6614
T3
X5.472Y-2.7346
X5.472Y-2.9346
X5.472Y-3.0496
X5.472Y-3.2496
X5.472Y-3.3646
X5.472Y-3.5646
X5.472Y-3.6795
X5.472Y-3.8795
X5.472Y-3.9945
X5.472Y-4.1945
X5.472Y-4.3094
X5.472Y-4.5094
X5.472Y-4.6244
X5.472Y-4.8244
X5.772Y-2.7346
X5.772Y-2.9346
X5.772Y-3.0496
X5.772Y-3.2496
X5.772Y-3.3646
X5.772Y-3.5646
X5.772Y-3.6795
X5.772Y-3.8795
X5.772Y-3.9945
X5.772Y-4.1945
X5.772Y-4.3094
X5.772Y-4.5094
X5.772Y-4.6244
X5.772Y-4.8244
X5.9406Y-2.7346
X5.9406Y-2.9346
X5.9406Y-3.0496
X5.9406Y-3.2496
X5.9406Y-3.3646
X5.9406Y-3.5646
X5.9406Y-3.6795
X5.9406Y-3.8795
X5.9406Y-3.9945
X5.9406Y-4.1945
X5.9406Y-4.3094
X5.9406Y-4.5094
X5.9406Y-4.6244
X5.9406Y-4.8244
X6.2406Y-2.7346
X6.2406Y-2.9346
X6.2406Y-3.0496
X6.2406Y-3.2496
X6.2406Y-3.3646
X6.2406Y-3.5646
X6.2406Y-3.6795
X6.2406Y-3.8795
X6.2406Y-3.9945
X6.2406Y-4.1945
X6.2406Y-4.3094
X6.2406Y-4.5094
X6.2406Y-4.6244
X6.2406Y-4.8244
X6.4091Y-2.7346
X6.4091Y-2.9346
X6.4091Y-3.0496
X6.4091Y-3.2496
X6.4091Y-3.3646
X6.4091Y-3.5646
X6.4091Y-3.6795
X6.4091Y-3.8795
X6.4091Y-3.9945
X6.4091Y-4.1945
X6.4091Y-4.3094
X6.4091Y-4.5094
X6.4091Y-4.6244
X6.4091Y-4.8244
X6.7091Y-2.7346
X6.7091Y-2.9346
X6.7091Y-3.0496
X6.7091Y-3.2496
X6.7091Y-3.3646
X6.7091Y-3.5646
X6.7091Y-3.6795
X6.7091Y-3.8795
X6.7091Y-3.9945
X6.7091Y-4.1945
X6.7091Y-4.3094
X6.7091Y-4.5094
X6.7091Y-4.6244
X6.7091Y-4.8244
T0
M30
