%TF.GenerationSoftware,KiCad,Pcbnew,(6.0.4)*%
%TF.CreationDate,2022-10-14T21:25:15-05:00*%
%TF.ProjectId,KeyPad,4b657950-6164-42e6-9b69-6361645f7063,rev?*%
%TF.SameCoordinates,Original*%
%TF.FileFunction,Legend,Bot*%
%TF.FilePolarity,Positive*%
%FSLAX46Y46*%
G04 Gerber Fmt 4.6, Leading zero omitted, Abs format (unit mm)*
G04 Created by KiCad (PCBNEW (6.0.4)) date 2022-10-14 21:25:15*
%MOMM*%
%LPD*%
G01*
G04 APERTURE LIST*
%ADD10C,0.150000*%
%ADD11C,0.120000*%
%ADD12C,0.127000*%
%ADD13C,0.200000*%
G04 APERTURE END LIST*
D10*
%TO.C,D14*%
X155914285Y-122752380D02*
X155914285Y-121752380D01*
X155676190Y-121752380D01*
X155533333Y-121800000D01*
X155438095Y-121895238D01*
X155390476Y-121990476D01*
X155342857Y-122180952D01*
X155342857Y-122323809D01*
X155390476Y-122514285D01*
X155438095Y-122609523D01*
X155533333Y-122704761D01*
X155676190Y-122752380D01*
X155914285Y-122752380D01*
X154390476Y-122752380D02*
X154961904Y-122752380D01*
X154676190Y-122752380D02*
X154676190Y-121752380D01*
X154771428Y-121895238D01*
X154866666Y-121990476D01*
X154961904Y-122038095D01*
X153533333Y-122085714D02*
X153533333Y-122752380D01*
X153771428Y-121704761D02*
X154009523Y-122419047D01*
X153390476Y-122419047D01*
%TO.C,D5*%
X143538095Y-106752380D02*
X143538095Y-105752380D01*
X143300000Y-105752380D01*
X143157142Y-105800000D01*
X143061904Y-105895238D01*
X143014285Y-105990476D01*
X142966666Y-106180952D01*
X142966666Y-106323809D01*
X143014285Y-106514285D01*
X143061904Y-106609523D01*
X143157142Y-106704761D01*
X143300000Y-106752380D01*
X143538095Y-106752380D01*
X142061904Y-105752380D02*
X142538095Y-105752380D01*
X142585714Y-106228571D01*
X142538095Y-106180952D01*
X142442857Y-106133333D01*
X142204761Y-106133333D01*
X142109523Y-106180952D01*
X142061904Y-106228571D01*
X142014285Y-106323809D01*
X142014285Y-106561904D01*
X142061904Y-106657142D01*
X142109523Y-106704761D01*
X142204761Y-106752380D01*
X142442857Y-106752380D01*
X142538095Y-106704761D01*
X142585714Y-106657142D01*
%TO.C,D9*%
X155438095Y-82752380D02*
X155438095Y-81752380D01*
X155200000Y-81752380D01*
X155057142Y-81800000D01*
X154961904Y-81895238D01*
X154914285Y-81990476D01*
X154866666Y-82180952D01*
X154866666Y-82323809D01*
X154914285Y-82514285D01*
X154961904Y-82609523D01*
X155057142Y-82704761D01*
X155200000Y-82752380D01*
X155438095Y-82752380D01*
X154390476Y-82752380D02*
X154200000Y-82752380D01*
X154104761Y-82704761D01*
X154057142Y-82657142D01*
X153961904Y-82514285D01*
X153914285Y-82323809D01*
X153914285Y-81942857D01*
X153961904Y-81847619D01*
X154009523Y-81800000D01*
X154104761Y-81752380D01*
X154295238Y-81752380D01*
X154390476Y-81800000D01*
X154438095Y-81847619D01*
X154485714Y-81942857D01*
X154485714Y-82180952D01*
X154438095Y-82276190D01*
X154390476Y-82323809D01*
X154295238Y-82371428D01*
X154104761Y-82371428D01*
X154009523Y-82323809D01*
X153961904Y-82276190D01*
X153914285Y-82180952D01*
%TO.C,D3*%
X143538095Y-90752380D02*
X143538095Y-89752380D01*
X143300000Y-89752380D01*
X143157142Y-89800000D01*
X143061904Y-89895238D01*
X143014285Y-89990476D01*
X142966666Y-90180952D01*
X142966666Y-90323809D01*
X143014285Y-90514285D01*
X143061904Y-90609523D01*
X143157142Y-90704761D01*
X143300000Y-90752380D01*
X143538095Y-90752380D01*
X142633333Y-89752380D02*
X142014285Y-89752380D01*
X142347619Y-90133333D01*
X142204761Y-90133333D01*
X142109523Y-90180952D01*
X142061904Y-90228571D01*
X142014285Y-90323809D01*
X142014285Y-90561904D01*
X142061904Y-90657142D01*
X142109523Y-90704761D01*
X142204761Y-90752380D01*
X142490476Y-90752380D01*
X142585714Y-90704761D01*
X142633333Y-90657142D01*
%TO.C,D10*%
X155914285Y-90752380D02*
X155914285Y-89752380D01*
X155676190Y-89752380D01*
X155533333Y-89800000D01*
X155438095Y-89895238D01*
X155390476Y-89990476D01*
X155342857Y-90180952D01*
X155342857Y-90323809D01*
X155390476Y-90514285D01*
X155438095Y-90609523D01*
X155533333Y-90704761D01*
X155676190Y-90752380D01*
X155914285Y-90752380D01*
X154390476Y-90752380D02*
X154961904Y-90752380D01*
X154676190Y-90752380D02*
X154676190Y-89752380D01*
X154771428Y-89895238D01*
X154866666Y-89990476D01*
X154961904Y-90038095D01*
X153771428Y-89752380D02*
X153676190Y-89752380D01*
X153580952Y-89800000D01*
X153533333Y-89847619D01*
X153485714Y-89942857D01*
X153438095Y-90133333D01*
X153438095Y-90371428D01*
X153485714Y-90561904D01*
X153533333Y-90657142D01*
X153580952Y-90704761D01*
X153676190Y-90752380D01*
X153771428Y-90752380D01*
X153866666Y-90704761D01*
X153914285Y-90657142D01*
X153961904Y-90561904D01*
X154009523Y-90371428D01*
X154009523Y-90133333D01*
X153961904Y-89942857D01*
X153914285Y-89847619D01*
X153866666Y-89800000D01*
X153771428Y-89752380D01*
%TO.C,D12*%
X155914285Y-106752380D02*
X155914285Y-105752380D01*
X155676190Y-105752380D01*
X155533333Y-105800000D01*
X155438095Y-105895238D01*
X155390476Y-105990476D01*
X155342857Y-106180952D01*
X155342857Y-106323809D01*
X155390476Y-106514285D01*
X155438095Y-106609523D01*
X155533333Y-106704761D01*
X155676190Y-106752380D01*
X155914285Y-106752380D01*
X154390476Y-106752380D02*
X154961904Y-106752380D01*
X154676190Y-106752380D02*
X154676190Y-105752380D01*
X154771428Y-105895238D01*
X154866666Y-105990476D01*
X154961904Y-106038095D01*
X154009523Y-105847619D02*
X153961904Y-105800000D01*
X153866666Y-105752380D01*
X153628571Y-105752380D01*
X153533333Y-105800000D01*
X153485714Y-105847619D01*
X153438095Y-105942857D01*
X153438095Y-106038095D01*
X153485714Y-106180952D01*
X154057142Y-106752380D01*
X153438095Y-106752380D01*
%TO.C,D17*%
X167814285Y-90752380D02*
X167814285Y-89752380D01*
X167576190Y-89752380D01*
X167433333Y-89800000D01*
X167338095Y-89895238D01*
X167290476Y-89990476D01*
X167242857Y-90180952D01*
X167242857Y-90323809D01*
X167290476Y-90514285D01*
X167338095Y-90609523D01*
X167433333Y-90704761D01*
X167576190Y-90752380D01*
X167814285Y-90752380D01*
X166290476Y-90752380D02*
X166861904Y-90752380D01*
X166576190Y-90752380D02*
X166576190Y-89752380D01*
X166671428Y-89895238D01*
X166766666Y-89990476D01*
X166861904Y-90038095D01*
X165957142Y-89752380D02*
X165290476Y-89752380D01*
X165719047Y-90752380D01*
%TO.C,D19*%
X167814285Y-106752380D02*
X167814285Y-105752380D01*
X167576190Y-105752380D01*
X167433333Y-105800000D01*
X167338095Y-105895238D01*
X167290476Y-105990476D01*
X167242857Y-106180952D01*
X167242857Y-106323809D01*
X167290476Y-106514285D01*
X167338095Y-106609523D01*
X167433333Y-106704761D01*
X167576190Y-106752380D01*
X167814285Y-106752380D01*
X166290476Y-106752380D02*
X166861904Y-106752380D01*
X166576190Y-106752380D02*
X166576190Y-105752380D01*
X166671428Y-105895238D01*
X166766666Y-105990476D01*
X166861904Y-106038095D01*
X165814285Y-106752380D02*
X165623809Y-106752380D01*
X165528571Y-106704761D01*
X165480952Y-106657142D01*
X165385714Y-106514285D01*
X165338095Y-106323809D01*
X165338095Y-105942857D01*
X165385714Y-105847619D01*
X165433333Y-105800000D01*
X165528571Y-105752380D01*
X165719047Y-105752380D01*
X165814285Y-105800000D01*
X165861904Y-105847619D01*
X165909523Y-105942857D01*
X165909523Y-106180952D01*
X165861904Y-106276190D01*
X165814285Y-106323809D01*
X165719047Y-106371428D01*
X165528571Y-106371428D01*
X165433333Y-106323809D01*
X165385714Y-106276190D01*
X165338095Y-106180952D01*
%TO.C,D13*%
X155914285Y-114752380D02*
X155914285Y-113752380D01*
X155676190Y-113752380D01*
X155533333Y-113800000D01*
X155438095Y-113895238D01*
X155390476Y-113990476D01*
X155342857Y-114180952D01*
X155342857Y-114323809D01*
X155390476Y-114514285D01*
X155438095Y-114609523D01*
X155533333Y-114704761D01*
X155676190Y-114752380D01*
X155914285Y-114752380D01*
X154390476Y-114752380D02*
X154961904Y-114752380D01*
X154676190Y-114752380D02*
X154676190Y-113752380D01*
X154771428Y-113895238D01*
X154866666Y-113990476D01*
X154961904Y-114038095D01*
X154057142Y-113752380D02*
X153438095Y-113752380D01*
X153771428Y-114133333D01*
X153628571Y-114133333D01*
X153533333Y-114180952D01*
X153485714Y-114228571D01*
X153438095Y-114323809D01*
X153438095Y-114561904D01*
X153485714Y-114657142D01*
X153533333Y-114704761D01*
X153628571Y-114752380D01*
X153914285Y-114752380D01*
X154009523Y-114704761D01*
X154057142Y-114657142D01*
%TO.C,D21*%
X167814285Y-122752380D02*
X167814285Y-121752380D01*
X167576190Y-121752380D01*
X167433333Y-121800000D01*
X167338095Y-121895238D01*
X167290476Y-121990476D01*
X167242857Y-122180952D01*
X167242857Y-122323809D01*
X167290476Y-122514285D01*
X167338095Y-122609523D01*
X167433333Y-122704761D01*
X167576190Y-122752380D01*
X167814285Y-122752380D01*
X166861904Y-121847619D02*
X166814285Y-121800000D01*
X166719047Y-121752380D01*
X166480952Y-121752380D01*
X166385714Y-121800000D01*
X166338095Y-121847619D01*
X166290476Y-121942857D01*
X166290476Y-122038095D01*
X166338095Y-122180952D01*
X166909523Y-122752380D01*
X166290476Y-122752380D01*
X165338095Y-122752380D02*
X165909523Y-122752380D01*
X165623809Y-122752380D02*
X165623809Y-121752380D01*
X165719047Y-121895238D01*
X165814285Y-121990476D01*
X165909523Y-122038095D01*
%TO.C,D6*%
X143538095Y-114752380D02*
X143538095Y-113752380D01*
X143300000Y-113752380D01*
X143157142Y-113800000D01*
X143061904Y-113895238D01*
X143014285Y-113990476D01*
X142966666Y-114180952D01*
X142966666Y-114323809D01*
X143014285Y-114514285D01*
X143061904Y-114609523D01*
X143157142Y-114704761D01*
X143300000Y-114752380D01*
X143538095Y-114752380D01*
X142109523Y-113752380D02*
X142300000Y-113752380D01*
X142395238Y-113800000D01*
X142442857Y-113847619D01*
X142538095Y-113990476D01*
X142585714Y-114180952D01*
X142585714Y-114561904D01*
X142538095Y-114657142D01*
X142490476Y-114704761D01*
X142395238Y-114752380D01*
X142204761Y-114752380D01*
X142109523Y-114704761D01*
X142061904Y-114657142D01*
X142014285Y-114561904D01*
X142014285Y-114323809D01*
X142061904Y-114228571D01*
X142109523Y-114180952D01*
X142204761Y-114133333D01*
X142395238Y-114133333D01*
X142490476Y-114180952D01*
X142538095Y-114228571D01*
X142585714Y-114323809D01*
%TO.C,D18*%
X167814285Y-98752380D02*
X167814285Y-97752380D01*
X167576190Y-97752380D01*
X167433333Y-97800000D01*
X167338095Y-97895238D01*
X167290476Y-97990476D01*
X167242857Y-98180952D01*
X167242857Y-98323809D01*
X167290476Y-98514285D01*
X167338095Y-98609523D01*
X167433333Y-98704761D01*
X167576190Y-98752380D01*
X167814285Y-98752380D01*
X166290476Y-98752380D02*
X166861904Y-98752380D01*
X166576190Y-98752380D02*
X166576190Y-97752380D01*
X166671428Y-97895238D01*
X166766666Y-97990476D01*
X166861904Y-98038095D01*
X165719047Y-98180952D02*
X165814285Y-98133333D01*
X165861904Y-98085714D01*
X165909523Y-97990476D01*
X165909523Y-97942857D01*
X165861904Y-97847619D01*
X165814285Y-97800000D01*
X165719047Y-97752380D01*
X165528571Y-97752380D01*
X165433333Y-97800000D01*
X165385714Y-97847619D01*
X165338095Y-97942857D01*
X165338095Y-97990476D01*
X165385714Y-98085714D01*
X165433333Y-98133333D01*
X165528571Y-98180952D01*
X165719047Y-98180952D01*
X165814285Y-98228571D01*
X165861904Y-98276190D01*
X165909523Y-98371428D01*
X165909523Y-98561904D01*
X165861904Y-98657142D01*
X165814285Y-98704761D01*
X165719047Y-98752380D01*
X165528571Y-98752380D01*
X165433333Y-98704761D01*
X165385714Y-98657142D01*
X165338095Y-98561904D01*
X165338095Y-98371428D01*
X165385714Y-98276190D01*
X165433333Y-98228571D01*
X165528571Y-98180952D01*
%TO.C,D1*%
X143528095Y-74742380D02*
X143528095Y-73742380D01*
X143290000Y-73742380D01*
X143147142Y-73790000D01*
X143051904Y-73885238D01*
X143004285Y-73980476D01*
X142956666Y-74170952D01*
X142956666Y-74313809D01*
X143004285Y-74504285D01*
X143051904Y-74599523D01*
X143147142Y-74694761D01*
X143290000Y-74742380D01*
X143528095Y-74742380D01*
X142004285Y-74742380D02*
X142575714Y-74742380D01*
X142290000Y-74742380D02*
X142290000Y-73742380D01*
X142385238Y-73885238D01*
X142480476Y-73980476D01*
X142575714Y-74028095D01*
%TO.C,D11*%
X155914285Y-98752380D02*
X155914285Y-97752380D01*
X155676190Y-97752380D01*
X155533333Y-97800000D01*
X155438095Y-97895238D01*
X155390476Y-97990476D01*
X155342857Y-98180952D01*
X155342857Y-98323809D01*
X155390476Y-98514285D01*
X155438095Y-98609523D01*
X155533333Y-98704761D01*
X155676190Y-98752380D01*
X155914285Y-98752380D01*
X154390476Y-98752380D02*
X154961904Y-98752380D01*
X154676190Y-98752380D02*
X154676190Y-97752380D01*
X154771428Y-97895238D01*
X154866666Y-97990476D01*
X154961904Y-98038095D01*
X153438095Y-98752380D02*
X154009523Y-98752380D01*
X153723809Y-98752380D02*
X153723809Y-97752380D01*
X153819047Y-97895238D01*
X153914285Y-97990476D01*
X154009523Y-98038095D01*
%TO.C,D4*%
X143538095Y-98752380D02*
X143538095Y-97752380D01*
X143300000Y-97752380D01*
X143157142Y-97800000D01*
X143061904Y-97895238D01*
X143014285Y-97990476D01*
X142966666Y-98180952D01*
X142966666Y-98323809D01*
X143014285Y-98514285D01*
X143061904Y-98609523D01*
X143157142Y-98704761D01*
X143300000Y-98752380D01*
X143538095Y-98752380D01*
X142109523Y-98085714D02*
X142109523Y-98752380D01*
X142347619Y-97704761D02*
X142585714Y-98419047D01*
X141966666Y-98419047D01*
%TO.C,D7*%
X143538095Y-122752380D02*
X143538095Y-121752380D01*
X143300000Y-121752380D01*
X143157142Y-121800000D01*
X143061904Y-121895238D01*
X143014285Y-121990476D01*
X142966666Y-122180952D01*
X142966666Y-122323809D01*
X143014285Y-122514285D01*
X143061904Y-122609523D01*
X143157142Y-122704761D01*
X143300000Y-122752380D01*
X143538095Y-122752380D01*
X142633333Y-121752380D02*
X141966666Y-121752380D01*
X142395238Y-122752380D01*
%TO.C,D16*%
X167814285Y-82752380D02*
X167814285Y-81752380D01*
X167576190Y-81752380D01*
X167433333Y-81800000D01*
X167338095Y-81895238D01*
X167290476Y-81990476D01*
X167242857Y-82180952D01*
X167242857Y-82323809D01*
X167290476Y-82514285D01*
X167338095Y-82609523D01*
X167433333Y-82704761D01*
X167576190Y-82752380D01*
X167814285Y-82752380D01*
X166290476Y-82752380D02*
X166861904Y-82752380D01*
X166576190Y-82752380D02*
X166576190Y-81752380D01*
X166671428Y-81895238D01*
X166766666Y-81990476D01*
X166861904Y-82038095D01*
X165433333Y-81752380D02*
X165623809Y-81752380D01*
X165719047Y-81800000D01*
X165766666Y-81847619D01*
X165861904Y-81990476D01*
X165909523Y-82180952D01*
X165909523Y-82561904D01*
X165861904Y-82657142D01*
X165814285Y-82704761D01*
X165719047Y-82752380D01*
X165528571Y-82752380D01*
X165433333Y-82704761D01*
X165385714Y-82657142D01*
X165338095Y-82561904D01*
X165338095Y-82323809D01*
X165385714Y-82228571D01*
X165433333Y-82180952D01*
X165528571Y-82133333D01*
X165719047Y-82133333D01*
X165814285Y-82180952D01*
X165861904Y-82228571D01*
X165909523Y-82323809D01*
%TO.C,D8*%
X155428095Y-74752380D02*
X155428095Y-73752380D01*
X155190000Y-73752380D01*
X155047142Y-73800000D01*
X154951904Y-73895238D01*
X154904285Y-73990476D01*
X154856666Y-74180952D01*
X154856666Y-74323809D01*
X154904285Y-74514285D01*
X154951904Y-74609523D01*
X155047142Y-74704761D01*
X155190000Y-74752380D01*
X155428095Y-74752380D01*
X154285238Y-74180952D02*
X154380476Y-74133333D01*
X154428095Y-74085714D01*
X154475714Y-73990476D01*
X154475714Y-73942857D01*
X154428095Y-73847619D01*
X154380476Y-73800000D01*
X154285238Y-73752380D01*
X154094761Y-73752380D01*
X153999523Y-73800000D01*
X153951904Y-73847619D01*
X153904285Y-73942857D01*
X153904285Y-73990476D01*
X153951904Y-74085714D01*
X153999523Y-74133333D01*
X154094761Y-74180952D01*
X154285238Y-74180952D01*
X154380476Y-74228571D01*
X154428095Y-74276190D01*
X154475714Y-74371428D01*
X154475714Y-74561904D01*
X154428095Y-74657142D01*
X154380476Y-74704761D01*
X154285238Y-74752380D01*
X154094761Y-74752380D01*
X153999523Y-74704761D01*
X153951904Y-74657142D01*
X153904285Y-74561904D01*
X153904285Y-74371428D01*
X153951904Y-74276190D01*
X153999523Y-74228571D01*
X154094761Y-74180952D01*
%TO.C,D20*%
X167804285Y-114752380D02*
X167804285Y-113752380D01*
X167566190Y-113752380D01*
X167423333Y-113800000D01*
X167328095Y-113895238D01*
X167280476Y-113990476D01*
X167232857Y-114180952D01*
X167232857Y-114323809D01*
X167280476Y-114514285D01*
X167328095Y-114609523D01*
X167423333Y-114704761D01*
X167566190Y-114752380D01*
X167804285Y-114752380D01*
X166851904Y-113847619D02*
X166804285Y-113800000D01*
X166709047Y-113752380D01*
X166470952Y-113752380D01*
X166375714Y-113800000D01*
X166328095Y-113847619D01*
X166280476Y-113942857D01*
X166280476Y-114038095D01*
X166328095Y-114180952D01*
X166899523Y-114752380D01*
X166280476Y-114752380D01*
X165661428Y-113752380D02*
X165566190Y-113752380D01*
X165470952Y-113800000D01*
X165423333Y-113847619D01*
X165375714Y-113942857D01*
X165328095Y-114133333D01*
X165328095Y-114371428D01*
X165375714Y-114561904D01*
X165423333Y-114657142D01*
X165470952Y-114704761D01*
X165566190Y-114752380D01*
X165661428Y-114752380D01*
X165756666Y-114704761D01*
X165804285Y-114657142D01*
X165851904Y-114561904D01*
X165899523Y-114371428D01*
X165899523Y-114133333D01*
X165851904Y-113942857D01*
X165804285Y-113847619D01*
X165756666Y-113800000D01*
X165661428Y-113752380D01*
%TO.C,D2*%
X143538095Y-82752380D02*
X143538095Y-81752380D01*
X143300000Y-81752380D01*
X143157142Y-81800000D01*
X143061904Y-81895238D01*
X143014285Y-81990476D01*
X142966666Y-82180952D01*
X142966666Y-82323809D01*
X143014285Y-82514285D01*
X143061904Y-82609523D01*
X143157142Y-82704761D01*
X143300000Y-82752380D01*
X143538095Y-82752380D01*
X142585714Y-81847619D02*
X142538095Y-81800000D01*
X142442857Y-81752380D01*
X142204761Y-81752380D01*
X142109523Y-81800000D01*
X142061904Y-81847619D01*
X142014285Y-81942857D01*
X142014285Y-82038095D01*
X142061904Y-82180952D01*
X142633333Y-82752380D01*
X142014285Y-82752380D01*
%TO.C,D15*%
X167804285Y-74752380D02*
X167804285Y-73752380D01*
X167566190Y-73752380D01*
X167423333Y-73800000D01*
X167328095Y-73895238D01*
X167280476Y-73990476D01*
X167232857Y-74180952D01*
X167232857Y-74323809D01*
X167280476Y-74514285D01*
X167328095Y-74609523D01*
X167423333Y-74704761D01*
X167566190Y-74752380D01*
X167804285Y-74752380D01*
X166280476Y-74752380D02*
X166851904Y-74752380D01*
X166566190Y-74752380D02*
X166566190Y-73752380D01*
X166661428Y-73895238D01*
X166756666Y-73990476D01*
X166851904Y-74038095D01*
X165375714Y-73752380D02*
X165851904Y-73752380D01*
X165899523Y-74228571D01*
X165851904Y-74180952D01*
X165756666Y-74133333D01*
X165518571Y-74133333D01*
X165423333Y-74180952D01*
X165375714Y-74228571D01*
X165328095Y-74323809D01*
X165328095Y-74561904D01*
X165375714Y-74657142D01*
X165423333Y-74704761D01*
X165518571Y-74752380D01*
X165756666Y-74752380D01*
X165851904Y-74704761D01*
X165899523Y-74657142D01*
D11*
%TO.C,REF\u002A\u002A*%
X161700000Y-68660000D02*
X159580000Y-68660000D01*
X159580000Y-68600000D02*
X159580000Y-68660000D01*
X161700000Y-68600000D02*
X159580000Y-68600000D01*
X161700000Y-66540000D02*
X160640000Y-66540000D01*
X161700000Y-67600000D02*
X161700000Y-66540000D01*
X161700000Y-68600000D02*
X161700000Y-68660000D01*
%TO.C,D14*%
X152450000Y-125000000D02*
X152450000Y-123000000D01*
X152450000Y-123000000D02*
X156350000Y-123000000D01*
X152450000Y-125000000D02*
X156350000Y-125000000D01*
%TO.C,D5*%
X140550000Y-109000000D02*
X140550000Y-107000000D01*
X140550000Y-107000000D02*
X144450000Y-107000000D01*
X140550000Y-109000000D02*
X144450000Y-109000000D01*
%TO.C,D9*%
X152450000Y-85000000D02*
X152450000Y-83000000D01*
X152450000Y-85000000D02*
X156350000Y-85000000D01*
X152450000Y-83000000D02*
X156350000Y-83000000D01*
%TO.C,D3*%
X140550000Y-93000000D02*
X144450000Y-93000000D01*
X140550000Y-91000000D02*
X144450000Y-91000000D01*
X140550000Y-93000000D02*
X140550000Y-91000000D01*
%TO.C,D10*%
X152450000Y-93000000D02*
X156350000Y-93000000D01*
X152450000Y-91000000D02*
X156350000Y-91000000D01*
X152450000Y-93000000D02*
X152450000Y-91000000D01*
%TO.C,D12*%
X152450000Y-107000000D02*
X156350000Y-107000000D01*
X152450000Y-109000000D02*
X156350000Y-109000000D01*
X152450000Y-109000000D02*
X152450000Y-107000000D01*
%TO.C,D17*%
X164350000Y-91000000D02*
X168250000Y-91000000D01*
X164350000Y-93000000D02*
X168250000Y-93000000D01*
X164350000Y-93000000D02*
X164350000Y-91000000D01*
%TO.C,D19*%
X164350000Y-109000000D02*
X164350000Y-107000000D01*
X164350000Y-107000000D02*
X168250000Y-107000000D01*
X164350000Y-109000000D02*
X168250000Y-109000000D01*
%TO.C,D13*%
X152450000Y-117000000D02*
X156350000Y-117000000D01*
X152450000Y-117000000D02*
X152450000Y-115000000D01*
X152450000Y-115000000D02*
X156350000Y-115000000D01*
%TO.C,D21*%
X164350000Y-123000000D02*
X168250000Y-123000000D01*
X164350000Y-125000000D02*
X168250000Y-125000000D01*
X164350000Y-125000000D02*
X164350000Y-123000000D01*
%TO.C,D6*%
X140550000Y-115000000D02*
X144450000Y-115000000D01*
X140550000Y-117000000D02*
X144450000Y-117000000D01*
X140550000Y-117000000D02*
X140550000Y-115000000D01*
%TO.C,D18*%
X164350000Y-101000000D02*
X164350000Y-99000000D01*
X164350000Y-101000000D02*
X168250000Y-101000000D01*
X164350000Y-99000000D02*
X168250000Y-99000000D01*
%TO.C,D1*%
X140540000Y-74990000D02*
X144440000Y-74990000D01*
X140540000Y-76990000D02*
X144440000Y-76990000D01*
X140540000Y-76990000D02*
X140540000Y-74990000D01*
%TO.C,D11*%
X152450000Y-101000000D02*
X152450000Y-99000000D01*
X152450000Y-101000000D02*
X156350000Y-101000000D01*
X152450000Y-99000000D02*
X156350000Y-99000000D01*
%TO.C,D4*%
X140550000Y-101000000D02*
X144450000Y-101000000D01*
X140550000Y-99000000D02*
X144450000Y-99000000D01*
X140550000Y-101000000D02*
X140550000Y-99000000D01*
%TO.C,D7*%
X140550000Y-123000000D02*
X144450000Y-123000000D01*
X140550000Y-125000000D02*
X144450000Y-125000000D01*
X140550000Y-125000000D02*
X140550000Y-123000000D01*
%TO.C,D16*%
X164350000Y-85000000D02*
X164350000Y-83000000D01*
X164350000Y-83000000D02*
X168250000Y-83000000D01*
X164350000Y-85000000D02*
X168250000Y-85000000D01*
%TO.C,D8*%
X152440000Y-75000000D02*
X156340000Y-75000000D01*
X152440000Y-77000000D02*
X152440000Y-75000000D01*
X152440000Y-77000000D02*
X156340000Y-77000000D01*
%TO.C,D20*%
X164340000Y-115000000D02*
X168240000Y-115000000D01*
X164340000Y-117000000D02*
X168240000Y-117000000D01*
X164340000Y-117000000D02*
X164340000Y-115000000D01*
%TO.C,D2*%
X140550000Y-85000000D02*
X144450000Y-85000000D01*
X140550000Y-83000000D02*
X144450000Y-83000000D01*
X140550000Y-85000000D02*
X140550000Y-83000000D01*
D12*
%TO.C,J1*%
X136220000Y-106870000D02*
X134020000Y-106870000D01*
X136220000Y-100820000D02*
X136220000Y-100170000D01*
X136220000Y-106220000D02*
X136220000Y-106870000D01*
X132620000Y-106120000D02*
X132620000Y-100920000D01*
X136220000Y-100170000D02*
X134020000Y-100170000D01*
D13*
X136755000Y-105775000D02*
G75*
G03*
X136755000Y-105775000I-100000J0D01*
G01*
D11*
%TO.C,D15*%
X164340000Y-77000000D02*
X164340000Y-75000000D01*
X164340000Y-77000000D02*
X168240000Y-77000000D01*
X164340000Y-75000000D02*
X168240000Y-75000000D01*
%TD*%
M02*
