%TF.GenerationSoftware,KiCad,Pcbnew,(6.0.4)*%
%TF.CreationDate,2022-10-14T21:25:15-05:00*%
%TF.ProjectId,KeyPad,4b657950-6164-42e6-9b69-6361645f7063,rev?*%
%TF.SameCoordinates,Original*%
%TF.FileFunction,Soldermask,Bot*%
%TF.FilePolarity,Negative*%
%FSLAX46Y46*%
G04 Gerber Fmt 4.6, Leading zero omitted, Abs format (unit mm)*
G04 Created by KiCad (PCBNEW (6.0.4)) date 2022-10-14 21:25:15*
%MOMM*%
%LPD*%
G01*
G04 APERTURE LIST*
%ADD10C,2.200000*%
%ADD11R,1.350000X1.350000*%
%ADD12C,1.524000*%
%ADD13R,0.900000X1.200000*%
%ADD14R,0.700000X0.300000*%
%ADD15R,1.000000X0.300000*%
G04 APERTURE END LIST*
D10*
%TO.C,REF\u002A\u002A*%
X134200000Y-123980000D03*
%TD*%
%TO.C,REF\u002A\u002A*%
X175200000Y-123980000D03*
%TD*%
%TO.C,REF\u002A\u002A*%
X175200000Y-67980000D03*
%TD*%
%TO.C,REF\u002A\u002A*%
X134200000Y-67980000D03*
%TD*%
D11*
%TO.C,REF\u002A\u002A*%
X160640000Y-67600000D03*
%TD*%
D12*
%TO.C,SW10*%
X150890000Y-90540000D03*
X158510000Y-90540000D03*
X158510000Y-85460000D03*
X150890000Y-85460000D03*
%TD*%
%TO.C,SW2*%
X146610000Y-82540000D03*
X138990000Y-82540000D03*
X146610000Y-77460000D03*
X138990000Y-77460000D03*
%TD*%
%TO.C,SW8*%
X158510000Y-74540000D03*
X150890000Y-74540000D03*
X158510000Y-69460000D03*
X150890000Y-69460000D03*
%TD*%
%TO.C,SW4*%
X138990000Y-98540000D03*
X146610000Y-98540000D03*
X138990000Y-93460000D03*
X146610000Y-93460000D03*
%TD*%
%TO.C,SW5*%
X146610000Y-106540000D03*
X138990000Y-106540000D03*
X138990000Y-101460000D03*
X146610000Y-101460000D03*
%TD*%
%TO.C,SW1*%
X146610000Y-74540000D03*
X138990000Y-74540000D03*
X146610000Y-69460000D03*
X138990000Y-69460000D03*
%TD*%
%TO.C,SW13*%
X150890000Y-114540000D03*
X158510000Y-114540000D03*
X150890000Y-109460000D03*
X158510000Y-109460000D03*
%TD*%
%TO.C,SW20*%
X162790000Y-114540000D03*
X170410000Y-114540000D03*
X170410000Y-109460000D03*
X162790000Y-109460000D03*
%TD*%
%TO.C,SW18*%
X162790000Y-98540000D03*
X170410000Y-98540000D03*
X170410000Y-93460000D03*
X162790000Y-93460000D03*
%TD*%
%TO.C,SW15*%
X170410000Y-74540000D03*
X162790000Y-74540000D03*
X162790000Y-69460000D03*
X170410000Y-69460000D03*
%TD*%
%TO.C,SW12*%
X158510000Y-106540000D03*
X150890000Y-106540000D03*
X150890000Y-101460000D03*
X158510000Y-101460000D03*
%TD*%
%TO.C,SW11*%
X158510000Y-98540000D03*
X150890000Y-98540000D03*
X158510000Y-93460000D03*
X150890000Y-93460000D03*
%TD*%
%TO.C,SW19*%
X170410000Y-106540000D03*
X162790000Y-106540000D03*
X162790000Y-101460000D03*
X170410000Y-101460000D03*
%TD*%
%TO.C,SW6*%
X138990000Y-114540000D03*
X146610000Y-114540000D03*
X146610000Y-109460000D03*
X138990000Y-109460000D03*
%TD*%
%TO.C,SW3*%
X146610000Y-90540000D03*
X138990000Y-90540000D03*
X138990000Y-85460000D03*
X146610000Y-85460000D03*
%TD*%
%TO.C,SW9*%
X150890000Y-82540000D03*
X158510000Y-82540000D03*
X150890000Y-77460000D03*
X158510000Y-77460000D03*
%TD*%
%TO.C,SW16*%
X162790000Y-82540000D03*
X170410000Y-82540000D03*
X170410000Y-77460000D03*
X162790000Y-77460000D03*
%TD*%
%TO.C,SW14*%
X150890000Y-122540000D03*
X158510000Y-122540000D03*
X158510000Y-117460000D03*
X150890000Y-117460000D03*
%TD*%
%TO.C,SW21*%
X170410000Y-122540000D03*
X162790000Y-122540000D03*
X162790000Y-117460000D03*
X170410000Y-117460000D03*
%TD*%
%TO.C,SW7*%
X146610000Y-122540000D03*
X138990000Y-122540000D03*
X138990000Y-117460000D03*
X146610000Y-117460000D03*
%TD*%
%TO.C,SW17*%
X170410000Y-90540000D03*
X162790000Y-90540000D03*
X162790000Y-85460000D03*
X170410000Y-85460000D03*
%TD*%
D13*
%TO.C,D14*%
X153050000Y-124000000D03*
X156350000Y-124000000D03*
%TD*%
%TO.C,D5*%
X141150000Y-108000000D03*
X144450000Y-108000000D03*
%TD*%
%TO.C,D9*%
X153050000Y-84000000D03*
X156350000Y-84000000D03*
%TD*%
%TO.C,D3*%
X141150000Y-92000000D03*
X144450000Y-92000000D03*
%TD*%
%TO.C,D10*%
X153050000Y-92000000D03*
X156350000Y-92000000D03*
%TD*%
%TO.C,D12*%
X153050000Y-108000000D03*
X156350000Y-108000000D03*
%TD*%
%TO.C,D17*%
X164950000Y-92000000D03*
X168250000Y-92000000D03*
%TD*%
%TO.C,D19*%
X164950000Y-108000000D03*
X168250000Y-108000000D03*
%TD*%
%TO.C,D13*%
X153050000Y-116000000D03*
X156350000Y-116000000D03*
%TD*%
%TO.C,D21*%
X164950000Y-124000000D03*
X168250000Y-124000000D03*
%TD*%
%TO.C,D6*%
X141150000Y-116000000D03*
X144450000Y-116000000D03*
%TD*%
%TO.C,D18*%
X164950000Y-100000000D03*
X168250000Y-100000000D03*
%TD*%
%TO.C,D1*%
X141140000Y-75990000D03*
X144440000Y-75990000D03*
%TD*%
%TO.C,D11*%
X153050000Y-100000000D03*
X156350000Y-100000000D03*
%TD*%
%TO.C,D4*%
X141150000Y-100000000D03*
X144450000Y-100000000D03*
%TD*%
%TO.C,D7*%
X141150000Y-124000000D03*
X144450000Y-124000000D03*
%TD*%
%TO.C,D16*%
X164950000Y-84000000D03*
X168250000Y-84000000D03*
%TD*%
%TO.C,D8*%
X153040000Y-76000000D03*
X156340000Y-76000000D03*
%TD*%
%TO.C,D20*%
X164940000Y-116000000D03*
X168240000Y-116000000D03*
%TD*%
%TO.C,D2*%
X141150000Y-84000000D03*
X144450000Y-84000000D03*
%TD*%
D14*
%TO.C,J1*%
X135920000Y-105770000D03*
X135920000Y-105270000D03*
X135920000Y-104770000D03*
X135920000Y-104270000D03*
X135920000Y-103770000D03*
X135920000Y-103270000D03*
X135920000Y-102770000D03*
X135920000Y-102270000D03*
X135920000Y-101770000D03*
X135920000Y-101270000D03*
D15*
X133270000Y-106560000D03*
X133270000Y-100480000D03*
%TD*%
D13*
%TO.C,D15*%
X164940000Y-76000000D03*
X168240000Y-76000000D03*
%TD*%
M02*
