%TF.GenerationSoftware,KiCad,Pcbnew,(6.0.4)*%
%TF.CreationDate,2022-10-14T21:25:15-05:00*%
%TF.ProjectId,KeyPad,4b657950-6164-42e6-9b69-6361645f7063,rev?*%
%TF.SameCoordinates,Original*%
%TF.FileFunction,Soldermask,Top*%
%TF.FilePolarity,Negative*%
%FSLAX46Y46*%
G04 Gerber Fmt 4.6, Leading zero omitted, Abs format (unit mm)*
G04 Created by KiCad (PCBNEW (6.0.4)) date 2022-10-14 21:25:15*
%MOMM*%
%LPD*%
G01*
G04 APERTURE LIST*
%ADD10C,2.200000*%
%ADD11R,1.350000X1.350000*%
%ADD12C,1.524000*%
G04 APERTURE END LIST*
D10*
%TO.C,REF\u002A\u002A*%
X134200000Y-123980000D03*
%TD*%
%TO.C,REF\u002A\u002A*%
X175200000Y-123980000D03*
%TD*%
%TO.C,REF\u002A\u002A*%
X175200000Y-67980000D03*
%TD*%
%TO.C,REF\u002A\u002A*%
X134200000Y-67980000D03*
%TD*%
D11*
%TO.C,REF\u002A\u002A*%
X160640000Y-67600000D03*
%TD*%
D12*
%TO.C,SW10*%
X150890000Y-90540000D03*
X158510000Y-90540000D03*
X158510000Y-85460000D03*
X150890000Y-85460000D03*
%TD*%
%TO.C,SW2*%
X146610000Y-82540000D03*
X138990000Y-82540000D03*
X146610000Y-77460000D03*
X138990000Y-77460000D03*
%TD*%
%TO.C,SW8*%
X158510000Y-74540000D03*
X150890000Y-74540000D03*
X158510000Y-69460000D03*
X150890000Y-69460000D03*
%TD*%
%TO.C,SW4*%
X138990000Y-98540000D03*
X146610000Y-98540000D03*
X138990000Y-93460000D03*
X146610000Y-93460000D03*
%TD*%
%TO.C,SW5*%
X146610000Y-106540000D03*
X138990000Y-106540000D03*
X138990000Y-101460000D03*
X146610000Y-101460000D03*
%TD*%
%TO.C,SW1*%
X146610000Y-74540000D03*
X138990000Y-74540000D03*
X146610000Y-69460000D03*
X138990000Y-69460000D03*
%TD*%
%TO.C,SW13*%
X150890000Y-114540000D03*
X158510000Y-114540000D03*
X150890000Y-109460000D03*
X158510000Y-109460000D03*
%TD*%
%TO.C,SW20*%
X162790000Y-114540000D03*
X170410000Y-114540000D03*
X170410000Y-109460000D03*
X162790000Y-109460000D03*
%TD*%
%TO.C,SW18*%
X162790000Y-98540000D03*
X170410000Y-98540000D03*
X170410000Y-93460000D03*
X162790000Y-93460000D03*
%TD*%
%TO.C,SW15*%
X170410000Y-74540000D03*
X162790000Y-74540000D03*
X162790000Y-69460000D03*
X170410000Y-69460000D03*
%TD*%
%TO.C,SW12*%
X158510000Y-106540000D03*
X150890000Y-106540000D03*
X150890000Y-101460000D03*
X158510000Y-101460000D03*
%TD*%
%TO.C,SW11*%
X158510000Y-98540000D03*
X150890000Y-98540000D03*
X158510000Y-93460000D03*
X150890000Y-93460000D03*
%TD*%
%TO.C,SW19*%
X170410000Y-106540000D03*
X162790000Y-106540000D03*
X162790000Y-101460000D03*
X170410000Y-101460000D03*
%TD*%
%TO.C,SW6*%
X138990000Y-114540000D03*
X146610000Y-114540000D03*
X146610000Y-109460000D03*
X138990000Y-109460000D03*
%TD*%
%TO.C,SW3*%
X146610000Y-90540000D03*
X138990000Y-90540000D03*
X138990000Y-85460000D03*
X146610000Y-85460000D03*
%TD*%
%TO.C,SW9*%
X150890000Y-82540000D03*
X158510000Y-82540000D03*
X150890000Y-77460000D03*
X158510000Y-77460000D03*
%TD*%
%TO.C,SW16*%
X162790000Y-82540000D03*
X170410000Y-82540000D03*
X170410000Y-77460000D03*
X162790000Y-77460000D03*
%TD*%
%TO.C,SW14*%
X150890000Y-122540000D03*
X158510000Y-122540000D03*
X158510000Y-117460000D03*
X150890000Y-117460000D03*
%TD*%
%TO.C,SW21*%
X170410000Y-122540000D03*
X162790000Y-122540000D03*
X162790000Y-117460000D03*
X170410000Y-117460000D03*
%TD*%
%TO.C,SW7*%
X146610000Y-122540000D03*
X138990000Y-122540000D03*
X138990000Y-117460000D03*
X146610000Y-117460000D03*
%TD*%
%TO.C,SW17*%
X170410000Y-90540000D03*
X162790000Y-90540000D03*
X162790000Y-85460000D03*
X170410000Y-85460000D03*
%TD*%
M02*
